# MagicaVoxel @ Ephtracy

# group
o 

# material
mtllib scooter_b_c.mtl
usemtl palette

# normals
vn -1 0 0
vn 1 0 0
vn 0 0 1
vn 0 0 -1
vn 0 -1 0
vn 0 1 0

# texcoords
vt 0.876953 0.5
vt 0.912109 0.5
vt 0.916016 0.5
vt 0.947266 0.5
vt 0.970703 0.5
vt 0.974609 0.5

# verts
v -0.6 0.2 0.1
v -0.6 0.2 -0.1
v -0.6 0.6 0.2
v -0.6 0.6 0.1
v -0.6 0.6 -0.1
v -0.6 0.6 -0.2
v -0.6 1 0.2
v -0.6 1 -0.2
v -0.5 0 0.1
v -0.5 0 -0.1
v -0.5 0.2 0.2
v -0.5 0.2 0.1
v -0.5 0.2 -0.1
v -0.5 0.2 -0.2
v -0.5 0.5 0.2
v -0.5 0.5 0.1
v -0.5 0.5 -0.1
v -0.5 0.5 -0.2
v -0.2 0.5 0.2
v -0.2 0.5 0.1
v -0.2 0.5 -0.1
v -0.2 0.5 -0.2
v -0.2 0.6 0.2
v -0.2 0.6 0.1
v -0.2 0.6 -0.1
v -0.2 0.6 -0.2
v -0.1 0.6 0.3
v -0.1 0.6 0.2
v -0.1 0.6 -0.2
v -0.1 0.6 -0.3
v -0.1 0.8 0.3
v -0.1 0.8 0.2
v -0.1 0.8 0.1
v -0.1 0.8 -0.1
v -0.1 0.8 -0.2
v -0.1 0.8 -0.3
v -0.1 1 0.1
v -0.1 1 -0.1
v 0.2 0 0.1
v 0.2 0 -0.1
v 0.2 0.2 0.1
v 0.2 0.2 -0.1
v 0.2 0.3 0.2
v 0.2 0.3 -0.2
v 0.2 0.6 0.2
v 0.2 0.6 -0.2
v 0.2 0.7 0.2
v 0.2 0.7 0.1
v 0.2 0.7 -0.1
v 0.2 0.7 -0.2
v 0.2 0.8 0.3
v 0.2 0.8 0.2
v 0.2 0.8 -0.2
v 0.2 0.8 -0.3
v 0.2 0.9 0.3
v 0.2 0.9 0.2
v 0.2 0.9 0.1
v 0.2 0.9 -0.1
v 0.2 0.9 -0.2
v 0.2 0.9 -0.3
v -0.2 0.8 0.2
v -0.2 0.8 -0.2
v -0.2 1 0.2
v -0.2 1 -0.2
v -0.1 0 0.1
v -0.1 0 -0.1
v -0.1 0.2 0.1
v -0.1 0.2 -0.1
v -5.96046e-08 0.3 0.1
v -5.96046e-08 0.3 -0.1
v -5.96046e-08 0.5 0.1
v -5.96046e-08 0.5 -0.1
v -5.96046e-08 0.6 0.2
v -5.96046e-08 0.6 0.1
v -5.96046e-08 0.6 -0.1
v -5.96046e-08 0.6 -0.2
v -5.96046e-08 0.7 0.3
v -5.96046e-08 0.7 0.2
v -5.96046e-08 0.7 -0.2
v -5.96046e-08 0.7 -0.3
v -5.96046e-08 0.8 0.3
v -5.96046e-08 0.8 0.1
v -5.96046e-08 0.8 -0.1
v -5.96046e-08 0.8 -0.3
v 0.1 0.3 0.2
v 0.1 0.3 0.1
v 0.1 0.3 -0.1
v 0.1 0.3 -0.2
v 0.1 0.6 0.2
v 0.1 0.6 0.1
v 0.1 0.6 -0.1
v 0.1 0.6 -0.2
v 0.1 0.8 0.1
v 0.1 0.8 -0.1
v 0.1 1 0.1
v 0.1 1 -0.1
v 0.3 0.2 0.2
v 0.3 0.2 0.1
v 0.3 0.2 -0.1
v 0.3 0.2 -0.2
v 0.3 0.3 0.1
v 0.3 0.3 -0.1
v 0.3 0.4 0.2
v 0.3 0.4 0.1
v 0.3 0.4 -0.1
v 0.3 0.4 -0.2
v 0.3 0.5 0.2
v 0.3 0.5 0.1
v 0.3 0.5 -0.1
v 0.3 0.5 -0.2
v 0.3 0.6 0.3
v 0.3 0.6 0.2
v 0.3 0.6 -0.2
v 0.3 0.6 -0.3
v 0.3 0.7 0.3
v 0.3 0.7 0.2
v 0.3 0.7 0.1
v 0.3 0.7 -0.1
v 0.3 0.7 -0.2
v 0.3 0.7 -0.3
v 0.3 0.8 0.3
v 0.3 0.8 0.2
v 0.3 0.8 -0.2
v 0.3 0.8 -0.3
v 0.3 0.9 0.3
v 0.3 0.9 0.2
v 0.3 0.9 0.1
v 0.3 0.9 -0.1
v 0.3 0.9 -0.2
v 0.3 0.9 -0.3
v 0.4 0.5 0.1
v 0.4 0.5 -0.1
v 0.4 0.7 0.1
v 0.4 0.7 -0.1
v 0.6 0 0.1
v 0.6 0 -0.1
v 0.6 0.4 0.2
v 0.6 0.4 0.1
v 0.6 0.4 -0.1
v 0.6 0.4 -0.2
v 0.6 0.5 0.2
v 0.6 0.5 -0.2
v -0.1 0.6 0.3
v -0.1 0.8 0.3
v -5.96046e-08 0.7 0.3
v -5.96046e-08 0.8 0.3
v 0.2 0.6 0.3
v 0.2 0.7 0.3
v 0.2 0.8 0.3
v 0.2 0.9 0.3
v 0.3 0.6 0.3
v 0.3 0.7 0.3
v 0.3 0.8 0.3
v 0.3 0.9 0.3
v -0.6 0.6 0.2
v -0.6 1 0.2
v -0.5 0.2 0.2
v -0.5 0.5 0.2
v -0.2 0.5 0.2
v -0.2 0.6 0.2
v -0.2 0.8 0.2
v -0.2 1 0.2
v -0.1 0.6 0.2
v -0.1 0.8 0.2
v -5.96046e-08 0.3 0.2
v -5.96046e-08 0.5 0.2
v 0.1 0.3 0.2
v 0.1 0.6 0.2
v 0.2 0.3 0.2
v 0.2 0.6 0.2
v 0.2 0.7 0.2
v 0.2 0.8 0.2
v 0.3 0.2 0.2
v 0.3 0.4 0.2
v 0.3 0.5 0.2
v 0.3 0.6 0.2
v 0.3 0.7 0.2
v 0.3 0.8 0.2
v 0.6 0.4 0.2
v 0.6 0.5 0.2
v -0.6 0.2 0.1
v -0.6 0.6 0.1
v -0.5 0 0.1
v -0.5 0.2 0.1
v -0.5 0.5 0.1
v -0.4 0.1 0.1
v -0.4 0.2 0.1
v -0.2 0.1 0.1
v -0.2 0.2 0.1
v -0.2 0.5 0.1
v -0.2 0.6 0.1
v -0.1 0 0.1
v -0.1 0.2 0.1
v -0.1 0.8 0.1
v -0.1 1 0.1
v -5.96046e-08 0.8 0.1
v 0.1 0.8 0.1
v 0.1 1 0.1
v 0.2 0 0.1
v 0.2 0.2 0.1
v 0.3 0.1 0.1
v 0.3 0.2 0.1
v 0.3 0.3 0.1
v 0.3 0.4 0.1
v 0.3 0.5 0.1
v 0.3 0.7 0.1
v 0.4 0.5 0.1
v 0.4 0.7 0.1
v 0.5 0.1 0.1
v 0.5 0.3 0.1
v 0.6 0 0.1
v 0.6 0.4 0.1
v -5.96046e-08 0.3 -0.1
v -5.96046e-08 0.5 -0.1
v -5.96046e-08 0.6 -0.1
v 0.1 0.3 -0.1
v 0.1 0.6 -0.1
v 0.2 0.7 -0.1
v 0.2 0.9 -0.1
v 0.3 0.7 -0.1
v 0.3 0.9 -0.1
v -5.96046e-08 0.6 -0.2
v -5.96046e-08 0.7 -0.2
v 0.1 0.6 -0.2
v 0.2 0.6 -0.2
v 0.2 0.7 -0.2
v -5.96046e-08 0.6 0.2
v -5.96046e-08 0.7 0.2
v 0.1 0.6 0.2
v 0.2 0.6 0.2
v 0.2 0.7 0.2
v -5.96046e-08 0.3 0.1
v -5.96046e-08 0.5 0.1
v -5.96046e-08 0.6 0.1
v 0.1 0.3 0.1
v 0.1 0.6 0.1
v 0.2 0.7 0.1
v 0.2 0.9 0.1
v 0.3 0.7 0.1
v 0.3 0.9 0.1
v -0.6 0.2 -0.1
v -0.6 0.6 -0.1
v -0.5 0 -0.1
v -0.5 0.2 -0.1
v -0.5 0.5 -0.1
v -0.4 0.1 -0.1
v -0.4 0.2 -0.1
v -0.2 0.1 -0.1
v -0.2 0.2 -0.1
v -0.2 0.5 -0.1
v -0.2 0.6 -0.1
v -0.1 0 -0.1
v -0.1 0.2 -0.1
v -0.1 0.8 -0.1
v -0.1 1 -0.1
v -5.96046e-08 0.8 -0.1
v 0.1 0.8 -0.1
v 0.1 1 -0.1
v 0.2 0 -0.1
v 0.2 0.2 -0.1
v 0.3 0.1 -0.1
v 0.3 0.2 -0.1
v 0.3 0.3 -0.1
v 0.3 0.4 -0.1
v 0.3 0.5 -0.1
v 0.3 0.7 -0.1
v 0.4 0.5 -0.1
v 0.4 0.7 -0.1
v 0.5 0.1 -0.1
v 0.5 0.3 -0.1
v 0.6 0 -0.1
v 0.6 0.4 -0.1
v -0.6 0.6 -0.2
v -0.6 1 -0.2
v -0.5 0.2 -0.2
v -0.5 0.5 -0.2
v -0.2 0.5 -0.2
v -0.2 0.6 -0.2
v -0.2 0.8 -0.2
v -0.2 1 -0.2
v -0.1 0.6 -0.2
v -0.1 0.8 -0.2
v -5.96046e-08 0.3 -0.2
v -5.96046e-08 0.5 -0.2
v 0.1 0.3 -0.2
v 0.1 0.6 -0.2
v 0.2 0.3 -0.2
v 0.2 0.6 -0.2
v 0.2 0.7 -0.2
v 0.2 0.8 -0.2
v 0.3 0.2 -0.2
v 0.3 0.4 -0.2
v 0.3 0.5 -0.2
v 0.3 0.6 -0.2
v 0.3 0.7 -0.2
v 0.3 0.8 -0.2
v 0.6 0.4 -0.2
v 0.6 0.5 -0.2
v -0.1 0.6 -0.3
v -0.1 0.8 -0.3
v -5.96046e-08 0.7 -0.3
v -5.96046e-08 0.8 -0.3
v 0.2 0.6 -0.3
v 0.2 0.7 -0.3
v 0.2 0.8 -0.3
v 0.2 0.9 -0.3
v 0.3 0.6 -0.3
v 0.3 0.7 -0.3
v 0.3 0.8 -0.3
v 0.3 0.9 -0.3
v -0.5 0 0.1
v -0.1 0 0.1
v 0.2 0 0.1
v 0.6 0 0.1
v -0.5 0 -0.1
v -0.1 0 -0.1
v 0.2 0 -0.1
v 0.6 0 -0.1
v -0.5 0.2 0.2
v 0.3 0.2 0.2
v -0.6 0.2 0.1
v -0.5 0.2 0.1
v -0.4 0.2 0.1
v -0.2 0.2 0.1
v -0.1 0.2 0.1
v 0.2 0.2 0.1
v 0.3 0.2 0.1
v -0.6 0.2 -0.1
v -0.5 0.2 -0.1
v -0.4 0.2 -0.1
v -0.2 0.2 -0.1
v -0.1 0.2 -0.1
v 0.2 0.2 -0.1
v 0.3 0.2 -0.1
v -0.5 0.2 -0.2
v 0.3 0.2 -0.2
v 0.3 0.4 0.2
v 0.6 0.4 0.2
v 0.3 0.4 0.1
v 0.6 0.4 0.1
v 0.3 0.4 -0.1
v 0.6 0.4 -0.1
v 0.3 0.4 -0.2
v 0.6 0.4 -0.2
v -0.1 0.6 0.3
v 0.2 0.6 0.3
v 0.3 0.6 0.3
v -0.6 0.6 0.2
v -0.2 0.6 0.2
v -0.1 0.6 0.2
v 0.1 0.6 0.2
v 0.2 0.6 0.2
v 0.3 0.6 0.2
v -0.6 0.6 0.1
v -0.2 0.6 0.1
v -0.6 0.6 -0.1
v -0.2 0.6 -0.1
v -0.6 0.6 -0.2
v -0.2 0.6 -0.2
v -0.1 0.6 -0.2
v 0.1 0.6 -0.2
v 0.2 0.6 -0.2
v 0.3 0.6 -0.2
v -0.1 0.6 -0.3
v 0.2 0.6 -0.3
v 0.3 0.6 -0.3
v 0.2 0.8 0.3
v 0.3 0.8 0.3
v 0.2 0.8 0.2
v 0.3 0.8 0.2
v -5.96046e-08 0.8 0.1
v 0.1 0.8 0.1
v -5.96046e-08 0.8 -0.1
v 0.1 0.8 -0.1
v 0.2 0.8 -0.2
v 0.3 0.8 -0.2
v 0.2 0.8 -0.3
v 0.3 0.8 -0.3
v 0.1 0.3 0.2
v 0.2 0.3 0.2
v -5.96046e-08 0.3 0.1
v 0.1 0.3 0.1
v -5.96046e-08 0.3 -0.1
v 0.1 0.3 -0.1
v 0.1 0.3 -0.2
v 0.2 0.3 -0.2
v -0.5 0.5 0.2
v -0.2 0.5 0.2
v 0.3 0.5 0.2
v 0.6 0.5 0.2
v -0.5 0.5 0.1
v -0.2 0.5 0.1
v 0.3 0.5 0.1
v 0.4 0.5 0.1
v -0.5 0.5 -0.1
v -0.2 0.5 -0.1
v 0.3 0.5 -0.1
v 0.4 0.5 -0.1
v -0.5 0.5 -0.2
v -0.2 0.5 -0.2
v 0.3 0.5 -0.2
v 0.6 0.5 -0.2
v -5.96046e-08 0.6 0.2
v 0.1 0.6 0.2
v -5.96046e-08 0.6 0.1
v 0.1 0.6 0.1
v -5.96046e-08 0.6 -0.1
v 0.1 0.6 -0.1
v -5.96046e-08 0.6 -0.2
v 0.1 0.6 -0.2
v -5.96046e-08 0.7 0.3
v 0.2 0.7 0.3
v 0.3 0.7 0.3
v -5.96046e-08 0.7 0.2
v 0.2 0.7 0.2
v 0.3 0.7 0.2
v 0.2 0.7 0.1
v 0.3 0.7 0.1
v 0.4 0.7 0.1
v 0.2 0.7 -0.1
v 0.3 0.7 -0.1
v 0.4 0.7 -0.1
v -5.96046e-08 0.7 -0.2
v 0.2 0.7 -0.2
v 0.3 0.7 -0.2
v -5.96046e-08 0.7 -0.3
v 0.2 0.7 -0.3
v 0.3 0.7 -0.3
v -0.1 0.8 0.3
v -5.96046e-08 0.8 0.3
v -0.2 0.8 0.2
v -0.1 0.8 0.2
v -0.1 0.8 0.1
v -5.96046e-08 0.8 0.1
v -0.1 0.8 -0.1
v -5.96046e-08 0.8 -0.1
v -0.2 0.8 -0.2
v -0.1 0.8 -0.2
v -0.1 0.8 -0.3
v -5.96046e-08 0.8 -0.3
v 0.2 0.9 0.3
v 0.3 0.9 0.3
v 0.2 0.9 0.2
v 0.3 0.9 0.2
v 0.2 0.9 0.1
v 0.3 0.9 0.1
v 0.2 0.9 -0.1
v 0.3 0.9 -0.1
v 0.2 0.9 -0.2
v 0.3 0.9 -0.2
v 0.2 0.9 -0.3
v 0.3 0.9 -0.3
v -0.6 1 0.2
v -0.2 1 0.2
v -0.1 1 0.1
v 0.1 1 0.1
v -0.1 1 -0.1
v 0.1 1 -0.1
v -0.6 1 -0.2
v -0.2 1 -0.2

# faces
f 4/6/1 2/6/1 1/6/1
f 5/6/1 2/6/1 4/6/1
f 7/2/1 4/2/1 3/2/1
f 7/2/1 6/2/1 5/2/1
f 7/2/1 5/2/1 4/2/1
f 8/2/1 6/2/1 7/2/1
f 12/5/1 10/5/1 9/5/1
f 13/5/1 10/5/1 12/5/1
f 15/6/1 12/6/1 11/6/1
f 16/6/1 12/6/1 15/6/1
f 17/6/1 14/6/1 13/6/1
f 18/6/1 14/6/1 17/6/1
f 23/5/1 20/5/1 19/5/1
f 24/5/1 20/5/1 23/5/1
f 25/5/1 22/5/1 21/5/1
f 26/5/1 22/5/1 25/5/1
f 31/5/1 28/5/1 27/5/1
f 32/5/1 28/5/1 31/5/1
f 35/5/1 30/5/1 29/5/1
f 36/5/1 30/5/1 35/5/1
f 37/5/1 34/5/1 33/5/1
f 38/5/1 34/5/1 37/5/1
f 41/5/1 40/5/1 39/5/1
f 42/5/1 40/5/1 41/5/1
f 45/6/1 44/6/1 43/6/1
f 46/6/1 44/6/1 45/6/1
f 47/6/1 46/6/1 45/6/1
f 48/6/1 46/6/1 47/6/1
f 49/6/1 46/6/1 48/6/1
f 50/6/1 46/6/1 49/6/1
f 52/6/1 48/6/1 47/6/1
f 53/6/1 50/6/1 49/6/1
f 55/1/1 52/1/1 51/1/1
f 56/6/1 48/6/1 52/6/1
f 56/1/1 52/1/1 55/1/1
f 57/6/1 48/6/1 56/6/1
f 58/6/1 53/6/1 49/6/1
f 59/1/1 54/1/1 53/1/1
f 59/6/1 53/6/1 58/6/1
f 60/1/1 54/1/1 59/1/1
f 61/2/2 62/2/2 63/2/2
f 63/2/2 62/2/2 64/2/2
f 65/5/2 66/5/2 67/5/2
f 67/5/2 66/5/2 68/5/2
f 69/6/2 70/6/2 71/6/2
f 71/6/2 70/6/2 72/6/2
f 71/5/2 72/5/2 74/5/2
f 74/5/2 72/5/2 75/5/2
f 74/5/2 75/5/2 78/5/2
f 75/5/2 76/5/2 78/5/2
f 73/5/2 74/5/2 78/5/2
f 78/5/2 76/5/2 79/5/2
f 77/5/2 78/5/2 81/5/2
f 79/5/2 80/5/2 81/5/2
f 78/5/2 79/5/2 81/5/2
f 81/5/2 80/5/2 82/5/2
f 82/5/2 80/5/2 83/5/2
f 83/5/2 80/5/2 84/5/2
f 85/5/2 86/5/2 89/5/2
f 89/5/2 86/5/2 90/5/2
f 87/5/2 88/5/2 91/5/2
f 91/5/2 88/5/2 92/5/2
f 93/5/2 94/5/2 95/5/2
f 95/5/2 94/5/2 96/5/2
f 97/6/2 98/6/2 101/6/2
f 99/6/2 100/6/2 102/6/2
f 97/6/2 101/6/2 103/6/2
f 103/6/2 101/6/2 104/6/2
f 102/6/2 100/6/2 105/6/2
f 105/6/2 100/6/2 106/6/2
f 107/6/2 108/6/2 112/6/2
f 109/6/2 110/6/2 113/6/2
f 111/6/2 112/6/2 115/6/2
f 112/6/2 108/6/2 116/6/2
f 115/6/2 112/6/2 116/6/2
f 116/6/2 108/6/2 117/6/2
f 109/6/2 113/6/2 118/6/2
f 113/6/2 114/6/2 118/6/2
f 118/6/2 114/6/2 119/6/2
f 119/6/2 114/6/2 120/6/2
f 116/6/2 117/6/2 122/6/2
f 118/6/2 119/6/2 123/6/2
f 121/1/2 122/1/2 125/1/2
f 122/6/2 117/6/2 126/6/2
f 125/1/2 122/1/2 126/1/2
f 126/6/2 117/6/2 127/6/2
f 118/6/2 123/6/2 128/6/2
f 123/1/2 124/1/2 129/1/2
f 128/6/2 123/6/2 129/6/2
f 129/1/2 124/1/2 130/1/2
f 131/3/2 132/3/2 133/3/2
f 133/3/2 132/3/2 134/3/2
f 135/5/2 136/5/2 138/5/2
f 138/5/2 136/5/2 139/5/2
f 137/6/2 138/6/2 141/6/2
f 139/6/2 140/6/2 141/6/2
f 138/6/2 139/6/2 141/6/2
f 141/6/2 140/6/2 142/6/2
f 145/5/3 144/5/3 143/5/3
f 146/5/3 144/5/3 145/5/3
f 147/5/3 145/5/3 143/5/3
f 148/5/3 145/5/3 147/5/3
f 151/6/3 148/6/3 147/6/3
f 152/6/3 148/6/3 151/6/3
f 153/1/3 150/1/3 149/1/3
f 154/1/3 150/1/3 153/1/3
f 159/6/3 158/6/3 157/6/3
f 160/2/3 156/2/3 155/2/3
f 161/2/3 156/2/3 160/2/3
f 162/2/3 156/2/3 161/2/3
f 163/5/3 160/5/3 159/5/3
f 163/5/3 161/5/3 160/5/3
f 164/5/3 161/5/3 163/5/3
f 165/6/3 159/6/3 157/6/3
f 166/5/3 163/5/3 159/5/3
f 166/6/3 159/6/3 165/6/3
f 167/6/3 165/6/3 157/6/3
f 167/5/3 166/5/3 165/5/3
f 168/5/3 163/5/3 166/5/3
f 168/5/3 166/5/3 167/5/3
f 169/6/3 167/6/3 157/6/3
f 173/6/3 170/6/3 169/6/3
f 173/6/3 169/6/3 157/6/3
f 174/6/3 170/6/3 173/6/3
f 175/6/3 170/6/3 174/6/3
f 176/6/3 170/6/3 175/6/3
f 177/6/3 172/6/3 171/6/3
f 178/6/3 172/6/3 177/6/3
f 179/6/3 175/6/3 174/6/3
f 180/6/3 175/6/3 179/6/3
f 184/6/3 182/6/3 181/6/3
f 185/6/3 182/6/3 184/6/3
f 186/5/3 184/5/3 183/5/3
f 187/5/3 184/5/3 186/5/3
f 188/5/3 186/5/3 183/5/3
f 188/4/3 187/4/3 186/4/3
f 189/4/3 187/4/3 188/4/3
f 190/6/3 182/6/3 185/6/3
f 191/6/3 182/6/3 190/6/3
f 192/5/3 189/5/3 188/5/3
f 192/5/3 188/5/3 183/5/3
f 193/5/3 189/5/3 192/5/3
f 196/5/3 195/5/3 194/5/3
f 197/5/3 195/5/3 196/5/3
f 198/5/3 195/5/3 197/5/3
f 201/5/3 200/5/3 199/5/3
f 202/5/3 200/5/3 201/5/3
f 207/3/3 206/3/3 205/3/3
f 208/3/3 206/3/3 207/3/3
f 209/5/3 201/5/3 199/5/3
f 209/4/3 202/4/3 201/4/3
f 209/4/3 203/4/3 202/4/3
f 210/5/3 204/5/3 203/5/3
f 210/4/3 203/4/3 209/4/3
f 211/5/3 209/5/3 199/5/3
f 211/5/3 210/5/3 209/5/3
f 212/5/3 204/5/3 210/5/3
f 212/5/3 210/5/3 211/5/3
f 216/5/3 214/5/3 213/5/3
f 216/5/3 215/5/3 214/5/3
f 217/5/3 215/5/3 216/5/3
f 220/6/3 219/6/3 218/6/3
f 221/6/3 219/6/3 220/6/3
f 224/5/3 223/5/3 222/5/3
f 225/5/3 223/5/3 224/5/3
f 226/5/3 223/5/3 225/5/3
f 227/5/4 228/5/4 229/5/4
f 229/5/4 228/5/4 230/5/4
f 230/5/4 228/5/4 231/5/4
f 232/5/4 233/5/4 235/5/4
f 233/5/4 234/5/4 235/5/4
f 235/5/4 234/5/4 236/5/4
f 237/6/4 238/6/4 239/6/4
f 239/6/4 238/6/4 240/6/4
f 241/6/4 242/6/4 244/6/4
f 244/6/4 242/6/4 245/6/4
f 243/5/4 244/5/4 246/5/4
f 246/5/4 244/5/4 247/5/4
f 243/5/4 246/5/4 248/5/4
f 246/4/4 247/4/4 248/4/4
f 248/4/4 247/4/4 249/4/4
f 245/6/4 242/6/4 250/6/4
f 250/6/4 242/6/4 251/6/4
f 248/5/4 249/5/4 252/5/4
f 243/5/4 248/5/4 252/5/4
f 252/5/4 249/5/4 253/5/4
f 254/5/4 255/5/4 256/5/4
f 256/5/4 255/5/4 257/5/4
f 257/5/4 255/5/4 258/5/4
f 259/5/4 260/5/4 261/5/4
f 261/5/4 260/5/4 262/5/4
f 265/3/4 266/3/4 267/3/4
f 267/3/4 266/3/4 268/3/4
f 259/5/4 261/5/4 269/5/4
f 261/4/4 262/4/4 269/4/4
f 262/4/4 263/4/4 269/4/4
f 263/5/4 264/5/4 270/5/4
f 269/4/4 263/4/4 270/4/4
f 259/5/4 269/5/4 271/5/4
f 269/5/4 270/5/4 271/5/4
f 270/5/4 264/5/4 272/5/4
f 271/5/4 270/5/4 272/5/4
f 275/6/4 276/6/4 277/6/4
f 273/2/4 274/2/4 278/2/4
f 278/2/4 274/2/4 279/2/4
f 279/2/4 274/2/4 280/2/4
f 277/5/4 278/5/4 281/5/4
f 278/5/4 279/5/4 281/5/4
f 281/5/4 279/5/4 282/5/4
f 275/6/4 277/6/4 283/6/4
f 277/5/4 281/5/4 284/5/4
f 283/6/4 277/6/4 284/6/4
f 275/6/4 283/6/4 285/6/4
f 283/5/4 284/5/4 285/5/4
f 284/5/4 281/5/4 286/5/4
f 285/5/4 284/5/4 286/5/4
f 275/6/4 285/6/4 287/6/4
f 287/6/4 288/6/4 291/6/4
f 275/6/4 287/6/4 291/6/4
f 291/6/4 288/6/4 292/6/4
f 292/6/4 288/6/4 293/6/4
f 293/6/4 288/6/4 294/6/4
f 289/6/4 290/6/4 295/6/4
f 295/6/4 290/6/4 296/6/4
f 292/6/4 293/6/4 297/6/4
f 297/6/4 293/6/4 298/6/4
f 299/5/4 300/5/4 301/5/4
f 301/5/4 300/5/4 302/5/4
f 299/5/4 301/5/4 303/5/4
f 303/5/4 301/5/4 304/5/4
f 303/6/4 304/6/4 307/6/4
f 307/6/4 304/6/4 308/6/4
f 305/1/4 306/1/4 309/1/4
f 309/1/4 306/1/4 310/1/4
f 315/5/5 312/5/5 311/5/5
f 316/5/5 312/5/5 315/5/5
f 317/5/5 314/5/5 313/5/5
f 318/5/5 314/5/5 317/5/5
f 322/6/5 320/6/5 319/6/5
f 323/6/5 320/6/5 322/6/5
f 324/6/5 320/6/5 323/6/5
f 325/6/5 320/6/5 324/6/5
f 326/6/5 320/6/5 325/6/5
f 327/6/5 320/6/5 326/6/5
f 328/6/5 322/6/5 321/6/5
f 329/6/5 322/6/5 328/6/5
f 332/6/5 326/6/5 325/6/5
f 333/6/5 326/6/5 332/6/5
f 335/6/5 331/6/5 330/6/5
f 335/6/5 334/6/5 333/6/5
f 335/6/5 333/6/5 332/6/5
f 335/6/5 332/6/5 331/6/5
f 335/6/5 330/6/5 329/6/5
f 336/6/5 334/6/5 335/6/5
f 339/6/5 338/6/5 337/6/5
f 340/6/5 338/6/5 339/6/5
f 343/6/5 342/6/5 341/6/5
f 344/6/5 342/6/5 343/6/5
f 350/5/5 346/5/5 345/5/5
f 351/5/5 346/5/5 350/5/5
f 352/6/5 347/6/5 346/6/5
f 352/5/5 346/5/5 351/5/5
f 353/6/5 347/6/5 352/6/5
f 354/2/5 349/2/5 348/2/5
f 355/2/5 349/2/5 354/2/5
f 358/2/5 357/2/5 356/2/5
f 359/2/5 357/2/5 358/2/5
f 364/5/5 361/5/5 360/5/5
f 364/5/5 362/5/5 361/5/5
f 365/6/5 363/6/5 362/6/5
f 365/5/5 362/5/5 364/5/5
f 366/6/5 363/6/5 365/6/5
f 369/1/5 368/1/5 367/1/5
f 370/1/5 368/1/5 369/1/5
f 373/5/5 372/5/5 371/5/5
f 374/5/5 372/5/5 373/5/5
f 377/1/5 376/1/5 375/1/5
f 378/1/5 376/1/5 377/1/5
f 379/6/6 380/6/6 382/6/6
f 381/6/6 382/6/6 383/6/6
f 382/6/6 380/6/6 384/6/6
f 383/6/6 382/6/6 384/6/6
f 384/6/6 380/6/6 385/6/6
f 385/6/6 380/6/6 386/6/6
f 387/6/6 388/6/6 391/6/6
f 391/6/6 388/6/6 392/6/6
f 389/6/6 390/6/6 393/6/6
f 393/6/6 390/6/6 394/6/6
f 394/6/6 390/6/6 398/6/6
f 395/6/6 396/6/6 399/6/6
f 399/6/6 396/6/6 400/6/6
f 397/6/6 398/6/6 401/6/6
f 398/6/6 390/6/6 402/6/6
f 401/6/6 398/6/6 402/6/6
f 403/5/6 404/5/6 405/5/6
f 405/5/6 404/5/6 406/5/6
f 407/5/6 408/5/6 409/5/6
f 409/5/6 408/5/6 410/5/6
f 411/5/6 412/5/6 414/5/6
f 412/6/6 413/6/6 415/6/6
f 414/5/6 412/5/6 415/5/6
f 415/6/6 413/6/6 416/6/6
f 417/6/6 418/6/6 420/6/6
f 418/3/6 419/3/6 421/3/6
f 420/6/6 418/6/6 421/6/6
f 421/3/6 419/3/6 422/3/6
f 423/5/6 424/5/6 426/5/6
f 424/6/6 425/6/6 427/6/6
f 426/5/6 424/5/6 427/5/6
f 427/6/6 425/6/6 428/6/6
f 429/5/6 430/5/6 432/5/6
f 432/5/6 430/5/6 433/5/6
f 431/5/6 432/5/6 433/5/6
f 433/5/6 430/5/6 434/5/6
f 431/5/6 433/5/6 435/5/6
f 431/5/6 435/5/6 437/5/6
f 435/5/6 436/5/6 437/5/6
f 437/5/6 436/5/6 438/5/6
f 438/5/6 436/5/6 439/5/6
f 439/5/6 436/5/6 440/5/6
f 441/1/6 442/1/6 443/1/6
f 443/1/6 442/1/6 444/1/6
f 443/6/6 444/6/6 445/6/6
f 445/6/6 444/6/6 446/6/6
f 447/6/6 448/6/6 449/6/6
f 449/6/6 448/6/6 450/6/6
f 449/1/6 450/1/6 451/1/6
f 451/1/6 450/1/6 452/1/6
f 455/5/6 456/5/6 457/5/6
f 457/5/6 456/5/6 458/5/6
f 453/2/6 454/2/6 459/2/6
f 459/2/6 454/2/6 460/2/6
