# MagicaVoxel @ Ephtracy

# group
o 

# material
mtllib light_pole.mtl
usemtl palette

# normals
vn -1 0 0
vn 1 0 0
vn 0 0 1
vn 0 0 -1
vn 0 -1 0
vn 0 1 0

# texcoords
vt 0.916016 0.5
vt 0.943359 0.5

# verts
v -0.5 2.5 0.1
v -0.5 2.5 -0.2
v -0.5 2.6 0.1
v -0.5 2.6 -0.2
v -0.5 2.7 0.1
v -0.5 2.7 -0.2
v -0.1 0 0.1
v -0.1 0 -0.2
v -0.1 0.1 0.1
v -0.1 0.1 -0.2
v 0 0.1 0
v 0 0.1 -0.1
v 0 2.6 0
v 0 2.6 -0.1
v 0 2.7 0
v 0 2.7 -0.1
v 0 2.8 0
v 0 2.8 -0.1
v 0.2 2.5 0.1
v 0.2 2.5 -0.2
v 0.2 2.6 0.1
v 0.2 2.6 0
v 0.2 2.6 -0.1
v 0.2 2.6 -0.2
v 0.2 2.7 0.1
v 0.2 2.7 0
v 0.2 2.7 -0.1
v 0.2 2.7 -0.2
v -0.1 2.5 0.1
v -0.1 2.5 -0.2
v -0.1 2.6 0.1
v -0.1 2.6 0
v -0.1 2.6 -0.1
v -0.1 2.6 -0.2
v -0.1 2.7 0.1
v -0.1 2.7 0
v -0.1 2.7 -0.1
v -0.1 2.7 -0.2
v 0.1 0.1 0
v 0.1 0.1 -0.1
v 0.1 2.6 0
v 0.1 2.6 -0.1
v 0.1 2.7 0
v 0.1 2.7 -0.1
v 0.1 2.8 0
v 0.1 2.8 -0.1
v 0.2 0 0.1
v 0.2 0 -0.2
v 0.2 0.1 0.1
v 0.2 0.1 -0.2
v 0.6 2.5 0.1
v 0.6 2.5 -0.2
v 0.6 2.6 0.1
v 0.6 2.6 -0.2
v 0.6 2.7 0.1
v 0.6 2.7 -0.2
v -0.5 2.5 0.1
v -0.5 2.6 0.1
v -0.5 2.7 0.1
v -0.1 0 0.1
v -0.1 0.1 0.1
v -0.1 2.5 0.1
v -0.1 2.6 0.1
v -0.1 2.7 0.1
v 0.2 0 0.1
v 0.2 0.1 0.1
v 0.2 2.5 0.1
v 0.2 2.6 0.1
v 0.2 2.7 0.1
v 0.6 2.5 0.1
v 0.6 2.6 0.1
v 0.6 2.7 0.1
v -0.1 2.6 0
v -0.1 2.7 0
v 0 0.1 0
v 0 2.6 0
v 0 2.7 0
v 0 2.8 0
v 0.1 0.1 0
v 0.1 2.6 0
v 0.1 2.7 0
v 0.1 2.8 0
v 0.2 2.6 0
v 0.2 2.7 0
v -0.1 2.6 -0.1
v -0.1 2.7 -0.1
v 0 0.1 -0.1
v 0 2.6 -0.1
v 0 2.7 -0.1
v 0 2.8 -0.1
v 0.1 0.1 -0.1
v 0.1 2.6 -0.1
v 0.1 2.7 -0.1
v 0.1 2.8 -0.1
v 0.2 2.6 -0.1
v 0.2 2.7 -0.1
v -0.5 2.5 -0.2
v -0.5 2.6 -0.2
v -0.5 2.7 -0.2
v -0.1 0 -0.2
v -0.1 0.1 -0.2
v -0.1 2.5 -0.2
v -0.1 2.6 -0.2
v -0.1 2.7 -0.2
v 0.2 0 -0.2
v 0.2 0.1 -0.2
v 0.2 2.5 -0.2
v 0.2 2.6 -0.2
v 0.2 2.7 -0.2
v 0.6 2.5 -0.2
v 0.6 2.6 -0.2
v 0.6 2.7 -0.2
v -0.1 0 0.1
v 0.2 0 0.1
v -0.1 0 -0.2
v 0.2 0 -0.2
v -0.5 2.5 0.1
v -0.1 2.5 0.1
v 0.2 2.5 0.1
v 0.6 2.5 0.1
v -0.5 2.5 -0.2
v -0.1 2.5 -0.2
v 0.2 2.5 -0.2
v 0.6 2.5 -0.2
v -0.1 2.6 0
v 0 2.6 0
v 0.1 2.6 0
v 0.2 2.6 0
v -0.1 2.6 -0.1
v 0 2.6 -0.1
v 0.1 2.6 -0.1
v 0.2 2.6 -0.1
v -0.1 0.1 0.1
v 0.2 0.1 0.1
v 0 0.1 0
v 0.1 0.1 0
v 0 0.1 -0.1
v 0.1 0.1 -0.1
v -0.1 0.1 -0.2
v 0.2 0.1 -0.2
v -0.5 2.7 0.1
v -0.1 2.7 0.1
v 0.2 2.7 0.1
v 0.6 2.7 0.1
v -0.1 2.7 0
v 0 2.7 0
v 0.1 2.7 0
v 0.2 2.7 0
v -0.1 2.7 -0.1
v 0 2.7 -0.1
v 0.1 2.7 -0.1
v 0.2 2.7 -0.1
v -0.5 2.7 -0.2
v -0.1 2.7 -0.2
v 0.2 2.7 -0.2
v 0.6 2.7 -0.2
v 0 2.8 0
v 0.1 2.8 0
v 0 2.8 -0.1
v 0.1 2.8 -0.1

# faces
f 3/1/1 2/1/1 1/1/1
f 4/1/1 2/1/1 3/1/1
f 5/2/1 4/2/1 3/2/1
f 6/2/1 4/2/1 5/2/1
f 9/2/1 8/2/1 7/2/1
f 10/2/1 8/2/1 9/2/1
f 13/2/1 12/2/1 11/2/1
f 14/2/1 12/2/1 13/2/1
f 17/2/1 16/2/1 15/2/1
f 18/2/1 16/2/1 17/2/1
f 21/1/1 20/1/1 19/1/1
f 22/1/1 20/1/1 21/1/1
f 23/1/1 20/1/1 22/1/1
f 24/1/1 20/1/1 23/1/1
f 25/2/1 22/2/1 21/2/1
f 26/2/1 22/2/1 25/2/1
f 27/2/1 24/2/1 23/2/1
f 28/2/1 24/2/1 27/2/1
f 29/1/2 30/1/2 31/1/2
f 31/1/2 30/1/2 32/1/2
f 32/1/2 30/1/2 33/1/2
f 33/1/2 30/1/2 34/1/2
f 31/2/2 32/2/2 35/2/2
f 35/2/2 32/2/2 36/2/2
f 33/2/2 34/2/2 37/2/2
f 37/2/2 34/2/2 38/2/2
f 39/2/2 40/2/2 41/2/2
f 41/2/2 40/2/2 42/2/2
f 43/2/2 44/2/2 45/2/2
f 45/2/2 44/2/2 46/2/2
f 47/2/2 48/2/2 49/2/2
f 49/2/2 48/2/2 50/2/2
f 51/1/2 52/1/2 53/1/2
f 53/1/2 52/1/2 54/1/2
f 53/2/2 54/2/2 55/2/2
f 55/2/2 54/2/2 56/2/2
f 62/1/3 58/1/3 57/1/3
f 63/2/3 59/2/3 58/2/3
f 63/1/3 58/1/3 62/1/3
f 64/2/3 59/2/3 63/2/3
f 65/2/3 61/2/3 60/2/3
f 66/2/3 61/2/3 65/2/3
f 70/1/3 68/1/3 67/1/3
f 71/2/3 69/2/3 68/2/3
f 71/1/3 68/1/3 70/1/3
f 72/2/3 69/2/3 71/2/3
f 76/2/3 74/2/3 73/2/3
f 77/2/3 74/2/3 76/2/3
f 79/2/3 76/2/3 75/2/3
f 79/2/3 78/2/3 77/2/3
f 79/2/3 77/2/3 76/2/3
f 80/2/3 78/2/3 79/2/3
f 81/2/3 78/2/3 80/2/3
f 82/2/3 78/2/3 81/2/3
f 83/2/3 81/2/3 80/2/3
f 84/2/3 81/2/3 83/2/3
f 85/2/4 86/2/4 88/2/4
f 88/2/4 86/2/4 89/2/4
f 87/2/4 88/2/4 91/2/4
f 89/2/4 90/2/4 91/2/4
f 88/2/4 89/2/4 91/2/4
f 91/2/4 90/2/4 92/2/4
f 92/2/4 90/2/4 93/2/4
f 93/2/4 90/2/4 94/2/4
f 92/2/4 93/2/4 95/2/4
f 95/2/4 93/2/4 96/2/4
f 97/1/4 98/1/4 102/1/4
f 98/2/4 99/2/4 103/2/4
f 102/1/4 98/1/4 103/1/4
f 103/2/4 99/2/4 104/2/4
f 100/2/4 101/2/4 105/2/4
f 105/2/4 101/2/4 106/2/4
f 107/1/4 108/1/4 110/1/4
f 108/2/4 109/2/4 111/2/4
f 110/1/4 108/1/4 111/1/4
f 111/2/4 109/2/4 112/2/4
f 115/2/5 114/2/5 113/2/5
f 116/2/5 114/2/5 115/2/5
f 121/1/5 118/1/5 117/1/5
f 122/1/5 118/1/5 121/1/5
f 123/1/5 120/1/5 119/1/5
f 124/1/5 120/1/5 123/1/5
f 129/2/5 126/2/5 125/2/5
f 130/2/5 126/2/5 129/2/5
f 131/2/5 128/2/5 127/2/5
f 132/2/5 128/2/5 131/2/5
f 133/2/6 134/2/6 135/2/6
f 135/2/6 134/2/6 136/2/6
f 133/2/6 135/2/6 137/2/6
f 136/2/6 134/2/6 138/2/6
f 133/2/6 137/2/6 139/2/6
f 137/2/6 138/2/6 139/2/6
f 138/2/6 134/2/6 140/2/6
f 139/2/6 138/2/6 140/2/6
f 141/2/6 142/2/6 145/2/6
f 143/2/6 144/2/6 148/2/6
f 145/2/6 146/2/6 149/2/6
f 141/2/6 145/2/6 149/2/6
f 149/2/6 146/2/6 150/2/6
f 147/2/6 148/2/6 151/2/6
f 148/2/6 144/2/6 152/2/6
f 151/2/6 148/2/6 152/2/6
f 141/2/6 149/2/6 153/2/6
f 153/2/6 149/2/6 154/2/6
f 152/2/6 144/2/6 155/2/6
f 155/2/6 144/2/6 156/2/6
f 157/2/6 158/2/6 159/2/6
f 159/2/6 158/2/6 160/2/6
