# MagicaVoxel @ Ephtracy

# group
o 

# material
mtllib clothes_shop_b.mtl
usemtl palette

# normals
vn -1 0 0
vn 1 0 0
vn 0 0 1
vn 0 0 -1
vn 0 -1 0
vn 0 1 0

# texcoords
vt 0.880859 0.5
vt 0.888672 0.5
vt 0.908203 0.5
vt 0.943359 0.5
vt 0.947266 0.5

# verts
v -2.4 0 1.3
v -2.4 0 -2
v -2.4 0.2 1.3
v -2.4 0.2 -2
v -2.4 2.3 1.3
v -2.4 2.3 -2
v -2.4 2.4 1.3
v -2.4 2.4 -2
v -2.4 2.5 1.3
v -2.4 2.5 -2
v -2.4 2.7 1.3
v -2.4 2.7 -2
v -2.3 0.2 1.2
v -2.3 0.2 -1.9
v -2.3 2.3 1.2
v -2.3 2.3 -1.9
v -2 1.8 1.5
v -2 1.8 1.2
v -2 1.9 1.5
v -2 1.9 1.4
v -2 2 1.4
v -2 2 1.3
v -2 2.1 1.3
v -2 2.1 1.2
v 0.9 0.6 1.2
v 0.9 0.6 1.1
v 0.9 1.8 1.2
v 0.9 1.8 1.1
v 1.1 0 1.5
v 1.1 0 1.3
v 1.1 0.1 1.5
v 1.1 0.1 1.4
v 1.1 0.2 1.4
v 1.1 0.2 1.3
v 1.3 0.7 1.2
v 1.3 0.7 1.1
v 1.3 0.8 1.1
v 1.3 0.9 1.2
v 1.3 0.9 1.1
v 2 0.2 1.2
v 2 0.2 1.1
v 2 0.9 1.1
v 2 1.2 1.1
v 2 1.4 1.1
v 2 1.5 1.1
v 2 1.7 1.2
v 2 1.7 1.1
v 2.2 1.3 2.1
v 2.2 1.3 1.2
v 2.2 1.4 1.3
v 2.2 1.4 1.2
v 2.2 1.5 2
v 2.2 1.5 1.4
v 2.2 1.6 1.9
v 2.2 1.6 1.5
v 2.2 1.7 2
v 2.2 1.7 1.9
v 2.2 1.7 1.5
v 2.2 1.7 1.4
v 2.2 1.8 1.9
v 2.2 1.8 1.8
v 2.2 1.8 1.7
v 2.2 1.8 1.5
v 2.2 1.9 1.7
v 2.2 1.9 1.6
v 2.2 2 1.8
v 2.2 2 1.6
v 2.2 2 1.3
v 2.2 2 1.2
v 2.2 2.1 2.1
v 2.2 2.1 1.2
v 2.4 2.5 1.2
v 2.4 2.5 -1.9
v 2.4 2.7 1.2
v 2.4 2.7 -1.9
v -2.3 2.5 1.2
v -2.3 2.5 -1.9
v -2.3 2.7 1.2
v -2.3 2.7 -1.9
v -1.9 0.6 1.2
v -1.9 0.6 1.1
v -1.9 1.8 1.2
v -1.9 1.8 1.1
v 1 1.8 1.5
v 1 1.8 1.2
v 1 1.9 1.5
v 1 1.9 1.4
v 1 2 1.4
v 1 2 1.3
v 1 2.1 1.3
v 1 2.1 1.2
v 1.2 0.2 1.2
v 1.2 0.2 1.1
v 1.2 0.5 1.1
v 1.2 0.7 1.1
v 1.2 0.8 1.1
v 1.2 1.7 1.2
v 1.2 1.7 1.1
v 1.4 0.7 1.2
v 1.4 0.7 1.1
v 1.4 0.9 1.2
v 1.4 0.9 1.1
v 2.1 0 1.5
v 2.1 0 1.3
v 2.1 0.1 1.5
v 2.1 0.1 1.4
v 2.1 0.2 1.4
v 2.1 0.2 1.3
v 2.3 1.3 2.1
v 2.3 1.3 1.2
v 2.3 1.4 1.3
v 2.3 1.4 1.2
v 2.3 1.5 2
v 2.3 1.5 1.4
v 2.3 1.6 1.9
v 2.3 1.6 1.5
v 2.3 1.7 2
v 2.3 1.7 1.9
v 2.3 1.7 1.5
v 2.3 1.7 1.4
v 2.3 1.8 1.9
v 2.3 1.8 1.8
v 2.3 1.8 1.7
v 2.3 1.8 1.5
v 2.3 1.9 1.7
v 2.3 1.9 1.6
v 2.3 2 1.8
v 2.3 2 1.6
v 2.3 2 1.3
v 2.3 2 1.2
v 2.3 2.1 2.1
v 2.3 2.1 1.2
v 2.4 0.2 1.2
v 2.4 0.2 -1.9
v 2.4 2.3 1.2
v 2.4 2.3 -1.9
v 2.5 0 1.3
v 2.5 0 -2
v 2.5 0.2 1.3
v 2.5 0.2 -2
v 2.5 2.3 1.3
v 2.5 2.3 -2
v 2.5 2.4 1.3
v 2.5 2.4 -2
v 2.5 2.5 1.3
v 2.5 2.5 -2
v 2.5 2.7 1.3
v 2.5 2.7 -2
v 2.2 1.3 2.1
v 2.2 2.1 2.1
v 2.3 1.3 2.1
v 2.3 2.1 2.1
v -2 1.8 1.5
v -2 1.9 1.5
v 1 1.8 1.5
v 1 1.9 1.5
v 1.1 0 1.5
v 1.1 0.1 1.5
v 2.1 0 1.5
v 2.1 0.1 1.5
v -2 1.9 1.4
v -2 2 1.4
v 1 1.9 1.4
v 1 2 1.4
v 1.1 0.1 1.4
v 1.1 0.2 1.4
v 2.1 0.1 1.4
v 2.1 0.2 1.4
v -2.4 0 1.3
v -2.4 0.2 1.3
v -2.4 2.3 1.3
v -2.4 2.4 1.3
v -2.4 2.5 1.3
v -2.4 2.7 1.3
v -2 2 1.3
v -2 2.1 1.3
v 1 2 1.3
v 1 2.1 1.3
v 1.1 0 1.3
v 1.1 0.2 1.3
v 2.1 0 1.3
v 2.1 0.2 1.3
v 2.5 0 1.3
v 2.5 0.2 1.3
v 2.5 2.3 1.3
v 2.5 2.4 1.3
v 2.5 2.5 1.3
v 2.5 2.7 1.3
v -2.3 0.2 1.2
v -2.3 2.3 1.2
v -2 1.8 1.2
v -2 2.1 1.2
v -1.9 0.6 1.2
v -1.9 1.8 1.2
v 0.9 0.6 1.2
v 0.9 1.8 1.2
v 1 1.8 1.2
v 1 2.1 1.2
v 1.2 0.2 1.2
v 1.2 1.7 1.2
v 1.3 0.7 1.2
v 1.3 0.9 1.2
v 1.4 0.7 1.2
v 1.4 0.9 1.2
v 2 0.2 1.2
v 2 1.7 1.2
v 2.2 1.3 1.2
v 2.2 1.4 1.2
v 2.2 2 1.2
v 2.2 2.1 1.2
v 2.3 1.3 1.2
v 2.3 1.4 1.2
v 2.3 2 1.2
v 2.3 2.1 1.2
v 2.4 0.2 1.2
v 2.4 2.3 1.2
v -1.9 0.6 1.1
v -1.9 1.8 1.1
v -1.8 0.7 1.1
v -1.8 1.7 1.1
v -1.3 0.7 1.1
v -1.3 0.8 1.1
v -1.2 0.7 1.1
v -1.2 0.8 1.1
v -1.2 0.9 1.1
v -1.1 0.8 1.1
v -1.1 0.9 1.1
v -1.1 1 1.1
v -1 0.7 1.1
v -1 0.8 1.1
v -1 0.9 1.1
v -1 1 1.1
v -1 1.1 1.1
v -0.9 0.8 1.1
v -0.9 0.9 1.1
v -0.9 1 1.1
v -0.9 1.1 1.1
v -0.9 1.2 1.1
v -0.8 0.9 1.1
v -0.8 1 1.1
v -0.8 1.1 1.1
v -0.8 1.2 1.1
v -0.8 1.3 1.1
v -0.7 0.7 1.1
v -0.7 0.8 1.1
v -0.7 1 1.1
v -0.7 1.1 1.1
v -0.7 1.2 1.1
v -0.7 1.3 1.1
v -0.7 1.4 1.1
v -0.6 0.8 1.1
v -0.6 0.9 1.1
v -0.6 1.1 1.1
v -0.6 1.2 1.1
v -0.6 1.3 1.1
v -0.6 1.4 1.1
v -0.6 1.5 1.1
v -0.5 0.9 1.1
v -0.5 1 1.1
v -0.5 1.2 1.1
v -0.5 1.3 1.1
v -0.5 1.4 1.1
v -0.5 1.5 1.1
v -0.5 1.6 1.1
v -0.4 1 1.1
v -0.4 1.1 1.1
v -0.4 1.3 1.1
v -0.4 1.4 1.1
v -0.4 1.5 1.1
v -0.4 1.6 1.1
v -0.4 1.7 1.1
v -0.3 1.1 1.1
v -0.3 1.2 1.1
v -0.3 1.4 1.1
v -0.3 1.5 1.1
v -0.3 1.6 1.1
v -0.3 1.7 1.1
v -0.2 1.2 1.1
v -0.2 1.3 1.1
v -0.2 1.5 1.1
v -0.2 1.6 1.1
v -0.0999999 1.3 1.1
v -0.0999999 1.4 1.1
v -0.0999999 1.6 1.1
v -0.0999999 1.7 1.1
v 0 1.4 1.1
v 0 1.5 1.1
v 0.1 1.5 1.1
v 0.1 1.6 1.1
v 0.2 1.6 1.1
v 0.2 1.7 1.1
v 0.8 0.7 1.1
v 0.8 1.7 1.1
v 0.9 0.6 1.1
v 0.9 1.8 1.1
v 1.2 0.2 1.1
v 1.2 0.5 1.1
v 1.2 0.7 1.1
v 1.2 0.8 1.1
v 1.2 1.7 1.1
v 1.3 0.2 1.1
v 1.3 0.3 1.1
v 1.3 0.5 1.1
v 1.3 0.6 1.1
v 1.3 0.7 1.1
v 1.3 0.8 1.1
v 1.3 0.9 1.1
v 1.4 0.3 1.1
v 1.4 0.4 1.1
v 1.4 0.6 1.1
v 1.4 0.7 1.1
v 1.4 0.9 1.1
v 1.4 1 1.1
v 1.5 0.4 1.1
v 1.5 0.5 1.1
v 1.5 0.7 1.1
v 1.5 0.8 1.1
v 1.5 0.9 1.1
v 1.5 1 1.1
v 1.5 1.1 1.1
v 1.6 0.5 1.1
v 1.6 0.6 1.1
v 1.6 0.8 1.1
v 1.6 0.9 1.1
v 1.6 1 1.1
v 1.6 1.1 1.1
v 1.6 1.2 1.1
v 1.7 0.6 1.1
v 1.7 0.7 1.1
v 1.7 0.9 1.1
v 1.7 1 1.1
v 1.7 1.1 1.1
v 1.7 1.2 1.1
v 1.7 1.3 1.1
v 1.8 0.7 1.1
v 1.8 0.8 1.1
v 1.8 1 1.1
v 1.8 1.1 1.1
v 1.8 1.2 1.1
v 1.8 1.3 1.1
v 1.8 1.4 1.1
v 1.9 0.8 1.1
v 1.9 0.9 1.1
v 1.9 1.1 1.1
v 1.9 1.2 1.1
v 1.9 1.3 1.1
v 1.9 1.4 1.1
v 1.9 1.5 1.1
v 2 0.2 1.1
v 2 0.9 1.1
v 2 1.2 1.1
v 2 1.4 1.1
v 2 1.5 1.1
v 2 1.7 1.1
v -2.3 2.5 -1.9
v -2.3 2.7 -1.9
v 2.4 2.5 -1.9
v 2.4 2.7 -1.9
v 2.2 1.4 1.3
v 2.2 2 1.3
v 2.3 1.4 1.3
v 2.3 2 1.3
v -2.3 2.5 1.2
v -2.3 2.7 1.2
v 2.4 2.5 1.2
v 2.4 2.7 1.2
v -2.3 0.2 -1.9
v -2.3 2.3 -1.9
v 2.4 0.2 -1.9
v 2.4 2.3 -1.9
v -2.4 0 -2
v -2.4 0.2 -2
v -2.4 2.3 -2
v -2.4 2.4 -2
v -2.4 2.5 -2
v -2.4 2.7 -2
v 2.5 0 -2
v 2.5 0.2 -2
v 2.5 2.3 -2
v 2.5 2.4 -2
v 2.5 2.5 -2
v 2.5 2.7 -2
v 1.1 0 1.5
v 2.1 0 1.5
v -2.4 0 1.3
v 1.1 0 1.3
v 2.1 0 1.3
v 2.5 0 1.3
v -2.4 0 -2
v 2.5 0 -2
v 1.3 0.7 1.2
v 1.4 0.7 1.2
v 1.3 0.7 1.1
v 1.4 0.7 1.1
v 2.2 1.3 2.1
v 2.3 1.3 2.1
v 2.2 1.3 1.2
v 2.3 1.3 1.2
v 1.2 1.7 1.2
v 2 1.7 1.2
v 1.2 1.7 1.1
v 2 1.7 1.1
v -2 1.8 1.5
v 1 1.8 1.5
v -2 1.8 1.2
v -1.9 1.8 1.2
v 0.9 1.8 1.2
v 1 1.8 1.2
v -1.9 1.8 1.1
v 0.9 1.8 1.1
v 2.2 2 1.3
v 2.3 2 1.3
v 2.2 2 1.2
v 2.3 2 1.2
v -2.4 2.3 1.3
v 2.5 2.3 1.3
v -2.3 2.3 1.2
v 2.4 2.3 1.2
v -2.3 2.3 -1.9
v 2.4 2.3 -1.9
v -2.4 2.3 -2
v 2.5 2.3 -2
v 1.1 0.1 1.5
v 2.1 0.1 1.5
v 1.1 0.1 1.4
v 2.1 0.1 1.4
v 1.1 0.2 1.4
v 2.1 0.2 1.4
v -2.4 0.2 1.3
v 1.1 0.2 1.3
v 2.1 0.2 1.3
v 2.5 0.2 1.3
v -2.3 0.2 1.2
v 1.2 0.2 1.2
v 2 0.2 1.2
v 2.4 0.2 1.2
v 1.2 0.2 1.1
v 1.3 0.2 1.1
v 2 0.2 1.1
v -2.3 0.2 -1.9
v 2.4 0.2 -1.9
v -2.4 0.2 -2
v 2.5 0.2 -2
v -1.9 0.6 1.2
v 0.9 0.6 1.2
v -1.9 0.6 1.1
v 0.9 0.6 1.1
v 1.3 0.9 1.2
v 1.4 0.9 1.2
v 1.3 0.9 1.1
v 1.4 0.9 1.1
v 2.2 1.4 1.3
v 2.3 1.4 1.3
v 2.2 1.4 1.2
v 2.3 1.4 1.2
v -2 1.9 1.5
v 1 1.9 1.5
v -2 1.9 1.4
v 1 1.9 1.4
v -2 2 1.4
v 1 2 1.4
v -2 2 1.3
v 1 2 1.3
v 2.2 2.1 2.1
v 2.3 2.1 2.1
v -2 2.1 1.3
v 1 2.1 1.3
v -2 2.1 1.2
v 1 2.1 1.2
v 2.2 2.1 1.2
v 2.3 2.1 1.2
v -2.3 2.5 1.2
v 2.4 2.5 1.2
v -2.3 2.5 -1.9
v 2.4 2.5 -1.9
v -2.4 2.7 1.3
v 2.5 2.7 1.3
v -2.3 2.7 1.2
v 2.4 2.7 1.2
v -2.3 2.7 -1.9
v 2.4 2.7 -1.9
v -2.4 2.7 -2
v 2.5 2.7 -2

# faces
f 3/2/1 2/2/1 1/2/1
f 4/2/1 2/2/1 3/2/1
f 7/2/1 6/2/1 5/2/1
f 8/2/1 6/2/1 7/2/1
f 9/3/1 8/3/1 7/3/1
f 10/3/1 8/3/1 9/3/1
f 11/2/1 10/2/1 9/2/1
f 12/2/1 10/2/1 11/2/1
f 15/2/1 14/2/1 13/2/1
f 16/2/1 14/2/1 15/2/1
f 19/3/1 18/3/1 17/3/1
f 20/3/1 18/3/1 19/3/1
f 21/3/1 18/3/1 20/3/1
f 22/3/1 18/3/1 21/3/1
f 23/3/1 18/3/1 22/3/1
f 24/3/1 18/3/1 23/3/1
f 27/2/1 26/2/1 25/2/1
f 28/2/1 26/2/1 27/2/1
f 31/2/1 30/2/1 29/2/1
f 32/2/1 30/2/1 31/2/1
f 33/2/1 30/2/1 32/2/1
f 34/2/1 30/2/1 33/2/1
f 37/4/1 36/4/1 35/4/1
f 38/4/1 37/4/1 35/4/1
f 39/4/1 37/4/1 38/4/1
f 42/2/1 41/2/1 40/2/1
f 43/2/1 42/2/1 40/2/1
f 44/2/1 43/2/1 40/2/1
f 45/2/1 44/2/1 40/2/1
f 46/2/1 45/2/1 40/2/1
f 47/2/1 45/2/1 46/2/1
f 50/3/1 49/3/1 48/3/1
f 51/3/1 49/3/1 50/3/1
f 52/3/1 50/3/1 48/3/1
f 53/3/1 50/3/1 52/3/1
f 54/5/1 53/5/1 52/5/1
f 55/5/1 53/5/1 54/5/1
f 56/3/1 52/3/1 48/3/1
f 56/5/1 54/5/1 52/5/1
f 57/3/1 55/3/1 54/3/1
f 57/5/1 54/5/1 56/5/1
f 58/5/1 53/5/1 55/5/1
f 58/3/1 55/3/1 57/3/1
f 59/3/1 50/3/1 53/3/1
f 59/5/1 53/5/1 58/5/1
f 60/3/1 57/3/1 56/3/1
f 60/5/1 58/5/1 57/5/1
f 61/5/1 58/5/1 60/5/1
f 62/5/1 58/5/1 61/5/1
f 63/3/1 59/3/1 58/3/1
f 63/5/1 58/5/1 62/5/1
f 64/5/1 62/5/1 61/5/1
f 64/3/1 63/3/1 62/3/1
f 65/3/1 63/3/1 64/3/1
f 66/3/1 61/3/1 60/3/1
f 66/5/1 64/5/1 61/5/1
f 66/5/1 65/5/1 64/5/1
f 67/3/1 63/3/1 65/3/1
f 67/5/1 65/5/1 66/5/1
f 68/3/1 50/3/1 59/3/1
f 68/3/1 63/3/1 67/3/1
f 68/3/1 59/3/1 63/3/1
f 70/3/1 67/3/1 66/3/1
f 70/3/1 69/3/1 68/3/1
f 70/3/1 68/3/1 67/3/1
f 70/3/1 60/3/1 56/3/1
f 70/3/1 56/3/1 48/3/1
f 70/3/1 66/3/1 60/3/1
f 71/3/1 69/3/1 70/3/1
f 74/2/1 73/2/1 72/2/1
f 75/2/1 73/2/1 74/2/1
f 76/2/2 77/2/2 78/2/2
f 78/2/2 77/2/2 79/2/2
f 80/2/2 81/2/2 82/2/2
f 82/2/2 81/2/2 83/2/2
f 84/3/2 85/3/2 86/3/2
f 86/3/2 85/3/2 87/3/2
f 87/3/2 85/3/2 88/3/2
f 88/3/2 85/3/2 89/3/2
f 89/3/2 85/3/2 90/3/2
f 90/3/2 85/3/2 91/3/2
f 92/2/2 93/2/2 94/2/2
f 92/2/2 94/2/2 95/2/2
f 92/2/2 95/2/2 96/2/2
f 92/2/2 96/2/2 97/2/2
f 97/2/2 96/2/2 98/2/2
f 99/4/2 100/4/2 101/4/2
f 101/4/2 100/4/2 102/4/2
f 103/2/2 104/2/2 105/2/2
f 105/2/2 104/2/2 106/2/2
f 106/2/2 104/2/2 107/2/2
f 107/2/2 104/2/2 108/2/2
f 109/3/2 110/3/2 111/3/2
f 111/3/2 110/3/2 112/3/2
f 109/3/2 111/3/2 113/3/2
f 113/3/2 111/3/2 114/3/2
f 113/5/2 114/5/2 115/5/2
f 115/5/2 114/5/2 116/5/2
f 109/3/2 113/3/2 117/3/2
f 113/5/2 115/5/2 117/5/2
f 115/3/2 116/3/2 118/3/2
f 117/5/2 115/5/2 118/5/2
f 116/5/2 114/5/2 119/5/2
f 118/3/2 116/3/2 119/3/2
f 114/3/2 111/3/2 120/3/2
f 119/5/2 114/5/2 120/5/2
f 117/3/2 118/3/2 121/3/2
f 118/5/2 119/5/2 121/5/2
f 121/5/2 119/5/2 122/5/2
f 122/5/2 119/5/2 123/5/2
f 119/3/2 120/3/2 124/3/2
f 123/5/2 119/5/2 124/5/2
f 122/5/2 123/5/2 125/5/2
f 123/3/2 124/3/2 125/3/2
f 125/3/2 124/3/2 126/3/2
f 121/3/2 122/3/2 127/3/2
f 122/5/2 125/5/2 127/5/2
f 125/5/2 126/5/2 127/5/2
f 126/3/2 124/3/2 128/3/2
f 127/5/2 126/5/2 128/5/2
f 120/3/2 111/3/2 129/3/2
f 128/3/2 124/3/2 129/3/2
f 124/3/2 120/3/2 129/3/2
f 127/3/2 128/3/2 131/3/2
f 129/3/2 130/3/2 131/3/2
f 128/3/2 129/3/2 131/3/2
f 117/3/2 121/3/2 131/3/2
f 109/3/2 117/3/2 131/3/2
f 121/3/2 127/3/2 131/3/2
f 131/3/2 130/3/2 132/3/2
f 133/2/2 134/2/2 135/2/2
f 135/2/2 134/2/2 136/2/2
f 137/2/2 138/2/2 139/2/2
f 139/2/2 138/2/2 140/2/2
f 141/2/2 142/2/2 143/2/2
f 143/2/2 142/2/2 144/2/2
f 143/3/2 144/3/2 145/3/2
f 145/3/2 144/3/2 146/3/2
f 145/2/2 146/2/2 147/2/2
f 147/2/2 146/2/2 148/2/2
f 151/3/3 150/3/3 149/3/3
f 152/3/3 150/3/3 151/3/3
f 155/3/3 154/3/3 153/3/3
f 156/3/3 154/3/3 155/3/3
f 159/2/3 158/2/3 157/2/3
f 160/2/3 158/2/3 159/2/3
f 163/3/3 162/3/3 161/3/3
f 164/3/3 162/3/3 163/3/3
f 167/2/3 166/2/3 165/2/3
f 168/2/3 166/2/3 167/2/3
f 177/3/3 176/3/3 175/3/3
f 178/3/3 176/3/3 177/3/3
f 179/2/3 170/2/3 169/2/3
f 180/2/3 170/2/3 179/2/3
f 183/2/3 182/2/3 181/2/3
f 184/2/3 182/2/3 183/2/3
f 185/2/3 172/2/3 171/2/3
f 186/3/3 173/3/3 172/3/3
f 186/2/3 172/2/3 185/2/3
f 187/2/3 174/2/3 173/2/3
f 187/3/3 173/3/3 186/3/3
f 188/2/3 174/2/3 187/2/3
f 191/2/3 190/2/3 189/2/3
f 192/2/3 190/2/3 191/2/3
f 193/2/3 191/2/3 189/2/3
f 194/2/3 191/2/3 193/2/3
f 195/2/3 193/2/3 189/2/3
f 197/2/3 196/2/3 195/2/3
f 198/2/3 190/2/3 192/2/3
f 199/2/3 197/2/3 195/2/3
f 199/2/3 198/2/3 197/2/3
f 199/2/3 195/2/3 189/2/3
f 200/2/3 198/2/3 199/2/3
f 203/4/3 202/4/3 201/4/3
f 204/4/3 202/4/3 203/4/3
f 206/2/3 198/2/3 200/2/3
f 207/2/3 206/2/3 205/2/3
f 208/2/3 206/2/3 207/2/3
f 209/2/3 198/2/3 206/2/3
f 209/2/3 206/2/3 208/2/3
f 210/2/3 190/2/3 198/2/3
f 210/2/3 198/2/3 209/2/3
f 211/2/3 207/2/3 205/2/3
f 212/2/3 209/2/3 208/2/3
f 213/2/3 209/2/3 212/2/3
f 214/2/3 190/2/3 210/2/3
f 215/2/3 211/2/3 205/2/3
f 215/2/3 214/2/3 213/2/3
f 215/2/3 213/2/3 212/2/3
f 215/2/3 212/2/3 211/2/3
f 216/2/3 190/2/3 214/2/3
f 216/2/3 214/2/3 215/2/3
f 219/4/3 218/4/3 217/4/3
f 220/4/3 218/4/3 219/4/3
f 221/4/3 219/4/3 217/4/3
f 221/1/3 220/1/3 219/1/3
f 222/1/3 220/1/3 221/1/3
f 223/4/3 221/4/3 217/4/3
f 223/5/3 222/5/3 221/5/3
f 224/1/3 220/1/3 222/1/3
f 224/5/3 222/5/3 223/5/3
f 225/1/3 220/1/3 224/1/3
f 226/1/3 224/1/3 223/1/3
f 226/5/3 225/5/3 224/5/3
f 227/1/3 220/1/3 225/1/3
f 227/5/3 225/5/3 226/5/3
f 228/1/3 220/1/3 227/1/3
f 229/4/3 223/4/3 217/4/3
f 229/1/3 226/1/3 223/1/3
f 229/1/3 227/1/3 226/1/3
f 230/1/3 227/1/3 229/1/3
f 231/5/3 228/5/3 227/5/3
f 231/1/3 227/1/3 230/1/3
f 232/1/3 220/1/3 228/1/3
f 232/5/3 228/5/3 231/5/3
f 233/1/3 220/1/3 232/1/3
f 234/1/3 231/1/3 230/1/3
f 234/5/3 230/5/3 229/5/3
f 234/1/3 232/1/3 231/1/3
f 235/1/3 232/1/3 234/1/3
f 236/5/3 233/5/3 232/5/3
f 236/1/3 232/1/3 235/1/3
f 237/1/3 220/1/3 233/1/3
f 237/5/3 233/5/3 236/5/3
f 238/1/3 220/1/3 237/1/3
f 239/1/3 236/1/3 235/1/3
f 239/5/3 235/5/3 234/5/3
f 239/1/3 237/1/3 236/1/3
f 240/1/3 237/1/3 239/1/3
f 241/5/3 238/5/3 237/5/3
f 241/1/3 237/1/3 240/1/3
f 242/1/3 220/1/3 238/1/3
f 242/5/3 238/5/3 241/5/3
f 243/1/3 220/1/3 242/1/3
f 244/5/3 240/5/3 239/5/3
f 244/4/3 229/4/3 217/4/3
f 244/5/3 234/5/3 229/5/3
f 244/5/3 239/5/3 234/5/3
f 245/5/3 240/5/3 244/5/3
f 246/1/3 241/1/3 240/1/3
f 246/5/3 240/5/3 245/5/3
f 246/1/3 242/1/3 241/1/3
f 247/1/3 242/1/3 246/1/3
f 248/5/3 243/5/3 242/5/3
f 248/1/3 242/1/3 247/1/3
f 249/1/3 220/1/3 243/1/3
f 249/5/3 243/5/3 248/5/3
f 250/1/3 220/1/3 249/1/3
f 251/1/3 245/1/3 244/1/3
f 251/5/3 247/5/3 246/5/3
f 251/5/3 246/5/3 245/5/3
f 252/5/3 247/5/3 251/5/3
f 253/1/3 248/1/3 247/1/3
f 253/5/3 247/5/3 252/5/3
f 253/1/3 249/1/3 248/1/3
f 254/1/3 249/1/3 253/1/3
f 255/5/3 250/5/3 249/5/3
f 255/1/3 249/1/3 254/1/3
f 256/1/3 220/1/3 250/1/3
f 256/5/3 250/5/3 255/5/3
f 257/1/3 220/1/3 256/1/3
f 258/1/3 252/1/3 251/1/3
f 258/5/3 254/5/3 253/5/3
f 258/5/3 253/5/3 252/5/3
f 259/5/3 254/5/3 258/5/3
f 260/1/3 255/1/3 254/1/3
f 260/5/3 254/5/3 259/5/3
f 260/1/3 256/1/3 255/1/3
f 261/1/3 256/1/3 260/1/3
f 262/5/3 257/5/3 256/5/3
f 262/1/3 256/1/3 261/1/3
f 263/1/3 220/1/3 257/1/3
f 263/5/3 257/5/3 262/5/3
f 264/1/3 220/1/3 263/1/3
f 265/1/3 259/1/3 258/1/3
f 265/5/3 261/5/3 260/5/3
f 265/5/3 260/5/3 259/5/3
f 266/5/3 261/5/3 265/5/3
f 267/1/3 262/1/3 261/1/3
f 267/5/3 261/5/3 266/5/3
f 267/1/3 263/1/3 262/1/3
f 268/1/3 263/1/3 267/1/3
f 269/5/3 264/5/3 263/5/3
f 269/1/3 263/1/3 268/1/3
f 270/1/3 220/1/3 264/1/3
f 270/5/3 264/5/3 269/5/3
f 271/4/3 218/4/3 220/4/3
f 271/1/3 220/1/3 270/1/3
f 272/1/3 266/1/3 265/1/3
f 272/5/3 268/5/3 267/5/3
f 272/5/3 267/5/3 266/5/3
f 273/5/3 268/5/3 272/5/3
f 274/1/3 270/1/3 269/1/3
f 274/5/3 268/5/3 273/5/3
f 274/1/3 269/1/3 268/1/3
f 275/1/3 270/1/3 274/1/3
f 276/5/3 271/5/3 270/5/3
f 276/1/3 270/1/3 275/1/3
f 277/4/3 218/4/3 271/4/3
f 277/5/3 271/5/3 276/5/3
f 278/1/3 273/1/3 272/1/3
f 278/5/3 275/5/3 274/5/3
f 278/5/3 274/5/3 273/5/3
f 279/5/3 275/5/3 278/5/3
f 280/1/3 276/1/3 275/1/3
f 280/5/3 275/5/3 279/5/3
f 280/1/3 277/1/3 276/1/3
f 281/1/3 277/1/3 280/1/3
f 282/1/3 279/1/3 278/1/3
f 282/5/3 280/5/3 279/5/3
f 282/5/3 281/5/3 280/5/3
f 283/5/3 281/5/3 282/5/3
f 284/1/3 277/1/3 281/1/3
f 284/5/3 281/5/3 283/5/3
f 285/4/3 218/4/3 277/4/3
f 285/1/3 277/1/3 284/1/3
f 286/5/3 284/5/3 283/5/3
f 286/1/3 283/1/3 282/1/3
f 286/5/3 285/5/3 284/5/3
f 287/5/3 285/5/3 286/5/3
f 288/1/3 287/1/3 286/1/3
f 288/5/3 285/5/3 287/5/3
f 289/5/3 285/5/3 288/5/3
f 290/1/3 289/1/3 288/1/3
f 290/5/3 285/5/3 289/5/3
f 291/4/3 218/4/3 285/4/3
f 291/5/3 285/5/3 290/5/3
f 292/1/3 290/1/3 288/1/3
f 292/1/3 272/1/3 265/1/3
f 292/1/3 291/1/3 290/1/3
f 292/1/3 288/1/3 286/1/3
f 292/1/3 286/1/3 282/1/3
f 292/1/3 265/1/3 258/1/3
f 292/1/3 258/1/3 251/1/3
f 292/1/3 251/1/3 244/1/3
f 292/4/3 244/4/3 217/4/3
f 292/1/3 278/1/3 272/1/3
f 292/1/3 282/1/3 278/1/3
f 293/4/3 218/4/3 291/4/3
f 293/1/3 291/1/3 292/1/3
f 294/4/3 292/4/3 217/4/3
f 294/4/3 293/4/3 292/4/3
f 295/4/3 218/4/3 293/4/3
f 295/4/3 293/4/3 294/4/3
f 301/5/3 297/5/3 296/5/3
f 302/5/3 297/5/3 301/5/3
f 303/1/3 298/1/3 297/1/3
f 303/5/3 297/5/3 302/5/3
f 304/1/3 298/1/3 303/1/3
f 305/5/3 299/5/3 298/5/3
f 305/1/3 298/1/3 304/1/3
f 306/1/3 300/1/3 299/1/3
f 306/5/3 299/5/3 305/5/3
f 307/1/3 300/1/3 306/1/3
f 308/1/3 302/1/3 301/1/3
f 308/5/3 304/5/3 303/5/3
f 308/5/3 303/5/3 302/5/3
f 309/5/3 304/5/3 308/5/3
f 310/1/3 305/1/3 304/1/3
f 310/5/3 304/5/3 309/5/3
f 311/1/3 305/1/3 310/1/3
f 312/1/3 300/1/3 307/1/3
f 313/1/3 300/1/3 312/1/3
f 314/1/3 309/1/3 308/1/3
f 314/5/3 311/5/3 310/5/3
f 314/5/3 310/5/3 309/5/3
f 315/5/3 311/5/3 314/5/3
f 316/1/3 312/1/3 311/1/3
f 316/5/3 311/5/3 315/5/3
f 317/1/3 312/1/3 316/1/3
f 318/5/3 313/5/3 312/5/3
f 318/1/3 312/1/3 317/1/3
f 319/1/3 300/1/3 313/1/3
f 319/5/3 313/5/3 318/5/3
f 320/1/3 300/1/3 319/1/3
f 321/5/3 317/5/3 316/5/3
f 321/1/3 315/1/3 314/1/3
f 321/5/3 316/5/3 315/5/3
f 322/5/3 317/5/3 321/5/3
f 323/1/3 318/1/3 317/1/3
f 323/5/3 317/5/3 322/5/3
f 323/1/3 319/1/3 318/1/3
f 324/1/3 319/1/3 323/1/3
f 325/5/3 320/5/3 319/5/3
f 325/1/3 319/1/3 324/1/3
f 326/1/3 300/1/3 320/1/3
f 326/5/3 320/5/3 325/5/3
f 327/1/3 300/1/3 326/1/3
f 328/1/3 322/1/3 321/1/3
f 328/5/3 324/5/3 323/5/3
f 328/5/3 323/5/3 322/5/3
f 329/5/3 324/5/3 328/5/3
f 330/1/3 325/1/3 324/1/3
f 330/5/3 324/5/3 329/5/3
f 330/1/3 326/1/3 325/1/3
f 331/1/3 326/1/3 330/1/3
f 332/5/3 327/5/3 326/5/3
f 332/1/3 326/1/3 331/1/3
f 333/1/3 300/1/3 327/1/3
f 333/5/3 327/5/3 332/5/3
f 334/1/3 300/1/3 333/1/3
f 335/1/3 329/1/3 328/1/3
f 335/5/3 331/5/3 330/5/3
f 335/5/3 330/5/3 329/5/3
f 336/5/3 331/5/3 335/5/3
f 337/1/3 332/1/3 331/1/3
f 337/5/3 331/5/3 336/5/3
f 337/1/3 333/1/3 332/1/3
f 338/1/3 333/1/3 337/1/3
f 339/5/3 334/5/3 333/5/3
f 339/1/3 333/1/3 338/1/3
f 340/1/3 300/1/3 334/1/3
f 340/5/3 334/5/3 339/5/3
f 341/1/3 300/1/3 340/1/3
f 342/1/3 336/1/3 335/1/3
f 342/5/3 338/5/3 337/5/3
f 342/5/3 337/5/3 336/5/3
f 343/5/3 338/5/3 342/5/3
f 344/1/3 339/1/3 338/1/3
f 344/5/3 338/5/3 343/5/3
f 344/1/3 340/1/3 339/1/3
f 345/1/3 340/1/3 344/1/3
f 346/5/3 341/5/3 340/5/3
f 346/1/3 340/1/3 345/1/3
f 347/1/3 300/1/3 341/1/3
f 347/5/3 341/5/3 346/5/3
f 348/1/3 300/1/3 347/1/3
f 349/1/3 343/1/3 342/1/3
f 349/1/3 308/1/3 301/1/3
f 349/1/3 314/1/3 308/1/3
f 349/1/3 321/1/3 314/1/3
f 349/1/3 328/1/3 321/1/3
f 349/1/3 342/1/3 335/1/3
f 349/1/3 335/1/3 328/1/3
f 350/5/3 345/5/3 344/5/3
f 350/1/3 343/1/3 349/1/3
f 350/5/3 344/5/3 343/5/3
f 351/1/3 346/1/3 345/1/3
f 351/5/3 345/5/3 350/5/3
f 351/1/3 347/1/3 346/1/3
f 352/5/3 348/5/3 347/5/3
f 352/1/3 347/1/3 351/1/3
f 353/1/3 300/1/3 348/1/3
f 353/5/3 348/5/3 352/5/3
f 354/1/3 300/1/3 353/1/3
f 357/2/3 356/2/3 355/2/3
f 358/2/3 356/2/3 357/2/3
f 359/3/4 360/3/4 361/3/4
f 361/3/4 360/3/4 362/3/4
f 363/2/4 364/2/4 365/2/4
f 365/2/4 364/2/4 366/2/4
f 367/2/4 368/2/4 369/2/4
f 369/2/4 368/2/4 370/2/4
f 371/2/4 372/2/4 377/2/4
f 377/2/4 372/2/4 378/2/4
f 373/2/4 374/2/4 379/2/4
f 374/3/4 375/3/4 380/3/4
f 379/2/4 374/2/4 380/2/4
f 375/2/4 376/2/4 381/2/4
f 380/3/4 375/3/4 381/3/4
f 381/2/4 376/2/4 382/2/4
f 386/2/5 384/2/5 383/2/5
f 387/2/5 384/2/5 386/2/5
f 389/2/5 386/2/5 385/2/5
f 389/2/5 388/2/5 387/2/5
f 389/2/5 387/2/5 386/2/5
f 390/2/5 388/2/5 389/2/5
f 393/4/5 392/4/5 391/4/5
f 394/4/5 392/4/5 393/4/5
f 397/3/5 396/3/5 395/3/5
f 398/3/5 396/3/5 397/3/5
f 401/2/5 400/2/5 399/2/5
f 402/2/5 400/2/5 401/2/5
f 405/3/5 404/3/5 403/3/5
f 406/3/5 404/3/5 405/3/5
f 407/3/5 404/3/5 406/3/5
f 408/3/5 404/3/5 407/3/5
f 409/2/5 407/2/5 406/2/5
f 410/2/5 407/2/5 409/2/5
f 413/3/5 412/3/5 411/3/5
f 414/3/5 412/3/5 413/3/5
f 417/2/5 416/2/5 415/2/5
f 418/2/5 416/2/5 417/2/5
f 419/2/5 417/2/5 415/2/5
f 420/2/5 416/2/5 418/2/5
f 421/2/5 419/2/5 415/2/5
f 421/2/5 420/2/5 419/2/5
f 422/2/5 416/2/5 420/2/5
f 422/2/5 420/2/5 421/2/5
f 423/2/6 424/2/6 425/2/6
f 425/2/6 424/2/6 426/2/6
f 427/2/6 428/2/6 430/2/6
f 430/2/6 428/2/6 431/2/6
f 429/2/6 430/2/6 433/2/6
f 431/2/6 432/2/6 433/2/6
f 430/2/6 431/2/6 433/2/6
f 433/2/6 432/2/6 434/2/6
f 434/2/6 432/2/6 435/2/6
f 435/2/6 432/2/6 436/2/6
f 434/2/6 435/2/6 437/2/6
f 437/2/6 435/2/6 438/2/6
f 438/2/6 435/2/6 439/2/6
f 429/2/6 433/2/6 440/2/6
f 436/2/6 432/2/6 441/2/6
f 429/2/6 440/2/6 442/2/6
f 440/2/6 441/2/6 442/2/6
f 441/2/6 432/2/6 443/2/6
f 442/2/6 441/2/6 443/2/6
f 444/2/6 445/2/6 446/2/6
f 446/2/6 445/2/6 447/2/6
f 448/4/6 449/4/6 450/4/6
f 450/4/6 449/4/6 451/4/6
f 452/3/6 453/3/6 454/3/6
f 454/3/6 453/3/6 455/3/6
f 456/3/6 457/3/6 458/3/6
f 458/3/6 457/3/6 459/3/6
f 460/3/6 461/3/6 462/3/6
f 462/3/6 461/3/6 463/3/6
f 466/3/6 467/3/6 468/3/6
f 468/3/6 467/3/6 469/3/6
f 464/3/6 465/3/6 470/3/6
f 470/3/6 465/3/6 471/3/6
f 472/2/6 473/2/6 474/2/6
f 474/2/6 473/2/6 475/2/6
f 476/2/6 477/2/6 478/2/6
f 478/2/6 477/2/6 479/2/6
f 476/2/6 478/2/6 480/2/6
f 479/2/6 477/2/6 481/2/6
f 476/2/6 480/2/6 482/2/6
f 480/2/6 481/2/6 482/2/6
f 481/2/6 477/2/6 483/2/6
f 482/2/6 481/2/6 483/2/6
