# MagicaVoxel @ Ephtracy

# group
o 

# material
mtllib clothes_shop_a.mtl
usemtl palette

# normals
vn -1 0 0
vn 1 0 0
vn 0 0 1
vn 0 0 -1
vn 0 -1 0
vn 0 1 0

# texcoords
vt 0.880859 0.5
vt 0.912109 0.5
vt 0.939453 0.5
vt 0.943359 0.5
vt 0.947266 0.5

# verts
v -2.5 0 1.3
v -2.5 0 -2
v -2.5 0.2 1.3
v -2.5 0.2 -2
v -2.5 2.3 1.3
v -2.5 2.3 -2
v -2.5 2.4 1.3
v -2.5 2.4 -2
v -2.5 2.5 1.3
v -2.5 2.5 -2
v -2.5 2.7 1.3
v -2.5 2.7 -2
v -2.4 0.2 1.2
v -2.4 0.2 -1.9
v -2.4 2.3 1.2
v -2.4 2.3 -1.9
v -2.1 1.8 1.5
v -2.1 1.8 1.2
v -2.1 1.9 1.5
v -2.1 1.9 1.4
v -2.1 2 1.4
v -2.1 2 1.3
v -2.1 2.1 1.3
v -2.1 2.1 1.2
v 0.8 0.6 1.2
v 0.8 0.6 1.1
v 0.8 1.8 1.2
v 0.8 1.8 1.1
v 1 0 1.5
v 1 0 1.3
v 1 0.1 1.5
v 1 0.1 1.4
v 1 0.2 1.4
v 1 0.2 1.3
v 1.2 0.7 1.2
v 1.2 0.7 1.1
v 1.2 0.8 1.2
v 1.2 0.8 1.1
v 1.9 0.2 1.2
v 1.9 0.2 1.1
v 1.9 1.7 1.2
v 1.9 1.7 1.1
v 2.1 1.3 2.1
v 2.1 1.3 1.2
v 2.1 1.4 1.3
v 2.1 1.4 1.2
v 2.1 1.5 2
v 2.1 1.5 1.4
v 2.1 1.6 1.9
v 2.1 1.6 1.5
v 2.1 1.7 2
v 2.1 1.7 1.9
v 2.1 1.7 1.5
v 2.1 1.7 1.4
v 2.1 1.8 1.9
v 2.1 1.8 1.8
v 2.1 1.8 1.7
v 2.1 1.8 1.5
v 2.1 1.9 1.7
v 2.1 1.9 1.6
v 2.1 2 1.8
v 2.1 2 1.6
v 2.1 2 1.3
v 2.1 2 1.2
v 2.1 2.1 2.1
v 2.1 2.1 1.2
v 2.3 2.5 1.2
v 2.3 2.5 -1.9
v 2.3 2.7 1.2
v 2.3 2.7 -1.9
v -2.4 2.5 1.2
v -2.4 2.5 -1.9
v -2.4 2.7 1.2
v -2.4 2.7 -1.9
v -2 0.6 1.2
v -2 0.6 1.1
v -2 1.8 1.2
v -2 1.8 1.1
v 0.9 1.8 1.5
v 0.9 1.8 1.2
v 0.9 1.9 1.5
v 0.9 1.9 1.4
v 0.9 2 1.4
v 0.9 2 1.3
v 0.9 2.1 1.3
v 0.9 2.1 1.2
v 1.1 0.2 1.2
v 1.1 0.2 1.1
v 1.1 1.7 1.2
v 1.1 1.7 1.1
v 1.4 0.7 1.2
v 1.4 0.7 1.1
v 1.4 0.8 1.2
v 1.4 0.8 1.1
v 2 0 1.5
v 2 0 1.3
v 2 0.1 1.5
v 2 0.1 1.4
v 2 0.2 1.4
v 2 0.2 1.3
v 2.2 1.3 2.1
v 2.2 1.3 1.2
v 2.2 1.4 1.3
v 2.2 1.4 1.2
v 2.2 1.5 2
v 2.2 1.5 1.4
v 2.2 1.6 1.9
v 2.2 1.6 1.5
v 2.2 1.7 2
v 2.2 1.7 1.9
v 2.2 1.7 1.5
v 2.2 1.7 1.4
v 2.2 1.8 1.9
v 2.2 1.8 1.8
v 2.2 1.8 1.7
v 2.2 1.8 1.5
v 2.2 1.9 1.7
v 2.2 1.9 1.6
v 2.2 2 1.8
v 2.2 2 1.6
v 2.2 2 1.3
v 2.2 2 1.2
v 2.2 2.1 2.1
v 2.2 2.1 1.2
v 2.3 0.2 1.2
v 2.3 0.2 -1.9
v 2.3 2.3 1.2
v 2.3 2.3 -1.9
v 2.4 0 1.3
v 2.4 0 -2
v 2.4 0.2 1.3
v 2.4 0.2 -2
v 2.4 2.3 1.3
v 2.4 2.3 -2
v 2.4 2.4 1.3
v 2.4 2.4 -2
v 2.4 2.5 1.3
v 2.4 2.5 -2
v 2.4 2.7 1.3
v 2.4 2.7 -2
v 2.1 1.3 2.1
v 2.1 2.1 2.1
v 2.2 1.3 2.1
v 2.2 2.1 2.1
v -2.1 1.8 1.5
v -2.1 1.9 1.5
v -1.5 1.8 1.5
v -1.5 1.9 1.5
v -0.9 1.8 1.5
v -0.9 1.9 1.5
v -0.3 1.8 1.5
v -0.3 1.9 1.5
v 0.3 1.8 1.5
v 0.3 1.9 1.5
v 0.9 1.8 1.5
v 0.9 1.9 1.5
v 1 0 1.5
v 1 0.1 1.5
v 2 0 1.5
v 2 0.1 1.5
v -2.1 1.9 1.4
v -2.1 2 1.4
v -1.5 1.9 1.4
v -1.5 2 1.4
v -0.9 1.9 1.4
v -0.9 2 1.4
v -0.3 1.9 1.4
v -0.3 2 1.4
v 0.3 1.9 1.4
v 0.3 2 1.4
v 0.9 1.9 1.4
v 0.9 2 1.4
v 1 0.1 1.4
v 1 0.2 1.4
v 2 0.1 1.4
v 2 0.2 1.4
v -2.5 0 1.3
v -2.5 0.2 1.3
v -2.5 2.3 1.3
v -2.5 2.4 1.3
v -2.5 2.5 1.3
v -2.5 2.7 1.3
v -2.1 2 1.3
v -2.1 2.1 1.3
v -1.5 2 1.3
v -1.5 2.1 1.3
v -0.9 2 1.3
v -0.9 2.1 1.3
v -0.3 2 1.3
v -0.3 2.1 1.3
v 0.3 2 1.3
v 0.3 2.1 1.3
v 0.9 2 1.3
v 0.9 2.1 1.3
v 1 0 1.3
v 1 0.2 1.3
v 2 0 1.3
v 2 0.2 1.3
v 2.4 0 1.3
v 2.4 0.2 1.3
v 2.4 2.3 1.3
v 2.4 2.4 1.3
v 2.4 2.5 1.3
v 2.4 2.7 1.3
v -2.4 0.2 1.2
v -2.4 2.3 1.2
v -2.1 1.8 1.2
v -2.1 2.1 1.2
v -2 0.6 1.2
v -2 1.8 1.2
v -1.5 2.1 1.2
v -0.9 2.1 1.2
v -0.3 2.1 1.2
v 0.3 2.1 1.2
v 0.8 0.6 1.2
v 0.8 1.8 1.2
v 0.9 1.8 1.2
v 0.9 2.1 1.2
v 1.1 0.2 1.2
v 1.1 1.7 1.2
v 1.2 0.7 1.2
v 1.2 0.8 1.2
v 1.4 0.7 1.2
v 1.4 0.8 1.2
v 1.9 0.2 1.2
v 1.9 1.7 1.2
v 2.1 1.3 1.2
v 2.1 1.4 1.2
v 2.1 2 1.2
v 2.1 2.1 1.2
v 2.2 1.3 1.2
v 2.2 1.4 1.2
v 2.2 2 1.2
v 2.2 2.1 1.2
v 2.3 0.2 1.2
v 2.3 2.3 1.2
v -2 0.6 1.1
v -2 1.8 1.1
v -1.9 0.7 1.1
v -1.9 1.7 1.1
v -1.3 0.7 1.1
v -1.3 0.8 1.1
v -1.2 0.7 1.1
v -1.2 0.8 1.1
v -1.2 0.9 1.1
v -1.1 0.8 1.1
v -1.1 0.9 1.1
v -1.1 1 1.1
v -1 0.7 1.1
v -1 0.8 1.1
v -1 0.9 1.1
v -1 1 1.1
v -1 1.1 1.1
v -0.9 0.8 1.1
v -0.9 0.9 1.1
v -0.9 1 1.1
v -0.9 1.1 1.1
v -0.9 1.2 1.1
v -0.8 0.9 1.1
v -0.8 1 1.1
v -0.8 1.1 1.1
v -0.8 1.2 1.1
v -0.8 1.3 1.1
v -0.7 0.7 1.1
v -0.7 0.8 1.1
v -0.7 1 1.1
v -0.7 1.1 1.1
v -0.7 1.2 1.1
v -0.7 1.3 1.1
v -0.7 1.4 1.1
v -0.6 0.8 1.1
v -0.6 0.9 1.1
v -0.6 1.1 1.1
v -0.6 1.2 1.1
v -0.6 1.3 1.1
v -0.6 1.4 1.1
v -0.6 1.5 1.1
v -0.5 0.9 1.1
v -0.5 1 1.1
v -0.5 1.2 1.1
v -0.5 1.3 1.1
v -0.5 1.4 1.1
v -0.5 1.5 1.1
v -0.5 1.6 1.1
v -0.4 1 1.1
v -0.4 1.1 1.1
v -0.4 1.3 1.1
v -0.4 1.4 1.1
v -0.4 1.5 1.1
v -0.4 1.6 1.1
v -0.4 1.7 1.1
v -0.3 1.1 1.1
v -0.3 1.2 1.1
v -0.3 1.4 1.1
v -0.3 1.5 1.1
v -0.3 1.6 1.1
v -0.3 1.7 1.1
v -0.2 1.2 1.1
v -0.2 1.3 1.1
v -0.2 1.5 1.1
v -0.2 1.6 1.1
v -0.0999999 1.3 1.1
v -0.0999999 1.4 1.1
v -0.0999999 1.6 1.1
v -0.0999999 1.7 1.1
v 2.38419e-07 1.4 1.1
v 2.38419e-07 1.5 1.1
v 0.1 1.5 1.1
v 0.1 1.6 1.1
v 0.2 1.6 1.1
v 0.2 1.7 1.1
v 0.7 0.7 1.1
v 0.7 1.7 1.1
v 0.8 0.6 1.1
v 0.8 1.8 1.1
v 1.1 0.2 1.1
v 1.1 1.7 1.1
v 1.2 0.7 1.1
v 1.2 0.8 1.1
v 1.3 0.4 1.1
v 1.3 0.7 1.1
v 1.3 0.8 1.1
v 1.3 0.9 1.1
v 1.3 1 1.1
v 1.3 1.5 1.1
v 1.4 0.4 1.1
v 1.4 0.5 1.1
v 1.4 0.7 1.1
v 1.4 0.8 1.1
v 1.4 0.9 1.1
v 1.4 1 1.1
v 1.4 1.1 1.1
v 1.5 0.5 1.1
v 1.5 0.6 1.1
v 1.5 0.8 1.1
v 1.5 0.9 1.1
v 1.5 1 1.1
v 1.5 1.1 1.1
v 1.5 1.2 1.1
v 1.6 0.6 1.1
v 1.6 0.7 1.1
v 1.6 0.9 1.1
v 1.6 1 1.1
v 1.6 1.1 1.1
v 1.6 1.2 1.1
v 1.6 1.3 1.1
v 1.7 0.4 1.1
v 1.7 0.7 1.1
v 1.7 1 1.1
v 1.7 1.2 1.1
v 1.7 1.3 1.1
v 1.7 1.5 1.1
v 1.9 0.2 1.1
v 1.9 1.7 1.1
v -2.4 2.5 -1.9
v -2.4 2.7 -1.9
v 2.3 2.5 -1.9
v 2.3 2.7 -1.9
v 2.1 1.4 1.3
v 2.1 2 1.3
v 2.2 1.4 1.3
v 2.2 2 1.3
v -2.4 2.5 1.2
v -2.4 2.7 1.2
v 2.3 2.5 1.2
v 2.3 2.7 1.2
v -2.4 0.2 -1.9
v -2.4 2.3 -1.9
v 2.3 0.2 -1.9
v 2.3 2.3 -1.9
v -2.5 0 -2
v -2.5 0.2 -2
v -2.5 2.3 -2
v -2.5 2.4 -2
v -2.5 2.5 -2
v -2.5 2.7 -2
v 2.4 0 -2
v 2.4 0.2 -2
v 2.4 2.3 -2
v 2.4 2.4 -2
v 2.4 2.5 -2
v 2.4 2.7 -2
v 1 0 1.5
v 2 0 1.5
v -2.5 0 1.3
v 1 0 1.3
v 2 0 1.3
v 2.4 0 1.3
v -2.5 0 -2
v 2.4 0 -2
v 1.2 0.7 1.2
v 1.4 0.7 1.2
v 1.2 0.7 1.1
v 1.3 0.7 1.1
v 1.4 0.7 1.1
v 2.1 1.3 2.1
v 2.2 1.3 2.1
v 2.1 1.3 1.2
v 2.2 1.3 1.2
v 1.1 1.7 1.2
v 1.9 1.7 1.2
v 1.1 1.7 1.1
v 1.9 1.7 1.1
v -2.1 1.8 1.5
v -1.5 1.8 1.5
v -0.9 1.8 1.5
v -0.3 1.8 1.5
v 0.3 1.8 1.5
v 0.9 1.8 1.5
v -2.1 1.8 1.2
v -2 1.8 1.2
v -1.5 1.8 1.2
v -0.9 1.8 1.2
v -0.3 1.8 1.2
v 0.3 1.8 1.2
v 0.8 1.8 1.2
v 0.9 1.8 1.2
v -2 1.8 1.1
v 0.8 1.8 1.1
v 2.1 2 1.3
v 2.2 2 1.3
v 2.1 2 1.2
v 2.2 2 1.2
v -2.5 2.3 1.3
v 2.4 2.3 1.3
v -2.4 2.3 1.2
v 2.3 2.3 1.2
v -2.4 2.3 -1.9
v 2.3 2.3 -1.9
v -2.5 2.3 -2
v 2.4 2.3 -2
v 1 0.1 1.5
v 2 0.1 1.5
v 1 0.1 1.4
v 2 0.1 1.4
v 1 0.2 1.4
v 2 0.2 1.4
v -2.5 0.2 1.3
v 1 0.2 1.3
v 2 0.2 1.3
v 2.4 0.2 1.3
v -2.4 0.2 1.2
v 1.1 0.2 1.2
v 1.9 0.2 1.2
v 2.3 0.2 1.2
v 1.1 0.2 1.1
v 1.9 0.2 1.1
v -2.4 0.2 -1.9
v 2.3 0.2 -1.9
v -2.5 0.2 -2
v 2.4 0.2 -2
v -2 0.6 1.2
v 0.8 0.6 1.2
v -2 0.6 1.1
v 0.8 0.6 1.1
v 1.2 0.8 1.2
v 1.4 0.8 1.2
v 1.2 0.8 1.1
v 1.3 0.8 1.1
v 1.4 0.8 1.1
v 2.1 1.4 1.3
v 2.2 1.4 1.3
v 2.1 1.4 1.2
v 2.2 1.4 1.2
v -2.1 1.9 1.5
v -1.5 1.9 1.5
v -0.9 1.9 1.5
v -0.3 1.9 1.5
v 0.3 1.9 1.5
v 0.9 1.9 1.5
v -2.1 1.9 1.4
v -1.5 1.9 1.4
v -0.9 1.9 1.4
v -0.3 1.9 1.4
v 0.3 1.9 1.4
v 0.9 1.9 1.4
v -2.1 2 1.4
v -1.5 2 1.4
v -0.9 2 1.4
v -0.3 2 1.4
v 0.3 2 1.4
v 0.9 2 1.4
v -2.1 2 1.3
v -1.5 2 1.3
v -0.9 2 1.3
v -0.3 2 1.3
v 0.3 2 1.3
v 0.9 2 1.3
v 2.1 2.1 2.1
v 2.2 2.1 2.1
v -2.1 2.1 1.3
v -1.5 2.1 1.3
v -0.9 2.1 1.3
v -0.3 2.1 1.3
v 0.3 2.1 1.3
v 0.9 2.1 1.3
v -2.1 2.1 1.2
v -1.5 2.1 1.2
v -0.9 2.1 1.2
v -0.3 2.1 1.2
v 0.3 2.1 1.2
v 0.9 2.1 1.2
v 2.1 2.1 1.2
v 2.2 2.1 1.2
v -2.4 2.5 1.2
v 2.3 2.5 1.2
v -2.4 2.5 -1.9
v 2.3 2.5 -1.9
v -2.5 2.7 1.3
v 2.4 2.7 1.3
v -2.4 2.7 1.2
v 2.3 2.7 1.2
v -2.4 2.7 -1.9
v 2.3 2.7 -1.9
v -2.5 2.7 -2
v 2.4 2.7 -2

# faces
f 3/5/1 2/5/1 1/5/1
f 4/5/1 2/5/1 3/5/1
f 7/5/1 6/5/1 5/5/1
f 8/5/1 6/5/1 7/5/1
f 9/2/1 8/2/1 7/2/1
f 10/2/1 8/2/1 9/2/1
f 11/5/1 10/5/1 9/5/1
f 12/5/1 10/5/1 11/5/1
f 15/5/1 14/5/1 13/5/1
f 16/5/1 14/5/1 15/5/1
f 19/4/1 18/4/1 17/4/1
f 20/4/1 18/4/1 19/4/1
f 21/4/1 18/4/1 20/4/1
f 22/4/1 18/4/1 21/4/1
f 23/4/1 18/4/1 22/4/1
f 24/4/1 18/4/1 23/4/1
f 27/5/1 26/5/1 25/5/1
f 28/5/1 26/5/1 27/5/1
f 31/5/1 30/5/1 29/5/1
f 32/5/1 30/5/1 31/5/1
f 33/5/1 30/5/1 32/5/1
f 34/5/1 30/5/1 33/5/1
f 37/4/1 36/4/1 35/4/1
f 38/4/1 36/4/1 37/4/1
f 41/5/1 40/5/1 39/5/1
f 42/5/1 40/5/1 41/5/1
f 45/4/1 44/4/1 43/4/1
f 46/4/1 44/4/1 45/4/1
f 47/4/1 45/4/1 43/4/1
f 48/4/1 45/4/1 47/4/1
f 49/5/1 48/5/1 47/5/1
f 50/5/1 48/5/1 49/5/1
f 51/4/1 47/4/1 43/4/1
f 51/5/1 49/5/1 47/5/1
f 52/4/1 50/4/1 49/4/1
f 52/5/1 49/5/1 51/5/1
f 53/5/1 48/5/1 50/5/1
f 53/4/1 50/4/1 52/4/1
f 54/4/1 45/4/1 48/4/1
f 54/5/1 48/5/1 53/5/1
f 55/4/1 52/4/1 51/4/1
f 55/5/1 53/5/1 52/5/1
f 56/5/1 53/5/1 55/5/1
f 57/5/1 53/5/1 56/5/1
f 58/4/1 54/4/1 53/4/1
f 58/5/1 53/5/1 57/5/1
f 59/5/1 57/5/1 56/5/1
f 59/4/1 58/4/1 57/4/1
f 60/4/1 58/4/1 59/4/1
f 61/4/1 56/4/1 55/4/1
f 61/5/1 59/5/1 56/5/1
f 61/5/1 60/5/1 59/5/1
f 62/4/1 58/4/1 60/4/1
f 62/5/1 60/5/1 61/5/1
f 63/4/1 45/4/1 54/4/1
f 63/4/1 58/4/1 62/4/1
f 63/4/1 54/4/1 58/4/1
f 65/4/1 62/4/1 61/4/1
f 65/4/1 64/4/1 63/4/1
f 65/4/1 63/4/1 62/4/1
f 65/4/1 55/4/1 51/4/1
f 65/4/1 51/4/1 43/4/1
f 65/4/1 61/4/1 55/4/1
f 66/4/1 64/4/1 65/4/1
f 69/5/1 68/5/1 67/5/1
f 70/5/1 68/5/1 69/5/1
f 71/5/2 72/5/2 73/5/2
f 73/5/2 72/5/2 74/5/2
f 75/5/2 76/5/2 77/5/2
f 77/5/2 76/5/2 78/5/2
f 79/4/2 80/4/2 81/4/2
f 81/4/2 80/4/2 82/4/2
f 82/4/2 80/4/2 83/4/2
f 83/4/2 80/4/2 84/4/2
f 84/4/2 80/4/2 85/4/2
f 85/4/2 80/4/2 86/4/2
f 87/5/2 88/5/2 89/5/2
f 89/5/2 88/5/2 90/5/2
f 91/4/2 92/4/2 93/4/2
f 93/4/2 92/4/2 94/4/2
f 95/5/2 96/5/2 97/5/2
f 97/5/2 96/5/2 98/5/2
f 98/5/2 96/5/2 99/5/2
f 99/5/2 96/5/2 100/5/2
f 101/4/2 102/4/2 103/4/2
f 103/4/2 102/4/2 104/4/2
f 101/4/2 103/4/2 105/4/2
f 105/4/2 103/4/2 106/4/2
f 105/5/2 106/5/2 107/5/2
f 107/5/2 106/5/2 108/5/2
f 101/4/2 105/4/2 109/4/2
f 105/5/2 107/5/2 109/5/2
f 107/4/2 108/4/2 110/4/2
f 109/5/2 107/5/2 110/5/2
f 108/5/2 106/5/2 111/5/2
f 110/4/2 108/4/2 111/4/2
f 106/4/2 103/4/2 112/4/2
f 111/5/2 106/5/2 112/5/2
f 109/4/2 110/4/2 113/4/2
f 110/5/2 111/5/2 113/5/2
f 113/5/2 111/5/2 114/5/2
f 114/5/2 111/5/2 115/5/2
f 111/4/2 112/4/2 116/4/2
f 115/5/2 111/5/2 116/5/2
f 114/5/2 115/5/2 117/5/2
f 115/4/2 116/4/2 117/4/2
f 117/4/2 116/4/2 118/4/2
f 113/4/2 114/4/2 119/4/2
f 114/5/2 117/5/2 119/5/2
f 117/5/2 118/5/2 119/5/2
f 118/4/2 116/4/2 120/4/2
f 119/5/2 118/5/2 120/5/2
f 112/4/2 103/4/2 121/4/2
f 120/4/2 116/4/2 121/4/2
f 116/4/2 112/4/2 121/4/2
f 119/4/2 120/4/2 123/4/2
f 121/4/2 122/4/2 123/4/2
f 120/4/2 121/4/2 123/4/2
f 109/4/2 113/4/2 123/4/2
f 101/4/2 109/4/2 123/4/2
f 113/4/2 119/4/2 123/4/2
f 123/4/2 122/4/2 124/4/2
f 125/5/2 126/5/2 127/5/2
f 127/5/2 126/5/2 128/5/2
f 129/5/2 130/5/2 131/5/2
f 131/5/2 130/5/2 132/5/2
f 133/5/2 134/5/2 135/5/2
f 135/5/2 134/5/2 136/5/2
f 135/2/2 136/2/2 137/2/2
f 137/2/2 136/2/2 138/2/2
f 137/5/2 138/5/2 139/5/2
f 139/5/2 138/5/2 140/5/2
f 143/4/3 142/4/3 141/4/3
f 144/4/3 142/4/3 143/4/3
f 147/4/3 146/4/3 145/4/3
f 148/4/3 146/4/3 147/4/3
f 149/5/3 148/5/3 147/5/3
f 150/5/3 148/5/3 149/5/3
f 151/4/3 150/4/3 149/4/3
f 152/4/3 150/4/3 151/4/3
f 153/5/3 152/5/3 151/5/3
f 154/5/3 152/5/3 153/5/3
f 155/4/3 154/4/3 153/4/3
f 156/4/3 154/4/3 155/4/3
f 159/5/3 158/5/3 157/5/3
f 160/5/3 158/5/3 159/5/3
f 163/4/3 162/4/3 161/4/3
f 164/4/3 162/4/3 163/4/3
f 165/5/3 164/5/3 163/5/3
f 166/5/3 164/5/3 165/5/3
f 167/4/3 166/4/3 165/4/3
f 168/4/3 166/4/3 167/4/3
f 169/5/3 168/5/3 167/5/3
f 170/5/3 168/5/3 169/5/3
f 171/4/3 170/4/3 169/4/3
f 172/4/3 170/4/3 171/4/3
f 175/5/3 174/5/3 173/5/3
f 176/5/3 174/5/3 175/5/3
f 185/4/3 184/4/3 183/4/3
f 186/4/3 184/4/3 185/4/3
f 187/5/3 186/5/3 185/5/3
f 188/5/3 186/5/3 187/5/3
f 189/4/3 188/4/3 187/4/3
f 190/4/3 188/4/3 189/4/3
f 191/5/3 190/5/3 189/5/3
f 192/5/3 190/5/3 191/5/3
f 193/4/3 192/4/3 191/4/3
f 194/4/3 192/4/3 193/4/3
f 195/5/3 178/5/3 177/5/3
f 196/5/3 178/5/3 195/5/3
f 199/5/3 198/5/3 197/5/3
f 200/5/3 198/5/3 199/5/3
f 201/5/3 180/5/3 179/5/3
f 202/2/3 181/2/3 180/2/3
f 202/5/3 180/5/3 201/5/3
f 203/5/3 182/5/3 181/5/3
f 203/2/3 181/2/3 202/2/3
f 204/5/3 182/5/3 203/5/3
f 207/5/3 206/5/3 205/5/3
f 208/5/3 206/5/3 207/5/3
f 209/5/3 207/5/3 205/5/3
f 210/5/3 207/5/3 209/5/3
f 211/5/3 206/5/3 208/5/3
f 212/5/3 206/5/3 211/5/3
f 213/5/3 206/5/3 212/5/3
f 214/5/3 206/5/3 213/5/3
f 215/5/3 209/5/3 205/5/3
f 217/5/3 216/5/3 215/5/3
f 218/5/3 206/5/3 214/5/3
f 219/5/3 217/5/3 215/5/3
f 219/5/3 218/5/3 217/5/3
f 219/5/3 215/5/3 205/5/3
f 220/5/3 218/5/3 219/5/3
f 223/4/3 222/4/3 221/4/3
f 224/4/3 222/4/3 223/4/3
f 226/5/3 218/5/3 220/5/3
f 227/5/3 226/5/3 225/5/3
f 228/5/3 226/5/3 227/5/3
f 229/5/3 218/5/3 226/5/3
f 229/5/3 226/5/3 228/5/3
f 230/5/3 206/5/3 218/5/3
f 230/5/3 218/5/3 229/5/3
f 231/5/3 227/5/3 225/5/3
f 232/5/3 229/5/3 228/5/3
f 233/5/3 229/5/3 232/5/3
f 234/5/3 206/5/3 230/5/3
f 235/5/3 231/5/3 225/5/3
f 235/5/3 234/5/3 233/5/3
f 235/5/3 233/5/3 232/5/3
f 235/5/3 232/5/3 231/5/3
f 236/5/3 206/5/3 234/5/3
f 236/5/3 234/5/3 235/5/3
f 239/3/3 238/3/3 237/3/3
f 240/3/3 238/3/3 239/3/3
f 241/3/3 239/3/3 237/3/3
f 241/1/3 240/1/3 239/1/3
f 242/1/3 240/1/3 241/1/3
f 243/3/3 241/3/3 237/3/3
f 243/5/3 242/5/3 241/5/3
f 244/1/3 240/1/3 242/1/3
f 244/5/3 242/5/3 243/5/3
f 245/1/3 240/1/3 244/1/3
f 246/1/3 244/1/3 243/1/3
f 246/5/3 245/5/3 244/5/3
f 247/1/3 240/1/3 245/1/3
f 247/5/3 245/5/3 246/5/3
f 248/1/3 240/1/3 247/1/3
f 249/3/3 243/3/3 237/3/3
f 249/1/3 246/1/3 243/1/3
f 249/1/3 247/1/3 246/1/3
f 250/1/3 247/1/3 249/1/3
f 251/5/3 248/5/3 247/5/3
f 251/1/3 247/1/3 250/1/3
f 252/1/3 240/1/3 248/1/3
f 252/5/3 248/5/3 251/5/3
f 253/1/3 240/1/3 252/1/3
f 254/1/3 251/1/3 250/1/3
f 254/5/3 250/5/3 249/5/3
f 254/1/3 252/1/3 251/1/3
f 255/1/3 252/1/3 254/1/3
f 256/5/3 253/5/3 252/5/3
f 256/1/3 252/1/3 255/1/3
f 257/1/3 240/1/3 253/1/3
f 257/5/3 253/5/3 256/5/3
f 258/1/3 240/1/3 257/1/3
f 259/1/3 256/1/3 255/1/3
f 259/5/3 255/5/3 254/5/3
f 259/1/3 257/1/3 256/1/3
f 260/1/3 257/1/3 259/1/3
f 261/5/3 258/5/3 257/5/3
f 261/1/3 257/1/3 260/1/3
f 262/1/3 240/1/3 258/1/3
f 262/5/3 258/5/3 261/5/3
f 263/1/3 240/1/3 262/1/3
f 264/5/3 260/5/3 259/5/3
f 264/3/3 249/3/3 237/3/3
f 264/5/3 254/5/3 249/5/3
f 264/5/3 259/5/3 254/5/3
f 265/5/3 260/5/3 264/5/3
f 266/1/3 261/1/3 260/1/3
f 266/5/3 260/5/3 265/5/3
f 266/1/3 262/1/3 261/1/3
f 267/1/3 262/1/3 266/1/3
f 268/5/3 263/5/3 262/5/3
f 268/1/3 262/1/3 267/1/3
f 269/1/3 240/1/3 263/1/3
f 269/5/3 263/5/3 268/5/3
f 270/1/3 240/1/3 269/1/3
f 271/1/3 265/1/3 264/1/3
f 271/5/3 267/5/3 266/5/3
f 271/5/3 266/5/3 265/5/3
f 272/5/3 267/5/3 271/5/3
f 273/1/3 268/1/3 267/1/3
f 273/5/3 267/5/3 272/5/3
f 273/1/3 269/1/3 268/1/3
f 274/1/3 269/1/3 273/1/3
f 275/5/3 270/5/3 269/5/3
f 275/1/3 269/1/3 274/1/3
f 276/1/3 240/1/3 270/1/3
f 276/5/3 270/5/3 275/5/3
f 277/1/3 240/1/3 276/1/3
f 278/1/3 272/1/3 271/1/3
f 278/5/3 274/5/3 273/5/3
f 278/5/3 273/5/3 272/5/3
f 279/5/3 274/5/3 278/5/3
f 280/1/3 275/1/3 274/1/3
f 280/5/3 274/5/3 279/5/3
f 280/1/3 276/1/3 275/1/3
f 281/1/3 276/1/3 280/1/3
f 282/5/3 277/5/3 276/5/3
f 282/1/3 276/1/3 281/1/3
f 283/1/3 240/1/3 277/1/3
f 283/5/3 277/5/3 282/5/3
f 284/1/3 240/1/3 283/1/3
f 285/1/3 279/1/3 278/1/3
f 285/5/3 281/5/3 280/5/3
f 285/5/3 280/5/3 279/5/3
f 286/5/3 281/5/3 285/5/3
f 287/1/3 282/1/3 281/1/3
f 287/5/3 281/5/3 286/5/3
f 287/1/3 283/1/3 282/1/3
f 288/1/3 283/1/3 287/1/3
f 289/5/3 284/5/3 283/5/3
f 289/1/3 283/1/3 288/1/3
f 290/1/3 240/1/3 284/1/3
f 290/5/3 284/5/3 289/5/3
f 291/3/3 238/3/3 240/3/3
f 291/1/3 240/1/3 290/1/3
f 292/1/3 286/1/3 285/1/3
f 292/5/3 288/5/3 287/5/3
f 292/5/3 287/5/3 286/5/3
f 293/5/3 288/5/3 292/5/3
f 294/1/3 290/1/3 289/1/3
f 294/5/3 288/5/3 293/5/3
f 294/1/3 289/1/3 288/1/3
f 295/1/3 290/1/3 294/1/3
f 296/5/3 291/5/3 290/5/3
f 296/1/3 290/1/3 295/1/3
f 297/3/3 238/3/3 291/3/3
f 297/5/3 291/5/3 296/5/3
f 298/1/3 293/1/3 292/1/3
f 298/5/3 295/5/3 294/5/3
f 298/5/3 294/5/3 293/5/3
f 299/5/3 295/5/3 298/5/3
f 300/1/3 296/1/3 295/1/3
f 300/5/3 295/5/3 299/5/3
f 300/1/3 297/1/3 296/1/3
f 301/1/3 297/1/3 300/1/3
f 302/1/3 299/1/3 298/1/3
f 302/5/3 300/5/3 299/5/3
f 302/5/3 301/5/3 300/5/3
f 303/5/3 301/5/3 302/5/3
f 304/1/3 297/1/3 301/1/3
f 304/5/3 301/5/3 303/5/3
f 305/3/3 238/3/3 297/3/3
f 305/1/3 297/1/3 304/1/3
f 306/5/3 304/5/3 303/5/3
f 306/1/3 303/1/3 302/1/3
f 306/5/3 305/5/3 304/5/3
f 307/5/3 305/5/3 306/5/3
f 308/1/3 307/1/3 306/1/3
f 308/5/3 305/5/3 307/5/3
f 309/5/3 305/5/3 308/5/3
f 310/1/3 309/1/3 308/1/3
f 310/5/3 305/5/3 309/5/3
f 311/3/3 238/3/3 305/3/3
f 311/5/3 305/5/3 310/5/3
f 312/1/3 310/1/3 308/1/3
f 312/1/3 292/1/3 285/1/3
f 312/1/3 311/1/3 310/1/3
f 312/1/3 308/1/3 306/1/3
f 312/1/3 306/1/3 302/1/3
f 312/1/3 285/1/3 278/1/3
f 312/1/3 278/1/3 271/1/3
f 312/1/3 271/1/3 264/1/3
f 312/3/3 264/3/3 237/3/3
f 312/1/3 298/1/3 292/1/3
f 312/1/3 302/1/3 298/1/3
f 313/3/3 238/3/3 311/3/3
f 313/1/3 311/1/3 312/1/3
f 314/3/3 312/3/3 237/3/3
f 314/3/3 313/3/3 312/3/3
f 315/3/3 238/3/3 313/3/3
f 315/3/3 313/3/3 314/3/3
f 318/3/3 317/3/3 316/3/3
f 319/3/3 317/3/3 318/3/3
f 320/3/3 318/3/3 316/3/3
f 321/3/3 318/3/3 320/3/3
f 322/3/3 317/3/3 319/3/3
f 323/3/3 317/3/3 322/3/3
f 324/3/3 317/3/3 323/3/3
f 325/3/3 317/3/3 324/3/3
f 326/5/3 321/5/3 320/5/3
f 326/3/3 320/3/3 316/3/3
f 327/5/3 321/5/3 326/5/3
f 328/5/3 321/5/3 327/5/3
f 329/1/3 323/1/3 322/1/3
f 330/5/3 324/5/3 323/5/3
f 330/1/3 323/1/3 329/1/3
f 331/1/3 325/1/3 324/1/3
f 331/5/3 324/5/3 330/5/3
f 332/1/3 325/1/3 331/1/3
f 333/5/3 328/5/3 327/5/3
f 333/5/3 329/5/3 328/5/3
f 333/1/3 327/1/3 326/1/3
f 334/5/3 329/5/3 333/5/3
f 335/1/3 330/1/3 329/1/3
f 335/5/3 329/5/3 334/5/3
f 335/1/3 331/1/3 330/1/3
f 336/1/3 331/1/3 335/1/3
f 337/5/3 332/5/3 331/5/3
f 337/1/3 331/1/3 336/1/3
f 338/1/3 325/1/3 332/1/3
f 338/5/3 332/5/3 337/5/3
f 339/1/3 325/1/3 338/1/3
f 340/1/3 334/1/3 333/1/3
f 340/5/3 336/5/3 335/5/3
f 340/5/3 335/5/3 334/5/3
f 341/5/3 336/5/3 340/5/3
f 342/1/3 337/1/3 336/1/3
f 342/5/3 336/5/3 341/5/3
f 342/1/3 338/1/3 337/1/3
f 343/1/3 338/1/3 342/1/3
f 344/5/3 339/5/3 338/5/3
f 344/1/3 338/1/3 343/1/3
f 345/1/3 325/1/3 339/1/3
f 345/5/3 339/5/3 344/5/3
f 346/1/3 325/1/3 345/1/3
f 347/1/3 341/1/3 340/1/3
f 347/3/3 326/3/3 316/3/3
f 347/1/3 333/1/3 326/1/3
f 347/1/3 340/1/3 333/1/3
f 348/5/3 343/5/3 342/5/3
f 348/1/3 341/1/3 347/1/3
f 348/5/3 342/5/3 341/5/3
f 349/1/3 344/1/3 343/1/3
f 349/5/3 343/5/3 348/5/3
f 349/1/3 345/1/3 344/1/3
f 350/5/3 346/5/3 345/5/3
f 350/1/3 345/1/3 349/1/3
f 351/1/3 325/1/3 346/1/3
f 351/5/3 346/5/3 350/5/3
f 352/3/3 317/3/3 325/3/3
f 352/1/3 325/1/3 351/1/3
f 353/3/3 351/3/3 350/3/3
f 353/3/3 348/3/3 347/3/3
f 353/3/3 352/3/3 351/3/3
f 353/3/3 350/3/3 349/3/3
f 353/3/3 349/3/3 348/3/3
f 353/3/3 347/3/3 316/3/3
f 354/3/3 317/3/3 352/3/3
f 354/3/3 352/3/3 353/3/3
f 357/5/3 356/5/3 355/5/3
f 358/5/3 356/5/3 357/5/3
f 359/4/4 360/4/4 361/4/4
f 361/4/4 360/4/4 362/4/4
f 363/5/4 364/5/4 365/5/4
f 365/5/4 364/5/4 366/5/4
f 367/5/4 368/5/4 369/5/4
f 369/5/4 368/5/4 370/5/4
f 371/5/4 372/5/4 377/5/4
f 377/5/4 372/5/4 378/5/4
f 373/5/4 374/5/4 379/5/4
f 374/2/4 375/2/4 380/2/4
f 379/5/4 374/5/4 380/5/4
f 375/5/4 376/5/4 381/5/4
f 380/2/4 375/2/4 381/2/4
f 381/5/4 376/5/4 382/5/4
f 386/5/5 384/5/5 383/5/5
f 387/5/5 384/5/5 386/5/5
f 389/5/5 386/5/5 385/5/5
f 389/5/5 388/5/5 387/5/5
f 389/5/5 387/5/5 386/5/5
f 390/5/5 388/5/5 389/5/5
f 393/4/5 392/4/5 391/4/5
f 394/4/5 392/4/5 393/4/5
f 395/4/5 392/4/5 394/4/5
f 398/4/5 397/4/5 396/4/5
f 399/4/5 397/4/5 398/4/5
f 402/5/5 401/5/5 400/5/5
f 403/5/5 401/5/5 402/5/5
f 410/4/5 405/4/5 404/4/5
f 411/4/5 405/4/5 410/4/5
f 412/5/5 406/5/5 405/5/5
f 412/4/5 405/4/5 411/4/5
f 413/4/5 407/4/5 406/4/5
f 413/5/5 406/5/5 412/5/5
f 414/5/5 408/5/5 407/5/5
f 414/4/5 407/4/5 413/4/5
f 415/4/5 409/4/5 408/4/5
f 415/5/5 408/5/5 414/5/5
f 416/4/5 409/4/5 415/4/5
f 417/4/5 409/4/5 416/4/5
f 418/5/5 414/5/5 413/5/5
f 418/5/5 416/5/5 415/5/5
f 418/5/5 415/5/5 414/5/5
f 418/5/5 412/5/5 411/5/5
f 418/5/5 413/5/5 412/5/5
f 419/5/5 416/5/5 418/5/5
f 422/4/5 421/4/5 420/4/5
f 423/4/5 421/4/5 422/4/5
f 426/5/5 425/5/5 424/5/5
f 427/5/5 425/5/5 426/5/5
f 428/5/5 426/5/5 424/5/5
f 429/5/5 425/5/5 427/5/5
f 430/5/5 428/5/5 424/5/5
f 430/5/5 429/5/5 428/5/5
f 431/5/5 425/5/5 429/5/5
f 431/5/5 429/5/5 430/5/5
f 432/5/6 433/5/6 434/5/6
f 434/5/6 433/5/6 435/5/6
f 436/5/6 437/5/6 439/5/6
f 439/5/6 437/5/6 440/5/6
f 438/5/6 439/5/6 442/5/6
f 440/5/6 441/5/6 442/5/6
f 439/5/6 440/5/6 442/5/6
f 442/5/6 441/5/6 443/5/6
f 443/5/6 441/5/6 444/5/6
f 444/5/6 441/5/6 445/5/6
f 443/5/6 444/5/6 446/5/6
f 446/5/6 444/5/6 447/5/6
f 438/5/6 442/5/6 448/5/6
f 445/5/6 441/5/6 449/5/6
f 438/5/6 448/5/6 450/5/6
f 448/5/6 449/5/6 450/5/6
f 449/5/6 441/5/6 451/5/6
f 450/5/6 449/5/6 451/5/6
f 452/5/6 453/5/6 454/5/6
f 454/5/6 453/5/6 455/5/6
f 456/4/6 457/4/6 458/4/6
f 458/4/6 457/4/6 459/4/6
f 459/4/6 457/4/6 460/4/6
f 461/4/6 462/4/6 463/4/6
f 463/4/6 462/4/6 464/4/6
f 465/4/6 466/4/6 471/4/6
f 466/5/6 467/5/6 472/5/6
f 471/4/6 466/4/6 472/4/6
f 467/4/6 468/4/6 473/4/6
f 472/5/6 467/5/6 473/5/6
f 468/5/6 469/5/6 474/5/6
f 473/4/6 468/4/6 474/4/6
f 469/4/6 470/4/6 475/4/6
f 474/5/6 469/5/6 475/5/6
f 475/4/6 470/4/6 476/4/6
f 477/4/6 478/4/6 483/4/6
f 478/5/6 479/5/6 484/5/6
f 483/4/6 478/4/6 484/4/6
f 479/4/6 480/4/6 485/4/6
f 484/5/6 479/5/6 485/5/6
f 480/5/6 481/5/6 486/5/6
f 485/4/6 480/4/6 486/4/6
f 481/4/6 482/4/6 487/4/6
f 486/5/6 481/5/6 487/5/6
f 487/4/6 482/4/6 488/4/6
f 491/4/6 492/4/6 497/4/6
f 492/5/6 493/5/6 498/5/6
f 497/4/6 492/4/6 498/4/6
f 493/4/6 494/4/6 499/4/6
f 498/5/6 493/5/6 499/5/6
f 494/5/6 495/5/6 500/5/6
f 499/4/6 494/4/6 500/4/6
f 495/4/6 496/4/6 501/4/6
f 500/5/6 495/5/6 501/5/6
f 501/4/6 496/4/6 502/4/6
f 489/4/6 490/4/6 503/4/6
f 503/4/6 490/4/6 504/4/6
f 505/5/6 506/5/6 507/5/6
f 507/5/6 506/5/6 508/5/6
f 509/5/6 510/5/6 511/5/6
f 511/5/6 510/5/6 512/5/6
f 509/5/6 511/5/6 513/5/6
f 512/5/6 510/5/6 514/5/6
f 509/5/6 513/5/6 515/5/6
f 513/5/6 514/5/6 515/5/6
f 514/5/6 510/5/6 516/5/6
f 515/5/6 514/5/6 516/5/6
