# MagicaVoxel @ Ephtracy

# group
o 

# material
mtllib truck_b_c.mtl
usemtl palette

# normals
vn -1 0 0
vn 1 0 0
vn 0 0 1
vn 0 0 -1
vn 0 -1 0
vn 0 1 0

# texcoords
vt 0.876953 0.5
vt 0.880859 0.5
vt 0.916016 0.5
vt 0.947266 0.5
vt 0.970703 0.5
vt 0.974609 0.5

# verts
v -1.9 0.6 0.8
v -1.9 0.6 -0.9
v -1.9 0.7 0.7
v -1.9 0.7 -0.8
v -1.9 1.6 0.7
v -1.9 1.6 -0.8
v -1.9 1.7 0.8
v -1.9 1.7 -0.9
v -1.8 0.7 0.7
v -1.8 0.7 -0.8
v -1.8 1.6 0.7
v -1.8 1.6 -0.8
v -1.7 0.2 0.7
v -1.7 0.2 0.1
v -1.7 0.2 -0.2
v -1.7 0.2 -0.8
v -1.7 0.4 0.7
v -1.7 0.4 0.6
v -1.7 0.4 0.4
v -1.7 0.4 0.1
v -1.7 0.4 -0.2
v -1.7 0.4 -0.5
v -1.7 0.4 -0.7
v -1.7 0.4 -0.8
v -1.7 0.5 0.4
v -1.7 0.5 -0.5
v -1.7 0.6 0.7
v -1.7 0.6 0.6
v -1.7 0.6 -0.7
v -1.7 0.6 -0.8
v -1.5 0 0.7
v -1.5 0 0.5
v -1.5 0 -0.6
v -1.5 0 -0.8
v -1.5 0.2 0.7
v -1.5 0.2 0.5
v -1.5 0.2 -0.6
v -1.5 0.2 -0.8
v -0.8 0 0.7
v -0.8 0 0.5
v -0.8 0 -0.6
v -0.8 0 -0.8
v -0.8 0.2 0.7
v -0.8 0.2 0.5
v -0.8 0.2 -0.6
v -0.8 0.2 -0.8
v 0.3 0.7 0.8
v 0.3 0.7 0.7
v 0.3 0.7 -0.8
v 0.3 0.7 -0.9
v 0.3 1.6 0.8
v 0.3 1.6 0.7
v 0.3 1.6 -0.8
v 0.3 1.6 -0.9
v 0.5 0.2 0.7
v 0.5 0.2 0.6
v 0.5 0.2 -0.7
v 0.5 0.2 -0.8
v 0.5 0.4 0.7
v 0.5 0.4 0.6
v 0.5 0.4 -0.7
v 0.5 0.4 -0.8
v 0.5 1.5 0.6
v 0.5 1.5 -0.7
v 0.7 0.4 0.7
v 0.7 0.4 0.6
v 0.7 0.4 -0.7
v 0.7 0.4 -0.8
v 0.7 0.6 0.7
v 0.7 0.6 0.6
v 0.7 0.6 -0.7
v 0.7 0.6 -0.8
v 0.8 0 0.7
v 0.8 0 0.5
v 0.8 0 -0.6
v 0.8 0 -0.8
v 0.8 0.2 0.7
v 0.8 0.2 0.5
v 0.8 0.2 -0.6
v 0.8 0.2 -0.8
v 1.7 0.8 0.8
v 1.7 0.8 0.6
v 1.7 0.8 -0.7
v 1.7 0.8 -0.9
v 1.7 1.1 0.8
v 1.7 1.1 0.6
v 1.7 1.1 -0.7
v 1.7 1.1 -0.9
v -1.8 0.7 0.8
v -1.8 0.7 0.7
v -1.8 0.7 -0.8
v -1.8 0.7 -0.9
v -1.8 1.6 0.8
v -1.8 1.6 0.7
v -1.8 1.6 -0.8
v -1.8 1.6 -0.9
v -1 0 0.7
v -1 0 0.5
v -1 0 -0.6
v -1 0 -0.8
v -1 0.2 0.7
v -1 0.2 0.5
v -1 0.2 -0.6
v -1 0.2 -0.8
v -0.3 0 0.7
v -0.3 0 0.5
v -0.3 0 -0.6
v -0.3 0 -0.8
v -0.3 0.2 0.7
v -0.3 0.2 0.5
v -0.3 0.2 -0.6
v -0.3 0.2 -0.8
v 0.4 0.2 0.7
v 0.4 0.2 0.6
v 0.4 0.2 -0.7
v 0.4 0.2 -0.8
v 0.4 0.4 0.6
v 0.4 0.4 -0.7
v 0.4 0.6 0.8
v 0.4 0.6 0.7
v 0.4 0.6 -0.8
v 0.4 0.6 -0.9
v 0.4 1.7 0.8
v 0.4 1.7 -0.9
v 1.3 0 0.7
v 1.3 0 0.5
v 1.3 0 -0.6
v 1.3 0 -0.8
v 1.3 0.2 0.7
v 1.3 0.2 0.5
v 1.3 0.2 -0.6
v 1.3 0.2 -0.8
v 1.4 0.4 0.7
v 1.4 0.4 0.6
v 1.4 0.4 -0.7
v 1.4 0.4 -0.8
v 1.4 0.6 0.7
v 1.4 0.6 0.6
v 1.4 0.6 -0.7
v 1.4 0.6 -0.8
v 1.8 0.7 0.6
v 1.8 0.7 0.4
v 1.8 0.7 -0.5
v 1.8 0.7 -0.7
v 1.8 0.8 0.8
v 1.8 0.8 0.6
v 1.8 0.8 0.5
v 1.8 0.8 -0.6
v 1.8 0.8 -0.7
v 1.8 0.8 -0.9
v 1.8 1.1 0.8
v 1.8 1.1 0.6
v 1.8 1.1 -0.7
v 1.8 1.1 -0.9
v 1.8 1.3 0.5
v 1.8 1.3 -0.6
v 1.8 1.5 0.6
v 1.8 1.5 -0.7
v 1.9 0.2 0.7
v 1.9 0.2 -0.8
v 1.9 0.4 0.7
v 1.9 0.4 0.6
v 1.9 0.4 0.4
v 1.9 0.4 0.3
v 1.9 0.4 0.2
v 1.9 0.4 0.1
v 1.9 0.4 0
v 1.9 0.4 -0.1
v 1.9 0.4 -0.2
v 1.9 0.4 -0.3
v 1.9 0.4 -0.4
v 1.9 0.4 -0.5
v 1.9 0.4 -0.7
v 1.9 0.4 -0.8
v 1.9 0.6 0.3
v 1.9 0.6 0.2
v 1.9 0.6 0.1
v 1.9 0.6 0
v 1.9 0.6 -0.1
v 1.9 0.6 -0.2
v 1.9 0.6 -0.3
v 1.9 0.6 -0.4
v 1.9 0.7 0.6
v 1.9 0.7 0.4
v 1.9 0.7 -0.5
v 1.9 0.7 -0.7
v -1.9 0.6 0.8
v -1.9 1.7 0.8
v -1.8 0.7 0.8
v -1.8 1.6 0.8
v 0.3 0.7 0.8
v 0.3 1.6 0.8
v 0.4 0.6 0.8
v 0.4 1.7 0.8
v 1.7 0.8 0.8
v 1.7 1.1 0.8
v 1.8 0.8 0.8
v 1.8 1.1 0.8
v -1.8 0.7 0.7
v -1.8 1.6 0.7
v -1.7 0.2 0.7
v -1.7 0.4 0.7
v -1.7 0.6 0.7
v -1.6 0.4 0.7
v -1.6 0.6 0.7
v -1.5 0 0.7
v -1.5 0.2 0.7
v -1.5 0.5 0.7
v -1.4 0.1 0.7
v -1.4 0.4 0.7
v -1.1 0.1 0.7
v -1.1 0.4 0.7
v -1 0 0.7
v -1 0.2 0.7
v -1 0.5 0.7
v -0.8 0 0.7
v -0.8 0.2 0.7
v -0.8 0.5 0.7
v -0.7 0.1 0.7
v -0.7 0.4 0.7
v -0.4 0.1 0.7
v -0.4 0.4 0.7
v -0.3 0 0.7
v -0.3 0.2 0.7
v -0.3 0.5 0.7
v 0.3 0.7 0.7
v 0.3 1.6 0.7
v 0.4 0.2 0.7
v 0.4 0.6 0.7
v 0.5 0.2 0.7
v 0.5 0.4 0.7
v 0.7 0.4 0.7
v 0.7 0.6 0.7
v 0.8 0 0.7
v 0.8 0.2 0.7
v 0.8 0.5 0.7
v 0.9 0.1 0.7
v 0.9 0.4 0.7
v 1.2 0.1 0.7
v 1.2 0.4 0.7
v 1.3 0 0.7
v 1.3 0.2 0.7
v 1.3 0.5 0.7
v 1.4 0.4 0.7
v 1.4 0.6 0.7
v 1.9 0.2 0.7
v 1.9 0.4 0.7
v 0.4 0.2 0.6
v 0.4 0.4 0.6
v 0.5 0.2 0.6
v 0.5 0.4 0.6
v 0.5 1.5 0.6
v 0.7 0.4 0.6
v 0.7 0.6 0.6
v 0.7 0.8 0.6
v 0.7 1.3 0.6
v 1 0.8 0.6
v 1 1.3 0.6
v 1.1 0.8 0.6
v 1.1 1.3 0.6
v 1.4 0.4 0.6
v 1.4 0.6 0.6
v 1.6 0.8 0.6
v 1.6 1.3 0.6
v 1.7 0.8 0.6
v 1.7 1.1 0.6
v 1.8 0.4 0.6
v 1.8 0.7 0.6
v 1.8 0.8 0.6
v 1.8 1.1 0.6
v 1.8 1.5 0.6
v 1.9 0.4 0.6
v 1.9 0.7 0.6
v -1.5 0 -0.6
v -1.5 0.2 -0.6
v -1 0 -0.6
v -1 0.2 -0.6
v -0.8 0 -0.6
v -0.8 0.2 -0.6
v -0.3 0 -0.6
v -0.3 0.2 -0.6
v 0.8 0 -0.6
v 0.8 0.2 -0.6
v 1.3 0 -0.6
v 1.3 0.2 -0.6
v -1.9 0.7 -0.8
v -1.9 1.6 -0.8
v -1.8 0.7 -0.8
v -1.8 1.6 -0.8
v -1.9 0.7 0.7
v -1.9 1.6 0.7
v -1.8 0.7 0.7
v -1.8 1.6 0.7
v -1.5 0 0.5
v -1.5 0.2 0.5
v -1 0 0.5
v -1 0.2 0.5
v -0.8 0 0.5
v -0.8 0.2 0.5
v -0.3 0 0.5
v -0.3 0.2 0.5
v 0.8 0 0.5
v 0.8 0.2 0.5
v 1.3 0 0.5
v 1.3 0.2 0.5
v 0.4 0.2 -0.7
v 0.4 0.4 -0.7
v 0.5 0.2 -0.7
v 0.5 0.4 -0.7
v 0.5 1.5 -0.7
v 0.7 0.4 -0.7
v 0.7 0.6 -0.7
v 0.7 0.8 -0.7
v 0.7 1.3 -0.7
v 1 0.8 -0.7
v 1 1.3 -0.7
v 1.1 0.8 -0.7
v 1.1 1.3 -0.7
v 1.4 0.4 -0.7
v 1.4 0.6 -0.7
v 1.6 0.8 -0.7
v 1.6 1.3 -0.7
v 1.7 0.8 -0.7
v 1.7 1.1 -0.7
v 1.8 0.4 -0.7
v 1.8 0.7 -0.7
v 1.8 0.8 -0.7
v 1.8 1.1 -0.7
v 1.8 1.5 -0.7
v 1.9 0.4 -0.7
v 1.9 0.7 -0.7
v -1.8 0.7 -0.8
v -1.8 1.6 -0.8
v -1.7 0.2 -0.8
v -1.7 0.4 -0.8
v -1.7 0.6 -0.8
v -1.6 0.4 -0.8
v -1.6 0.6 -0.8
v -1.5 0 -0.8
v -1.5 0.2 -0.8
v -1.5 0.5 -0.8
v -1.4 0.1 -0.8
v -1.4 0.4 -0.8
v -1.1 0.1 -0.8
v -1.1 0.4 -0.8
v -1 0 -0.8
v -1 0.2 -0.8
v -1 0.5 -0.8
v -0.8 0 -0.8
v -0.8 0.2 -0.8
v -0.8 0.5 -0.8
v -0.7 0.1 -0.8
v -0.7 0.4 -0.8
v -0.4 0.1 -0.8
v -0.4 0.4 -0.8
v -0.3 0 -0.8
v -0.3 0.2 -0.8
v -0.3 0.5 -0.8
v 0.3 0.7 -0.8
v 0.3 1.6 -0.8
v 0.4 0.2 -0.8
v 0.4 0.6 -0.8
v 0.5 0.2 -0.8
v 0.5 0.4 -0.8
v 0.7 0.4 -0.8
v 0.7 0.6 -0.8
v 0.8 0 -0.8
v 0.8 0.2 -0.8
v 0.8 0.5 -0.8
v 0.9 0.1 -0.8
v 0.9 0.4 -0.8
v 1.2 0.1 -0.8
v 1.2 0.4 -0.8
v 1.3 0 -0.8
v 1.3 0.2 -0.8
v 1.3 0.5 -0.8
v 1.4 0.4 -0.8
v 1.4 0.6 -0.8
v 1.9 0.2 -0.8
v 1.9 0.4 -0.8
v -1.9 0.6 -0.9
v -1.9 1.7 -0.9
v -1.8 0.7 -0.9
v -1.8 1.6 -0.9
v 0.3 0.7 -0.9
v 0.3 1.6 -0.9
v 0.4 0.6 -0.9
v 0.4 1.7 -0.9
v 1.7 0.8 -0.9
v 1.7 1.1 -0.9
v 1.8 0.8 -0.9
v 1.8 1.1 -0.9
v -1.5 0 0.7
v -1 0 0.7
v -0.8 0 0.7
v -0.3 0 0.7
v 0.8 0 0.7
v 1.3 0 0.7
v -1.5 0 0.5
v -1 0 0.5
v -0.8 0 0.5
v -0.3 0 0.5
v 0.8 0 0.5
v 1.3 0 0.5
v -1.5 0 -0.6
v -1 0 -0.6
v -0.8 0 -0.6
v -0.3 0 -0.6
v 0.8 0 -0.6
v 1.3 0 -0.6
v -1.5 0 -0.8
v -1 0 -0.8
v -0.8 0 -0.8
v -0.3 0 -0.8
v 0.8 0 -0.8
v 1.3 0 -0.8
v -1.7 0.2 0.7
v -1.5 0.2 0.7
v -1 0.2 0.7
v -0.8 0.2 0.7
v -0.3 0.2 0.7
v 0.4 0.2 0.7
v 0.5 0.2 0.7
v 0.8 0.2 0.7
v 1.3 0.2 0.7
v 1.9 0.2 0.7
v 0.4 0.2 0.6
v 0.5 0.2 0.6
v -1.5 0.2 0.5
v -1 0.2 0.5
v -0.8 0.2 0.5
v -0.3 0.2 0.5
v 0.8 0.2 0.5
v 1.3 0.2 0.5
v -1.7 0.2 0.1
v -1.6 0.2 0.1
v -1.7 0.2 -0.2
v -1.6 0.2 -0.2
v -1.5 0.2 -0.6
v -1 0.2 -0.6
v -0.8 0.2 -0.6
v -0.3 0.2 -0.6
v 0.8 0.2 -0.6
v 1.3 0.2 -0.6
v 0.4 0.2 -0.7
v 0.5 0.2 -0.7
v -1.7 0.2 -0.8
v -1.5 0.2 -0.8
v -1 0.2 -0.8
v -0.8 0.2 -0.8
v -0.3 0.2 -0.8
v 0.4 0.2 -0.8
v 0.5 0.2 -0.8
v 0.8 0.2 -0.8
v 1.3 0.2 -0.8
v 1.9 0.2 -0.8
v -1.9 0.6 0.8
v 0.4 0.6 0.8
v -1.7 0.6 0.7
v -1.6 0.6 0.7
v 0.4 0.6 0.7
v -1.7 0.6 0.6
v -1.7 0.6 -0.7
v -1.7 0.6 -0.8
v -1.6 0.6 -0.8
v 0.4 0.6 -0.8
v -1.9 0.6 -0.9
v 0.4 0.6 -0.9
v 1.7 0.8 0.8
v 1.8 0.8 0.8
v 1.7 0.8 0.6
v 1.8 0.8 0.6
v 1.7 0.8 -0.7
v 1.8 0.8 -0.7
v 1.7 0.8 -0.9
v 1.8 0.8 -0.9
v -1.8 1.6 0.8
v 0.3 1.6 0.8
v -1.9 1.6 0.7
v -1.8 1.6 0.7
v 0.3 1.6 0.7
v -1.9 1.6 -0.8
v -1.8 1.6 -0.8
v 0.3 1.6 -0.8
v -1.8 1.6 -0.9
v 0.3 1.6 -0.9
v 0.5 0.4 0.7
v 0.7 0.4 0.7
v 1.4 0.4 0.7
v 1.9 0.4 0.7
v 0.4 0.4 0.6
v 0.5 0.4 0.6
v 0.7 0.4 0.6
v 1.4 0.4 0.6
v 1.8 0.4 0.6
v 1.9 0.4 0.6
v 0.4 0.4 -0.7
v 0.5 0.4 -0.7
v 0.7 0.4 -0.7
v 1.4 0.4 -0.7
v 1.8 0.4 -0.7
v 1.9 0.4 -0.7
v 0.5 0.4 -0.8
v 0.7 0.4 -0.8
v 1.4 0.4 -0.8
v 1.9 0.4 -0.8
v 0.7 0.6 0.7
v 1.4 0.6 0.7
v 0.7 0.6 0.6
v 1.4 0.6 0.6
v 0.7 0.6 -0.7
v 1.4 0.6 -0.7
v 0.7 0.6 -0.8
v 1.4 0.6 -0.8
v -1.8 0.7 0.8
v 0.3 0.7 0.8
v -1.9 0.7 0.7
v -1.8 0.7 0.7
v 0.3 0.7 0.7
v 1.8 0.7 0.6
v 1.9 0.7 0.6
v 1.8 0.7 0.4
v 1.9 0.7 0.4
v 1.8 0.7 -0.5
v 1.9 0.7 -0.5
v 1.8 0.7 -0.7
v 1.9 0.7 -0.7
v -1.9 0.7 -0.8
v -1.8 0.7 -0.8
v 0.3 0.7 -0.8
v -1.8 0.7 -0.9
v 0.3 0.7 -0.9
v 1.7 1.1 0.8
v 1.8 1.1 0.8
v 1.7 1.1 0.6
v 1.8 1.1 0.6
v 1.7 1.1 -0.7
v 1.8 1.1 -0.7
v 1.7 1.1 -0.9
v 1.8 1.1 -0.9
v 0.5 1.5 0.6
v 1.8 1.5 0.6
v 0.5 1.5 -0.7
v 1.8 1.5 -0.7
v -1.9 1.7 0.8
v 0.4 1.7 0.8
v -1.9 1.7 -0.9
v 0.4 1.7 -0.9

# faces
f 3/6/1 2/6/1 1/6/1
f 4/6/1 2/6/1 3/6/1
f 5/6/1 3/6/1 1/6/1
f 6/6/1 2/6/1 4/6/1
f 7/6/1 5/6/1 1/6/1
f 7/6/1 6/6/1 5/6/1
f 8/6/1 2/6/1 6/6/1
f 8/6/1 6/6/1 7/6/1
f 11/6/1 10/6/1 9/6/1
f 12/6/1 10/6/1 11/6/1
f 17/2/1 14/2/1 13/2/1
f 18/2/1 14/2/1 17/2/1
f 19/2/1 14/2/1 18/2/1
f 20/4/1 15/4/1 14/4/1
f 20/2/1 14/2/1 19/2/1
f 21/2/1 16/2/1 15/2/1
f 21/4/1 15/4/1 20/4/1
f 22/2/1 16/2/1 21/2/1
f 23/2/1 16/2/1 22/2/1
f 24/2/1 16/2/1 23/2/1
f 25/5/1 20/5/1 19/5/1
f 25/2/1 19/2/1 18/2/1
f 25/5/1 21/5/1 20/5/1
f 25/5/1 22/5/1 21/5/1
f 26/2/1 23/2/1 22/2/1
f 26/5/1 22/5/1 25/5/1
f 27/3/1 18/3/1 17/3/1
f 28/2/1 25/2/1 18/2/1
f 28/3/1 18/3/1 27/3/1
f 28/2/1 26/2/1 25/2/1
f 29/3/1 24/3/1 23/3/1
f 29/2/1 26/2/1 28/2/1
f 29/2/1 23/2/1 26/2/1
f 30/3/1 24/3/1 29/3/1
f 35/5/1 32/5/1 31/5/1
f 36/5/1 32/5/1 35/5/1
f 37/5/1 34/5/1 33/5/1
f 38/5/1 34/5/1 37/5/1
f 43/5/1 40/5/1 39/5/1
f 44/5/1 40/5/1 43/5/1
f 45/5/1 42/5/1 41/5/1
f 46/5/1 42/5/1 45/5/1
f 51/6/1 48/6/1 47/6/1
f 52/6/1 48/6/1 51/6/1
f 53/6/1 50/6/1 49/6/1
f 54/6/1 50/6/1 53/6/1
f 59/2/1 56/2/1 55/2/1
f 60/2/1 56/2/1 59/2/1
f 61/2/1 58/2/1 57/2/1
f 62/2/1 58/2/1 61/2/1
f 63/4/1 61/4/1 60/4/1
f 64/4/1 61/4/1 63/4/1
f 69/2/1 66/2/1 65/2/1
f 70/2/1 66/2/1 69/2/1
f 71/2/1 68/2/1 67/2/1
f 72/2/1 68/2/1 71/2/1
f 77/5/1 74/5/1 73/5/1
f 78/5/1 74/5/1 77/5/1
f 79/5/1 76/5/1 75/5/1
f 80/5/1 76/5/1 79/5/1
f 85/4/1 82/4/1 81/4/1
f 86/4/1 82/4/1 85/4/1
f 87/4/1 84/4/1 83/4/1
f 88/4/1 84/4/1 87/4/1
f 89/6/2 90/6/2 93/6/2
f 93/6/2 90/6/2 94/6/2
f 91/6/2 92/6/2 95/6/2
f 95/6/2 92/6/2 96/6/2
f 97/5/2 98/5/2 101/5/2
f 101/5/2 98/5/2 102/5/2
f 99/5/2 100/5/2 103/5/2
f 103/5/2 100/5/2 104/5/2
f 105/5/2 106/5/2 109/5/2
f 109/5/2 106/5/2 110/5/2
f 107/5/2 108/5/2 111/5/2
f 111/5/2 108/5/2 112/5/2
f 113/2/2 114/2/2 117/2/2
f 115/2/2 116/2/2 118/2/2
f 113/2/2 117/2/2 120/2/2
f 117/2/2 118/2/2 120/2/2
f 118/2/2 116/2/2 121/2/2
f 120/2/2 118/2/2 121/2/2
f 119/6/2 120/6/2 123/6/2
f 121/6/2 122/6/2 123/6/2
f 120/6/2 121/6/2 123/6/2
f 123/6/2 122/6/2 124/6/2
f 125/5/2 126/5/2 129/5/2
f 129/5/2 126/5/2 130/5/2
f 127/5/2 128/5/2 131/5/2
f 131/5/2 128/5/2 132/5/2
f 133/2/2 134/2/2 137/2/2
f 137/2/2 134/2/2 138/2/2
f 135/2/2 136/2/2 139/2/2
f 139/2/2 136/2/2 140/2/2
f 141/4/2 142/4/2 146/4/2
f 143/4/2 144/4/2 146/4/2
f 142/4/2 143/4/2 146/4/2
f 146/4/2 144/4/2 147/4/2
f 147/4/2 144/4/2 148/4/2
f 148/4/2 144/4/2 149/4/2
f 145/4/2 146/4/2 151/4/2
f 146/4/2 147/4/2 151/4/2
f 151/4/2 147/4/2 152/4/2
f 149/4/2 150/4/2 153/4/2
f 148/4/2 149/4/2 153/4/2
f 153/4/2 150/4/2 154/4/2
f 152/4/2 147/4/2 155/4/2
f 147/1/2 148/1/2 155/1/2
f 148/4/2 153/4/2 156/4/2
f 155/1/2 148/1/2 156/1/2
f 152/4/2 155/4/2 157/4/2
f 155/4/2 156/4/2 157/4/2
f 156/4/2 153/4/2 158/4/2
f 157/4/2 156/4/2 158/4/2
f 159/2/2 160/2/2 161/2/2
f 161/2/2 160/2/2 162/2/2
f 162/2/2 160/2/2 163/2/2
f 163/2/2 160/2/2 164/2/2
f 164/2/2 160/2/2 165/2/2
f 165/2/2 160/2/2 166/2/2
f 166/2/2 160/2/2 167/2/2
f 167/2/2 160/2/2 168/2/2
f 168/2/2 160/2/2 169/2/2
f 169/2/2 160/2/2 170/2/2
f 170/2/2 160/2/2 171/2/2
f 171/2/2 160/2/2 172/2/2
f 172/2/2 160/2/2 173/2/2
f 173/2/2 160/2/2 174/2/2
f 163/2/2 164/2/2 175/2/2
f 164/5/2 165/5/2 175/5/2
f 165/2/2 166/2/2 176/2/2
f 175/5/2 165/5/2 176/5/2
f 166/5/2 167/5/2 177/5/2
f 176/2/2 166/2/2 177/2/2
f 167/2/2 168/2/2 178/2/2
f 177/5/2 167/5/2 178/5/2
f 168/5/2 169/5/2 179/5/2
f 178/2/2 168/2/2 179/2/2
f 169/2/2 170/2/2 180/2/2
f 179/5/2 169/5/2 180/5/2
f 170/5/2 171/5/2 181/5/2
f 180/2/2 170/2/2 181/2/2
f 171/2/2 172/2/2 182/2/2
f 181/5/2 171/5/2 182/5/2
f 162/3/2 163/3/2 183/3/2
f 180/2/2 181/2/2 184/2/2
f 183/3/2 163/3/2 184/3/2
f 163/2/2 175/2/2 184/2/2
f 181/2/2 182/2/2 184/2/2
f 179/2/2 180/2/2 184/2/2
f 178/2/2 179/2/2 184/2/2
f 177/2/2 178/2/2 184/2/2
f 176/2/2 177/2/2 184/2/2
f 175/2/2 176/2/2 184/2/2
f 182/2/2 172/2/2 185/2/2
f 184/2/2 182/2/2 185/2/2
f 172/3/2 173/3/2 185/3/2
f 185/3/2 173/3/2 186/3/2
f 189/6/3 188/6/3 187/6/3
f 190/6/3 188/6/3 189/6/3
f 191/6/3 189/6/3 187/6/3
f 192/6/3 188/6/3 190/6/3
f 193/6/3 191/6/3 187/6/3
f 193/6/3 192/6/3 191/6/3
f 194/6/3 188/6/3 192/6/3
f 194/6/3 192/6/3 193/6/3
f 197/4/3 196/4/3 195/4/3
f 198/4/3 196/4/3 197/4/3
f 204/2/3 202/2/3 201/2/3
f 204/3/3 203/3/3 202/3/3
f 205/3/3 203/3/3 204/3/3
f 207/2/3 204/2/3 201/2/3
f 207/2/3 205/2/3 204/2/3
f 208/2/3 205/2/3 207/2/3
f 209/5/3 207/5/3 206/5/3
f 209/5/3 208/5/3 207/5/3
f 210/5/3 208/5/3 209/5/3
f 211/5/3 209/5/3 206/5/3
f 211/4/3 210/4/3 209/4/3
f 212/5/3 208/5/3 210/5/3
f 212/4/3 210/4/3 211/4/3
f 213/5/3 211/5/3 206/5/3
f 213/5/3 212/5/3 211/5/3
f 214/5/3 212/5/3 213/5/3
f 215/2/3 205/2/3 208/2/3
f 215/5/3 212/5/3 214/5/3
f 215/5/3 208/5/3 212/5/3
f 217/2/3 215/2/3 214/2/3
f 218/2/3 205/2/3 215/2/3
f 218/2/3 215/2/3 217/2/3
f 219/5/3 217/5/3 216/5/3
f 219/5/3 218/5/3 217/5/3
f 220/5/3 218/5/3 219/5/3
f 221/5/3 219/5/3 216/5/3
f 221/4/3 220/4/3 219/4/3
f 222/5/3 218/5/3 220/5/3
f 222/4/3 220/4/3 221/4/3
f 223/5/3 221/5/3 216/5/3
f 223/5/3 222/5/3 221/5/3
f 224/5/3 222/5/3 223/5/3
f 225/2/3 205/2/3 218/2/3
f 225/5/3 222/5/3 224/5/3
f 225/5/3 218/5/3 222/5/3
f 226/6/3 200/6/3 199/6/3
f 227/6/3 200/6/3 226/6/3
f 228/2/3 225/2/3 224/2/3
f 229/2/3 205/2/3 225/2/3
f 229/2/3 225/2/3 228/2/3
f 232/2/3 231/2/3 230/2/3
f 235/2/3 232/2/3 230/2/3
f 235/2/3 233/2/3 232/2/3
f 236/2/3 233/2/3 235/2/3
f 237/5/3 235/5/3 234/5/3
f 237/5/3 236/5/3 235/5/3
f 238/5/3 236/5/3 237/5/3
f 239/5/3 237/5/3 234/5/3
f 239/4/3 238/4/3 237/4/3
f 240/5/3 236/5/3 238/5/3
f 240/4/3 238/4/3 239/4/3
f 241/5/3 239/5/3 234/5/3
f 241/5/3 240/5/3 239/5/3
f 242/5/3 240/5/3 241/5/3
f 243/2/3 233/2/3 236/2/3
f 243/5/3 240/5/3 242/5/3
f 243/5/3 236/5/3 240/5/3
f 244/2/3 243/2/3 242/2/3
f 245/2/3 233/2/3 243/2/3
f 245/2/3 243/2/3 244/2/3
f 246/2/3 244/2/3 242/2/3
f 247/2/3 244/2/3 246/2/3
f 250/2/3 249/2/3 248/2/3
f 251/2/3 249/2/3 250/2/3
f 253/4/3 252/4/3 251/4/3
f 254/4/3 252/4/3 253/4/3
f 255/4/3 252/4/3 254/4/3
f 256/4/3 252/4/3 255/4/3
f 257/4/3 255/4/3 254/4/3
f 257/1/3 256/1/3 255/1/3
f 258/4/3 252/4/3 256/4/3
f 258/1/3 256/1/3 257/1/3
f 259/4/3 257/4/3 254/4/3
f 259/4/3 258/4/3 257/4/3
f 260/4/3 252/4/3 258/4/3
f 260/4/3 258/4/3 259/4/3
f 262/4/3 259/4/3 254/4/3
f 263/1/3 260/1/3 259/1/3
f 263/4/3 262/4/3 261/4/3
f 263/4/3 259/4/3 262/4/3
f 264/4/3 252/4/3 260/4/3
f 264/1/3 260/1/3 263/1/3
f 265/4/3 263/4/3 261/4/3
f 265/4/3 264/4/3 263/4/3
f 266/4/3 264/4/3 265/4/3
f 267/4/3 265/4/3 261/4/3
f 268/4/3 265/4/3 267/4/3
f 269/4/3 265/4/3 268/4/3
f 270/4/3 264/4/3 266/4/3
f 271/4/3 252/4/3 264/4/3
f 271/4/3 264/4/3 270/4/3
f 272/3/3 268/3/3 267/3/3
f 273/3/3 268/3/3 272/3/3
f 276/5/3 275/5/3 274/5/3
f 277/5/3 275/5/3 276/5/3
f 280/5/3 279/5/3 278/5/3
f 281/5/3 279/5/3 280/5/3
f 284/5/3 283/5/3 282/5/3
f 285/5/3 283/5/3 284/5/3
f 288/6/3 287/6/3 286/6/3
f 289/6/3 287/6/3 288/6/3
f 290/6/4 291/6/4 292/6/4
f 292/6/4 291/6/4 293/6/4
f 294/5/4 295/5/4 296/5/4
f 296/5/4 295/5/4 297/5/4
f 298/5/4 299/5/4 300/5/4
f 300/5/4 299/5/4 301/5/4
f 302/5/4 303/5/4 304/5/4
f 304/5/4 303/5/4 305/5/4
f 306/2/4 307/2/4 308/2/4
f 308/2/4 307/2/4 309/2/4
f 309/4/4 310/4/4 311/4/4
f 311/4/4 310/4/4 312/4/4
f 312/4/4 310/4/4 313/4/4
f 313/4/4 310/4/4 314/4/4
f 312/4/4 313/4/4 315/4/4
f 313/1/4 314/1/4 315/1/4
f 314/4/4 310/4/4 316/4/4
f 315/1/4 314/1/4 316/1/4
f 312/4/4 315/4/4 317/4/4
f 315/4/4 316/4/4 317/4/4
f 316/4/4 310/4/4 318/4/4
f 317/4/4 316/4/4 318/4/4
f 312/4/4 317/4/4 320/4/4
f 317/1/4 318/1/4 321/1/4
f 319/4/4 320/4/4 321/4/4
f 320/4/4 317/4/4 321/4/4
f 318/4/4 310/4/4 322/4/4
f 321/1/4 318/1/4 322/1/4
f 319/4/4 321/4/4 323/4/4
f 321/4/4 322/4/4 323/4/4
f 323/4/4 322/4/4 324/4/4
f 319/4/4 323/4/4 325/4/4
f 325/4/4 323/4/4 326/4/4
f 326/4/4 323/4/4 327/4/4
f 324/4/4 322/4/4 328/4/4
f 322/4/4 310/4/4 329/4/4
f 328/4/4 322/4/4 329/4/4
f 325/3/4 326/3/4 330/3/4
f 330/3/4 326/3/4 331/3/4
f 334/2/4 335/2/4 337/2/4
f 335/3/4 336/3/4 337/3/4
f 337/3/4 336/3/4 338/3/4
f 334/2/4 337/2/4 340/2/4
f 337/2/4 338/2/4 340/2/4
f 340/2/4 338/2/4 341/2/4
f 339/5/4 340/5/4 342/5/4
f 340/5/4 341/5/4 342/5/4
f 342/5/4 341/5/4 343/5/4
f 339/5/4 342/5/4 344/5/4
f 342/4/4 343/4/4 344/4/4
f 343/5/4 341/5/4 345/5/4
f 344/4/4 343/4/4 345/4/4
f 339/5/4 344/5/4 346/5/4
f 344/5/4 345/5/4 346/5/4
f 346/5/4 345/5/4 347/5/4
f 341/2/4 338/2/4 348/2/4
f 347/5/4 345/5/4 348/5/4
f 345/5/4 341/5/4 348/5/4
f 347/2/4 348/2/4 350/2/4
f 348/2/4 338/2/4 351/2/4
f 350/2/4 348/2/4 351/2/4
f 349/5/4 350/5/4 352/5/4
f 350/5/4 351/5/4 352/5/4
f 352/5/4 351/5/4 353/5/4
f 349/5/4 352/5/4 354/5/4
f 352/4/4 353/4/4 354/4/4
f 353/5/4 351/5/4 355/5/4
f 354/4/4 353/4/4 355/4/4
f 349/5/4 354/5/4 356/5/4
f 354/5/4 355/5/4 356/5/4
f 356/5/4 355/5/4 357/5/4
f 351/2/4 338/2/4 358/2/4
f 357/5/4 355/5/4 358/5/4
f 355/5/4 351/5/4 358/5/4
f 332/6/4 333/6/4 359/6/4
f 359/6/4 333/6/4 360/6/4
f 357/2/4 358/2/4 361/2/4
f 358/2/4 338/2/4 362/2/4
f 361/2/4 358/2/4 362/2/4
f 363/2/4 364/2/4 365/2/4
f 363/2/4 365/2/4 368/2/4
f 365/2/4 366/2/4 368/2/4
f 368/2/4 366/2/4 369/2/4
f 367/5/4 368/5/4 370/5/4
f 368/5/4 369/5/4 370/5/4
f 370/5/4 369/5/4 371/5/4
f 367/5/4 370/5/4 372/5/4
f 370/4/4 371/4/4 372/4/4
f 371/5/4 369/5/4 373/5/4
f 372/4/4 371/4/4 373/4/4
f 367/5/4 372/5/4 374/5/4
f 372/5/4 373/5/4 374/5/4
f 374/5/4 373/5/4 375/5/4
f 369/2/4 366/2/4 376/2/4
f 375/5/4 373/5/4 376/5/4
f 373/5/4 369/5/4 376/5/4
f 375/2/4 376/2/4 377/2/4
f 376/2/4 366/2/4 378/2/4
f 377/2/4 376/2/4 378/2/4
f 375/2/4 377/2/4 379/2/4
f 379/2/4 377/2/4 380/2/4
f 381/6/4 382/6/4 383/6/4
f 383/6/4 382/6/4 384/6/4
f 381/6/4 383/6/4 385/6/4
f 384/6/4 382/6/4 386/6/4
f 381/6/4 385/6/4 387/6/4
f 385/6/4 386/6/4 387/6/4
f 386/6/4 382/6/4 388/6/4
f 387/6/4 386/6/4 388/6/4
f 389/4/4 390/4/4 391/4/4
f 391/4/4 390/4/4 392/4/4
f 399/5/5 394/5/5 393/5/5
f 400/5/5 394/5/5 399/5/5
f 401/5/5 396/5/5 395/5/5
f 402/5/5 396/5/5 401/5/5
f 403/5/5 398/5/5 397/5/5
f 404/5/5 398/5/5 403/5/5
f 411/5/5 406/5/5 405/5/5
f 412/5/5 406/5/5 411/5/5
f 413/5/5 408/5/5 407/5/5
f 414/5/5 408/5/5 413/5/5
f 415/5/5 410/5/5 409/5/5
f 416/5/5 410/5/5 415/5/5
f 427/2/5 422/2/5 421/2/5
f 428/2/5 424/2/5 423/2/5
f 429/2/5 418/2/5 417/2/5
f 430/2/5 420/2/5 419/2/5
f 431/2/5 420/2/5 430/2/5
f 432/2/5 428/2/5 427/2/5
f 432/2/5 427/2/5 421/2/5
f 433/2/5 424/2/5 428/2/5
f 433/2/5 428/2/5 432/2/5
f 434/2/5 426/2/5 425/2/5
f 435/2/5 431/2/5 430/2/5
f 435/2/5 434/2/5 433/2/5
f 435/2/5 429/2/5 417/2/5
f 435/2/5 433/2/5 432/2/5
f 435/2/5 430/2/5 429/2/5
f 435/2/5 432/2/5 431/2/5
f 436/2/5 434/2/5 435/2/5
f 437/4/5 436/4/5 435/4/5
f 438/2/5 434/2/5 436/2/5
f 438/4/5 436/4/5 437/4/5
f 439/2/5 438/2/5 437/2/5
f 439/2/5 434/2/5 438/2/5
f 440/2/5 434/2/5 439/2/5
f 441/2/5 434/2/5 440/2/5
f 442/2/5 434/2/5 441/2/5
f 443/2/5 434/2/5 442/2/5
f 444/2/5 426/2/5 434/2/5
f 444/2/5 434/2/5 443/2/5
f 445/2/5 443/2/5 442/2/5
f 446/2/5 443/2/5 445/2/5
f 447/2/5 439/2/5 437/2/5
f 448/2/5 439/2/5 447/2/5
f 449/2/5 441/2/5 440/2/5
f 450/2/5 441/2/5 449/2/5
f 451/2/5 445/2/5 442/2/5
f 452/2/5 445/2/5 451/2/5
f 453/2/5 443/2/5 446/2/5
f 454/2/5 443/2/5 453/2/5
f 455/2/5 426/2/5 444/2/5
f 456/2/5 426/2/5 455/2/5
f 459/6/5 458/6/5 457/6/5
f 460/6/5 458/6/5 459/6/5
f 461/6/5 458/6/5 460/6/5
f 462/6/5 459/6/5 457/6/5
f 463/6/5 462/6/5 457/6/5
f 464/6/5 463/6/5 457/6/5
f 467/6/5 464/6/5 457/6/5
f 467/6/5 466/6/5 465/6/5
f 467/6/5 465/6/5 464/6/5
f 468/6/5 466/6/5 467/6/5
f 471/4/5 470/4/5 469/4/5
f 472/4/5 470/4/5 471/4/5
f 475/4/5 474/4/5 473/4/5
f 476/4/5 474/4/5 475/4/5
f 480/6/5 478/6/5 477/6/5
f 481/6/5 478/6/5 480/6/5
f 482/6/5 480/6/5 479/6/5
f 483/6/5 480/6/5 482/6/5
f 485/6/5 484/6/5 483/6/5
f 486/6/5 484/6/5 485/6/5
f 487/2/6 488/2/6 492/2/6
f 492/2/6 488/2/6 493/2/6
f 489/2/6 490/2/6 494/2/6
f 494/2/6 490/2/6 495/2/6
f 495/2/6 490/2/6 496/2/6
f 491/2/6 492/2/6 497/2/6
f 497/2/6 492/2/6 498/2/6
f 498/2/6 499/2/6 503/2/6
f 503/2/6 499/2/6 504/2/6
f 501/2/6 502/2/6 505/2/6
f 500/2/6 501/2/6 505/2/6
f 505/2/6 502/2/6 506/2/6
f 507/2/6 508/2/6 509/2/6
f 509/2/6 508/2/6 510/2/6
f 511/2/6 512/2/6 513/2/6
f 513/2/6 512/2/6 514/2/6
f 515/6/6 516/6/6 518/6/6
f 518/6/6 516/6/6 519/6/6
f 520/3/6 521/3/6 522/3/6
f 522/3/6 521/3/6 523/3/6
f 522/2/6 523/2/6 524/2/6
f 524/2/6 523/2/6 525/2/6
f 524/3/6 525/3/6 526/3/6
f 526/3/6 525/3/6 527/3/6
f 517/6/6 518/6/6 528/6/6
f 528/6/6 518/6/6 529/6/6
f 529/6/6 530/6/6 531/6/6
f 531/6/6 530/6/6 532/6/6
f 533/4/6 534/4/6 535/4/6
f 535/4/6 534/4/6 536/4/6
f 537/4/6 538/4/6 539/4/6
f 539/4/6 538/4/6 540/4/6
f 541/4/6 542/4/6 543/4/6
f 543/4/6 542/4/6 544/4/6
f 545/6/6 546/6/6 547/6/6
f 547/6/6 546/6/6 548/6/6
