# MagicaVoxel @ Ephtracy

# group
o 

# material
mtllib scooter_a_a.mtl
usemtl palette

# normals
vn -1 0 0
vn 1 0 0
vn 0 0 1
vn 0 0 -1
vn 0 -1 0
vn 0 1 0

# texcoords
vt 0.876953 0.5
vt 0.908203 0.5
vt 0.916016 0.5
vt 0.947266 0.5
vt 0.970703 0.5

# verts
v -0.6 0.2 0.1
v -0.6 0.2 -0.1
v -0.6 0.6 0.1
v -0.6 0.6 -0.1
v -0.5 0 0.1
v -0.5 0 -0.1
v -0.5 0.2 0.2
v -0.5 0.2 0.1
v -0.5 0.2 -0.1
v -0.5 0.2 -0.2
v -0.5 0.5 0.2
v -0.5 0.5 0.1
v -0.5 0.5 -0.1
v -0.5 0.5 -0.2
v -0.2 0.5 0.2
v -0.2 0.5 0.1
v -0.2 0.5 -0.1
v -0.2 0.5 -0.2
v -0.2 0.6 0.1
v -0.2 0.6 -0.1
v -0.2 0.8 0.2
v -0.2 0.8 -0.2
v -0.1 0.6 0.3
v -0.1 0.6 0.2
v -0.1 0.6 -0.2
v -0.1 0.6 -0.3
v -0.1 0.8 0.3
v -0.1 0.8 0.2
v -0.1 0.8 0.1
v -0.1 0.8 -0.1
v -0.1 0.8 -0.2
v -0.1 0.8 -0.3
v -0.1 1 0.1
v -0.1 1 -0.1
v 0.2 0 0.1
v 0.2 0 -0.1
v 0.2 0.2 0.1
v 0.2 0.2 -0.1
v 0.2 0.3 0.2
v 0.2 0.3 -0.2
v 0.2 0.6 0.2
v 0.2 0.6 -0.2
v 0.2 0.7 0.2
v 0.2 0.7 0.1
v 0.2 0.7 -0.1
v 0.2 0.7 -0.2
v 0.2 0.8 0.3
v 0.2 0.8 0.2
v 0.2 0.8 -0.2
v 0.2 0.8 -0.3
v 0.2 0.9 0.3
v 0.2 0.9 0.2
v 0.2 0.9 0.1
v 0.2 0.9 -0.1
v 0.2 0.9 -0.2
v 0.2 0.9 -0.3
v -0.1 0 0.1
v -0.1 0 -0.1
v -0.1 0.2 0.1
v -0.1 0.2 -0.1
v -5.96046e-08 0.3 0.1
v -5.96046e-08 0.3 -0.1
v -5.96046e-08 0.5 0.1
v -5.96046e-08 0.5 -0.1
v -5.96046e-08 0.6 0.2
v -5.96046e-08 0.6 0.1
v -5.96046e-08 0.6 -0.1
v -5.96046e-08 0.6 -0.2
v -5.96046e-08 0.7 0.3
v -5.96046e-08 0.7 0.2
v -5.96046e-08 0.7 -0.2
v -5.96046e-08 0.7 -0.3
v -5.96046e-08 0.8 0.3
v -5.96046e-08 0.8 0.1
v -5.96046e-08 0.8 -0.1
v -5.96046e-08 0.8 -0.3
v 0.1 0.3 0.2
v 0.1 0.3 0.1
v 0.1 0.3 -0.1
v 0.1 0.3 -0.2
v 0.1 0.6 0.2
v 0.1 0.6 0.1
v 0.1 0.6 -0.1
v 0.1 0.6 -0.2
v 0.1 0.8 0.1
v 0.1 0.8 -0.1
v 0.1 1 0.1
v 0.1 1 -0.1
v 0.3 0.2 0.2
v 0.3 0.2 0.1
v 0.3 0.2 -0.1
v 0.3 0.2 -0.2
v 0.3 0.3 0.1
v 0.3 0.3 -0.1
v 0.3 0.4 0.2
v 0.3 0.4 0.1
v 0.3 0.4 -0.1
v 0.3 0.4 -0.2
v 0.3 0.5 0.2
v 0.3 0.5 0.1
v 0.3 0.5 -0.1
v 0.3 0.5 -0.2
v 0.3 0.6 0.3
v 0.3 0.6 0.2
v 0.3 0.6 -0.2
v 0.3 0.6 -0.3
v 0.3 0.7 0.3
v 0.3 0.7 0.2
v 0.3 0.7 0.1
v 0.3 0.7 -0.1
v 0.3 0.7 -0.2
v 0.3 0.7 -0.3
v 0.3 0.8 0.3
v 0.3 0.8 0.2
v 0.3 0.8 -0.2
v 0.3 0.8 -0.3
v 0.3 0.9 0.3
v 0.3 0.9 0.2
v 0.3 0.9 0.1
v 0.3 0.9 -0.1
v 0.3 0.9 -0.2
v 0.3 0.9 -0.3
v 0.4 0.5 0.1
v 0.4 0.5 -0.1
v 0.4 0.7 0.1
v 0.4 0.7 -0.1
v 0.6 0 0.1
v 0.6 0 -0.1
v 0.6 0.4 0.2
v 0.6 0.4 0.1
v 0.6 0.4 -0.1
v 0.6 0.4 -0.2
v 0.6 0.5 0.2
v 0.6 0.5 -0.2
v -0.1 0.6 0.3
v -0.1 0.8 0.3
v -5.96046e-08 0.7 0.3
v -5.96046e-08 0.8 0.3
v 0.2 0.6 0.3
v 0.2 0.7 0.3
v 0.2 0.8 0.3
v 0.2 0.9 0.3
v 0.3 0.6 0.3
v 0.3 0.7 0.3
v 0.3 0.8 0.3
v 0.3 0.9 0.3
v -0.5 0.2 0.2
v -0.5 0.5 0.2
v -0.2 0.5 0.2
v -0.2 0.8 0.2
v -0.1 0.6 0.2
v -0.1 0.8 0.2
v -5.96046e-08 0.3 0.2
v -5.96046e-08 0.5 0.2
v 0.1 0.3 0.2
v 0.1 0.6 0.2
v 0.2 0.3 0.2
v 0.2 0.6 0.2
v 0.2 0.7 0.2
v 0.2 0.8 0.2
v 0.3 0.2 0.2
v 0.3 0.4 0.2
v 0.3 0.5 0.2
v 0.3 0.6 0.2
v 0.3 0.7 0.2
v 0.3 0.8 0.2
v 0.6 0.4 0.2
v 0.6 0.5 0.2
v -0.6 0.2 0.1
v -0.6 0.6 0.1
v -0.5 0 0.1
v -0.5 0.2 0.1
v -0.5 0.5 0.1
v -0.4 0.1 0.1
v -0.4 0.2 0.1
v -0.2 0.1 0.1
v -0.2 0.2 0.1
v -0.2 0.5 0.1
v -0.2 0.6 0.1
v -0.1 0 0.1
v -0.1 0.2 0.1
v -0.1 0.8 0.1
v -0.1 1 0.1
v -5.96046e-08 0.8 0.1
v 0.1 0.8 0.1
v 0.1 1 0.1
v 0.2 0 0.1
v 0.2 0.2 0.1
v 0.3 0.1 0.1
v 0.3 0.2 0.1
v 0.3 0.3 0.1
v 0.3 0.4 0.1
v 0.3 0.5 0.1
v 0.3 0.7 0.1
v 0.4 0.5 0.1
v 0.4 0.7 0.1
v 0.5 0.1 0.1
v 0.5 0.3 0.1
v 0.6 0 0.1
v 0.6 0.4 0.1
v -5.96046e-08 0.3 -0.1
v -5.96046e-08 0.5 -0.1
v -5.96046e-08 0.6 -0.1
v 0.1 0.3 -0.1
v 0.1 0.6 -0.1
v 0.2 0.7 -0.1
v 0.2 0.9 -0.1
v 0.3 0.7 -0.1
v 0.3 0.9 -0.1
v -5.96046e-08 0.6 -0.2
v -5.96046e-08 0.7 -0.2
v 0.1 0.6 -0.2
v 0.2 0.6 -0.2
v 0.2 0.7 -0.2
v -5.96046e-08 0.6 0.2
v -5.96046e-08 0.7 0.2
v 0.1 0.6 0.2
v 0.2 0.6 0.2
v 0.2 0.7 0.2
v -5.96046e-08 0.3 0.1
v -5.96046e-08 0.5 0.1
v -5.96046e-08 0.6 0.1
v 0.1 0.3 0.1
v 0.1 0.6 0.1
v 0.2 0.7 0.1
v 0.2 0.9 0.1
v 0.3 0.7 0.1
v 0.3 0.9 0.1
v -0.6 0.2 -0.1
v -0.6 0.6 -0.1
v -0.5 0 -0.1
v -0.5 0.2 -0.1
v -0.5 0.5 -0.1
v -0.4 0.1 -0.1
v -0.4 0.2 -0.1
v -0.2 0.1 -0.1
v -0.2 0.2 -0.1
v -0.2 0.5 -0.1
v -0.2 0.6 -0.1
v -0.1 0 -0.1
v -0.1 0.2 -0.1
v -0.1 0.8 -0.1
v -0.1 1 -0.1
v -5.96046e-08 0.8 -0.1
v 0.1 0.8 -0.1
v 0.1 1 -0.1
v 0.2 0 -0.1
v 0.2 0.2 -0.1
v 0.3 0.1 -0.1
v 0.3 0.2 -0.1
v 0.3 0.3 -0.1
v 0.3 0.4 -0.1
v 0.3 0.5 -0.1
v 0.3 0.7 -0.1
v 0.4 0.5 -0.1
v 0.4 0.7 -0.1
v 0.5 0.1 -0.1
v 0.5 0.3 -0.1
v 0.6 0 -0.1
v 0.6 0.4 -0.1
v -0.5 0.2 -0.2
v -0.5 0.5 -0.2
v -0.2 0.5 -0.2
v -0.2 0.8 -0.2
v -0.1 0.6 -0.2
v -0.1 0.8 -0.2
v -5.96046e-08 0.3 -0.2
v -5.96046e-08 0.5 -0.2
v 0.1 0.3 -0.2
v 0.1 0.6 -0.2
v 0.2 0.3 -0.2
v 0.2 0.6 -0.2
v 0.2 0.7 -0.2
v 0.2 0.8 -0.2
v 0.3 0.2 -0.2
v 0.3 0.4 -0.2
v 0.3 0.5 -0.2
v 0.3 0.6 -0.2
v 0.3 0.7 -0.2
v 0.3 0.8 -0.2
v 0.6 0.4 -0.2
v 0.6 0.5 -0.2
v -0.1 0.6 -0.3
v -0.1 0.8 -0.3
v -5.96046e-08 0.7 -0.3
v -5.96046e-08 0.8 -0.3
v 0.2 0.6 -0.3
v 0.2 0.7 -0.3
v 0.2 0.8 -0.3
v 0.2 0.9 -0.3
v 0.3 0.6 -0.3
v 0.3 0.7 -0.3
v 0.3 0.8 -0.3
v 0.3 0.9 -0.3
v -0.5 0 0.1
v -0.1 0 0.1
v 0.2 0 0.1
v 0.6 0 0.1
v -0.5 0 -0.1
v -0.1 0 -0.1
v 0.2 0 -0.1
v 0.6 0 -0.1
v -0.5 0.2 0.2
v 0.3 0.2 0.2
v -0.6 0.2 0.1
v -0.5 0.2 0.1
v -0.4 0.2 0.1
v -0.2 0.2 0.1
v -0.1 0.2 0.1
v 0.2 0.2 0.1
v 0.3 0.2 0.1
v -0.6 0.2 -0.1
v -0.5 0.2 -0.1
v -0.4 0.2 -0.1
v -0.2 0.2 -0.1
v -0.1 0.2 -0.1
v 0.2 0.2 -0.1
v 0.3 0.2 -0.1
v -0.5 0.2 -0.2
v 0.3 0.2 -0.2
v 0.3 0.4 0.2
v 0.6 0.4 0.2
v 0.3 0.4 0.1
v 0.6 0.4 0.1
v 0.3 0.4 -0.1
v 0.6 0.4 -0.1
v 0.3 0.4 -0.2
v 0.6 0.4 -0.2
v -0.1 0.6 0.3
v 0.2 0.6 0.3
v 0.3 0.6 0.3
v -0.1 0.6 0.2
v 0.1 0.6 0.2
v 0.2 0.6 0.2
v 0.3 0.6 0.2
v -0.1 0.6 -0.2
v 0.1 0.6 -0.2
v 0.2 0.6 -0.2
v 0.3 0.6 -0.2
v -0.1 0.6 -0.3
v 0.2 0.6 -0.3
v 0.3 0.6 -0.3
v 0.2 0.8 0.3
v 0.3 0.8 0.3
v 0.2 0.8 0.2
v 0.3 0.8 0.2
v -5.96046e-08 0.8 0.1
v 0.1 0.8 0.1
v -5.96046e-08 0.8 -0.1
v 0.1 0.8 -0.1
v 0.2 0.8 -0.2
v 0.3 0.8 -0.2
v 0.2 0.8 -0.3
v 0.3 0.8 -0.3
v 0.1 0.3 0.2
v 0.2 0.3 0.2
v -5.96046e-08 0.3 0.1
v 0.1 0.3 0.1
v -5.96046e-08 0.3 -0.1
v 0.1 0.3 -0.1
v 0.1 0.3 -0.2
v 0.2 0.3 -0.2
v -0.5 0.5 0.2
v -0.2 0.5 0.2
v 0.3 0.5 0.2
v 0.6 0.5 0.2
v -0.5 0.5 0.1
v -0.2 0.5 0.1
v 0.3 0.5 0.1
v 0.4 0.5 0.1
v -0.5 0.5 -0.1
v -0.2 0.5 -0.1
v 0.3 0.5 -0.1
v 0.4 0.5 -0.1
v -0.5 0.5 -0.2
v -0.2 0.5 -0.2
v 0.3 0.5 -0.2
v 0.6 0.5 -0.2
v -5.96046e-08 0.6 0.2
v 0.1 0.6 0.2
v -0.6 0.6 0.1
v -0.2 0.6 0.1
v -5.96046e-08 0.6 0.1
v 0.1 0.6 0.1
v -0.6 0.6 -0.1
v -0.2 0.6 -0.1
v -5.96046e-08 0.6 -0.1
v 0.1 0.6 -0.1
v -5.96046e-08 0.6 -0.2
v 0.1 0.6 -0.2
v -5.96046e-08 0.7 0.3
v 0.2 0.7 0.3
v 0.3 0.7 0.3
v -5.96046e-08 0.7 0.2
v 0.2 0.7 0.2
v 0.3 0.7 0.2
v 0.2 0.7 0.1
v 0.3 0.7 0.1
v 0.4 0.7 0.1
v 0.2 0.7 -0.1
v 0.3 0.7 -0.1
v 0.4 0.7 -0.1
v -5.96046e-08 0.7 -0.2
v 0.2 0.7 -0.2
v 0.3 0.7 -0.2
v -5.96046e-08 0.7 -0.3
v 0.2 0.7 -0.3
v 0.3 0.7 -0.3
v -0.1 0.8 0.3
v -5.96046e-08 0.8 0.3
v -0.2 0.8 0.2
v -0.1 0.8 0.2
v -0.1 0.8 0.1
v -5.96046e-08 0.8 0.1
v -0.1 0.8 -0.1
v -5.96046e-08 0.8 -0.1
v -0.2 0.8 -0.2
v -0.1 0.8 -0.2
v -0.1 0.8 -0.3
v -5.96046e-08 0.8 -0.3
v 0.2 0.9 0.3
v 0.3 0.9 0.3
v 0.2 0.9 0.2
v 0.3 0.9 0.2
v 0.2 0.9 0.1
v 0.3 0.9 0.1
v 0.2 0.9 -0.1
v 0.3 0.9 -0.1
v 0.2 0.9 -0.2
v 0.3 0.9 -0.2
v 0.2 0.9 -0.3
v 0.3 0.9 -0.3
v -0.1 1 0.1
v 0.1 1 0.1
v -0.1 1 -0.1
v 0.1 1 -0.1

# faces
f 3/2/1 2/2/1 1/2/1
f 4/2/1 2/2/1 3/2/1
f 8/5/1 6/5/1 5/5/1
f 9/5/1 6/5/1 8/5/1
f 11/2/1 8/2/1 7/2/1
f 12/2/1 8/2/1 11/2/1
f 13/2/1 10/2/1 9/2/1
f 14/2/1 10/2/1 13/2/1
f 19/5/1 16/5/1 15/5/1
f 20/5/1 18/5/1 17/5/1
f 21/5/1 19/5/1 15/5/1
f 21/5/1 20/5/1 19/5/1
f 22/5/1 18/5/1 20/5/1
f 22/5/1 20/5/1 21/5/1
f 27/5/1 24/5/1 23/5/1
f 28/5/1 24/5/1 27/5/1
f 31/5/1 26/5/1 25/5/1
f 32/5/1 26/5/1 31/5/1
f 33/5/1 30/5/1 29/5/1
f 34/5/1 30/5/1 33/5/1
f 37/5/1 36/5/1 35/5/1
f 38/5/1 36/5/1 37/5/1
f 41/2/1 40/2/1 39/2/1
f 42/2/1 40/2/1 41/2/1
f 43/2/1 42/2/1 41/2/1
f 44/2/1 42/2/1 43/2/1
f 45/2/1 42/2/1 44/2/1
f 46/2/1 42/2/1 45/2/1
f 48/2/1 44/2/1 43/2/1
f 49/2/1 46/2/1 45/2/1
f 51/1/1 48/1/1 47/1/1
f 52/2/1 44/2/1 48/2/1
f 52/1/1 48/1/1 51/1/1
f 53/2/1 44/2/1 52/2/1
f 54/2/1 49/2/1 45/2/1
f 55/1/1 50/1/1 49/1/1
f 55/2/1 49/2/1 54/2/1
f 56/1/1 50/1/1 55/1/1
f 57/5/2 58/5/2 59/5/2
f 59/5/2 58/5/2 60/5/2
f 61/2/2 62/2/2 63/2/2
f 63/2/2 62/2/2 64/2/2
f 63/5/2 64/5/2 66/5/2
f 66/5/2 64/5/2 67/5/2
f 66/5/2 67/5/2 70/5/2
f 67/5/2 68/5/2 70/5/2
f 65/5/2 66/5/2 70/5/2
f 70/5/2 68/5/2 71/5/2
f 69/5/2 70/5/2 73/5/2
f 71/5/2 72/5/2 73/5/2
f 70/5/2 71/5/2 73/5/2
f 73/5/2 72/5/2 74/5/2
f 74/5/2 72/5/2 75/5/2
f 75/5/2 72/5/2 76/5/2
f 77/5/2 78/5/2 81/5/2
f 81/5/2 78/5/2 82/5/2
f 79/5/2 80/5/2 83/5/2
f 83/5/2 80/5/2 84/5/2
f 85/5/2 86/5/2 87/5/2
f 87/5/2 86/5/2 88/5/2
f 89/2/2 90/2/2 93/2/2
f 91/2/2 92/2/2 94/2/2
f 89/2/2 93/2/2 95/2/2
f 95/2/2 93/2/2 96/2/2
f 94/2/2 92/2/2 97/2/2
f 97/2/2 92/2/2 98/2/2
f 99/2/2 100/2/2 104/2/2
f 101/2/2 102/2/2 105/2/2
f 103/2/2 104/2/2 107/2/2
f 104/2/2 100/2/2 108/2/2
f 107/2/2 104/2/2 108/2/2
f 108/2/2 100/2/2 109/2/2
f 101/2/2 105/2/2 110/2/2
f 105/2/2 106/2/2 110/2/2
f 110/2/2 106/2/2 111/2/2
f 111/2/2 106/2/2 112/2/2
f 108/2/2 109/2/2 114/2/2
f 110/2/2 111/2/2 115/2/2
f 113/1/2 114/1/2 117/1/2
f 114/2/2 109/2/2 118/2/2
f 117/1/2 114/1/2 118/1/2
f 118/2/2 109/2/2 119/2/2
f 110/2/2 115/2/2 120/2/2
f 115/1/2 116/1/2 121/1/2
f 120/2/2 115/2/2 121/2/2
f 121/1/2 116/1/2 122/1/2
f 123/3/2 124/3/2 125/3/2
f 125/3/2 124/3/2 126/3/2
f 127/5/2 128/5/2 130/5/2
f 130/5/2 128/5/2 131/5/2
f 129/2/2 130/2/2 133/2/2
f 131/2/2 132/2/2 133/2/2
f 130/2/2 131/2/2 133/2/2
f 133/2/2 132/2/2 134/2/2
f 137/5/3 136/5/3 135/5/3
f 138/5/3 136/5/3 137/5/3
f 139/5/3 137/5/3 135/5/3
f 140/5/3 137/5/3 139/5/3
f 143/2/3 140/2/3 139/2/3
f 144/2/3 140/2/3 143/2/3
f 145/1/3 142/1/3 141/1/3
f 146/1/3 142/1/3 145/1/3
f 149/2/3 148/2/3 147/2/3
f 151/5/3 150/5/3 149/5/3
f 152/5/3 150/5/3 151/5/3
f 153/2/3 149/2/3 147/2/3
f 154/5/3 151/5/3 149/5/3
f 154/2/3 149/2/3 153/2/3
f 155/2/3 153/2/3 147/2/3
f 155/5/3 154/5/3 153/5/3
f 156/5/3 151/5/3 154/5/3
f 156/5/3 154/5/3 155/5/3
f 157/2/3 155/2/3 147/2/3
f 161/2/3 158/2/3 157/2/3
f 161/2/3 157/2/3 147/2/3
f 162/2/3 158/2/3 161/2/3
f 163/2/3 158/2/3 162/2/3
f 164/2/3 158/2/3 163/2/3
f 165/2/3 160/2/3 159/2/3
f 166/2/3 160/2/3 165/2/3
f 167/2/3 163/2/3 162/2/3
f 168/2/3 163/2/3 167/2/3
f 172/2/3 170/2/3 169/2/3
f 173/2/3 170/2/3 172/2/3
f 174/5/3 172/5/3 171/5/3
f 175/5/3 172/5/3 174/5/3
f 176/5/3 174/5/3 171/5/3
f 176/4/3 175/4/3 174/4/3
f 177/4/3 175/4/3 176/4/3
f 178/2/3 170/2/3 173/2/3
f 179/2/3 170/2/3 178/2/3
f 180/5/3 177/5/3 176/5/3
f 180/5/3 176/5/3 171/5/3
f 181/5/3 177/5/3 180/5/3
f 184/5/3 183/5/3 182/5/3
f 185/5/3 183/5/3 184/5/3
f 186/5/3 183/5/3 185/5/3
f 189/5/3 188/5/3 187/5/3
f 190/5/3 188/5/3 189/5/3
f 195/3/3 194/3/3 193/3/3
f 196/3/3 194/3/3 195/3/3
f 197/5/3 189/5/3 187/5/3
f 197/4/3 190/4/3 189/4/3
f 197/4/3 191/4/3 190/4/3
f 198/5/3 192/5/3 191/5/3
f 198/4/3 191/4/3 197/4/3
f 199/5/3 197/5/3 187/5/3
f 199/5/3 198/5/3 197/5/3
f 200/5/3 192/5/3 198/5/3
f 200/5/3 198/5/3 199/5/3
f 204/5/3 202/5/3 201/5/3
f 204/5/3 203/5/3 202/5/3
f 205/5/3 203/5/3 204/5/3
f 208/2/3 207/2/3 206/2/3
f 209/2/3 207/2/3 208/2/3
f 212/5/3 211/5/3 210/5/3
f 213/5/3 211/5/3 212/5/3
f 214/5/3 211/5/3 213/5/3
f 215/5/4 216/5/4 217/5/4
f 217/5/4 216/5/4 218/5/4
f 218/5/4 216/5/4 219/5/4
f 220/5/4 221/5/4 223/5/4
f 221/5/4 222/5/4 223/5/4
f 223/5/4 222/5/4 224/5/4
f 225/2/4 226/2/4 227/2/4
f 227/2/4 226/2/4 228/2/4
f 229/2/4 230/2/4 232/2/4
f 232/2/4 230/2/4 233/2/4
f 231/5/4 232/5/4 234/5/4
f 234/5/4 232/5/4 235/5/4
f 231/5/4 234/5/4 236/5/4
f 234/4/4 235/4/4 236/4/4
f 236/4/4 235/4/4 237/4/4
f 233/2/4 230/2/4 238/2/4
f 238/2/4 230/2/4 239/2/4
f 236/5/4 237/5/4 240/5/4
f 231/5/4 236/5/4 240/5/4
f 240/5/4 237/5/4 241/5/4
f 242/5/4 243/5/4 244/5/4
f 244/5/4 243/5/4 245/5/4
f 245/5/4 243/5/4 246/5/4
f 247/5/4 248/5/4 249/5/4
f 249/5/4 248/5/4 250/5/4
f 253/3/4 254/3/4 255/3/4
f 255/3/4 254/3/4 256/3/4
f 247/5/4 249/5/4 257/5/4
f 249/4/4 250/4/4 257/4/4
f 250/4/4 251/4/4 257/4/4
f 251/5/4 252/5/4 258/5/4
f 257/4/4 251/4/4 258/4/4
f 247/5/4 257/5/4 259/5/4
f 257/5/4 258/5/4 259/5/4
f 258/5/4 252/5/4 260/5/4
f 259/5/4 258/5/4 260/5/4
f 261/2/4 262/2/4 263/2/4
f 263/5/4 264/5/4 265/5/4
f 265/5/4 264/5/4 266/5/4
f 261/2/4 263/2/4 267/2/4
f 263/5/4 265/5/4 268/5/4
f 267/2/4 263/2/4 268/2/4
f 261/2/4 267/2/4 269/2/4
f 267/5/4 268/5/4 269/5/4
f 268/5/4 265/5/4 270/5/4
f 269/5/4 268/5/4 270/5/4
f 261/2/4 269/2/4 271/2/4
f 271/2/4 272/2/4 275/2/4
f 261/2/4 271/2/4 275/2/4
f 275/2/4 272/2/4 276/2/4
f 276/2/4 272/2/4 277/2/4
f 277/2/4 272/2/4 278/2/4
f 273/2/4 274/2/4 279/2/4
f 279/2/4 274/2/4 280/2/4
f 276/2/4 277/2/4 281/2/4
f 281/2/4 277/2/4 282/2/4
f 283/5/4 284/5/4 285/5/4
f 285/5/4 284/5/4 286/5/4
f 283/5/4 285/5/4 287/5/4
f 287/5/4 285/5/4 288/5/4
f 287/2/4 288/2/4 291/2/4
f 291/2/4 288/2/4 292/2/4
f 289/1/4 290/1/4 293/1/4
f 293/1/4 290/1/4 294/1/4
f 299/5/5 296/5/5 295/5/5
f 300/5/5 296/5/5 299/5/5
f 301/5/5 298/5/5 297/5/5
f 302/5/5 298/5/5 301/5/5
f 306/2/5 304/2/5 303/2/5
f 307/2/5 304/2/5 306/2/5
f 308/2/5 304/2/5 307/2/5
f 309/2/5 304/2/5 308/2/5
f 310/2/5 304/2/5 309/2/5
f 311/2/5 304/2/5 310/2/5
f 312/2/5 306/2/5 305/2/5
f 313/2/5 306/2/5 312/2/5
f 316/2/5 310/2/5 309/2/5
f 317/2/5 310/2/5 316/2/5
f 319/2/5 315/2/5 314/2/5
f 319/2/5 318/2/5 317/2/5
f 319/2/5 317/2/5 316/2/5
f 319/2/5 316/2/5 315/2/5
f 319/2/5 314/2/5 313/2/5
f 320/2/5 318/2/5 319/2/5
f 323/2/5 322/2/5 321/2/5
f 324/2/5 322/2/5 323/2/5
f 327/2/5 326/2/5 325/2/5
f 328/2/5 326/2/5 327/2/5
f 332/5/5 330/5/5 329/5/5
f 333/5/5 330/5/5 332/5/5
f 334/2/5 331/2/5 330/2/5
f 334/5/5 330/5/5 333/5/5
f 335/2/5 331/2/5 334/2/5
f 340/5/5 337/5/5 336/5/5
f 340/5/5 338/5/5 337/5/5
f 341/2/5 339/2/5 338/2/5
f 341/5/5 338/5/5 340/5/5
f 342/2/5 339/2/5 341/2/5
f 345/1/5 344/1/5 343/1/5
f 346/1/5 344/1/5 345/1/5
f 349/5/5 348/5/5 347/5/5
f 350/5/5 348/5/5 349/5/5
f 353/1/5 352/1/5 351/1/5
f 354/1/5 352/1/5 353/1/5
f 355/2/6 356/2/6 358/2/6
f 357/2/6 358/2/6 359/2/6
f 358/2/6 356/2/6 360/2/6
f 359/2/6 358/2/6 360/2/6
f 360/2/6 356/2/6 361/2/6
f 361/2/6 356/2/6 362/2/6
f 363/2/6 364/2/6 367/2/6
f 367/2/6 364/2/6 368/2/6
f 365/2/6 366/2/6 369/2/6
f 369/2/6 366/2/6 370/2/6
f 370/2/6 366/2/6 374/2/6
f 371/2/6 372/2/6 375/2/6
f 375/2/6 372/2/6 376/2/6
f 373/2/6 374/2/6 377/2/6
f 374/2/6 366/2/6 378/2/6
f 377/2/6 374/2/6 378/2/6
f 379/5/6 380/5/6 383/5/6
f 383/5/6 380/5/6 384/5/6
f 381/2/6 382/2/6 385/2/6
f 385/2/6 382/2/6 386/2/6
f 387/5/6 388/5/6 389/5/6
f 389/5/6 388/5/6 390/5/6
f 391/5/6 392/5/6 394/5/6
f 392/2/6 393/2/6 395/2/6
f 394/5/6 392/5/6 395/5/6
f 395/2/6 393/2/6 396/2/6
f 397/2/6 398/2/6 400/2/6
f 398/3/6 399/3/6 401/3/6
f 400/2/6 398/2/6 401/2/6
f 401/3/6 399/3/6 402/3/6
f 403/5/6 404/5/6 406/5/6
f 404/2/6 405/2/6 407/2/6
f 406/5/6 404/5/6 407/5/6
f 407/2/6 405/2/6 408/2/6
f 409/5/6 410/5/6 412/5/6
f 412/5/6 410/5/6 413/5/6
f 411/5/6 412/5/6 413/5/6
f 413/5/6 410/5/6 414/5/6
f 411/5/6 413/5/6 415/5/6
f 411/5/6 415/5/6 417/5/6
f 415/5/6 416/5/6 417/5/6
f 417/5/6 416/5/6 418/5/6
f 418/5/6 416/5/6 419/5/6
f 419/5/6 416/5/6 420/5/6
f 421/1/6 422/1/6 423/1/6
f 423/1/6 422/1/6 424/1/6
f 423/2/6 424/2/6 425/2/6
f 425/2/6 424/2/6 426/2/6
f 427/2/6 428/2/6 429/2/6
f 429/2/6 428/2/6 430/2/6
f 429/1/6 430/1/6 431/1/6
f 431/1/6 430/1/6 432/1/6
f 433/5/6 434/5/6 435/5/6
f 435/5/6 434/5/6 436/5/6
