# MagicaVoxel @ Ephtracy

# group
o 

# material
mtllib scooter_b_d.mtl
usemtl palette

# normals
vn -1 0 0
vn 1 0 0
vn 0 0 1
vn 0 0 -1
vn 0 -1 0
vn 0 1 0

# texcoords
vt 0.876953 0.5
vt 0.916016 0.5
vt 0.947266 0.5
vt 0.970703 0.5
vt 0.982422 0.5

# verts
v -0.6 0.2 0.1
v -0.6 0.2 -0.1
v -0.6 0.6 0.2
v -0.6 0.6 0.1
v -0.6 0.6 -0.1
v -0.6 0.6 -0.2
v -0.6 1 0.2
v -0.6 1 -0.2
v -0.5 0 0.1
v -0.5 0 -0.1
v -0.5 0.2 0.2
v -0.5 0.2 0.1
v -0.5 0.2 -0.1
v -0.5 0.2 -0.2
v -0.5 0.5 0.2
v -0.5 0.5 0.1
v -0.5 0.5 -0.1
v -0.5 0.5 -0.2
v -0.2 0.5 0.2
v -0.2 0.5 0.1
v -0.2 0.5 -0.1
v -0.2 0.5 -0.2
v -0.2 0.6 0.2
v -0.2 0.6 0.1
v -0.2 0.6 -0.1
v -0.2 0.6 -0.2
v -0.1 0.6 0.3
v -0.1 0.6 0.2
v -0.1 0.6 -0.2
v -0.1 0.6 -0.3
v -0.1 0.8 0.3
v -0.1 0.8 0.2
v -0.1 0.8 0.1
v -0.1 0.8 -0.1
v -0.1 0.8 -0.2
v -0.1 0.8 -0.3
v -0.1 1 0.1
v -0.1 1 -0.1
v 0.2 0 0.1
v 0.2 0 -0.1
v 0.2 0.2 0.1
v 0.2 0.2 -0.1
v 0.2 0.3 0.2
v 0.2 0.3 -0.2
v 0.2 0.6 0.2
v 0.2 0.6 -0.2
v 0.2 0.7 0.2
v 0.2 0.7 0.1
v 0.2 0.7 -0.1
v 0.2 0.7 -0.2
v 0.2 0.8 0.3
v 0.2 0.8 0.2
v 0.2 0.8 -0.2
v 0.2 0.8 -0.3
v 0.2 0.9 0.3
v 0.2 0.9 0.2
v 0.2 0.9 0.1
v 0.2 0.9 -0.1
v 0.2 0.9 -0.2
v 0.2 0.9 -0.3
v -0.2 0.8 0.2
v -0.2 0.8 -0.2
v -0.2 1 0.2
v -0.2 1 -0.2
v -0.1 0 0.1
v -0.1 0 -0.1
v -0.1 0.2 0.1
v -0.1 0.2 -0.1
v -5.96046e-08 0.3 0.1
v -5.96046e-08 0.3 -0.1
v -5.96046e-08 0.5 0.1
v -5.96046e-08 0.5 -0.1
v -5.96046e-08 0.6 0.2
v -5.96046e-08 0.6 0.1
v -5.96046e-08 0.6 -0.1
v -5.96046e-08 0.6 -0.2
v -5.96046e-08 0.7 0.3
v -5.96046e-08 0.7 0.2
v -5.96046e-08 0.7 -0.2
v -5.96046e-08 0.7 -0.3
v -5.96046e-08 0.8 0.3
v -5.96046e-08 0.8 0.1
v -5.96046e-08 0.8 -0.1
v -5.96046e-08 0.8 -0.3
v 0.1 0.3 0.2
v 0.1 0.3 0.1
v 0.1 0.3 -0.1
v 0.1 0.3 -0.2
v 0.1 0.6 0.2
v 0.1 0.6 0.1
v 0.1 0.6 -0.1
v 0.1 0.6 -0.2
v 0.1 0.8 0.1
v 0.1 0.8 -0.1
v 0.1 1 0.1
v 0.1 1 -0.1
v 0.3 0.2 0.2
v 0.3 0.2 0.1
v 0.3 0.2 -0.1
v 0.3 0.2 -0.2
v 0.3 0.3 0.1
v 0.3 0.3 -0.1
v 0.3 0.4 0.2
v 0.3 0.4 0.1
v 0.3 0.4 -0.1
v 0.3 0.4 -0.2
v 0.3 0.5 0.2
v 0.3 0.5 0.1
v 0.3 0.5 -0.1
v 0.3 0.5 -0.2
v 0.3 0.6 0.3
v 0.3 0.6 0.2
v 0.3 0.6 -0.2
v 0.3 0.6 -0.3
v 0.3 0.7 0.3
v 0.3 0.7 0.2
v 0.3 0.7 0.1
v 0.3 0.7 -0.1
v 0.3 0.7 -0.2
v 0.3 0.7 -0.3
v 0.3 0.8 0.3
v 0.3 0.8 0.2
v 0.3 0.8 -0.2
v 0.3 0.8 -0.3
v 0.3 0.9 0.3
v 0.3 0.9 0.2
v 0.3 0.9 0.1
v 0.3 0.9 -0.1
v 0.3 0.9 -0.2
v 0.3 0.9 -0.3
v 0.4 0.5 0.1
v 0.4 0.5 -0.1
v 0.4 0.7 0.1
v 0.4 0.7 -0.1
v 0.6 0 0.1
v 0.6 0 -0.1
v 0.6 0.4 0.2
v 0.6 0.4 0.1
v 0.6 0.4 -0.1
v 0.6 0.4 -0.2
v 0.6 0.5 0.2
v 0.6 0.5 -0.2
v -0.1 0.6 0.3
v -0.1 0.8 0.3
v -5.96046e-08 0.7 0.3
v -5.96046e-08 0.8 0.3
v 0.2 0.6 0.3
v 0.2 0.7 0.3
v 0.2 0.8 0.3
v 0.2 0.9 0.3
v 0.3 0.6 0.3
v 0.3 0.7 0.3
v 0.3 0.8 0.3
v 0.3 0.9 0.3
v -0.6 0.6 0.2
v -0.6 1 0.2
v -0.5 0.2 0.2
v -0.5 0.5 0.2
v -0.2 0.5 0.2
v -0.2 0.6 0.2
v -0.2 0.8 0.2
v -0.2 1 0.2
v -0.1 0.6 0.2
v -0.1 0.8 0.2
v -5.96046e-08 0.3 0.2
v -5.96046e-08 0.5 0.2
v 0.1 0.3 0.2
v 0.1 0.6 0.2
v 0.2 0.3 0.2
v 0.2 0.6 0.2
v 0.2 0.7 0.2
v 0.2 0.8 0.2
v 0.3 0.2 0.2
v 0.3 0.4 0.2
v 0.3 0.5 0.2
v 0.3 0.6 0.2
v 0.3 0.7 0.2
v 0.3 0.8 0.2
v 0.6 0.4 0.2
v 0.6 0.5 0.2
v -0.6 0.2 0.1
v -0.6 0.6 0.1
v -0.5 0 0.1
v -0.5 0.2 0.1
v -0.5 0.5 0.1
v -0.4 0.1 0.1
v -0.4 0.2 0.1
v -0.2 0.1 0.1
v -0.2 0.2 0.1
v -0.2 0.5 0.1
v -0.2 0.6 0.1
v -0.1 0 0.1
v -0.1 0.2 0.1
v -0.1 0.8 0.1
v -0.1 1 0.1
v -5.96046e-08 0.8 0.1
v 0.1 0.8 0.1
v 0.1 1 0.1
v 0.2 0 0.1
v 0.2 0.2 0.1
v 0.3 0.1 0.1
v 0.3 0.2 0.1
v 0.3 0.3 0.1
v 0.3 0.4 0.1
v 0.3 0.5 0.1
v 0.3 0.7 0.1
v 0.4 0.5 0.1
v 0.4 0.7 0.1
v 0.5 0.1 0.1
v 0.5 0.3 0.1
v 0.6 0 0.1
v 0.6 0.4 0.1
v -5.96046e-08 0.3 -0.1
v -5.96046e-08 0.5 -0.1
v -5.96046e-08 0.6 -0.1
v 0.1 0.3 -0.1
v 0.1 0.6 -0.1
v 0.2 0.7 -0.1
v 0.2 0.9 -0.1
v 0.3 0.7 -0.1
v 0.3 0.9 -0.1
v -5.96046e-08 0.6 -0.2
v -5.96046e-08 0.7 -0.2
v 0.1 0.6 -0.2
v 0.2 0.6 -0.2
v 0.2 0.7 -0.2
v -5.96046e-08 0.6 0.2
v -5.96046e-08 0.7 0.2
v 0.1 0.6 0.2
v 0.2 0.6 0.2
v 0.2 0.7 0.2
v -5.96046e-08 0.3 0.1
v -5.96046e-08 0.5 0.1
v -5.96046e-08 0.6 0.1
v 0.1 0.3 0.1
v 0.1 0.6 0.1
v 0.2 0.7 0.1
v 0.2 0.9 0.1
v 0.3 0.7 0.1
v 0.3 0.9 0.1
v -0.6 0.2 -0.1
v -0.6 0.6 -0.1
v -0.5 0 -0.1
v -0.5 0.2 -0.1
v -0.5 0.5 -0.1
v -0.4 0.1 -0.1
v -0.4 0.2 -0.1
v -0.2 0.1 -0.1
v -0.2 0.2 -0.1
v -0.2 0.5 -0.1
v -0.2 0.6 -0.1
v -0.1 0 -0.1
v -0.1 0.2 -0.1
v -0.1 0.8 -0.1
v -0.1 1 -0.1
v -5.96046e-08 0.8 -0.1
v 0.1 0.8 -0.1
v 0.1 1 -0.1
v 0.2 0 -0.1
v 0.2 0.2 -0.1
v 0.3 0.1 -0.1
v 0.3 0.2 -0.1
v 0.3 0.3 -0.1
v 0.3 0.4 -0.1
v 0.3 0.5 -0.1
v 0.3 0.7 -0.1
v 0.4 0.5 -0.1
v 0.4 0.7 -0.1
v 0.5 0.1 -0.1
v 0.5 0.3 -0.1
v 0.6 0 -0.1
v 0.6 0.4 -0.1
v -0.6 0.6 -0.2
v -0.6 1 -0.2
v -0.5 0.2 -0.2
v -0.5 0.5 -0.2
v -0.2 0.5 -0.2
v -0.2 0.6 -0.2
v -0.2 0.8 -0.2
v -0.2 1 -0.2
v -0.1 0.6 -0.2
v -0.1 0.8 -0.2
v -5.96046e-08 0.3 -0.2
v -5.96046e-08 0.5 -0.2
v 0.1 0.3 -0.2
v 0.1 0.6 -0.2
v 0.2 0.3 -0.2
v 0.2 0.6 -0.2
v 0.2 0.7 -0.2
v 0.2 0.8 -0.2
v 0.3 0.2 -0.2
v 0.3 0.4 -0.2
v 0.3 0.5 -0.2
v 0.3 0.6 -0.2
v 0.3 0.7 -0.2
v 0.3 0.8 -0.2
v 0.6 0.4 -0.2
v 0.6 0.5 -0.2
v -0.1 0.6 -0.3
v -0.1 0.8 -0.3
v -5.96046e-08 0.7 -0.3
v -5.96046e-08 0.8 -0.3
v 0.2 0.6 -0.3
v 0.2 0.7 -0.3
v 0.2 0.8 -0.3
v 0.2 0.9 -0.3
v 0.3 0.6 -0.3
v 0.3 0.7 -0.3
v 0.3 0.8 -0.3
v 0.3 0.9 -0.3
v -0.5 0 0.1
v -0.1 0 0.1
v 0.2 0 0.1
v 0.6 0 0.1
v -0.5 0 -0.1
v -0.1 0 -0.1
v 0.2 0 -0.1
v 0.6 0 -0.1
v -0.5 0.2 0.2
v 0.3 0.2 0.2
v -0.6 0.2 0.1
v -0.5 0.2 0.1
v -0.4 0.2 0.1
v -0.2 0.2 0.1
v -0.1 0.2 0.1
v 0.2 0.2 0.1
v 0.3 0.2 0.1
v -0.6 0.2 -0.1
v -0.5 0.2 -0.1
v -0.4 0.2 -0.1
v -0.2 0.2 -0.1
v -0.1 0.2 -0.1
v 0.2 0.2 -0.1
v 0.3 0.2 -0.1
v -0.5 0.2 -0.2
v 0.3 0.2 -0.2
v 0.3 0.4 0.2
v 0.6 0.4 0.2
v 0.3 0.4 0.1
v 0.6 0.4 0.1
v 0.3 0.4 -0.1
v 0.6 0.4 -0.1
v 0.3 0.4 -0.2
v 0.6 0.4 -0.2
v -0.1 0.6 0.3
v 0.2 0.6 0.3
v 0.3 0.6 0.3
v -0.6 0.6 0.2
v -0.2 0.6 0.2
v -0.1 0.6 0.2
v 0.1 0.6 0.2
v 0.2 0.6 0.2
v 0.3 0.6 0.2
v -0.6 0.6 0.1
v -0.2 0.6 0.1
v -0.6 0.6 -0.1
v -0.2 0.6 -0.1
v -0.6 0.6 -0.2
v -0.2 0.6 -0.2
v -0.1 0.6 -0.2
v 0.1 0.6 -0.2
v 0.2 0.6 -0.2
v 0.3 0.6 -0.2
v -0.1 0.6 -0.3
v 0.2 0.6 -0.3
v 0.3 0.6 -0.3
v 0.2 0.8 0.3
v 0.3 0.8 0.3
v 0.2 0.8 0.2
v 0.3 0.8 0.2
v -5.96046e-08 0.8 0.1
v 0.1 0.8 0.1
v -5.96046e-08 0.8 -0.1
v 0.1 0.8 -0.1
v 0.2 0.8 -0.2
v 0.3 0.8 -0.2
v 0.2 0.8 -0.3
v 0.3 0.8 -0.3
v 0.1 0.3 0.2
v 0.2 0.3 0.2
v -5.96046e-08 0.3 0.1
v 0.1 0.3 0.1
v -5.96046e-08 0.3 -0.1
v 0.1 0.3 -0.1
v 0.1 0.3 -0.2
v 0.2 0.3 -0.2
v -0.5 0.5 0.2
v -0.2 0.5 0.2
v 0.3 0.5 0.2
v 0.6 0.5 0.2
v -0.5 0.5 0.1
v -0.2 0.5 0.1
v 0.3 0.5 0.1
v 0.4 0.5 0.1
v -0.5 0.5 -0.1
v -0.2 0.5 -0.1
v 0.3 0.5 -0.1
v 0.4 0.5 -0.1
v -0.5 0.5 -0.2
v -0.2 0.5 -0.2
v 0.3 0.5 -0.2
v 0.6 0.5 -0.2
v -5.96046e-08 0.6 0.2
v 0.1 0.6 0.2
v -5.96046e-08 0.6 0.1
v 0.1 0.6 0.1
v -5.96046e-08 0.6 -0.1
v 0.1 0.6 -0.1
v -5.96046e-08 0.6 -0.2
v 0.1 0.6 -0.2
v -5.96046e-08 0.7 0.3
v 0.2 0.7 0.3
v 0.3 0.7 0.3
v -5.96046e-08 0.7 0.2
v 0.2 0.7 0.2
v 0.3 0.7 0.2
v 0.2 0.7 0.1
v 0.3 0.7 0.1
v 0.4 0.7 0.1
v 0.2 0.7 -0.1
v 0.3 0.7 -0.1
v 0.4 0.7 -0.1
v -5.96046e-08 0.7 -0.2
v 0.2 0.7 -0.2
v 0.3 0.7 -0.2
v -5.96046e-08 0.7 -0.3
v 0.2 0.7 -0.3
v 0.3 0.7 -0.3
v -0.1 0.8 0.3
v -5.96046e-08 0.8 0.3
v -0.2 0.8 0.2
v -0.1 0.8 0.2
v -0.1 0.8 0.1
v -5.96046e-08 0.8 0.1
v -0.1 0.8 -0.1
v -5.96046e-08 0.8 -0.1
v -0.2 0.8 -0.2
v -0.1 0.8 -0.2
v -0.1 0.8 -0.3
v -5.96046e-08 0.8 -0.3
v 0.2 0.9 0.3
v 0.3 0.9 0.3
v 0.2 0.9 0.2
v 0.3 0.9 0.2
v 0.2 0.9 0.1
v 0.3 0.9 0.1
v 0.2 0.9 -0.1
v 0.3 0.9 -0.1
v 0.2 0.9 -0.2
v 0.3 0.9 -0.2
v 0.2 0.9 -0.3
v 0.3 0.9 -0.3
v -0.6 1 0.2
v -0.2 1 0.2
v -0.1 1 0.1
v 0.1 1 0.1
v -0.1 1 -0.1
v 0.1 1 -0.1
v -0.6 1 -0.2
v -0.2 1 -0.2

# faces
f 4/3/1 2/3/1 1/3/1
f 5/3/1 2/3/1 4/3/1
f 7/5/1 4/5/1 3/5/1
f 7/5/1 6/5/1 5/5/1
f 7/5/1 5/5/1 4/5/1
f 8/5/1 6/5/1 7/5/1
f 12/4/1 10/4/1 9/4/1
f 13/4/1 10/4/1 12/4/1
f 15/3/1 12/3/1 11/3/1
f 16/3/1 12/3/1 15/3/1
f 17/3/1 14/3/1 13/3/1
f 18/3/1 14/3/1 17/3/1
f 23/4/1 20/4/1 19/4/1
f 24/4/1 20/4/1 23/4/1
f 25/4/1 22/4/1 21/4/1
f 26/4/1 22/4/1 25/4/1
f 31/4/1 28/4/1 27/4/1
f 32/4/1 28/4/1 31/4/1
f 35/4/1 30/4/1 29/4/1
f 36/4/1 30/4/1 35/4/1
f 37/4/1 34/4/1 33/4/1
f 38/4/1 34/4/1 37/4/1
f 41/4/1 40/4/1 39/4/1
f 42/4/1 40/4/1 41/4/1
f 45/3/1 44/3/1 43/3/1
f 46/3/1 44/3/1 45/3/1
f 47/3/1 46/3/1 45/3/1
f 48/3/1 46/3/1 47/3/1
f 49/3/1 46/3/1 48/3/1
f 50/3/1 46/3/1 49/3/1
f 52/3/1 48/3/1 47/3/1
f 53/3/1 50/3/1 49/3/1
f 55/1/1 52/1/1 51/1/1
f 56/3/1 48/3/1 52/3/1
f 56/1/1 52/1/1 55/1/1
f 57/3/1 48/3/1 56/3/1
f 58/3/1 53/3/1 49/3/1
f 59/1/1 54/1/1 53/1/1
f 59/3/1 53/3/1 58/3/1
f 60/1/1 54/1/1 59/1/1
f 61/5/2 62/5/2 63/5/2
f 63/5/2 62/5/2 64/5/2
f 65/4/2 66/4/2 67/4/2
f 67/4/2 66/4/2 68/4/2
f 69/3/2 70/3/2 71/3/2
f 71/3/2 70/3/2 72/3/2
f 71/4/2 72/4/2 74/4/2
f 74/4/2 72/4/2 75/4/2
f 74/4/2 75/4/2 78/4/2
f 75/4/2 76/4/2 78/4/2
f 73/4/2 74/4/2 78/4/2
f 78/4/2 76/4/2 79/4/2
f 77/4/2 78/4/2 81/4/2
f 79/4/2 80/4/2 81/4/2
f 78/4/2 79/4/2 81/4/2
f 81/4/2 80/4/2 82/4/2
f 82/4/2 80/4/2 83/4/2
f 83/4/2 80/4/2 84/4/2
f 85/4/2 86/4/2 89/4/2
f 89/4/2 86/4/2 90/4/2
f 87/4/2 88/4/2 91/4/2
f 91/4/2 88/4/2 92/4/2
f 93/4/2 94/4/2 95/4/2
f 95/4/2 94/4/2 96/4/2
f 97/3/2 98/3/2 101/3/2
f 99/3/2 100/3/2 102/3/2
f 97/3/2 101/3/2 103/3/2
f 103/3/2 101/3/2 104/3/2
f 102/3/2 100/3/2 105/3/2
f 105/3/2 100/3/2 106/3/2
f 107/3/2 108/3/2 112/3/2
f 109/3/2 110/3/2 113/3/2
f 111/3/2 112/3/2 115/3/2
f 112/3/2 108/3/2 116/3/2
f 115/3/2 112/3/2 116/3/2
f 116/3/2 108/3/2 117/3/2
f 109/3/2 113/3/2 118/3/2
f 113/3/2 114/3/2 118/3/2
f 118/3/2 114/3/2 119/3/2
f 119/3/2 114/3/2 120/3/2
f 116/3/2 117/3/2 122/3/2
f 118/3/2 119/3/2 123/3/2
f 121/1/2 122/1/2 125/1/2
f 122/3/2 117/3/2 126/3/2
f 125/1/2 122/1/2 126/1/2
f 126/3/2 117/3/2 127/3/2
f 118/3/2 123/3/2 128/3/2
f 123/1/2 124/1/2 129/1/2
f 128/3/2 123/3/2 129/3/2
f 129/1/2 124/1/2 130/1/2
f 131/2/2 132/2/2 133/2/2
f 133/2/2 132/2/2 134/2/2
f 135/4/2 136/4/2 138/4/2
f 138/4/2 136/4/2 139/4/2
f 137/3/2 138/3/2 141/3/2
f 139/3/2 140/3/2 141/3/2
f 138/3/2 139/3/2 141/3/2
f 141/3/2 140/3/2 142/3/2
f 145/4/3 144/4/3 143/4/3
f 146/4/3 144/4/3 145/4/3
f 147/4/3 145/4/3 143/4/3
f 148/4/3 145/4/3 147/4/3
f 151/3/3 148/3/3 147/3/3
f 152/3/3 148/3/3 151/3/3
f 153/1/3 150/1/3 149/1/3
f 154/1/3 150/1/3 153/1/3
f 159/3/3 158/3/3 157/3/3
f 160/5/3 156/5/3 155/5/3
f 161/5/3 156/5/3 160/5/3
f 162/5/3 156/5/3 161/5/3
f 163/4/3 160/4/3 159/4/3
f 163/4/3 161/4/3 160/4/3
f 164/4/3 161/4/3 163/4/3
f 165/3/3 159/3/3 157/3/3
f 166/4/3 163/4/3 159/4/3
f 166/3/3 159/3/3 165/3/3
f 167/3/3 165/3/3 157/3/3
f 167/4/3 166/4/3 165/4/3
f 168/4/3 163/4/3 166/4/3
f 168/4/3 166/4/3 167/4/3
f 169/3/3 167/3/3 157/3/3
f 173/3/3 170/3/3 169/3/3
f 173/3/3 169/3/3 157/3/3
f 174/3/3 170/3/3 173/3/3
f 175/3/3 170/3/3 174/3/3
f 176/3/3 170/3/3 175/3/3
f 177/3/3 172/3/3 171/3/3
f 178/3/3 172/3/3 177/3/3
f 179/3/3 175/3/3 174/3/3
f 180/3/3 175/3/3 179/3/3
f 184/3/3 182/3/3 181/3/3
f 185/3/3 182/3/3 184/3/3
f 186/4/3 184/4/3 183/4/3
f 187/4/3 184/4/3 186/4/3
f 188/4/3 186/4/3 183/4/3
f 188/3/3 187/3/3 186/3/3
f 189/3/3 187/3/3 188/3/3
f 190/3/3 182/3/3 185/3/3
f 191/3/3 182/3/3 190/3/3
f 192/4/3 189/4/3 188/4/3
f 192/4/3 188/4/3 183/4/3
f 193/4/3 189/4/3 192/4/3
f 196/4/3 195/4/3 194/4/3
f 197/4/3 195/4/3 196/4/3
f 198/4/3 195/4/3 197/4/3
f 201/4/3 200/4/3 199/4/3
f 202/4/3 200/4/3 201/4/3
f 207/2/3 206/2/3 205/2/3
f 208/2/3 206/2/3 207/2/3
f 209/4/3 201/4/3 199/4/3
f 209/3/3 202/3/3 201/3/3
f 209/3/3 203/3/3 202/3/3
f 210/4/3 204/4/3 203/4/3
f 210/3/3 203/3/3 209/3/3
f 211/4/3 209/4/3 199/4/3
f 211/4/3 210/4/3 209/4/3
f 212/4/3 204/4/3 210/4/3
f 212/4/3 210/4/3 211/4/3
f 216/4/3 214/4/3 213/4/3
f 216/4/3 215/4/3 214/4/3
f 217/4/3 215/4/3 216/4/3
f 220/3/3 219/3/3 218/3/3
f 221/3/3 219/3/3 220/3/3
f 224/4/3 223/4/3 222/4/3
f 225/4/3 223/4/3 224/4/3
f 226/4/3 223/4/3 225/4/3
f 227/4/4 228/4/4 229/4/4
f 229/4/4 228/4/4 230/4/4
f 230/4/4 228/4/4 231/4/4
f 232/4/4 233/4/4 235/4/4
f 233/4/4 234/4/4 235/4/4
f 235/4/4 234/4/4 236/4/4
f 237/3/4 238/3/4 239/3/4
f 239/3/4 238/3/4 240/3/4
f 241/3/4 242/3/4 244/3/4
f 244/3/4 242/3/4 245/3/4
f 243/4/4 244/4/4 246/4/4
f 246/4/4 244/4/4 247/4/4
f 243/4/4 246/4/4 248/4/4
f 246/3/4 247/3/4 248/3/4
f 248/3/4 247/3/4 249/3/4
f 245/3/4 242/3/4 250/3/4
f 250/3/4 242/3/4 251/3/4
f 248/4/4 249/4/4 252/4/4
f 243/4/4 248/4/4 252/4/4
f 252/4/4 249/4/4 253/4/4
f 254/4/4 255/4/4 256/4/4
f 256/4/4 255/4/4 257/4/4
f 257/4/4 255/4/4 258/4/4
f 259/4/4 260/4/4 261/4/4
f 261/4/4 260/4/4 262/4/4
f 265/2/4 266/2/4 267/2/4
f 267/2/4 266/2/4 268/2/4
f 259/4/4 261/4/4 269/4/4
f 261/3/4 262/3/4 269/3/4
f 262/3/4 263/3/4 269/3/4
f 263/4/4 264/4/4 270/4/4
f 269/3/4 263/3/4 270/3/4
f 259/4/4 269/4/4 271/4/4
f 269/4/4 270/4/4 271/4/4
f 270/4/4 264/4/4 272/4/4
f 271/4/4 270/4/4 272/4/4
f 275/3/4 276/3/4 277/3/4
f 273/5/4 274/5/4 278/5/4
f 278/5/4 274/5/4 279/5/4
f 279/5/4 274/5/4 280/5/4
f 277/4/4 278/4/4 281/4/4
f 278/4/4 279/4/4 281/4/4
f 281/4/4 279/4/4 282/4/4
f 275/3/4 277/3/4 283/3/4
f 277/4/4 281/4/4 284/4/4
f 283/3/4 277/3/4 284/3/4
f 275/3/4 283/3/4 285/3/4
f 283/4/4 284/4/4 285/4/4
f 284/4/4 281/4/4 286/4/4
f 285/4/4 284/4/4 286/4/4
f 275/3/4 285/3/4 287/3/4
f 287/3/4 288/3/4 291/3/4
f 275/3/4 287/3/4 291/3/4
f 291/3/4 288/3/4 292/3/4
f 292/3/4 288/3/4 293/3/4
f 293/3/4 288/3/4 294/3/4
f 289/3/4 290/3/4 295/3/4
f 295/3/4 290/3/4 296/3/4
f 292/3/4 293/3/4 297/3/4
f 297/3/4 293/3/4 298/3/4
f 299/4/4 300/4/4 301/4/4
f 301/4/4 300/4/4 302/4/4
f 299/4/4 301/4/4 303/4/4
f 303/4/4 301/4/4 304/4/4
f 303/3/4 304/3/4 307/3/4
f 307/3/4 304/3/4 308/3/4
f 305/1/4 306/1/4 309/1/4
f 309/1/4 306/1/4 310/1/4
f 315/4/5 312/4/5 311/4/5
f 316/4/5 312/4/5 315/4/5
f 317/4/5 314/4/5 313/4/5
f 318/4/5 314/4/5 317/4/5
f 322/3/5 320/3/5 319/3/5
f 323/3/5 320/3/5 322/3/5
f 324/3/5 320/3/5 323/3/5
f 325/3/5 320/3/5 324/3/5
f 326/3/5 320/3/5 325/3/5
f 327/3/5 320/3/5 326/3/5
f 328/3/5 322/3/5 321/3/5
f 329/3/5 322/3/5 328/3/5
f 332/3/5 326/3/5 325/3/5
f 333/3/5 326/3/5 332/3/5
f 335/3/5 331/3/5 330/3/5
f 335/3/5 334/3/5 333/3/5
f 335/3/5 333/3/5 332/3/5
f 335/3/5 332/3/5 331/3/5
f 335/3/5 330/3/5 329/3/5
f 336/3/5 334/3/5 335/3/5
f 339/3/5 338/3/5 337/3/5
f 340/3/5 338/3/5 339/3/5
f 343/3/5 342/3/5 341/3/5
f 344/3/5 342/3/5 343/3/5
f 350/4/5 346/4/5 345/4/5
f 351/4/5 346/4/5 350/4/5
f 352/3/5 347/3/5 346/3/5
f 352/4/5 346/4/5 351/4/5
f 353/3/5 347/3/5 352/3/5
f 354/5/5 349/5/5 348/5/5
f 355/5/5 349/5/5 354/5/5
f 358/5/5 357/5/5 356/5/5
f 359/5/5 357/5/5 358/5/5
f 364/4/5 361/4/5 360/4/5
f 364/4/5 362/4/5 361/4/5
f 365/3/5 363/3/5 362/3/5
f 365/4/5 362/4/5 364/4/5
f 366/3/5 363/3/5 365/3/5
f 369/1/5 368/1/5 367/1/5
f 370/1/5 368/1/5 369/1/5
f 373/4/5 372/4/5 371/4/5
f 374/4/5 372/4/5 373/4/5
f 377/1/5 376/1/5 375/1/5
f 378/1/5 376/1/5 377/1/5
f 379/3/6 380/3/6 382/3/6
f 381/3/6 382/3/6 383/3/6
f 382/3/6 380/3/6 384/3/6
f 383/3/6 382/3/6 384/3/6
f 384/3/6 380/3/6 385/3/6
f 385/3/6 380/3/6 386/3/6
f 387/3/6 388/3/6 391/3/6
f 391/3/6 388/3/6 392/3/6
f 389/3/6 390/3/6 393/3/6
f 393/3/6 390/3/6 394/3/6
f 394/3/6 390/3/6 398/3/6
f 395/3/6 396/3/6 399/3/6
f 399/3/6 396/3/6 400/3/6
f 397/3/6 398/3/6 401/3/6
f 398/3/6 390/3/6 402/3/6
f 401/3/6 398/3/6 402/3/6
f 403/4/6 404/4/6 405/4/6
f 405/4/6 404/4/6 406/4/6
f 407/4/6 408/4/6 409/4/6
f 409/4/6 408/4/6 410/4/6
f 411/4/6 412/4/6 414/4/6
f 412/3/6 413/3/6 415/3/6
f 414/4/6 412/4/6 415/4/6
f 415/3/6 413/3/6 416/3/6
f 417/3/6 418/3/6 420/3/6
f 418/2/6 419/2/6 421/2/6
f 420/3/6 418/3/6 421/3/6
f 421/2/6 419/2/6 422/2/6
f 423/4/6 424/4/6 426/4/6
f 424/3/6 425/3/6 427/3/6
f 426/4/6 424/4/6 427/4/6
f 427/3/6 425/3/6 428/3/6
f 429/4/6 430/4/6 432/4/6
f 432/4/6 430/4/6 433/4/6
f 431/4/6 432/4/6 433/4/6
f 433/4/6 430/4/6 434/4/6
f 431/4/6 433/4/6 435/4/6
f 431/4/6 435/4/6 437/4/6
f 435/4/6 436/4/6 437/4/6
f 437/4/6 436/4/6 438/4/6
f 438/4/6 436/4/6 439/4/6
f 439/4/6 436/4/6 440/4/6
f 441/1/6 442/1/6 443/1/6
f 443/1/6 442/1/6 444/1/6
f 443/3/6 444/3/6 445/3/6
f 445/3/6 444/3/6 446/3/6
f 447/3/6 448/3/6 449/3/6
f 449/3/6 448/3/6 450/3/6
f 449/1/6 450/1/6 451/1/6
f 451/1/6 450/1/6 452/1/6
f 455/4/6 456/4/6 457/4/6
f 457/4/6 456/4/6 458/4/6
f 453/5/6 454/5/6 459/5/6
f 459/5/6 454/5/6 460/5/6
