# MagicaVoxel @ Ephtracy

# group
o 

# material
mtllib traffic_sign_b_c.mtl
usemtl palette

# normals
vn -1 0 0
vn 1 0 0
vn 0 0 1
vn 0 0 -1
vn 0 -1 0
vn 0 1 0

# texcoords
vt 0.916016 0.5
vt 0.943359 0.5
vt 0.947266 0.5

# verts
v -0.2 1 0.1
v -0.2 1 0
v -0.2 1.2 0.1
v -0.2 1.2 0
v -0.1 0 0.1
v -0.1 0 -0.2
v -0.1 0.1 0.1
v -0.1 0.1 -0.2
v -0.1 1.2 0.1
v -0.1 1.2 0
v -0.1 1.4 0.1
v -0.1 1.4 0
v 0 0.1 0
v 0 0.1 -0.1
v 0 1 0
v 0 1.1 0
v 0 1.2 0
v 0 1.3 0
v 0 1.3 -0.1
v 0 1.4 0.1
v 0 1.4 0
v 0 1.5 0.1
v 0 1.5 0
v 0.1 0.1 0
v 0.1 0.1 -0.1
v 0.1 1 0
v 0.1 1.1 0
v 0.1 1.2 0
v 0.1 1.3 0
v 0.1 1.3 -0.1
v 0.1 1.4 0.1
v 0.1 1.4 0
v 0.1 1.5 0.1
v 0.1 1.5 0
v 0.2 0 0.1
v 0.2 0 -0.2
v 0.2 0.1 0.1
v 0.2 0.1 -0.2
v 0.2 1.2 0.1
v 0.2 1.2 0
v 0.2 1.4 0.1
v 0.2 1.4 0
v 0.3 1 0.1
v 0.3 1 0
v 0.3 1.2 0.1
v 0.3 1.2 0
v -0.2 1 0.1
v -0.2 1.2 0.1
v -0.1 0 0.1
v -0.1 0.1 0.1
v -0.1 1.1 0.1
v -0.1 1.2 0.1
v -0.1 1.4 0.1
v 0 1.4 0.1
v 0 1.5 0.1
v 0.1 1.4 0.1
v 0.1 1.5 0.1
v 0.2 0 0.1
v 0.2 0.1 0.1
v 0.2 1.1 0.1
v 0.2 1.2 0.1
v 0.2 1.4 0.1
v 0.3 1 0.1
v 0.3 1.2 0.1
v 0 0.1 0
v 0 1 0
v 0.1 0.1 0
v 0.1 1 0
v -0.2 1 0
v -0.2 1.2 0
v -0.1 1.1 0
v -0.1 1.2 0
v -0.1 1.4 0
v 0 1 0
v 0 1.1 0
v 0 1.2 0
v 0 1.3 0
v 0 1.4 0
v 0 1.5 0
v 0.1 1 0
v 0.1 1.1 0
v 0.1 1.2 0
v 0.1 1.3 0
v 0.1 1.4 0
v 0.1 1.5 0
v 0.2 1.1 0
v 0.2 1.2 0
v 0.2 1.4 0
v 0.3 1 0
v 0.3 1.2 0
v 0 0.1 -0.1
v 0 1.3 -0.1
v 0.1 0.1 -0.1
v 0.1 1.3 -0.1
v -0.1 0 -0.2
v -0.1 0.1 -0.2
v 0.2 0 -0.2
v 0.2 0.1 -0.2
v -0.1 0 0.1
v 0.2 0 0.1
v -0.1 0 -0.2
v 0.2 0 -0.2
v -0.2 1 0.1
v 0.3 1 0.1
v -0.2 1 0
v 0 1 0
v 0.1 1 0
v 0.3 1 0
v -0.1 0.1 0.1
v 0.2 0.1 0.1
v 0 0.1 0
v 0.1 0.1 0
v 0 0.1 -0.1
v 0.1 0.1 -0.1
v -0.1 0.1 -0.2
v 0.2 0.1 -0.2
v -0.2 1.2 0.1
v -0.1 1.2 0.1
v 0.2 1.2 0.1
v 0.3 1.2 0.1
v -0.2 1.2 0
v -0.1 1.2 0
v 0.2 1.2 0
v 0.3 1.2 0
v 0 1.3 0
v 0.1 1.3 0
v 0 1.3 -0.1
v 0.1 1.3 -0.1
v -0.1 1.4 0.1
v 0 1.4 0.1
v 0.1 1.4 0.1
v 0.2 1.4 0.1
v -0.1 1.4 0
v 0 1.4 0
v 0.1 1.4 0
v 0.2 1.4 0
v 0 1.5 0.1
v 0.1 1.5 0.1
v 0 1.5 0
v 0.1 1.5 0

# faces
f 3/1/1 2/1/1 1/1/1
f 4/1/1 2/1/1 3/1/1
f 7/2/1 6/2/1 5/2/1
f 8/2/1 6/2/1 7/2/1
f 11/1/1 10/1/1 9/1/1
f 12/1/1 10/1/1 11/1/1
f 15/2/1 14/2/1 13/2/1
f 16/2/1 14/2/1 15/2/1
f 17/2/1 14/2/1 16/2/1
f 18/2/1 14/2/1 17/2/1
f 19/2/1 14/2/1 18/2/1
f 22/1/1 21/1/1 20/1/1
f 23/1/1 21/1/1 22/1/1
f 24/2/2 25/2/2 26/2/2
f 26/2/2 25/2/2 27/2/2
f 27/2/2 25/2/2 28/2/2
f 28/2/2 25/2/2 29/2/2
f 29/2/2 25/2/2 30/2/2
f 31/1/2 32/1/2 33/1/2
f 33/1/2 32/1/2 34/1/2
f 35/2/2 36/2/2 37/2/2
f 37/2/2 36/2/2 38/2/2
f 39/1/2 40/1/2 41/1/2
f 41/1/2 40/1/2 42/1/2
f 43/1/2 44/1/2 45/1/2
f 45/1/2 44/1/2 46/1/2
f 51/1/3 48/1/3 47/1/3
f 52/1/3 48/1/3 51/1/3
f 54/1/3 53/1/3 52/1/3
f 56/1/3 54/1/3 52/1/3
f 56/1/3 55/1/3 54/1/3
f 57/1/3 55/1/3 56/1/3
f 58/2/3 50/2/3 49/2/3
f 59/2/3 50/2/3 58/2/3
f 60/1/3 51/1/3 47/1/3
f 60/3/3 52/3/3 51/3/3
f 61/1/3 56/1/3 52/1/3
f 61/3/3 52/3/3 60/3/3
f 62/1/3 56/1/3 61/1/3
f 63/1/3 60/1/3 47/1/3
f 63/1/3 61/1/3 60/1/3
f 64/1/3 61/1/3 63/1/3
f 67/2/3 66/2/3 65/2/3
f 68/2/3 66/2/3 67/2/3
f 69/1/4 70/1/4 71/1/4
f 71/1/4 70/1/4 72/1/4
f 69/1/4 71/1/4 74/1/4
f 71/3/4 72/3/4 75/3/4
f 74/1/4 71/1/4 75/1/4
f 72/1/4 73/1/4 76/1/4
f 75/3/4 72/3/4 76/3/4
f 76/1/4 73/1/4 77/1/4
f 77/1/4 73/1/4 78/1/4
f 78/1/4 79/1/4 83/1/4
f 77/1/4 78/1/4 83/1/4
f 83/1/4 79/1/4 84/1/4
f 84/1/4 79/1/4 85/1/4
f 81/3/4 82/3/4 86/3/4
f 80/1/4 81/1/4 86/1/4
f 83/1/4 84/1/4 87/1/4
f 86/3/4 82/3/4 87/3/4
f 82/1/4 83/1/4 87/1/4
f 87/1/4 84/1/4 88/1/4
f 80/1/4 86/1/4 89/1/4
f 86/1/4 87/1/4 89/1/4
f 89/1/4 87/1/4 90/1/4
f 91/2/4 92/2/4 93/2/4
f 93/2/4 92/2/4 94/2/4
f 95/2/4 96/2/4 97/2/4
f 97/2/4 96/2/4 98/2/4
f 101/2/5 100/2/5 99/2/5
f 102/2/5 100/2/5 101/2/5
f 105/1/5 104/1/5 103/1/5
f 106/1/5 104/1/5 105/1/5
f 107/1/5 104/1/5 106/1/5
f 108/1/5 104/1/5 107/1/5
f 109/2/6 110/2/6 111/2/6
f 111/2/6 110/2/6 112/2/6
f 109/2/6 111/2/6 113/2/6
f 112/2/6 110/2/6 114/2/6
f 109/2/6 113/2/6 115/2/6
f 113/2/6 114/2/6 115/2/6
f 114/2/6 110/2/6 116/2/6
f 115/2/6 114/2/6 116/2/6
f 117/1/6 118/1/6 121/1/6
f 121/1/6 118/1/6 122/1/6
f 119/1/6 120/1/6 123/1/6
f 123/1/6 120/1/6 124/1/6
f 125/2/6 126/2/6 127/2/6
f 127/2/6 126/2/6 128/2/6
f 129/1/6 130/1/6 133/1/6
f 133/1/6 130/1/6 134/1/6
f 131/1/6 132/1/6 135/1/6
f 135/1/6 132/1/6 136/1/6
f 137/1/6 138/1/6 139/1/6
f 139/1/6 138/1/6 140/1/6
