# MagicaVoxel @ Ephtracy

# group
o 

# material
mtllib truck_b_e.mtl
usemtl palette

# normals
vn -1 0 0
vn 1 0 0
vn 0 0 1
vn 0 0 -1
vn 0 -1 0
vn 0 1 0

# texcoords
vt 0.876953 0.5
vt 0.880859 0.5
vt 0.884766 0.5
vt 0.916016 0.5
vt 0.947266 0.5
vt 0.970703 0.5

# verts
v -1.9 0.6 0.8
v -1.9 0.6 -0.9
v -1.9 0.7 0.7
v -1.9 0.7 -0.8
v -1.9 1.6 0.7
v -1.9 1.6 -0.8
v -1.9 1.7 0.8
v -1.9 1.7 -0.9
v -1.8 0.7 0.7
v -1.8 0.7 -0.8
v -1.8 1.6 0.7
v -1.8 1.6 -0.8
v -1.7 0.2 0.7
v -1.7 0.2 0.1
v -1.7 0.2 -0.2
v -1.7 0.2 -0.8
v -1.7 0.4 0.7
v -1.7 0.4 0.6
v -1.7 0.4 0.4
v -1.7 0.4 0.1
v -1.7 0.4 -0.2
v -1.7 0.4 -0.5
v -1.7 0.4 -0.7
v -1.7 0.4 -0.8
v -1.7 0.5 0.4
v -1.7 0.5 -0.5
v -1.7 0.6 0.7
v -1.7 0.6 0.6
v -1.7 0.6 -0.7
v -1.7 0.6 -0.8
v -1.5 0 0.7
v -1.5 0 0.5
v -1.5 0 -0.6
v -1.5 0 -0.8
v -1.5 0.2 0.7
v -1.5 0.2 0.5
v -1.5 0.2 -0.6
v -1.5 0.2 -0.8
v -0.8 0 0.7
v -0.8 0 0.5
v -0.8 0 -0.6
v -0.8 0 -0.8
v -0.8 0.2 0.7
v -0.8 0.2 0.5
v -0.8 0.2 -0.6
v -0.8 0.2 -0.8
v 0.3 0.7 0.8
v 0.3 0.7 0.7
v 0.3 0.7 -0.8
v 0.3 0.7 -0.9
v 0.3 1.6 0.8
v 0.3 1.6 0.7
v 0.3 1.6 -0.8
v 0.3 1.6 -0.9
v 0.5 0.2 0.7
v 0.5 0.2 0.6
v 0.5 0.2 -0.7
v 0.5 0.2 -0.8
v 0.5 0.4 0.7
v 0.5 0.4 0.6
v 0.5 0.4 -0.7
v 0.5 0.4 -0.8
v 0.5 1.5 0.6
v 0.5 1.5 -0.7
v 0.7 0.4 0.7
v 0.7 0.4 0.6
v 0.7 0.4 -0.7
v 0.7 0.4 -0.8
v 0.7 0.6 0.7
v 0.7 0.6 0.6
v 0.7 0.6 -0.7
v 0.7 0.6 -0.8
v 0.8 0 0.7
v 0.8 0 0.5
v 0.8 0 -0.6
v 0.8 0 -0.8
v 0.8 0.2 0.7
v 0.8 0.2 0.5
v 0.8 0.2 -0.6
v 0.8 0.2 -0.8
v 1.7 0.8 0.8
v 1.7 0.8 0.6
v 1.7 0.8 -0.7
v 1.7 0.8 -0.9
v 1.7 1.1 0.8
v 1.7 1.1 0.6
v 1.7 1.1 -0.7
v 1.7 1.1 -0.9
v -1.8 0.7 0.8
v -1.8 0.7 0.7
v -1.8 0.7 -0.8
v -1.8 0.7 -0.9
v -1.8 1.6 0.8
v -1.8 1.6 0.7
v -1.8 1.6 -0.8
v -1.8 1.6 -0.9
v -1 0 0.7
v -1 0 0.5
v -1 0 -0.6
v -1 0 -0.8
v -1 0.2 0.7
v -1 0.2 0.5
v -1 0.2 -0.6
v -1 0.2 -0.8
v -0.3 0 0.7
v -0.3 0 0.5
v -0.3 0 -0.6
v -0.3 0 -0.8
v -0.3 0.2 0.7
v -0.3 0.2 0.5
v -0.3 0.2 -0.6
v -0.3 0.2 -0.8
v 0.4 0.2 0.7
v 0.4 0.2 0.6
v 0.4 0.2 -0.7
v 0.4 0.2 -0.8
v 0.4 0.4 0.6
v 0.4 0.4 -0.7
v 0.4 0.6 0.8
v 0.4 0.6 0.7
v 0.4 0.6 -0.8
v 0.4 0.6 -0.9
v 0.4 1.7 0.8
v 0.4 1.7 -0.9
v 1.3 0 0.7
v 1.3 0 0.5
v 1.3 0 -0.6
v 1.3 0 -0.8
v 1.3 0.2 0.7
v 1.3 0.2 0.5
v 1.3 0.2 -0.6
v 1.3 0.2 -0.8
v 1.4 0.4 0.7
v 1.4 0.4 0.6
v 1.4 0.4 -0.7
v 1.4 0.4 -0.8
v 1.4 0.6 0.7
v 1.4 0.6 0.6
v 1.4 0.6 -0.7
v 1.4 0.6 -0.8
v 1.8 0.7 0.6
v 1.8 0.7 0.4
v 1.8 0.7 -0.5
v 1.8 0.7 -0.7
v 1.8 0.8 0.8
v 1.8 0.8 0.6
v 1.8 0.8 0.5
v 1.8 0.8 -0.6
v 1.8 0.8 -0.7
v 1.8 0.8 -0.9
v 1.8 1.1 0.8
v 1.8 1.1 0.6
v 1.8 1.1 -0.7
v 1.8 1.1 -0.9
v 1.8 1.3 0.5
v 1.8 1.3 -0.6
v 1.8 1.5 0.6
v 1.8 1.5 -0.7
v 1.9 0.2 0.7
v 1.9 0.2 -0.8
v 1.9 0.4 0.7
v 1.9 0.4 0.6
v 1.9 0.4 0.4
v 1.9 0.4 0.3
v 1.9 0.4 0.2
v 1.9 0.4 0.1
v 1.9 0.4 0
v 1.9 0.4 -0.1
v 1.9 0.4 -0.2
v 1.9 0.4 -0.3
v 1.9 0.4 -0.4
v 1.9 0.4 -0.5
v 1.9 0.4 -0.7
v 1.9 0.4 -0.8
v 1.9 0.6 0.3
v 1.9 0.6 0.2
v 1.9 0.6 0.1
v 1.9 0.6 0
v 1.9 0.6 -0.1
v 1.9 0.6 -0.2
v 1.9 0.6 -0.3
v 1.9 0.6 -0.4
v 1.9 0.7 0.6
v 1.9 0.7 0.4
v 1.9 0.7 -0.5
v 1.9 0.7 -0.7
v -1.9 0.6 0.8
v -1.9 1.7 0.8
v -1.8 0.7 0.8
v -1.8 1.6 0.8
v 0.3 0.7 0.8
v 0.3 1.6 0.8
v 0.4 0.6 0.8
v 0.4 1.7 0.8
v 1.7 0.8 0.8
v 1.7 1.1 0.8
v 1.8 0.8 0.8
v 1.8 1.1 0.8
v -1.8 0.7 0.7
v -1.8 1.6 0.7
v -1.7 0.2 0.7
v -1.7 0.4 0.7
v -1.7 0.6 0.7
v -1.6 0.4 0.7
v -1.6 0.6 0.7
v -1.5 0 0.7
v -1.5 0.2 0.7
v -1.5 0.5 0.7
v -1.4 0.1 0.7
v -1.4 0.4 0.7
v -1.1 0.1 0.7
v -1.1 0.4 0.7
v -1 0 0.7
v -1 0.2 0.7
v -1 0.5 0.7
v -0.8 0 0.7
v -0.8 0.2 0.7
v -0.8 0.5 0.7
v -0.7 0.1 0.7
v -0.7 0.4 0.7
v -0.4 0.1 0.7
v -0.4 0.4 0.7
v -0.3 0 0.7
v -0.3 0.2 0.7
v -0.3 0.5 0.7
v 0.3 0.7 0.7
v 0.3 1.6 0.7
v 0.4 0.2 0.7
v 0.4 0.6 0.7
v 0.5 0.2 0.7
v 0.5 0.4 0.7
v 0.7 0.4 0.7
v 0.7 0.6 0.7
v 0.8 0 0.7
v 0.8 0.2 0.7
v 0.8 0.5 0.7
v 0.9 0.1 0.7
v 0.9 0.4 0.7
v 1.2 0.1 0.7
v 1.2 0.4 0.7
v 1.3 0 0.7
v 1.3 0.2 0.7
v 1.3 0.5 0.7
v 1.4 0.4 0.7
v 1.4 0.6 0.7
v 1.9 0.2 0.7
v 1.9 0.4 0.7
v 0.4 0.2 0.6
v 0.4 0.4 0.6
v 0.5 0.2 0.6
v 0.5 0.4 0.6
v 0.5 1.5 0.6
v 0.7 0.4 0.6
v 0.7 0.6 0.6
v 0.7 0.8 0.6
v 0.7 1.3 0.6
v 1 0.8 0.6
v 1 1.3 0.6
v 1.1 0.8 0.6
v 1.1 1.3 0.6
v 1.4 0.4 0.6
v 1.4 0.6 0.6
v 1.6 0.8 0.6
v 1.6 1.3 0.6
v 1.7 0.8 0.6
v 1.7 1.1 0.6
v 1.8 0.4 0.6
v 1.8 0.7 0.6
v 1.8 0.8 0.6
v 1.8 1.1 0.6
v 1.8 1.5 0.6
v 1.9 0.4 0.6
v 1.9 0.7 0.6
v -1.5 0 -0.6
v -1.5 0.2 -0.6
v -1 0 -0.6
v -1 0.2 -0.6
v -0.8 0 -0.6
v -0.8 0.2 -0.6
v -0.3 0 -0.6
v -0.3 0.2 -0.6
v 0.8 0 -0.6
v 0.8 0.2 -0.6
v 1.3 0 -0.6
v 1.3 0.2 -0.6
v -1.9 0.7 -0.8
v -1.9 1.6 -0.8
v -1.8 0.7 -0.8
v -1.8 1.6 -0.8
v -1.9 0.7 0.7
v -1.9 1.6 0.7
v -1.8 0.7 0.7
v -1.8 1.6 0.7
v -1.5 0 0.5
v -1.5 0.2 0.5
v -1 0 0.5
v -1 0.2 0.5
v -0.8 0 0.5
v -0.8 0.2 0.5
v -0.3 0 0.5
v -0.3 0.2 0.5
v 0.8 0 0.5
v 0.8 0.2 0.5
v 1.3 0 0.5
v 1.3 0.2 0.5
v 0.4 0.2 -0.7
v 0.4 0.4 -0.7
v 0.5 0.2 -0.7
v 0.5 0.4 -0.7
v 0.5 1.5 -0.7
v 0.7 0.4 -0.7
v 0.7 0.6 -0.7
v 0.7 0.8 -0.7
v 0.7 1.3 -0.7
v 1 0.8 -0.7
v 1 1.3 -0.7
v 1.1 0.8 -0.7
v 1.1 1.3 -0.7
v 1.4 0.4 -0.7
v 1.4 0.6 -0.7
v 1.6 0.8 -0.7
v 1.6 1.3 -0.7
v 1.7 0.8 -0.7
v 1.7 1.1 -0.7
v 1.8 0.4 -0.7
v 1.8 0.7 -0.7
v 1.8 0.8 -0.7
v 1.8 1.1 -0.7
v 1.8 1.5 -0.7
v 1.9 0.4 -0.7
v 1.9 0.7 -0.7
v -1.8 0.7 -0.8
v -1.8 1.6 -0.8
v -1.7 0.2 -0.8
v -1.7 0.4 -0.8
v -1.7 0.6 -0.8
v -1.6 0.4 -0.8
v -1.6 0.6 -0.8
v -1.5 0 -0.8
v -1.5 0.2 -0.8
v -1.5 0.5 -0.8
v -1.4 0.1 -0.8
v -1.4 0.4 -0.8
v -1.1 0.1 -0.8
v -1.1 0.4 -0.8
v -1 0 -0.8
v -1 0.2 -0.8
v -1 0.5 -0.8
v -0.8 0 -0.8
v -0.8 0.2 -0.8
v -0.8 0.5 -0.8
v -0.7 0.1 -0.8
v -0.7 0.4 -0.8
v -0.4 0.1 -0.8
v -0.4 0.4 -0.8
v -0.3 0 -0.8
v -0.3 0.2 -0.8
v -0.3 0.5 -0.8
v 0.3 0.7 -0.8
v 0.3 1.6 -0.8
v 0.4 0.2 -0.8
v 0.4 0.6 -0.8
v 0.5 0.2 -0.8
v 0.5 0.4 -0.8
v 0.7 0.4 -0.8
v 0.7 0.6 -0.8
v 0.8 0 -0.8
v 0.8 0.2 -0.8
v 0.8 0.5 -0.8
v 0.9 0.1 -0.8
v 0.9 0.4 -0.8
v 1.2 0.1 -0.8
v 1.2 0.4 -0.8
v 1.3 0 -0.8
v 1.3 0.2 -0.8
v 1.3 0.5 -0.8
v 1.4 0.4 -0.8
v 1.4 0.6 -0.8
v 1.9 0.2 -0.8
v 1.9 0.4 -0.8
v -1.9 0.6 -0.9
v -1.9 1.7 -0.9
v -1.8 0.7 -0.9
v -1.8 1.6 -0.9
v 0.3 0.7 -0.9
v 0.3 1.6 -0.9
v 0.4 0.6 -0.9
v 0.4 1.7 -0.9
v 1.7 0.8 -0.9
v 1.7 1.1 -0.9
v 1.8 0.8 -0.9
v 1.8 1.1 -0.9
v -1.5 0 0.7
v -1 0 0.7
v -0.8 0 0.7
v -0.3 0 0.7
v 0.8 0 0.7
v 1.3 0 0.7
v -1.5 0 0.5
v -1 0 0.5
v -0.8 0 0.5
v -0.3 0 0.5
v 0.8 0 0.5
v 1.3 0 0.5
v -1.5 0 -0.6
v -1 0 -0.6
v -0.8 0 -0.6
v -0.3 0 -0.6
v 0.8 0 -0.6
v 1.3 0 -0.6
v -1.5 0 -0.8
v -1 0 -0.8
v -0.8 0 -0.8
v -0.3 0 -0.8
v 0.8 0 -0.8
v 1.3 0 -0.8
v -1.7 0.2 0.7
v -1.5 0.2 0.7
v -1 0.2 0.7
v -0.8 0.2 0.7
v -0.3 0.2 0.7
v 0.4 0.2 0.7
v 0.5 0.2 0.7
v 0.8 0.2 0.7
v 1.3 0.2 0.7
v 1.9 0.2 0.7
v 0.4 0.2 0.6
v 0.5 0.2 0.6
v -1.5 0.2 0.5
v -1 0.2 0.5
v -0.8 0.2 0.5
v -0.3 0.2 0.5
v 0.8 0.2 0.5
v 1.3 0.2 0.5
v -1.7 0.2 0.1
v -1.6 0.2 0.1
v -1.7 0.2 -0.2
v -1.6 0.2 -0.2
v -1.5 0.2 -0.6
v -1 0.2 -0.6
v -0.8 0.2 -0.6
v -0.3 0.2 -0.6
v 0.8 0.2 -0.6
v 1.3 0.2 -0.6
v 0.4 0.2 -0.7
v 0.5 0.2 -0.7
v -1.7 0.2 -0.8
v -1.5 0.2 -0.8
v -1 0.2 -0.8
v -0.8 0.2 -0.8
v -0.3 0.2 -0.8
v 0.4 0.2 -0.8
v 0.5 0.2 -0.8
v 0.8 0.2 -0.8
v 1.3 0.2 -0.8
v 1.9 0.2 -0.8
v -1.9 0.6 0.8
v 0.4 0.6 0.8
v -1.7 0.6 0.7
v -1.6 0.6 0.7
v 0.4 0.6 0.7
v -1.7 0.6 0.6
v -1.7 0.6 -0.7
v -1.7 0.6 -0.8
v -1.6 0.6 -0.8
v 0.4 0.6 -0.8
v -1.9 0.6 -0.9
v 0.4 0.6 -0.9
v 1.7 0.8 0.8
v 1.8 0.8 0.8
v 1.7 0.8 0.6
v 1.8 0.8 0.6
v 1.7 0.8 -0.7
v 1.8 0.8 -0.7
v 1.7 0.8 -0.9
v 1.8 0.8 -0.9
v -1.8 1.6 0.8
v 0.3 1.6 0.8
v -1.9 1.6 0.7
v -1.8 1.6 0.7
v 0.3 1.6 0.7
v -1.9 1.6 -0.8
v -1.8 1.6 -0.8
v 0.3 1.6 -0.8
v -1.8 1.6 -0.9
v 0.3 1.6 -0.9
v 0.5 0.4 0.7
v 0.7 0.4 0.7
v 1.4 0.4 0.7
v 1.9 0.4 0.7
v 0.4 0.4 0.6
v 0.5 0.4 0.6
v 0.7 0.4 0.6
v 1.4 0.4 0.6
v 1.8 0.4 0.6
v 1.9 0.4 0.6
v 0.4 0.4 -0.7
v 0.5 0.4 -0.7
v 0.7 0.4 -0.7
v 1.4 0.4 -0.7
v 1.8 0.4 -0.7
v 1.9 0.4 -0.7
v 0.5 0.4 -0.8
v 0.7 0.4 -0.8
v 1.4 0.4 -0.8
v 1.9 0.4 -0.8
v 0.7 0.6 0.7
v 1.4 0.6 0.7
v 0.7 0.6 0.6
v 1.4 0.6 0.6
v 0.7 0.6 -0.7
v 1.4 0.6 -0.7
v 0.7 0.6 -0.8
v 1.4 0.6 -0.8
v -1.8 0.7 0.8
v 0.3 0.7 0.8
v -1.9 0.7 0.7
v -1.8 0.7 0.7
v 0.3 0.7 0.7
v 1.8 0.7 0.6
v 1.9 0.7 0.6
v 1.8 0.7 0.4
v 1.9 0.7 0.4
v 1.8 0.7 -0.5
v 1.9 0.7 -0.5
v 1.8 0.7 -0.7
v 1.9 0.7 -0.7
v -1.9 0.7 -0.8
v -1.8 0.7 -0.8
v 0.3 0.7 -0.8
v -1.8 0.7 -0.9
v 0.3 0.7 -0.9
v 1.7 1.1 0.8
v 1.8 1.1 0.8
v 1.7 1.1 0.6
v 1.8 1.1 0.6
v 1.7 1.1 -0.7
v 1.8 1.1 -0.7
v 1.7 1.1 -0.9
v 1.8 1.1 -0.9
v 0.5 1.5 0.6
v 1.8 1.5 0.6
v 0.5 1.5 -0.7
v 1.8 1.5 -0.7
v -1.9 1.7 0.8
v 0.4 1.7 0.8
v -1.9 1.7 -0.9
v 0.4 1.7 -0.9

# faces
f 3/3/1 2/3/1 1/3/1
f 4/3/1 2/3/1 3/3/1
f 5/3/1 3/3/1 1/3/1
f 6/3/1 2/3/1 4/3/1
f 7/3/1 5/3/1 1/3/1
f 7/3/1 6/3/1 5/3/1
f 8/3/1 2/3/1 6/3/1
f 8/3/1 6/3/1 7/3/1
f 11/3/1 10/3/1 9/3/1
f 12/3/1 10/3/1 11/3/1
f 17/2/1 14/2/1 13/2/1
f 18/2/1 14/2/1 17/2/1
f 19/2/1 14/2/1 18/2/1
f 20/5/1 15/5/1 14/5/1
f 20/2/1 14/2/1 19/2/1
f 21/2/1 16/2/1 15/2/1
f 21/5/1 15/5/1 20/5/1
f 22/2/1 16/2/1 21/2/1
f 23/2/1 16/2/1 22/2/1
f 24/2/1 16/2/1 23/2/1
f 25/6/1 20/6/1 19/6/1
f 25/2/1 19/2/1 18/2/1
f 25/6/1 21/6/1 20/6/1
f 25/6/1 22/6/1 21/6/1
f 26/2/1 23/2/1 22/2/1
f 26/6/1 22/6/1 25/6/1
f 27/4/1 18/4/1 17/4/1
f 28/2/1 25/2/1 18/2/1
f 28/4/1 18/4/1 27/4/1
f 28/2/1 26/2/1 25/2/1
f 29/4/1 24/4/1 23/4/1
f 29/2/1 26/2/1 28/2/1
f 29/2/1 23/2/1 26/2/1
f 30/4/1 24/4/1 29/4/1
f 35/6/1 32/6/1 31/6/1
f 36/6/1 32/6/1 35/6/1
f 37/6/1 34/6/1 33/6/1
f 38/6/1 34/6/1 37/6/1
f 43/6/1 40/6/1 39/6/1
f 44/6/1 40/6/1 43/6/1
f 45/6/1 42/6/1 41/6/1
f 46/6/1 42/6/1 45/6/1
f 51/3/1 48/3/1 47/3/1
f 52/3/1 48/3/1 51/3/1
f 53/3/1 50/3/1 49/3/1
f 54/3/1 50/3/1 53/3/1
f 59/2/1 56/2/1 55/2/1
f 60/2/1 56/2/1 59/2/1
f 61/2/1 58/2/1 57/2/1
f 62/2/1 58/2/1 61/2/1
f 63/5/1 61/5/1 60/5/1
f 64/5/1 61/5/1 63/5/1
f 69/2/1 66/2/1 65/2/1
f 70/2/1 66/2/1 69/2/1
f 71/2/1 68/2/1 67/2/1
f 72/2/1 68/2/1 71/2/1
f 77/6/1 74/6/1 73/6/1
f 78/6/1 74/6/1 77/6/1
f 79/6/1 76/6/1 75/6/1
f 80/6/1 76/6/1 79/6/1
f 85/5/1 82/5/1 81/5/1
f 86/5/1 82/5/1 85/5/1
f 87/5/1 84/5/1 83/5/1
f 88/5/1 84/5/1 87/5/1
f 89/3/2 90/3/2 93/3/2
f 93/3/2 90/3/2 94/3/2
f 91/3/2 92/3/2 95/3/2
f 95/3/2 92/3/2 96/3/2
f 97/6/2 98/6/2 101/6/2
f 101/6/2 98/6/2 102/6/2
f 99/6/2 100/6/2 103/6/2
f 103/6/2 100/6/2 104/6/2
f 105/6/2 106/6/2 109/6/2
f 109/6/2 106/6/2 110/6/2
f 107/6/2 108/6/2 111/6/2
f 111/6/2 108/6/2 112/6/2
f 113/2/2 114/2/2 117/2/2
f 115/2/2 116/2/2 118/2/2
f 113/2/2 117/2/2 120/2/2
f 117/2/2 118/2/2 120/2/2
f 118/2/2 116/2/2 121/2/2
f 120/2/2 118/2/2 121/2/2
f 119/3/2 120/3/2 123/3/2
f 121/3/2 122/3/2 123/3/2
f 120/3/2 121/3/2 123/3/2
f 123/3/2 122/3/2 124/3/2
f 125/6/2 126/6/2 129/6/2
f 129/6/2 126/6/2 130/6/2
f 127/6/2 128/6/2 131/6/2
f 131/6/2 128/6/2 132/6/2
f 133/2/2 134/2/2 137/2/2
f 137/2/2 134/2/2 138/2/2
f 135/2/2 136/2/2 139/2/2
f 139/2/2 136/2/2 140/2/2
f 141/5/2 142/5/2 146/5/2
f 143/5/2 144/5/2 146/5/2
f 142/5/2 143/5/2 146/5/2
f 146/5/2 144/5/2 147/5/2
f 147/5/2 144/5/2 148/5/2
f 148/5/2 144/5/2 149/5/2
f 145/5/2 146/5/2 151/5/2
f 146/5/2 147/5/2 151/5/2
f 151/5/2 147/5/2 152/5/2
f 149/5/2 150/5/2 153/5/2
f 148/5/2 149/5/2 153/5/2
f 153/5/2 150/5/2 154/5/2
f 152/5/2 147/5/2 155/5/2
f 147/1/2 148/1/2 155/1/2
f 148/5/2 153/5/2 156/5/2
f 155/1/2 148/1/2 156/1/2
f 152/5/2 155/5/2 157/5/2
f 155/5/2 156/5/2 157/5/2
f 156/5/2 153/5/2 158/5/2
f 157/5/2 156/5/2 158/5/2
f 159/2/2 160/2/2 161/2/2
f 161/2/2 160/2/2 162/2/2
f 162/2/2 160/2/2 163/2/2
f 163/2/2 160/2/2 164/2/2
f 164/2/2 160/2/2 165/2/2
f 165/2/2 160/2/2 166/2/2
f 166/2/2 160/2/2 167/2/2
f 167/2/2 160/2/2 168/2/2
f 168/2/2 160/2/2 169/2/2
f 169/2/2 160/2/2 170/2/2
f 170/2/2 160/2/2 171/2/2
f 171/2/2 160/2/2 172/2/2
f 172/2/2 160/2/2 173/2/2
f 173/2/2 160/2/2 174/2/2
f 163/2/2 164/2/2 175/2/2
f 164/6/2 165/6/2 175/6/2
f 165/2/2 166/2/2 176/2/2
f 175/6/2 165/6/2 176/6/2
f 166/6/2 167/6/2 177/6/2
f 176/2/2 166/2/2 177/2/2
f 167/2/2 168/2/2 178/2/2
f 177/6/2 167/6/2 178/6/2
f 168/6/2 169/6/2 179/6/2
f 178/2/2 168/2/2 179/2/2
f 169/2/2 170/2/2 180/2/2
f 179/6/2 169/6/2 180/6/2
f 170/6/2 171/6/2 181/6/2
f 180/2/2 170/2/2 181/2/2
f 171/2/2 172/2/2 182/2/2
f 181/6/2 171/6/2 182/6/2
f 162/4/2 163/4/2 183/4/2
f 180/2/2 181/2/2 184/2/2
f 183/4/2 163/4/2 184/4/2
f 163/2/2 175/2/2 184/2/2
f 181/2/2 182/2/2 184/2/2
f 179/2/2 180/2/2 184/2/2
f 178/2/2 179/2/2 184/2/2
f 177/2/2 178/2/2 184/2/2
f 176/2/2 177/2/2 184/2/2
f 175/2/2 176/2/2 184/2/2
f 182/2/2 172/2/2 185/2/2
f 184/2/2 182/2/2 185/2/2
f 172/4/2 173/4/2 185/4/2
f 185/4/2 173/4/2 186/4/2
f 189/3/3 188/3/3 187/3/3
f 190/3/3 188/3/3 189/3/3
f 191/3/3 189/3/3 187/3/3
f 192/3/3 188/3/3 190/3/3
f 193/3/3 191/3/3 187/3/3
f 193/3/3 192/3/3 191/3/3
f 194/3/3 188/3/3 192/3/3
f 194/3/3 192/3/3 193/3/3
f 197/5/3 196/5/3 195/5/3
f 198/5/3 196/5/3 197/5/3
f 204/2/3 202/2/3 201/2/3
f 204/4/3 203/4/3 202/4/3
f 205/4/3 203/4/3 204/4/3
f 207/2/3 204/2/3 201/2/3
f 207/2/3 205/2/3 204/2/3
f 208/2/3 205/2/3 207/2/3
f 209/6/3 207/6/3 206/6/3
f 209/6/3 208/6/3 207/6/3
f 210/6/3 208/6/3 209/6/3
f 211/6/3 209/6/3 206/6/3
f 211/5/3 210/5/3 209/5/3
f 212/6/3 208/6/3 210/6/3
f 212/5/3 210/5/3 211/5/3
f 213/6/3 211/6/3 206/6/3
f 213/6/3 212/6/3 211/6/3
f 214/6/3 212/6/3 213/6/3
f 215/2/3 205/2/3 208/2/3
f 215/6/3 212/6/3 214/6/3
f 215/6/3 208/6/3 212/6/3
f 217/2/3 215/2/3 214/2/3
f 218/2/3 205/2/3 215/2/3
f 218/2/3 215/2/3 217/2/3
f 219/6/3 217/6/3 216/6/3
f 219/6/3 218/6/3 217/6/3
f 220/6/3 218/6/3 219/6/3
f 221/6/3 219/6/3 216/6/3
f 221/5/3 220/5/3 219/5/3
f 222/6/3 218/6/3 220/6/3
f 222/5/3 220/5/3 221/5/3
f 223/6/3 221/6/3 216/6/3
f 223/6/3 222/6/3 221/6/3
f 224/6/3 222/6/3 223/6/3
f 225/2/3 205/2/3 218/2/3
f 225/6/3 222/6/3 224/6/3
f 225/6/3 218/6/3 222/6/3
f 226/3/3 200/3/3 199/3/3
f 227/3/3 200/3/3 226/3/3
f 228/2/3 225/2/3 224/2/3
f 229/2/3 205/2/3 225/2/3
f 229/2/3 225/2/3 228/2/3
f 232/2/3 231/2/3 230/2/3
f 235/2/3 232/2/3 230/2/3
f 235/2/3 233/2/3 232/2/3
f 236/2/3 233/2/3 235/2/3
f 237/6/3 235/6/3 234/6/3
f 237/6/3 236/6/3 235/6/3
f 238/6/3 236/6/3 237/6/3
f 239/6/3 237/6/3 234/6/3
f 239/5/3 238/5/3 237/5/3
f 240/6/3 236/6/3 238/6/3
f 240/5/3 238/5/3 239/5/3
f 241/6/3 239/6/3 234/6/3
f 241/6/3 240/6/3 239/6/3
f 242/6/3 240/6/3 241/6/3
f 243/2/3 233/2/3 236/2/3
f 243/6/3 240/6/3 242/6/3
f 243/6/3 236/6/3 240/6/3
f 244/2/3 243/2/3 242/2/3
f 245/2/3 233/2/3 243/2/3
f 245/2/3 243/2/3 244/2/3
f 246/2/3 244/2/3 242/2/3
f 247/2/3 244/2/3 246/2/3
f 250/2/3 249/2/3 248/2/3
f 251/2/3 249/2/3 250/2/3
f 253/5/3 252/5/3 251/5/3
f 254/5/3 252/5/3 253/5/3
f 255/5/3 252/5/3 254/5/3
f 256/5/3 252/5/3 255/5/3
f 257/5/3 255/5/3 254/5/3
f 257/1/3 256/1/3 255/1/3
f 258/5/3 252/5/3 256/5/3
f 258/1/3 256/1/3 257/1/3
f 259/5/3 257/5/3 254/5/3
f 259/5/3 258/5/3 257/5/3
f 260/5/3 252/5/3 258/5/3
f 260/5/3 258/5/3 259/5/3
f 262/5/3 259/5/3 254/5/3
f 263/1/3 260/1/3 259/1/3
f 263/5/3 262/5/3 261/5/3
f 263/5/3 259/5/3 262/5/3
f 264/5/3 252/5/3 260/5/3
f 264/1/3 260/1/3 263/1/3
f 265/5/3 263/5/3 261/5/3
f 265/5/3 264/5/3 263/5/3
f 266/5/3 264/5/3 265/5/3
f 267/5/3 265/5/3 261/5/3
f 268/5/3 265/5/3 267/5/3
f 269/5/3 265/5/3 268/5/3
f 270/5/3 264/5/3 266/5/3
f 271/5/3 252/5/3 264/5/3
f 271/5/3 264/5/3 270/5/3
f 272/4/3 268/4/3 267/4/3
f 273/4/3 268/4/3 272/4/3
f 276/6/3 275/6/3 274/6/3
f 277/6/3 275/6/3 276/6/3
f 280/6/3 279/6/3 278/6/3
f 281/6/3 279/6/3 280/6/3
f 284/6/3 283/6/3 282/6/3
f 285/6/3 283/6/3 284/6/3
f 288/3/3 287/3/3 286/3/3
f 289/3/3 287/3/3 288/3/3
f 290/3/4 291/3/4 292/3/4
f 292/3/4 291/3/4 293/3/4
f 294/6/4 295/6/4 296/6/4
f 296/6/4 295/6/4 297/6/4
f 298/6/4 299/6/4 300/6/4
f 300/6/4 299/6/4 301/6/4
f 302/6/4 303/6/4 304/6/4
f 304/6/4 303/6/4 305/6/4
f 306/2/4 307/2/4 308/2/4
f 308/2/4 307/2/4 309/2/4
f 309/5/4 310/5/4 311/5/4
f 311/5/4 310/5/4 312/5/4
f 312/5/4 310/5/4 313/5/4
f 313/5/4 310/5/4 314/5/4
f 312/5/4 313/5/4 315/5/4
f 313/1/4 314/1/4 315/1/4
f 314/5/4 310/5/4 316/5/4
f 315/1/4 314/1/4 316/1/4
f 312/5/4 315/5/4 317/5/4
f 315/5/4 316/5/4 317/5/4
f 316/5/4 310/5/4 318/5/4
f 317/5/4 316/5/4 318/5/4
f 312/5/4 317/5/4 320/5/4
f 317/1/4 318/1/4 321/1/4
f 319/5/4 320/5/4 321/5/4
f 320/5/4 317/5/4 321/5/4
f 318/5/4 310/5/4 322/5/4
f 321/1/4 318/1/4 322/1/4
f 319/5/4 321/5/4 323/5/4
f 321/5/4 322/5/4 323/5/4
f 323/5/4 322/5/4 324/5/4
f 319/5/4 323/5/4 325/5/4
f 325/5/4 323/5/4 326/5/4
f 326/5/4 323/5/4 327/5/4
f 324/5/4 322/5/4 328/5/4
f 322/5/4 310/5/4 329/5/4
f 328/5/4 322/5/4 329/5/4
f 325/4/4 326/4/4 330/4/4
f 330/4/4 326/4/4 331/4/4
f 334/2/4 335/2/4 337/2/4
f 335/4/4 336/4/4 337/4/4
f 337/4/4 336/4/4 338/4/4
f 334/2/4 337/2/4 340/2/4
f 337/2/4 338/2/4 340/2/4
f 340/2/4 338/2/4 341/2/4
f 339/6/4 340/6/4 342/6/4
f 340/6/4 341/6/4 342/6/4
f 342/6/4 341/6/4 343/6/4
f 339/6/4 342/6/4 344/6/4
f 342/5/4 343/5/4 344/5/4
f 343/6/4 341/6/4 345/6/4
f 344/5/4 343/5/4 345/5/4
f 339/6/4 344/6/4 346/6/4
f 344/6/4 345/6/4 346/6/4
f 346/6/4 345/6/4 347/6/4
f 341/2/4 338/2/4 348/2/4
f 347/6/4 345/6/4 348/6/4
f 345/6/4 341/6/4 348/6/4
f 347/2/4 348/2/4 350/2/4
f 348/2/4 338/2/4 351/2/4
f 350/2/4 348/2/4 351/2/4
f 349/6/4 350/6/4 352/6/4
f 350/6/4 351/6/4 352/6/4
f 352/6/4 351/6/4 353/6/4
f 349/6/4 352/6/4 354/6/4
f 352/5/4 353/5/4 354/5/4
f 353/6/4 351/6/4 355/6/4
f 354/5/4 353/5/4 355/5/4
f 349/6/4 354/6/4 356/6/4
f 354/6/4 355/6/4 356/6/4
f 356/6/4 355/6/4 357/6/4
f 351/2/4 338/2/4 358/2/4
f 357/6/4 355/6/4 358/6/4
f 355/6/4 351/6/4 358/6/4
f 332/3/4 333/3/4 359/3/4
f 359/3/4 333/3/4 360/3/4
f 357/2/4 358/2/4 361/2/4
f 358/2/4 338/2/4 362/2/4
f 361/2/4 358/2/4 362/2/4
f 363/2/4 364/2/4 365/2/4
f 363/2/4 365/2/4 368/2/4
f 365/2/4 366/2/4 368/2/4
f 368/2/4 366/2/4 369/2/4
f 367/6/4 368/6/4 370/6/4
f 368/6/4 369/6/4 370/6/4
f 370/6/4 369/6/4 371/6/4
f 367/6/4 370/6/4 372/6/4
f 370/5/4 371/5/4 372/5/4
f 371/6/4 369/6/4 373/6/4
f 372/5/4 371/5/4 373/5/4
f 367/6/4 372/6/4 374/6/4
f 372/6/4 373/6/4 374/6/4
f 374/6/4 373/6/4 375/6/4
f 369/2/4 366/2/4 376/2/4
f 375/6/4 373/6/4 376/6/4
f 373/6/4 369/6/4 376/6/4
f 375/2/4 376/2/4 377/2/4
f 376/2/4 366/2/4 378/2/4
f 377/2/4 376/2/4 378/2/4
f 375/2/4 377/2/4 379/2/4
f 379/2/4 377/2/4 380/2/4
f 381/3/4 382/3/4 383/3/4
f 383/3/4 382/3/4 384/3/4
f 381/3/4 383/3/4 385/3/4
f 384/3/4 382/3/4 386/3/4
f 381/3/4 385/3/4 387/3/4
f 385/3/4 386/3/4 387/3/4
f 386/3/4 382/3/4 388/3/4
f 387/3/4 386/3/4 388/3/4
f 389/5/4 390/5/4 391/5/4
f 391/5/4 390/5/4 392/5/4
f 399/6/5 394/6/5 393/6/5
f 400/6/5 394/6/5 399/6/5
f 401/6/5 396/6/5 395/6/5
f 402/6/5 396/6/5 401/6/5
f 403/6/5 398/6/5 397/6/5
f 404/6/5 398/6/5 403/6/5
f 411/6/5 406/6/5 405/6/5
f 412/6/5 406/6/5 411/6/5
f 413/6/5 408/6/5 407/6/5
f 414/6/5 408/6/5 413/6/5
f 415/6/5 410/6/5 409/6/5
f 416/6/5 410/6/5 415/6/5
f 427/2/5 422/2/5 421/2/5
f 428/2/5 424/2/5 423/2/5
f 429/2/5 418/2/5 417/2/5
f 430/2/5 420/2/5 419/2/5
f 431/2/5 420/2/5 430/2/5
f 432/2/5 428/2/5 427/2/5
f 432/2/5 427/2/5 421/2/5
f 433/2/5 424/2/5 428/2/5
f 433/2/5 428/2/5 432/2/5
f 434/2/5 426/2/5 425/2/5
f 435/2/5 431/2/5 430/2/5
f 435/2/5 434/2/5 433/2/5
f 435/2/5 429/2/5 417/2/5
f 435/2/5 433/2/5 432/2/5
f 435/2/5 430/2/5 429/2/5
f 435/2/5 432/2/5 431/2/5
f 436/2/5 434/2/5 435/2/5
f 437/5/5 436/5/5 435/5/5
f 438/2/5 434/2/5 436/2/5
f 438/5/5 436/5/5 437/5/5
f 439/2/5 438/2/5 437/2/5
f 439/2/5 434/2/5 438/2/5
f 440/2/5 434/2/5 439/2/5
f 441/2/5 434/2/5 440/2/5
f 442/2/5 434/2/5 441/2/5
f 443/2/5 434/2/5 442/2/5
f 444/2/5 426/2/5 434/2/5
f 444/2/5 434/2/5 443/2/5
f 445/2/5 443/2/5 442/2/5
f 446/2/5 443/2/5 445/2/5
f 447/2/5 439/2/5 437/2/5
f 448/2/5 439/2/5 447/2/5
f 449/2/5 441/2/5 440/2/5
f 450/2/5 441/2/5 449/2/5
f 451/2/5 445/2/5 442/2/5
f 452/2/5 445/2/5 451/2/5
f 453/2/5 443/2/5 446/2/5
f 454/2/5 443/2/5 453/2/5
f 455/2/5 426/2/5 444/2/5
f 456/2/5 426/2/5 455/2/5
f 459/3/5 458/3/5 457/3/5
f 460/3/5 458/3/5 459/3/5
f 461/3/5 458/3/5 460/3/5
f 462/3/5 459/3/5 457/3/5
f 463/3/5 462/3/5 457/3/5
f 464/3/5 463/3/5 457/3/5
f 467/3/5 464/3/5 457/3/5
f 467/3/5 466/3/5 465/3/5
f 467/3/5 465/3/5 464/3/5
f 468/3/5 466/3/5 467/3/5
f 471/5/5 470/5/5 469/5/5
f 472/5/5 470/5/5 471/5/5
f 475/5/5 474/5/5 473/5/5
f 476/5/5 474/5/5 475/5/5
f 480/3/5 478/3/5 477/3/5
f 481/3/5 478/3/5 480/3/5
f 482/3/5 480/3/5 479/3/5
f 483/3/5 480/3/5 482/3/5
f 485/3/5 484/3/5 483/3/5
f 486/3/5 484/3/5 485/3/5
f 487/2/6 488/2/6 492/2/6
f 492/2/6 488/2/6 493/2/6
f 489/2/6 490/2/6 494/2/6
f 494/2/6 490/2/6 495/2/6
f 495/2/6 490/2/6 496/2/6
f 491/2/6 492/2/6 497/2/6
f 497/2/6 492/2/6 498/2/6
f 498/2/6 499/2/6 503/2/6
f 503/2/6 499/2/6 504/2/6
f 501/2/6 502/2/6 505/2/6
f 500/2/6 501/2/6 505/2/6
f 505/2/6 502/2/6 506/2/6
f 507/2/6 508/2/6 509/2/6
f 509/2/6 508/2/6 510/2/6
f 511/2/6 512/2/6 513/2/6
f 513/2/6 512/2/6 514/2/6
f 515/3/6 516/3/6 518/3/6
f 518/3/6 516/3/6 519/3/6
f 520/4/6 521/4/6 522/4/6
f 522/4/6 521/4/6 523/4/6
f 522/2/6 523/2/6 524/2/6
f 524/2/6 523/2/6 525/2/6
f 524/4/6 525/4/6 526/4/6
f 526/4/6 525/4/6 527/4/6
f 517/3/6 518/3/6 528/3/6
f 528/3/6 518/3/6 529/3/6
f 529/3/6 530/3/6 531/3/6
f 531/3/6 530/3/6 532/3/6
f 533/5/6 534/5/6 535/5/6
f 535/5/6 534/5/6 536/5/6
f 537/5/6 538/5/6 539/5/6
f 539/5/6 538/5/6 540/5/6
f 541/5/6 542/5/6 543/5/6
f 543/5/6 542/5/6 544/5/6
f 545/3/6 546/3/6 547/3/6
f 547/3/6 546/3/6 548/3/6
