# MagicaVoxel @ Ephtracy

# group
o 

# material
mtllib ambulance.mtl
usemtl palette

# normals
vn -1 0 0
vn 1 0 0
vn 0 0 1
vn 0 0 -1
vn 0 -1 0
vn 0 1 0

# texcoords
vt 0.876953 0.5
vt 0.880859 0.5
vt 0.908203 0.5
vt 0.916016 0.5
vt 0.947266 0.5
vt 0.970703 0.5

# verts
v -1.6 1.2 0.5
v -1.6 1.2 0.2
v -1.6 1.2 -0.3
v -1.6 1.2 -0.6
v -1.6 1.3 0.5
v -1.6 1.3 0.2
v -1.6 1.3 -0.3
v -1.6 1.3 -0.6
v -1.5 0.2 0.7
v -1.5 0.2 0.1
v -1.5 0.2 -0.2
v -1.5 0.2 -0.8
v -1.5 0.4 0.7
v -1.5 0.4 0.5
v -1.5 0.4 0.2
v -1.5 0.4 0.1
v -1.5 0.4 -0.2
v -1.5 0.4 -0.3
v -1.5 0.4 -0.6
v -1.5 0.4 -0.8
v -1.5 0.5 0.7
v -1.5 0.5 0.5
v -1.5 0.5 0.2
v -1.5 0.5 -0.3
v -1.5 0.5 -0.6
v -1.5 0.5 -0.8
v -1.5 0.8 0.7
v -1.5 0.8 0.5
v -1.5 0.8 0
v -1.5 0.8 -0.1
v -1.5 0.8 -0.6
v -1.5 0.8 -0.8
v -1.5 1.1 0.5
v -1.5 1.1 0
v -1.5 1.1 -0.1
v -1.5 1.1 -0.6
v -1.5 1.2 0.5
v -1.5 1.2 0.2
v -1.5 1.2 -0.3
v -1.5 1.2 -0.6
v -1.5 1.3 0.5
v -1.5 1.3 0.2
v -1.5 1.3 -0.3
v -1.5 1.3 -0.6
v -1.5 1.4 0.7
v -1.5 1.4 -0.8
v -1.3 0 0.7
v -1.3 0 0.5
v -1.3 0 -0.6
v -1.3 0 -0.8
v -1.3 0.2 0.7
v -1.3 0.2 0.5
v -1.3 0.2 -0.6
v -1.3 0.2 -0.8
v 0.5 1.1 0.4
v 0.5 1.1 -0.1
v 0.5 1.1 -0.5
v 0.5 1.2 0.4
v 0.5 1.2 -0.1
v 0.5 1.2 -0.5
v 0.8 0 0.7
v 0.8 0 0.5
v 0.8 0 -0.6
v 0.8 0 -0.8
v 0.8 0.2 0.6
v 0.8 0.2 0.5
v 0.8 0.2 -0.6
v 0.8 0.2 -0.7
v 0.8 0.3 0.6
v 0.8 0.3 -0.7
v 0.8 0.4 0.7
v 0.8 0.4 0.6
v 0.8 0.4 -0.7
v 0.8 0.4 -0.8
v 0.9 0.5 0.8
v 0.9 0.5 0.6
v 0.9 0.5 -0.7
v 0.9 0.5 -0.9
v 0.9 0.6 0.6
v 0.9 0.6 -0.7
v 0.9 0.7 0.8
v 0.9 0.7 0.6
v 0.9 0.7 -0.7
v 0.9 0.7 -0.9
v 1.2 0.2 -0.6
v 1.2 0.2 -0.7
v 1.2 0.3 -0.6
v 1.2 0.3 -0.7
v -0.9 0 0.7
v -0.9 0 0.5
v -0.9 0 -0.6
v -0.9 0 -0.8
v -0.9 0.2 0.7
v -0.9 0.2 0.5
v -0.9 0.2 -0.6
v -0.9 0.2 -0.8
v 0.3 0.2 0.7
v 0.3 0.2 0.6
v 0.3 0.2 -0.7
v 0.3 0.2 -0.8
v 0.3 0.3 0.7
v 0.3 0.3 0.6
v 0.3 0.3 -0.7
v 0.3 0.3 -0.8
v 0.3 0.6 0.6
v 0.3 0.6 -0.7
v 0.3 0.8 0.7
v 0.3 0.8 0.6
v 0.3 0.8 -0.7
v 0.3 0.8 -0.8
v 0.3 1.1 0.6
v 0.3 1.1 -0.7
v 0.3 1.4 0.7
v 0.3 1.4 -0.8
v 0.7 1.1 0.4
v 0.7 1.1 -0.1
v 0.7 1.1 -0.5
v 0.7 1.2 0.4
v 0.7 1.2 -0.1
v 0.7 1.2 -0.5
v 0.8 0.2 -0.6
v 0.8 0.2 -0.7
v 0.8 0.3 -0.6
v 0.8 0.3 -0.7
v 1 0.5 0.8
v 1 0.5 0.6
v 1 0.5 -0.7
v 1 0.5 -0.9
v 1 0.6 0.6
v 1 0.6 -0.7
v 1 0.7 0.8
v 1 0.7 0.6
v 1 0.7 0.5
v 1 0.7 -0.6
v 1 0.7 -0.7
v 1 0.7 -0.9
v 1 1 0.5
v 1 1 -0.6
v 1 1.1 0.6
v 1 1.1 -0.7
v 1.2 0 0.7
v 1.2 0 0.5
v 1.2 0 -0.6
v 1.2 0 -0.8
v 1.2 0.2 0.6
v 1.2 0.2 0.5
v 1.2 0.2 -0.6
v 1.2 0.2 -0.7
v 1.2 0.4 0.7
v 1.2 0.4 0.6
v 1.2 0.4 -0.7
v 1.2 0.4 -0.8
v 1.6 0.2 0.6
v 1.6 0.2 -0.7
v 1.6 0.3 0.3
v 1.6 0.3 0.2
v 1.6 0.3 0.1
v 1.6 0.3 0
v 1.6 0.3 -0.1
v 1.6 0.3 -0.2
v 1.6 0.3 -0.3
v 1.6 0.3 -0.4
v 1.6 0.4 0.6
v 1.6 0.4 0.4
v 1.6 0.4 -0.5
v 1.6 0.4 -0.7
v 1.6 0.5 0.3
v 1.6 0.5 0.2
v 1.6 0.5 0.1
v 1.6 0.5 0
v 1.6 0.5 -0.1
v 1.6 0.5 -0.2
v 1.6 0.5 -0.3
v 1.6 0.5 -0.4
v 1.6 0.6 0.6
v 1.6 0.6 0.4
v 1.6 0.6 -0.5
v 1.6 0.6 -0.7
v 1.6 0.7 0.6
v 1.6 0.7 -0.7
v 0.9 0.5 0.8
v 0.9 0.7 0.8
v 1 0.5 0.8
v 1 0.7 0.8
v -1.5 0.2 0.7
v -1.5 0.4 0.7
v -1.5 0.5 0.7
v -1.5 0.8 0.7
v -1.5 1.4 0.7
v -1.4 0.4 0.7
v -1.4 0.5 0.7
v -1.3 0 0.7
v -1.3 0.2 0.7
v -1.3 0.4 0.7
v -1.2 0.1 0.7
v -1.2 0.3 0.7
v -1 0.1 0.7
v -1 0.3 0.7
v -0.9 0 0.7
v -0.9 0.2 0.7
v -0.9 0.4 0.7
v -0.8 0.3 0.7
v -0.8 0.4 0.7
v -0.2 1 0.7
v -0.2 1.1 0.7
v -0.1 0.9 0.7
v -0.1 1 0.7
v -0.1 1.1 0.7
v -0.1 1.2 0.7
v 0 0.9 0.7
v 0 1 0.7
v 0 1.1 0.7
v 0 1.2 0.7
v 0.1 1 0.7
v 0.1 1.1 0.7
v 0.3 0.2 0.7
v 0.3 0.3 0.7
v 0.3 0.8 0.7
v 0.3 1.4 0.7
v 0.8 0 0.7
v 0.8 0.4 0.7
v 0.9 0.1 0.7
v 0.9 0.3 0.7
v 1.1 0.1 0.7
v 1.1 0.3 0.7
v 1.2 0 0.7
v 1.2 0.4 0.7
v 0.3 0.2 0.6
v 0.3 0.3 0.6
v 0.3 0.6 0.6
v 0.3 0.8 0.6
v 0.3 1.1 0.6
v 0.4 0.7 0.6
v 0.4 1 0.6
v 0.8 0.2 0.6
v 0.8 0.3 0.6
v 0.8 0.4 0.6
v 0.9 0.5 0.6
v 0.9 0.6 0.6
v 0.9 0.7 0.6
v 0.9 1 0.6
v 1 0.5 0.6
v 1 0.6 0.6
v 1 0.7 0.6
v 1 1.1 0.6
v 1.2 0.2 0.6
v 1.2 0.4 0.6
v 1.5 0.4 0.6
v 1.5 0.6 0.6
v 1.6 0.2 0.6
v 1.6 0.4 0.6
v 1.6 0.6 0.6
v 1.6 0.7 0.6
v -1.6 1.2 0.5
v -1.6 1.3 0.5
v -1.5 1.2 0.5
v -1.5 1.3 0.5
v 0.5 1.1 0.4
v 0.5 1.2 0.4
v 0.7 1.1 0.4
v 0.7 1.2 0.4
v -1.6 1.2 -0.3
v -1.6 1.3 -0.3
v -1.5 1.2 -0.3
v -1.5 1.3 -0.3
v -1.3 0 -0.6
v -1.3 0.2 -0.6
v -0.9 0 -0.6
v -0.9 0.2 -0.6
v 0.8 0 -0.6
v 0.8 0.2 -0.6
v 1.2 0 -0.6
v 1.2 0.2 -0.6
v 0.8 0.2 -0.7
v 0.8 0.3 -0.7
v 0.9 0.2 -0.7
v 0.9 0.3 -0.7
v 1.1 0.2 -0.7
v 1.1 0.3 -0.7
v 1.2 0.2 -0.7
v 1.2 0.3 -0.7
v -1.3 0 0.5
v -1.3 0.2 0.5
v -0.9 0 0.5
v -0.9 0.2 0.5
v 0.8 0 0.5
v 0.8 0.2 0.5
v 1.2 0 0.5
v 1.2 0.2 0.5
v -1.6 1.2 0.2
v -1.6 1.3 0.2
v -1.5 1.2 0.2
v -1.5 1.3 0.2
v 0.5 1.1 -0.5
v 0.5 1.2 -0.5
v 0.7 1.1 -0.5
v 0.7 1.2 -0.5
v -1.6 1.2 -0.6
v -1.6 1.3 -0.6
v -1.5 1.2 -0.6
v -1.5 1.3 -0.6
v 0.8 0.2 -0.6
v 0.8 0.3 -0.6
v 1.2 0.2 -0.6
v 1.2 0.3 -0.6
v 0.3 0.2 -0.7
v 0.3 0.3 -0.7
v 0.3 0.6 -0.7
v 0.3 0.8 -0.7
v 0.3 1.1 -0.7
v 0.4 0.7 -0.7
v 0.4 1 -0.7
v 0.8 0.2 -0.7
v 0.8 0.3 -0.7
v 0.8 0.4 -0.7
v 0.9 0.5 -0.7
v 0.9 0.6 -0.7
v 0.9 0.7 -0.7
v 0.9 1 -0.7
v 1 0.5 -0.7
v 1 0.6 -0.7
v 1 0.7 -0.7
v 1 1.1 -0.7
v 1.2 0.2 -0.7
v 1.2 0.4 -0.7
v 1.5 0.4 -0.7
v 1.5 0.6 -0.7
v 1.6 0.2 -0.7
v 1.6 0.4 -0.7
v 1.6 0.6 -0.7
v 1.6 0.7 -0.7
v -1.5 0.2 -0.8
v -1.5 0.4 -0.8
v -1.5 0.5 -0.8
v -1.5 0.8 -0.8
v -1.5 1.4 -0.8
v -1.4 0.4 -0.8
v -1.4 0.5 -0.8
v -1.3 0 -0.8
v -1.3 0.2 -0.8
v -1.3 0.4 -0.8
v -1.2 0.1 -0.8
v -1.2 0.3 -0.8
v -1 0.1 -0.8
v -1 0.3 -0.8
v -0.9 0 -0.8
v -0.9 0.2 -0.8
v -0.9 0.4 -0.8
v -0.8 0.3 -0.8
v -0.8 0.4 -0.8
v -0.2 1 -0.8
v -0.2 1.1 -0.8
v -0.1 0.9 -0.8
v -0.1 1 -0.8
v -0.1 1.1 -0.8
v -0.1 1.2 -0.8
v 0 0.9 -0.8
v 0 1 -0.8
v 0 1.1 -0.8
v 0 1.2 -0.8
v 0.1 1 -0.8
v 0.1 1.1 -0.8
v 0.3 0.2 -0.8
v 0.3 0.3 -0.8
v 0.3 0.8 -0.8
v 0.3 1.4 -0.8
v 0.8 0 -0.8
v 0.8 0.4 -0.8
v 0.9 0.1 -0.8
v 0.9 0.3 -0.8
v 1.1 0.1 -0.8
v 1.1 0.3 -0.8
v 1.2 0 -0.8
v 1.2 0.4 -0.8
v 0.9 0.5 -0.9
v 0.9 0.7 -0.9
v 1 0.5 -0.9
v 1 0.7 -0.9
v -1.3 0 0.7
v -0.9 0 0.7
v 0.8 0 0.7
v 1.2 0 0.7
v -1.3 0 0.5
v -0.9 0 0.5
v 0.8 0 0.5
v 1.2 0 0.5
v -1.3 0 -0.6
v -0.9 0 -0.6
v 0.8 0 -0.6
v 1.2 0 -0.6
v -1.3 0 -0.8
v -0.9 0 -0.8
v 0.8 0 -0.8
v 1.2 0 -0.8
v -1.5 0.2 0.7
v -1.3 0.2 0.7
v -0.9 0.2 0.7
v 0.3 0.2 0.7
v 0.3 0.2 0.6
v 0.8 0.2 0.6
v 1.2 0.2 0.6
v 1.6 0.2 0.6
v -1.3 0.2 0.5
v -0.9 0.2 0.5
v 0.8 0.2 0.5
v 1.2 0.2 0.5
v -1.5 0.2 0.1
v -1.4 0.2 0.1
v -1.5 0.2 -0.2
v -1.4 0.2 -0.2
v -1.3 0.2 -0.6
v -0.9 0.2 -0.6
v 0.8 0.2 -0.6
v 1.2 0.2 -0.6
v 0.3 0.2 -0.7
v 0.8 0.2 -0.7
v 1.2 0.2 -0.7
v 1.6 0.2 -0.7
v -1.5 0.2 -0.8
v -1.3 0.2 -0.8
v -0.9 0.2 -0.8
v 0.3 0.2 -0.8
v 0.8 0.3 -0.6
v 1.2 0.3 -0.6
v 0.8 0.3 -0.7
v 0.9 0.3 -0.7
v 1.1 0.3 -0.7
v 1.2 0.3 -0.7
v 0.9 0.5 0.8
v 1 0.5 0.8
v 0.9 0.5 0.6
v 1 0.5 0.6
v 0.9 0.5 -0.7
v 1 0.5 -0.7
v 0.9 0.5 -0.9
v 1 0.5 -0.9
v -1.6 1.2 0.5
v -1.5 1.2 0.5
v -1.6 1.2 0.2
v -1.5 1.2 0.2
v -1.6 1.2 -0.3
v -1.5 1.2 -0.3
v -1.6 1.2 -0.6
v -1.5 1.2 -0.6
v 0.8 0.2 -0.6
v 1.2 0.2 -0.6
v 0.8 0.2 -0.7
v 0.9 0.2 -0.7
v 1.1 0.2 -0.7
v 1.2 0.2 -0.7
v 0.8 0.4 0.7
v 1.2 0.4 0.7
v 0.8 0.4 0.6
v 1.2 0.4 0.6
v 0.8 0.4 -0.7
v 1.2 0.4 -0.7
v 0.8 0.4 -0.8
v 1.2 0.4 -0.8
v 0.9 0.7 0.8
v 1 0.7 0.8
v 0.9 0.7 0.6
v 1 0.7 0.6
v 1.6 0.7 0.6
v 1 0.7 0.5
v 1 0.7 -0.6
v 0.9 0.7 -0.7
v 1 0.7 -0.7
v 1.6 0.7 -0.7
v 0.9 0.7 -0.9
v 1 0.7 -0.9
v 0.3 1.1 0.6
v 1 1.1 0.6
v 0.5 1.1 0.4
v 0.7 1.1 0.4
v 0.5 1.1 -0.1
v 0.7 1.1 -0.1
v 0.5 1.1 -0.5
v 0.7 1.1 -0.5
v 0.3 1.1 -0.7
v 1 1.1 -0.7
v 0.5 1.2 0.4
v 0.7 1.2 0.4
v 0.5 1.2 -0.1
v 0.7 1.2 -0.1
v 0.5 1.2 -0.5
v 0.7 1.2 -0.5
v -1.6 1.3 0.5
v -1.5 1.3 0.5
v -1.6 1.3 0.2
v -1.5 1.3 0.2
v -1.6 1.3 -0.3
v -1.5 1.3 -0.3
v -1.6 1.3 -0.6
v -1.5 1.3 -0.6
v -1.5 1.4 0.7
v 0.3 1.4 0.7
v -1.5 1.4 -0.8
v 0.3 1.4 -0.8

# faces
f 5/3/1 2/3/1 1/3/1
f 6/3/1 2/3/1 5/3/1
f 7/3/1 4/3/1 3/3/1
f 8/3/1 4/3/1 7/3/1
f 13/2/1 10/2/1 9/2/1
f 14/2/1 10/2/1 13/2/1
f 15/2/1 10/2/1 14/2/1
f 16/5/1 11/5/1 10/5/1
f 16/2/1 10/2/1 15/2/1
f 17/2/1 12/2/1 11/2/1
f 17/5/1 11/5/1 16/5/1
f 18/2/1 12/2/1 17/2/1
f 19/2/1 12/2/1 18/2/1
f 20/2/1 12/2/1 19/2/1
f 21/4/1 14/4/1 13/4/1
f 22/3/1 15/3/1 14/3/1
f 22/4/1 14/4/1 21/4/1
f 23/6/1 16/6/1 15/6/1
f 23/3/1 15/3/1 22/3/1
f 23/6/1 17/6/1 16/6/1
f 23/6/1 18/6/1 17/6/1
f 24/3/1 19/3/1 18/3/1
f 24/6/1 18/6/1 23/6/1
f 25/4/1 20/4/1 19/4/1
f 25/3/1 19/3/1 24/3/1
f 26/4/1 20/4/1 25/4/1
f 27/3/1 22/3/1 21/3/1
f 27/3/1 24/3/1 23/3/1
f 27/3/1 26/3/1 25/3/1
f 27/3/1 25/3/1 24/3/1
f 27/3/1 23/3/1 22/3/1
f 28/3/1 26/3/1 27/3/1
f 29/3/1 26/3/1 28/3/1
f 30/3/1 26/3/1 29/3/1
f 31/3/1 26/3/1 30/3/1
f 32/3/1 26/3/1 31/3/1
f 33/5/1 28/5/1 27/5/1
f 33/1/1 29/1/1 28/1/1
f 34/5/1 30/5/1 29/5/1
f 34/1/1 29/1/1 33/1/1
f 35/1/1 31/1/1 30/1/1
f 35/5/1 30/5/1 34/5/1
f 36/5/1 32/5/1 31/5/1
f 36/1/1 31/1/1 35/1/1
f 37/5/1 35/5/1 34/5/1
f 37/5/1 33/5/1 27/5/1
f 37/5/1 36/5/1 35/5/1
f 37/5/1 34/5/1 33/5/1
f 38/5/1 36/5/1 37/5/1
f 39/5/1 36/5/1 38/5/1
f 40/5/1 32/5/1 36/5/1
f 40/5/1 36/5/1 39/5/1
f 41/5/1 37/5/1 27/5/1
f 42/5/1 39/5/1 38/5/1
f 43/5/1 39/5/1 42/5/1
f 44/5/1 32/5/1 40/5/1
f 45/5/1 41/5/1 27/5/1
f 45/5/1 44/5/1 43/5/1
f 45/5/1 43/5/1 42/5/1
f 45/5/1 42/5/1 41/5/1
f 46/5/1 32/5/1 44/5/1
f 46/5/1 44/5/1 45/5/1
f 51/6/1 48/6/1 47/6/1
f 52/6/1 48/6/1 51/6/1
f 53/6/1 50/6/1 49/6/1
f 54/6/1 50/6/1 53/6/1
f 58/1/1 56/1/1 55/1/1
f 59/3/1 57/3/1 56/3/1
f 59/1/1 56/1/1 58/1/1
f 60/3/1 57/3/1 59/3/1
f 65/6/1 62/6/1 61/6/1
f 66/6/1 62/6/1 65/6/1
f 67/6/1 64/6/1 63/6/1
f 68/6/1 64/6/1 67/6/1
f 69/6/1 65/6/1 61/6/1
f 70/6/1 64/6/1 68/6/1
f 71/6/1 69/6/1 61/6/1
f 72/6/1 69/6/1 71/6/1
f 73/6/1 64/6/1 70/6/1
f 74/6/1 64/6/1 73/6/1
f 79/5/1 76/5/1 75/5/1
f 80/5/1 78/5/1 77/5/1
f 81/5/1 79/5/1 75/5/1
f 82/5/1 79/5/1 81/5/1
f 83/5/1 78/5/1 80/5/1
f 84/5/1 78/5/1 83/5/1
f 87/2/1 86/2/1 85/2/1
f 88/2/1 86/2/1 87/2/1
f 89/6/2 90/6/2 93/6/2
f 93/6/2 90/6/2 94/6/2
f 91/6/2 92/6/2 95/6/2
f 95/6/2 92/6/2 96/6/2
f 97/2/2 98/2/2 101/2/2
f 101/2/2 98/2/2 102/2/2
f 99/2/2 100/2/2 103/2/2
f 103/2/2 100/2/2 104/2/2
f 101/3/2 102/3/2 105/3/2
f 103/3/2 104/3/2 106/3/2
f 101/3/2 105/3/2 107/3/2
f 107/3/2 105/3/2 108/3/2
f 106/3/2 104/3/2 109/3/2
f 109/3/2 104/3/2 110/3/2
f 107/5/2 108/5/2 111/5/2
f 109/5/2 110/5/2 112/5/2
f 107/5/2 111/5/2 113/5/2
f 111/5/2 112/5/2 113/5/2
f 112/5/2 110/5/2 114/5/2
f 113/5/2 112/5/2 114/5/2
f 115/1/2 116/1/2 118/1/2
f 116/3/2 117/3/2 119/3/2
f 118/1/2 116/1/2 119/1/2
f 119/3/2 117/3/2 120/3/2
f 121/2/2 122/2/2 123/2/2
f 123/2/2 122/2/2 124/2/2
f 125/5/2 126/5/2 129/5/2
f 127/5/2 128/5/2 130/5/2
f 125/5/2 129/5/2 131/5/2
f 131/5/2 129/5/2 132/5/2
f 130/5/2 128/5/2 135/5/2
f 135/5/2 128/5/2 136/5/2
f 133/1/2 134/1/2 137/1/2
f 132/5/2 133/5/2 137/5/2
f 134/5/2 135/5/2 138/5/2
f 137/1/2 134/1/2 138/1/2
f 132/5/2 137/5/2 139/5/2
f 137/5/2 138/5/2 139/5/2
f 138/5/2 135/5/2 140/5/2
f 139/5/2 138/5/2 140/5/2
f 141/6/2 142/6/2 145/6/2
f 145/6/2 142/6/2 146/6/2
f 143/6/2 144/6/2 147/6/2
f 147/6/2 144/6/2 148/6/2
f 141/6/2 145/6/2 149/6/2
f 149/6/2 145/6/2 150/6/2
f 148/6/2 144/6/2 151/6/2
f 151/6/2 144/6/2 152/6/2
f 153/2/2 154/2/2 155/2/2
f 155/2/2 154/2/2 156/2/2
f 156/2/2 154/2/2 157/2/2
f 157/2/2 154/2/2 158/2/2
f 158/2/2 154/2/2 159/2/2
f 159/2/2 154/2/2 160/2/2
f 160/2/2 154/2/2 161/2/2
f 161/2/2 154/2/2 162/2/2
f 153/2/2 155/2/2 163/2/2
f 163/2/2 155/2/2 164/2/2
f 162/2/2 154/2/2 165/2/2
f 165/2/2 154/2/2 166/2/2
f 164/2/2 155/2/2 167/2/2
f 155/6/2 156/6/2 167/6/2
f 156/2/2 157/2/2 168/2/2
f 167/6/2 156/6/2 168/6/2
f 157/6/2 158/6/2 169/6/2
f 168/2/2 157/2/2 169/2/2
f 158/2/2 159/2/2 170/2/2
f 169/6/2 158/6/2 170/6/2
f 159/6/2 160/6/2 171/6/2
f 170/2/2 159/2/2 171/2/2
f 160/2/2 161/2/2 172/2/2
f 171/6/2 160/6/2 172/6/2
f 161/6/2 162/6/2 173/6/2
f 172/2/2 161/2/2 173/2/2
f 162/2/2 165/2/2 174/2/2
f 173/6/2 162/6/2 174/6/2
f 163/4/2 164/4/2 175/4/2
f 164/2/2 167/2/2 176/2/2
f 175/4/2 164/4/2 176/4/2
f 167/2/2 168/2/2 176/2/2
f 173/2/2 174/2/2 176/2/2
f 172/2/2 173/2/2 176/2/2
f 168/2/2 169/2/2 176/2/2
f 169/2/2 170/2/2 176/2/2
f 171/2/2 172/2/2 176/2/2
f 170/2/2 171/2/2 176/2/2
f 165/4/2 166/4/2 177/4/2
f 176/2/2 174/2/2 177/2/2
f 174/2/2 165/2/2 177/2/2
f 177/4/2 166/4/2 178/4/2
f 175/5/2 176/5/2 179/5/2
f 176/5/2 177/5/2 179/5/2
f 177/5/2 178/5/2 179/5/2
f 179/5/2 178/5/2 180/5/2
f 183/5/3 182/5/3 181/5/3
f 184/5/3 182/5/3 183/5/3
f 190/2/3 186/2/3 185/2/3
f 190/4/3 187/4/3 186/4/3
f 191/3/3 188/3/3 187/3/3
f 191/4/3 187/4/3 190/4/3
f 193/2/3 190/2/3 185/2/3
f 194/3/3 191/3/3 190/3/3
f 194/2/3 190/2/3 193/2/3
f 195/6/3 193/6/3 192/6/3
f 195/6/3 194/6/3 193/6/3
f 196/6/3 194/6/3 195/6/3
f 197/6/3 195/6/3 192/6/3
f 197/5/3 196/5/3 195/5/3
f 198/6/3 194/6/3 196/6/3
f 198/5/3 196/5/3 197/5/3
f 199/6/3 197/6/3 192/6/3
f 199/6/3 198/6/3 197/6/3
f 200/6/3 198/6/3 199/6/3
f 201/3/3 191/3/3 194/3/3
f 201/6/3 198/6/3 200/6/3
f 201/6/3 194/6/3 198/6/3
f 202/2/3 201/2/3 200/2/3
f 203/3/3 191/3/3 201/3/3
f 203/2/3 201/2/3 202/2/3
f 204/5/3 189/5/3 188/5/3
f 205/5/3 189/5/3 204/5/3
f 206/5/3 204/5/3 188/5/3
f 207/3/3 205/3/3 204/3/3
f 207/5/3 204/5/3 206/5/3
f 208/5/3 189/5/3 205/5/3
f 208/3/3 205/3/3 207/3/3
f 209/5/3 189/5/3 208/5/3
f 210/3/3 207/3/3 206/3/3
f 210/5/3 206/5/3 188/5/3
f 210/3/3 209/3/3 208/3/3
f 210/3/3 208/3/3 207/3/3
f 211/3/3 209/3/3 210/3/3
f 212/3/3 209/3/3 211/3/3
f 213/5/3 189/5/3 209/5/3
f 213/3/3 209/3/3 212/3/3
f 214/3/3 212/3/3 211/3/3
f 214/5/3 211/5/3 210/5/3
f 215/5/3 213/5/3 212/5/3
f 215/3/3 212/3/3 214/3/3
f 216/2/3 202/2/3 200/2/3
f 217/3/3 203/3/3 202/3/3
f 217/2/3 202/2/3 216/2/3
f 218/3/3 191/3/3 203/3/3
f 218/3/3 203/3/3 217/3/3
f 218/3/3 188/3/3 191/3/3
f 218/5/3 215/5/3 214/5/3
f 218/5/3 214/5/3 210/5/3
f 218/5/3 210/5/3 188/5/3
f 219/5/3 189/5/3 213/5/3
f 219/5/3 215/5/3 218/5/3
f 219/5/3 213/5/3 215/5/3
f 222/6/3 221/6/3 220/6/3
f 223/6/3 221/6/3 222/6/3
f 224/6/3 222/6/3 220/6/3
f 224/5/3 223/5/3 222/5/3
f 225/6/3 221/6/3 223/6/3
f 225/5/3 223/5/3 224/5/3
f 226/6/3 224/6/3 220/6/3
f 226/6/3 225/6/3 224/6/3
f 227/6/3 221/6/3 225/6/3
f 227/6/3 225/6/3 226/6/3
f 233/5/3 231/5/3 230/5/3
f 233/5/3 232/5/3 231/5/3
f 234/5/3 232/5/3 233/5/3
f 235/2/3 229/2/3 228/2/3
f 236/3/3 230/3/3 229/3/3
f 236/2/3 229/2/3 235/2/3
f 237/3/3 230/3/3 236/3/3
f 238/3/3 230/3/3 237/3/3
f 239/5/3 233/5/3 230/5/3
f 239/3/3 230/3/3 238/3/3
f 240/1/3 234/1/3 233/1/3
f 240/5/3 233/5/3 239/5/3
f 241/5/3 232/5/3 234/5/3
f 241/1/3 234/1/3 240/1/3
f 242/3/3 238/3/3 237/3/3
f 244/5/3 241/5/3 240/5/3
f 245/5/3 232/5/3 241/5/3
f 245/5/3 241/5/3 244/5/3
f 247/3/3 243/3/3 242/3/3
f 247/3/3 242/3/3 237/3/3
f 248/3/3 243/3/3 247/3/3
f 248/2/3 247/2/3 246/2/3
f 249/5/3 244/5/3 243/5/3
f 249/3/3 243/3/3 248/3/3
f 250/2/3 248/2/3 246/2/3
f 251/4/3 249/4/3 248/4/3
f 251/2/3 248/2/3 250/2/3
f 252/5/3 244/5/3 249/5/3
f 252/4/3 249/4/3 251/4/3
f 253/5/3 244/5/3 252/5/3
f 256/3/3 255/3/3 254/3/3
f 257/3/3 255/3/3 256/3/3
f 260/1/3 259/1/3 258/1/3
f 261/1/3 259/1/3 260/1/3
f 264/3/3 263/3/3 262/3/3
f 265/3/3 263/3/3 264/3/3
f 268/6/3 267/6/3 266/6/3
f 269/6/3 267/6/3 268/6/3
f 272/6/3 271/6/3 270/6/3
f 273/6/3 271/6/3 272/6/3
f 276/6/3 275/6/3 274/6/3
f 277/6/3 275/6/3 276/6/3
f 278/5/3 277/5/3 276/5/3
f 279/5/3 277/5/3 278/5/3
f 280/6/3 279/6/3 278/6/3
f 281/6/3 279/6/3 280/6/3
f 282/6/4 283/6/4 284/6/4
f 284/6/4 283/6/4 285/6/4
f 286/6/4 287/6/4 288/6/4
f 288/6/4 287/6/4 289/6/4
f 290/3/4 291/3/4 292/3/4
f 292/3/4 291/3/4 293/3/4
f 294/3/4 295/3/4 296/3/4
f 296/3/4 295/3/4 297/3/4
f 298/3/4 299/3/4 300/3/4
f 300/3/4 299/3/4 301/3/4
f 302/2/4 303/2/4 304/2/4
f 304/2/4 303/2/4 305/2/4
f 308/5/4 309/5/4 311/5/4
f 309/5/4 310/5/4 311/5/4
f 311/5/4 310/5/4 312/5/4
f 306/2/4 307/2/4 313/2/4
f 307/3/4 308/3/4 314/3/4
f 313/2/4 307/2/4 314/2/4
f 314/3/4 308/3/4 315/3/4
f 315/3/4 308/3/4 316/3/4
f 308/5/4 311/5/4 317/5/4
f 316/3/4 308/3/4 317/3/4
f 311/1/4 312/1/4 318/1/4
f 317/5/4 311/5/4 318/5/4
f 312/5/4 310/5/4 319/5/4
f 318/1/4 312/1/4 319/1/4
f 315/3/4 316/3/4 320/3/4
f 318/5/4 319/5/4 322/5/4
f 319/5/4 310/5/4 323/5/4
f 322/5/4 319/5/4 323/5/4
f 320/3/4 321/3/4 325/3/4
f 315/3/4 320/3/4 325/3/4
f 325/3/4 321/3/4 326/3/4
f 324/2/4 325/2/4 326/2/4
f 321/5/4 322/5/4 327/5/4
f 326/3/4 321/3/4 327/3/4
f 324/2/4 326/2/4 328/2/4
f 326/4/4 327/4/4 329/4/4
f 328/2/4 326/2/4 329/2/4
f 327/5/4 322/5/4 330/5/4
f 329/4/4 327/4/4 330/4/4
f 330/5/4 322/5/4 331/5/4
f 332/2/4 333/2/4 337/2/4
f 333/4/4 334/4/4 337/4/4
f 334/3/4 335/3/4 338/3/4
f 337/4/4 334/4/4 338/4/4
f 332/2/4 337/2/4 340/2/4
f 337/3/4 338/3/4 341/3/4
f 340/2/4 337/2/4 341/2/4
f 339/6/4 340/6/4 342/6/4
f 340/6/4 341/6/4 342/6/4
f 342/6/4 341/6/4 343/6/4
f 339/6/4 342/6/4 344/6/4
f 342/5/4 343/5/4 344/5/4
f 343/6/4 341/6/4 345/6/4
f 344/5/4 343/5/4 345/5/4
f 339/6/4 344/6/4 346/6/4
f 344/6/4 345/6/4 346/6/4
f 346/6/4 345/6/4 347/6/4
f 341/3/4 338/3/4 348/3/4
f 347/6/4 345/6/4 348/6/4
f 345/6/4 341/6/4 348/6/4
f 347/2/4 348/2/4 349/2/4
f 348/3/4 338/3/4 350/3/4
f 349/2/4 348/2/4 350/2/4
f 335/5/4 336/5/4 351/5/4
f 351/5/4 336/5/4 352/5/4
f 335/5/4 351/5/4 353/5/4
f 351/3/4 352/3/4 354/3/4
f 353/5/4 351/5/4 354/5/4
f 352/5/4 336/5/4 355/5/4
f 354/3/4 352/3/4 355/3/4
f 355/5/4 336/5/4 356/5/4
f 353/3/4 354/3/4 357/3/4
f 335/5/4 353/5/4 357/5/4
f 355/3/4 356/3/4 357/3/4
f 354/3/4 355/3/4 357/3/4
f 357/3/4 356/3/4 358/3/4
f 358/3/4 356/3/4 359/3/4
f 356/5/4 336/5/4 360/5/4
f 359/3/4 356/3/4 360/3/4
f 358/3/4 359/3/4 361/3/4
f 357/5/4 358/5/4 361/5/4
f 359/5/4 360/5/4 362/5/4
f 361/3/4 359/3/4 362/3/4
f 347/2/4 349/2/4 363/2/4
f 349/3/4 350/3/4 364/3/4
f 363/2/4 349/2/4 364/2/4
f 350/3/4 338/3/4 365/3/4
f 364/3/4 350/3/4 365/3/4
f 338/3/4 335/3/4 365/3/4
f 361/5/4 362/5/4 365/5/4
f 357/5/4 361/5/4 365/5/4
f 335/5/4 357/5/4 365/5/4
f 360/5/4 336/5/4 366/5/4
f 365/5/4 362/5/4 366/5/4
f 362/5/4 360/5/4 366/5/4
f 367/6/4 368/6/4 369/6/4
f 369/6/4 368/6/4 370/6/4
f 367/6/4 369/6/4 371/6/4
f 369/5/4 370/5/4 371/5/4
f 370/6/4 368/6/4 372/6/4
f 371/5/4 370/5/4 372/5/4
f 367/6/4 371/6/4 373/6/4
f 371/6/4 372/6/4 373/6/4
f 372/6/4 368/6/4 374/6/4
f 373/6/4 372/6/4 374/6/4
f 375/5/4 376/5/4 377/5/4
f 377/5/4 376/5/4 378/5/4
f 383/6/5 380/6/5 379/6/5
f 384/6/5 380/6/5 383/6/5
f 385/6/5 382/6/5 381/6/5
f 386/6/5 382/6/5 385/6/5
f 391/6/5 388/6/5 387/6/5
f 392/6/5 388/6/5 391/6/5
f 393/6/5 390/6/5 389/6/5
f 394/6/5 390/6/5 393/6/5
f 399/2/5 398/2/5 397/2/5
f 403/2/5 396/2/5 395/2/5
f 404/2/5 399/2/5 397/2/5
f 404/2/5 400/2/5 399/2/5
f 405/2/5 400/2/5 404/2/5
f 406/2/5 402/2/5 401/2/5
f 407/2/5 405/2/5 404/2/5
f 407/2/5 406/2/5 405/2/5
f 407/2/5 403/2/5 395/2/5
f 407/2/5 404/2/5 403/2/5
f 408/2/5 406/2/5 407/2/5
f 409/5/5 408/5/5 407/5/5
f 410/2/5 406/2/5 408/2/5
f 410/5/5 408/5/5 409/5/5
f 411/2/5 410/2/5 409/2/5
f 411/2/5 406/2/5 410/2/5
f 412/2/5 406/2/5 411/2/5
f 413/2/5 406/2/5 412/2/5
f 414/2/5 402/2/5 406/2/5
f 414/2/5 406/2/5 413/2/5
f 415/2/5 413/2/5 412/2/5
f 416/2/5 413/2/5 415/2/5
f 417/2/5 402/2/5 414/2/5
f 418/2/5 402/2/5 417/2/5
f 419/2/5 411/2/5 409/2/5
f 420/2/5 411/2/5 419/2/5
f 421/2/5 415/2/5 412/2/5
f 422/2/5 415/2/5 421/2/5
f 425/3/5 424/3/5 423/3/5
f 426/3/5 424/3/5 425/3/5
f 427/3/5 424/3/5 426/3/5
f 428/3/5 424/3/5 427/3/5
f 431/5/5 430/5/5 429/5/5
f 432/5/5 430/5/5 431/5/5
f 435/5/5 434/5/5 433/5/5
f 436/5/5 434/5/5 435/5/5
f 439/3/5 438/3/5 437/3/5
f 440/3/5 438/3/5 439/3/5
f 443/3/5 442/3/5 441/3/5
f 444/3/5 442/3/5 443/3/5
f 445/6/6 446/6/6 447/6/6
f 447/6/6 446/6/6 448/6/6
f 448/6/6 446/6/6 449/6/6
f 449/6/6 446/6/6 450/6/6
f 451/6/6 452/6/6 453/6/6
f 453/6/6 452/6/6 454/6/6
f 455/6/6 456/6/6 457/6/6
f 457/6/6 456/6/6 458/6/6
f 459/5/6 460/5/6 461/5/6
f 461/5/6 460/5/6 462/5/6
f 462/5/6 463/5/6 464/5/6
f 464/5/6 463/5/6 465/5/6
f 465/5/6 463/5/6 467/5/6
f 467/5/6 463/5/6 468/5/6
f 466/5/6 467/5/6 469/5/6
f 469/5/6 467/5/6 470/5/6
f 471/5/6 472/5/6 473/5/6
f 473/5/6 472/5/6 474/5/6
f 471/5/6 473/5/6 475/5/6
f 474/5/6 472/5/6 476/5/6
f 471/5/6 475/5/6 477/5/6
f 476/5/6 472/5/6 478/5/6
f 471/5/6 477/5/6 479/5/6
f 477/5/6 478/5/6 479/5/6
f 478/5/6 472/5/6 480/5/6
f 479/5/6 478/5/6 480/5/6
f 481/1/6 482/1/6 483/1/6
f 483/1/6 482/1/6 484/1/6
f 483/3/6 484/3/6 485/3/6
f 485/3/6 484/3/6 486/3/6
f 487/3/6 488/3/6 489/3/6
f 489/3/6 488/3/6 490/3/6
f 491/3/6 492/3/6 493/3/6
f 493/3/6 492/3/6 494/3/6
f 495/5/6 496/5/6 497/5/6
f 497/5/6 496/5/6 498/5/6
