# MagicaVoxel @ Ephtracy

# group
o 

# material
mtllib sidewalk_b_corner_a.mtl
usemtl palette

# normals
vn -1 0 0
vn 1 0 0
vn 0 0 1
vn 0 0 -1
vn 0 -1 0
vn 0 1 0

# texcoords
vt 0.943359 0.5
vt 0.947266 0.5

# verts
v -3.2 0 3.2
v -3.2 0 2.4
v -3.2 0 -3.2
v -3.2 0.4 3.2
v -3.2 0.4 2.4
v -3.2 0.4 -3.2
v 3.2 0 3.2
v 3.2 0 2.5
v 3.2 0 2.4
v 3.2 0 1.7
v 3.2 0 1.6
v 3.2 0 0.9
v 3.2 0 0.8
v 3.2 0 0.0999999
v 3.2 0 0
v 3.2 0 -0.7
v 3.2 0 -0.8
v 3.2 0 -1.5
v 3.2 0 -1.6
v 3.2 0 -2.3
v 3.2 0 -2.4
v 3.2 0 -3.1
v 3.2 0 -3.2
v 3.2 0.4 3.2
v 3.2 0.4 2.5
v 3.2 0.4 2.4
v 3.2 0.4 1.7
v 3.2 0.4 1.6
v 3.2 0.4 0.9
v 3.2 0.4 0.8
v 3.2 0.4 0.0999999
v 3.2 0.4 0
v 3.2 0.4 -0.7
v 3.2 0.4 -0.8
v 3.2 0.4 -1.5
v 3.2 0.4 -1.6
v 3.2 0.4 -2.3
v 3.2 0.4 -2.4
v 3.2 0.4 -3.1
v 3.2 0.4 -3.2
v -3.2 0 3.2
v -3.2 0.4 3.2
v -2.4 0 3.2
v -2.4 0.4 3.2
v -2.3 0 3.2
v -2.3 0.4 3.2
v -1.6 0 3.2
v -1.6 0.4 3.2
v -1.5 0 3.2
v -1.5 0.4 3.2
v -0.8 0 3.2
v -0.8 0.4 3.2
v -0.7 0 3.2
v -0.7 0.4 3.2
v 0 0 3.2
v 0 0.4 3.2
v 0.1 0 3.2
v 0.1 0.4 3.2
v 0.8 0 3.2
v 0.8 0.4 3.2
v 0.9 0 3.2
v 0.9 0.4 3.2
v 1.6 0 3.2
v 1.6 0.4 3.2
v 1.7 0 3.2
v 1.7 0.4 3.2
v 2.4 0 3.2
v 2.4 0.4 3.2
v 2.5 0 3.2
v 2.5 0.4 3.2
v 3.2 0 3.2
v 3.2 0.4 3.2
v -3.2 0 -3.2
v -3.2 0.4 -3.2
v 3.2 0 -3.2
v 3.2 0.4 -3.2
v -3.2 0 3.2
v -2.4 0 3.2
v -2.3 0 3.2
v -1.6 0 3.2
v -1.5 0 3.2
v -0.8 0 3.2
v -0.7 0 3.2
v 0 0 3.2
v 0.1 0 3.2
v 0.8 0 3.2
v 0.9 0 3.2
v 1.6 0 3.2
v 1.7 0 3.2
v 2.4 0 3.2
v 2.5 0 3.2
v 3.2 0 3.2
v 2.5 0 2.5
v 3.2 0 2.5
v -3.2 0 2.4
v -2.4 0 2.4
v -2.3 0 2.4
v -1.6 0 2.4
v -1.5 0 2.4
v -0.8 0 2.4
v -0.7 0 2.4
v 0 0 2.4
v 0.1 0 2.4
v 0.8 0 2.4
v 0.9 0 2.4
v 1.6 0 2.4
v 1.7 0 2.4
v 2.4 0 2.4
v 3.2 0 2.4
v 2.4 0 1.7
v 3.2 0 1.7
v 2.4 0 1.6
v 3.2 0 1.6
v 2.4 0 0.9
v 3.2 0 0.9
v 2.4 0 0.8
v 3.2 0 0.8
v 2.4 0 0.0999999
v 3.2 0 0.0999999
v 2.4 0 0
v 3.2 0 0
v 2.4 0 -0.7
v 3.2 0 -0.7
v 2.4 0 -0.8
v 3.2 0 -0.8
v 2.4 0 -1.5
v 3.2 0 -1.5
v 2.4 0 -1.6
v 3.2 0 -1.6
v 2.4 0 -2.3
v 3.2 0 -2.3
v 2.4 0 -2.4
v 3.2 0 -2.4
v 2.4 0 -3.1
v 3.2 0 -3.1
v -3.2 0 -3.2
v 3.2 0 -3.2
v -3.2 0.4 3.2
v -2.4 0.4 3.2
v -2.3 0.4 3.2
v -1.6 0.4 3.2
v -1.5 0.4 3.2
v -0.8 0.4 3.2
v -0.7 0.4 3.2
v 0 0.4 3.2
v 0.1 0.4 3.2
v 0.8 0.4 3.2
v 0.9 0.4 3.2
v 1.6 0.4 3.2
v 1.7 0.4 3.2
v 2.4 0.4 3.2
v 2.5 0.4 3.2
v 3.2 0.4 3.2
v 2.5 0.4 2.5
v 3.2 0.4 2.5
v -3.2 0.4 2.4
v -2.4 0.4 2.4
v -2.3 0.4 2.4
v -1.6 0.4 2.4
v -1.5 0.4 2.4
v -0.8 0.4 2.4
v -0.7 0.4 2.4
v 0 0.4 2.4
v 0.1 0.4 2.4
v 0.8 0.4 2.4
v 0.9 0.4 2.4
v 1.6 0.4 2.4
v 1.7 0.4 2.4
v 2.4 0.4 2.4
v 3.2 0.4 2.4
v 2.4 0.4 1.7
v 3.2 0.4 1.7
v 2.4 0.4 1.6
v 3.2 0.4 1.6
v 2.4 0.4 0.9
v 3.2 0.4 0.9
v 2.4 0.4 0.8
v 3.2 0.4 0.8
v 2.4 0.4 0.0999999
v 3.2 0.4 0.0999999
v 2.4 0.4 0
v 3.2 0.4 0
v 2.4 0.4 -0.7
v 3.2 0.4 -0.7
v 2.4 0.4 -0.8
v 3.2 0.4 -0.8
v 2.4 0.4 -1.5
v 3.2 0.4 -1.5
v 2.4 0.4 -1.6
v 3.2 0.4 -1.6
v 2.4 0.4 -2.3
v 3.2 0.4 -2.3
v 2.4 0.4 -2.4
v 3.2 0.4 -2.4
v 2.4 0.4 -3.1
v 3.2 0.4 -3.1
v -3.2 0.4 -3.2
v 3.2 0.4 -3.2

# faces
f 4/2/1 2/2/1 1/2/1
f 5/1/1 3/1/1 2/1/1
f 5/2/1 2/2/1 4/2/1
f 6/1/1 3/1/1 5/1/1
f 7/2/2 8/2/2 24/2/2
f 8/1/2 9/1/2 25/1/2
f 24/2/2 8/2/2 25/2/2
f 9/2/2 10/2/2 26/2/2
f 25/1/2 9/1/2 26/1/2
f 10/1/2 11/1/2 27/1/2
f 26/2/2 10/2/2 27/2/2
f 11/2/2 12/2/2 28/2/2
f 27/1/2 11/1/2 28/1/2
f 12/1/2 13/1/2 29/1/2
f 28/2/2 12/2/2 29/2/2
f 13/2/2 14/2/2 30/2/2
f 29/1/2 13/1/2 30/1/2
f 14/1/2 15/1/2 31/1/2
f 30/2/2 14/2/2 31/2/2
f 15/2/2 16/2/2 32/2/2
f 31/1/2 15/1/2 32/1/2
f 16/1/2 17/1/2 33/1/2
f 32/2/2 16/2/2 33/2/2
f 17/2/2 18/2/2 34/2/2
f 33/1/2 17/1/2 34/1/2
f 18/1/2 19/1/2 35/1/2
f 34/2/2 18/2/2 35/2/2
f 19/2/2 20/2/2 36/2/2
f 35/1/2 19/1/2 36/1/2
f 20/1/2 21/1/2 37/1/2
f 36/2/2 20/2/2 37/2/2
f 21/2/2 22/2/2 38/2/2
f 37/1/2 21/1/2 38/1/2
f 22/1/2 23/1/2 39/1/2
f 38/2/2 22/2/2 39/2/2
f 39/1/2 23/1/2 40/1/2
f 43/2/3 42/2/3 41/2/3
f 44/2/3 42/2/3 43/2/3
f 45/1/3 44/1/3 43/1/3
f 46/1/3 44/1/3 45/1/3
f 47/2/3 46/2/3 45/2/3
f 48/2/3 46/2/3 47/2/3
f 49/1/3 48/1/3 47/1/3
f 50/1/3 48/1/3 49/1/3
f 51/2/3 50/2/3 49/2/3
f 52/2/3 50/2/3 51/2/3
f 53/1/3 52/1/3 51/1/3
f 54/1/3 52/1/3 53/1/3
f 55/2/3 54/2/3 53/2/3
f 56/2/3 54/2/3 55/2/3
f 57/1/3 56/1/3 55/1/3
f 58/1/3 56/1/3 57/1/3
f 59/2/3 58/2/3 57/2/3
f 60/2/3 58/2/3 59/2/3
f 61/1/3 60/1/3 59/1/3
f 62/1/3 60/1/3 61/1/3
f 63/2/3 62/2/3 61/2/3
f 64/2/3 62/2/3 63/2/3
f 65/1/3 64/1/3 63/1/3
f 66/1/3 64/1/3 65/1/3
f 67/2/3 66/2/3 65/2/3
f 68/2/3 66/2/3 67/2/3
f 69/1/3 68/1/3 67/1/3
f 70/1/3 68/1/3 69/1/3
f 71/2/3 70/2/3 69/2/3
f 72/2/3 70/2/3 71/2/3
f 73/1/4 74/1/4 75/1/4
f 75/1/4 74/1/4 76/1/4
f 93/1/5 91/1/5 90/1/5
f 93/2/5 92/2/5 91/2/5
f 94/2/5 92/2/5 93/2/5
f 95/2/5 78/2/5 77/2/5
f 96/1/5 79/1/5 78/1/5
f 96/2/5 78/2/5 95/2/5
f 97/2/5 80/2/5 79/2/5
f 97/1/5 79/1/5 96/1/5
f 98/1/5 81/1/5 80/1/5
f 98/2/5 80/2/5 97/2/5
f 99/2/5 82/2/5 81/2/5
f 99/1/5 81/1/5 98/1/5
f 100/1/5 83/1/5 82/1/5
f 100/2/5 82/2/5 99/2/5
f 101/2/5 84/2/5 83/2/5
f 101/1/5 83/1/5 100/1/5
f 102/1/5 85/1/5 84/1/5
f 102/2/5 84/2/5 101/2/5
f 103/2/5 86/2/5 85/2/5
f 103/1/5 85/1/5 102/1/5
f 104/1/5 87/1/5 86/1/5
f 104/2/5 86/2/5 103/2/5
f 105/2/5 88/2/5 87/2/5
f 105/1/5 87/1/5 104/1/5
f 106/1/5 89/1/5 88/1/5
f 106/2/5 88/2/5 105/2/5
f 107/2/5 90/2/5 89/2/5
f 107/1/5 89/1/5 106/1/5
f 108/1/5 93/1/5 90/1/5
f 108/2/5 90/2/5 107/2/5
f 108/1/5 94/1/5 93/1/5
f 109/1/5 94/1/5 108/1/5
f 110/1/5 96/1/5 95/1/5
f 110/1/5 97/1/5 96/1/5
f 110/2/5 109/2/5 108/2/5
f 110/1/5 108/1/5 107/1/5
f 110/1/5 107/1/5 106/1/5
f 110/1/5 106/1/5 105/1/5
f 110/1/5 105/1/5 104/1/5
f 110/1/5 104/1/5 103/1/5
f 110/1/5 103/1/5 102/1/5
f 110/1/5 102/1/5 101/1/5
f 110/1/5 101/1/5 100/1/5
f 110/1/5 100/1/5 99/1/5
f 110/1/5 99/1/5 98/1/5
f 110/1/5 98/1/5 97/1/5
f 111/2/5 109/2/5 110/2/5
f 112/1/5 110/1/5 95/1/5
f 112/1/5 111/1/5 110/1/5
f 113/1/5 111/1/5 112/1/5
f 114/1/5 112/1/5 95/1/5
f 114/2/5 113/2/5 112/2/5
f 115/2/5 113/2/5 114/2/5
f 116/1/5 114/1/5 95/1/5
f 116/1/5 115/1/5 114/1/5
f 117/1/5 115/1/5 116/1/5
f 118/1/5 116/1/5 95/1/5
f 118/2/5 117/2/5 116/2/5
f 119/2/5 117/2/5 118/2/5
f 120/1/5 118/1/5 95/1/5
f 120/1/5 119/1/5 118/1/5
f 121/1/5 119/1/5 120/1/5
f 122/1/5 120/1/5 95/1/5
f 122/2/5 121/2/5 120/2/5
f 123/2/5 121/2/5 122/2/5
f 124/1/5 122/1/5 95/1/5
f 124/1/5 123/1/5 122/1/5
f 125/1/5 123/1/5 124/1/5
f 126/1/5 124/1/5 95/1/5
f 126/2/5 125/2/5 124/2/5
f 127/2/5 125/2/5 126/2/5
f 128/1/5 126/1/5 95/1/5
f 128/1/5 127/1/5 126/1/5
f 129/1/5 127/1/5 128/1/5
f 130/1/5 128/1/5 95/1/5
f 130/2/5 129/2/5 128/2/5
f 131/2/5 129/2/5 130/2/5
f 132/1/5 130/1/5 95/1/5
f 132/1/5 131/1/5 130/1/5
f 133/1/5 131/1/5 132/1/5
f 134/1/5 132/1/5 95/1/5
f 134/2/5 133/2/5 132/2/5
f 135/2/5 133/2/5 134/2/5
f 136/1/5 134/1/5 95/1/5
f 136/1/5 135/1/5 134/1/5
f 137/1/5 135/1/5 136/1/5
f 151/1/6 152/1/6 154/1/6
f 152/2/6 153/2/6 154/2/6
f 154/2/6 153/2/6 155/2/6
f 138/2/6 139/2/6 156/2/6
f 139/1/6 140/1/6 157/1/6
f 156/2/6 139/2/6 157/2/6
f 140/2/6 141/2/6 158/2/6
f 157/1/6 140/1/6 158/1/6
f 141/1/6 142/1/6 159/1/6
f 158/2/6 141/2/6 159/2/6
f 142/2/6 143/2/6 160/2/6
f 159/1/6 142/1/6 160/1/6
f 143/1/6 144/1/6 161/1/6
f 160/2/6 143/2/6 161/2/6
f 144/2/6 145/2/6 162/2/6
f 161/1/6 144/1/6 162/1/6
f 145/1/6 146/1/6 163/1/6
f 162/2/6 145/2/6 163/2/6
f 146/2/6 147/2/6 164/2/6
f 163/1/6 146/1/6 164/1/6
f 147/1/6 148/1/6 165/1/6
f 164/2/6 147/2/6 165/2/6
f 148/2/6 149/2/6 166/2/6
f 165/1/6 148/1/6 166/1/6
f 149/1/6 150/1/6 167/1/6
f 166/2/6 149/2/6 167/2/6
f 150/2/6 151/2/6 168/2/6
f 167/1/6 150/1/6 168/1/6
f 151/1/6 154/1/6 169/1/6
f 168/2/6 151/2/6 169/2/6
f 154/1/6 155/1/6 169/1/6
f 169/1/6 155/1/6 170/1/6
f 156/1/6 157/1/6 171/1/6
f 157/1/6 158/1/6 171/1/6
f 169/2/6 170/2/6 171/2/6
f 168/1/6 169/1/6 171/1/6
f 167/1/6 168/1/6 171/1/6
f 166/1/6 167/1/6 171/1/6
f 165/1/6 166/1/6 171/1/6
f 164/1/6 165/1/6 171/1/6
f 163/1/6 164/1/6 171/1/6
f 162/1/6 163/1/6 171/1/6
f 161/1/6 162/1/6 171/1/6
f 160/1/6 161/1/6 171/1/6
f 159/1/6 160/1/6 171/1/6
f 158/1/6 159/1/6 171/1/6
f 171/2/6 170/2/6 172/2/6
f 156/1/6 171/1/6 173/1/6
f 171/1/6 172/1/6 173/1/6
f 173/1/6 172/1/6 174/1/6
f 156/1/6 173/1/6 175/1/6
f 173/2/6 174/2/6 175/2/6
f 175/2/6 174/2/6 176/2/6
f 156/1/6 175/1/6 177/1/6
f 175/1/6 176/1/6 177/1/6
f 177/1/6 176/1/6 178/1/6
f 156/1/6 177/1/6 179/1/6
f 177/2/6 178/2/6 179/2/6
f 179/2/6 178/2/6 180/2/6
f 156/1/6 179/1/6 181/1/6
f 179/1/6 180/1/6 181/1/6
f 181/1/6 180/1/6 182/1/6
f 156/1/6 181/1/6 183/1/6
f 181/2/6 182/2/6 183/2/6
f 183/2/6 182/2/6 184/2/6
f 156/1/6 183/1/6 185/1/6
f 183/1/6 184/1/6 185/1/6
f 185/1/6 184/1/6 186/1/6
f 156/1/6 185/1/6 187/1/6
f 185/2/6 186/2/6 187/2/6
f 187/2/6 186/2/6 188/2/6
f 156/1/6 187/1/6 189/1/6
f 187/1/6 188/1/6 189/1/6
f 189/1/6 188/1/6 190/1/6
f 156/1/6 189/1/6 191/1/6
f 189/2/6 190/2/6 191/2/6
f 191/2/6 190/2/6 192/2/6
f 156/1/6 191/1/6 193/1/6
f 191/1/6 192/1/6 193/1/6
f 193/1/6 192/1/6 194/1/6
f 156/1/6 193/1/6 195/1/6
f 193/2/6 194/2/6 195/2/6
f 195/2/6 194/2/6 196/2/6
f 156/1/6 195/1/6 197/1/6
f 195/1/6 196/1/6 197/1/6
f 197/1/6 196/1/6 198/1/6
