# MagicaVoxel @ Ephtracy

# group
o 

# material
mtllib Con Toom.mtl
usemtl palette

# normals
vn -1 0 0
vn 1 0 0
vn 0 0 1
vn 0 0 -1
vn 0 -1 0
vn 0 1 0

# texcoords
vt 0.841797 0.5
vt 0.966797 0.5
vt 0.994141 0.5

# verts
v -0.6 0 -0.4
v -0.6 0 -0.7
v -0.6 0.1 -0.4
v -0.6 0.1 -0.7
v -0.5 0 -0.1
v -0.5 0 -0.4
v -0.5 0.1 -0.4
v -0.5 0.1 -0.5
v -0.5 0.1 -0.6
v -0.5 0.1 -0.7
v -0.5 0.2 -0.1
v -0.5 0.2 -0.5
v -0.5 0.2 -0.6
v -0.5 0.2 -0.7
v -0.4 0 2.23517e-08
v -0.4 0 -0.1
v -0.4 0 -0.7
v -0.4 0 -1
v -0.4 0.1 -0.8
v -0.4 0.1 -1
v -0.4 0.2 2.23517e-08
v -0.4 0.2 -0.1
v -0.4 0.2 -0.7
v -0.4 0.2 -0.8
v -0.3 0 -1
v -0.3 0 -1.1
v -0.3 0.1 -0.5
v -0.3 0.1 -0.6
v -0.3 0.1 -1
v -0.3 0.1 -1.1
v -0.3 0.2 -0.5
v -0.3 0.2 -0.6
v -0.0999999 0 -1.1
v -0.0999999 0 -1.2
v -0.0999999 0 -1.7
v -0.0999999 0 -1.8
v -0.0999999 0.1 -1
v -0.0999999 0.1 -1.1
v -0.0999999 0.1 -1.2
v -0.0999999 0.1 -1.7
v -0.0999999 0.1 -1.8
v -0.0999999 0.2 -1
v -0.0999999 0.2 -1.1
v 5.96046e-08 0 -0.3
v 5.96046e-08 0 -0.4
v 5.96046e-08 0 -0.5
v 5.96046e-08 0 -0.6
v 5.96046e-08 0 -1.6
v 5.96046e-08 0 -1.7
v 5.96046e-08 0.1 -0.2
v 5.96046e-08 0.1 -0.3
v 5.96046e-08 0.1 -0.4
v 5.96046e-08 0.1 -0.5
v 5.96046e-08 0.1 -0.6
v 5.96046e-08 0.1 -0.9
v 5.96046e-08 0.1 -1
v 5.96046e-08 0.1 -1.1
v 5.96046e-08 0.1 -1.2
v 5.96046e-08 0.1 -1.6
v 5.96046e-08 0.1 -1.7
v 5.96046e-08 0.2 -0.2
v 5.96046e-08 0.2 -0.3
v 5.96046e-08 0.2 -0.9
v 5.96046e-08 0.2 -1
v 5.96046e-08 0.2 -1.1
v 5.96046e-08 0.2 -1.2
v 0.1 0 -0.4
v 0.1 0 -0.5
v 0.1 0 -1.2
v 0.1 0 -1.3
v 0.1 0 -1.5
v 0.1 0 -1.6
v 0.1 0.1 -0.4
v 0.1 0.1 -0.5
v 0.1 0.1 -1.2
v 0.1 0.1 -1.3
v 0.1 0.1 -1.5
v 0.1 0.1 -1.6
v 0.2 0 -0.6
v 0.2 0 -0.7
v 0.2 0 -1.4
v 0.2 0 -1.5
v 0.2 0.1 -0.6
v 0.2 0.1 -0.7
v 0.2 0.1 -1.4
v 0.2 0.1 -1.5
v 0.3 0 -1.3
v 0.3 0 -1.4
v 0.3 0.1 -1.3
v 0.3 0.1 -1.4
v 0.5 0 -1.5
v 0.5 0 -1.6
v 0.5 0.1 -1.5
v 0.5 0.1 -1.6
v 0.6 0 -1.6
v 0.6 0 -1.7
v 0.6 0.1 -1.6
v 0.6 0.2 -1.6
v 0.6 0.2 -1.7
v 0.7 0 -1.7
v 0.7 0 -1.8
v 0.7 0.1 -1.7
v 0.7 0.1 -1.8
v -0.4 0.1 -0.3
v -0.4 0.1 -0.5
v -0.4 0.2 -0.3
v -0.4 0.2 -0.5
v -0.3 0.1 2.23517e-08
v -0.3 0.1 -0.3
v -0.3 0.1 -0.6
v -0.3 0.1 -0.8
v -0.3 0.2 2.23517e-08
v -0.3 0.2 -0.3
v -0.3 0.2 -0.6
v -0.3 0.2 -0.8
v -0.2 0 -0.5
v -0.2 0 -0.6
v -0.2 0.1 -0.5
v -0.2 0.1 -0.6
v -0.2 0.2 -0.5
v -0.2 0.2 -0.6
v -0.0999999 0 2.23517e-08
v -0.0999999 0 -0.1
v -0.0999999 0 -0.3
v -0.0999999 0 -0.5
v -0.0999999 0.1 2.23517e-08
v -0.0999999 0.1 -0.1
v -0.0999999 0.1 -0.3
v -0.0999999 0.1 -0.5
v 5.96046e-08 0 -0.6
v 5.96046e-08 0 -0.7
v 5.96046e-08 0 -1.7
v 5.96046e-08 0 -1.8
v 5.96046e-08 0.1 -0.6
v 5.96046e-08 0.1 -0.7
v 5.96046e-08 0.1 -1.7
v 5.96046e-08 0.1 -1.8
v 0.1 0 -0.1
v 0.1 0 -0.3
v 0.1 0 -0.5
v 0.1 0 -0.6
v 0.1 0 -1.6
v 0.1 0 -1.7
v 0.1 0.1 -0.1
v 0.1 0.1 -0.2
v 0.1 0.1 -0.3
v 0.1 0.1 -0.5
v 0.1 0.1 -0.6
v 0.1 0.1 -0.9
v 0.1 0.1 -1
v 0.1 0.1 -1.1
v 0.1 0.1 -1.2
v 0.1 0.1 -1.6
v 0.1 0.1 -1.7
v 0.1 0.2 -0.2
v 0.1 0.2 -0.3
v 0.1 0.2 -0.9
v 0.1 0.2 -1
v 0.1 0.2 -1.1
v 0.1 0.2 -1.2
v 0.2 0 -0.3
v 0.2 0 -0.4
v 0.2 0 -0.7
v 0.2 0 -0.8
v 0.2 0 -0.9
v 0.2 0.1 -0.3
v 0.2 0.1 -0.4
v 0.2 0.1 -0.7
v 0.2 0.1 -0.8
v 0.2 0.1 -0.9
v 0.2 0.1 -1
v 0.2 0.1 -1.1
v 0.2 0.2 -1
v 0.2 0.2 -1.1
v 0.3 0 -0.4
v 0.3 0 -0.5
v 0.3 0 -0.6
v 0.3 0 -0.7
v 0.3 0 -1.5
v 0.3 0 -1.6
v 0.3 0.1 -0.4
v 0.3 0.1 -0.5
v 0.3 0.1 -0.6
v 0.3 0.1 -0.7
v 0.3 0.1 -1.5
v 0.3 0.1 -1.6
v 0.4 0 -0.9
v 0.4 0 -1
v 0.4 0 -1.2
v 0.4 0 -1.3
v 0.4 0.1 -0.9
v 0.4 0.1 -1
v 0.4 0.1 -1.2
v 0.4 0.1 -1.3
v 0.5 0 -1
v 0.5 0 -1.1
v 0.5 0 -1.3
v 0.5 0 -1.4
v 0.5 0 -1.5
v 0.5 0.1 -1
v 0.5 0.1 -1.1
v 0.5 0.1 -1.3
v 0.5 0.1 -1.4
v 0.5 0.1 -1.5
v 0.6 0 -1.1
v 0.6 0 -1.2
v 0.6 0 -1.5
v 0.6 0 -1.6
v 0.6 0.1 -1.1
v 0.6 0.1 -1.2
v 0.6 0.1 -1.5
v 0.6 0.1 -1.6
v 0.7 0 -1.6
v 0.7 0 -1.7
v 0.7 0.1 -1.7
v 0.7 0.2 -1.6
v 0.7 0.2 -1.7
v 0.8 0 -1.7
v 0.8 0 -1.8
v 0.8 0.1 -1.7
v 0.8 0.1 -1.8
v -0.4 0 2.23517e-08
v -0.4 0.2 2.23517e-08
v -0.3 0.1 2.23517e-08
v -0.3 0.2 2.23517e-08
v -0.0999999 0 2.23517e-08
v -0.0999999 0.1 2.23517e-08
v -0.5 0 -0.1
v -0.5 0.2 -0.1
v -0.4 0 -0.1
v -0.4 0.2 -0.1
v -0.0999999 0 -0.1
v -0.0999999 0.1 -0.1
v 0.1 0 -0.1
v 0.1 0.1 -0.1
v 5.96046e-08 0.1 -0.2
v 5.96046e-08 0.2 -0.2
v 0.1 0.1 -0.2
v 0.1 0.2 -0.2
v 0.1 0 -0.3
v 0.1 0.1 -0.3
v 0.2 0 -0.3
v 0.2 0.1 -0.3
v -0.6 0 -0.4
v -0.6 0.1 -0.4
v -0.5 0 -0.4
v -0.5 0.1 -0.4
v 0.2 0 -0.4
v 0.2 0.1 -0.4
v 0.3 0 -0.4
v 0.3 0.1 -0.4
v -0.3 0.1 -0.5
v -0.3 0.2 -0.5
v -0.2 0.1 -0.5
v -0.2 0.2 -0.5
v 5.96046e-08 0 -0.5
v 5.96046e-08 0.1 -0.5
v 0.1 0 -0.5
v 0.1 0.1 -0.5
v -0.5 0.1 -0.6
v -0.5 0.2 -0.6
v -0.3 0.1 -0.6
v -0.3 0.2 -0.6
v -0.2 0 -0.6
v -0.2 0.1 -0.6
v 5.96046e-08 0 -0.6
v 5.96046e-08 0.1 -0.6
v 0.2 0 -0.6
v 0.2 0.1 -0.6
v 0.3 0 -0.6
v 0.3 0.1 -0.6
v 5.96046e-08 0 -0.7
v 5.96046e-08 0.1 -0.7
v 0.2 0 -0.7
v 0.2 0.1 -0.7
v 5.96046e-08 0.1 -0.9
v 5.96046e-08 0.2 -0.9
v 0.1 0.1 -0.9
v 0.1 0.2 -0.9
v 0.2 0 -0.9
v 0.2 0.1 -0.9
v 0.4 0 -0.9
v 0.4 0.1 -0.9
v -0.0999999 0.1 -1
v -0.0999999 0.2 -1
v 5.96046e-08 0.1 -1
v 5.96046e-08 0.2 -1
v 0.1 0.1 -1
v 0.1 0.2 -1
v 0.2 0.1 -1
v 0.2 0.2 -1
v 0.4 0 -1
v 0.4 0.1 -1
v 0.5 0 -1
v 0.5 0.1 -1
v 0.5 0 -1.1
v 0.5 0.1 -1.1
v 0.6 0 -1.1
v 0.6 0.1 -1.1
v 0.4 0 -1.3
v 0.4 0.1 -1.3
v 0.5 0 -1.3
v 0.5 0.1 -1.3
v 0.2 0 -1.4
v 0.2 0.1 -1.4
v 0.3 0 -1.4
v 0.3 0.1 -1.4
v 0.1 0 -1.5
v 0.1 0.1 -1.5
v 0.2 0 -1.5
v 0.2 0.1 -1.5
v 0.5 0 -1.5
v 0.5 0.1 -1.5
v 0.6 0 -1.5
v 0.6 0.1 -1.5
v 5.96046e-08 0 -1.6
v 5.96046e-08 0.1 -1.6
v 0.1 0 -1.6
v 0.1 0.1 -1.6
v 0.6 0 -1.6
v 0.6 0.1 -1.6
v 0.6 0.2 -1.6
v 0.7 0 -1.6
v 0.7 0.2 -1.6
v -0.0999999 0 -1.7
v -0.0999999 0.1 -1.7
v 5.96046e-08 0 -1.7
v 5.96046e-08 0.1 -1.7
v 0.7 0 -1.7
v 0.7 0.1 -1.7
v 0.8 0 -1.7
v 0.8 0.1 -1.7
v -0.4 0.1 -0.3
v -0.4 0.2 -0.3
v -0.3 0.1 -0.3
v -0.3 0.2 -0.3
v -0.0999999 0 -0.3
v -0.0999999 0.1 -0.3
v 5.96046e-08 0 -0.3
v 5.96046e-08 0.1 -0.3
v 5.96046e-08 0.2 -0.3
v 0.1 0.1 -0.3
v 0.1 0.2 -0.3
v 5.96046e-08 0 -0.4
v 5.96046e-08 0.1 -0.4
v 0.1 0 -0.4
v 0.1 0.1 -0.4
v -0.5 0.1 -0.5
v -0.5 0.2 -0.5
v -0.4 0.1 -0.5
v -0.4 0.2 -0.5
v -0.2 0 -0.5
v -0.2 0.1 -0.5
v -0.0999999 0 -0.5
v -0.0999999 0.1 -0.5
v 0.1 0 -0.5
v 0.1 0.1 -0.5
v 0.3 0 -0.5
v 0.3 0.1 -0.5
v -0.3 0.1 -0.6
v -0.3 0.2 -0.6
v -0.2 0.1 -0.6
v -0.2 0.2 -0.6
v 5.96046e-08 0 -0.6
v 5.96046e-08 0.1 -0.6
v 0.1 0 -0.6
v 0.1 0.1 -0.6
v -0.6 0 -0.7
v -0.6 0.1 -0.7
v -0.5 0.1 -0.7
v -0.5 0.2 -0.7
v -0.4 0 -0.7
v -0.4 0.2 -0.7
v 0.2 0 -0.7
v 0.2 0.1 -0.7
v 0.3 0 -0.7
v 0.3 0.1 -0.7
v -0.4 0.1 -0.8
v -0.4 0.2 -0.8
v -0.3 0.1 -0.8
v -0.3 0.2 -0.8
v -0.4 0 -1
v -0.4 0.1 -1
v -0.3 0 -1
v -0.3 0.1 -1
v -0.3 0 -1.1
v -0.3 0.1 -1.1
v -0.0999999 0 -1.1
v -0.0999999 0.1 -1.1
v -0.0999999 0.2 -1.1
v 5.96046e-08 0.1 -1.1
v 5.96046e-08 0.2 -1.1
v 0.1 0.1 -1.1
v 0.1 0.2 -1.1
v 0.2 0.1 -1.1
v 0.2 0.2 -1.1
v -0.0999999 0 -1.2
v -0.0999999 0.1 -1.2
v 5.96046e-08 0.1 -1.2
v 5.96046e-08 0.2 -1.2
v 0.1 0 -1.2
v 0.1 0.1 -1.2
v 0.1 0.2 -1.2
v 0.4 0 -1.2
v 0.4 0.1 -1.2
v 0.6 0 -1.2
v 0.6 0.1 -1.2
v 0.1 0 -1.3
v 0.1 0.1 -1.3
v 0.3 0 -1.3
v 0.3 0.1 -1.3
v 0.3 0 -1.5
v 0.3 0.1 -1.5
v 0.4 0 -1.5
v 0.4 0.1 -1.5
v 0.5 0 -1.5
v 0.5 0.1 -1.5
v 0.1 0 -1.6
v 0.1 0.1 -1.6
v 0.3 0 -1.6
v 0.3 0.1 -1.6
v 0.5 0 -1.6
v 0.5 0.1 -1.6
v 0.6 0 -1.6
v 0.6 0.1 -1.6
v 5.96046e-08 0 -1.7
v 5.96046e-08 0.1 -1.7
v 0.1 0 -1.7
v 0.1 0.1 -1.7
v 0.6 0 -1.7
v 0.6 0.2 -1.7
v 0.7 0 -1.7
v 0.7 0.1 -1.7
v 0.7 0.2 -1.7
v -0.0999999 0 -1.8
v -0.0999999 0.1 -1.8
v 5.96046e-08 0 -1.8
v 5.96046e-08 0.1 -1.8
v 0.7 0 -1.8
v 0.7 0.1 -1.8
v 0.8 0 -1.8
v 0.8 0.1 -1.8
v -0.4 0 2.23517e-08
v -0.0999999 0 2.23517e-08
v -0.5 0 -0.1
v -0.4 0 -0.1
v -0.0999999 0 -0.1
v 0.1 0 -0.1
v -0.2 0 -0.3
v -0.0999999 0 -0.3
v 5.96046e-08 0 -0.3
v 0.1 0 -0.3
v 0.2 0 -0.3
v -0.6 0 -0.4
v -0.5 0 -0.4
v 5.96046e-08 0 -0.4
v 0.1 0 -0.4
v 0.2 0 -0.4
v 0.3 0 -0.4
v -0.2 0 -0.5
v -0.0999999 0 -0.5
v 5.96046e-08 0 -0.5
v 0.1 0 -0.5
v 0.3 0 -0.5
v -0.2 0 -0.6
v 5.96046e-08 0 -0.6
v 0.1 0 -0.6
v 0.2 0 -0.6
v 0.3 0 -0.6
v -0.6 0 -0.7
v -0.4 0 -0.7
v -0.2 0 -0.7
v 5.96046e-08 0 -0.7
v 0.2 0 -0.7
v 0.3 0 -0.7
v 5.96046e-08 0 -0.8
v 0.2 0 -0.8
v 0.2 0 -0.9
v 0.4 0 -0.9
v -0.4 0 -1
v -0.3 0 -1
v 0.4 0 -1
v 0.5 0 -1
v -0.3 0 -1.1
v -0.0999999 0 -1.1
v 0.5 0 -1.1
v 0.6 0 -1.1
v -0.0999999 0 -1.2
v 0.1 0 -1.2
v 0.4 0 -1.2
v 0.6 0 -1.2
v 0.1 0 -1.3
v 0.3 0 -1.3
v 0.4 0 -1.3
v 0.5 0 -1.3
v 0.2 0 -1.4
v 0.3 0 -1.4
v 0.4 0 -1.4
v 0.5 0 -1.4
v 0.1 0 -1.5
v 0.2 0 -1.5
v 0.3 0 -1.5
v 0.4 0 -1.5
v 0.5 0 -1.5
v 0.6 0 -1.5
v 5.96046e-08 0 -1.6
v 0.1 0 -1.6
v 0.3 0 -1.6
v 0.5 0 -1.6
v 0.6 0 -1.6
v 0.7 0 -1.6
v -0.0999999 0 -1.7
v 5.96046e-08 0 -1.7
v 0.1 0 -1.7
v 0.6 0 -1.7
v 0.7 0 -1.7
v 0.8 0 -1.7
v -0.0999999 0 -1.8
v 5.96046e-08 0 -1.8
v 0.7 0 -1.8
v 0.8 0 -1.8
v -0.3 0.1 2.23517e-08
v -0.0999999 0.1 2.23517e-08
v -0.0999999 0.1 -0.1
v 0.1 0.1 -0.1
v 5.96046e-08 0.1 -0.2
v 0.1 0.1 -0.2
v -0.4 0.1 -0.3
v -0.3 0.1 -0.3
v -0.2 0.1 -0.3
v -0.0999999 0.1 -0.3
v 5.96046e-08 0.1 -0.3
v 0.1 0.1 -0.3
v 0.2 0.1 -0.3
v -0.6 0.1 -0.4
v -0.5 0.1 -0.4
v 5.96046e-08 0.1 -0.4
v 0.1 0.1 -0.4
v 0.2 0.1 -0.4
v 0.3 0.1 -0.4
v -0.5 0.1 -0.5
v -0.4 0.1 -0.5
v -0.3 0.1 -0.5
v -0.2 0.1 -0.5
v -0.0999999 0.1 -0.5
v 5.96046e-08 0.1 -0.5
v 0.1 0.1 -0.5
v 0.3 0.1 -0.5
v -0.5 0.1 -0.6
v -0.3 0.1 -0.6
v -0.2 0.1 -0.6
v 5.96046e-08 0.1 -0.6
v 0.1 0.1 -0.6
v 0.2 0.1 -0.6
v 0.3 0.1 -0.6
v -0.6 0.1 -0.7
v -0.5 0.1 -0.7
v -0.2 0.1 -0.7
v 5.96046e-08 0.1 -0.7
v 0.2 0.1 -0.7
v 0.3 0.1 -0.7
v -0.4 0.1 -0.8
v -0.3 0.1 -0.8
v 5.96046e-08 0.1 -0.8
v 0.2 0.1 -0.8
v 5.96046e-08 0.1 -0.9
v 0.1 0.1 -0.9
v 0.2 0.1 -0.9
v 0.4 0.1 -0.9
v -0.4 0.1 -1
v -0.3 0.1 -1
v -0.0999999 0.1 -1
v 5.96046e-08 0.1 -1
v 0.1 0.1 -1
v 0.2 0.1 -1
v 0.4 0.1 -1
v 0.5 0.1 -1
v -0.3 0.1 -1.1
v -0.0999999 0.1 -1.1
v 5.96046e-08 0.1 -1.1
v 0.1 0.1 -1.1
v 0.2 0.1 -1.1
v 0.5 0.1 -1.1
v 0.6 0.1 -1.1
v -0.0999999 0.1 -1.2
v 5.96046e-08 0.1 -1.2
v 0.1 0.1 -1.2
v 0.4 0.1 -1.2
v 0.6 0.1 -1.2
v 0.1 0.1 -1.3
v 0.3 0.1 -1.3
v 0.4 0.1 -1.3
v 0.5 0.1 -1.3
v 0.2 0.1 -1.4
v 0.3 0.1 -1.4
v 0.4 0.1 -1.4
v 0.5 0.1 -1.4
v 0.1 0.1 -1.5
v 0.2 0.1 -1.5
v 0.3 0.1 -1.5
v 0.4 0.1 -1.5
v 0.5 0.1 -1.5
v 0.6 0.1 -1.5
v 5.96046e-08 0.1 -1.6
v 0.1 0.1 -1.6
v 0.3 0.1 -1.6
v 0.5 0.1 -1.6
v 0.6 0.1 -1.6
v -0.0999999 0.1 -1.7
v 5.96046e-08 0.1 -1.7
v 0.1 0.1 -1.7
v 0.7 0.1 -1.7
v 0.8 0.1 -1.7
v -0.0999999 0.1 -1.8
v 5.96046e-08 0.1 -1.8
v 0.7 0.1 -1.8
v 0.8 0.1 -1.8
v -0.4 0.2 2.23517e-08
v -0.3 0.2 2.23517e-08
v -0.5 0.2 -0.1
v -0.4 0.2 -0.1
v 5.96046e-08 0.2 -0.2
v 0.1 0.2 -0.2
v -0.4 0.2 -0.3
v -0.3 0.2 -0.3
v 5.96046e-08 0.2 -0.3
v 0.1 0.2 -0.3
v -0.5 0.2 -0.5
v -0.4 0.2 -0.5
v -0.3 0.2 -0.5
v -0.2 0.2 -0.5
v -0.5 0.2 -0.6
v -0.3 0.2 -0.6
v -0.2 0.2 -0.6
v -0.5 0.2 -0.7
v -0.4 0.2 -0.7
v -0.4 0.2 -0.8
v -0.3 0.2 -0.8
v 5.96046e-08 0.2 -0.9
v 0.1 0.2 -0.9
v -0.0999999 0.2 -1
v 5.96046e-08 0.2 -1
v 0.1 0.2 -1
v 0.2 0.2 -1
v -0.0999999 0.2 -1.1
v 5.96046e-08 0.2 -1.1
v 0.1 0.2 -1.1
v 0.2 0.2 -1.1
v 5.96046e-08 0.2 -1.2
v 0.1 0.2 -1.2
v 0.6 0.2 -1.6
v 0.7 0.2 -1.6
v 0.6 0.2 -1.7
v 0.7 0.2 -1.7

# faces
f 3/1/1 2/1/1 1/1/1
f 4/1/1 2/1/1 3/1/1
f 7/1/1 6/1/1 5/1/1
f 11/1/1 7/1/1 5/1/1
f 11/1/1 8/1/1 7/1/1
f 12/1/1 8/1/1 11/1/1
f 13/1/1 10/1/1 9/1/1
f 14/1/1 10/1/1 13/1/1
f 19/1/1 18/1/1 17/1/1
f 20/1/1 18/1/1 19/1/1
f 21/1/1 16/1/1 15/1/1
f 22/1/1 16/1/1 21/1/1
f 23/1/1 19/1/1 17/1/1
f 24/1/1 19/1/1 23/1/1
f 29/1/1 26/1/1 25/1/1
f 30/1/1 26/1/1 29/1/1
f 31/1/1 28/1/1 27/1/1
f 32/1/1 28/1/1 31/1/1
f 38/1/1 34/1/1 33/1/1
f 39/1/1 34/1/1 38/1/1
f 40/2/1 36/2/1 35/2/1
f 41/2/1 36/2/1 40/2/1
f 42/3/1 38/3/1 37/3/1
f 43/3/1 38/3/1 42/3/1
f 51/1/1 45/1/1 44/1/1
f 52/1/1 45/1/1 51/1/1
f 53/2/1 47/2/1 46/2/1
f 54/2/1 47/2/1 53/2/1
f 59/2/1 49/2/1 48/2/1
f 60/2/1 49/2/1 59/2/1
f 61/1/1 51/1/1 50/1/1
f 62/1/1 51/1/1 61/1/1
f 63/3/1 56/3/1 55/3/1
f 64/3/1 56/3/1 63/3/1
f 65/3/1 58/3/1 57/3/1
f 66/3/1 58/3/1 65/3/1
f 73/1/1 68/1/1 67/1/1
f 74/1/1 68/1/1 73/1/1
f 75/1/1 70/1/1 69/1/1
f 76/1/1 70/1/1 75/1/1
f 77/2/1 72/2/1 71/2/1
f 78/2/1 72/2/1 77/2/1
f 83/2/1 80/2/1 79/2/1
f 84/2/1 80/2/1 83/2/1
f 85/2/1 82/2/1 81/2/1
f 86/2/1 82/2/1 85/2/1
f 89/1/1 88/1/1 87/1/1
f 90/1/1 88/1/1 89/1/1
f 93/2/1 92/2/1 91/2/1
f 94/2/1 92/2/1 93/2/1
f 97/2/1 96/2/1 95/2/1
f 98/2/1 96/2/1 97/2/1
f 99/2/1 96/2/1 98/2/1
f 102/2/1 101/2/1 100/2/1
f 103/2/1 101/2/1 102/2/1
f 104/1/2 105/1/2 106/1/2
f 106/1/2 105/1/2 107/1/2
f 108/1/2 109/1/2 112/1/2
f 112/1/2 109/1/2 113/1/2
f 110/1/2 111/1/2 114/1/2
f 114/1/2 111/1/2 115/1/2
f 116/1/2 117/1/2 118/1/2
f 118/1/2 117/1/2 119/1/2
f 118/1/2 119/1/2 120/1/2
f 120/1/2 119/1/2 121/1/2
f 122/1/2 123/1/2 126/1/2
f 126/1/2 123/1/2 127/1/2
f 124/2/2 125/2/2 128/2/2
f 128/2/2 125/2/2 129/2/2
f 130/2/2 131/2/2 134/2/2
f 134/2/2 131/2/2 135/2/2
f 132/2/2 133/2/2 136/2/2
f 136/2/2 133/2/2 137/2/2
f 138/1/2 139/1/2 144/1/2
f 144/1/2 139/1/2 145/1/2
f 145/1/2 139/1/2 146/1/2
f 140/2/2 141/2/2 147/2/2
f 147/2/2 141/2/2 148/2/2
f 142/2/2 143/2/2 153/2/2
f 153/2/2 143/2/2 154/2/2
f 145/1/2 146/1/2 155/1/2
f 155/1/2 146/1/2 156/1/2
f 149/3/2 150/3/2 157/3/2
f 157/3/2 150/3/2 158/3/2
f 151/3/2 152/3/2 159/3/2
f 159/3/2 152/3/2 160/3/2
f 161/1/2 162/1/2 166/1/2
f 166/1/2 162/1/2 167/1/2
f 163/2/2 164/2/2 168/2/2
f 164/1/2 165/1/2 169/1/2
f 168/2/2 164/2/2 169/2/2
f 169/1/2 165/1/2 170/1/2
f 171/3/2 172/3/2 173/3/2
f 173/3/2 172/3/2 174/3/2
f 175/1/2 176/1/2 181/1/2
f 181/1/2 176/1/2 182/1/2
f 177/2/2 178/2/2 183/2/2
f 183/2/2 178/2/2 184/2/2
f 179/2/2 180/2/2 185/2/2
f 185/2/2 180/2/2 186/2/2
f 187/1/2 188/1/2 191/1/2
f 191/1/2 188/1/2 192/1/2
f 189/1/2 190/1/2 193/1/2
f 193/1/2 190/1/2 194/1/2
f 195/1/2 196/1/2 200/1/2
f 200/1/2 196/1/2 201/1/2
f 197/1/2 198/1/2 202/1/2
f 198/2/2 199/2/2 203/2/2
f 202/1/2 198/1/2 203/1/2
f 203/2/2 199/2/2 204/2/2
f 205/1/2 206/1/2 209/1/2
f 209/1/2 206/1/2 210/1/2
f 207/2/2 208/2/2 211/2/2
f 211/2/2 208/2/2 212/2/2
f 213/2/2 214/2/2 215/2/2
f 213/2/2 215/2/2 216/2/2
f 216/2/2 215/2/2 217/2/2
f 218/2/2 219/2/2 220/2/2
f 220/2/2 219/2/2 221/2/2
f 224/1/3 223/1/3 222/1/3
f 225/1/3 223/1/3 224/1/3
f 226/1/3 224/1/3 222/1/3
f 227/1/3 224/1/3 226/1/3
f 230/1/3 229/1/3 228/1/3
f 231/1/3 229/1/3 230/1/3
f 234/1/3 233/1/3 232/1/3
f 235/1/3 233/1/3 234/1/3
f 238/1/3 237/1/3 236/1/3
f 239/1/3 237/1/3 238/1/3
f 242/1/3 241/1/3 240/1/3
f 243/1/3 241/1/3 242/1/3
f 246/1/3 245/1/3 244/1/3
f 247/1/3 245/1/3 246/1/3
f 250/1/3 249/1/3 248/1/3
f 251/1/3 249/1/3 250/1/3
f 254/1/3 253/1/3 252/1/3
f 255/1/3 253/1/3 254/1/3
f 258/2/3 257/2/3 256/2/3
f 259/2/3 257/2/3 258/2/3
f 262/1/3 261/1/3 260/1/3
f 263/1/3 261/1/3 262/1/3
f 266/2/3 265/2/3 264/2/3
f 267/2/3 265/2/3 266/2/3
f 270/2/3 269/2/3 268/2/3
f 271/2/3 269/2/3 270/2/3
f 274/2/3 273/2/3 272/2/3
f 275/2/3 273/2/3 274/2/3
f 278/3/3 277/3/3 276/3/3
f 279/3/3 277/3/3 278/3/3
f 282/1/3 281/1/3 280/1/3
f 283/1/3 281/1/3 282/1/3
f 286/3/3 285/3/3 284/3/3
f 287/3/3 285/3/3 286/3/3
f 290/3/3 289/3/3 288/3/3
f 291/3/3 289/3/3 290/3/3
f 294/1/3 293/1/3 292/1/3
f 295/1/3 293/1/3 294/1/3
f 298/1/3 297/1/3 296/1/3
f 299/1/3 297/1/3 298/1/3
f 302/1/3 301/1/3 300/1/3
f 303/1/3 301/1/3 302/1/3
f 306/2/3 305/2/3 304/2/3
f 307/2/3 305/2/3 306/2/3
f 310/2/3 309/2/3 308/2/3
f 311/2/3 309/2/3 310/2/3
f 314/2/3 313/2/3 312/2/3
f 315/2/3 313/2/3 314/2/3
f 318/2/3 317/2/3 316/2/3
f 319/2/3 317/2/3 318/2/3
f 323/2/3 321/2/3 320/2/3
f 323/2/3 322/2/3 321/2/3
f 324/2/3 322/2/3 323/2/3
f 327/2/3 326/2/3 325/2/3
f 328/2/3 326/2/3 327/2/3
f 331/2/3 330/2/3 329/2/3
f 332/2/3 330/2/3 331/2/3
f 333/1/4 334/1/4 335/1/4
f 335/1/4 334/1/4 336/1/4
f 337/1/4 338/1/4 339/1/4
f 339/1/4 338/1/4 340/1/4
f 340/1/4 341/1/4 342/1/4
f 342/1/4 341/1/4 343/1/4
f 344/1/4 345/1/4 346/1/4
f 346/1/4 345/1/4 347/1/4
f 348/1/4 349/1/4 350/1/4
f 350/1/4 349/1/4 351/1/4
f 352/2/4 353/2/4 354/2/4
f 354/2/4 353/2/4 355/2/4
f 356/1/4 357/1/4 358/1/4
f 358/1/4 357/1/4 359/1/4
f 360/1/4 361/1/4 362/1/4
f 362/1/4 361/1/4 363/1/4
f 364/2/4 365/2/4 366/2/4
f 366/2/4 365/2/4 367/2/4
f 368/1/4 369/1/4 370/1/4
f 368/1/4 370/1/4 372/1/4
f 370/1/4 371/1/4 372/1/4
f 372/1/4 371/1/4 373/1/4
f 374/2/4 375/2/4 376/2/4
f 376/2/4 375/2/4 377/2/4
f 378/1/4 379/1/4 380/1/4
f 380/1/4 379/1/4 381/1/4
f 382/1/4 383/1/4 384/1/4
f 384/1/4 383/1/4 385/1/4
f 386/1/4 387/1/4 388/1/4
f 388/1/4 387/1/4 389/1/4
f 389/3/4 390/3/4 391/3/4
f 391/3/4 390/3/4 392/3/4
f 393/3/4 394/3/4 395/3/4
f 395/3/4 394/3/4 396/3/4
f 397/1/4 398/1/4 399/1/4
f 397/1/4 399/1/4 401/1/4
f 399/3/4 400/3/4 402/3/4
f 401/1/4 399/1/4 402/1/4
f 402/3/4 400/3/4 403/3/4
f 404/1/4 405/1/4 406/1/4
f 406/1/4 405/1/4 407/1/4
f 408/1/4 409/1/4 410/1/4
f 410/1/4 409/1/4 411/1/4
f 412/1/4 413/1/4 414/1/4
f 414/1/4 413/1/4 415/1/4
f 414/2/4 415/2/4 416/2/4
f 416/2/4 415/2/4 417/2/4
f 418/2/4 419/2/4 420/2/4
f 420/2/4 419/2/4 421/2/4
f 422/2/4 423/2/4 424/2/4
f 424/2/4 423/2/4 425/2/4
f 426/2/4 427/2/4 428/2/4
f 428/2/4 427/2/4 429/2/4
f 430/2/4 431/2/4 432/2/4
f 432/2/4 431/2/4 433/2/4
f 433/2/4 431/2/4 434/2/4
f 435/2/4 436/2/4 437/2/4
f 437/2/4 436/2/4 438/2/4
f 439/2/4 440/2/4 441/2/4
f 441/2/4 440/2/4 442/2/4
f 446/1/5 444/1/5 443/1/5
f 447/1/5 444/1/5 446/1/5
f 449/1/5 446/1/5 445/1/5
f 449/1/5 448/1/5 447/1/5
f 449/1/5 447/1/5 446/1/5
f 450/1/5 448/1/5 449/1/5
f 451/1/5 448/1/5 450/1/5
f 452/1/5 448/1/5 451/1/5
f 455/1/5 449/1/5 445/1/5
f 456/1/5 452/1/5 451/1/5
f 456/1/5 453/1/5 452/1/5
f 457/1/5 453/1/5 456/1/5
f 458/1/5 453/1/5 457/1/5
f 460/1/5 455/1/5 454/1/5
f 460/2/5 450/2/5 449/2/5
f 460/1/5 449/1/5 455/1/5
f 461/2/5 450/2/5 460/2/5
f 463/1/5 459/1/5 458/1/5
f 463/1/5 458/1/5 457/1/5
f 464/1/5 459/1/5 463/1/5
f 465/1/5 460/1/5 454/1/5
f 466/2/5 463/2/5 462/2/5
f 467/2/5 463/2/5 466/2/5
f 470/1/5 465/1/5 454/1/5
f 471/1/5 465/1/5 470/1/5
f 472/2/5 466/2/5 465/2/5
f 472/1/5 465/1/5 471/1/5
f 473/2/5 466/2/5 472/2/5
f 474/2/5 469/2/5 468/2/5
f 475/2/5 469/2/5 474/2/5
f 476/1/5 473/1/5 472/1/5
f 476/2/5 474/2/5 473/2/5
f 476/1/5 472/1/5 471/1/5
f 477/2/5 474/2/5 476/2/5
f 478/1/5 477/1/5 476/1/5
f 480/1/5 478/1/5 476/1/5
f 480/1/5 479/1/5 478/1/5
f 480/1/5 476/1/5 471/1/5
f 481/1/5 479/1/5 480/1/5
f 482/1/5 479/1/5 481/1/5
f 484/1/5 483/1/5 482/1/5
f 484/1/5 482/1/5 481/1/5
f 485/1/5 483/1/5 484/1/5
f 486/1/5 483/1/5 485/1/5
f 488/1/5 487/1/5 486/1/5
f 488/1/5 486/1/5 485/1/5
f 489/1/5 487/1/5 488/1/5
f 490/1/5 487/1/5 489/1/5
f 491/1/5 487/1/5 490/1/5
f 492/1/5 490/1/5 489/1/5
f 493/1/5 490/1/5 492/1/5
f 494/1/5 490/1/5 493/1/5
f 497/1/5 495/1/5 494/1/5
f 497/1/5 494/1/5 493/1/5
f 498/1/5 495/1/5 497/1/5
f 499/1/5 495/1/5 498/1/5
f 501/2/5 497/2/5 496/2/5
f 502/1/5 498/1/5 497/1/5
f 502/2/5 497/2/5 501/2/5
f 503/2/5 499/2/5 498/2/5
f 503/1/5 498/1/5 502/1/5
f 504/2/5 499/2/5 503/2/5
f 507/2/5 501/2/5 500/2/5
f 507/2/5 502/2/5 501/2/5
f 508/2/5 502/2/5 507/2/5
f 509/2/5 505/2/5 504/2/5
f 510/2/5 505/2/5 509/2/5
f 513/2/5 507/2/5 506/2/5
f 514/2/5 507/2/5 513/2/5
f 515/2/5 511/2/5 510/2/5
f 516/2/5 511/2/5 515/2/5
f 518/2/5 513/2/5 512/2/5
f 519/2/5 513/2/5 518/2/5
f 520/2/5 517/2/5 516/2/5
f 521/2/5 517/2/5 520/2/5
f 522/1/6 523/1/6 524/1/6
f 524/1/6 525/1/6 526/1/6
f 526/1/6 525/1/6 527/1/6
f 522/1/6 524/1/6 529/1/6
f 524/1/6 526/1/6 529/1/6
f 529/1/6 526/1/6 530/1/6
f 530/1/6 526/1/6 531/1/6
f 531/1/6 526/1/6 532/1/6
f 532/1/6 533/1/6 537/1/6
f 533/1/6 534/1/6 537/1/6
f 537/1/6 534/1/6 538/1/6
f 538/1/6 534/1/6 539/1/6
f 535/1/6 536/1/6 541/1/6
f 528/1/6 529/1/6 542/1/6
f 529/1/6 530/1/6 542/1/6
f 542/1/6 530/1/6 543/1/6
f 530/2/6 531/2/6 544/2/6
f 543/1/6 530/1/6 544/1/6
f 544/2/6 531/2/6 545/2/6
f 539/1/6 540/1/6 547/1/6
f 538/1/6 539/1/6 547/1/6
f 547/1/6 540/1/6 548/1/6
f 535/1/6 541/1/6 549/1/6
f 542/1/6 543/1/6 549/1/6
f 541/1/6 542/1/6 549/1/6
f 549/1/6 543/1/6 550/1/6
f 546/2/6 547/2/6 552/2/6
f 552/2/6 547/2/6 553/2/6
f 535/1/6 549/1/6 556/1/6
f 556/1/6 549/1/6 557/1/6
f 550/1/6 551/1/6 558/1/6
f 551/2/6 552/2/6 558/2/6
f 558/2/6 552/2/6 559/2/6
f 554/2/6 555/2/6 560/2/6
f 560/2/6 555/2/6 561/2/6
f 558/1/6 559/1/6 563/1/6
f 550/1/6 558/1/6 563/1/6
f 559/2/6 560/2/6 564/2/6
f 563/1/6 559/1/6 564/1/6
f 564/2/6 560/2/6 565/2/6
f 562/1/6 563/1/6 566/1/6
f 563/1/6 564/1/6 566/1/6
f 564/1/6 565/1/6 566/1/6
f 566/1/6 565/1/6 567/1/6
f 567/1/6 565/1/6 568/1/6
f 562/1/6 566/1/6 570/1/6
f 570/1/6 566/1/6 571/1/6
f 571/1/6 566/1/6 572/1/6
f 572/1/6 566/1/6 573/1/6
f 567/1/6 568/1/6 574/1/6
f 568/1/6 569/1/6 574/1/6
f 574/1/6 569/1/6 575/1/6
f 575/1/6 569/1/6 576/1/6
f 571/1/6 572/1/6 578/1/6
f 578/1/6 572/1/6 579/1/6
f 576/1/6 577/1/6 582/1/6
f 575/1/6 576/1/6 582/1/6
f 582/1/6 577/1/6 583/1/6
f 579/1/6 580/1/6 585/1/6
f 585/1/6 580/1/6 586/1/6
f 583/1/6 584/1/6 587/1/6
f 582/1/6 583/1/6 587/1/6
f 581/1/6 582/1/6 587/1/6
f 587/1/6 584/1/6 588/1/6
f 588/1/6 584/1/6 589/1/6
f 587/1/6 588/1/6 590/1/6
f 590/1/6 588/1/6 591/1/6
f 591/1/6 588/1/6 592/1/6
f 592/1/6 593/1/6 595/1/6
f 591/1/6 592/1/6 595/1/6
f 595/1/6 593/1/6 596/1/6
f 596/1/6 593/1/6 597/1/6
f 594/2/6 595/2/6 599/2/6
f 595/1/6 596/1/6 600/1/6
f 599/2/6 595/2/6 600/2/6
f 596/2/6 597/2/6 601/2/6
f 600/1/6 596/1/6 601/1/6
f 601/2/6 597/2/6 602/2/6
f 598/2/6 599/2/6 605/2/6
f 599/2/6 600/2/6 605/2/6
f 605/2/6 600/2/6 606/2/6
f 602/2/6 603/2/6 607/2/6
f 607/2/6 603/2/6 608/2/6
f 604/2/6 605/2/6 610/2/6
f 610/2/6 605/2/6 611/2/6
f 609/2/6 610/2/6 614/2/6
f 614/2/6 610/2/6 615/2/6
f 612/2/6 613/2/6 616/2/6
f 616/2/6 613/2/6 617/2/6
f 618/1/6 619/1/6 621/1/6
f 621/1/6 619/1/6 624/1/6
f 620/1/6 621/1/6 624/1/6
f 624/1/6 619/1/6 625/1/6
f 622/1/6 623/1/6 626/1/6
f 626/1/6 623/1/6 627/1/6
f 620/1/6 624/1/6 628/1/6
f 628/1/6 624/1/6 629/1/6
f 630/1/6 631/1/6 633/1/6
f 633/1/6 631/1/6 634/1/6
f 632/1/6 633/1/6 635/1/6
f 635/1/6 633/1/6 636/1/6
f 636/1/6 633/1/6 637/1/6
f 637/1/6 633/1/6 638/1/6
f 639/3/6 640/3/6 642/3/6
f 642/3/6 640/3/6 643/3/6
f 642/3/6 643/3/6 645/3/6
f 643/3/6 644/3/6 645/3/6
f 641/3/6 642/3/6 645/3/6
f 645/3/6 644/3/6 646/3/6
f 646/3/6 644/3/6 647/3/6
f 647/3/6 644/3/6 648/3/6
f 646/3/6 647/3/6 649/3/6
f 649/3/6 647/3/6 650/3/6
f 651/2/6 652/2/6 653/2/6
f 653/2/6 652/2/6 654/2/6
