# MagicaVoxel @ Ephtracy

# group
o 

# material
mtllib FloorTileBedRoom.mtl
usemtl palette

# normals
vn -1 0 0
vn 1 0 0
vn 0 0 1
vn 0 0 -1
vn 0 -1 0
vn 0 1 0

# texcoords
vt 0.302734 0.5
vt 0.310547 0.5
vt 0.365234 0.5
vt 0.369141 0.5
vt 0.384766 0.5

# verts
v -2 0 2
v -2 0 -2
v -2 0.1 2
v -2 0.1 -2
v 2 0 2
v 2 0 -2
v 2 0.1 2
v 2 0.1 -2
v -2 0 2
v -2 0.1 2
v -1.1 0 2
v -1.1 0.1 2
v -0.8 0 2
v -0.8 0.1 2
v 0.8 0 2
v 0.8 0.1 2
v 1.3 0 2
v 1.3 0.1 2
v 2 0 2
v 2 0.1 2
v -2 0 -2
v -2 0.1 -2
v 2 0 -2
v 2 0.1 -2
v -2 0 2
v -1.1 0 2
v -0.8 0 2
v 0.8 0 2
v 1.3 0 2
v 2 0 2
v 0.8 0 1.9
v 1 0 1.9
v 1.3 0 1.7
v 1.5 0 1.7
v 0.7 0 1.3
v 1 0 1.3
v 1 0 1.2
v 1.3 0 1.2
v -1.1 0 0.8
v -0.8 0 0.8
v 1.3 0 0.8
v 1.5 0 0.8
v -1.6 0 0.7
v -1.3 0 0.7
v 0.7 0 0.2
v 1 0 0.2
v 0.5 0 -2.38419e-07
v 0.8 0 -2.38419e-07
v -1.6 0 -0.5
v -1.3 0 -0.5
v -1 0 -0.5
v 0.1 0 -0.9
v 0.4 0 -0.9
v 0.5 0 -0.9
v 0.8 0 -0.9
v -1.3 0 -1.7
v -1 0 -1.7
v 0.1 0 -1.8
v 0.4 0 -1.8
v -2 0 -2
v 2 0 -2
v -2 0.1 2
v -1.1 0.1 2
v -0.8 0.1 2
v 0.8 0.1 2
v 1.3 0.1 2
v 2 0.1 2
v 0.8 0.1 1.9
v 1 0.1 1.9
v 1.3 0.1 1.7
v 1.5 0.1 1.7
v 0.7 0.1 1.3
v 1 0.1 1.3
v 1 0.1 1.2
v 1.3 0.1 1.2
v -1.1 0.1 0.8
v -0.8 0.1 0.8
v 1.3 0.1 0.8
v 1.5 0.1 0.8
v -1.6 0.1 0.7
v -1.3 0.1 0.7
v 0.7 0.1 0.2
v 1 0.1 0.2
v 0.5 0.1 -2.38419e-07
v 0.8 0.1 -2.38419e-07
v -1.6 0.1 -0.5
v -1.3 0.1 -0.5
v -1 0.1 -0.5
v 0.1 0.1 -0.9
v 0.4 0.1 -0.9
v 0.5 0.1 -0.9
v 0.8 0.1 -0.9
v -1.3 0.1 -1.7
v -1 0.1 -1.7
v 0.1 0.1 -1.8
v 0.4 0.1 -1.8
v -2 0.1 -2
v 2 0.1 -2

# faces
f 3/3/1 2/3/1 1/3/1
f 4/3/1 2/3/1 3/3/1
f 5/3/2 6/3/2 7/3/2
f 7/3/2 6/3/2 8/3/2
f 11/3/3 10/3/3 9/3/3
f 12/3/3 10/3/3 11/3/3
f 13/4/3 12/4/3 11/4/3
f 14/4/3 12/4/3 13/4/3
f 15/3/3 14/3/3 13/3/3
f 16/3/3 14/3/3 15/3/3
f 17/2/3 16/2/3 15/2/3
f 18/2/3 16/2/3 17/2/3
f 19/3/3 18/3/3 17/3/3
f 20/3/3 18/3/3 19/3/3
f 21/3/4 22/3/4 23/3/4
f 23/3/4 22/3/4 24/3/4
f 31/3/5 28/3/5 27/3/5
f 31/2/5 29/2/5 28/2/5
f 32/2/5 29/2/5 31/2/5
f 33/3/5 30/3/5 29/3/5
f 33/2/5 29/2/5 32/2/5
f 34/3/5 30/3/5 33/3/5
f 35/3/5 32/3/5 31/3/5
f 35/3/5 31/3/5 27/3/5
f 36/2/5 33/2/5 32/2/5
f 36/3/5 32/3/5 35/3/5
f 37/4/5 36/4/5 35/4/5
f 37/2/5 33/2/5 36/2/5
f 38/1/5 34/1/5 33/1/5
f 38/2/5 33/2/5 37/2/5
f 39/3/5 26/3/5 25/3/5
f 39/4/5 27/4/5 26/4/5
f 40/3/5 35/3/5 27/3/5
f 40/4/5 27/4/5 39/4/5
f 41/1/5 34/1/5 38/1/5
f 41/3/5 38/3/5 37/3/5
f 42/3/5 30/3/5 34/3/5
f 42/1/5 34/1/5 41/1/5
f 43/3/5 40/3/5 39/3/5
f 43/3/5 39/3/5 25/3/5
f 44/3/5 40/3/5 43/3/5
f 45/3/5 35/3/5 40/3/5
f 45/3/5 40/3/5 44/3/5
f 45/4/5 37/4/5 35/4/5
f 46/3/5 41/3/5 37/3/5
f 46/4/5 37/4/5 45/4/5
f 46/3/5 42/3/5 41/3/5
f 47/3/5 45/3/5 44/3/5
f 47/3/5 46/3/5 45/3/5
f 48/3/5 46/3/5 47/3/5
f 49/2/5 44/2/5 43/2/5
f 49/3/5 43/3/5 25/3/5
f 50/3/5 47/3/5 44/3/5
f 50/2/5 44/2/5 49/2/5
f 51/3/5 47/3/5 50/3/5
f 52/3/5 47/3/5 51/3/5
f 53/3/5 47/3/5 52/3/5
f 54/5/5 48/5/5 47/5/5
f 54/3/5 47/3/5 53/3/5
f 55/3/5 46/3/5 48/3/5
f 55/5/5 48/5/5 54/5/5
f 56/3/5 50/3/5 49/3/5
f 56/4/5 51/4/5 50/4/5
f 57/3/5 52/3/5 51/3/5
f 57/4/5 51/4/5 56/4/5
f 58/4/5 53/4/5 52/4/5
f 58/3/5 52/3/5 57/3/5
f 58/3/5 57/3/5 56/3/5
f 59/3/5 54/3/5 53/3/5
f 59/4/5 53/4/5 58/4/5
f 59/3/5 55/3/5 54/3/5
f 60/3/5 58/3/5 56/3/5
f 60/3/5 56/3/5 49/3/5
f 60/3/5 59/3/5 58/3/5
f 60/3/5 49/3/5 25/3/5
f 61/3/5 55/3/5 59/3/5
f 61/3/5 59/3/5 60/3/5
f 61/3/5 30/3/5 42/3/5
f 61/3/5 46/3/5 55/3/5
f 61/3/5 42/3/5 46/3/5
f 64/3/6 65/3/6 68/3/6
f 65/2/6 66/2/6 68/2/6
f 68/2/6 66/2/6 69/2/6
f 66/3/6 67/3/6 70/3/6
f 69/2/6 66/2/6 70/2/6
f 70/3/6 67/3/6 71/3/6
f 68/3/6 69/3/6 72/3/6
f 64/3/6 68/3/6 72/3/6
f 69/2/6 70/2/6 73/2/6
f 72/3/6 69/3/6 73/3/6
f 72/4/6 73/4/6 74/4/6
f 73/2/6 70/2/6 74/2/6
f 70/1/6 71/1/6 75/1/6
f 74/2/6 70/2/6 75/2/6
f 62/3/6 63/3/6 76/3/6
f 63/4/6 64/4/6 76/4/6
f 64/3/6 72/3/6 77/3/6
f 76/4/6 64/4/6 77/4/6
f 75/1/6 71/1/6 78/1/6
f 74/3/6 75/3/6 78/3/6
f 71/3/6 67/3/6 79/3/6
f 78/1/6 71/1/6 79/1/6
f 76/3/6 77/3/6 80/3/6
f 62/3/6 76/3/6 80/3/6
f 80/3/6 77/3/6 81/3/6
f 77/3/6 72/3/6 82/3/6
f 81/3/6 77/3/6 82/3/6
f 72/4/6 74/4/6 82/4/6
f 74/3/6 78/3/6 83/3/6
f 82/4/6 74/4/6 83/4/6
f 78/3/6 79/3/6 83/3/6
f 81/3/6 82/3/6 84/3/6
f 82/3/6 83/3/6 84/3/6
f 84/3/6 83/3/6 85/3/6
f 80/2/6 81/2/6 86/2/6
f 62/3/6 80/3/6 86/3/6
f 81/3/6 84/3/6 87/3/6
f 86/2/6 81/2/6 87/2/6
f 87/3/6 84/3/6 88/3/6
f 88/3/6 84/3/6 89/3/6
f 89/3/6 84/3/6 90/3/6
f 84/5/6 85/5/6 91/5/6
f 90/3/6 84/3/6 91/3/6
f 85/3/6 83/3/6 92/3/6
f 91/5/6 85/5/6 92/5/6
f 86/3/6 87/3/6 93/3/6
f 87/4/6 88/4/6 93/4/6
f 88/3/6 89/3/6 94/3/6
f 93/4/6 88/4/6 94/4/6
f 89/4/6 90/4/6 95/4/6
f 94/3/6 89/3/6 95/3/6
f 93/3/6 94/3/6 95/3/6
f 90/3/6 91/3/6 96/3/6
f 95/4/6 90/4/6 96/4/6
f 91/3/6 92/3/6 96/3/6
f 93/3/6 95/3/6 97/3/6
f 86/3/6 93/3/6 97/3/6
f 95/3/6 96/3/6 97/3/6
f 62/3/6 86/3/6 97/3/6
f 96/3/6 92/3/6 98/3/6
f 97/3/6 96/3/6 98/3/6
f 79/3/6 67/3/6 98/3/6
f 92/3/6 83/3/6 98/3/6
f 83/3/6 79/3/6 98/3/6
