# MagicaVoxel @ Ephtracy

# group
o 

# material
mtllib table.mtl
usemtl palette

# normals
vn -1 0 0
vn 1 0 0
vn 0 0 1
vn 0 0 -1
vn 0 -1 0
vn 0 1 0

# texcoords
vt 0.0332031 0.5
vt 0.201172 0.5

# verts
v -0.0999999 0 1.2
v -0.0999999 0 1.1
v -0.0999999 0 -0.4
v -0.0999999 0 -0.5
v -0.0999999 0.6 1.2
v -0.0999999 0.6 1.1
v -0.0999999 0.6 -0.4
v -0.0999999 0.6 -0.5
v -0.0999999 0.7 1.2
v -0.0999999 0.7 1.1
v -0.0999999 0.7 -0.4
v -0.0999999 0.7 -0.5
v -0.0999999 0.8 1.2
v -0.0999999 0.8 -0.5
v 0.7 0 1.2
v 0.7 0 1.1
v 0.7 0 -0.4
v 0.7 0 -0.5
v 0.7 0.6 1.2
v 0.7 0.6 1.1
v 0.7 0.6 -0.4
v 0.7 0.6 -0.5
v 0.7 0.7 1.2
v 0.7 0.7 1.1
v 0.7 0.7 -0.4
v 0.7 0.7 -0.5
v 7.45058e-08 0 1.2
v 7.45058e-08 0 1.1
v 7.45058e-08 0 -0.4
v 7.45058e-08 0 -0.5
v 7.45058e-08 0.6 1.2
v 7.45058e-08 0.6 1.1
v 7.45058e-08 0.6 -0.4
v 7.45058e-08 0.6 -0.5
v 7.45058e-08 0.7 1.2
v 7.45058e-08 0.7 1.1
v 7.45058e-08 0.7 -0.4
v 7.45058e-08 0.7 -0.5
v 0.8 0 1.2
v 0.8 0 1.1
v 0.8 0 -0.4
v 0.8 0 -0.5
v 0.8 0.6 1.2
v 0.8 0.6 1.1
v 0.8 0.6 -0.4
v 0.8 0.6 -0.5
v 0.8 0.7 1.2
v 0.8 0.7 1.1
v 0.8 0.7 -0.4
v 0.8 0.7 -0.5
v 0.8 0.8 1.2
v 0.8 0.8 -0.5
v -0.0999999 0 1.2
v -0.0999999 0.6 1.2
v -0.0999999 0.7 1.2
v -0.0999999 0.8 1.2
v 7.45058e-08 0 1.2
v 7.45058e-08 0.6 1.2
v 7.45058e-08 0.7 1.2
v 0.7 0 1.2
v 0.7 0.6 1.2
v 0.7 0.7 1.2
v 0.8 0 1.2
v 0.8 0.6 1.2
v 0.8 0.7 1.2
v 0.8 0.8 1.2
v -0.0999999 0 -0.4
v -0.0999999 0.6 -0.4
v -0.0999999 0.7 -0.4
v 7.45058e-08 0 -0.4
v 7.45058e-08 0.6 -0.4
v 7.45058e-08 0.7 -0.4
v 0.7 0 -0.4
v 0.7 0.6 -0.4
v 0.7 0.7 -0.4
v 0.8 0 -0.4
v 0.8 0.6 -0.4
v 0.8 0.7 -0.4
v -0.0999999 0 1.1
v -0.0999999 0.6 1.1
v -0.0999999 0.7 1.1
v 7.45058e-08 0 1.1
v 7.45058e-08 0.6 1.1
v 7.45058e-08 0.7 1.1
v 0.7 0 1.1
v 0.7 0.6 1.1
v 0.7 0.7 1.1
v 0.8 0 1.1
v 0.8 0.6 1.1
v 0.8 0.7 1.1
v -0.0999999 0 -0.5
v -0.0999999 0.6 -0.5
v -0.0999999 0.7 -0.5
v -0.0999999 0.8 -0.5
v 7.45058e-08 0 -0.5
v 7.45058e-08 0.6 -0.5
v 7.45058e-08 0.7 -0.5
v 0.7 0 -0.5
v 0.7 0.6 -0.5
v 0.7 0.7 -0.5
v 0.8 0 -0.5
v 0.8 0.6 -0.5
v 0.8 0.7 -0.5
v 0.8 0.8 -0.5
v -0.0999999 0 1.2
v 7.45058e-08 0 1.2
v 0.7 0 1.2
v 0.8 0 1.2
v -0.0999999 0 1.1
v 7.45058e-08 0 1.1
v 0.7 0 1.1
v 0.8 0 1.1
v -0.0999999 0 -0.4
v 7.45058e-08 0 -0.4
v 0.7 0 -0.4
v 0.8 0 -0.4
v -0.0999999 0 -0.5
v 7.45058e-08 0 -0.5
v 0.7 0 -0.5
v 0.8 0 -0.5
v 7.45058e-08 0.7 1.2
v 0.7 0.7 1.2
v -0.0999999 0.7 1.1
v 7.45058e-08 0.7 1.1
v 0.7 0.7 1.1
v 0.8 0.7 1.1
v -0.0999999 0.7 -0.4
v 7.45058e-08 0.7 -0.4
v 0.7 0.7 -0.4
v 0.8 0.7 -0.4
v 7.45058e-08 0.7 -0.5
v 0.7 0.7 -0.5
v -0.0999999 0.8 1.2
v 0.8 0.8 1.2
v -0.0999999 0.8 -0.5
v 0.8 0.8 -0.5

# faces
f 5/1/1 2/1/1 1/1/1
f 6/1/1 2/1/1 5/1/1
f 7/1/1 4/1/1 3/1/1
f 8/1/1 4/1/1 7/1/1
f 9/2/1 6/2/1 5/2/1
f 10/2/1 6/2/1 9/2/1
f 11/2/1 8/2/1 7/2/1
f 12/2/1 8/2/1 11/2/1
f 13/1/1 10/1/1 9/1/1
f 13/1/1 11/1/1 10/1/1
f 13/1/1 12/1/1 11/1/1
f 14/1/1 12/1/1 13/1/1
f 19/1/1 16/1/1 15/1/1
f 20/1/1 16/1/1 19/1/1
f 21/1/1 18/1/1 17/1/1
f 22/1/1 18/1/1 21/1/1
f 23/2/1 20/2/1 19/2/1
f 24/2/1 20/2/1 23/2/1
f 25/2/1 22/2/1 21/2/1
f 26/2/1 22/2/1 25/2/1
f 27/1/2 28/1/2 31/1/2
f 31/1/2 28/1/2 32/1/2
f 29/1/2 30/1/2 33/1/2
f 33/1/2 30/1/2 34/1/2
f 31/2/2 32/2/2 35/2/2
f 35/2/2 32/2/2 36/2/2
f 33/2/2 34/2/2 37/2/2
f 37/2/2 34/2/2 38/2/2
f 39/1/2 40/1/2 43/1/2
f 43/1/2 40/1/2 44/1/2
f 41/1/2 42/1/2 45/1/2
f 45/1/2 42/1/2 46/1/2
f 43/2/2 44/2/2 47/2/2
f 47/2/2 44/2/2 48/2/2
f 45/2/2 46/2/2 49/2/2
f 49/2/2 46/2/2 50/2/2
f 47/1/2 48/1/2 51/1/2
f 48/1/2 49/1/2 51/1/2
f 49/1/2 50/1/2 51/1/2
f 51/1/2 50/1/2 52/1/2
f 57/1/3 54/1/3 53/1/3
f 58/2/3 55/2/3 54/2/3
f 58/1/3 54/1/3 57/1/3
f 59/1/3 56/1/3 55/1/3
f 59/2/3 55/2/3 58/2/3
f 62/1/3 56/1/3 59/1/3
f 63/1/3 61/1/3 60/1/3
f 64/2/3 62/2/3 61/2/3
f 64/1/3 61/1/3 63/1/3
f 65/1/3 56/1/3 62/1/3
f 65/2/3 62/2/3 64/2/3
f 66/1/3 56/1/3 65/1/3
f 70/1/3 68/1/3 67/1/3
f 71/2/3 69/2/3 68/2/3
f 71/1/3 68/1/3 70/1/3
f 72/2/3 69/2/3 71/2/3
f 76/1/3 74/1/3 73/1/3
f 77/2/3 75/2/3 74/2/3
f 77/1/3 74/1/3 76/1/3
f 78/2/3 75/2/3 77/2/3
f 79/1/4 80/1/4 82/1/4
f 80/2/4 81/2/4 83/2/4
f 82/1/4 80/1/4 83/1/4
f 83/2/4 81/2/4 84/2/4
f 85/1/4 86/1/4 88/1/4
f 86/2/4 87/2/4 89/2/4
f 88/1/4 86/1/4 89/1/4
f 89/2/4 87/2/4 90/2/4
f 91/1/4 92/1/4 95/1/4
f 92/2/4 93/2/4 96/2/4
f 95/1/4 92/1/4 96/1/4
f 93/1/4 94/1/4 97/1/4
f 96/2/4 93/2/4 97/2/4
f 97/1/4 94/1/4 100/1/4
f 98/1/4 99/1/4 101/1/4
f 99/2/4 100/2/4 102/2/4
f 101/1/4 99/1/4 102/1/4
f 100/1/4 94/1/4 103/1/4
f 102/2/4 100/2/4 103/2/4
f 103/1/4 94/1/4 104/1/4
f 109/1/5 106/1/5 105/1/5
f 110/1/5 106/1/5 109/1/5
f 111/1/5 108/1/5 107/1/5
f 112/1/5 108/1/5 111/1/5
f 117/1/5 114/1/5 113/1/5
f 118/1/5 114/1/5 117/1/5
f 119/1/5 116/1/5 115/1/5
f 120/1/5 116/1/5 119/1/5
f 124/1/5 122/1/5 121/1/5
f 125/1/5 122/1/5 124/1/5
f 127/1/5 124/1/5 123/1/5
f 127/1/5 126/1/5 125/1/5
f 127/1/5 125/1/5 124/1/5
f 128/1/5 126/1/5 127/1/5
f 129/1/5 126/1/5 128/1/5
f 130/1/5 126/1/5 129/1/5
f 131/1/5 129/1/5 128/1/5
f 132/1/5 129/1/5 131/1/5
f 133/1/6 134/1/6 135/1/6
f 135/1/6 134/1/6 136/1/6
