# MagicaVoxel @ Ephtracy

# group
o 

# material
mtllib bus_d.mtl
usemtl palette

# normals
vn -1 0 0
vn 1 0 0
vn 0 0 1
vn 0 0 -1
vn 0 -1 0
vn 0 1 0

# texcoords
vt 0.876953 0.5
vt 0.880859 0.5
vt 0.916016 0.5
vt 0.947266 0.5
vt 0.970703 0.5

# verts
v -2.2 0.2 0.7
v -2.2 0.2 0.1
v -2.2 0.2 -0.2
v -2.2 0.2 -0.8
v -2.2 0.4 0.7
v -2.2 0.4 0.6
v -2.2 0.4 0.5
v -2.2 0.4 0.4
v -2.2 0.4 0.1
v -2.2 0.4 -0.2
v -2.2 0.4 -0.5
v -2.2 0.4 -0.6
v -2.2 0.4 -0.7
v -2.2 0.4 -0.8
v -2.2 0.5 0.4
v -2.2 0.5 -0.5
v -2.2 0.7 0.7
v -2.2 0.7 0.6
v -2.2 0.7 0.5
v -2.2 0.7 -0.6
v -2.2 0.7 -0.7
v -2.2 0.7 -0.8
v -2.2 0.8 0.5
v -2.2 0.8 -0.6
v -2.2 1.3 0.5
v -2.2 1.3 -0.6
v -2.2 1.5 0.7
v -2.2 1.5 -0.8
v -1.5 0.3 0.7
v -1.5 0.3 0.6
v -1.5 1.3 0.7
v -1.5 1.3 0.6
v -1.1 0 0.7
v -1.1 0 0.5
v -1.1 0 -0.6
v -1.1 0 -0.8
v -1.1 0.2 0.7
v -1.1 0.2 0.5
v -1.1 0.2 -0.6
v -1.1 0.2 -0.8
v -0.3 1.5 0.3
v -0.3 1.5 -0.4
v -0.3 1.6 0.3
v -0.3 1.6 -0.4
v 0.3 0.3 0.7
v 0.3 0.3 0.6
v 0.3 1.3 0.7
v 0.3 1.3 0.6
v 0.7 0 0.7
v 0.7 0 0.5
v 0.7 0 -0.6
v 0.7 0 -0.8
v 0.7 0.2 0.7
v 0.7 0.2 0.5
v 0.7 0.2 -0.6
v 0.7 0.2 -0.8
v 1.6 0.3 0.6
v 1.6 0.3 0.5
v 1.6 1.3 0.6
v 1.6 1.3 0.5
v 2.1 0.3 0.7
v 2.1 0.3 0.6
v 2.1 1.3 0.7
v 2.1 1.3 0.6
v 2.2 0.8 0.9
v 2.2 0.8 0.7
v 2.2 0.8 -0.8
v 2.2 0.8 -1
v 2.2 1.1 0.9
v 2.2 1.1 0.7
v 2.2 1.1 -0.8
v 2.2 1.1 -1
v -2 0.3 0.7
v -2 0.3 0.6
v -2 1.3 0.7
v -2 1.3 0.6
v -0.6 0 0.7
v -0.6 0 0.5
v -0.6 0 -0.6
v -0.6 0 -0.8
v -0.6 0.2 0.7
v -0.6 0.2 0.5
v -0.6 0.2 -0.6
v -0.6 0.2 -0.8
v -0.2 0.3 0.7
v -0.2 0.3 0.6
v -0.2 1.3 0.7
v -0.2 1.3 0.6
v 0.4 1.5 0.3
v 0.4 1.5 -0.4
v 0.4 1.6 0.3
v 0.4 1.6 -0.4
v 1.2 0 0.7
v 1.2 0 0.5
v 1.2 0 -0.6
v 1.2 0 -0.8
v 1.2 0.2 0.7
v 1.2 0.2 0.5
v 1.2 0.2 -0.6
v 1.2 0.2 -0.8
v 1.5 0.3 0.6
v 1.5 0.3 0.5
v 1.5 1.3 0.6
v 1.5 1.3 0.5
v 1.6 0.3 0.7
v 1.6 0.3 0.6
v 1.6 1.3 0.7
v 1.6 1.3 0.6
v 2.3 0.2 0.7
v 2.3 0.2 -0.8
v 2.3 0.3 0.4
v 2.3 0.3 0.3
v 2.3 0.3 0.2
v 2.3 0.3 0.1
v 2.3 0.3 0
v 2.3 0.3 -0.1
v 2.3 0.3 -0.2
v 2.3 0.3 -0.3
v 2.3 0.3 -0.4
v 2.3 0.3 -0.5
v 2.3 0.4 0.7
v 2.3 0.4 0.5
v 2.3 0.4 -0.6
v 2.3 0.4 -0.8
v 2.3 0.5 0.4
v 2.3 0.5 0.3
v 2.3 0.5 0.2
v 2.3 0.5 0.1
v 2.3 0.5 0
v 2.3 0.5 -0.1
v 2.3 0.5 -0.2
v 2.3 0.5 -0.3
v 2.3 0.5 -0.4
v 2.3 0.5 -0.5
v 2.3 0.6 0.7
v 2.3 0.6 0.5
v 2.3 0.6 -0.6
v 2.3 0.6 -0.8
v 2.3 0.8 0.9
v 2.3 0.8 0.7
v 2.3 0.8 0.6
v 2.3 0.8 -0.7
v 2.3 0.8 -0.8
v 2.3 0.8 -1
v 2.3 1.1 0.9
v 2.3 1.1 0.7
v 2.3 1.1 -0.8
v 2.3 1.1 -1
v 2.3 1.3 0.6
v 2.3 1.3 -0.7
v 2.3 1.4 0.6
v 2.3 1.4 -0.7
v 2.3 1.5 0.7
v 2.3 1.5 -0.8
v 2.2 0.8 0.9
v 2.2 1.1 0.9
v 2.3 0.8 0.9
v 2.3 1.1 0.9
v -2.2 0.2 0.7
v -2.2 0.4 0.7
v -2.2 0.7 0.7
v -2.2 1.5 0.7
v -2.1 0.3 0.7
v -2.1 0.4 0.7
v -2.1 0.7 0.7
v -2 0.3 0.7
v -2 1.3 0.7
v -1.5 0.3 0.7
v -1.5 1.3 0.7
v -1.4 0.8 0.7
v -1.4 1.3 0.7
v -1.1 0 0.7
v -1.1 0.2 0.7
v -1.1 0.3 0.7
v -1.1 0.5 0.7
v -1 0.1 0.7
v -1 0.4 0.7
v -0.9 0.8 0.7
v -0.9 1.3 0.7
v -0.8 0.8 0.7
v -0.8 1.3 0.7
v -0.7 0.1 0.7
v -0.7 0.4 0.7
v -0.6 0 0.7
v -0.6 0.2 0.7
v -0.6 0.3 0.7
v -0.6 0.5 0.7
v -0.3 0.8 0.7
v -0.3 1.3 0.7
v -0.2 0.3 0.7
v -0.2 1.3 0.7
v 0.3 0.3 0.7
v 0.3 1.3 0.7
v 0.4 0.8 0.7
v 0.4 1.3 0.7
v 0.7 0 0.7
v 0.7 0.2 0.7
v 0.7 0.3 0.7
v 0.7 0.5 0.7
v 0.8 0.1 0.7
v 0.8 0.4 0.7
v 0.9 0.8 0.7
v 0.9 1.3 0.7
v 1 0.8 0.7
v 1 1.3 0.7
v 1.1 0.1 0.7
v 1.1 0.4 0.7
v 1.2 0 0.7
v 1.2 0.2 0.7
v 1.2 0.3 0.7
v 1.2 0.5 0.7
v 1.5 0.8 0.7
v 1.5 1.3 0.7
v 1.6 0.3 0.7
v 1.6 1.3 0.7
v 2.1 0.3 0.7
v 2.1 1.3 0.7
v 2.2 0.3 0.7
v 2.2 0.4 0.7
v 2.2 0.6 0.7
v 2.2 0.8 0.7
v 2.2 1.1 0.7
v 2.3 0.2 0.7
v 2.3 0.4 0.7
v 2.3 0.6 0.7
v 2.3 0.8 0.7
v 2.3 1.1 0.7
v 2.3 1.5 0.7
v -2 0.3 0.6
v -2 1.3 0.6
v -1.9 0.5 0.6
v -1.9 1.2 0.6
v -1.8 0.5 0.6
v -1.8 1.2 0.6
v -1.7 0.5 0.6
v -1.7 1.2 0.6
v -1.6 0.5 0.6
v -1.6 1.2 0.6
v -1.5 0.3 0.6
v -1.5 1.3 0.6
v -0.2 0.3 0.6
v -0.2 1.3 0.6
v -0.0999999 0.5 0.6
v -0.0999999 1.2 0.6
v 0 0.5 0.6
v 0 1.2 0.6
v 0.1 0.5 0.6
v 0.1 1.2 0.6
v 0.2 0.5 0.6
v 0.2 1.2 0.6
v 0.3 0.3 0.6
v 0.3 1.3 0.6
v 1.6 0.3 0.6
v 1.6 1.3 0.6
v 1.7 0.5 0.6
v 1.7 1.2 0.6
v 1.8 0.5 0.6
v 1.8 1.2 0.6
v 1.9 0.5 0.6
v 1.9 1.2 0.6
v 2 0.5 0.6
v 2 1.2 0.6
v 2.1 0.3 0.6
v 2.1 1.3 0.6
v 1.5 0.3 0.5
v 1.5 1.3 0.5
v 1.6 0.3 0.5
v 1.6 1.3 0.5
v -0.3 1.5 0.3
v -0.3 1.6 0.3
v 0.4 1.5 0.3
v 0.4 1.6 0.3
v -1.1 0 -0.6
v -1.1 0.2 -0.6
v -0.6 0 -0.6
v -0.6 0.2 -0.6
v 0.7 0 -0.6
v 0.7 0.2 -0.6
v 1.2 0 -0.6
v 1.2 0.2 -0.6
v 1.5 0.3 0.6
v 1.5 1.3 0.6
v 1.6 0.3 0.6
v 1.6 1.3 0.6
v -1.1 0 0.5
v -1.1 0.2 0.5
v -0.6 0 0.5
v -0.6 0.2 0.5
v 0.7 0 0.5
v 0.7 0.2 0.5
v 1.2 0 0.5
v 1.2 0.2 0.5
v -0.3 1.5 -0.4
v -0.3 1.6 -0.4
v 0.4 1.5 -0.4
v 0.4 1.6 -0.4
v -2.2 0.2 -0.8
v -2.2 0.4 -0.8
v -2.2 0.7 -0.8
v -2.2 1.5 -0.8
v -2.1 0.3 -0.8
v -2.1 0.4 -0.8
v -2.1 0.7 -0.8
v -2 0.8 -0.8
v -2 1.3 -0.8
v -1.5 0.8 -0.8
v -1.5 1.3 -0.8
v -1.4 0.8 -0.8
v -1.4 1.3 -0.8
v -1.1 0 -0.8
v -1.1 0.2 -0.8
v -1.1 0.3 -0.8
v -1.1 0.5 -0.8
v -1 0.1 -0.8
v -1 0.4 -0.8
v -0.9 0.8 -0.8
v -0.9 1.3 -0.8
v -0.8 0.8 -0.8
v -0.8 1.3 -0.8
v -0.7 0.1 -0.8
v -0.7 0.4 -0.8
v -0.6 0 -0.8
v -0.6 0.2 -0.8
v -0.6 0.3 -0.8
v -0.6 0.5 -0.8
v -0.3 0.8 -0.8
v -0.3 1.3 -0.8
v -0.2 0.8 -0.8
v -0.2 1.3 -0.8
v 0.3 0.8 -0.8
v 0.3 1.3 -0.8
v 0.4 0.8 -0.8
v 0.4 1.3 -0.8
v 0.7 0 -0.8
v 0.7 0.2 -0.8
v 0.7 0.3 -0.8
v 0.7 0.5 -0.8
v 0.8 0.1 -0.8
v 0.8 0.4 -0.8
v 0.9 0.8 -0.8
v 0.9 1.3 -0.8
v 1 0.8 -0.8
v 1 1.3 -0.8
v 1.1 0.1 -0.8
v 1.1 0.4 -0.8
v 1.2 0 -0.8
v 1.2 0.2 -0.8
v 1.2 0.3 -0.8
v 1.2 0.5 -0.8
v 1.5 0.8 -0.8
v 1.5 1.3 -0.8
v 1.6 0.8 -0.8
v 1.6 1.3 -0.8
v 2.1 0.8 -0.8
v 2.1 1.3 -0.8
v 2.2 0.3 -0.8
v 2.2 0.4 -0.8
v 2.2 0.6 -0.8
v 2.2 0.8 -0.8
v 2.2 1.1 -0.8
v 2.3 0.2 -0.8
v 2.3 0.4 -0.8
v 2.3 0.6 -0.8
v 2.3 0.8 -0.8
v 2.3 1.1 -0.8
v 2.3 1.5 -0.8
v 2.2 0.8 -1
v 2.2 1.1 -1
v 2.3 0.8 -1
v 2.3 1.1 -1
v -1.1 0 0.7
v -0.6 0 0.7
v 0.7 0 0.7
v 1.2 0 0.7
v -1.1 0 0.5
v -0.6 0 0.5
v 0.7 0 0.5
v 1.2 0 0.5
v -1.1 0 -0.6
v -0.6 0 -0.6
v 0.7 0 -0.6
v 1.2 0 -0.6
v -1.1 0 -0.8
v -0.6 0 -0.8
v 0.7 0 -0.8
v 1.2 0 -0.8
v -2.2 0.2 0.7
v -1.1 0.2 0.7
v -0.6 0.2 0.7
v 0.7 0.2 0.7
v 1.2 0.2 0.7
v 2.3 0.2 0.7
v -1.1 0.2 0.5
v -0.6 0.2 0.5
v 0.7 0.2 0.5
v 1.2 0.2 0.5
v -2.2 0.2 0.1
v -2.1 0.2 0.1
v -2.2 0.2 -0.2
v -2.1 0.2 -0.2
v -1.1 0.2 -0.6
v -0.6 0.2 -0.6
v 0.7 0.2 -0.6
v 1.2 0.2 -0.6
v -2.2 0.2 -0.8
v -1.1 0.2 -0.8
v -0.6 0.2 -0.8
v 0.7 0.2 -0.8
v 1.2 0.2 -0.8
v 2.3 0.2 -0.8
v 2.2 0.8 0.9
v 2.3 0.8 0.9
v 2.2 0.8 0.7
v 2.3 0.8 0.7
v 2.2 0.8 -0.8
v 2.3 0.8 -0.8
v 2.2 0.8 -1
v 2.3 0.8 -1
v -2 1.3 0.7
v -1.5 1.3 0.7
v -0.2 1.3 0.7
v 0.3 1.3 0.7
v 1.6 1.3 0.7
v 2.1 1.3 0.7
v -2 1.3 0.6
v -1.5 1.3 0.6
v -0.2 1.3 0.6
v 0.3 1.3 0.6
v 1.5 1.3 0.6
v 1.6 1.3 0.6
v 2.1 1.3 0.6
v 1.5 1.3 0.5
v 1.6 1.3 0.5
v -2 0.3 0.7
v -1.5 0.3 0.7
v -0.2 0.3 0.7
v 0.3 0.3 0.7
v 1.6 0.3 0.7
v 2.1 0.3 0.7
v -2 0.3 0.6
v -1.5 0.3 0.6
v -0.2 0.3 0.6
v 0.3 0.3 0.6
v 1.5 0.3 0.6
v 1.6 0.3 0.6
v 2.1 0.3 0.6
v 1.5 0.3 0.5
v 1.6 0.3 0.5
v 2.2 1.1 0.9
v 2.3 1.1 0.9
v 2.2 1.1 0.7
v 2.3 1.1 0.7
v 2.2 1.1 -0.8
v 2.3 1.1 -0.8
v 2.2 1.1 -1
v 2.3 1.1 -1
v -2.2 1.5 0.7
v 2.3 1.5 0.7
v -0.3 1.5 0.3
v 0.4 1.5 0.3
v -0.3 1.5 -0.4
v 0.4 1.5 -0.4
v -2.2 1.5 -0.8
v 2.3 1.5 -0.8
v -0.3 1.6 0.3
v 0.4 1.6 0.3
v -0.3 1.6 -0.4
v 0.4 1.6 -0.4

# faces
f 5/2/1 2/2/1 1/2/1
f 6/2/1 2/2/1 5/2/1
f 7/2/1 2/2/1 6/2/1
f 8/2/1 2/2/1 7/2/1
f 9/4/1 3/4/1 2/4/1
f 9/2/1 2/2/1 8/2/1
f 10/2/1 4/2/1 3/2/1
f 10/4/1 3/4/1 9/4/1
f 11/2/1 4/2/1 10/2/1
f 12/2/1 4/2/1 11/2/1
f 13/2/1 4/2/1 12/2/1
f 14/2/1 4/2/1 13/2/1
f 15/5/1 9/5/1 8/5/1
f 15/4/1 8/4/1 7/4/1
f 15/5/1 10/5/1 9/5/1
f 15/5/1 11/5/1 10/5/1
f 16/4/1 12/4/1 11/4/1
f 16/5/1 11/5/1 15/5/1
f 17/3/1 6/3/1 5/3/1
f 18/2/1 7/2/1 6/2/1
f 18/3/1 6/3/1 17/3/1
f 19/4/1 15/4/1 7/4/1
f 19/2/1 7/2/1 18/2/1
f 19/4/1 16/4/1 15/4/1
f 20/4/1 12/4/1 16/4/1
f 20/4/1 16/4/1 19/4/1
f 20/2/1 13/2/1 12/2/1
f 21/3/1 14/3/1 13/3/1
f 21/2/1 13/2/1 20/2/1
f 22/3/1 14/3/1 21/3/1
f 23/4/1 20/4/1 19/4/1
f 23/4/1 19/4/1 18/4/1
f 23/4/1 22/4/1 21/4/1
f 23/4/1 21/4/1 20/4/1
f 23/4/1 18/4/1 17/4/1
f 24/4/1 22/4/1 23/4/1
f 25/4/1 23/4/1 17/4/1
f 25/1/1 24/1/1 23/1/1
f 26/4/1 22/4/1 24/4/1
f 26/1/1 24/1/1 25/1/1
f 27/4/1 25/4/1 17/4/1
f 27/4/1 26/4/1 25/4/1
f 28/4/1 22/4/1 26/4/1
f 28/4/1 26/4/1 27/4/1
f 31/4/1 30/4/1 29/4/1
f 32/4/1 30/4/1 31/4/1
f 37/5/1 34/5/1 33/5/1
f 38/5/1 34/5/1 37/5/1
f 39/5/1 36/5/1 35/5/1
f 40/5/1 36/5/1 39/5/1
f 43/4/1 42/4/1 41/4/1
f 44/4/1 42/4/1 43/4/1
f 47/4/1 46/4/1 45/4/1
f 48/4/1 46/4/1 47/4/1
f 53/5/1 50/5/1 49/5/1
f 54/5/1 50/5/1 53/5/1
f 55/5/1 52/5/1 51/5/1
f 56/5/1 52/5/1 55/5/1
f 59/4/1 58/4/1 57/4/1
f 60/4/1 58/4/1 59/4/1
f 63/4/1 62/4/1 61/4/1
f 64/4/1 62/4/1 63/4/1
f 69/4/1 66/4/1 65/4/1
f 70/4/1 66/4/1 69/4/1
f 71/4/1 68/4/1 67/4/1
f 72/4/1 68/4/1 71/4/1
f 73/4/2 74/4/2 75/4/2
f 75/4/2 74/4/2 76/4/2
f 77/5/2 78/5/2 81/5/2
f 81/5/2 78/5/2 82/5/2
f 79/5/2 80/5/2 83/5/2
f 83/5/2 80/5/2 84/5/2
f 85/4/2 86/4/2 87/4/2
f 87/4/2 86/4/2 88/4/2
f 89/4/2 90/4/2 91/4/2
f 91/4/2 90/4/2 92/4/2
f 93/5/2 94/5/2 97/5/2
f 97/5/2 94/5/2 98/5/2
f 95/5/2 96/5/2 99/5/2
f 99/5/2 96/5/2 100/5/2
f 101/4/2 102/4/2 103/4/2
f 103/4/2 102/4/2 104/4/2
f 105/4/2 106/4/2 107/4/2
f 107/4/2 106/4/2 108/4/2
f 109/2/2 110/2/2 111/2/2
f 111/2/2 110/2/2 112/2/2
f 112/2/2 110/2/2 113/2/2
f 113/2/2 110/2/2 114/2/2
f 114/2/2 110/2/2 115/2/2
f 115/2/2 110/2/2 116/2/2
f 116/2/2 110/2/2 117/2/2
f 117/2/2 110/2/2 118/2/2
f 118/2/2 110/2/2 119/2/2
f 119/2/2 110/2/2 120/2/2
f 109/2/2 111/2/2 121/2/2
f 121/2/2 111/2/2 122/2/2
f 120/2/2 110/2/2 123/2/2
f 123/2/2 110/2/2 124/2/2
f 122/2/2 111/2/2 125/2/2
f 111/5/2 112/5/2 125/5/2
f 112/2/2 113/2/2 126/2/2
f 125/5/2 112/5/2 126/5/2
f 113/5/2 114/5/2 127/5/2
f 126/2/2 113/2/2 127/2/2
f 114/2/2 115/2/2 128/2/2
f 127/5/2 114/5/2 128/5/2
f 115/5/2 116/5/2 129/5/2
f 128/2/2 115/2/2 129/2/2
f 116/2/2 117/2/2 130/2/2
f 129/5/2 116/5/2 130/5/2
f 117/5/2 118/5/2 131/5/2
f 130/2/2 117/2/2 131/2/2
f 118/2/2 119/2/2 132/2/2
f 131/5/2 118/5/2 132/5/2
f 119/5/2 120/5/2 133/5/2
f 132/2/2 119/2/2 133/2/2
f 120/2/2 123/2/2 134/2/2
f 133/5/2 120/5/2 134/5/2
f 121/3/2 122/3/2 135/3/2
f 122/2/2 125/2/2 136/2/2
f 135/3/2 122/3/2 136/3/2
f 125/2/2 126/2/2 136/2/2
f 133/2/2 134/2/2 136/2/2
f 132/2/2 133/2/2 136/2/2
f 126/2/2 127/2/2 136/2/2
f 127/2/2 128/2/2 136/2/2
f 131/2/2 132/2/2 136/2/2
f 130/2/2 131/2/2 136/2/2
f 129/2/2 130/2/2 136/2/2
f 128/2/2 129/2/2 136/2/2
f 123/3/2 124/3/2 137/3/2
f 136/2/2 134/2/2 137/2/2
f 134/2/2 123/2/2 137/2/2
f 137/3/2 124/3/2 138/3/2
f 135/4/2 136/4/2 140/4/2
f 136/4/2 137/4/2 140/4/2
f 137/4/2 138/4/2 140/4/2
f 140/4/2 138/4/2 141/4/2
f 141/4/2 138/4/2 142/4/2
f 142/4/2 138/4/2 143/4/2
f 139/4/2 140/4/2 145/4/2
f 140/4/2 141/4/2 145/4/2
f 145/4/2 141/4/2 146/4/2
f 142/4/2 143/4/2 147/4/2
f 143/4/2 144/4/2 147/4/2
f 147/4/2 144/4/2 148/4/2
f 146/4/2 141/4/2 149/4/2
f 141/1/2 142/1/2 149/1/2
f 142/4/2 147/4/2 150/4/2
f 149/1/2 142/1/2 150/1/2
f 146/4/2 149/4/2 151/4/2
f 149/5/2 150/5/2 151/5/2
f 150/4/2 147/4/2 152/4/2
f 151/5/2 150/5/2 152/5/2
f 146/4/2 151/4/2 153/4/2
f 151/4/2 152/4/2 153/4/2
f 152/4/2 147/4/2 154/4/2
f 153/4/2 152/4/2 154/4/2
f 157/4/3 156/4/3 155/4/3
f 158/4/3 156/4/3 157/4/3
f 163/2/3 160/2/3 159/2/3
f 164/3/3 161/3/3 160/3/3
f 164/2/3 160/2/3 163/2/3
f 165/4/3 162/4/3 161/4/3
f 165/3/3 161/3/3 164/3/3
f 166/4/3 164/4/3 163/4/3
f 166/2/3 163/2/3 159/2/3
f 166/4/3 165/4/3 164/4/3
f 167/4/3 162/4/3 165/4/3
f 167/4/3 165/4/3 166/4/3
f 168/2/3 166/2/3 159/2/3
f 169/4/3 162/4/3 167/4/3
f 170/4/3 169/4/3 168/4/3
f 171/4/3 162/4/3 169/4/3
f 171/4/3 169/4/3 170/4/3
f 173/2/3 168/2/3 159/2/3
f 174/4/3 170/4/3 168/4/3
f 174/2/3 168/2/3 173/2/3
f 175/4/3 170/4/3 174/4/3
f 176/5/3 173/5/3 172/5/3
f 176/5/3 174/5/3 173/5/3
f 176/5/3 175/5/3 174/5/3
f 177/5/3 175/5/3 176/5/3
f 178/4/3 170/4/3 175/4/3
f 178/1/3 171/1/3 170/1/3
f 179/4/3 162/4/3 171/4/3
f 179/1/3 171/1/3 178/1/3
f 180/4/3 178/4/3 175/4/3
f 180/4/3 179/4/3 178/4/3
f 181/4/3 162/4/3 179/4/3
f 181/4/3 179/4/3 180/4/3
f 182/4/3 177/4/3 176/4/3
f 182/5/3 176/5/3 172/5/3
f 183/5/3 175/5/3 177/5/3
f 183/4/3 177/4/3 182/4/3
f 184/5/3 182/5/3 172/5/3
f 184/5/3 183/5/3 182/5/3
f 185/5/3 183/5/3 184/5/3
f 186/5/3 183/5/3 185/5/3
f 187/4/3 180/4/3 175/4/3
f 187/5/3 183/5/3 186/5/3
f 187/5/3 175/5/3 183/5/3
f 188/4/3 180/4/3 187/4/3
f 188/4/3 187/4/3 186/4/3
f 188/1/3 181/1/3 180/1/3
f 189/4/3 162/4/3 181/4/3
f 189/1/3 181/1/3 188/1/3
f 190/2/3 186/2/3 185/2/3
f 190/4/3 188/4/3 186/4/3
f 190/4/3 189/4/3 188/4/3
f 191/4/3 162/4/3 189/4/3
f 191/4/3 189/4/3 190/4/3
f 192/2/3 190/2/3 185/2/3
f 193/4/3 162/4/3 191/4/3
f 194/4/3 193/4/3 192/4/3
f 195/4/3 162/4/3 193/4/3
f 195/4/3 193/4/3 194/4/3
f 197/2/3 192/2/3 185/2/3
f 198/4/3 194/4/3 192/4/3
f 198/2/3 192/2/3 197/2/3
f 199/4/3 194/4/3 198/4/3
f 200/5/3 197/5/3 196/5/3
f 200/5/3 198/5/3 197/5/3
f 200/5/3 199/5/3 198/5/3
f 201/5/3 199/5/3 200/5/3
f 202/4/3 194/4/3 199/4/3
f 202/1/3 195/1/3 194/1/3
f 203/4/3 162/4/3 195/4/3
f 203/1/3 195/1/3 202/1/3
f 204/4/3 202/4/3 199/4/3
f 204/4/3 203/4/3 202/4/3
f 205/4/3 162/4/3 203/4/3
f 205/4/3 203/4/3 204/4/3
f 206/4/3 201/4/3 200/4/3
f 206/5/3 200/5/3 196/5/3
f 207/5/3 199/5/3 201/5/3
f 207/4/3 201/4/3 206/4/3
f 208/5/3 206/5/3 196/5/3
f 208/5/3 207/5/3 206/5/3
f 209/5/3 207/5/3 208/5/3
f 210/5/3 207/5/3 209/5/3
f 211/4/3 204/4/3 199/4/3
f 211/5/3 207/5/3 210/5/3
f 211/5/3 199/5/3 207/5/3
f 212/4/3 204/4/3 211/4/3
f 212/4/3 211/4/3 210/4/3
f 212/1/3 205/1/3 204/1/3
f 213/4/3 162/4/3 205/4/3
f 213/1/3 205/1/3 212/1/3
f 214/2/3 210/2/3 209/2/3
f 214/4/3 212/4/3 210/4/3
f 214/4/3 213/4/3 212/4/3
f 215/4/3 162/4/3 213/4/3
f 215/4/3 213/4/3 214/4/3
f 216/2/3 214/2/3 209/2/3
f 217/4/3 162/4/3 215/4/3
f 218/2/3 216/2/3 209/2/3
f 218/4/3 217/4/3 216/4/3
f 219/4/3 217/4/3 218/4/3
f 220/4/3 217/4/3 219/4/3
f 221/4/3 217/4/3 220/4/3
f 222/4/3 217/4/3 221/4/3
f 223/2/3 218/2/3 209/2/3
f 223/2/3 219/2/3 218/2/3
f 224/3/3 220/3/3 219/3/3
f 224/2/3 219/2/3 223/2/3
f 225/4/3 221/4/3 220/4/3
f 225/3/3 220/3/3 224/3/3
f 226/4/3 221/4/3 225/4/3
f 227/4/3 217/4/3 222/4/3
f 228/4/3 162/4/3 217/4/3
f 228/4/3 217/4/3 227/4/3
f 231/4/3 230/4/3 229/4/3
f 232/4/3 230/4/3 231/4/3
f 233/4/3 231/4/3 229/4/3
f 233/1/3 232/1/3 231/1/3
f 234/4/3 230/4/3 232/4/3
f 234/1/3 232/1/3 233/1/3
f 235/4/3 233/4/3 229/4/3
f 235/4/3 234/4/3 233/4/3
f 236/4/3 230/4/3 234/4/3
f 236/4/3 234/4/3 235/4/3
f 237/4/3 235/4/3 229/4/3
f 237/1/3 236/1/3 235/1/3
f 238/4/3 230/4/3 236/4/3
f 238/1/3 236/1/3 237/1/3
f 239/4/3 237/4/3 229/4/3
f 239/4/3 238/4/3 237/4/3
f 240/4/3 230/4/3 238/4/3
f 240/4/3 238/4/3 239/4/3
f 243/4/3 242/4/3 241/4/3
f 244/4/3 242/4/3 243/4/3
f 245/4/3 243/4/3 241/4/3
f 245/1/3 244/1/3 243/1/3
f 246/4/3 242/4/3 244/4/3
f 246/1/3 244/1/3 245/1/3
f 247/4/3 245/4/3 241/4/3
f 247/4/3 246/4/3 245/4/3
f 248/4/3 242/4/3 246/4/3
f 248/4/3 246/4/3 247/4/3
f 249/4/3 247/4/3 241/4/3
f 249/1/3 248/1/3 247/1/3
f 250/4/3 242/4/3 248/4/3
f 250/1/3 248/1/3 249/1/3
f 251/4/3 249/4/3 241/4/3
f 251/4/3 250/4/3 249/4/3
f 252/4/3 242/4/3 250/4/3
f 252/4/3 250/4/3 251/4/3
f 255/4/3 254/4/3 253/4/3
f 256/4/3 254/4/3 255/4/3
f 257/4/3 255/4/3 253/4/3
f 257/1/3 256/1/3 255/1/3
f 258/4/3 254/4/3 256/4/3
f 258/1/3 256/1/3 257/1/3
f 259/4/3 257/4/3 253/4/3
f 259/4/3 258/4/3 257/4/3
f 260/4/3 254/4/3 258/4/3
f 260/4/3 258/4/3 259/4/3
f 261/4/3 259/4/3 253/4/3
f 261/1/3 260/1/3 259/1/3
f 262/4/3 254/4/3 260/4/3
f 262/1/3 260/1/3 261/1/3
f 263/4/3 261/4/3 253/4/3
f 263/4/3 262/4/3 261/4/3
f 264/4/3 254/4/3 262/4/3
f 264/4/3 262/4/3 263/4/3
f 267/4/3 266/4/3 265/4/3
f 268/4/3 266/4/3 267/4/3
f 271/4/3 270/4/3 269/4/3
f 272/4/3 270/4/3 271/4/3
f 275/5/3 274/5/3 273/5/3
f 276/5/3 274/5/3 275/5/3
f 279/5/3 278/5/3 277/5/3
f 280/5/3 278/5/3 279/5/3
f 281/4/4 282/4/4 283/4/4
f 283/4/4 282/4/4 284/4/4
f 285/5/4 286/5/4 287/5/4
f 287/5/4 286/5/4 288/5/4
f 289/5/4 290/5/4 291/5/4
f 291/5/4 290/5/4 292/5/4
f 293/4/4 294/4/4 295/4/4
f 295/4/4 294/4/4 296/4/4
f 297/2/4 298/2/4 301/2/4
f 298/3/4 299/3/4 302/3/4
f 301/2/4 298/2/4 302/2/4
f 299/4/4 300/4/4 303/4/4
f 302/3/4 299/3/4 303/3/4
f 301/4/4 302/4/4 304/4/4
f 303/4/4 300/4/4 304/4/4
f 302/4/4 303/4/4 304/4/4
f 304/4/4 300/4/4 305/4/4
f 301/4/4 304/4/4 306/4/4
f 304/1/4 305/1/4 306/1/4
f 305/4/4 300/4/4 307/4/4
f 306/1/4 305/1/4 307/1/4
f 301/4/4 306/4/4 308/4/4
f 306/4/4 307/4/4 308/4/4
f 307/4/4 300/4/4 309/4/4
f 308/4/4 307/4/4 309/4/4
f 297/2/4 301/2/4 311/2/4
f 301/4/4 308/4/4 312/4/4
f 311/2/4 301/2/4 312/2/4
f 312/4/4 308/4/4 313/4/4
f 310/5/4 311/5/4 314/5/4
f 311/5/4 312/5/4 314/5/4
f 312/5/4 313/5/4 314/5/4
f 314/5/4 313/5/4 315/5/4
f 313/4/4 308/4/4 316/4/4
f 308/1/4 309/1/4 316/1/4
f 309/4/4 300/4/4 317/4/4
f 316/1/4 309/1/4 317/1/4
f 313/4/4 316/4/4 318/4/4
f 316/4/4 317/4/4 318/4/4
f 317/4/4 300/4/4 319/4/4
f 318/4/4 317/4/4 319/4/4
f 314/4/4 315/4/4 320/4/4
f 310/5/4 314/5/4 320/5/4
f 315/5/4 313/5/4 321/5/4
f 320/4/4 315/4/4 321/4/4
f 310/5/4 320/5/4 322/5/4
f 320/5/4 321/5/4 322/5/4
f 322/5/4 321/5/4 323/5/4
f 323/5/4 321/5/4 324/5/4
f 313/4/4 318/4/4 325/4/4
f 324/5/4 321/5/4 325/5/4
f 321/5/4 313/5/4 325/5/4
f 325/4/4 318/4/4 326/4/4
f 324/4/4 325/4/4 326/4/4
f 318/1/4 319/1/4 326/1/4
f 319/4/4 300/4/4 327/4/4
f 326/1/4 319/1/4 327/1/4
f 324/4/4 326/4/4 328/4/4
f 326/4/4 327/4/4 328/4/4
f 327/4/4 300/4/4 329/4/4
f 328/4/4 327/4/4 329/4/4
f 324/4/4 328/4/4 330/4/4
f 328/1/4 329/1/4 330/1/4
f 329/4/4 300/4/4 331/4/4
f 330/1/4 329/1/4 331/1/4
f 324/4/4 330/4/4 332/4/4
f 330/4/4 331/4/4 332/4/4
f 331/4/4 300/4/4 333/4/4
f 332/4/4 331/4/4 333/4/4
f 323/2/4 324/2/4 335/2/4
f 324/4/4 332/4/4 336/4/4
f 335/2/4 324/2/4 336/2/4
f 336/4/4 332/4/4 337/4/4
f 334/5/4 335/5/4 338/5/4
f 335/5/4 336/5/4 338/5/4
f 336/5/4 337/5/4 338/5/4
f 338/5/4 337/5/4 339/5/4
f 337/4/4 332/4/4 340/4/4
f 332/1/4 333/1/4 340/1/4
f 333/4/4 300/4/4 341/4/4
f 340/1/4 333/1/4 341/1/4
f 337/4/4 340/4/4 342/4/4
f 340/4/4 341/4/4 342/4/4
f 341/4/4 300/4/4 343/4/4
f 342/4/4 341/4/4 343/4/4
f 338/4/4 339/4/4 344/4/4
f 334/5/4 338/5/4 344/5/4
f 339/5/4 337/5/4 345/5/4
f 344/4/4 339/4/4 345/4/4
f 334/5/4 344/5/4 346/5/4
f 344/5/4 345/5/4 346/5/4
f 346/5/4 345/5/4 347/5/4
f 347/5/4 345/5/4 348/5/4
f 337/4/4 342/4/4 349/4/4
f 348/5/4 345/5/4 349/5/4
f 345/5/4 337/5/4 349/5/4
f 349/4/4 342/4/4 350/4/4
f 348/4/4 349/4/4 350/4/4
f 342/1/4 343/1/4 350/1/4
f 343/4/4 300/4/4 351/4/4
f 350/1/4 343/1/4 351/1/4
f 348/4/4 350/4/4 352/4/4
f 350/4/4 351/4/4 352/4/4
f 351/4/4 300/4/4 353/4/4
f 352/4/4 351/4/4 353/4/4
f 348/4/4 352/4/4 354/4/4
f 352/1/4 353/1/4 354/1/4
f 353/4/4 300/4/4 355/4/4
f 354/1/4 353/1/4 355/1/4
f 347/2/4 348/2/4 356/2/4
f 348/4/4 354/4/4 356/4/4
f 354/4/4 355/4/4 356/4/4
f 356/4/4 355/4/4 357/4/4
f 357/4/4 355/4/4 358/4/4
f 358/4/4 355/4/4 359/4/4
f 359/4/4 355/4/4 360/4/4
f 347/2/4 356/2/4 361/2/4
f 356/2/4 357/2/4 361/2/4
f 357/3/4 358/3/4 362/3/4
f 361/2/4 357/2/4 362/2/4
f 358/4/4 359/4/4 363/4/4
f 362/3/4 358/3/4 363/3/4
f 363/4/4 359/4/4 364/4/4
f 360/4/4 355/4/4 365/4/4
f 355/4/4 300/4/4 366/4/4
f 365/4/4 355/4/4 366/4/4
f 367/4/4 368/4/4 369/4/4
f 369/4/4 368/4/4 370/4/4
f 375/5/5 372/5/5 371/5/5
f 376/5/5 372/5/5 375/5/5
f 377/5/5 374/5/5 373/5/5
f 378/5/5 374/5/5 377/5/5
f 383/5/5 380/5/5 379/5/5
f 384/5/5 380/5/5 383/5/5
f 385/5/5 382/5/5 381/5/5
f 386/5/5 382/5/5 385/5/5
f 393/2/5 388/2/5 387/2/5
f 394/2/5 390/2/5 389/2/5
f 395/2/5 390/2/5 394/2/5
f 396/2/5 392/2/5 391/2/5
f 397/2/5 395/2/5 394/2/5
f 397/2/5 396/2/5 395/2/5
f 397/2/5 393/2/5 387/2/5
f 397/2/5 394/2/5 393/2/5
f 398/2/5 396/2/5 397/2/5
f 399/4/5 398/4/5 397/4/5
f 400/2/5 396/2/5 398/2/5
f 400/4/5 398/4/5 399/4/5
f 401/2/5 400/2/5 399/2/5
f 401/2/5 396/2/5 400/2/5
f 402/2/5 396/2/5 401/2/5
f 403/2/5 396/2/5 402/2/5
f 404/2/5 392/2/5 396/2/5
f 404/2/5 396/2/5 403/2/5
f 405/2/5 401/2/5 399/2/5
f 406/2/5 401/2/5 405/2/5
f 407/2/5 403/2/5 402/2/5
f 408/2/5 403/2/5 407/2/5
f 409/2/5 392/2/5 404/2/5
f 410/2/5 392/2/5 409/2/5
f 413/4/5 412/4/5 411/4/5
f 414/4/5 412/4/5 413/4/5
f 417/4/5 416/4/5 415/4/5
f 418/4/5 416/4/5 417/4/5
f 425/4/5 420/4/5 419/4/5
f 426/4/5 420/4/5 425/4/5
f 427/4/5 422/4/5 421/4/5
f 428/4/5 422/4/5 427/4/5
f 430/4/5 424/4/5 423/4/5
f 431/4/5 424/4/5 430/4/5
f 432/4/5 430/4/5 429/4/5
f 433/4/5 430/4/5 432/4/5
f 434/2/6 435/2/6 440/2/6
f 440/2/6 435/2/6 441/2/6
f 436/2/6 437/2/6 442/2/6
f 442/2/6 437/2/6 443/2/6
f 438/2/6 439/2/6 445/2/6
f 445/2/6 439/2/6 446/2/6
f 444/2/6 445/2/6 447/2/6
f 447/2/6 445/2/6 448/2/6
f 449/4/6 450/4/6 451/4/6
f 451/4/6 450/4/6 452/4/6
f 453/4/6 454/4/6 455/4/6
f 455/4/6 454/4/6 456/4/6
f 457/4/6 458/4/6 459/4/6
f 459/4/6 458/4/6 460/4/6
f 457/4/6 459/4/6 461/4/6
f 460/4/6 458/4/6 462/4/6
f 457/4/6 461/4/6 463/4/6
f 461/4/6 462/4/6 463/4/6
f 462/4/6 458/4/6 464/4/6
f 463/4/6 462/4/6 464/4/6
f 465/4/6 466/4/6 467/4/6
f 467/4/6 466/4/6 468/4/6
