# MagicaVoxel @ Ephtracy

# group
o Face

# material
mtllib Voxel Universe-13-Face.mtl
usemtl palette

# normals
vn -1 0 0
vn 1 0 0
vn 0 0 1
vn 0 0 -1
vn 0 -1 0
vn 0 1 0

# texcoords
vt 0.0332031 0.5
vt 0.0566406 0.5
vt 0.0839844 0.5
vt 0.548828 0.5
vt 0.990234 0.5

# verts
v -10.5 0.4 11.7
v -10.5 0.4 11.5
v -10.5 0.6 11.7
v -10.5 0.6 11.5
v -10.5 1.3 11.8
v -10.5 1.3 11.4
v -10.5 1.4 11.9
v -10.5 1.4 11.8
v -10.5 1.4 11.4
v -10.5 1.4 11.3
v -10.5 1.6 11.9
v -10.5 1.6 11.3
v -10.4 0 12.3
v -10.4 0 10.9
v -10.4 0.1 11.9
v -10.4 0.1 11.3
v -10.4 0.2 12.3
v -10.4 0.2 12.2
v -10.4 0.2 12
v -10.4 0.2 11.9
v -10.4 0.2 11.8
v -10.4 0.2 11.7
v -10.4 0.2 11.5
v -10.4 0.2 11.4
v -10.4 0.2 11.3
v -10.4 0.2 11.2
v -10.4 0.2 11
v -10.4 0.2 10.9
v -10.4 0.3 12.3
v -10.4 0.3 12.2
v -10.4 0.3 12
v -10.4 0.3 11.9
v -10.4 0.3 11.8
v -10.4 0.3 11.7
v -10.4 0.3 11.5
v -10.4 0.3 11.4
v -10.4 0.3 11.3
v -10.4 0.3 11.2
v -10.4 0.3 11
v -10.4 0.3 10.9
v -10.4 0.4 11.9
v -10.4 0.4 11.7
v -10.4 0.4 11.5
v -10.4 0.4 11.3
v -10.4 0.5 12.1
v -10.4 0.5 11.9
v -10.4 0.5 11.3
v -10.4 0.5 11.1
v -10.4 0.6 12.2
v -10.4 0.6 12.1
v -10.4 0.6 11.9
v -10.4 0.6 11.7
v -10.4 0.6 11.5
v -10.4 0.6 11.3
v -10.4 0.6 11.1
v -10.4 0.6 11
v -10.4 0.7 12.2
v -10.4 0.7 12.1
v -10.4 0.7 12
v -10.4 0.7 11.9
v -10.4 0.7 11.2
v -10.4 0.7 11.1
v -10.4 0.7 11
v -10.4 0.8 12.1
v -10.4 0.8 12
v -10.4 0.8 11.9
v -10.4 0.8 11.3
v -10.4 0.8 11.2
v -10.4 0.8 11.1
v -10.4 0.9 12
v -10.4 0.9 11.9
v -10.4 0.9 11.3
v -10.4 0.9 11.2
v -10.4 1 12.3
v -10.4 1 11.8
v -10.4 1 11.4
v -10.4 1 10.9
v -10.4 1.1 12.3
v -10.4 1.1 12.2
v -10.4 1.1 11.9
v -10.4 1.1 11.8
v -10.4 1.1 11.4
v -10.4 1.1 11.3
v -10.4 1.1 11
v -10.4 1.1 10.9
v -10.4 1.2 12.2
v -10.4 1.2 11.9
v -10.4 1.2 11.3
v -10.4 1.2 11
v -10.4 1.3 11.8
v -10.4 1.3 11.4
v -10.4 1.4 12.3
v -10.4 1.4 11.9
v -10.4 1.4 11.8
v -10.4 1.4 11.4
v -10.4 1.4 11.3
v -10.4 1.4 10.9
v -10.4 1.5 12.3
v -10.4 1.5 12.2
v -10.4 1.5 11
v -10.4 1.5 10.9
v -10.4 1.6 12.2
v -10.4 1.6 11.9
v -10.4 1.6 11.3
v -10.4 1.6 11
v -10 0.4 12.4
v -10 0.4 12.3
v -10 0.4 10.9
v -10 0.4 10.8
v -10 0.8 12.4
v -10 0.8 12.3
v -10 0.8 10.9
v -10 0.8 10.8
v -9.8 0.4 12.4
v -9.8 0.4 12.3
v -9.8 0.4 10.9
v -9.8 0.4 10.8
v -9.8 0.8 12.4
v -9.8 0.8 12.3
v -9.8 0.8 10.9
v -9.8 0.8 10.8
v -9.4 0 12.3
v -9.4 0 10.9
v -9.4 0.4 12.3
v -9.4 0.4 10.9
v -9.4 1.5 12.3
v -9.4 1.5 12.2
v -9.4 1.5 11
v -9.4 1.5 10.9
v -9.4 1.6 12.2
v -9.4 1.6 11
v -10 0.4 12.4
v -10 0.8 12.4
v -9.8 0.4 12.4
v -9.8 0.8 12.4
v -10.4 0 12.3
v -10.4 0.2 12.3
v -10.4 0.3 12.3
v -10.4 1 12.3
v -10.4 1.1 12.3
v -10.4 1.4 12.3
v -10.4 1.5 12.3
v -10.3 1 12.3
v -10.3 1.1 12.3
v -10.3 1.3 12.3
v -10.3 1.4 12.3
v -10.2 0.2 12.3
v -10.2 0.3 12.3
v -10.2 0.4 12.3
v -10.2 1.2 12.3
v -10.2 1.3 12.3
v -10.2 1.4 12.3
v -10.1 0.3 12.3
v -10.1 0.4 12.3
v -10.1 1.2 12.3
v -10.1 1.3 12.3
v -10 0 12.3
v -10 0.4 12.3
v -10 0.8 12.3
v -9.8 0.4 12.3
v -9.8 0.8 12.3
v -9.4 0 12.3
v -9.4 0.4 12.3
v -9.4 1.5 12.3
v -10.4 1.5 12.2
v -10.4 1.6 12.2
v -9.4 1.5 12.2
v -9.4 1.6 12.2
v -10.5 1.4 11.9
v -10.5 1.6 11.9
v -10.4 1.4 11.9
v -10.4 1.6 11.9
v -10.5 1.3 11.8
v -10.5 1.4 11.8
v -10.4 1.3 11.8
v -10.4 1.4 11.8
v -10.5 0.4 11.7
v -10.5 0.6 11.7
v -10.4 0.4 11.7
v -10.4 0.6 11.7
v -10.5 0.4 11.5
v -10.5 0.6 11.5
v -10.4 0.4 11.5
v -10.4 0.6 11.5
v -10.5 1.3 11.4
v -10.5 1.4 11.4
v -10.4 1.3 11.4
v -10.4 1.4 11.4
v -10.5 1.4 11.3
v -10.5 1.6 11.3
v -10.4 1.4 11.3
v -10.4 1.6 11.3
v -10.4 1.5 11
v -10.4 1.6 11
v -9.4 1.5 11
v -9.4 1.6 11
v -10.4 0 10.9
v -10.4 0.2 10.9
v -10.4 0.3 10.9
v -10.4 1 10.9
v -10.4 1.1 10.9
v -10.4 1.4 10.9
v -10.4 1.5 10.9
v -10.3 1 10.9
v -10.3 1.1 10.9
v -10.3 1.3 10.9
v -10.3 1.4 10.9
v -10.2 0.2 10.9
v -10.2 0.3 10.9
v -10.2 0.4 10.9
v -10.2 1.2 10.9
v -10.2 1.3 10.9
v -10.2 1.4 10.9
v -10.1 0.3 10.9
v -10.1 0.4 10.9
v -10.1 1.2 10.9
v -10.1 1.3 10.9
v -10 0 10.9
v -10 0.4 10.9
v -10 0.8 10.9
v -9.8 0.4 10.9
v -9.8 0.8 10.9
v -9.4 0 10.9
v -9.4 0.4 10.9
v -9.4 1.5 10.9
v -10 0.4 10.8
v -10 0.8 10.8
v -9.8 0.4 10.8
v -9.8 0.8 10.8
v -10.4 0 12.3
v -10 0 12.3
v -9.4 0 12.3
v -10.2 0 12.2
v -10 0 12.2
v -10.2 0 11
v -10 0 11
v -10.4 0 10.9
v -10 0 10.9
v -9.4 0 10.9
v -10 0.4 12.4
v -9.8 0.4 12.4
v -10 0.4 12.3
v -9.8 0.4 12.3
v -10.5 0.4 11.7
v -10.4 0.4 11.7
v -10.5 0.4 11.5
v -10.4 0.4 11.5
v -10 0.4 10.9
v -9.8 0.4 10.9
v -10 0.4 10.8
v -9.8 0.4 10.8
v -10.5 1.3 11.8
v -10.4 1.3 11.8
v -10.5 1.3 11.4
v -10.4 1.3 11.4
v -10.5 1.4 11.9
v -10.4 1.4 11.9
v -10.5 1.4 11.8
v -10.4 1.4 11.8
v -10.5 1.4 11.4
v -10.4 1.4 11.4
v -10.5 1.4 11.3
v -10.4 1.4 11.3
v -10.5 0.6 11.7
v -10.4 0.6 11.7
v -10.5 0.6 11.5
v -10.4 0.6 11.5
v -10 0.8 12.4
v -9.8 0.8 12.4
v -10 0.8 12.3
v -9.8 0.8 12.3
v -10 0.8 10.9
v -9.8 0.8 10.9
v -10 0.8 10.8
v -9.8 0.8 10.8
v -10.4 1.5 12.3
v -9.4 1.5 12.3
v -10.4 1.5 12.2
v -9.4 1.5 12.2
v -10.4 1.5 11
v -9.4 1.5 11
v -10.4 1.5 10.9
v -9.4 1.5 10.9
v -10.4 1.6 12.2
v -9.4 1.6 12.2
v -10.5 1.6 11.9
v -10.4 1.6 11.9
v -10.5 1.6 11.3
v -10.4 1.6 11.3
v -10.4 1.6 11
v -9.4 1.6 11

# faces
f 3/3/1 2/3/1 1/3/1
f 4/3/1 2/3/1 3/3/1
f 8/5/1 6/5/1 5/5/1
f 9/5/1 6/5/1 8/5/1
f 11/5/1 8/5/1 7/5/1
f 11/5/1 10/5/1 9/5/1
f 11/5/1 9/5/1 8/5/1
f 12/5/1 10/5/1 11/5/1
f 15/5/1 14/5/1 13/5/1
f 16/5/1 14/5/1 15/5/1
f 17/5/1 15/5/1 13/5/1
f 18/5/1 15/5/1 17/5/1
f 19/5/1 15/5/1 18/5/1
f 20/2/1 16/2/1 15/2/1
f 20/5/1 15/5/1 19/5/1
f 21/2/1 16/2/1 20/2/1
f 22/2/1 16/2/1 21/2/1
f 23/2/1 16/2/1 22/2/1
f 24/2/1 16/2/1 23/2/1
f 25/5/1 14/5/1 16/5/1
f 25/2/1 16/2/1 24/2/1
f 26/5/1 14/5/1 25/5/1
f 27/5/1 14/5/1 26/5/1
f 28/5/1 14/5/1 27/5/1
f 29/4/1 18/4/1 17/4/1
f 30/2/1 19/2/1 18/2/1
f 30/4/1 18/4/1 29/4/1
f 31/5/1 20/5/1 19/5/1
f 31/2/1 19/2/1 30/2/1
f 31/5/1 21/5/1 20/5/1
f 32/5/1 21/5/1 31/5/1
f 33/4/1 22/4/1 21/4/1
f 33/5/1 21/5/1 32/5/1
f 34/3/1 23/3/1 22/3/1
f 34/4/1 22/4/1 33/4/1
f 35/4/1 24/4/1 23/4/1
f 35/3/1 23/3/1 34/3/1
f 36/5/1 25/5/1 24/5/1
f 36/4/1 24/4/1 35/4/1
f 36/5/1 26/5/1 25/5/1
f 37/5/1 26/5/1 36/5/1
f 38/2/1 27/2/1 26/2/1
f 38/5/1 26/5/1 37/5/1
f 39/4/1 28/4/1 27/4/1
f 39/2/1 27/2/1 38/2/1
f 40/4/1 28/4/1 39/4/1
f 41/5/1 34/5/1 33/5/1
f 41/2/1 30/2/1 29/2/1
f 41/2/1 32/2/1 31/2/1
f 41/5/1 33/5/1 32/5/1
f 41/5/1 36/5/1 35/5/1
f 41/5/1 37/5/1 36/5/1
f 41/2/1 31/2/1 30/2/1
f 41/5/1 35/5/1 34/5/1
f 42/5/1 37/5/1 41/5/1
f 43/5/1 37/5/1 42/5/1
f 44/2/1 40/2/1 39/2/1
f 44/5/1 37/5/1 43/5/1
f 44/2/1 38/2/1 37/2/1
f 44/2/1 39/2/1 38/2/1
f 45/2/1 42/2/1 41/2/1
f 45/2/1 41/2/1 29/2/1
f 46/2/1 42/2/1 45/2/1
f 47/2/1 40/2/1 44/2/1
f 47/2/1 44/2/1 43/2/1
f 48/2/1 40/2/1 47/2/1
f 49/2/1 45/2/1 29/2/1
f 50/4/1 46/4/1 45/4/1
f 50/2/1 45/2/1 49/2/1
f 51/2/1 42/2/1 46/2/1
f 51/4/1 46/4/1 50/4/1
f 52/2/1 42/2/1 51/2/1
f 53/2/1 47/2/1 43/2/1
f 54/4/1 48/4/1 47/4/1
f 54/2/1 47/2/1 53/2/1
f 55/2/1 40/2/1 48/2/1
f 55/4/1 48/4/1 54/4/1
f 56/2/1 40/2/1 55/2/1
f 57/4/1 50/4/1 49/4/1
f 57/2/1 49/2/1 29/2/1
f 58/5/1 51/5/1 50/5/1
f 58/4/1 50/4/1 57/4/1
f 59/5/1 51/5/1 58/5/1
f 60/2/1 54/2/1 53/2/1
f 60/5/1 51/5/1 59/5/1
f 60/2/1 52/2/1 51/2/1
f 60/2/1 53/2/1 52/2/1
f 61/5/1 55/5/1 54/5/1
f 62/4/1 56/4/1 55/4/1
f 62/5/1 55/5/1 61/5/1
f 63/2/1 40/2/1 56/2/1
f 63/4/1 56/4/1 62/4/1
f 64/5/1 59/5/1 58/5/1
f 64/2/1 58/2/1 57/2/1
f 65/1/1 60/1/1 59/1/1
f 65/5/1 59/5/1 64/5/1
f 66/2/1 54/2/1 60/2/1
f 66/1/1 60/1/1 65/1/1
f 67/5/1 61/5/1 54/5/1
f 67/2/1 54/2/1 66/2/1
f 68/1/1 62/1/1 61/1/1
f 68/5/1 61/5/1 67/5/1
f 69/2/1 63/2/1 62/2/1
f 69/1/1 62/1/1 68/1/1
f 70/4/1 66/4/1 65/4/1
f 70/2/1 65/2/1 64/2/1
f 71/2/1 67/2/1 66/2/1
f 71/4/1 66/4/1 70/4/1
f 72/4/1 68/4/1 67/4/1
f 72/2/1 67/2/1 71/2/1
f 73/2/1 69/2/1 68/2/1
f 73/4/1 68/4/1 72/4/1
f 74/2/1 70/2/1 64/2/1
f 74/2/1 71/2/1 70/2/1
f 74/2/1 73/2/1 72/2/1
f 74/2/1 64/2/1 57/2/1
f 74/2/1 72/2/1 71/2/1
f 74/2/1 57/2/1 29/2/1
f 75/2/1 73/2/1 74/2/1
f 76/2/1 73/2/1 75/2/1
f 77/2/1 69/2/1 73/2/1
f 77/2/1 73/2/1 76/2/1
f 77/2/1 63/2/1 69/2/1
f 77/2/1 40/2/1 63/2/1
f 78/4/1 75/4/1 74/4/1
f 79/4/1 75/4/1 78/4/1
f 80/4/1 75/4/1 79/4/1
f 81/2/1 76/2/1 75/2/1
f 81/4/1 75/4/1 80/4/1
f 82/4/1 77/4/1 76/4/1
f 82/2/1 76/2/1 81/2/1
f 83/4/1 77/4/1 82/4/1
f 84/4/1 77/4/1 83/4/1
f 85/4/1 77/4/1 84/4/1
f 86/5/1 80/5/1 79/5/1
f 86/2/1 79/2/1 78/2/1
f 87/2/1 81/2/1 80/2/1
f 87/5/1 80/5/1 86/5/1
f 87/2/1 82/2/1 81/2/1
f 87/2/1 83/2/1 82/2/1
f 88/5/1 84/5/1 83/5/1
f 88/2/1 83/2/1 87/2/1
f 89/2/1 85/2/1 84/2/1
f 89/5/1 84/5/1 88/5/1
f 90/2/1 88/2/1 87/2/1
f 90/2/1 87/2/1 86/2/1
f 90/2/1 89/2/1 88/2/1
f 91/2/1 89/2/1 90/2/1
f 92/2/1 86/2/1 78/2/1
f 92/2/1 90/2/1 86/2/1
f 93/2/1 90/2/1 92/2/1
f 94/2/1 90/2/1 93/2/1
f 95/2/1 89/2/1 91/2/1
f 96/2/1 89/2/1 95/2/1
f 97/2/1 85/2/1 89/2/1
f 97/2/1 89/2/1 96/2/1
f 98/5/1 93/5/1 92/5/1
f 99/5/1 93/5/1 98/5/1
f 100/5/1 97/5/1 96/5/1
f 101/5/1 97/5/1 100/5/1
f 102/5/1 93/5/1 99/5/1
f 103/5/1 93/5/1 102/5/1
f 104/5/1 100/5/1 96/5/1
f 105/5/1 100/5/1 104/5/1
f 110/3/1 107/3/1 106/3/1
f 111/3/1 107/3/1 110/3/1
f 112/3/1 109/3/1 108/3/1
f 113/3/1 109/3/1 112/3/1
f 114/3/2 115/3/2 118/3/2
f 118/3/2 115/3/2 119/3/2
f 116/3/2 117/3/2 120/3/2
f 120/3/2 117/3/2 121/3/2
f 122/2/2 123/2/2 124/2/2
f 124/2/2 123/2/2 125/2/2
f 124/5/2 125/5/2 126/5/2
f 126/5/2 125/5/2 127/5/2
f 127/5/2 125/5/2 128/5/2
f 128/5/2 125/5/2 129/5/2
f 127/5/2 128/5/2 130/5/2
f 130/5/2 128/5/2 131/5/2
f 134/3/3 133/3/3 132/3/3
f 135/3/3 133/3/3 134/3/3
f 143/2/3 139/2/3 138/2/3
f 143/4/3 140/4/3 139/4/3
f 144/2/3 141/2/3 140/2/3
f 144/4/3 140/4/3 143/4/3
f 145/2/3 141/2/3 144/2/3
f 146/5/3 142/5/3 141/5/3
f 146/2/3 141/2/3 145/2/3
f 147/5/3 137/5/3 136/5/3
f 147/4/3 138/4/3 137/4/3
f 148/2/3 145/2/3 144/2/3
f 148/4/3 138/4/3 147/4/3
f 148/2/3 143/2/3 138/2/3
f 148/2/3 144/2/3 143/2/3
f 149/2/3 145/2/3 148/2/3
f 150/2/3 145/2/3 149/2/3
f 151/4/3 146/4/3 145/4/3
f 151/2/3 145/2/3 150/2/3
f 152/5/3 142/5/3 146/5/3
f 152/4/3 146/4/3 151/4/3
f 153/5/3 148/5/3 147/5/3
f 153/4/3 149/4/3 148/4/3
f 154/2/3 150/2/3 149/2/3
f 154/4/3 149/4/3 153/4/3
f 155/4/3 151/4/3 150/4/3
f 155/2/3 150/2/3 154/2/3
f 156/5/3 152/5/3 151/5/3
f 156/4/3 151/4/3 155/4/3
f 157/5/3 154/5/3 153/5/3
f 157/5/3 153/5/3 147/5/3
f 157/5/3 156/5/3 155/5/3
f 157/5/3 155/5/3 154/5/3
f 157/5/3 147/5/3 136/5/3
f 158/5/3 156/5/3 157/5/3
f 159/5/3 156/5/3 158/5/3
f 160/2/3 158/2/3 157/2/3
f 161/5/3 156/5/3 159/5/3
f 162/2/3 160/2/3 157/2/3
f 163/5/3 161/5/3 160/5/3
f 163/2/3 160/2/3 162/2/3
f 164/5/3 152/5/3 156/5/3
f 164/5/3 161/5/3 163/5/3
f 164/5/3 142/5/3 152/5/3
f 164/5/3 156/5/3 161/5/3
f 167/5/3 166/5/3 165/5/3
f 168/5/3 166/5/3 167/5/3
f 171/5/3 170/5/3 169/5/3
f 172/5/3 170/5/3 171/5/3
f 175/5/3 174/5/3 173/5/3
f 176/5/3 174/5/3 175/5/3
f 179/3/3 178/3/3 177/3/3
f 180/3/3 178/3/3 179/3/3
f 181/3/4 182/3/4 183/3/4
f 183/3/4 182/3/4 184/3/4
f 185/5/4 186/5/4 187/5/4
f 187/5/4 186/5/4 188/5/4
f 189/5/4 190/5/4 191/5/4
f 191/5/4 190/5/4 192/5/4
f 193/5/4 194/5/4 195/5/4
f 195/5/4 194/5/4 196/5/4
f 199/2/4 200/2/4 204/2/4
f 200/4/4 201/4/4 204/4/4
f 201/2/4 202/2/4 205/2/4
f 204/4/4 201/4/4 205/4/4
f 205/2/4 202/2/4 206/2/4
f 202/5/4 203/5/4 207/5/4
f 206/2/4 202/2/4 207/2/4
f 197/5/4 198/5/4 208/5/4
f 198/4/4 199/4/4 208/4/4
f 205/2/4 206/2/4 209/2/4
f 208/4/4 199/4/4 209/4/4
f 199/2/4 204/2/4 209/2/4
f 204/2/4 205/2/4 209/2/4
f 209/2/4 206/2/4 210/2/4
f 210/2/4 206/2/4 211/2/4
f 206/4/4 207/4/4 212/4/4
f 211/2/4 206/2/4 212/2/4
f 207/5/4 203/5/4 213/5/4
f 212/4/4 207/4/4 213/4/4
f 208/5/4 209/5/4 214/5/4
f 209/4/4 210/4/4 214/4/4
f 210/2/4 211/2/4 215/2/4
f 214/4/4 210/4/4 215/4/4
f 211/4/4 212/4/4 216/4/4
f 215/2/4 211/2/4 216/2/4
f 212/5/4 213/5/4 217/5/4
f 216/4/4 212/4/4 217/4/4
f 214/5/4 215/5/4 218/5/4
f 208/5/4 214/5/4 218/5/4
f 216/5/4 217/5/4 218/5/4
f 215/5/4 216/5/4 218/5/4
f 197/5/4 208/5/4 218/5/4
f 218/5/4 217/5/4 219/5/4
f 219/5/4 217/5/4 220/5/4
f 218/2/4 219/2/4 221/2/4
f 220/5/4 217/5/4 222/5/4
f 218/2/4 221/2/4 223/2/4
f 221/5/4 222/5/4 224/5/4
f 223/2/4 221/2/4 224/2/4
f 217/5/4 213/5/4 225/5/4
f 224/5/4 222/5/4 225/5/4
f 213/5/4 203/5/4 225/5/4
f 222/5/4 217/5/4 225/5/4
f 226/3/4 227/3/4 228/3/4
f 228/3/4 227/3/4 229/3/4
f 233/5/5 231/5/5 230/5/5
f 234/2/5 232/2/5 231/2/5
f 234/5/5 231/5/5 233/5/5
f 235/5/5 233/5/5 230/5/5
f 235/2/5 234/2/5 233/2/5
f 236/2/5 232/2/5 234/2/5
f 236/2/5 234/2/5 235/2/5
f 237/5/5 235/5/5 230/5/5
f 237/5/5 236/5/5 235/5/5
f 238/2/5 232/2/5 236/2/5
f 238/5/5 236/5/5 237/5/5
f 239/2/5 232/2/5 238/2/5
f 242/3/5 241/3/5 240/3/5
f 243/3/5 241/3/5 242/3/5
f 246/3/5 245/3/5 244/3/5
f 247/3/5 245/3/5 246/3/5
f 250/3/5 249/3/5 248/3/5
f 251/3/5 249/3/5 250/3/5
f 254/5/5 253/5/5 252/5/5
f 255/5/5 253/5/5 254/5/5
f 258/5/5 257/5/5 256/5/5
f 259/5/5 257/5/5 258/5/5
f 262/5/5 261/5/5 260/5/5
f 263/5/5 261/5/5 262/5/5
f 264/3/6 265/3/6 266/3/6
f 266/3/6 265/3/6 267/3/6
f 268/3/6 269/3/6 270/3/6
f 270/3/6 269/3/6 271/3/6
f 272/3/6 273/3/6 274/3/6
f 274/3/6 273/3/6 275/3/6
f 276/5/6 277/5/6 278/5/6
f 278/5/6 277/5/6 279/5/6
f 280/5/6 281/5/6 282/5/6
f 282/5/6 281/5/6 283/5/6
f 284/5/6 285/5/6 287/5/6
f 286/5/6 287/5/6 288/5/6
f 287/5/6 285/5/6 289/5/6
f 288/5/6 287/5/6 289/5/6
f 289/5/6 285/5/6 290/5/6
f 290/5/6 285/5/6 291/5/6
