# MagicaVoxel @ Ephtracy

# group
o Face

# material
mtllib Voxel Universe-18-Face.mtl
usemtl palette

# normals
vn -1 0 0
vn 1 0 0
vn 0 0 1
vn 0 0 -1
vn 0 -1 0
vn 0 1 0

# texcoords
vt 0.0136719 0.5
vt 0.0332031 0.5
vt 0.0566406 0.5
vt 0.0839844 0.5
vt 0.537109 0.5
vt 0.544922 0.5

# verts
v -15.5 0.4 13.8
v -15.5 0.4 13.6
v -15.5 0.6 13.8
v -15.5 0.6 13.6
v -15.4 0 14.4
v -15.4 0 13
v -15.4 0.1 14.2
v -15.4 0.1 13.2
v -15.4 0.2 14.3
v -15.4 0.2 14.2
v -15.4 0.2 14.1
v -15.4 0.2 14
v -15.4 0.2 13.9
v -15.4 0.2 13.5
v -15.4 0.2 13.4
v -15.4 0.2 13.3
v -15.4 0.2 13.2
v -15.4 0.2 13.1
v -15.4 0.3 14.4
v -15.4 0.3 14.3
v -15.4 0.3 14.1
v -15.4 0.3 14
v -15.4 0.3 13.9
v -15.4 0.3 13.5
v -15.4 0.3 13.4
v -15.4 0.3 13.3
v -15.4 0.3 13.1
v -15.4 0.3 13
v -15.4 0.4 14
v -15.4 0.4 13.8
v -15.4 0.4 13.6
v -15.4 0.4 13.4
v -15.4 0.5 14.3
v -15.4 0.5 14
v -15.4 0.5 13.4
v -15.4 0.5 13.1
v -15.4 0.6 14.3
v -15.4 0.6 14.1
v -15.4 0.6 14
v -15.4 0.6 13.8
v -15.4 0.6 13.6
v -15.4 0.6 13.4
v -15.4 0.6 13.3
v -15.4 0.6 13.1
v -15.4 0.8 14.3
v -15.4 0.8 14.2
v -15.4 0.8 14.1
v -15.4 0.8 14
v -15.4 0.8 13.4
v -15.4 0.8 13.3
v -15.4 0.8 13.2
v -15.4 0.8 13.1
v -15.4 0.9 14.3
v -15.4 0.9 14.2
v -15.4 0.9 14
v -15.4 0.9 13.9
v -15.4 0.9 13.5
v -15.4 0.9 13.4
v -15.4 0.9 13.2
v -15.4 0.9 13.1
v -15.4 1 14.2
v -15.4 1 14
v -15.4 1 13.9
v -15.4 1 13.5
v -15.4 1 13.4
v -15.4 1 13.2
v -15.4 1.6 14.4
v -15.4 1.6 14.3
v -15.4 1.6 14.1
v -15.4 1.6 13.3
v -15.4 1.6 13.1
v -15.4 1.6 13
v -15.4 1.7 14.3
v -15.4 1.7 14.1
v -15.4 1.7 13.3
v -15.4 1.7 13.1
v -15 0.4 14.5
v -15 0.4 14.4
v -15 0.4 13
v -15 0.4 12.9
v -15 0.7 14.4
v -15 0.7 13
v -15 0.8 14.5
v -15 0.8 14.4
v -15 0.8 13
v -15 0.8 12.9
v -14.8 0.4 14.5
v -14.8 0.4 14.4
v -14.8 0.4 13
v -14.8 0.4 12.9
v -14.8 0.6 14.4
v -14.8 0.6 13
v -14.8 0.8 14.5
v -14.8 0.8 14.4
v -14.8 0.8 13
v -14.8 0.8 12.9
v -14.4 0 14.4
v -14.4 0 13
v -14.4 0.5 14.2
v -14.4 0.5 13.2
v -14.4 0.6 14.4
v -14.4 0.6 14.2
v -14.4 0.6 13.2
v -14.4 0.6 13
v -14.4 1.6 14.4
v -14.4 1.6 14.3
v -14.4 1.6 13.1
v -14.4 1.6 13
v -14.4 1.7 14.3
v -14.4 1.7 13.1
v -15 0.4 14.5
v -15 0.8 14.5
v -14.8 0.4 14.5
v -14.8 0.8 14.5
v -15.4 0 14.4
v -15.4 0.3 14.4
v -15.4 1.6 14.4
v -15.3 0.2 14.4
v -15.3 0.3 14.4
v -15.2 0.2 14.4
v -15.2 0.4 14.4
v -15.2 1 14.4
v -15.2 1.6 14.4
v -15.1 0.4 14.4
v -15.1 0.7 14.4
v -15.1 1 14.4
v -15 0.4 14.4
v -15 0.7 14.4
v -15 0.8 14.4
v -14.9 0 14.4
v -14.9 0.4 14.4
v -14.8 0.4 14.4
v -14.8 0.6 14.4
v -14.8 0.8 14.4
v -14.4 0 14.4
v -14.4 0.6 14.4
v -14.4 1.6 14.4
v -15.4 1.6 14.3
v -15.4 1.7 14.3
v -15.2 1.6 14.3
v -15.2 1.7 14.3
v -14.4 1.6 14.3
v -14.4 1.7 14.3
v -15.5 0.4 13.8
v -15.5 0.6 13.8
v -15.4 0.4 13.8
v -15.4 0.6 13.8
v -15.5 0.4 13.6
v -15.5 0.6 13.6
v -15.4 0.4 13.6
v -15.4 0.6 13.6
v -15.4 1.6 13.1
v -15.4 1.7 13.1
v -15.2 1.6 13.1
v -15.2 1.7 13.1
v -14.4 1.6 13.1
v -14.4 1.7 13.1
v -15.4 0 13
v -15.4 0.3 13
v -15.4 1.6 13
v -15.3 0.2 13
v -15.3 0.3 13
v -15.2 0.2 13
v -15.2 0.4 13
v -15.2 1 13
v -15.2 1.6 13
v -15.1 0.4 13
v -15.1 0.7 13
v -15.1 1 13
v -15 0.4 13
v -15 0.7 13
v -15 0.8 13
v -14.9 0 13
v -14.9 0.4 13
v -14.8 0.4 13
v -14.8 0.6 13
v -14.8 0.8 13
v -14.4 0 13
v -14.4 0.6 13
v -14.4 1.6 13
v -15 0.4 12.9
v -15 0.8 12.9
v -14.8 0.4 12.9
v -14.8 0.8 12.9
v -15.4 0 14.4
v -14.9 0 14.4
v -14.4 0 14.4
v -15.3 0 14.3
v -14.9 0 14.3
v -15.3 0 13.1
v -14.9 0 13.1
v -15.4 0 13
v -14.9 0 13
v -14.4 0 13
v -15 0.4 14.5
v -14.8 0.4 14.5
v -15 0.4 14.4
v -14.9 0.4 14.4
v -14.8 0.4 14.4
v -15.5 0.4 13.8
v -15.4 0.4 13.8
v -15.5 0.4 13.6
v -15.4 0.4 13.6
v -15 0.4 13
v -14.9 0.4 13
v -14.8 0.4 13
v -15 0.4 12.9
v -14.8 0.4 12.9
v -15.5 0.6 13.8
v -15.4 0.6 13.8
v -15.5 0.6 13.6
v -15.4 0.6 13.6
v -15 0.8 14.5
v -14.8 0.8 14.5
v -15 0.8 14.4
v -14.8 0.8 14.4
v -15 0.8 13
v -14.8 0.8 13
v -15 0.8 12.9
v -14.8 0.8 12.9
v -15.4 1.6 14.4
v -15.2 1.6 14.4
v -14.4 1.6 14.4
v -15.4 1.6 14.3
v -15.2 1.6 14.3
v -14.4 1.6 14.3
v -15.4 1.6 13.1
v -15.2 1.6 13.1
v -14.4 1.6 13.1
v -15.4 1.6 13
v -15.2 1.6 13
v -14.4 1.6 13
v -15.4 1.7 14.3
v -15.2 1.7 14.3
v -14.4 1.7 14.3
v -15.3 1.7 14.2
v -15.2 1.7 14.2
v -15.4 1.7 14.1
v -15.3 1.7 14.1
v -15.4 1.7 13.3
v -15.3 1.7 13.3
v -15.3 1.7 13.2
v -15.2 1.7 13.2
v -15.4 1.7 13.1
v -15.2 1.7 13.1
v -14.4 1.7 13.1

# faces
f 3/4/1 2/4/1 1/4/1
f 4/4/1 2/4/1 3/4/1
f 7/6/1 6/6/1 5/6/1
f 8/6/1 6/6/1 7/6/1
f 9/6/1 7/6/1 5/6/1
f 10/3/1 8/3/1 7/3/1
f 10/6/1 7/6/1 9/6/1
f 11/3/1 8/3/1 10/3/1
f 12/3/1 8/3/1 11/3/1
f 13/3/1 8/3/1 12/3/1
f 14/3/1 8/3/1 13/3/1
f 15/3/1 8/3/1 14/3/1
f 16/3/1 8/3/1 15/3/1
f 17/6/1 6/6/1 8/6/1
f 17/3/1 8/3/1 16/3/1
f 18/6/1 6/6/1 17/6/1
f 19/6/1 9/6/1 5/6/1
f 20/3/1 10/3/1 9/3/1
f 20/6/1 9/6/1 19/6/1
f 20/3/1 11/3/1 10/3/1
f 21/6/1 12/6/1 11/6/1
f 21/3/1 11/3/1 20/3/1
f 22/3/1 13/3/1 12/3/1
f 22/6/1 12/6/1 21/6/1
f 23/4/1 14/4/1 13/4/1
f 23/3/1 13/3/1 22/3/1
f 24/3/1 15/3/1 14/3/1
f 24/4/1 14/4/1 23/4/1
f 25/6/1 16/6/1 15/6/1
f 25/3/1 15/3/1 24/3/1
f 26/3/1 18/3/1 17/3/1
f 26/6/1 16/6/1 25/6/1
f 26/3/1 17/3/1 16/3/1
f 27/6/1 6/6/1 18/6/1
f 27/3/1 18/3/1 26/3/1
f 28/6/1 6/6/1 27/6/1
f 29/6/1 24/6/1 23/6/1
f 29/6/1 25/6/1 24/6/1
f 29/3/1 20/3/1 19/3/1
f 29/3/1 21/3/1 20/3/1
f 29/6/1 23/6/1 22/6/1
f 29/3/1 22/3/1 21/3/1
f 30/6/1 25/6/1 29/6/1
f 31/6/1 25/6/1 30/6/1
f 32/3/1 26/3/1 25/3/1
f 32/6/1 25/6/1 31/6/1
f 32/3/1 28/3/1 27/3/1
f 32/3/1 27/3/1 26/3/1
f 33/3/1 30/3/1 29/3/1
f 33/3/1 29/3/1 19/3/1
f 34/3/1 30/3/1 33/3/1
f 35/3/1 28/3/1 32/3/1
f 35/3/1 32/3/1 31/3/1
f 36/3/1 28/3/1 35/3/1
f 37/2/1 34/2/1 33/2/1
f 37/3/1 33/3/1 19/3/1
f 38/2/1 34/2/1 37/2/1
f 39/3/1 30/3/1 34/3/1
f 39/2/1 34/2/1 38/2/1
f 40/3/1 30/3/1 39/3/1
f 41/3/1 35/3/1 31/3/1
f 42/2/1 36/2/1 35/2/1
f 42/3/1 35/3/1 41/3/1
f 43/2/1 36/2/1 42/2/1
f 44/3/1 28/3/1 36/3/1
f 44/2/1 36/2/1 43/2/1
f 45/3/1 38/3/1 37/3/1
f 45/3/1 37/3/1 19/3/1
f 46/3/1 38/3/1 45/3/1
f 47/5/1 39/5/1 38/5/1
f 47/3/1 38/3/1 46/3/1
f 48/3/1 41/3/1 40/3/1
f 48/5/1 39/5/1 47/5/1
f 48/3/1 40/3/1 39/3/1
f 48/3/1 42/3/1 41/3/1
f 49/5/1 43/5/1 42/5/1
f 49/3/1 42/3/1 48/3/1
f 50/3/1 44/3/1 43/3/1
f 50/5/1 43/5/1 49/5/1
f 51/3/1 44/3/1 50/3/1
f 52/3/1 28/3/1 44/3/1
f 52/3/1 44/3/1 51/3/1
f 53/3/1 45/3/1 19/3/1
f 53/6/1 46/6/1 45/6/1
f 54/3/1 51/3/1 50/3/1
f 54/6/1 46/6/1 53/6/1
f 54/3/1 48/3/1 47/3/1
f 54/3/1 50/3/1 49/3/1
f 54/3/1 47/3/1 46/3/1
f 54/3/1 49/3/1 48/3/1
f 55/3/1 51/3/1 54/3/1
f 56/3/1 51/3/1 55/3/1
f 57/3/1 51/3/1 56/3/1
f 58/3/1 51/3/1 57/3/1
f 59/6/1 52/6/1 51/6/1
f 59/3/1 51/3/1 58/3/1
f 60/3/1 28/3/1 52/3/1
f 60/6/1 52/6/1 59/6/1
f 61/3/1 54/3/1 53/3/1
f 61/5/1 55/5/1 54/5/1
f 62/6/1 56/6/1 55/6/1
f 62/5/1 55/5/1 61/5/1
f 63/3/1 57/3/1 56/3/1
f 63/6/1 56/6/1 62/6/1
f 64/6/1 58/6/1 57/6/1
f 64/3/1 57/3/1 63/3/1
f 65/5/1 59/5/1 58/5/1
f 65/6/1 58/6/1 64/6/1
f 66/3/1 60/3/1 59/3/1
f 66/5/1 59/5/1 65/5/1
f 67/3/1 53/3/1 19/3/1
f 67/3/1 63/3/1 62/3/1
f 67/3/1 66/3/1 65/3/1
f 67/3/1 62/3/1 61/3/1
f 67/3/1 61/3/1 53/3/1
f 67/3/1 65/3/1 64/3/1
f 67/3/1 64/3/1 63/3/1
f 68/3/1 66/3/1 67/3/1
f 69/3/1 66/3/1 68/3/1
f 70/3/1 66/3/1 69/3/1
f 71/3/1 60/3/1 66/3/1
f 71/3/1 66/3/1 70/3/1
f 71/3/1 28/3/1 60/3/1
f 72/3/1 28/3/1 71/3/1
f 73/3/1 69/3/1 68/3/1
f 74/1/1 70/1/1 69/1/1
f 74/3/1 69/3/1 73/3/1
f 75/3/1 71/3/1 70/3/1
f 75/1/1 70/1/1 74/1/1
f 76/3/1 71/3/1 75/3/1
f 81/4/1 78/4/1 77/4/1
f 82/4/1 80/4/1 79/4/1
f 83/4/1 81/4/1 77/4/1
f 84/4/1 81/4/1 83/4/1
f 85/4/1 80/4/1 82/4/1
f 86/4/1 80/4/1 85/4/1
f 87/4/2 88/4/2 91/4/2
f 89/4/2 90/4/2 92/4/2
f 87/4/2 91/4/2 93/4/2
f 93/4/2 91/4/2 94/4/2
f 92/4/2 90/4/2 95/4/2
f 95/4/2 90/4/2 96/4/2
f 97/3/2 98/3/2 99/3/2
f 99/3/2 98/3/2 100/3/2
f 97/3/2 99/3/2 101/3/2
f 99/1/2 100/1/2 102/1/2
f 101/3/2 99/3/2 102/3/2
f 100/3/2 98/3/2 103/3/2
f 102/1/2 100/1/2 103/1/2
f 103/3/2 98/3/2 104/3/2
f 101/1/2 102/1/2 105/1/2
f 102/1/2 103/1/2 105/1/2
f 103/1/2 104/1/2 105/1/2
f 105/1/2 104/1/2 106/1/2
f 106/1/2 104/1/2 107/1/2
f 107/1/2 104/1/2 108/1/2
f 106/1/2 107/1/2 109/1/2
f 109/1/2 107/1/2 110/1/2
f 113/4/3 112/4/3 111/4/3
f 114/4/3 112/4/3 113/4/3
f 118/6/3 116/6/3 115/6/3
f 119/3/3 117/3/3 116/3/3
f 119/6/3 116/6/3 118/6/3
f 120/6/3 118/6/3 115/6/3
f 120/3/3 119/3/3 118/3/3
f 121/3/3 117/3/3 119/3/3
f 121/3/3 119/3/3 120/3/3
f 122/3/3 117/3/3 121/3/3
f 123/3/3 117/3/3 122/3/3
f 124/6/3 121/6/3 120/6/3
f 124/3/3 122/3/3 121/3/3
f 125/3/3 122/3/3 124/3/3
f 126/1/3 123/1/3 122/1/3
f 126/3/3 122/3/3 125/3/3
f 127/6/3 125/6/3 124/6/3
f 127/6/3 124/6/3 120/6/3
f 128/1/3 126/1/3 125/1/3
f 128/6/3 125/6/3 127/6/3
f 129/1/3 126/1/3 128/1/3
f 130/6/3 120/6/3 115/6/3
f 130/6/3 127/6/3 120/6/3
f 131/6/3 127/6/3 130/6/3
f 132/3/3 131/3/3 130/3/3
f 134/1/3 126/1/3 129/1/3
f 135/3/3 133/3/3 132/3/3
f 135/3/3 132/3/3 130/3/3
f 136/1/3 134/1/3 133/1/3
f 136/3/3 133/3/3 135/3/3
f 137/1/3 123/1/3 126/1/3
f 137/1/3 134/1/3 136/1/3
f 137/1/3 126/1/3 134/1/3
f 140/3/3 139/3/3 138/3/3
f 141/3/3 139/3/3 140/3/3
f 142/1/3 141/1/3 140/1/3
f 143/1/3 141/1/3 142/1/3
f 146/4/3 145/4/3 144/4/3
f 147/4/3 145/4/3 146/4/3
f 148/4/4 149/4/4 150/4/4
f 150/4/4 149/4/4 151/4/4
f 152/3/4 153/3/4 154/3/4
f 154/3/4 153/3/4 155/3/4
f 154/1/4 155/1/4 156/1/4
f 156/1/4 155/1/4 157/1/4
f 158/6/4 159/6/4 161/6/4
f 159/3/4 160/3/4 162/3/4
f 161/6/4 159/6/4 162/6/4
f 158/6/4 161/6/4 163/6/4
f 161/3/4 162/3/4 163/3/4
f 162/3/4 160/3/4 164/3/4
f 163/3/4 162/3/4 164/3/4
f 164/3/4 160/3/4 165/3/4
f 165/3/4 160/3/4 166/3/4
f 163/6/4 164/6/4 167/6/4
f 164/3/4 165/3/4 167/3/4
f 167/3/4 165/3/4 168/3/4
f 165/1/4 166/1/4 169/1/4
f 168/3/4 165/3/4 169/3/4
f 167/6/4 168/6/4 170/6/4
f 163/6/4 167/6/4 170/6/4
f 168/1/4 169/1/4 171/1/4
f 170/6/4 168/6/4 171/6/4
f 171/1/4 169/1/4 172/1/4
f 158/6/4 163/6/4 173/6/4
f 163/6/4 170/6/4 173/6/4
f 173/6/4 170/6/4 174/6/4
f 173/3/4 174/3/4 175/3/4
f 172/1/4 169/1/4 177/1/4
f 175/3/4 176/3/4 178/3/4
f 173/3/4 175/3/4 178/3/4
f 176/1/4 177/1/4 179/1/4
f 178/3/4 176/3/4 179/3/4
f 169/1/4 166/1/4 180/1/4
f 179/1/4 177/1/4 180/1/4
f 177/1/4 169/1/4 180/1/4
f 181/4/4 182/4/4 183/4/4
f 183/4/4 182/4/4 184/4/4
f 188/6/5 186/6/5 185/6/5
f 189/3/5 187/3/5 186/3/5
f 189/6/5 186/6/5 188/6/5
f 190/6/5 188/6/5 185/6/5
f 190/3/5 189/3/5 188/3/5
f 191/3/5 187/3/5 189/3/5
f 191/3/5 189/3/5 190/3/5
f 192/6/5 190/6/5 185/6/5
f 192/6/5 191/6/5 190/6/5
f 193/3/5 187/3/5 191/3/5
f 193/6/5 191/6/5 192/6/5
f 194/3/5 187/3/5 193/3/5
f 197/4/5 196/4/5 195/4/5
f 198/4/5 196/4/5 197/4/5
f 199/4/5 196/4/5 198/4/5
f 202/4/5 201/4/5 200/4/5
f 203/4/5 201/4/5 202/4/5
f 207/4/5 205/4/5 204/4/5
f 207/4/5 206/4/5 205/4/5
f 208/4/5 206/4/5 207/4/5
f 209/4/6 210/4/6 211/4/6
f 211/4/6 210/4/6 212/4/6
f 213/4/6 214/4/6 215/4/6
f 215/4/6 214/4/6 216/4/6
f 217/4/6 218/4/6 219/4/6
f 219/4/6 218/4/6 220/4/6
f 221/3/6 222/3/6 224/3/6
f 222/1/6 223/1/6 225/1/6
f 224/3/6 222/3/6 225/3/6
f 225/1/6 223/1/6 226/1/6
f 227/3/6 228/3/6 230/3/6
f 228/1/6 229/1/6 231/1/6
f 230/3/6 228/3/6 231/3/6
f 231/1/6 229/1/6 232/1/6
f 233/3/6 234/3/6 236/3/6
f 234/1/6 235/1/6 237/1/6
f 236/3/6 234/3/6 237/3/6
f 233/3/6 236/3/6 238/3/6
f 236/1/6 237/1/6 239/1/6
f 238/3/6 236/3/6 239/3/6
f 238/1/6 239/1/6 240/1/6
f 239/1/6 237/1/6 241/1/6
f 240/1/6 239/1/6 241/1/6
f 240/3/6 241/3/6 242/3/6
f 241/1/6 237/1/6 242/1/6
f 237/1/6 235/1/6 243/1/6
f 242/1/6 237/1/6 243/1/6
f 240/3/6 242/3/6 244/3/6
f 242/3/6 243/3/6 244/3/6
f 243/1/6 235/1/6 245/1/6
f 244/3/6 243/3/6 245/3/6
f 245/1/6 235/1/6 246/1/6
