# MagicaVoxel @ Ephtracy

# group
o Face

# material
mtllib Voxel Universe-60-Face.mtl
usemtl palette

# normals
vn -1 0 0
vn 1 0 0
vn 0 0 1
vn 0 0 -1
vn 0 -1 0
vn 0 1 0

# texcoords
vt 0.0332031 0.5
vt 0.0566406 0.5
vt 0.0839844 0.5
vt 0.994141 0.5

# verts
v -10.6 0.4 20.1
v -10.6 0.4 19.9
v -10.6 0.6 20.1
v -10.6 0.6 19.9
v -10.6 1.3 20.8
v -10.6 1.3 19.2
v -10.6 1.8 20.8
v -10.6 1.8 19.2
v -10.5 0 20.7
v -10.5 0 19.3
v -10.5 0.2 20.2
v -10.5 0.2 19.8
v -10.5 0.3 20.3
v -10.5 0.3 20.2
v -10.5 0.3 19.8
v -10.5 0.3 19.7
v -10.5 0.4 20.3
v -10.5 0.4 20.2
v -10.5 0.4 20.1
v -10.5 0.4 19.9
v -10.5 0.4 19.8
v -10.5 0.4 19.7
v -10.5 0.5 20.6
v -10.5 0.5 20.3
v -10.5 0.5 19.7
v -10.5 0.5 19.4
v -10.5 0.6 20.6
v -10.5 0.6 20.4
v -10.5 0.6 20.3
v -10.5 0.6 20.1
v -10.5 0.6 19.9
v -10.5 0.6 19.7
v -10.5 0.6 19.6
v -10.5 0.6 19.4
v -10.5 0.8 20.4
v -10.5 0.8 20.3
v -10.5 0.8 19.7
v -10.5 0.8 19.6
v -10.5 0.9 20.6
v -10.5 0.9 20.2
v -10.5 0.9 19.8
v -10.5 0.9 19.4
v -10.5 1 20.6
v -10.5 1 20.2
v -10.5 1 19.8
v -10.5 1 19.4
v -10.5 1.3 20.7
v -10.5 1.3 19.3
v -10.4 1 20.8
v -10.4 1 20.7
v -10.4 1 19.3
v -10.4 1 19.2
v -10.4 1.3 20.8
v -10.4 1.3 20.7
v -10.4 1.3 19.3
v -10.4 1.3 19.2
v -10.3 0.6 20.8
v -10.3 0.6 20.7
v -10.3 0.6 19.3
v -10.3 0.6 19.2
v -10.3 1 20.8
v -10.3 1 20.7
v -10.3 1 19.3
v -10.3 1 19.2
v -10.1 0.3 20.8
v -10.1 0.3 20.7
v -10.1 0.3 19.3
v -10.1 0.3 19.2
v -10.1 0.6 20.8
v -10.1 0.6 20.7
v -10.1 0.6 19.3
v -10.1 0.6 19.2
v -9.9 0.3 20.8
v -9.9 0.3 20.7
v -9.9 0.3 19.3
v -9.9 0.3 19.2
v -9.9 0.4 20.8
v -9.9 0.4 20.7
v -9.9 0.4 19.3
v -9.9 0.4 19.2
v -9.5 0 20.7
v -9.5 0 19.3
v -9.5 0.4 20.7
v -9.5 0.4 19.3
v -9.3 0.4 20.8
v -9.3 0.4 19.2
v -9.3 1.8 20.8
v -9.3 1.8 19.2
v -10.6 1.3 20.8
v -10.6 1.8 20.8
v -10.4 1 20.8
v -10.4 1.3 20.8
v -10.3 0.6 20.8
v -10.3 1 20.8
v -10.1 0.3 20.8
v -10.1 0.6 20.8
v -10.1 0.8 20.8
v -9.9 0.3 20.8
v -9.9 0.4 20.8
v -9.9 0.8 20.8
v -9.3 0.4 20.8
v -9.3 1.8 20.8
v -10.5 0 20.7
v -10.5 1.3 20.7
v -10.4 1 20.7
v -10.4 1.3 20.7
v -10.3 0.6 20.7
v -10.3 1 20.7
v -10.1 0.3 20.7
v -10.1 0.6 20.7
v -9.9 0.3 20.7
v -9.9 0.4 20.7
v -9.5 0 20.7
v -9.5 0.4 20.7
v -10.6 0.4 20.1
v -10.6 0.6 20.1
v -10.5 0.4 20.1
v -10.5 0.6 20.1
v -10.6 0.4 19.9
v -10.6 0.6 19.9
v -10.5 0.4 19.9
v -10.5 0.6 19.9
v -10.5 0 19.3
v -10.5 1.3 19.3
v -10.4 1 19.3
v -10.4 1.3 19.3
v -10.3 0.6 19.3
v -10.3 1 19.3
v -10.1 0.3 19.3
v -10.1 0.6 19.3
v -9.9 0.3 19.3
v -9.9 0.4 19.3
v -9.5 0 19.3
v -9.5 0.4 19.3
v -10.6 1.3 19.2
v -10.6 1.8 19.2
v -10.4 1 19.2
v -10.4 1.3 19.2
v -10.3 0.6 19.2
v -10.3 1 19.2
v -10.1 0.3 19.2
v -10.1 0.6 19.2
v -10.1 0.8 19.2
v -9.9 0.3 19.2
v -9.9 0.4 19.2
v -9.9 0.8 19.2
v -9.3 0.4 19.2
v -9.3 1.8 19.2
v -10.5 0 20.7
v -9.5 0 20.7
v -10.5 0 19.3
v -9.5 0 19.3
v -10.1 0.3 20.8
v -9.9 0.3 20.8
v -10.1 0.3 20.7
v -9.9 0.3 20.7
v -10.1 0.3 19.3
v -9.9 0.3 19.3
v -10.1 0.3 19.2
v -9.9 0.3 19.2
v -9.9 0.4 20.8
v -9.3 0.4 20.8
v -9.9 0.4 20.7
v -9.5 0.4 20.7
v -10.6 0.4 20.1
v -10.5 0.4 20.1
v -10.6 0.4 19.9
v -10.5 0.4 19.9
v -9.9 0.4 19.3
v -9.5 0.4 19.3
v -9.9 0.4 19.2
v -9.3 0.4 19.2
v -10.3 0.6 20.8
v -10.1 0.6 20.8
v -10.3 0.6 20.7
v -10.1 0.6 20.7
v -10.3 0.6 19.3
v -10.1 0.6 19.3
v -10.3 0.6 19.2
v -10.1 0.6 19.2
v -10.4 1 20.8
v -10.3 1 20.8
v -10.4 1 20.7
v -10.3 1 20.7
v -10.4 1 19.3
v -10.3 1 19.3
v -10.4 1 19.2
v -10.3 1 19.2
v -10.6 1.3 20.8
v -10.4 1.3 20.8
v -10.5 1.3 20.7
v -10.4 1.3 20.7
v -10.5 1.3 19.3
v -10.4 1.3 19.3
v -10.6 1.3 19.2
v -10.4 1.3 19.2
v -10.6 0.6 20.1
v -10.5 0.6 20.1
v -10.6 0.6 19.9
v -10.5 0.6 19.9
v -10.6 1.8 20.8
v -9.3 1.8 20.8
v -10.6 1.8 19.2
v -9.3 1.8 19.2

# faces
f 3/3/1 2/3/1 1/3/1
f 4/3/1 2/3/1 3/3/1
f 7/4/1 6/4/1 5/4/1
f 8/4/1 6/4/1 7/4/1
f 11/2/1 10/2/1 9/2/1
f 12/2/1 10/2/1 11/2/1
f 13/2/1 11/2/1 9/2/1
f 14/3/1 12/3/1 11/3/1
f 14/2/1 11/2/1 13/2/1
f 15/2/1 10/2/1 12/2/1
f 15/3/1 12/3/1 14/3/1
f 16/2/1 10/2/1 15/2/1
f 17/3/1 14/3/1 13/3/1
f 17/2/1 13/2/1 9/2/1
f 18/2/1 15/2/1 14/2/1
f 18/3/1 14/3/1 17/3/1
f 19/2/1 15/2/1 18/2/1
f 20/2/1 15/2/1 19/2/1
f 21/3/1 16/3/1 15/3/1
f 21/2/1 15/2/1 20/2/1
f 22/2/1 10/2/1 16/2/1
f 22/3/1 16/3/1 21/3/1
f 23/2/1 17/2/1 9/2/1
f 23/2/1 18/2/1 17/2/1
f 23/2/1 19/2/1 18/2/1
f 24/2/1 19/2/1 23/2/1
f 25/2/1 21/2/1 20/2/1
f 25/2/1 10/2/1 22/2/1
f 25/2/1 22/2/1 21/2/1
f 26/2/1 10/2/1 25/2/1
f 27/1/1 24/1/1 23/1/1
f 27/2/1 23/2/1 9/2/1
f 28/1/1 24/1/1 27/1/1
f 29/2/1 19/2/1 24/2/1
f 29/1/1 24/1/1 28/1/1
f 30/2/1 19/2/1 29/2/1
f 31/2/1 25/2/1 20/2/1
f 32/1/1 26/1/1 25/1/1
f 32/2/1 25/2/1 31/2/1
f 33/1/1 26/1/1 32/1/1
f 34/2/1 10/2/1 26/2/1
f 34/1/1 26/1/1 33/1/1
f 35/2/1 28/2/1 27/2/1
f 35/4/1 29/4/1 28/4/1
f 36/2/1 31/2/1 30/2/1
f 36/4/1 29/4/1 35/4/1
f 36/2/1 30/2/1 29/2/1
f 36/2/1 32/2/1 31/2/1
f 37/4/1 33/4/1 32/4/1
f 37/2/1 32/2/1 36/2/1
f 38/2/1 34/2/1 33/2/1
f 38/4/1 33/4/1 37/4/1
f 39/2/1 36/2/1 35/2/1
f 39/2/1 35/2/1 27/2/1
f 39/2/1 38/2/1 37/2/1
f 39/2/1 37/2/1 36/2/1
f 39/2/1 27/2/1 9/2/1
f 40/2/1 38/2/1 39/2/1
f 41/2/1 38/2/1 40/2/1
f 42/2/1 10/2/1 34/2/1
f 42/2/1 38/2/1 41/2/1
f 42/2/1 34/2/1 38/2/1
f 43/4/1 40/4/1 39/4/1
f 43/2/1 39/2/1 9/2/1
f 44/2/1 41/2/1 40/2/1
f 44/4/1 40/4/1 43/4/1
f 45/4/1 42/4/1 41/4/1
f 45/2/1 41/2/1 44/2/1
f 46/2/1 10/2/1 42/2/1
f 46/4/1 42/4/1 45/4/1
f 47/2/1 43/2/1 9/2/1
f 47/2/1 45/2/1 44/2/1
f 47/2/1 46/2/1 45/2/1
f 47/2/1 44/2/1 43/2/1
f 48/2/1 10/2/1 46/2/1
f 48/2/1 46/2/1 47/2/1
f 53/4/1 50/4/1 49/4/1
f 54/4/1 50/4/1 53/4/1
f 55/4/1 52/4/1 51/4/1
f 56/4/1 52/4/1 55/4/1
f 61/4/1 58/4/1 57/4/1
f 62/4/1 58/4/1 61/4/1
f 63/4/1 60/4/1 59/4/1
f 64/4/1 60/4/1 63/4/1
f 69/3/1 66/3/1 65/3/1
f 70/3/1 66/3/1 69/3/1
f 71/3/1 68/3/1 67/3/1
f 72/3/1 68/3/1 71/3/1
f 73/3/2 74/3/2 77/3/2
f 77/3/2 74/3/2 78/3/2
f 75/3/2 76/3/2 79/3/2
f 79/3/2 76/3/2 80/3/2
f 81/2/2 82/2/2 83/2/2
f 83/2/2 82/2/2 84/2/2
f 85/4/2 86/4/2 87/4/2
f 87/4/2 86/4/2 88/4/2
f 92/4/3 90/4/3 89/4/3
f 94/4/3 92/4/3 91/4/3
f 96/4/3 94/4/3 93/4/3
f 97/4/3 94/4/3 96/4/3
f 98/3/3 96/3/3 95/3/3
f 98/3/3 97/3/3 96/3/3
f 99/3/3 97/3/3 98/3/3
f 100/4/3 94/4/3 97/4/3
f 100/3/3 97/3/3 99/3/3
f 101/4/3 100/4/3 99/4/3
f 102/4/3 90/4/3 92/4/3
f 102/4/3 100/4/3 101/4/3
f 102/4/3 92/4/3 94/4/3
f 102/4/3 94/4/3 100/4/3
f 105/2/3 104/2/3 103/2/3
f 106/2/3 104/2/3 105/2/3
f 107/2/3 105/2/3 103/2/3
f 108/2/3 105/2/3 107/2/3
f 109/2/3 107/2/3 103/2/3
f 110/2/3 107/2/3 109/2/3
f 111/2/3 109/2/3 103/2/3
f 113/2/3 111/2/3 103/2/3
f 113/2/3 112/2/3 111/2/3
f 114/2/3 112/2/3 113/2/3
f 117/3/3 116/3/3 115/3/3
f 118/3/3 116/3/3 117/3/3
f 119/3/4 120/3/4 121/3/4
f 121/3/4 120/3/4 122/3/4
f 123/2/4 124/2/4 125/2/4
f 125/2/4 124/2/4 126/2/4
f 123/2/4 125/2/4 127/2/4
f 127/2/4 125/2/4 128/2/4
f 123/2/4 127/2/4 129/2/4
f 129/2/4 127/2/4 130/2/4
f 123/2/4 129/2/4 131/2/4
f 123/2/4 131/2/4 133/2/4
f 131/2/4 132/2/4 133/2/4
f 133/2/4 132/2/4 134/2/4
f 135/4/4 136/4/4 138/4/4
f 137/4/4 138/4/4 140/4/4
f 139/4/4 140/4/4 142/4/4
f 142/4/4 140/4/4 143/4/4
f 141/3/4 142/3/4 144/3/4
f 142/3/4 143/3/4 144/3/4
f 144/3/4 143/3/4 145/3/4
f 143/4/4 140/4/4 146/4/4
f 145/3/4 143/3/4 146/3/4
f 145/4/4 146/4/4 147/4/4
f 138/4/4 136/4/4 148/4/4
f 147/4/4 146/4/4 148/4/4
f 140/4/4 138/4/4 148/4/4
f 146/4/4 140/4/4 148/4/4
f 151/2/5 150/2/5 149/2/5
f 152/2/5 150/2/5 151/2/5
f 155/3/5 154/3/5 153/3/5
f 156/3/5 154/3/5 155/3/5
f 159/3/5 158/3/5 157/3/5
f 160/3/5 158/3/5 159/3/5
f 163/4/5 162/4/5 161/4/5
f 164/4/5 162/4/5 163/4/5
f 167/3/5 166/3/5 165/3/5
f 168/3/5 166/3/5 167/3/5
f 170/4/5 162/4/5 164/4/5
f 171/4/5 170/4/5 169/4/5
f 172/4/5 162/4/5 170/4/5
f 172/4/5 170/4/5 171/4/5
f 175/4/5 174/4/5 173/4/5
f 176/4/5 174/4/5 175/4/5
f 179/4/5 178/4/5 177/4/5
f 180/4/5 178/4/5 179/4/5
f 183/4/5 182/4/5 181/4/5
f 184/4/5 182/4/5 183/4/5
f 187/4/5 186/4/5 185/4/5
f 188/4/5 186/4/5 187/4/5
f 191/4/5 190/4/5 189/4/5
f 192/4/5 190/4/5 191/4/5
f 193/4/5 191/4/5 189/4/5
f 195/4/5 193/4/5 189/4/5
f 195/4/5 194/4/5 193/4/5
f 196/4/5 194/4/5 195/4/5
f 197/3/6 198/3/6 199/3/6
f 199/3/6 198/3/6 200/3/6
f 201/4/6 202/4/6 203/4/6
f 203/4/6 202/4/6 204/4/6
