# MagicaVoxel @ Ephtracy

# group
o Face

# material
mtllib Voxel Universe-29-Face.mtl
usemtl palette

# normals
vn -1 0 0
vn 1 0 0
vn 0 0 1
vn 0 0 -1
vn 0 -1 0
vn 0 1 0

# texcoords
vt 0.0917969 0.5
vt 0.279297 0.5
vt 0.533203 0.5

# verts
v -10.6 0.4 3.3
v -10.6 0.4 3.1
v -10.6 0.6 3.3
v -10.6 0.6 3.1
v -10.6 1.2 3.9
v -10.6 1.2 2.5
v -10.6 1.9 3.9
v -10.6 1.9 2.5
v -10.5 0.6 3.3
v -10.5 0.6 3.1
v -10.5 0.9 3.3
v -10.5 0.9 3.1
v -10.4 0 3.9
v -10.4 0 2.5
v -10.4 0.2 3.4
v -10.4 0.2 3
v -10.4 0.3 3.5
v -10.4 0.3 3.4
v -10.4 0.3 3
v -10.4 0.3 2.9
v -10.4 0.4 3.5
v -10.4 0.4 3.4
v -10.4 0.4 3.3
v -10.4 0.4 3.1
v -10.4 0.4 3
v -10.4 0.4 2.9
v -10.4 0.6 3.7
v -10.4 0.6 3.6
v -10.4 0.6 2.8
v -10.4 0.6 2.7
v -10.4 0.9 3.7
v -10.4 0.9 3.6
v -10.4 0.9 3.3
v -10.4 0.9 3.1
v -10.4 0.9 2.8
v -10.4 0.9 2.7
v -10.4 1.2 3.9
v -10.4 1.2 2.5
v -10 0.4 4
v -10 0.4 3.9
v -10 0.4 2.5
v -10 0.4 2.4
v -10 0.6 3.9
v -10 0.6 2.5
v -10 0.8 4
v -10 0.8 3.9
v -10 0.8 2.5
v -10 0.8 2.4
v -10.4 1.8 3.9
v -10.4 1.8 2.5
v -10.4 1.9 3.9
v -10.4 1.9 2.5
v -9.8 0.4 4
v -9.8 0.4 3.9
v -9.8 0.4 2.5
v -9.8 0.4 2.4
v -9.8 0.5 3.9
v -9.8 0.5 2.5
v -9.8 0.8 4
v -9.8 0.8 3.9
v -9.8 0.8 2.5
v -9.8 0.8 2.4
v -9.4 0 3.9
v -9.4 0 2.5
v -9.4 0.5 3.9
v -9.4 0.5 2.5
v -9.4 0.7 3.9
v -9.4 0.7 2.5
v -9.4 1.8 3.9
v -9.4 1.8 2.5
v -9.3 0.5 3.9
v -9.3 0.5 2.5
v -9.3 0.7 3.9
v -9.3 0.7 2.5
v -10 0.4 4
v -10 0.8 4
v -9.8 0.4 4
v -9.8 0.8 4
v -10.6 1.2 3.9
v -10.6 1.9 3.9
v -10.4 0 3.9
v -10.4 1.2 3.9
v -10.4 1.8 3.9
v -10.4 1.9 3.9
v -10.2 0.6 3.9
v -10.2 1.2 3.9
v -10 0.4 3.9
v -10 0.6 3.9
v -10 0.8 3.9
v -9.8 0.4 3.9
v -9.8 0.5 3.9
v -9.8 0.8 3.9
v -9.4 0 3.9
v -9.4 0.5 3.9
v -9.4 0.7 3.9
v -9.4 1.8 3.9
v -9.3 0.5 3.9
v -9.3 0.7 3.9
v -10.6 0.4 3.3
v -10.6 0.6 3.3
v -10.5 0.6 3.3
v -10.5 0.9 3.3
v -10.4 0.4 3.3
v -10.4 0.9 3.3
v -10.6 0.4 3.1
v -10.6 0.6 3.1
v -10.5 0.6 3.1
v -10.5 0.9 3.1
v -10.4 0.4 3.1
v -10.4 0.9 3.1
v -10.6 1.2 2.5
v -10.6 1.9 2.5
v -10.4 0 2.5
v -10.4 1.2 2.5
v -10.4 1.8 2.5
v -10.4 1.9 2.5
v -10.2 0.6 2.5
v -10.2 1.2 2.5
v -10 0.4 2.5
v -10 0.6 2.5
v -10 0.8 2.5
v -9.8 0.4 2.5
v -9.8 0.5 2.5
v -9.8 0.8 2.5
v -9.4 0 2.5
v -9.4 0.5 2.5
v -9.4 0.7 2.5
v -9.4 1.8 2.5
v -9.3 0.5 2.5
v -9.3 0.7 2.5
v -10 0.4 2.4
v -10 0.8 2.4
v -9.8 0.4 2.4
v -9.8 0.8 2.4
v -10.4 0 3.9
v -9.4 0 3.9
v -10.4 0 2.5
v -9.4 0 2.5
v -10 0.4 4
v -9.8 0.4 4
v -10 0.4 3.9
v -9.8 0.4 3.9
v -10.6 0.4 3.3
v -10.4 0.4 3.3
v -10.6 0.4 3.1
v -10.4 0.4 3.1
v -10 0.4 2.5
v -9.8 0.4 2.5
v -10 0.4 2.4
v -9.8 0.4 2.4
v -9.4 0.5 3.9
v -9.3 0.5 3.9
v -9.4 0.5 2.5
v -9.3 0.5 2.5
v -10.6 1.2 3.9
v -10.4 1.2 3.9
v -10.6 1.2 2.5
v -10.4 1.2 2.5
v -10.6 0.6 3.3
v -10.5 0.6 3.3
v -10.6 0.6 3.1
v -10.5 0.6 3.1
v -9.4 0.7 3.9
v -9.3 0.7 3.9
v -9.4 0.7 2.5
v -9.3 0.7 2.5
v -10 0.8 4
v -9.8 0.8 4
v -10 0.8 3.9
v -9.8 0.8 3.9
v -10 0.8 2.5
v -9.8 0.8 2.5
v -10 0.8 2.4
v -9.8 0.8 2.4
v -10.5 0.9 3.3
v -10.4 0.9 3.3
v -10.5 0.9 3.1
v -10.4 0.9 3.1
v -10.4 1.8 3.9
v -9.4 1.8 3.9
v -10.4 1.8 2.5
v -9.4 1.8 2.5
v -10.6 1.9 3.9
v -10.4 1.9 3.9
v -10.6 1.9 2.5
v -10.4 1.9 2.5

# faces
f 3/2/1 2/2/1 1/2/1
f 4/2/1 2/2/1 3/2/1
f 7/2/1 6/2/1 5/2/1
f 8/2/1 6/2/1 7/2/1
f 11/2/1 10/2/1 9/2/1
f 12/2/1 10/2/1 11/2/1
f 15/1/1 14/1/1 13/1/1
f 16/1/1 14/1/1 15/1/1
f 17/1/1 15/1/1 13/1/1
f 18/3/1 16/3/1 15/3/1
f 18/1/1 15/1/1 17/1/1
f 19/1/1 14/1/1 16/1/1
f 19/3/1 16/3/1 18/3/1
f 20/1/1 14/1/1 19/1/1
f 21/3/1 18/3/1 17/3/1
f 21/1/1 17/1/1 13/1/1
f 22/1/1 19/1/1 18/1/1
f 22/3/1 18/3/1 21/3/1
f 23/1/1 19/1/1 22/1/1
f 24/1/1 19/1/1 23/1/1
f 25/3/1 20/3/1 19/3/1
f 25/1/1 19/1/1 24/1/1
f 26/1/1 14/1/1 20/1/1
f 26/3/1 20/3/1 25/3/1
f 27/1/1 21/1/1 13/1/1
f 27/1/1 22/1/1 21/1/1
f 27/1/1 23/1/1 22/1/1
f 28/1/1 23/1/1 27/1/1
f 29/1/1 25/1/1 24/1/1
f 29/1/1 14/1/1 26/1/1
f 29/1/1 26/1/1 25/1/1
f 30/1/1 14/1/1 29/1/1
f 31/3/1 28/3/1 27/3/1
f 31/1/1 27/1/1 13/1/1
f 32/1/1 23/1/1 28/1/1
f 32/3/1 28/3/1 31/3/1
f 33/1/1 23/1/1 32/1/1
f 34/1/1 29/1/1 24/1/1
f 35/3/1 30/3/1 29/3/1
f 35/1/1 29/1/1 34/1/1
f 36/1/1 14/1/1 30/1/1
f 36/3/1 30/3/1 35/3/1
f 37/1/1 31/1/1 13/1/1
f 37/1/1 35/1/1 34/1/1
f 37/1/1 36/1/1 35/1/1
f 37/1/1 34/1/1 33/1/1
f 37/1/1 32/1/1 31/1/1
f 37/1/1 33/1/1 32/1/1
f 38/1/1 14/1/1 36/1/1
f 38/1/1 36/1/1 37/1/1
f 43/3/1 40/3/1 39/3/1
f 44/3/1 42/3/1 41/3/1
f 45/3/1 43/3/1 39/3/1
f 46/3/1 43/3/1 45/3/1
f 47/3/1 42/3/1 44/3/1
f 48/3/1 42/3/1 47/3/1
f 49/2/2 50/2/2 51/2/2
f 51/2/2 50/2/2 52/2/2
f 53/3/2 54/3/2 57/3/2
f 55/3/2 56/3/2 58/3/2
f 53/3/2 57/3/2 59/3/2
f 59/3/2 57/3/2 60/3/2
f 58/3/2 56/3/2 61/3/2
f 61/3/2 56/3/2 62/3/2
f 63/1/2 64/1/2 65/1/2
f 65/1/2 64/1/2 66/1/2
f 67/2/2 68/2/2 69/2/2
f 69/2/2 68/2/2 70/2/2
f 71/2/2 72/2/2 73/2/2
f 73/2/2 72/2/2 74/2/2
f 77/3/3 76/3/3 75/3/3
f 78/3/3 76/3/3 77/3/3
f 82/2/3 80/2/3 79/2/3
f 83/2/3 80/2/3 82/2/3
f 84/2/3 80/2/3 83/2/3
f 85/1/3 82/1/3 81/1/3
f 86/2/3 83/2/3 82/2/3
f 86/1/3 82/1/3 85/1/3
f 87/1/3 85/1/3 81/1/3
f 88/2/3 86/2/3 85/2/3
f 88/1/3 85/1/3 87/1/3
f 89/2/3 86/2/3 88/2/3
f 90/1/3 87/1/3 81/1/3
f 92/2/3 86/2/3 89/2/3
f 93/1/3 91/1/3 90/1/3
f 93/1/3 90/1/3 81/1/3
f 94/2/3 92/2/3 91/2/3
f 94/1/3 91/1/3 93/1/3
f 95/2/3 92/2/3 94/2/3
f 96/2/3 83/2/3 86/2/3
f 96/2/3 92/2/3 95/2/3
f 96/2/3 86/2/3 92/2/3
f 97/2/3 95/2/3 94/2/3
f 98/2/3 95/2/3 97/2/3
f 101/2/3 100/2/3 99/2/3
f 103/2/3 101/2/3 99/2/3
f 103/2/3 102/2/3 101/2/3
f 104/2/3 102/2/3 103/2/3
f 105/2/4 106/2/4 107/2/4
f 105/2/4 107/2/4 109/2/4
f 107/2/4 108/2/4 109/2/4
f 109/2/4 108/2/4 110/2/4
f 111/2/4 112/2/4 114/2/4
f 114/2/4 112/2/4 115/2/4
f 115/2/4 112/2/4 116/2/4
f 113/1/4 114/1/4 117/1/4
f 114/2/4 115/2/4 118/2/4
f 117/1/4 114/1/4 118/1/4
f 113/1/4 117/1/4 119/1/4
f 117/2/4 118/2/4 120/2/4
f 119/1/4 117/1/4 120/1/4
f 120/2/4 118/2/4 121/2/4
f 113/1/4 119/1/4 122/1/4
f 121/2/4 118/2/4 124/2/4
f 122/1/4 123/1/4 125/1/4
f 113/1/4 122/1/4 125/1/4
f 123/2/4 124/2/4 126/2/4
f 125/1/4 123/1/4 126/1/4
f 126/2/4 124/2/4 127/2/4
f 118/2/4 115/2/4 128/2/4
f 127/2/4 124/2/4 128/2/4
f 124/2/4 118/2/4 128/2/4
f 126/2/4 127/2/4 129/2/4
f 129/2/4 127/2/4 130/2/4
f 131/3/4 132/3/4 133/3/4
f 133/3/4 132/3/4 134/3/4
f 137/1/5 136/1/5 135/1/5
f 138/1/5 136/1/5 137/1/5
f 141/3/5 140/3/5 139/3/5
f 142/3/5 140/3/5 141/3/5
f 145/2/5 144/2/5 143/2/5
f 146/2/5 144/2/5 145/2/5
f 149/3/5 148/3/5 147/3/5
f 150/3/5 148/3/5 149/3/5
f 153/2/5 152/2/5 151/2/5
f 154/2/5 152/2/5 153/2/5
f 157/2/5 156/2/5 155/2/5
f 158/2/5 156/2/5 157/2/5
f 159/2/6 160/2/6 161/2/6
f 161/2/6 160/2/6 162/2/6
f 163/2/6 164/2/6 165/2/6
f 165/2/6 164/2/6 166/2/6
f 167/3/6 168/3/6 169/3/6
f 169/3/6 168/3/6 170/3/6
f 171/3/6 172/3/6 173/3/6
f 173/3/6 172/3/6 174/3/6
f 175/2/6 176/2/6 177/2/6
f 177/2/6 176/2/6 178/2/6
f 179/2/6 180/2/6 181/2/6
f 181/2/6 180/2/6 182/2/6
f 183/2/6 184/2/6 185/2/6
f 185/2/6 184/2/6 186/2/6
