# MagicaVoxel @ Ephtracy

# group
o Face

# material
mtllib Voxel Universe-5-Face.mtl
usemtl palette

# normals
vn -1 0 0
vn 1 0 0
vn 0 0 1
vn 0 0 -1
vn 0 -1 0
vn 0 1 0

# texcoords
vt 0.0332031 0.5
vt 0.0566406 0.5
vt 0.0839844 0.5
vt 0.537109 0.5
vt 0.544922 0.5

# verts
v -10.5 0.4 15.9
v -10.5 0.4 15.7
v -10.5 0.6 15.9
v -10.5 0.6 15.7
v -10.4 0 16.5
v -10.4 0 15.1
v -10.4 0.1 16.1
v -10.4 0.1 15.9
v -10.4 0.1 15.7
v -10.4 0.1 15.5
v -10.4 0.2 16.5
v -10.4 0.2 16.2
v -10.4 0.2 16
v -10.4 0.2 15.9
v -10.4 0.2 15.7
v -10.4 0.2 15.6
v -10.4 0.2 15.4
v -10.4 0.2 15.1
v -10.4 0.3 16.2
v -10.4 0.3 16.1
v -10.4 0.3 16
v -10.4 0.3 15.6
v -10.4 0.3 15.5
v -10.4 0.3 15.4
v -10.4 0.4 16.1
v -10.4 0.4 15.9
v -10.4 0.4 15.7
v -10.4 0.4 15.5
v -10.4 0.5 16.4
v -10.4 0.5 16.1
v -10.4 0.5 15.5
v -10.4 0.5 15.2
v -10.4 0.6 16.4
v -10.4 0.6 16.3
v -10.4 0.6 16.1
v -10.4 0.6 15.9
v -10.4 0.6 15.7
v -10.4 0.6 15.5
v -10.4 0.6 15.3
v -10.4 0.6 15.2
v -10.4 0.7 16.3
v -10.4 0.7 16.2
v -10.4 0.7 15.5
v -10.4 0.7 15.4
v -10.4 0.8 16.4
v -10.4 0.8 16.3
v -10.4 0.8 16.2
v -10.4 0.8 16.1
v -10.4 0.8 15.5
v -10.4 0.8 15.4
v -10.4 0.8 15.3
v -10.4 0.8 15.2
v -10.4 0.9 16.4
v -10.4 0.9 16.3
v -10.4 0.9 16.1
v -10.4 0.9 16
v -10.4 0.9 15.6
v -10.4 0.9 15.5
v -10.4 0.9 15.3
v -10.4 0.9 15.2
v -10.4 1 16.3
v -10.4 1 16.1
v -10.4 1 16
v -10.4 1 15.6
v -10.4 1 15.5
v -10.4 1 15.3
v -10.4 1.4 16.5
v -10.4 1.4 15.1
v -10.4 1.5 16.5
v -10.4 1.5 16.4
v -10.4 1.5 15.2
v -10.4 1.5 15.1
v -10.4 1.6 16.4
v -10.4 1.6 15.2
v -10.3 1.6 16.3
v -10.3 1.6 15.3
v -10.3 1.7 16.3
v -10.3 1.7 15.3
v -10 0.4 16.6
v -10 0.4 16.5
v -10 0.4 15.1
v -10 0.4 15
v -10 0.8 16.6
v -10 0.8 16.5
v -10 0.8 15.1
v -10 0.8 15
v -9.8 0.4 16.6
v -9.8 0.4 16.5
v -9.8 0.4 15.1
v -9.8 0.4 15
v -9.8 0.8 16.6
v -9.8 0.8 16.5
v -9.8 0.8 15.1
v -9.8 0.8 15
v -9.5 1.6 16.3
v -9.5 1.6 15.3
v -9.5 1.7 16.3
v -9.5 1.7 15.3
v -9.4 0 16.5
v -9.4 0 15.1
v -9.4 0.2 16.4
v -9.4 0.2 16.3
v -9.4 0.2 15.3
v -9.4 0.2 15.2
v -9.4 0.3 16.5
v -9.4 0.3 16.4
v -9.4 0.3 16.3
v -9.4 0.3 15.3
v -9.4 0.3 15.2
v -9.4 0.3 15.1
v -9.4 1.5 16.5
v -9.4 1.5 16.4
v -9.4 1.5 15.2
v -9.4 1.5 15.1
v -9.4 1.6 16.4
v -9.4 1.6 15.2
v -10 0.4 16.6
v -10 0.8 16.6
v -9.8 0.4 16.6
v -9.8 0.8 16.6
v -10.4 0 16.5
v -10.4 0.2 16.5
v -10.4 1.4 16.5
v -10.4 1.5 16.5
v -10.3 0.2 16.5
v -10.3 0.3 16.5
v -10.3 1.2 16.5
v -10.3 1.3 16.5
v -10.3 1.4 16.5
v -10.2 0.2 16.5
v -10.2 0.3 16.5
v -10.2 1.2 16.5
v -10.2 1.3 16.5
v -10 0 16.5
v -10 0.4 16.5
v -10 0.8 16.5
v -9.8 0.4 16.5
v -9.8 0.8 16.5
v -9.7 0.3 16.5
v -9.7 0.4 16.5
v -9.6 0.3 16.5
v -9.6 0.4 16.5
v -9.4 0 16.5
v -9.4 0.3 16.5
v -9.4 1.5 16.5
v -10.4 1.5 16.4
v -10.4 1.6 16.4
v -9.4 1.5 16.4
v -9.4 1.6 16.4
v -10.3 1.6 16.3
v -10.3 1.7 16.3
v -9.5 1.6 16.3
v -9.5 1.7 16.3
v -10.5 0.4 15.9
v -10.5 0.6 15.9
v -10.4 0.4 15.9
v -10.4 0.6 15.9
v -10.5 0.4 15.7
v -10.5 0.6 15.7
v -10.4 0.4 15.7
v -10.4 0.6 15.7
v -10.3 1.6 15.3
v -10.3 1.7 15.3
v -9.5 1.6 15.3
v -9.5 1.7 15.3
v -10.4 1.5 15.2
v -10.4 1.6 15.2
v -9.4 1.5 15.2
v -9.4 1.6 15.2
v -10.4 0 15.1
v -10.4 0.2 15.1
v -10.4 1.4 15.1
v -10.4 1.5 15.1
v -10.3 0.2 15.1
v -10.3 0.3 15.1
v -10.3 1.2 15.1
v -10.3 1.3 15.1
v -10.3 1.4 15.1
v -10.2 0.2 15.1
v -10.2 0.3 15.1
v -10.2 1.2 15.1
v -10.2 1.3 15.1
v -10 0 15.1
v -10 0.4 15.1
v -10 0.8 15.1
v -9.8 0.4 15.1
v -9.8 0.8 15.1
v -9.7 0.3 15.1
v -9.7 0.4 15.1
v -9.6 0.3 15.1
v -9.6 0.4 15.1
v -9.4 0 15.1
v -9.4 0.3 15.1
v -9.4 1.5 15.1
v -10 0.4 15
v -10 0.8 15
v -9.8 0.4 15
v -9.8 0.8 15
v -10.4 0 16.5
v -10 0 16.5
v -9.4 0 16.5
v -10.2 0 16.4
v -10 0 16.4
v -10.2 0 15.2
v -10 0 15.2
v -10.4 0 15.1
v -10 0 15.1
v -9.4 0 15.1
v -10 0.4 16.6
v -9.8 0.4 16.6
v -10 0.4 16.5
v -9.8 0.4 16.5
v -10.5 0.4 15.9
v -10.4 0.4 15.9
v -10.5 0.4 15.7
v -10.4 0.4 15.7
v -10 0.4 15.1
v -9.8 0.4 15.1
v -10 0.4 15
v -9.8 0.4 15
v -10.5 0.6 15.9
v -10.4 0.6 15.9
v -10.5 0.6 15.7
v -10.4 0.6 15.7
v -10 0.8 16.6
v -9.8 0.8 16.6
v -10 0.8 16.5
v -9.8 0.8 16.5
v -10 0.8 15.1
v -9.8 0.8 15.1
v -10 0.8 15
v -9.8 0.8 15
v -10.4 1.5 16.5
v -9.4 1.5 16.5
v -10.4 1.5 16.4
v -9.4 1.5 16.4
v -10.4 1.5 15.2
v -9.4 1.5 15.2
v -10.4 1.5 15.1
v -9.4 1.5 15.1
v -10.4 1.6 16.4
v -9.4 1.6 16.4
v -10.3 1.6 16.3
v -9.5 1.6 16.3
v -10.3 1.6 15.3
v -9.5 1.6 15.3
v -10.4 1.6 15.2
v -9.4 1.6 15.2
v -10.3 1.7 16.3
v -9.5 1.7 16.3
v -10.3 1.7 15.3
v -9.5 1.7 15.3

# faces
f 3/3/1 2/3/1 1/3/1
f 4/3/1 2/3/1 3/3/1
f 7/4/1 6/4/1 5/4/1
f 8/4/1 6/4/1 7/4/1
f 9/4/1 6/4/1 8/4/1
f 10/4/1 6/4/1 9/4/1
f 11/4/1 7/4/1 5/4/1
f 12/4/1 7/4/1 11/4/1
f 13/5/1 8/5/1 7/5/1
f 14/3/1 9/3/1 8/3/1
f 14/5/1 8/5/1 13/5/1
f 15/5/1 10/5/1 9/5/1
f 15/3/1 9/3/1 14/3/1
f 16/5/1 10/5/1 15/5/1
f 17/4/1 6/4/1 10/4/1
f 18/4/1 6/4/1 17/4/1
f 19/4/1 7/4/1 12/4/1
f 19/2/1 12/2/1 11/2/1
f 20/5/1 13/5/1 7/5/1
f 20/4/1 7/4/1 19/4/1
f 21/1/1 14/1/1 13/1/1
f 21/5/1 13/5/1 20/5/1
f 21/1/1 15/1/1 14/1/1
f 21/1/1 16/1/1 15/1/1
f 22/5/1 10/5/1 16/5/1
f 22/1/1 16/1/1 21/1/1
f 23/4/1 17/4/1 10/4/1
f 23/5/1 10/5/1 22/5/1
f 24/2/1 18/2/1 17/2/1
f 24/4/1 17/4/1 23/4/1
f 25/4/1 21/4/1 20/4/1
f 25/2/1 20/2/1 19/2/1
f 25/4/1 23/4/1 22/4/1
f 25/4/1 22/4/1 21/4/1
f 26/4/1 23/4/1 25/4/1
f 27/4/1 23/4/1 26/4/1
f 28/2/1 24/2/1 23/2/1
f 28/4/1 23/4/1 27/4/1
f 29/2/1 19/2/1 11/2/1
f 29/2/1 25/2/1 19/2/1
f 29/2/1 26/2/1 25/2/1
f 30/2/1 26/2/1 29/2/1
f 31/2/1 24/2/1 28/2/1
f 31/2/1 28/2/1 27/2/1
f 32/2/1 18/2/1 24/2/1
f 32/2/1 24/2/1 31/2/1
f 33/1/1 30/1/1 29/1/1
f 33/2/1 29/2/1 11/2/1
f 34/1/1 30/1/1 33/1/1
f 35/2/1 26/2/1 30/2/1
f 35/1/1 30/1/1 34/1/1
f 36/2/1 26/2/1 35/2/1
f 37/2/1 31/2/1 27/2/1
f 38/1/1 32/1/1 31/1/1
f 38/2/1 31/2/1 37/2/1
f 39/1/1 32/1/1 38/1/1
f 40/2/1 18/2/1 32/2/1
f 40/1/1 32/1/1 39/1/1
f 41/2/1 34/2/1 33/2/1
f 41/4/1 35/4/1 34/4/1
f 42/4/1 35/4/1 41/4/1
f 43/2/1 36/2/1 35/2/1
f 43/4/1 39/4/1 38/4/1
f 43/2/1 37/2/1 36/2/1
f 43/2/1 38/2/1 37/2/1
f 44/4/1 39/4/1 43/4/1
f 45/2/1 41/2/1 33/2/1
f 45/2/1 33/2/1 11/2/1
f 46/1/1 42/1/1 41/1/1
f 46/2/1 41/2/1 45/2/1
f 47/4/1 35/4/1 42/4/1
f 47/1/1 42/1/1 46/1/1
f 48/2/1 43/2/1 35/2/1
f 48/4/1 35/4/1 47/4/1
f 49/1/1 44/1/1 43/1/1
f 49/2/1 43/2/1 48/2/1
f 50/4/1 39/4/1 44/4/1
f 50/1/1 44/1/1 49/1/1
f 51/2/1 40/2/1 39/2/1
f 51/4/1 39/4/1 50/4/1
f 52/2/1 18/2/1 40/2/1
f 52/2/1 40/2/1 51/2/1
f 53/5/1 46/5/1 45/5/1
f 53/2/1 45/2/1 11/2/1
f 54/2/1 51/2/1 50/2/1
f 54/5/1 46/5/1 53/5/1
f 54/2/1 49/2/1 48/2/1
f 54/2/1 47/2/1 46/2/1
f 54/2/1 48/2/1 47/2/1
f 54/2/1 50/2/1 49/2/1
f 55/2/1 51/2/1 54/2/1
f 56/2/1 51/2/1 55/2/1
f 57/2/1 51/2/1 56/2/1
f 58/2/1 51/2/1 57/2/1
f 59/5/1 52/5/1 51/5/1
f 59/2/1 51/2/1 58/2/1
f 60/2/1 18/2/1 52/2/1
f 60/5/1 52/5/1 59/5/1
f 61/2/1 54/2/1 53/2/1
f 61/4/1 55/4/1 54/4/1
f 62/5/1 56/5/1 55/5/1
f 62/4/1 55/4/1 61/4/1
f 63/2/1 57/2/1 56/2/1
f 63/5/1 56/5/1 62/5/1
f 64/5/1 58/5/1 57/5/1
f 64/2/1 57/2/1 63/2/1
f 65/4/1 59/4/1 58/4/1
f 65/5/1 58/5/1 64/5/1
f 66/2/1 60/2/1 59/2/1
f 66/4/1 59/4/1 65/4/1
f 67/2/1 64/2/1 63/2/1
f 67/2/1 53/2/1 11/2/1
f 67/2/1 66/2/1 65/2/1
f 67/2/1 62/2/1 61/2/1
f 67/2/1 61/2/1 53/2/1
f 67/2/1 65/2/1 64/2/1
f 67/2/1 63/2/1 62/2/1
f 68/2/1 60/2/1 66/2/1
f 68/2/1 66/2/1 67/2/1
f 68/2/1 18/2/1 60/2/1
f 69/4/1 68/4/1 67/4/1
f 70/4/1 68/4/1 69/4/1
f 71/4/1 68/4/1 70/4/1
f 72/4/1 68/4/1 71/4/1
f 73/4/1 71/4/1 70/4/1
f 74/4/1 71/4/1 73/4/1
f 77/4/1 76/4/1 75/4/1
f 78/4/1 76/4/1 77/4/1
f 83/3/1 80/3/1 79/3/1
f 84/3/1 80/3/1 83/3/1
f 85/3/1 82/3/1 81/3/1
f 86/3/1 82/3/1 85/3/1
f 87/3/2 88/3/2 91/3/2
f 91/3/2 88/3/2 92/3/2
f 89/3/2 90/3/2 93/3/2
f 93/3/2 90/3/2 94/3/2
f 95/4/2 96/4/2 97/4/2
f 97/4/2 96/4/2 98/4/2
f 99/2/2 100/2/2 101/2/2
f 101/2/2 100/2/2 102/2/2
f 102/2/2 100/2/2 103/2/2
f 103/2/2 100/2/2 104/2/2
f 99/2/2 101/2/2 105/2/2
f 101/5/2 102/5/2 106/5/2
f 105/2/2 101/2/2 106/2/2
f 102/4/2 103/4/2 107/4/2
f 106/5/2 102/5/2 107/5/2
f 103/5/2 104/5/2 108/5/2
f 107/4/2 103/4/2 108/4/2
f 104/2/2 100/2/2 109/2/2
f 108/5/2 104/5/2 109/5/2
f 109/2/2 100/2/2 110/2/2
f 107/4/2 108/4/2 111/4/2
f 105/4/2 106/4/2 111/4/2
f 109/4/2 110/4/2 111/4/2
f 108/4/2 109/4/2 111/4/2
f 106/4/2 107/4/2 111/4/2
f 111/4/2 110/4/2 112/4/2
f 112/4/2 110/4/2 113/4/2
f 113/4/2 110/4/2 114/4/2
f 112/4/2 113/4/2 115/4/2
f 115/4/2 113/4/2 116/4/2
f 119/3/3 118/3/3 117/3/3
f 120/3/3 118/3/3 119/3/3
f 125/4/3 122/4/3 121/4/3
f 125/2/3 123/2/3 122/2/3
f 126/2/3 123/2/3 125/2/3
f 127/2/3 123/2/3 126/2/3
f 128/2/3 123/2/3 127/2/3
f 129/4/3 124/4/3 123/4/3
f 129/2/3 123/2/3 128/2/3
f 130/4/3 125/4/3 121/4/3
f 130/5/3 126/5/3 125/5/3
f 131/2/3 127/2/3 126/2/3
f 131/5/3 126/5/3 130/5/3
f 132/5/3 128/5/3 127/5/3
f 132/2/3 127/2/3 131/2/3
f 133/4/3 129/4/3 128/4/3
f 133/5/3 128/5/3 132/5/3
f 134/4/3 131/4/3 130/4/3
f 134/4/3 132/4/3 131/4/3
f 134/4/3 133/4/3 132/4/3
f 134/4/3 130/4/3 121/4/3
f 135/4/3 133/4/3 134/4/3
f 136/4/3 133/4/3 135/4/3
f 137/2/3 135/2/3 134/2/3
f 138/4/3 133/4/3 136/4/3
f 139/2/3 137/2/3 134/2/3
f 140/4/3 138/4/3 137/4/3
f 140/2/3 137/2/3 139/2/3
f 141/2/3 139/2/3 134/2/3
f 141/5/3 140/5/3 139/5/3
f 142/4/3 138/4/3 140/4/3
f 142/5/3 140/5/3 141/5/3
f 143/2/3 141/2/3 134/2/3
f 144/4/3 142/4/3 141/4/3
f 144/2/3 141/2/3 143/2/3
f 145/4/3 129/4/3 133/4/3
f 145/4/3 142/4/3 144/4/3
f 145/4/3 124/4/3 129/4/3
f 145/4/3 138/4/3 142/4/3
f 145/4/3 133/4/3 138/4/3
f 148/4/3 147/4/3 146/4/3
f 149/4/3 147/4/3 148/4/3
f 152/4/3 151/4/3 150/4/3
f 153/4/3 151/4/3 152/4/3
f 156/3/3 155/3/3 154/3/3
f 157/3/3 155/3/3 156/3/3
f 158/3/4 159/3/4 160/3/4
f 160/3/4 159/3/4 161/3/4
f 162/4/4 163/4/4 164/4/4
f 164/4/4 163/4/4 165/4/4
f 166/4/4 167/4/4 168/4/4
f 168/4/4 167/4/4 169/4/4
f 170/4/4 171/4/4 174/4/4
f 171/2/4 172/2/4 174/2/4
f 174/2/4 172/2/4 175/2/4
f 175/2/4 172/2/4 176/2/4
f 176/2/4 172/2/4 177/2/4
f 172/4/4 173/4/4 178/4/4
f 177/2/4 172/2/4 178/2/4
f 170/4/4 174/4/4 179/4/4
f 174/5/4 175/5/4 179/5/4
f 175/2/4 176/2/4 180/2/4
f 179/5/4 175/5/4 180/5/4
f 176/5/4 177/5/4 181/5/4
f 180/2/4 176/2/4 181/2/4
f 177/4/4 178/4/4 182/4/4
f 181/5/4 177/5/4 182/5/4
f 179/4/4 180/4/4 183/4/4
f 180/4/4 181/4/4 183/4/4
f 181/4/4 182/4/4 183/4/4
f 170/4/4 179/4/4 183/4/4
f 183/4/4 182/4/4 184/4/4
f 184/4/4 182/4/4 185/4/4
f 183/2/4 184/2/4 186/2/4
f 185/4/4 182/4/4 187/4/4
f 183/2/4 186/2/4 188/2/4
f 186/4/4 187/4/4 189/4/4
f 188/2/4 186/2/4 189/2/4
f 183/2/4 188/2/4 190/2/4
f 188/5/4 189/5/4 190/5/4
f 189/4/4 187/4/4 191/4/4
f 190/5/4 189/5/4 191/5/4
f 183/2/4 190/2/4 192/2/4
f 190/4/4 191/4/4 193/4/4
f 192/2/4 190/2/4 193/2/4
f 182/4/4 178/4/4 194/4/4
f 193/4/4 191/4/4 194/4/4
f 178/4/4 173/4/4 194/4/4
f 191/4/4 187/4/4 194/4/4
f 187/4/4 182/4/4 194/4/4
f 195/3/4 196/3/4 197/3/4
f 197/3/4 196/3/4 198/3/4
f 202/4/5 200/4/5 199/4/5
f 203/2/5 201/2/5 200/2/5
f 203/4/5 200/4/5 202/4/5
f 204/4/5 202/4/5 199/4/5
f 204/2/5 203/2/5 202/2/5
f 205/2/5 201/2/5 203/2/5
f 205/2/5 203/2/5 204/2/5
f 206/4/5 204/4/5 199/4/5
f 206/4/5 205/4/5 204/4/5
f 207/2/5 201/2/5 205/2/5
f 207/4/5 205/4/5 206/4/5
f 208/2/5 201/2/5 207/2/5
f 211/3/5 210/3/5 209/3/5
f 212/3/5 210/3/5 211/3/5
f 215/3/5 214/3/5 213/3/5
f 216/3/5 214/3/5 215/3/5
f 219/3/5 218/3/5 217/3/5
f 220/3/5 218/3/5 219/3/5
f 221/3/6 222/3/6 223/3/6
f 223/3/6 222/3/6 224/3/6
f 225/3/6 226/3/6 227/3/6
f 227/3/6 226/3/6 228/3/6
f 229/3/6 230/3/6 231/3/6
f 231/3/6 230/3/6 232/3/6
f 233/4/6 234/4/6 235/4/6
f 235/4/6 234/4/6 236/4/6
f 237/4/6 238/4/6 239/4/6
f 239/4/6 238/4/6 240/4/6
f 241/4/6 242/4/6 243/4/6
f 243/4/6 242/4/6 244/4/6
f 241/4/6 243/4/6 245/4/6
f 244/4/6 242/4/6 246/4/6
f 241/4/6 245/4/6 247/4/6
f 245/4/6 246/4/6 247/4/6
f 246/4/6 242/4/6 248/4/6
f 247/4/6 246/4/6 248/4/6
f 249/4/6 250/4/6 251/4/6
f 251/4/6 250/4/6 252/4/6
