# MagicaVoxel @ Ephtracy

# group
o 

# material
mtllib Voxel Universe-49.mtl
usemtl palette

# normals
vn -1 0 0
vn 1 0 0
vn 0 0 1
vn 0 0 -1
vn 0 -1 0
vn 0 1 0

# texcoords
vt 0.0683594 0.5
vt 0.0839844 0.5
vt 0.275391 0.5
vt 0.533203 0.5
vt 0.537109 0.5
vt 0.541016 0.5
vt 0.572266 0.5
vt 0.958984 0.5

# verts
v 2 1.9 -16.1
v 2 1.9 -17.5
v 2 3.1 -16.4
v 2 3.1 -17.2
v 2 3.2 -16.1
v 2 3.2 -16.4
v 2 3.2 -16.5
v 2 3.2 -17.1
v 2 3.2 -17.2
v 2 3.2 -17.5
v 2 3.7 -16.5
v 2 3.7 -17.1
v 2.3 0.4 -16.5
v 2.3 0.4 -16.7
v 2.3 0.4 -16.9
v 2.3 0.4 -17.1
v 2.3 0.7 -16.7
v 2.3 0.7 -16.9
v 2.3 0.9 -16.5
v 2.3 0.9 -17.1
v 2.3 1.4 -16.6
v 2.3 1.4 -17
v 2.3 1.5 -15.6
v 2.3 1.5 -15.9
v 2.3 1.5 -17.7
v 2.3 1.5 -18
v 2.3 1.7 -15.6
v 2.3 1.7 -15.9
v 2.3 1.7 -16.5
v 2.3 1.7 -16.6
v 2.3 1.7 -17
v 2.3 1.7 -17.1
v 2.3 1.7 -17.7
v 2.3 1.7 -18
v 2.3 2.6 -16
v 2.3 2.6 -16.1
v 2.3 2.6 -17.5
v 2.3 2.6 -17.6
v 2.3 2.8 -16
v 2.3 2.8 -16.1
v 2.3 2.8 -17.5
v 2.3 2.8 -17.6
v 2.4 0 -16.5
v 2.4 0 -16.7
v 2.4 0 -16.9
v 2.4 0 -17.1
v 2.4 0.2 -16.5
v 2.4 0.2 -16.7
v 2.4 0.2 -16.9
v 2.4 0.2 -17.1
v 2.4 0.4 -16.5
v 2.4 0.4 -16.7
v 2.4 0.4 -16.9
v 2.4 0.4 -17.1
v 2.4 1.5 -15.9
v 2.4 1.5 -16.5
v 2.4 1.5 -17.1
v 2.4 1.5 -17.7
v 2.4 1.7 -15.9
v 2.4 1.7 -16.5
v 2.4 1.7 -16.6
v 2.4 1.7 -17
v 2.4 1.7 -17.1
v 2.4 1.7 -17.7
v 2.4 1.9 -16.6
v 2.4 1.9 -17
v 2.4 2.3 -16
v 2.4 2.3 -16.1
v 2.4 2.3 -17.5
v 2.4 2.3 -17.6
v 2.4 2.6 -16
v 2.4 2.6 -16.1
v 2.4 2.6 -17.5
v 2.4 2.6 -17.6
v 2.6 0.1 -16.5
v 2.6 0.1 -16.7
v 2.6 0.1 -16.9
v 2.6 0.1 -17.1
v 2.6 0.2 -16.5
v 2.6 0.2 -16.7
v 2.6 0.2 -16.9
v 2.6 0.2 -17.1
v 2.6 0.4 -16.5
v 2.6 0.4 -16.7
v 2.6 0.4 -16.9
v 2.6 0.4 -17.1
v 2.6 1.5 -15.6
v 2.6 1.5 -15.8
v 2.6 1.5 -15.9
v 2.6 1.5 -16.5
v 2.6 1.5 -17.1
v 2.6 1.5 -17.7
v 2.6 1.5 -17.8
v 2.6 1.5 -18
v 2.6 1.7 -15.6
v 2.6 1.7 -15.8
v 2.6 1.7 -15.9
v 2.6 1.7 -16.5
v 2.6 1.7 -16.6
v 2.6 1.7 -17
v 2.6 1.7 -17.1
v 2.6 1.7 -17.7
v 2.6 1.7 -17.8
v 2.6 1.7 -18
v 2.6 1.9 -16.6
v 2.6 1.9 -17
v 2.6 2.3 -16
v 2.6 2.3 -16.1
v 2.6 2.3 -17.5
v 2.6 2.3 -17.6
v 2.6 2.7 -16
v 2.6 2.7 -16.1
v 2.6 2.7 -17.5
v 2.6 2.7 -17.6
v 2.7 0 -16.5
v 2.7 0 -16.7
v 2.7 0 -16.9
v 2.7 0 -17.1
v 2.7 0.1 -16.5
v 2.7 0.1 -16.7
v 2.7 0.1 -16.9
v 2.7 0.1 -17.1
v 2.7 0.4 -16.5
v 2.7 0.4 -16.7
v 2.7 0.4 -16.9
v 2.7 0.4 -17.1
v 2.7 0.7 -16.7
v 2.7 0.7 -16.9
v 2.7 0.9 -16.5
v 2.7 0.9 -17.1
v 2.7 1.4 -16.6
v 2.7 1.4 -17
v 2.7 1.5 -15.8
v 2.7 1.5 -15.9
v 2.7 1.5 -17.7
v 2.7 1.5 -17.8
v 2.7 1.7 -15.8
v 2.7 1.7 -15.9
v 2.7 1.7 -16.5
v 2.7 1.7 -16.6
v 2.7 1.7 -17
v 2.7 1.7 -17.1
v 2.7 1.7 -17.7
v 2.7 1.7 -17.8
v 3 1.9 -16.1
v 3 1.9 -17.5
v 3 2.1 -16.6
v 3 2.1 -17
v 3 2.2 -16.5
v 3 2.2 -16.6
v 3 2.2 -17
v 3 2.2 -17.1
v 3 2.3 -16.5
v 3 2.3 -16.6
v 3 2.3 -16.7
v 3 2.3 -16.9
v 3 2.3 -17
v 3 2.3 -17.1
v 3 2.5 -16.1
v 3 2.5 -16.7
v 3 2.5 -16.9
v 3 2.5 -17.5
v 3 2.6 -16.7
v 3 2.6 -16.9
v 3 2.8 -16.1
v 3 2.8 -16.2
v 3 2.8 -16.6
v 3 2.8 -17
v 3 2.8 -17.4
v 3 2.8 -17.5
v 3 2.9 -16.2
v 3 2.9 -16.6
v 3 2.9 -17
v 3 2.9 -17.4
v 3 3.1 -16.4
v 3 3.1 -17.2
v 3 3.2 -16.1
v 3 3.2 -16.4
v 3 3.2 -16.5
v 3 3.2 -17.1
v 3 3.2 -17.2
v 3 3.2 -17.5
v 3 3.7 -16.5
v 3 3.7 -17.1
v 3.1 2.3 -16.7
v 3.1 2.3 -16.9
v 3.1 2.5 -16.1
v 3.1 2.5 -16.7
v 3.1 2.5 -16.9
v 3.1 2.5 -17.5
v 3.1 2.6 -16.2
v 3.1 2.6 -16.6
v 3.1 2.6 -16.7
v 3.1 2.6 -16.9
v 3.1 2.6 -17
v 3.1 2.6 -17.4
v 3.1 2.7 -16
v 3.1 2.7 -16.1
v 3.1 2.7 -16.2
v 3.1 2.7 -16.6
v 3.1 2.7 -17
v 3.1 2.7 -17.4
v 3.1 2.7 -17.5
v 3.1 2.7 -17.6
v 3.1 2.8 -16
v 3.1 2.8 -17.6
v 2.3 1.5 -15.6
v 2.3 1.7 -15.6
v 2.4 1.5 -15.6
v 2.4 1.7 -15.6
v 2.5 1.5 -15.6
v 2.5 1.7 -15.6
v 2.6 1.5 -15.6
v 2.6 1.7 -15.6
v 2.6 1.5 -15.8
v 2.6 1.7 -15.8
v 2.7 1.5 -15.8
v 2.7 1.7 -15.8
v 2.3 2.6 -16
v 2.3 2.8 -16
v 2.4 2.3 -16
v 2.4 2.6 -16
v 2.4 2.7 -16
v 2.6 2.3 -16
v 2.6 2.7 -16
v 3.1 2.7 -16
v 3.1 2.8 -16
v 2 1.9 -16.1
v 2 3.2 -16.1
v 2.3 2.6 -16.1
v 2.3 2.8 -16.1
v 2.4 2.3 -16.1
v 2.4 2.6 -16.1
v 2.6 2.3 -16.1
v 2.6 2.7 -16.1
v 3 1.9 -16.1
v 3 2.5 -16.1
v 3 2.7 -16.1
v 3 2.8 -16.1
v 3 3.2 -16.1
v 3.1 2.5 -16.1
v 3.1 2.7 -16.1
v 2 3.2 -16.5
v 2 3.7 -16.5
v 2.3 0.4 -16.5
v 2.3 0.9 -16.5
v 2.3 1.7 -16.5
v 2.4 0 -16.5
v 2.4 0.2 -16.5
v 2.4 0.4 -16.5
v 2.4 1.5 -16.5
v 2.4 1.7 -16.5
v 2.6 0.1 -16.5
v 2.6 0.2 -16.5
v 2.6 0.4 -16.5
v 2.6 1.5 -16.5
v 2.6 1.7 -16.5
v 2.7 0 -16.5
v 2.7 0.1 -16.5
v 2.7 0.4 -16.5
v 2.7 0.9 -16.5
v 2.7 1.7 -16.5
v 3 3.2 -16.5
v 3 3.7 -16.5
v 2.4 1.7 -16.6
v 2.4 1.9 -16.6
v 2.6 1.7 -16.6
v 2.6 1.9 -16.6
v 3 2.3 -16.7
v 3 2.5 -16.7
v 3.1 2.3 -16.7
v 3.1 2.5 -16.7
v 2.3 0.4 -16.9
v 2.3 0.7 -16.9
v 2.4 0 -16.9
v 2.4 0.2 -16.9
v 2.4 0.4 -16.9
v 2.6 0.1 -16.9
v 2.6 0.2 -16.9
v 2.6 0.4 -16.9
v 2.7 0 -16.9
v 2.7 0.1 -16.9
v 2.7 0.4 -16.9
v 2.7 0.7 -16.9
v 3 2.5 -16.9
v 3 2.6 -16.9
v 3.1 2.5 -16.9
v 3.1 2.6 -16.9
v 2.3 1.5 -17.7
v 2.3 1.7 -17.7
v 2.4 1.5 -17.7
v 2.4 1.7 -17.7
v 2.6 1.5 -17.7
v 2.6 1.7 -17.7
v 2.7 1.5 -17.7
v 2.7 1.7 -17.7
v 2.3 1.5 -15.9
v 2.3 1.7 -15.9
v 2.4 1.5 -15.9
v 2.4 1.7 -15.9
v 2.6 1.5 -15.9
v 2.6 1.7 -15.9
v 2.7 1.5 -15.9
v 2.7 1.7 -15.9
v 2.3 0.4 -16.7
v 2.3 0.7 -16.7
v 2.4 0 -16.7
v 2.4 0.2 -16.7
v 2.4 0.4 -16.7
v 2.6 0.1 -16.7
v 2.6 0.2 -16.7
v 2.6 0.4 -16.7
v 2.7 0 -16.7
v 2.7 0.1 -16.7
v 2.7 0.4 -16.7
v 2.7 0.7 -16.7
v 3 2.5 -16.7
v 3 2.6 -16.7
v 3.1 2.5 -16.7
v 3.1 2.6 -16.7
v 3 2.3 -16.9
v 3 2.5 -16.9
v 3.1 2.3 -16.9
v 3.1 2.5 -16.9
v 2.4 1.7 -17
v 2.4 1.9 -17
v 2.6 1.7 -17
v 2.6 1.9 -17
v 2 3.2 -17.1
v 2 3.7 -17.1
v 2.3 0.4 -17.1
v 2.3 0.9 -17.1
v 2.3 1.7 -17.1
v 2.4 0 -17.1
v 2.4 0.2 -17.1
v 2.4 0.4 -17.1
v 2.4 1.5 -17.1
v 2.4 1.7 -17.1
v 2.6 0.1 -17.1
v 2.6 0.2 -17.1
v 2.6 0.4 -17.1
v 2.6 1.5 -17.1
v 2.6 1.7 -17.1
v 2.7 0 -17.1
v 2.7 0.1 -17.1
v 2.7 0.4 -17.1
v 2.7 0.9 -17.1
v 2.7 1.7 -17.1
v 3 3.2 -17.1
v 3 3.7 -17.1
v 2 1.9 -17.5
v 2 3.2 -17.5
v 2.3 2.6 -17.5
v 2.3 2.8 -17.5
v 2.4 2.3 -17.5
v 2.4 2.6 -17.5
v 2.6 2.3 -17.5
v 2.6 2.7 -17.5
v 3 1.9 -17.5
v 3 2.5 -17.5
v 3 2.7 -17.5
v 3 2.8 -17.5
v 3 3.2 -17.5
v 3.1 2.5 -17.5
v 3.1 2.7 -17.5
v 2.3 2.6 -17.6
v 2.3 2.8 -17.6
v 2.4 2.3 -17.6
v 2.4 2.6 -17.6
v 2.4 2.7 -17.6
v 2.6 2.3 -17.6
v 2.6 2.7 -17.6
v 3.1 2.7 -17.6
v 3.1 2.8 -17.6
v 2.6 1.5 -17.8
v 2.6 1.7 -17.8
v 2.7 1.5 -17.8
v 2.7 1.7 -17.8
v 2.3 1.5 -18
v 2.3 1.7 -18
v 2.4 1.5 -18
v 2.4 1.7 -18
v 2.5 1.5 -18
v 2.5 1.7 -18
v 2.6 1.5 -18
v 2.6 1.7 -18
v 2.4 0 -16.5
v 2.7 0 -16.5
v 2.4 0 -16.7
v 2.7 0 -16.7
v 2.4 0 -16.9
v 2.7 0 -16.9
v 2.4 0 -17.1
v 2.7 0 -17.1
v 2.3 0.4 -16.5
v 2.4 0.4 -16.5
v 2.6 0.4 -16.5
v 2.7 0.4 -16.5
v 2.3 0.4 -16.7
v 2.4 0.4 -16.7
v 2.6 0.4 -16.7
v 2.7 0.4 -16.7
v 2.3 0.4 -16.9
v 2.4 0.4 -16.9
v 2.6 0.4 -16.9
v 2.7 0.4 -16.9
v 2.3 0.4 -17.1
v 2.4 0.4 -17.1
v 2.6 0.4 -17.1
v 2.7 0.4 -17.1
v 2.3 0.7 -16.7
v 2.7 0.7 -16.7
v 2.3 0.7 -16.9
v 2.7 0.7 -16.9
v 2.3 1.5 -15.6
v 2.4 1.5 -15.6
v 2.5 1.5 -15.6
v 2.6 1.5 -15.6
v 2.4 1.5 -15.8
v 2.5 1.5 -15.8
v 2.6 1.5 -15.8
v 2.7 1.5 -15.8
v 2.3 1.5 -15.9
v 2.4 1.5 -15.9
v 2.6 1.5 -15.9
v 2.7 1.5 -15.9
v 2.4 1.5 -16.5
v 2.6 1.5 -16.5
v 2.4 1.5 -17.1
v 2.6 1.5 -17.1
v 2.3 1.5 -17.7
v 2.4 1.5 -17.7
v 2.6 1.5 -17.7
v 2.7 1.5 -17.7
v 2.4 1.5 -17.8
v 2.5 1.5 -17.8
v 2.6 1.5 -17.8
v 2.7 1.5 -17.8
v 2.3 1.5 -18
v 2.4 1.5 -18
v 2.5 1.5 -18
v 2.6 1.5 -18
v 2 1.9 -16.1
v 3 1.9 -16.1
v 2.4 1.9 -16.6
v 2.6 1.9 -16.6
v 2.4 1.9 -17
v 2.6 1.9 -17
v 2 1.9 -17.5
v 3 1.9 -17.5
v 2.4 2.3 -16
v 2.6 2.3 -16
v 2.4 2.3 -16.1
v 2.6 2.3 -16.1
v 3 2.3 -16.7
v 3.1 2.3 -16.7
v 3 2.3 -16.9
v 3.1 2.3 -16.9
v 2.4 2.3 -17.5
v 2.6 2.3 -17.5
v 2.4 2.3 -17.6
v 2.6 2.3 -17.6
v 3 2.5 -16.1
v 3.1 2.5 -16.1
v 3 2.5 -16.7
v 3.1 2.5 -16.7
v 3 2.5 -16.9
v 3.1 2.5 -16.9
v 3 2.5 -17.5
v 3.1 2.5 -17.5
v 2.3 2.6 -16
v 2.4 2.6 -16
v 2.3 2.6 -16.1
v 2.4 2.6 -16.1
v 3 2.6 -16.7
v 3.1 2.6 -16.7
v 3 2.6 -16.9
v 3.1 2.6 -16.9
v 2.3 2.6 -17.5
v 2.4 2.6 -17.5
v 2.3 2.6 -17.6
v 2.4 2.6 -17.6
v 2.6 2.7 -16
v 3.1 2.7 -16
v 2.6 2.7 -16.1
v 3 2.7 -16.1
v 3.1 2.7 -16.1
v 2.6 2.7 -17.5
v 3 2.7 -17.5
v 3.1 2.7 -17.5
v 2.6 2.7 -17.6
v 3.1 2.7 -17.6
v 2.6 0.1 -16.5
v 2.7 0.1 -16.5
v 2.6 0.1 -16.7
v 2.7 0.1 -16.7
v 2.6 0.1 -16.9
v 2.7 0.1 -16.9
v 2.6 0.1 -17.1
v 2.7 0.1 -17.1
v 2.3 1.7 -15.6
v 2.4 1.7 -15.6
v 2.5 1.7 -15.6
v 2.6 1.7 -15.6
v 2.4 1.7 -15.8
v 2.5 1.7 -15.8
v 2.6 1.7 -15.8
v 2.7 1.7 -15.8
v 2.3 1.7 -15.9
v 2.4 1.7 -15.9
v 2.6 1.7 -15.9
v 2.7 1.7 -15.9
v 2.3 1.7 -16.5
v 2.4 1.7 -16.5
v 2.6 1.7 -16.5
v 2.7 1.7 -16.5
v 2.3 1.7 -16.6
v 2.4 1.7 -16.6
v 2.6 1.7 -16.6
v 2.7 1.7 -16.6
v 2.3 1.7 -17
v 2.4 1.7 -17
v 2.6 1.7 -17
v 2.7 1.7 -17
v 2.3 1.7 -17.1
v 2.4 1.7 -17.1
v 2.6 1.7 -17.1
v 2.7 1.7 -17.1
v 2.3 1.7 -17.7
v 2.4 1.7 -17.7
v 2.6 1.7 -17.7
v 2.7 1.7 -17.7
v 2.4 1.7 -17.8
v 2.5 1.7 -17.8
v 2.6 1.7 -17.8
v 2.7 1.7 -17.8
v 2.3 1.7 -18
v 2.4 1.7 -18
v 2.5 1.7 -18
v 2.6 1.7 -18
v 3 2.5 -16.7
v 3.1 2.5 -16.7
v 3 2.5 -16.9
v 3.1 2.5 -16.9
v 2.3 2.8 -16
v 3.1 2.8 -16
v 2.3 2.8 -16.1
v 3 2.8 -16.1
v 3 2.8 -16.2
v 3 2.8 -16.6
v 3 2.8 -17
v 3 2.8 -17.4
v 2.3 2.8 -17.5
v 3 2.8 -17.5
v 2.3 2.8 -17.6
v 3.1 2.8 -17.6
v 2 3.2 -16.1
v 3 3.2 -16.1
v 2 3.2 -16.4
v 3 3.2 -16.4
v 2 3.2 -16.5
v 3 3.2 -16.5
v 2 3.2 -17.1
v 3 3.2 -17.1
v 2 3.2 -17.2
v 3 3.2 -17.2
v 2 3.2 -17.5
v 3 3.2 -17.5
v 2 3.7 -16.5
v 3 3.7 -16.5
v 2 3.7 -17.1
v 3 3.7 -17.1

# faces
f 3/6/1 2/6/1 1/6/1
f 4/6/1 2/6/1 3/6/1
f 5/6/1 3/6/1 1/6/1
f 6/4/1 4/4/1 3/4/1
f 6/6/1 3/6/1 5/6/1
f 7/4/1 4/4/1 6/4/1
f 8/4/1 4/4/1 7/4/1
f 9/6/1 2/6/1 4/6/1
f 9/4/1 4/4/1 8/4/1
f 10/6/1 2/6/1 9/6/1
f 11/3/1 8/3/1 7/3/1
f 12/3/1 8/3/1 11/3/1
f 17/3/1 14/3/1 13/3/1
f 18/3/1 16/3/1 15/3/1
f 19/3/1 17/3/1 13/3/1
f 19/3/1 18/3/1 17/3/1
f 20/3/1 16/3/1 18/3/1
f 20/3/1 18/3/1 19/3/1
f 21/8/1 20/8/1 19/8/1
f 22/8/1 20/8/1 21/8/1
f 27/6/1 24/6/1 23/6/1
f 28/6/1 24/6/1 27/6/1
f 29/8/1 21/8/1 19/8/1
f 30/6/1 22/6/1 21/6/1
f 30/8/1 21/8/1 29/8/1
f 31/8/1 20/8/1 22/8/1
f 31/6/1 22/6/1 30/6/1
f 32/8/1 20/8/1 31/8/1
f 33/6/1 26/6/1 25/6/1
f 34/6/1 26/6/1 33/6/1
f 39/1/1 36/1/1 35/1/1
f 40/1/1 36/1/1 39/1/1
f 41/1/1 38/1/1 37/1/1
f 42/1/1 38/1/1 41/1/1
f 47/1/1 44/1/1 43/1/1
f 48/1/1 44/1/1 47/1/1
f 49/1/1 46/1/1 45/1/1
f 50/1/1 46/1/1 49/1/1
f 51/6/1 48/6/1 47/6/1
f 52/6/1 48/6/1 51/6/1
f 53/6/1 50/6/1 49/6/1
f 54/6/1 50/6/1 53/6/1
f 59/6/1 56/6/1 55/6/1
f 60/6/1 56/6/1 59/6/1
f 63/6/1 58/6/1 57/6/1
f 64/6/1 58/6/1 63/6/1
f 65/4/1 62/4/1 61/4/1
f 66/4/1 62/4/1 65/4/1
f 71/4/1 68/4/1 67/4/1
f 72/4/1 68/4/1 71/4/1
f 73/4/1 70/4/1 69/4/1
f 74/4/1 70/4/1 73/4/1
f 75/1/2 76/1/2 79/1/2
f 79/1/2 76/1/2 80/1/2
f 77/1/2 78/1/2 81/1/2
f 81/1/2 78/1/2 82/1/2
f 79/6/2 80/6/2 83/6/2
f 83/6/2 80/6/2 84/6/2
f 81/6/2 82/6/2 85/6/2
f 85/6/2 82/6/2 86/6/2
f 87/6/2 88/6/2 95/6/2
f 95/6/2 88/6/2 96/6/2
f 89/6/2 90/6/2 97/6/2
f 97/6/2 90/6/2 98/6/2
f 91/6/2 92/6/2 101/6/2
f 101/6/2 92/6/2 102/6/2
f 93/6/2 94/6/2 103/6/2
f 103/6/2 94/6/2 104/6/2
f 99/4/2 100/4/2 105/4/2
f 105/4/2 100/4/2 106/4/2
f 107/4/2 108/4/2 111/4/2
f 111/4/2 108/4/2 112/4/2
f 109/4/2 110/4/2 113/4/2
f 113/4/2 110/4/2 114/4/2
f 115/1/2 116/1/2 119/1/2
f 119/1/2 116/1/2 120/1/2
f 117/1/2 118/1/2 121/1/2
f 121/1/2 118/1/2 122/1/2
f 123/3/2 124/3/2 127/3/2
f 125/3/2 126/3/2 128/3/2
f 123/3/2 127/3/2 129/3/2
f 127/3/2 128/3/2 129/3/2
f 128/3/2 126/3/2 130/3/2
f 129/3/2 128/3/2 130/3/2
f 129/8/2 130/8/2 131/8/2
f 131/8/2 130/8/2 132/8/2
f 133/6/2 134/6/2 137/6/2
f 137/6/2 134/6/2 138/6/2
f 129/8/2 131/8/2 139/8/2
f 131/6/2 132/6/2 140/6/2
f 139/8/2 131/8/2 140/8/2
f 132/8/2 130/8/2 141/8/2
f 140/6/2 132/6/2 141/6/2
f 141/8/2 130/8/2 142/8/2
f 135/6/2 136/6/2 143/6/2
f 143/6/2 136/6/2 144/6/2
f 145/6/2 146/6/2 147/6/2
f 147/6/2 146/6/2 148/6/2
f 145/6/2 147/6/2 149/6/2
f 147/4/2 148/4/2 150/4/2
f 149/6/2 147/6/2 150/6/2
f 148/6/2 146/6/2 151/6/2
f 150/4/2 148/4/2 151/4/2
f 151/6/2 146/6/2 152/6/2
f 149/4/2 150/4/2 153/4/2
f 145/6/2 149/6/2 153/6/2
f 150/6/2 151/6/2 154/6/2
f 153/4/2 150/4/2 154/4/2
f 154/6/2 151/6/2 155/6/2
f 155/6/2 151/6/2 156/6/2
f 151/4/2 152/4/2 157/4/2
f 156/6/2 151/6/2 157/6/2
f 152/6/2 146/6/2 158/6/2
f 157/4/2 152/4/2 158/4/2
f 145/6/2 153/6/2 159/6/2
f 153/6/2 154/6/2 159/6/2
f 154/6/2 155/6/2 159/6/2
f 159/6/2 155/6/2 160/6/2
f 156/6/2 157/6/2 161/6/2
f 157/6/2 158/6/2 161/6/2
f 158/6/2 146/6/2 162/6/2
f 161/6/2 158/6/2 162/6/2
f 160/6/2 161/6/2 163/6/2
f 163/6/2 161/6/2 164/6/2
f 166/5/2 167/5/2 171/5/2
f 165/6/2 166/6/2 171/6/2
f 167/6/2 168/6/2 172/6/2
f 171/5/2 167/5/2 172/5/2
f 168/5/2 169/5/2 173/5/2
f 172/6/2 168/6/2 173/6/2
f 169/6/2 170/6/2 174/6/2
f 173/5/2 169/5/2 174/5/2
f 172/6/2 173/6/2 175/6/2
f 171/6/2 172/6/2 175/6/2
f 173/6/2 174/6/2 175/6/2
f 175/6/2 174/6/2 176/6/2
f 165/6/2 171/6/2 177/6/2
f 171/6/2 175/6/2 177/6/2
f 175/4/2 176/4/2 178/4/2
f 177/6/2 175/6/2 178/6/2
f 178/4/2 176/4/2 179/4/2
f 179/4/2 176/4/2 180/4/2
f 176/6/2 174/6/2 181/6/2
f 180/4/2 176/4/2 181/4/2
f 174/6/2 170/6/2 182/6/2
f 181/6/2 174/6/2 182/6/2
f 179/3/2 180/3/2 183/3/2
f 183/3/2 180/3/2 184/3/2
f 185/2/2 186/2/2 188/2/2
f 188/2/2 186/2/2 189/2/2
f 187/1/2 188/1/2 191/1/2
f 191/1/2 188/1/2 192/1/2
f 192/1/2 188/1/2 193/1/2
f 189/1/2 190/1/2 194/1/2
f 194/1/2 190/1/2 195/1/2
f 195/1/2 190/1/2 196/1/2
f 187/1/2 191/1/2 198/1/2
f 191/7/2 192/7/2 199/7/2
f 198/1/2 191/1/2 199/1/2
f 192/1/2 193/1/2 200/1/2
f 199/7/2 192/7/2 200/7/2
f 193/1/2 194/1/2 200/1/2
f 194/1/2 195/1/2 200/1/2
f 195/7/2 196/7/2 201/7/2
f 200/1/2 195/1/2 201/1/2
f 196/1/2 190/1/2 202/1/2
f 201/7/2 196/7/2 202/7/2
f 202/1/2 190/1/2 203/1/2
f 198/1/2 199/1/2 205/1/2
f 203/1/2 204/1/2 205/1/2
f 202/1/2 203/1/2 205/1/2
f 201/1/2 202/1/2 205/1/2
f 199/1/2 200/1/2 205/1/2
f 200/1/2 201/1/2 205/1/2
f 197/1/2 198/1/2 205/1/2
f 205/1/2 204/1/2 206/1/2
f 209/6/3 208/6/3 207/6/3
f 210/6/3 208/6/3 209/6/3
f 211/4/3 210/4/3 209/4/3
f 212/4/3 210/4/3 211/4/3
f 213/6/3 212/6/3 211/6/3
f 214/6/3 212/6/3 213/6/3
f 217/6/3 216/6/3 215/6/3
f 218/6/3 216/6/3 217/6/3
f 222/1/3 220/1/3 219/1/3
f 223/1/3 220/1/3 222/1/3
f 224/4/3 222/4/3 221/4/3
f 224/4/3 223/4/3 222/4/3
f 225/1/3 220/1/3 223/1/3
f 225/4/3 223/4/3 224/4/3
f 226/1/3 220/1/3 225/1/3
f 227/1/3 220/1/3 226/1/3
f 230/6/3 229/6/3 228/6/3
f 231/6/3 229/6/3 230/6/3
f 232/6/3 230/6/3 228/6/3
f 233/6/3 230/6/3 232/6/3
f 234/6/3 232/6/3 228/6/3
f 236/6/3 234/6/3 228/6/3
f 236/6/3 235/6/3 234/6/3
f 237/6/3 235/6/3 236/6/3
f 238/6/3 235/6/3 237/6/3
f 239/6/3 229/6/3 231/6/3
f 240/6/3 229/6/3 239/6/3
f 241/1/3 238/1/3 237/1/3
f 242/1/3 238/1/3 241/1/3
f 250/3/3 246/3/3 245/3/3
f 251/8/3 247/8/3 246/8/3
f 252/8/3 247/8/3 251/8/3
f 253/1/3 249/1/3 248/1/3
f 254/6/3 250/6/3 249/6/3
f 254/1/3 249/1/3 253/1/3
f 255/3/3 246/3/3 250/3/3
f 255/6/3 250/6/3 254/6/3
f 256/8/3 251/8/3 246/8/3
f 258/1/3 253/1/3 248/1/3
f 259/1/3 253/1/3 258/1/3
f 260/3/3 246/3/3 255/3/3
f 261/8/3 257/8/3 256/8/3
f 261/3/3 246/3/3 260/3/3
f 261/8/3 256/8/3 246/8/3
f 262/8/3 257/8/3 261/8/3
f 263/3/3 244/3/3 243/3/3
f 264/3/3 244/3/3 263/3/3
f 267/4/3 266/4/3 265/4/3
f 268/4/3 266/4/3 267/4/3
f 271/2/3 270/2/3 269/2/3
f 272/2/3 270/2/3 271/2/3
f 277/3/3 274/3/3 273/3/3
f 278/1/3 276/1/3 275/1/3
f 279/6/3 277/6/3 276/6/3
f 279/1/3 276/1/3 278/1/3
f 280/3/3 274/3/3 277/3/3
f 280/6/3 277/6/3 279/6/3
f 281/1/3 278/1/3 275/1/3
f 282/1/3 278/1/3 281/1/3
f 283/3/3 274/3/3 280/3/3
f 284/3/3 274/3/3 283/3/3
f 287/1/3 286/1/3 285/1/3
f 288/1/3 286/1/3 287/1/3
f 291/6/3 290/6/3 289/6/3
f 292/6/3 290/6/3 291/6/3
f 295/6/3 294/6/3 293/6/3
f 296/6/3 294/6/3 295/6/3
f 297/6/4 298/6/4 299/6/4
f 299/6/4 298/6/4 300/6/4
f 301/6/4 302/6/4 303/6/4
f 303/6/4 302/6/4 304/6/4
f 305/3/4 306/3/4 309/3/4
f 307/1/4 308/1/4 310/1/4
f 308/6/4 309/6/4 311/6/4
f 310/1/4 308/1/4 311/1/4
f 309/3/4 306/3/4 312/3/4
f 311/6/4 309/6/4 312/6/4
f 307/1/4 310/1/4 313/1/4
f 313/1/4 310/1/4 314/1/4
f 312/3/4 306/3/4 315/3/4
f 315/3/4 306/3/4 316/3/4
f 317/1/4 318/1/4 319/1/4
f 319/1/4 318/1/4 320/1/4
f 321/2/4 322/2/4 323/2/4
f 323/2/4 322/2/4 324/2/4
f 325/4/4 326/4/4 327/4/4
f 327/4/4 326/4/4 328/4/4
f 331/3/4 332/3/4 336/3/4
f 332/8/4 333/8/4 337/8/4
f 337/8/4 333/8/4 338/8/4
f 334/1/4 335/1/4 339/1/4
f 335/6/4 336/6/4 340/6/4
f 339/1/4 335/1/4 340/1/4
f 336/3/4 332/3/4 341/3/4
f 340/6/4 336/6/4 341/6/4
f 332/8/4 337/8/4 342/8/4
f 334/1/4 339/1/4 344/1/4
f 344/1/4 339/1/4 345/1/4
f 341/3/4 332/3/4 346/3/4
f 342/8/4 343/8/4 347/8/4
f 346/3/4 332/3/4 347/3/4
f 332/8/4 342/8/4 347/8/4
f 347/8/4 343/8/4 348/8/4
f 329/3/4 330/3/4 349/3/4
f 349/3/4 330/3/4 350/3/4
f 351/6/4 352/6/4 353/6/4
f 353/6/4 352/6/4 354/6/4
f 351/6/4 353/6/4 355/6/4
f 355/6/4 353/6/4 356/6/4
f 351/6/4 355/6/4 357/6/4
f 351/6/4 357/6/4 359/6/4
f 357/6/4 358/6/4 359/6/4
f 359/6/4 358/6/4 360/6/4
f 360/6/4 358/6/4 361/6/4
f 354/6/4 352/6/4 362/6/4
f 362/6/4 352/6/4 363/6/4
f 360/1/4 361/1/4 364/1/4
f 364/1/4 361/1/4 365/1/4
f 366/1/4 367/1/4 369/1/4
f 369/1/4 367/1/4 370/1/4
f 368/4/4 369/4/4 371/4/4
f 369/4/4 370/4/4 371/4/4
f 370/1/4 367/1/4 372/1/4
f 371/4/4 370/4/4 372/4/4
f 372/1/4 367/1/4 373/1/4
f 373/1/4 367/1/4 374/1/4
f 375/6/4 376/6/4 377/6/4
f 377/6/4 376/6/4 378/6/4
f 379/6/4 380/6/4 381/6/4
f 381/6/4 380/6/4 382/6/4
f 381/4/4 382/4/4 383/4/4
f 383/4/4 382/4/4 384/4/4
f 383/6/4 384/6/4 385/6/4
f 385/6/4 384/6/4 386/6/4
f 389/1/5 388/1/5 387/1/5
f 390/1/5 388/1/5 389/1/5
f 393/1/5 392/1/5 391/1/5
f 394/1/5 392/1/5 393/1/5
f 399/3/5 396/3/5 395/3/5
f 400/3/5 396/3/5 399/3/5
f 401/3/5 398/3/5 397/3/5
f 402/3/5 398/3/5 401/3/5
f 407/3/5 404/3/5 403/3/5
f 408/3/5 404/3/5 407/3/5
f 409/3/5 406/3/5 405/3/5
f 410/3/5 406/3/5 409/3/5
f 413/3/5 412/3/5 411/3/5
f 414/3/5 412/3/5 413/3/5
f 419/6/5 416/6/5 415/6/5
f 419/4/5 417/4/5 416/4/5
f 420/6/5 418/6/5 417/6/5
f 420/4/5 417/4/5 419/4/5
f 421/6/5 418/6/5 420/6/5
f 423/6/5 419/6/5 415/6/5
f 423/6/5 422/6/5 421/6/5
f 423/6/5 421/6/5 420/6/5
f 423/6/5 420/6/5 419/6/5
f 424/6/5 422/6/5 423/6/5
f 425/6/5 422/6/5 424/6/5
f 426/6/5 422/6/5 425/6/5
f 427/6/5 425/6/5 424/6/5
f 428/6/5 425/6/5 427/6/5
f 432/6/5 430/6/5 429/6/5
f 433/6/5 430/6/5 432/6/5
f 435/6/5 433/6/5 432/6/5
f 435/6/5 434/6/5 433/6/5
f 435/6/5 432/6/5 431/6/5
f 436/6/5 434/6/5 435/6/5
f 437/6/5 434/6/5 436/6/5
f 438/6/5 434/6/5 437/6/5
f 439/6/5 435/6/5 431/6/5
f 440/4/5 436/4/5 435/4/5
f 440/6/5 435/6/5 439/6/5
f 441/6/5 437/6/5 436/6/5
f 441/4/5 436/4/5 440/4/5
f 442/6/5 437/6/5 441/6/5
f 445/6/5 444/6/5 443/6/5
f 446/6/5 444/6/5 445/6/5
f 447/6/5 445/6/5 443/6/5
f 448/6/5 444/6/5 446/6/5
f 449/6/5 447/6/5 443/6/5
f 449/6/5 448/6/5 447/6/5
f 450/6/5 444/6/5 448/6/5
f 450/6/5 448/6/5 449/6/5
f 453/4/5 452/4/5 451/4/5
f 454/4/5 452/4/5 453/4/5
f 457/2/5 456/2/5 455/2/5
f 458/2/5 456/2/5 457/2/5
f 461/4/5 460/4/5 459/4/5
f 462/4/5 460/4/5 461/4/5
f 465/1/5 464/1/5 463/1/5
f 466/1/5 464/1/5 465/1/5
f 469/1/5 468/1/5 467/1/5
f 470/1/5 468/1/5 469/1/5
f 473/1/5 472/1/5 471/1/5
f 474/1/5 472/1/5 473/1/5
f 477/1/5 476/1/5 475/1/5
f 478/1/5 476/1/5 477/1/5
f 481/1/5 480/1/5 479/1/5
f 482/1/5 480/1/5 481/1/5
f 485/1/5 484/1/5 483/1/5
f 486/1/5 484/1/5 485/1/5
f 487/1/5 484/1/5 486/1/5
f 491/1/5 489/1/5 488/1/5
f 491/1/5 490/1/5 489/1/5
f 492/1/5 490/1/5 491/1/5
f 493/1/6 494/1/6 495/1/6
f 495/1/6 494/1/6 496/1/6
f 497/1/6 498/1/6 499/1/6
f 499/1/6 498/1/6 500/1/6
f 501/6/6 502/6/6 505/6/6
f 502/4/6 503/4/6 505/4/6
f 503/6/6 504/6/6 506/6/6
f 505/4/6 503/4/6 506/4/6
f 506/6/6 504/6/6 507/6/6
f 501/6/6 505/6/6 509/6/6
f 507/6/6 508/6/6 509/6/6
f 506/6/6 507/6/6 509/6/6
f 505/6/6 506/6/6 509/6/6
f 509/6/6 508/6/6 510/6/6
f 510/6/6 508/6/6 511/6/6
f 511/6/6 508/6/6 512/6/6
f 510/6/6 511/6/6 514/6/6
f 514/6/6 511/6/6 515/6/6
f 513/8/6 514/8/6 517/8/6
f 515/8/6 516/8/6 517/8/6
f 514/8/6 515/8/6 517/8/6
f 517/8/6 516/8/6 518/8/6
f 518/8/6 516/8/6 519/8/6
f 519/8/6 516/8/6 520/8/6
f 517/6/6 518/6/6 521/6/6
f 521/6/6 518/6/6 522/6/6
f 519/6/6 520/6/6 523/6/6
f 523/6/6 520/6/6 524/6/6
f 521/8/6 522/8/6 525/8/6
f 522/8/6 523/8/6 525/8/6
f 523/8/6 524/8/6 525/8/6
f 525/8/6 524/8/6 526/8/6
f 526/8/6 524/8/6 527/8/6
f 527/8/6 524/8/6 528/8/6
f 526/6/6 527/6/6 530/6/6
f 530/6/6 527/6/6 531/6/6
f 529/6/6 530/6/6 533/6/6
f 531/6/6 532/6/6 533/6/6
f 530/6/6 531/6/6 533/6/6
f 533/6/6 532/6/6 534/6/6
f 534/6/6 532/6/6 535/6/6
f 535/6/6 532/6/6 536/6/6
f 529/6/6 533/6/6 537/6/6
f 533/4/6 534/4/6 538/4/6
f 537/6/6 533/6/6 538/6/6
f 534/6/6 535/6/6 539/6/6
f 538/4/6 534/4/6 539/4/6
f 539/6/6 535/6/6 540/6/6
f 541/2/6 542/2/6 543/2/6
f 543/2/6 542/2/6 544/2/6
f 545/1/6 546/1/6 547/1/6
f 547/1/6 546/1/6 548/1/6
f 548/1/6 546/1/6 549/1/6
f 549/1/6 546/1/6 550/1/6
f 550/1/6 546/1/6 551/1/6
f 551/1/6 546/1/6 552/1/6
f 552/1/6 546/1/6 554/1/6
f 553/1/6 554/1/6 555/1/6
f 554/1/6 546/1/6 556/1/6
f 555/1/6 554/1/6 556/1/6
f 557/6/6 558/6/6 559/6/6
f 559/6/6 558/6/6 560/6/6
f 559/4/6 560/4/6 561/4/6
f 561/4/6 560/4/6 562/4/6
f 563/4/6 564/4/6 565/4/6
f 565/4/6 564/4/6 566/4/6
f 565/6/6 566/6/6 567/6/6
f 567/6/6 566/6/6 568/6/6
f 569/3/6 570/3/6 571/3/6
f 571/3/6 570/3/6 572/3/6
