# MagicaVoxel @ Ephtracy

# group
o Face

# material
mtllib Voxel Universe-25-Face.mtl
usemtl palette

# normals
vn -1 0 0
vn 1 0 0
vn 0 0 1
vn 0 0 -1
vn 0 -1 0
vn 0 1 0

# texcoords
vt 0.0292969 0.5
vt 0.0566406 0.5
vt 0.0839844 0.5
vt 0.767578 0.5
vt 0.794922 0.5
vt 0.958984 0.5
vt 0.994141 0.5

# verts
v -15.5 0.4 22.2
v -15.5 0.4 22
v -15.5 0.5 22.7
v -15.5 0.5 22.3
v -15.5 0.5 21.9
v -15.5 0.5 21.5
v -15.5 0.6 22.8
v -15.5 0.6 22.7
v -15.5 0.6 22.3
v -15.5 0.6 22.2
v -15.5 0.6 22
v -15.5 0.6 21.9
v -15.5 0.6 21.5
v -15.5 0.6 21.4
v -15.5 0.8 22.9
v -15.5 0.8 22.8
v -15.5 0.8 22.7
v -15.5 0.8 22.3
v -15.5 0.8 22.2
v -15.5 0.8 22
v -15.5 0.8 21.9
v -15.5 0.8 21.5
v -15.5 0.8 21.4
v -15.5 0.8 21.3
v -15.5 0.9 22.9
v -15.5 0.9 21.3
v -15.4 0 22.8
v -15.4 0 21.4
v -15.4 0.2 22.3
v -15.4 0.2 21.9
v -15.4 0.3 22.4
v -15.4 0.3 22.3
v -15.4 0.3 21.9
v -15.4 0.3 21.8
v -15.4 0.4 22.4
v -15.4 0.4 22.3
v -15.4 0.4 22.2
v -15.4 0.4 22
v -15.4 0.4 21.9
v -15.4 0.4 21.8
v -15.4 0.5 22.7
v -15.4 0.5 22.3
v -15.4 0.5 21.9
v -15.4 0.5 21.5
v -15.4 0.6 22.8
v -15.4 0.6 22.7
v -15.4 0.6 22.5
v -15.4 0.6 22.4
v -15.4 0.6 22.3
v -15.4 0.6 22.2
v -15.4 0.6 22
v -15.4 0.6 21.9
v -15.4 0.6 21.8
v -15.4 0.6 21.7
v -15.4 0.6 21.5
v -15.4 0.6 21.4
v -15.4 0.8 22.7
v -15.4 0.8 22.5
v -15.4 0.8 22.4
v -15.4 0.8 22.3
v -15.4 0.8 22.2
v -15.4 0.8 22
v -15.4 0.8 21.9
v -15.4 0.8 21.8
v -15.4 0.8 21.7
v -15.4 0.8 21.5
v -15.4 0.9 22.8
v -15.4 0.9 22.7
v -15.4 0.9 22.3
v -15.4 0.9 21.9
v -15.4 0.9 21.5
v -15.4 0.9 21.4
v -15.4 1 22.7
v -15.4 1 22.3
v -15.4 1 21.9
v -15.4 1 21.5
v -15.4 1.3 22.8
v -15.4 1.3 22.7
v -15.4 1.3 22.6
v -15.4 1.3 22.5
v -15.4 1.3 22.3
v -15.4 1.3 22.2
v -15.4 1.3 22
v -15.4 1.3 21.9
v -15.4 1.3 21.7
v -15.4 1.3 21.6
v -15.4 1.3 21.5
v -15.4 1.3 21.4
v -15.4 1.7 22.7
v -15.4 1.7 22.6
v -15.4 1.7 22.5
v -15.4 1.7 22.3
v -15.4 1.7 22.2
v -15.4 1.7 22
v -15.4 1.7 21.9
v -15.4 1.7 21.7
v -15.4 1.7 21.6
v -15.4 1.7 21.5
v -15.4 1.8 22.8
v -15.4 1.8 21.4
v -15 0.4 22.9
v -15 0.4 22.8
v -15 0.4 21.4
v -15 0.4 21.3
v -15 0.8 22.9
v -15 0.8 22.8
v -15 0.8 21.4
v -15 0.8 21.3
v -14.8 0.4 22.9
v -14.8 0.4 22.8
v -14.8 0.4 21.4
v -14.8 0.4 21.3
v -14.8 0.7 22.9
v -14.8 0.7 22.8
v -14.8 0.7 21.4
v -14.8 0.7 21.3
v -14.8 0.8 22.9
v -14.8 0.8 22.8
v -14.8 0.8 21.4
v -14.8 0.8 21.3
v -14.8 0.9 22.9
v -14.8 0.9 22.8
v -14.8 0.9 21.4
v -14.8 0.9 21.3
v -14.7 0.7 22.9
v -14.7 0.7 22.8
v -14.7 0.7 21.4
v -14.7 0.7 21.3
v -14.7 0.8 22.9
v -14.7 0.8 22.8
v -14.7 0.8 21.4
v -14.7 0.8 21.3
v -14.4 0 22.8
v -14.4 0 21.4
v -14.4 0.9 22.8
v -14.4 0.9 21.4
v -14.4 1 22.8
v -14.4 1 21.4
v -14.4 1.1 22.8
v -14.4 1.1 21.4
v -14.4 1.2 22.8
v -14.4 1.2 21.4
v -14.4 1.3 22.8
v -14.4 1.3 22.7
v -14.4 1.3 22.6
v -14.4 1.3 22.5
v -14.4 1.3 22.3
v -14.4 1.3 22.2
v -14.4 1.3 22
v -14.4 1.3 21.9
v -14.4 1.3 21.7
v -14.4 1.3 21.6
v -14.4 1.3 21.5
v -14.4 1.3 21.4
v -14.4 1.7 22.7
v -14.4 1.7 22.6
v -14.4 1.7 22.5
v -14.4 1.7 22.3
v -14.4 1.7 22.2
v -14.4 1.7 22
v -14.4 1.7 21.9
v -14.4 1.7 21.7
v -14.4 1.7 21.6
v -14.4 1.7 21.5
v -14.4 1.8 22.8
v -14.4 1.8 21.4
v -15.5 0.8 22.9
v -15.5 0.9 22.9
v -15 0.4 22.9
v -15 0.8 22.9
v -14.8 0.4 22.9
v -14.8 0.7 22.9
v -14.8 0.8 22.9
v -14.8 0.9 22.9
v -14.7 0.7 22.9
v -14.7 0.8 22.9
v -15.5 0.6 22.8
v -15.5 0.8 22.8
v -15.4 0 22.8
v -15.4 0.6 22.8
v -15.4 0.8 22.8
v -15.4 0.9 22.8
v -15.4 1.3 22.8
v -15.4 1.8 22.8
v -15.3 1.1 22.8
v -15.3 1.2 22.8
v -15.2 1.1 22.8
v -15.2 1.2 22.8
v -15.1 0.9 22.8
v -15.1 1 22.8
v -15.1 1.1 22.8
v -15.1 1.2 22.8
v -15 0.4 22.8
v -15 0.8 22.8
v -15 0.9 22.8
v -15 1 22.8
v -14.9 0.9 22.8
v -14.9 1 22.8
v -14.8 0.4 22.8
v -14.8 0.7 22.8
v -14.8 0.8 22.8
v -14.8 0.9 22.8
v -14.7 0.7 22.8
v -14.7 0.8 22.8
v -14.4 0 22.8
v -14.4 0.9 22.8
v -14.4 1 22.8
v -14.4 1.1 22.8
v -14.4 1.2 22.8
v -14.4 1.3 22.8
v -14.4 1.8 22.8
v -15.5 0.5 22.7
v -15.5 0.6 22.7
v -15.4 0.5 22.7
v -15.4 0.6 22.7
v -15.5 0.6 22.3
v -15.5 0.8 22.3
v -15.4 0.6 22.3
v -15.4 0.8 22.3
v -15.5 0.4 22.2
v -15.5 0.6 22.2
v -15.4 0.4 22.2
v -15.4 0.6 22.2
v -15.5 0.6 22
v -15.5 0.8 22
v -15.4 0.6 22
v -15.4 0.8 22
v -15.5 0.5 21.9
v -15.5 0.6 21.9
v -15.4 0.5 21.9
v -15.4 0.6 21.9
v -15.5 0.6 21.5
v -15.5 0.8 21.5
v -15.4 0.6 21.5
v -15.4 0.8 21.5
v -15.5 0.6 22.7
v -15.5 0.8 22.7
v -15.4 0.6 22.7
v -15.4 0.8 22.7
v -15.5 0.5 22.3
v -15.5 0.6 22.3
v -15.4 0.5 22.3
v -15.4 0.6 22.3
v -15.5 0.6 22.2
v -15.5 0.8 22.2
v -15.4 0.6 22.2
v -15.4 0.8 22.2
v -15.5 0.4 22
v -15.5 0.6 22
v -15.4 0.4 22
v -15.4 0.6 22
v -15.5 0.6 21.9
v -15.5 0.8 21.9
v -15.4 0.6 21.9
v -15.4 0.8 21.9
v -15.5 0.5 21.5
v -15.5 0.6 21.5
v -15.4 0.5 21.5
v -15.4 0.6 21.5
v -15.5 0.6 21.4
v -15.5 0.8 21.4
v -15.4 0 21.4
v -15.4 0.6 21.4
v -15.4 0.8 21.4
v -15.4 0.9 21.4
v -15.4 1.3 21.4
v -15.4 1.8 21.4
v -15.3 1.1 21.4
v -15.3 1.2 21.4
v -15.2 1.1 21.4
v -15.2 1.2 21.4
v -15.1 0.9 21.4
v -15.1 1 21.4
v -15.1 1.1 21.4
v -15.1 1.2 21.4
v -15 0.4 21.4
v -15 0.8 21.4
v -15 0.9 21.4
v -15 1 21.4
v -14.9 0.9 21.4
v -14.9 1 21.4
v -14.8 0.4 21.4
v -14.8 0.7 21.4
v -14.8 0.8 21.4
v -14.8 0.9 21.4
v -14.7 0.7 21.4
v -14.7 0.8 21.4
v -14.4 0 21.4
v -14.4 0.9 21.4
v -14.4 1 21.4
v -14.4 1.1 21.4
v -14.4 1.2 21.4
v -14.4 1.3 21.4
v -14.4 1.8 21.4
v -15.5 0.8 21.3
v -15.5 0.9 21.3
v -15 0.4 21.3
v -15 0.8 21.3
v -14.8 0.4 21.3
v -14.8 0.7 21.3
v -14.8 0.8 21.3
v -14.8 0.9 21.3
v -14.7 0.7 21.3
v -14.7 0.8 21.3
v -15.4 0 22.8
v -14.4 0 22.8
v -15.4 0 21.4
v -14.4 0 21.4
v -15 0.4 22.9
v -14.8 0.4 22.9
v -15 0.4 22.8
v -14.8 0.4 22.8
v -15.5 0.4 22.2
v -15.4 0.4 22.2
v -15.5 0.4 22
v -15.4 0.4 22
v -15 0.4 21.4
v -14.8 0.4 21.4
v -15 0.4 21.3
v -14.8 0.4 21.3
v -15.5 0.5 22.7
v -15.4 0.5 22.7
v -15.5 0.5 22.3
v -15.4 0.5 22.3
v -15.5 0.5 21.9
v -15.4 0.5 21.9
v -15.5 0.5 21.5
v -15.4 0.5 21.5
v -15.5 0.6 22.8
v -15.4 0.6 22.8
v -15.5 0.6 22.7
v -15.4 0.6 22.7
v -15.5 0.6 22.3
v -15.4 0.6 22.3
v -15.5 0.6 22.2
v -15.4 0.6 22.2
v -15.5 0.6 22
v -15.4 0.6 22
v -15.5 0.6 21.9
v -15.4 0.6 21.9
v -15.5 0.6 21.5
v -15.4 0.6 21.5
v -15.5 0.6 21.4
v -15.4 0.6 21.4
v -14.8 0.7 22.9
v -14.7 0.7 22.9
v -14.8 0.7 22.8
v -14.7 0.7 22.8
v -14.8 0.7 21.4
v -14.7 0.7 21.4
v -14.8 0.7 21.3
v -14.7 0.7 21.3
v -15.5 0.8 22.9
v -15 0.8 22.9
v -15.5 0.8 22.8
v -15.4 0.8 22.8
v -15 0.8 22.8
v -15.5 0.8 22.7
v -15.4 0.8 22.7
v -15.4 0.8 22.5
v -15.4 0.8 22.4
v -15.5 0.8 22.3
v -15.4 0.8 22.3
v -15.5 0.8 22.2
v -15.4 0.8 22.2
v -15.5 0.8 22
v -15.4 0.8 22
v -15.5 0.8 21.9
v -15.4 0.8 21.9
v -15.4 0.8 21.8
v -15.4 0.8 21.7
v -15.5 0.8 21.5
v -15.4 0.8 21.5
v -15.5 0.8 21.4
v -15.4 0.8 21.4
v -15 0.8 21.4
v -15.5 0.8 21.3
v -15 0.8 21.3
v -15.5 0.6 22.7
v -15.4 0.6 22.7
v -15.4 0.6 22.5
v -15.4 0.6 22.4
v -15.5 0.6 22.3
v -15.4 0.6 22.3
v -15.5 0.6 22.2
v -15.4 0.6 22.2
v -15.5 0.6 22
v -15.4 0.6 22
v -15.5 0.6 21.9
v -15.4 0.6 21.9
v -15.4 0.6 21.8
v -15.4 0.6 21.7
v -15.5 0.6 21.5
v -15.4 0.6 21.5
v -14.8 0.8 22.9
v -14.7 0.8 22.9
v -14.8 0.8 22.8
v -14.7 0.8 22.8
v -14.8 0.8 21.4
v -14.7 0.8 21.4
v -14.8 0.8 21.3
v -14.7 0.8 21.3
v -15.5 0.9 22.9
v -14.8 0.9 22.9
v -15.4 0.9 22.8
v -15.1 0.9 22.8
v -15 0.9 22.8
v -14.9 0.9 22.8
v -14.8 0.9 22.8
v -15.4 0.9 22.7
v -15.4 0.9 22.3
v -15.4 0.9 21.9
v -15.4 0.9 21.5
v -15.4 0.9 21.4
v -15.1 0.9 21.4
v -15 0.9 21.4
v -14.9 0.9 21.4
v -14.8 0.9 21.4
v -15.5 0.9 21.3
v -14.8 0.9 21.3
v -15.4 1.8 22.8
v -14.4 1.8 22.8
v -15.3 1.8 22.7
v -15.1 1.8 22.7
v -15 1.8 22.7
v -14.8 1.8 22.7
v -14.7 1.8 22.7
v -14.5 1.8 22.7
v -15.3 1.8 22.6
v -15.1 1.8 22.6
v -15 1.8 22.6
v -14.8 1.8 22.6
v -14.7 1.8 22.6
v -14.5 1.8 22.6
v -15.3 1.8 22.5
v -15.1 1.8 22.5
v -15 1.8 22.5
v -14.8 1.8 22.5
v -14.7 1.8 22.5
v -14.5 1.8 22.5
v -15.3 1.8 22.3
v -15.1 1.8 22.3
v -15 1.8 22.3
v -14.8 1.8 22.3
v -14.7 1.8 22.3
v -14.5 1.8 22.3
v -15.3 1.8 22.2
v -15.1 1.8 22.2
v -15 1.8 22.2
v -14.8 1.8 22.2
v -14.7 1.8 22.2
v -14.5 1.8 22.2
v -15.3 1.8 22
v -15.1 1.8 22
v -15 1.8 22
v -14.8 1.8 22
v -14.7 1.8 22
v -14.5 1.8 22
v -15.3 1.8 21.9
v -15.1 1.8 21.9
v -15 1.8 21.9
v -14.8 1.8 21.9
v -14.7 1.8 21.9
v -14.5 1.8 21.9
v -15.3 1.8 21.7
v -15.1 1.8 21.7
v -15 1.8 21.7
v -14.8 1.8 21.7
v -14.7 1.8 21.7
v -14.5 1.8 21.7
v -15.3 1.8 21.6
v -15.1 1.8 21.6
v -15 1.8 21.6
v -14.8 1.8 21.6
v -14.7 1.8 21.6
v -14.5 1.8 21.6
v -15.3 1.8 21.5
v -15.1 1.8 21.5
v -15 1.8 21.5
v -14.8 1.8 21.5
v -14.7 1.8 21.5
v -14.5 1.8 21.5
v -15.4 1.8 21.4
v -14.4 1.8 21.4

# faces
f 8/6/1 4/6/1 3/6/1
f 9/6/1 4/6/1 8/6/1
f 10/3/1 2/3/1 1/3/1
f 11/3/1 2/3/1 10/3/1
f 12/6/1 6/6/1 5/6/1
f 13/6/1 6/6/1 12/6/1
f 16/6/1 8/6/1 7/6/1
f 17/6/1 8/6/1 16/6/1
f 18/6/1 10/6/1 9/6/1
f 19/6/1 10/6/1 18/6/1
f 20/6/1 12/6/1 11/6/1
f 21/6/1 12/6/1 20/6/1
f 22/6/1 14/6/1 13/6/1
f 23/6/1 14/6/1 22/6/1
f 25/6/1 21/6/1 20/6/1
f 25/6/1 24/6/1 23/6/1
f 25/6/1 23/6/1 22/6/1
f 25/6/1 22/6/1 21/6/1
f 25/6/1 19/6/1 18/6/1
f 25/6/1 20/6/1 19/6/1
f 25/6/1 17/6/1 16/6/1
f 25/6/1 18/6/1 17/6/1
f 25/6/1 16/6/1 15/6/1
f 26/6/1 24/6/1 25/6/1
f 29/2/1 28/2/1 27/2/1
f 30/2/1 28/2/1 29/2/1
f 31/2/1 29/2/1 27/2/1
f 32/3/1 30/3/1 29/3/1
f 32/2/1 29/2/1 31/2/1
f 33/2/1 28/2/1 30/2/1
f 33/3/1 30/3/1 32/3/1
f 34/2/1 28/2/1 33/2/1
f 35/3/1 32/3/1 31/3/1
f 35/2/1 31/2/1 27/2/1
f 36/2/1 33/2/1 32/2/1
f 36/3/1 32/3/1 35/3/1
f 37/2/1 33/2/1 36/2/1
f 38/2/1 33/2/1 37/2/1
f 39/3/1 34/3/1 33/3/1
f 39/2/1 33/2/1 38/2/1
f 40/2/1 28/2/1 34/2/1
f 40/3/1 34/3/1 39/3/1
f 41/2/1 35/2/1 27/2/1
f 41/2/1 36/2/1 35/2/1
f 41/2/1 37/2/1 36/2/1
f 42/2/1 37/2/1 41/2/1
f 43/2/1 39/2/1 38/2/1
f 43/2/1 40/2/1 39/2/1
f 44/2/1 28/2/1 40/2/1
f 44/2/1 40/2/1 43/2/1
f 45/2/1 41/2/1 27/2/1
f 46/2/1 41/2/1 45/2/1
f 49/2/1 37/2/1 42/2/1
f 50/2/1 37/2/1 49/2/1
f 51/2/1 43/2/1 38/2/1
f 52/2/1 43/2/1 51/2/1
f 55/2/1 28/2/1 44/2/1
f 56/2/1 28/2/1 55/2/1
f 57/3/1 47/3/1 46/3/1
f 58/7/1 48/7/1 47/7/1
f 58/3/1 47/3/1 57/3/1
f 59/3/1 49/3/1 48/3/1
f 59/7/1 48/7/1 58/7/1
f 60/3/1 49/3/1 59/3/1
f 61/2/1 51/2/1 50/2/1
f 62/2/1 51/2/1 61/2/1
f 63/3/1 53/3/1 52/3/1
f 64/7/1 54/7/1 53/7/1
f 64/3/1 53/3/1 63/3/1
f 65/3/1 55/3/1 54/3/1
f 65/7/1 54/7/1 64/7/1
f 66/3/1 55/3/1 65/3/1
f 73/2/1 68/2/1 67/2/1
f 73/7/1 69/7/1 68/7/1
f 74/2/1 70/2/1 69/2/1
f 74/7/1 69/7/1 73/7/1
f 75/7/1 71/7/1 70/7/1
f 75/2/1 70/2/1 74/2/1
f 76/2/1 72/2/1 71/2/1
f 76/7/1 71/7/1 75/7/1
f 77/2/1 74/2/1 73/2/1
f 77/2/1 75/2/1 74/2/1
f 77/2/1 76/2/1 75/2/1
f 77/2/1 73/2/1 67/2/1
f 78/2/1 76/2/1 77/2/1
f 79/2/1 76/2/1 78/2/1
f 80/2/1 76/2/1 79/2/1
f 81/2/1 76/2/1 80/2/1
f 82/2/1 76/2/1 81/2/1
f 83/2/1 76/2/1 82/2/1
f 84/2/1 76/2/1 83/2/1
f 85/2/1 76/2/1 84/2/1
f 86/2/1 76/2/1 85/2/1
f 87/2/1 72/2/1 76/2/1
f 87/2/1 76/2/1 86/2/1
f 88/2/1 72/2/1 87/2/1
f 89/4/1 78/4/1 77/4/1
f 89/5/1 79/5/1 78/5/1
f 90/4/1 80/4/1 79/4/1
f 90/5/1 79/5/1 89/5/1
f 91/5/1 81/5/1 80/5/1
f 91/4/1 80/4/1 90/4/1
f 92/4/1 82/4/1 81/4/1
f 92/5/1 81/5/1 91/5/1
f 93/5/1 83/5/1 82/5/1
f 93/4/1 82/4/1 92/4/1
f 94/4/1 84/4/1 83/4/1
f 94/5/1 83/5/1 93/5/1
f 95/5/1 85/5/1 84/5/1
f 95/4/1 84/4/1 94/4/1
f 96/4/1 86/4/1 85/4/1
f 96/5/1 85/5/1 95/5/1
f 97/5/1 87/5/1 86/5/1
f 97/4/1 86/4/1 96/4/1
f 98/4/1 88/4/1 87/4/1
f 98/5/1 87/5/1 97/5/1
f 99/4/1 95/4/1 94/4/1
f 99/4/1 97/4/1 96/4/1
f 99/4/1 98/4/1 97/4/1
f 99/4/1 96/4/1 95/4/1
f 99/4/1 94/4/1 93/4/1
f 99/4/1 93/4/1 92/4/1
f 99/4/1 92/4/1 91/4/1
f 99/4/1 91/4/1 90/4/1
f 99/4/1 90/4/1 89/4/1
f 99/4/1 89/4/1 77/4/1
f 100/4/1 88/4/1 98/4/1
f 100/4/1 98/4/1 99/4/1
f 105/3/1 102/3/1 101/3/1
f 106/3/1 102/3/1 105/3/1
f 107/3/1 104/3/1 103/3/1
f 108/3/1 104/3/1 107/3/1
f 109/3/2 110/3/2 113/3/2
f 113/3/2 110/3/2 114/3/2
f 111/3/2 112/3/2 115/3/2
f 115/3/2 112/3/2 116/3/2
f 117/6/2 118/6/2 121/6/2
f 121/6/2 118/6/2 122/6/2
f 119/6/2 120/6/2 123/6/2
f 123/6/2 120/6/2 124/6/2
f 125/6/2 126/6/2 129/6/2
f 129/6/2 126/6/2 130/6/2
f 127/6/2 128/6/2 131/6/2
f 131/6/2 128/6/2 132/6/2
f 133/2/2 134/2/2 135/2/2
f 135/2/2 134/2/2 136/2/2
f 135/4/2 136/4/2 137/4/2
f 137/4/2 136/4/2 138/4/2
f 137/2/2 138/2/2 139/2/2
f 139/2/2 138/2/2 140/2/2
f 139/4/2 140/4/2 141/4/2
f 141/4/2 140/4/2 142/4/2
f 141/2/2 142/2/2 143/2/2
f 143/2/2 142/2/2 144/2/2
f 144/2/2 142/2/2 145/2/2
f 145/2/2 142/2/2 146/2/2
f 146/2/2 142/2/2 147/2/2
f 147/2/2 142/2/2 148/2/2
f 148/2/2 142/2/2 149/2/2
f 149/2/2 142/2/2 150/2/2
f 150/2/2 142/2/2 151/2/2
f 151/2/2 142/2/2 152/2/2
f 152/2/2 142/2/2 153/2/2
f 153/2/2 142/2/2 154/2/2
f 143/4/2 144/4/2 155/4/2
f 144/5/2 145/5/2 155/5/2
f 145/4/2 146/4/2 156/4/2
f 155/5/2 145/5/2 156/5/2
f 146/5/2 147/5/2 157/5/2
f 156/4/2 146/4/2 157/4/2
f 147/4/2 148/4/2 158/4/2
f 157/5/2 147/5/2 158/5/2
f 148/5/2 149/5/2 159/5/2
f 158/4/2 148/4/2 159/4/2
f 149/4/2 150/4/2 160/4/2
f 159/5/2 149/5/2 160/5/2
f 150/5/2 151/5/2 161/5/2
f 160/4/2 150/4/2 161/4/2
f 151/4/2 152/4/2 162/4/2
f 161/5/2 151/5/2 162/5/2
f 152/5/2 153/5/2 163/5/2
f 162/4/2 152/4/2 163/4/2
f 153/4/2 154/4/2 164/4/2
f 163/5/2 153/5/2 164/5/2
f 162/4/2 163/4/2 165/4/2
f 143/4/2 155/4/2 165/4/2
f 163/4/2 164/4/2 165/4/2
f 161/4/2 162/4/2 165/4/2
f 160/4/2 161/4/2 165/4/2
f 159/4/2 160/4/2 165/4/2
f 158/4/2 159/4/2 165/4/2
f 157/4/2 158/4/2 165/4/2
f 156/4/2 157/4/2 165/4/2
f 155/4/2 156/4/2 165/4/2
f 164/4/2 154/4/2 166/4/2
f 165/4/2 164/4/2 166/4/2
f 170/6/3 168/6/3 167/6/3
f 171/3/3 170/3/3 169/3/3
f 172/3/3 170/3/3 171/3/3
f 173/6/3 168/6/3 170/6/3
f 173/3/3 170/3/3 172/3/3
f 174/6/3 168/6/3 173/6/3
f 175/6/3 173/6/3 172/6/3
f 176/6/3 173/6/3 175/6/3
f 180/6/3 178/6/3 177/6/3
f 181/6/3 178/6/3 180/6/3
f 185/2/3 183/2/3 182/2/3
f 186/2/3 183/2/3 185/2/3
f 187/2/3 185/2/3 182/2/3
f 187/4/3 186/4/3 185/4/3
f 188/2/3 183/2/3 186/2/3
f 188/4/3 186/4/3 187/4/3
f 189/2/3 187/2/3 182/2/3
f 189/2/3 188/2/3 187/2/3
f 190/2/3 188/2/3 189/2/3
f 191/2/3 188/2/3 190/2/3
f 192/2/3 183/2/3 188/2/3
f 192/2/3 188/2/3 191/2/3
f 193/2/3 180/2/3 179/2/3
f 193/2/3 181/2/3 180/2/3
f 194/2/3 181/2/3 193/2/3
f 195/4/3 190/4/3 189/4/3
f 196/2/3 191/2/3 190/2/3
f 196/4/3 190/4/3 195/4/3
f 197/2/3 196/2/3 195/2/3
f 198/2/3 191/2/3 196/2/3
f 198/2/3 196/2/3 197/2/3
f 199/2/3 193/2/3 179/2/3
f 202/4/3 198/4/3 197/4/3
f 203/2/3 200/2/3 199/2/3
f 204/2/3 202/2/3 201/2/3
f 205/2/3 203/2/3 199/2/3
f 205/2/3 204/2/3 203/2/3
f 205/2/3 199/2/3 179/2/3
f 206/2/3 202/2/3 204/2/3
f 206/2/3 204/2/3 205/2/3
f 206/4/3 198/4/3 202/4/3
f 207/2/3 191/2/3 198/2/3
f 207/4/3 198/4/3 206/4/3
f 208/4/3 192/4/3 191/4/3
f 208/2/3 191/2/3 207/2/3
f 209/2/3 183/2/3 192/2/3
f 209/4/3 192/4/3 208/4/3
f 210/4/3 184/4/3 183/4/3
f 210/2/3 183/2/3 209/2/3
f 211/4/3 184/4/3 210/4/3
f 214/6/3 213/6/3 212/6/3
f 215/6/3 213/6/3 214/6/3
f 218/6/3 217/6/3 216/6/3
f 219/6/3 217/6/3 218/6/3
f 222/3/3 221/3/3 220/3/3
f 223/3/3 221/3/3 222/3/3
f 226/6/3 225/6/3 224/6/3
f 227/6/3 225/6/3 226/6/3
f 230/6/3 229/6/3 228/6/3
f 231/6/3 229/6/3 230/6/3
f 234/6/3 233/6/3 232/6/3
f 235/6/3 233/6/3 234/6/3
f 236/6/4 237/6/4 238/6/4
f 238/6/4 237/6/4 239/6/4
f 240/6/4 241/6/4 242/6/4
f 242/6/4 241/6/4 243/6/4
f 244/6/4 245/6/4 246/6/4
f 246/6/4 245/6/4 247/6/4
f 248/3/4 249/3/4 250/3/4
f 250/3/4 249/3/4 251/3/4
f 252/6/4 253/6/4 254/6/4
f 254/6/4 253/6/4 255/6/4
f 256/6/4 257/6/4 258/6/4
f 258/6/4 257/6/4 259/6/4
f 260/6/4 261/6/4 263/6/4
f 263/6/4 261/6/4 264/6/4
f 265/2/4 266/2/4 268/2/4
f 268/2/4 266/2/4 269/2/4
f 265/2/4 268/2/4 270/2/4
f 268/4/4 269/4/4 270/4/4
f 269/2/4 266/2/4 271/2/4
f 270/4/4 269/4/4 271/4/4
f 265/2/4 270/2/4 272/2/4
f 270/2/4 271/2/4 272/2/4
f 272/2/4 271/2/4 273/2/4
f 273/2/4 271/2/4 274/2/4
f 271/2/4 266/2/4 275/2/4
f 274/2/4 271/2/4 275/2/4
f 262/2/4 263/2/4 276/2/4
f 263/2/4 264/2/4 276/2/4
f 276/2/4 264/2/4 277/2/4
f 272/4/4 273/4/4 278/4/4
f 273/2/4 274/2/4 279/2/4
f 278/4/4 273/4/4 279/4/4
f 278/2/4 279/2/4 280/2/4
f 279/2/4 274/2/4 281/2/4
f 280/2/4 279/2/4 281/2/4
f 262/2/4 276/2/4 282/2/4
f 280/4/4 281/4/4 285/4/4
f 282/2/4 283/2/4 286/2/4
f 284/2/4 285/2/4 287/2/4
f 282/2/4 286/2/4 288/2/4
f 286/2/4 287/2/4 288/2/4
f 262/2/4 282/2/4 288/2/4
f 287/2/4 285/2/4 289/2/4
f 288/2/4 287/2/4 289/2/4
f 285/4/4 281/4/4 289/4/4
f 281/2/4 274/2/4 290/2/4
f 289/4/4 281/4/4 290/4/4
f 274/4/4 275/4/4 291/4/4
f 290/2/4 274/2/4 291/2/4
f 275/2/4 266/2/4 292/2/4
f 291/4/4 275/4/4 292/4/4
f 266/4/4 267/4/4 293/4/4
f 292/2/4 266/2/4 293/2/4
f 293/4/4 267/4/4 294/4/4
f 295/6/4 296/6/4 298/6/4
f 297/3/4 298/3/4 299/3/4
f 299/3/4 298/3/4 300/3/4
f 298/6/4 296/6/4 301/6/4
f 300/3/4 298/3/4 301/3/4
f 301/6/4 296/6/4 302/6/4
f 300/6/4 301/6/4 303/6/4
f 303/6/4 301/6/4 304/6/4
f 307/2/5 306/2/5 305/2/5
f 308/2/5 306/2/5 307/2/5
f 311/3/5 310/3/5 309/3/5
f 312/3/5 310/3/5 311/3/5
f 315/3/5 314/3/5 313/3/5
f 316/3/5 314/3/5 315/3/5
f 319/3/5 318/3/5 317/3/5
f 320/3/5 318/3/5 319/3/5
f 323/6/5 322/6/5 321/6/5
f 324/6/5 322/6/5 323/6/5
f 327/6/5 326/6/5 325/6/5
f 328/6/5 326/6/5 327/6/5
f 331/6/5 330/6/5 329/6/5
f 332/6/5 330/6/5 331/6/5
f 335/6/5 334/6/5 333/6/5
f 336/6/5 334/6/5 335/6/5
f 339/6/5 338/6/5 337/6/5
f 340/6/5 338/6/5 339/6/5
f 343/6/5 342/6/5 341/6/5
f 344/6/5 342/6/5 343/6/5
f 347/6/5 346/6/5 345/6/5
f 348/6/5 346/6/5 347/6/5
f 351/6/5 350/6/5 349/6/5
f 352/6/5 350/6/5 351/6/5
f 355/6/5 354/6/5 353/6/5
f 356/6/5 354/6/5 355/6/5
f 357/6/5 354/6/5 356/6/5
f 360/6/5 359/6/5 358/6/5
f 361/6/5 360/6/5 358/6/5
f 362/6/5 361/6/5 358/6/5
f 363/6/5 361/6/5 362/6/5
f 366/6/5 365/6/5 364/6/5
f 367/6/5 365/6/5 366/6/5
f 370/6/5 369/6/5 368/6/5
f 371/6/5 370/6/5 368/6/5
f 372/6/5 371/6/5 368/6/5
f 373/6/5 371/6/5 372/6/5
f 377/6/5 375/6/5 374/6/5
f 377/6/5 376/6/5 375/6/5
f 378/6/5 376/6/5 377/6/5
f 379/6/6 380/6/6 381/6/6
f 379/6/6 381/6/6 382/6/6
f 379/6/6 382/6/6 383/6/6
f 383/6/6 382/6/6 384/6/6
f 385/3/6 386/3/6 387/3/6
f 387/3/6 386/3/6 388/3/6
f 389/6/6 390/6/6 391/6/6
f 389/6/6 391/6/6 392/6/6
f 389/6/6 392/6/6 393/6/6
f 393/6/6 392/6/6 394/6/6
f 395/6/6 396/6/6 397/6/6
f 397/6/6 396/6/6 398/6/6
f 399/6/6 400/6/6 401/6/6
f 401/6/6 400/6/6 402/6/6
f 403/6/6 404/6/6 405/6/6
f 405/6/6 404/6/6 406/6/6
f 406/6/6 404/6/6 407/6/6
f 407/6/6 404/6/6 408/6/6
f 408/6/6 404/6/6 409/6/6
f 403/6/6 405/6/6 410/6/6
f 403/6/6 410/6/6 411/6/6
f 403/6/6 411/6/6 412/6/6
f 403/6/6 412/6/6 413/6/6
f 403/6/6 413/6/6 414/6/6
f 403/6/6 414/6/6 419/6/6
f 417/6/6 418/6/6 419/6/6
f 416/6/6 417/6/6 419/6/6
f 415/6/6 416/6/6 419/6/6
f 414/6/6 415/6/6 419/6/6
f 419/6/6 418/6/6 420/6/6
f 421/4/6 422/4/6 423/4/6
f 423/4/6 422/4/6 424/4/6
f 424/4/6 422/4/6 425/4/6
f 425/4/6 422/4/6 426/4/6
f 426/4/6 422/4/6 427/4/6
f 427/4/6 422/4/6 428/4/6
f 421/4/6 423/4/6 429/4/6
f 423/5/6 424/5/6 429/5/6
f 424/4/6 425/4/6 430/4/6
f 429/5/6 424/5/6 430/5/6
f 425/5/6 426/5/6 431/5/6
f 430/4/6 425/4/6 431/4/6
f 426/4/6 427/4/6 432/4/6
f 431/5/6 426/5/6 432/5/6
f 427/5/6 428/5/6 433/5/6
f 432/4/6 427/4/6 433/4/6
f 428/4/6 422/4/6 434/4/6
f 433/5/6 428/5/6 434/5/6
f 432/4/6 433/4/6 435/4/6
f 431/4/6 432/4/6 435/4/6
f 433/4/6 434/4/6 435/4/6
f 430/4/6 431/4/6 435/4/6
f 429/4/6 430/4/6 435/4/6
f 421/4/6 429/4/6 435/4/6
f 435/4/6 434/4/6 436/4/6
f 436/4/6 434/4/6 437/4/6
f 437/4/6 434/4/6 438/4/6
f 438/4/6 434/4/6 439/4/6
f 434/4/6 422/4/6 440/4/6
f 439/4/6 434/4/6 440/4/6
f 421/4/6 435/4/6 441/4/6
f 435/5/6 436/5/6 441/5/6
f 436/4/6 437/4/6 442/4/6
f 441/5/6 436/5/6 442/5/6
f 437/5/6 438/5/6 443/5/6
f 442/4/6 437/4/6 443/4/6
f 438/4/6 439/4/6 444/4/6
f 443/5/6 438/5/6 444/5/6
f 439/5/6 440/5/6 445/5/6
f 444/4/6 439/4/6 445/4/6
f 440/4/6 422/4/6 446/4/6
f 445/5/6 440/5/6 446/5/6
f 442/4/6 443/4/6 447/4/6
f 444/4/6 445/4/6 447/4/6
f 445/4/6 446/4/6 447/4/6
f 441/4/6 442/4/6 447/4/6
f 421/4/6 441/4/6 447/4/6
f 443/4/6 444/4/6 447/4/6
f 447/4/6 446/4/6 448/4/6
f 448/4/6 446/4/6 449/4/6
f 449/4/6 446/4/6 450/4/6
f 450/4/6 446/4/6 451/4/6
f 446/4/6 422/4/6 452/4/6
f 451/4/6 446/4/6 452/4/6
f 421/4/6 447/4/6 453/4/6
f 447/5/6 448/5/6 453/5/6
f 448/4/6 449/4/6 454/4/6
f 453/5/6 448/5/6 454/5/6
f 449/5/6 450/5/6 455/5/6
f 454/4/6 449/4/6 455/4/6
f 450/4/6 451/4/6 456/4/6
f 455/5/6 450/5/6 456/5/6
f 451/5/6 452/5/6 457/5/6
f 456/4/6 451/4/6 457/4/6
f 452/4/6 422/4/6 458/4/6
f 457/5/6 452/5/6 458/5/6
f 454/4/6 455/4/6 459/4/6
f 456/4/6 457/4/6 459/4/6
f 457/4/6 458/4/6 459/4/6
f 453/4/6 454/4/6 459/4/6
f 421/4/6 453/4/6 459/4/6
f 455/4/6 456/4/6 459/4/6
f 459/4/6 458/4/6 460/4/6
f 460/4/6 458/4/6 461/4/6
f 461/4/6 458/4/6 462/4/6
f 462/4/6 458/4/6 463/4/6
f 458/4/6 422/4/6 464/4/6
f 463/4/6 458/4/6 464/4/6
f 421/4/6 459/4/6 465/4/6
f 459/5/6 460/5/6 465/5/6
f 460/4/6 461/4/6 466/4/6
f 465/5/6 460/5/6 466/5/6
f 461/5/6 462/5/6 467/5/6
f 466/4/6 461/4/6 467/4/6
f 462/4/6 463/4/6 468/4/6
f 467/5/6 462/5/6 468/5/6
f 463/5/6 464/5/6 469/5/6
f 468/4/6 463/4/6 469/4/6
f 464/4/6 422/4/6 470/4/6
f 469/5/6 464/5/6 470/5/6
f 466/4/6 467/4/6 471/4/6
f 468/4/6 469/4/6 471/4/6
f 469/4/6 470/4/6 471/4/6
f 465/4/6 466/4/6 471/4/6
f 421/4/6 465/4/6 471/4/6
f 467/4/6 468/4/6 471/4/6
f 471/4/6 470/4/6 472/4/6
f 472/4/6 470/4/6 473/4/6
f 473/4/6 470/4/6 474/4/6
f 474/4/6 470/4/6 475/4/6
f 470/4/6 422/4/6 476/4/6
f 475/4/6 470/4/6 476/4/6
f 421/4/6 471/4/6 477/4/6
f 471/5/6 472/5/6 477/5/6
f 472/4/6 473/4/6 478/4/6
f 477/5/6 472/5/6 478/5/6
f 473/5/6 474/5/6 479/5/6
f 478/4/6 473/4/6 479/4/6
f 474/4/6 475/4/6 480/4/6
f 479/5/6 474/5/6 480/5/6
f 475/5/6 476/5/6 481/5/6
f 480/4/6 475/4/6 481/4/6
f 476/4/6 422/4/6 482/4/6
f 481/5/6 476/5/6 482/5/6
f 478/4/6 479/4/6 483/4/6
f 480/4/6 481/4/6 483/4/6
f 481/4/6 482/4/6 483/4/6
f 477/4/6 478/4/6 483/4/6
f 421/4/6 477/4/6 483/4/6
f 479/4/6 480/4/6 483/4/6
f 482/4/6 422/4/6 484/4/6
f 483/4/6 482/4/6 484/4/6
