# MagicaVoxel @ Ephtracy

# group
o 

# material
mtllib Voxel Universe-55.mtl
usemtl palette

# normals
vn -1 0 0
vn 1 0 0
vn 0 0 1
vn 0 0 -1
vn 0 -1 0
vn 0 1 0

# texcoords
vt 0.0605469 0.5
vt 0.0917969 0.5
vt 0.279297 0.5
vt 0.572266 0.5
vt 0.587891 0.5
vt 0.958984 0.5

# verts
v 6.4 2.4 -22.8
v 6.4 2.4 -24.2
v 6.4 2.6 -22.8
v 6.4 2.6 -24.2
v 6.5 1.9 -22.8
v 6.5 1.9 -24.2
v 6.5 2.3 -22.8
v 6.5 2.3 -24.2
v 6.5 2.4 -22.8
v 6.5 2.4 -24.2
v 6.5 2.6 -22.8
v 6.5 2.6 -24.2
v 6.5 3.7 -22.8
v 6.5 3.7 -24.2
v 6.8 0.9 -23.2
v 6.8 0.9 -23.8
v 6.8 1.5 -22.3
v 6.8 1.5 -22.6
v 6.8 1.5 -24.4
v 6.8 1.5 -24.7
v 6.8 1.7 -22.3
v 6.8 1.7 -22.6
v 6.8 1.7 -23.2
v 6.8 1.7 -23.8
v 6.8 1.7 -24.4
v 6.8 1.7 -24.7
v 6.9 0 -23.2
v 6.9 0 -23.4
v 6.9 0 -23.6
v 6.9 0 -23.8
v 6.9 0.1 -23.2
v 6.9 0.1 -23.4
v 6.9 0.1 -23.6
v 6.9 0.1 -23.8
v 6.9 0.2 -23.2
v 6.9 0.2 -23.4
v 6.9 0.2 -23.6
v 6.9 0.2 -23.8
v 6.9 0.5 -23.2
v 6.9 0.5 -23.4
v 6.9 0.5 -23.6
v 6.9 0.5 -23.8
v 6.9 0.7 -23.4
v 6.9 0.7 -23.6
v 6.9 0.9 -23.2
v 6.9 0.9 -23.8
v 6.9 1.5 -22.6
v 6.9 1.5 -23.2
v 6.9 1.5 -23.8
v 6.9 1.5 -24.4
v 6.9 1.6 -22.6
v 6.9 1.6 -22.9
v 6.9 1.6 -24.1
v 6.9 1.6 -24.4
v 6.9 1.7 -22.6
v 6.9 1.7 -22.9
v 6.9 1.7 -23.2
v 6.9 1.7 -23.3
v 6.9 1.7 -23.7
v 6.9 1.7 -23.8
v 6.9 1.7 -24.1
v 6.9 1.7 -24.4
v 6.9 1.9 -23.3
v 6.9 1.9 -23.7
v 6.9 2.2 -22.7
v 6.9 2.2 -22.8
v 6.9 2.2 -24.2
v 6.9 2.2 -24.3
v 6.9 2.3 -22.8
v 6.9 2.3 -24.2
v 6.9 2.4 -22.8
v 6.9 2.4 -24.2
v 6.9 2.7 -22.7
v 6.9 2.7 -22.8
v 6.9 2.7 -24.2
v 6.9 2.7 -24.3
v 7.5 3.7 -22.8
v 7.5 3.7 -24.2
v 7.5 3.8 -22.8
v 7.5 3.8 -24.2
v 7.1 0.1 -23.2
v 7.1 0.1 -23.4
v 7.1 0.1 -23.6
v 7.1 0.1 -23.8
v 7.1 0.2 -23.2
v 7.1 0.2 -23.4
v 7.1 0.2 -23.6
v 7.1 0.2 -23.8
v 7.1 0.5 -23.2
v 7.1 0.5 -23.4
v 7.1 0.5 -23.6
v 7.1 0.5 -23.8
v 7.1 0.7 -23.4
v 7.1 0.7 -23.6
v 7.1 0.9 -23.2
v 7.1 0.9 -23.8
v 7.1 1.5 -22.3
v 7.1 1.5 -22.5
v 7.1 1.5 -22.6
v 7.1 1.5 -22.9
v 7.1 1.5 -23.2
v 7.1 1.5 -23.8
v 7.1 1.5 -24.1
v 7.1 1.5 -24.4
v 7.1 1.5 -24.5
v 7.1 1.5 -24.7
v 7.1 1.7 -22.3
v 7.1 1.7 -22.5
v 7.1 1.7 -22.6
v 7.1 1.7 -22.9
v 7.1 1.7 -23.2
v 7.1 1.7 -23.3
v 7.1 1.7 -23.7
v 7.1 1.7 -23.8
v 7.1 1.7 -24.1
v 7.1 1.7 -24.4
v 7.1 1.7 -24.5
v 7.1 1.7 -24.7
v 7.1 1.9 -23.3
v 7.1 1.9 -23.7
v 7.1 2.2 -22.7
v 7.1 2.2 -22.8
v 7.1 2.2 -24.2
v 7.1 2.2 -24.3
v 7.1 2.4 -22.8
v 7.1 2.4 -24.2
v 7.1 2.5 -22.8
v 7.1 2.5 -24.2
v 7.1 2.7 -22.7
v 7.1 2.7 -22.8
v 7.1 2.7 -24.2
v 7.1 2.7 -24.3
v 7.2 0 -23.2
v 7.2 0 -23.4
v 7.2 0 -23.6
v 7.2 0 -23.8
v 7.2 0.1 -23.2
v 7.2 0.1 -23.4
v 7.2 0.1 -23.6
v 7.2 0.1 -23.8
v 7.2 0.9 -23.2
v 7.2 0.9 -23.8
v 7.2 1.5 -22.5
v 7.2 1.5 -22.6
v 7.2 1.5 -24.4
v 7.2 1.5 -24.5
v 7.2 1.7 -22.5
v 7.2 1.7 -22.6
v 7.2 1.7 -23.2
v 7.2 1.7 -23.8
v 7.2 1.7 -24.4
v 7.2 1.7 -24.5
v 7.5 1.9 -22.8
v 7.5 1.9 -24.2
v 7.5 2.1 -23.3
v 7.5 2.1 -23.7
v 7.5 2.2 -23.2
v 7.5 2.2 -23.3
v 7.5 2.2 -23.7
v 7.5 2.2 -23.8
v 7.5 2.3 -23.2
v 7.5 2.3 -23.3
v 7.5 2.3 -23.4
v 7.5 2.3 -23.6
v 7.5 2.3 -23.7
v 7.5 2.3 -23.8
v 7.5 2.5 -23
v 7.5 2.5 -23.1
v 7.5 2.5 -23.9
v 7.5 2.5 -24
v 7.5 2.8 -23
v 7.5 2.8 -23.1
v 7.5 2.8 -23.4
v 7.5 2.8 -23.6
v 7.5 2.8 -23.9
v 7.5 2.8 -24
v 7.5 3.1 -22.8
v 7.5 3.1 -24.2
v 7.6 2.5 -23.4
v 7.6 2.5 -23.6
v 7.6 2.8 -23.4
v 7.6 2.8 -23.6
v 7.7 2.3 -23.4
v 7.7 2.3 -23.6
v 7.7 2.5 -23.4
v 7.7 2.5 -23.6
v 7.7 3.1 -22.8
v 7.7 3.1 -24.2
v 7.7 3.8 -22.8
v 7.7 3.8 -24.2
v 6.8 1.5 -22.3
v 6.8 1.7 -22.3
v 6.9 1.5 -22.3
v 6.9 1.7 -22.3
v 7 1.5 -22.3
v 7 1.7 -22.3
v 7.1 1.5 -22.3
v 7.1 1.7 -22.3
v 7.1 1.5 -22.5
v 7.1 1.7 -22.5
v 7.2 1.5 -22.5
v 7.2 1.7 -22.5
v 6.9 2.2 -22.7
v 6.9 2.7 -22.7
v 7.1 2.2 -22.7
v 7.1 2.7 -22.7
v 6.4 2.4 -22.8
v 6.4 2.6 -22.8
v 6.5 1.9 -22.8
v 6.5 2.3 -22.8
v 6.5 2.4 -22.8
v 6.5 2.6 -22.8
v 6.5 3.7 -22.8
v 6.9 2.2 -22.8
v 6.9 2.3 -22.8
v 6.9 2.4 -22.8
v 6.9 2.7 -22.8
v 7.1 2.2 -22.8
v 7.1 2.4 -22.8
v 7.1 2.5 -22.8
v 7.1 2.7 -22.8
v 7.3 2.4 -22.8
v 7.3 2.5 -22.8
v 7.3 3 -22.8
v 7.3 3.1 -22.8
v 7.4 3 -22.8
v 7.4 3.1 -22.8
v 7.5 1.9 -22.8
v 7.5 3.1 -22.8
v 7.5 3.7 -22.8
v 7.5 3.8 -22.8
v 7.7 3.1 -22.8
v 7.7 3.8 -22.8
v 6.8 0.9 -23.2
v 6.8 1.7 -23.2
v 6.9 0 -23.2
v 6.9 0.1 -23.2
v 6.9 0.2 -23.2
v 6.9 0.5 -23.2
v 6.9 0.9 -23.2
v 6.9 1.5 -23.2
v 6.9 1.7 -23.2
v 7.1 0.1 -23.2
v 7.1 0.2 -23.2
v 7.1 0.5 -23.2
v 7.1 0.9 -23.2
v 7.1 1.5 -23.2
v 7.1 1.7 -23.2
v 7.2 0 -23.2
v 7.2 0.1 -23.2
v 7.2 0.9 -23.2
v 7.2 1.7 -23.2
v 6.9 1.7 -23.3
v 6.9 1.9 -23.3
v 7.1 1.7 -23.3
v 7.1 1.9 -23.3
v 7.5 2.3 -23.4
v 7.5 2.8 -23.4
v 7.6 2.5 -23.4
v 7.6 2.8 -23.4
v 7.7 2.3 -23.4
v 7.7 2.5 -23.4
v 6.9 0 -23.6
v 6.9 0.1 -23.6
v 6.9 0.2 -23.6
v 6.9 0.5 -23.6
v 6.9 0.7 -23.6
v 7.1 0.1 -23.6
v 7.1 0.2 -23.6
v 7.1 0.5 -23.6
v 7.1 0.7 -23.6
v 7.2 0 -23.6
v 7.2 0.1 -23.6
v 6.8 1.5 -24.4
v 6.8 1.7 -24.4
v 6.9 1.5 -24.4
v 6.9 1.6 -24.4
v 6.9 1.7 -24.4
v 7.1 1.5 -24.4
v 7.1 1.7 -24.4
v 7.2 1.5 -24.4
v 7.2 1.7 -24.4
v 6.8 1.5 -22.6
v 6.8 1.7 -22.6
v 6.9 1.5 -22.6
v 6.9 1.6 -22.6
v 6.9 1.7 -22.6
v 7.1 1.5 -22.6
v 7.1 1.7 -22.6
v 7.2 1.5 -22.6
v 7.2 1.7 -22.6
v 6.9 0 -23.4
v 6.9 0.1 -23.4
v 6.9 0.2 -23.4
v 6.9 0.5 -23.4
v 6.9 0.7 -23.4
v 7.1 0.1 -23.4
v 7.1 0.2 -23.4
v 7.1 0.5 -23.4
v 7.1 0.7 -23.4
v 7.2 0 -23.4
v 7.2 0.1 -23.4
v 7.5 2.3 -23.6
v 7.5 2.8 -23.6
v 7.6 2.5 -23.6
v 7.6 2.8 -23.6
v 7.7 2.3 -23.6
v 7.7 2.5 -23.6
v 6.9 1.7 -23.7
v 6.9 1.9 -23.7
v 7.1 1.7 -23.7
v 7.1 1.9 -23.7
v 6.8 0.9 -23.8
v 6.8 1.7 -23.8
v 6.9 0 -23.8
v 6.9 0.1 -23.8
v 6.9 0.2 -23.8
v 6.9 0.5 -23.8
v 6.9 0.9 -23.8
v 6.9 1.5 -23.8
v 6.9 1.7 -23.8
v 7.1 0.1 -23.8
v 7.1 0.2 -23.8
v 7.1 0.5 -23.8
v 7.1 0.9 -23.8
v 7.1 1.5 -23.8
v 7.1 1.7 -23.8
v 7.2 0 -23.8
v 7.2 0.1 -23.8
v 7.2 0.9 -23.8
v 7.2 1.7 -23.8
v 6.4 2.4 -24.2
v 6.4 2.6 -24.2
v 6.5 1.9 -24.2
v 6.5 2.3 -24.2
v 6.5 2.4 -24.2
v 6.5 2.6 -24.2
v 6.5 3.7 -24.2
v 6.9 2.2 -24.2
v 6.9 2.3 -24.2
v 6.9 2.4 -24.2
v 6.9 2.7 -24.2
v 7.1 2.2 -24.2
v 7.1 2.4 -24.2
v 7.1 2.5 -24.2
v 7.1 2.7 -24.2
v 7.3 2.4 -24.2
v 7.3 2.5 -24.2
v 7.3 3 -24.2
v 7.3 3.1 -24.2
v 7.4 3 -24.2
v 7.4 3.1 -24.2
v 7.5 1.9 -24.2
v 7.5 3.1 -24.2
v 7.5 3.7 -24.2
v 7.5 3.8 -24.2
v 7.7 3.1 -24.2
v 7.7 3.8 -24.2
v 6.9 2.2 -24.3
v 6.9 2.7 -24.3
v 7.1 2.2 -24.3
v 7.1 2.7 -24.3
v 7.1 1.5 -24.5
v 7.1 1.7 -24.5
v 7.2 1.5 -24.5
v 7.2 1.7 -24.5
v 6.8 1.5 -24.7
v 6.8 1.7 -24.7
v 6.9 1.5 -24.7
v 6.9 1.7 -24.7
v 7 1.5 -24.7
v 7 1.7 -24.7
v 7.1 1.5 -24.7
v 7.1 1.7 -24.7
v 6.9 0 -23.2
v 7.2 0 -23.2
v 6.9 0 -23.4
v 7.2 0 -23.4
v 6.9 0 -23.6
v 7.2 0 -23.6
v 6.9 0 -23.8
v 7.2 0 -23.8
v 6.9 0.7 -23.4
v 7.1 0.7 -23.4
v 6.9 0.7 -23.6
v 7.1 0.7 -23.6
v 6.8 0.9 -23.2
v 6.9 0.9 -23.2
v 7.1 0.9 -23.2
v 7.2 0.9 -23.2
v 6.8 0.9 -23.8
v 6.9 0.9 -23.8
v 7.1 0.9 -23.8
v 7.2 0.9 -23.8
v 6.8 1.5 -22.3
v 6.9 1.5 -22.3
v 7 1.5 -22.3
v 7.1 1.5 -22.3
v 6.9 1.5 -22.5
v 7 1.5 -22.5
v 7.1 1.5 -22.5
v 7.2 1.5 -22.5
v 6.8 1.5 -22.6
v 6.9 1.5 -22.6
v 7 1.5 -22.6
v 7.1 1.5 -22.6
v 7.2 1.5 -22.6
v 7 1.5 -22.9
v 7.1 1.5 -22.9
v 6.9 1.5 -23.2
v 7.1 1.5 -23.2
v 6.9 1.5 -23.8
v 7.1 1.5 -23.8
v 7 1.5 -24.1
v 7.1 1.5 -24.1
v 6.8 1.5 -24.4
v 6.9 1.5 -24.4
v 7 1.5 -24.4
v 7.1 1.5 -24.4
v 7.2 1.5 -24.4
v 6.9 1.5 -24.5
v 7 1.5 -24.5
v 7.1 1.5 -24.5
v 7.2 1.5 -24.5
v 6.8 1.5 -24.7
v 6.9 1.5 -24.7
v 7 1.5 -24.7
v 7.1 1.5 -24.7
v 6.5 1.9 -22.8
v 7.5 1.9 -22.8
v 6.9 1.9 -23.3
v 7.1 1.9 -23.3
v 6.9 1.9 -23.7
v 7.1 1.9 -23.7
v 6.5 1.9 -24.2
v 7.5 1.9 -24.2
v 6.9 2.2 -22.7
v 7.1 2.2 -22.7
v 6.9 2.2 -22.8
v 7.1 2.2 -22.8
v 6.9 2.2 -24.2
v 7.1 2.2 -24.2
v 6.9 2.2 -24.3
v 7.1 2.2 -24.3
v 7.5 2.3 -23.4
v 7.7 2.3 -23.4
v 7.5 2.3 -23.6
v 7.7 2.3 -23.6
v 6.4 2.4 -22.8
v 6.5 2.4 -22.8
v 6.4 2.4 -24.2
v 6.5 2.4 -24.2
v 7.5 3.1 -22.8
v 7.7 3.1 -22.8
v 7.5 3.1 -24.2
v 7.7 3.1 -24.2
v 7.1 0.1 -23.2
v 7.2 0.1 -23.2
v 7.1 0.1 -23.4
v 7.2 0.1 -23.4
v 7.1 0.1 -23.6
v 7.2 0.1 -23.6
v 7.1 0.1 -23.8
v 7.2 0.1 -23.8
v 6.8 1.7 -22.3
v 6.9 1.7 -22.3
v 7 1.7 -22.3
v 7.1 1.7 -22.3
v 6.9 1.7 -22.5
v 7 1.7 -22.5
v 7.1 1.7 -22.5
v 7.2 1.7 -22.5
v 6.8 1.7 -22.6
v 6.9 1.7 -22.6
v 7.1 1.7 -22.6
v 7.2 1.7 -22.6
v 6.9 1.7 -22.9
v 7.1 1.7 -22.9
v 6.8 1.7 -23.2
v 6.9 1.7 -23.2
v 7.1 1.7 -23.2
v 7.2 1.7 -23.2
v 6.9 1.7 -23.3
v 7.1 1.7 -23.3
v 6.9 1.7 -23.7
v 7.1 1.7 -23.7
v 6.8 1.7 -23.8
v 6.9 1.7 -23.8
v 7.1 1.7 -23.8
v 7.2 1.7 -23.8
v 6.9 1.7 -24.1
v 7.1 1.7 -24.1
v 6.8 1.7 -24.4
v 6.9 1.7 -24.4
v 7.1 1.7 -24.4
v 7.2 1.7 -24.4
v 6.9 1.7 -24.5
v 7 1.7 -24.5
v 7.1 1.7 -24.5
v 7.2 1.7 -24.5
v 6.8 1.7 -24.7
v 6.9 1.7 -24.7
v 7 1.7 -24.7
v 7.1 1.7 -24.7
v 7.6 2.5 -23.4
v 7.7 2.5 -23.4
v 7.6 2.5 -23.6
v 7.7 2.5 -23.6
v 6.4 2.6 -22.8
v 6.5 2.6 -22.8
v 6.4 2.6 -24.2
v 6.5 2.6 -24.2
v 6.9 2.7 -22.7
v 7.1 2.7 -22.7
v 6.9 2.7 -22.8
v 7.1 2.7 -22.8
v 6.9 2.7 -24.2
v 7.1 2.7 -24.2
v 6.9 2.7 -24.3
v 7.1 2.7 -24.3
v 7.5 2.8 -23.4
v 7.6 2.8 -23.4
v 7.5 2.8 -23.6
v 7.6 2.8 -23.6
v 6.5 3.7 -22.8
v 7.5 3.7 -22.8
v 6.5 3.7 -24.2
v 7.5 3.7 -24.2
v 7.5 3.8 -22.8
v 7.7 3.8 -22.8
v 7.5 3.8 -24.2
v 7.7 3.8 -24.2

# faces
f 3/3/1 2/3/1 1/3/1
f 4/3/1 2/3/1 3/3/1
f 7/2/1 6/2/1 5/2/1
f 8/2/1 6/2/1 7/2/1
f 9/1/1 8/1/1 7/1/1
f 10/1/1 8/1/1 9/1/1
f 13/3/1 12/3/1 11/3/1
f 14/3/1 12/3/1 13/3/1
f 21/2/1 18/2/1 17/2/1
f 22/2/1 18/2/1 21/2/1
f 23/6/1 16/6/1 15/6/1
f 24/6/1 16/6/1 23/6/1
f 25/2/1 20/2/1 19/2/1
f 26/2/1 20/2/1 25/2/1
f 31/6/1 28/6/1 27/6/1
f 32/6/1 28/6/1 31/6/1
f 33/6/1 30/6/1 29/6/1
f 34/6/1 30/6/1 33/6/1
f 35/3/1 32/3/1 31/3/1
f 36/3/1 32/3/1 35/3/1
f 37/3/1 34/3/1 33/3/1
f 38/3/1 34/3/1 37/3/1
f 39/2/1 36/2/1 35/2/1
f 40/2/1 36/2/1 39/2/1
f 41/2/1 38/2/1 37/2/1
f 42/2/1 38/2/1 41/2/1
f 43/5/1 40/5/1 39/5/1
f 44/5/1 42/5/1 41/5/1
f 45/5/1 43/5/1 39/5/1
f 45/5/1 44/5/1 43/5/1
f 46/5/1 42/5/1 44/5/1
f 46/5/1 44/5/1 45/5/1
f 51/6/1 48/6/1 47/6/1
f 52/6/1 48/6/1 51/6/1
f 53/6/1 50/6/1 49/6/1
f 54/6/1 50/6/1 53/6/1
f 55/2/1 52/2/1 51/2/1
f 56/6/1 48/6/1 52/6/1
f 56/2/1 52/2/1 55/2/1
f 57/6/1 48/6/1 56/6/1
f 60/6/1 53/6/1 49/6/1
f 61/2/1 54/2/1 53/2/1
f 61/6/1 53/6/1 60/6/1
f 62/2/1 54/2/1 61/2/1
f 63/1/1 59/1/1 58/1/1
f 64/1/1 59/1/1 63/1/1
f 69/1/1 66/1/1 65/1/1
f 70/1/1 68/1/1 67/1/1
f 71/1/1 69/1/1 65/1/1
f 72/1/1 68/1/1 70/1/1
f 73/1/1 71/1/1 65/1/1
f 74/1/1 71/1/1 73/1/1
f 75/1/1 68/1/1 72/1/1
f 76/1/1 68/1/1 75/1/1
f 79/3/1 78/3/1 77/3/1
f 80/3/1 78/3/1 79/3/1
f 81/3/2 82/3/2 85/3/2
f 85/3/2 82/3/2 86/3/2
f 83/3/2 84/3/2 87/3/2
f 87/3/2 84/3/2 88/3/2
f 85/2/2 86/2/2 89/2/2
f 89/2/2 86/2/2 90/2/2
f 87/2/2 88/2/2 91/2/2
f 91/2/2 88/2/2 92/2/2
f 89/5/2 90/5/2 93/5/2
f 91/5/2 92/5/2 94/5/2
f 89/5/2 93/5/2 95/5/2
f 93/5/2 94/5/2 95/5/2
f 94/5/2 92/5/2 96/5/2
f 95/5/2 94/5/2 96/5/2
f 97/2/2 98/2/2 107/2/2
f 107/2/2 98/2/2 108/2/2
f 99/2/2 100/2/2 109/2/2
f 100/6/2 101/6/2 110/6/2
f 109/2/2 100/2/2 110/2/2
f 110/6/2 101/6/2 111/6/2
f 102/6/2 103/6/2 114/6/2
f 103/2/2 104/2/2 115/2/2
f 114/6/2 103/6/2 115/6/2
f 115/2/2 104/2/2 116/2/2
f 105/2/2 106/2/2 117/2/2
f 117/2/2 106/2/2 118/2/2
f 112/1/2 113/1/2 119/1/2
f 119/1/2 113/1/2 120/1/2
f 121/1/2 122/1/2 125/1/2
f 123/1/2 124/1/2 126/1/2
f 121/1/2 125/1/2 127/1/2
f 126/1/2 124/1/2 128/1/2
f 121/1/2 127/1/2 129/1/2
f 129/1/2 127/1/2 130/1/2
f 128/1/2 124/1/2 131/1/2
f 131/1/2 124/1/2 132/1/2
f 133/6/2 134/6/2 137/6/2
f 137/6/2 134/6/2 138/6/2
f 135/6/2 136/6/2 139/6/2
f 139/6/2 136/6/2 140/6/2
f 143/2/2 144/2/2 147/2/2
f 147/2/2 144/2/2 148/2/2
f 141/6/2 142/6/2 149/6/2
f 149/6/2 142/6/2 150/6/2
f 145/2/2 146/2/2 151/2/2
f 151/2/2 146/2/2 152/2/2
f 153/2/2 154/2/2 155/2/2
f 155/2/2 154/2/2 156/2/2
f 153/2/2 155/2/2 157/2/2
f 155/1/2 156/1/2 158/1/2
f 157/2/2 155/2/2 158/2/2
f 156/2/2 154/2/2 159/2/2
f 158/1/2 156/1/2 159/1/2
f 159/2/2 154/2/2 160/2/2
f 157/1/2 158/1/2 161/1/2
f 153/2/2 157/2/2 161/2/2
f 158/2/2 159/2/2 162/2/2
f 161/1/2 158/1/2 162/1/2
f 162/2/2 159/2/2 163/2/2
f 163/2/2 159/2/2 164/2/2
f 159/1/2 160/1/2 165/1/2
f 164/2/2 159/2/2 165/2/2
f 160/2/2 154/2/2 166/2/2
f 165/1/2 160/1/2 166/1/2
f 153/2/2 161/2/2 167/2/2
f 161/2/2 162/2/2 167/2/2
f 162/2/2 163/2/2 167/2/2
f 167/2/2 163/2/2 168/2/2
f 164/2/2 165/2/2 169/2/2
f 166/2/2 154/2/2 169/2/2
f 165/2/2 166/2/2 169/2/2
f 169/2/2 154/2/2 170/2/2
f 167/4/2 168/4/2 171/4/2
f 153/2/2 167/2/2 171/2/2
f 168/2/2 163/2/2 172/2/2
f 171/4/2 168/4/2 172/4/2
f 172/2/2 163/2/2 173/2/2
f 164/2/2 169/2/2 174/2/2
f 169/4/2 170/4/2 175/4/2
f 174/2/2 169/2/2 175/2/2
f 170/2/2 154/2/2 176/2/2
f 175/4/2 170/4/2 176/4/2
f 153/2/2 171/2/2 177/2/2
f 174/2/2 175/2/2 177/2/2
f 175/2/2 176/2/2 177/2/2
f 173/2/2 174/2/2 177/2/2
f 171/2/2 172/2/2 177/2/2
f 172/2/2 173/2/2 177/2/2
f 176/2/2 154/2/2 178/2/2
f 177/2/2 176/2/2 178/2/2
f 179/1/2 180/1/2 181/1/2
f 181/1/2 180/1/2 182/1/2
f 183/1/2 184/1/2 185/1/2
f 185/1/2 184/1/2 186/1/2
f 187/3/2 188/3/2 189/3/2
f 189/3/2 188/3/2 190/3/2
f 193/2/3 192/2/3 191/2/3
f 194/2/3 192/2/3 193/2/3
f 195/1/3 194/1/3 193/1/3
f 196/1/3 194/1/3 195/1/3
f 197/2/3 196/2/3 195/2/3
f 198/2/3 196/2/3 197/2/3
f 201/2/3 200/2/3 199/2/3
f 202/2/3 200/2/3 201/2/3
f 205/1/3 204/1/3 203/1/3
f 206/1/3 204/1/3 205/1/3
f 211/3/3 208/3/3 207/3/3
f 212/3/3 208/3/3 211/3/3
f 214/2/3 210/2/3 209/2/3
f 215/1/3 211/1/3 210/1/3
f 215/2/3 210/2/3 214/2/3
f 216/3/3 213/3/3 212/3/3
f 216/1/3 211/1/3 215/1/3
f 216/3/3 212/3/3 211/3/3
f 217/3/3 213/3/3 216/3/3
f 218/2/3 214/2/3 209/2/3
f 221/3/3 213/3/3 217/3/3
f 222/1/3 220/1/3 219/1/3
f 222/2/3 219/2/3 218/2/3
f 223/3/3 221/3/3 220/3/3
f 223/1/3 220/1/3 222/1/3
f 224/3/3 213/3/3 221/3/3
f 224/3/3 221/3/3 223/3/3
f 225/3/3 213/3/3 224/3/3
f 226/2/3 223/2/3 222/2/3
f 226/2/3 224/2/3 223/2/3
f 226/1/3 225/1/3 224/1/3
f 227/3/3 213/3/3 225/3/3
f 227/1/3 225/1/3 226/1/3
f 228/2/3 222/2/3 218/2/3
f 228/2/3 218/2/3 209/2/3
f 228/2/3 227/2/3 226/2/3
f 228/2/3 226/2/3 222/2/3
f 229/3/3 213/3/3 227/3/3
f 229/2/3 227/2/3 228/2/3
f 230/3/3 213/3/3 229/3/3
f 232/3/3 231/3/3 230/3/3
f 232/3/3 230/3/3 229/3/3
f 233/3/3 231/3/3 232/3/3
f 240/6/3 235/6/3 234/6/3
f 241/6/3 235/6/3 240/6/3
f 242/6/3 235/6/3 241/6/3
f 243/6/3 237/6/3 236/6/3
f 243/3/3 238/3/3 237/3/3
f 244/2/3 239/2/3 238/2/3
f 244/3/3 238/3/3 243/3/3
f 245/5/3 240/5/3 239/5/3
f 245/2/3 239/2/3 244/2/3
f 246/6/3 241/6/3 240/6/3
f 246/5/3 240/5/3 245/5/3
f 247/6/3 241/6/3 246/6/3
f 249/6/3 243/6/3 236/6/3
f 250/6/3 243/6/3 249/6/3
f 251/6/3 248/6/3 247/6/3
f 251/6/3 247/6/3 246/6/3
f 252/6/3 248/6/3 251/6/3
f 255/1/3 254/1/3 253/1/3
f 256/1/3 254/1/3 255/1/3
f 259/1/3 258/1/3 257/1/3
f 260/1/3 258/1/3 259/1/3
f 261/1/3 259/1/3 257/1/3
f 262/1/3 259/1/3 261/1/3
f 268/6/3 264/6/3 263/6/3
f 268/3/3 265/3/3 264/3/3
f 269/2/3 266/2/3 265/2/3
f 269/3/3 265/3/3 268/3/3
f 270/5/3 267/5/3 266/5/3
f 270/2/3 266/2/3 269/2/3
f 271/5/3 267/5/3 270/5/3
f 272/6/3 268/6/3 263/6/3
f 273/6/3 268/6/3 272/6/3
f 276/2/3 275/2/3 274/2/3
f 277/2/3 275/2/3 276/2/3
f 278/2/3 275/2/3 277/2/3
f 281/2/3 280/2/3 279/2/3
f 282/2/3 280/2/3 281/2/3
f 283/2/4 284/2/4 285/2/4
f 285/2/4 284/2/4 286/2/4
f 286/2/4 284/2/4 287/2/4
f 288/2/4 289/2/4 290/2/4
f 290/2/4 289/2/4 291/2/4
f 292/6/4 293/6/4 297/6/4
f 293/3/4 294/3/4 297/3/4
f 294/2/4 295/2/4 298/2/4
f 297/3/4 294/3/4 298/3/4
f 295/5/4 296/5/4 299/5/4
f 298/2/4 295/2/4 299/2/4
f 299/5/4 296/5/4 300/5/4
f 292/6/4 297/6/4 301/6/4
f 301/6/4 297/6/4 302/6/4
f 303/1/4 304/1/4 305/1/4
f 305/1/4 304/1/4 306/1/4
f 303/1/4 305/1/4 307/1/4
f 307/1/4 305/1/4 308/1/4
f 309/1/4 310/1/4 311/1/4
f 311/1/4 310/1/4 312/1/4
f 313/6/4 314/6/4 319/6/4
f 319/6/4 314/6/4 320/6/4
f 320/6/4 314/6/4 321/6/4
f 315/6/4 316/6/4 322/6/4
f 316/3/4 317/3/4 322/3/4
f 317/2/4 318/2/4 323/2/4
f 322/3/4 317/3/4 323/3/4
f 318/5/4 319/5/4 324/5/4
f 323/2/4 318/2/4 324/2/4
f 319/6/4 320/6/4 325/6/4
f 324/5/4 319/5/4 325/5/4
f 325/6/4 320/6/4 326/6/4
f 315/6/4 322/6/4 328/6/4
f 328/6/4 322/6/4 329/6/4
f 326/6/4 327/6/4 330/6/4
f 325/6/4 326/6/4 330/6/4
f 330/6/4 327/6/4 331/6/4
f 332/3/4 333/3/4 336/3/4
f 336/3/4 333/3/4 337/3/4
f 334/2/4 335/2/4 339/2/4
f 335/1/4 336/1/4 340/1/4
f 339/2/4 335/2/4 340/2/4
f 337/3/4 338/3/4 341/3/4
f 340/1/4 336/1/4 341/1/4
f 336/3/4 337/3/4 341/3/4
f 341/3/4 338/3/4 342/3/4
f 334/2/4 339/2/4 343/2/4
f 342/3/4 338/3/4 346/3/4
f 344/1/4 345/1/4 347/1/4
f 343/2/4 344/2/4 347/2/4
f 345/3/4 346/3/4 348/3/4
f 347/1/4 345/1/4 348/1/4
f 346/3/4 338/3/4 349/3/4
f 348/3/4 346/3/4 349/3/4
f 349/3/4 338/3/4 350/3/4
f 347/2/4 348/2/4 351/2/4
f 348/2/4 349/2/4 351/2/4
f 349/1/4 350/1/4 351/1/4
f 350/3/4 338/3/4 352/3/4
f 351/1/4 350/1/4 352/1/4
f 343/2/4 347/2/4 353/2/4
f 334/2/4 343/2/4 353/2/4
f 351/2/4 352/2/4 353/2/4
f 347/2/4 351/2/4 353/2/4
f 352/3/4 338/3/4 354/3/4
f 353/2/4 352/2/4 354/2/4
f 354/3/4 338/3/4 355/3/4
f 355/3/4 356/3/4 357/3/4
f 354/3/4 355/3/4 357/3/4
f 357/3/4 356/3/4 358/3/4
f 359/1/4 360/1/4 361/1/4
f 361/1/4 360/1/4 362/1/4
f 363/2/4 364/2/4 365/2/4
f 365/2/4 364/2/4 366/2/4
f 367/2/4 368/2/4 369/2/4
f 369/2/4 368/2/4 370/2/4
f 369/1/4 370/1/4 371/1/4
f 371/1/4 370/1/4 372/1/4
f 371/2/4 372/2/4 373/2/4
f 373/2/4 372/2/4 374/2/4
f 377/6/5 376/6/5 375/6/5
f 378/6/5 376/6/5 377/6/5
f 381/6/5 380/6/5 379/6/5
f 382/6/5 380/6/5 381/6/5
f 385/5/5 384/5/5 383/5/5
f 386/5/5 384/5/5 385/5/5
f 391/6/5 388/6/5 387/6/5
f 392/6/5 388/6/5 391/6/5
f 393/6/5 390/6/5 389/6/5
f 394/6/5 390/6/5 393/6/5
f 399/2/5 396/2/5 395/2/5
f 399/1/5 397/1/5 396/1/5
f 400/2/5 398/2/5 397/2/5
f 400/1/5 397/1/5 399/1/5
f 401/2/5 398/2/5 400/2/5
f 403/2/5 399/2/5 395/2/5
f 403/2/5 402/2/5 401/2/5
f 403/2/5 401/2/5 400/2/5
f 403/2/5 400/2/5 399/2/5
f 404/2/5 402/2/5 403/2/5
f 405/2/5 402/2/5 404/2/5
f 406/2/5 402/2/5 405/2/5
f 407/2/5 402/2/5 406/2/5
f 408/6/5 405/6/5 404/6/5
f 408/2/5 406/2/5 405/2/5
f 409/2/5 406/2/5 408/2/5
f 410/6/5 408/6/5 404/6/5
f 410/6/5 409/6/5 408/6/5
f 411/6/5 409/6/5 410/6/5
f 414/6/5 413/6/5 412/6/5
f 415/6/5 413/6/5 414/6/5
f 417/6/5 414/6/5 412/6/5
f 418/2/5 415/2/5 414/2/5
f 418/6/5 414/6/5 417/6/5
f 419/2/5 415/2/5 418/2/5
f 421/2/5 419/2/5 418/2/5
f 421/2/5 420/2/5 419/2/5
f 421/2/5 417/2/5 416/2/5
f 421/2/5 418/2/5 417/2/5
f 422/2/5 420/2/5 421/2/5
f 423/2/5 420/2/5 422/2/5
f 424/2/5 420/2/5 423/2/5
f 425/2/5 421/2/5 416/2/5
f 426/1/5 422/1/5 421/1/5
f 426/2/5 421/2/5 425/2/5
f 427/2/5 423/2/5 422/2/5
f 427/1/5 422/1/5 426/1/5
f 428/2/5 423/2/5 427/2/5
f 431/2/5 430/2/5 429/2/5
f 432/2/5 430/2/5 431/2/5
f 433/2/5 431/2/5 429/2/5
f 434/2/5 430/2/5 432/2/5
f 435/2/5 433/2/5 429/2/5
f 435/2/5 434/2/5 433/2/5
f 436/2/5 430/2/5 434/2/5
f 436/2/5 434/2/5 435/2/5
f 439/1/5 438/1/5 437/1/5
f 440/1/5 438/1/5 439/1/5
f 443/1/5 442/1/5 441/1/5
f 444/1/5 442/1/5 443/1/5
f 447/1/5 446/1/5 445/1/5
f 448/1/5 446/1/5 447/1/5
f 451/3/5 450/3/5 449/3/5
f 452/3/5 450/3/5 451/3/5
f 455/3/5 454/3/5 453/3/5
f 456/3/5 454/3/5 455/3/5
f 457/6/6 458/6/6 459/6/6
f 459/6/6 458/6/6 460/6/6
f 461/6/6 462/6/6 463/6/6
f 463/6/6 462/6/6 464/6/6
f 465/2/6 466/2/6 469/2/6
f 466/1/6 467/1/6 469/1/6
f 467/2/6 468/2/6 470/2/6
f 469/1/6 467/1/6 470/1/6
f 470/2/6 468/2/6 471/2/6
f 465/2/6 469/2/6 473/2/6
f 471/2/6 472/2/6 473/2/6
f 470/2/6 471/2/6 473/2/6
f 469/2/6 470/2/6 473/2/6
f 473/2/6 472/2/6 474/2/6
f 474/2/6 472/2/6 475/2/6
f 475/2/6 472/2/6 476/2/6
f 474/2/6 475/2/6 477/2/6
f 477/2/6 475/2/6 478/2/6
f 477/6/6 478/6/6 480/6/6
f 480/6/6 478/6/6 481/6/6
f 480/6/6 481/6/6 483/6/6
f 481/6/6 482/6/6 483/6/6
f 479/6/6 480/6/6 483/6/6
f 483/6/6 482/6/6 484/6/6
f 479/6/6 483/6/6 485/6/6
f 484/6/6 482/6/6 486/6/6
f 479/6/6 485/6/6 487/6/6
f 485/6/6 486/6/6 487/6/6
f 487/6/6 486/6/6 488/6/6
f 486/6/6 482/6/6 489/6/6
f 488/6/6 486/6/6 489/6/6
f 489/6/6 482/6/6 490/6/6
f 488/6/6 489/6/6 491/6/6
f 491/6/6 489/6/6 492/6/6
f 491/2/6 492/2/6 494/2/6
f 494/2/6 492/2/6 495/2/6
f 494/2/6 495/2/6 497/2/6
f 495/2/6 496/2/6 497/2/6
f 493/2/6 494/2/6 497/2/6
f 497/2/6 496/2/6 498/2/6
f 498/2/6 496/2/6 499/2/6
f 499/2/6 496/2/6 500/2/6
f 493/2/6 497/2/6 501/2/6
f 497/1/6 498/1/6 502/1/6
f 501/2/6 497/2/6 502/2/6
f 498/2/6 499/2/6 503/2/6
f 502/1/6 498/1/6 503/1/6
f 503/2/6 499/2/6 504/2/6
f 505/1/6 506/1/6 507/1/6
f 507/1/6 506/1/6 508/1/6
f 509/3/6 510/3/6 511/3/6
f 511/3/6 510/3/6 512/3/6
f 513/1/6 514/1/6 515/1/6
f 515/1/6 514/1/6 516/1/6
f 517/1/6 518/1/6 519/1/6
f 519/1/6 518/1/6 520/1/6
f 521/1/6 522/1/6 523/1/6
f 523/1/6 522/1/6 524/1/6
f 525/3/6 526/3/6 527/3/6
f 527/3/6 526/3/6 528/3/6
f 529/3/6 530/3/6 531/3/6
f 531/3/6 530/3/6 532/3/6
