# MagicaVoxel @ Ephtracy

# group
o Face Base

# material
mtllib Voxel Universe-1-Face Base.mtl
usemtl palette

# normals
vn -1 0 0
vn 1 0 0
vn 0 0 1
vn 0 0 -1
vn 0 -1 0
vn 0 1 0

# texcoords
vt 0.0332031 0.5
vt 0.0566406 0.5
vt 0.0839844 0.5
vt 0.994141 0.5

# verts
v -10.5 0.4 24.3
v -10.5 0.4 24.1
v -10.5 0.6 24.3
v -10.5 0.6 24.1
v -10.4 0 24.9
v -10.4 0 23.5
v -10.4 0.2 24.4
v -10.4 0.2 24
v -10.4 0.3 24.5
v -10.4 0.3 24.4
v -10.4 0.3 24
v -10.4 0.3 23.9
v -10.4 0.4 24.5
v -10.4 0.4 24.4
v -10.4 0.4 24.3
v -10.4 0.4 24.1
v -10.4 0.4 24
v -10.4 0.4 23.9
v -10.4 0.5 24.8
v -10.4 0.5 24.5
v -10.4 0.5 23.9
v -10.4 0.5 23.6
v -10.4 0.6 24.8
v -10.4 0.6 24.6
v -10.4 0.6 24.5
v -10.4 0.6 24.3
v -10.4 0.6 24.1
v -10.4 0.6 23.9
v -10.4 0.6 23.8
v -10.4 0.6 23.6
v -10.4 0.8 24.6
v -10.4 0.8 24.5
v -10.4 0.8 23.9
v -10.4 0.8 23.8
v -10.4 0.9 24.8
v -10.4 0.9 24.4
v -10.4 0.9 24
v -10.4 0.9 23.6
v -10.4 1 24.8
v -10.4 1 24.4
v -10.4 1 24
v -10.4 1 23.6
v -10.4 1.6 24.9
v -10.4 1.6 24.8
v -10.4 1.6 23.6
v -10.4 1.6 23.5
v -10.4 1.7 24.8
v -10.4 1.7 23.6
v -10 0.4 25
v -10 0.4 24.9
v -10 0.4 23.5
v -10 0.4 23.4
v -10 0.8 25
v -10 0.8 24.9
v -10 0.8 23.5
v -10 0.8 23.4
v -9.8 0.4 25
v -9.8 0.4 24.9
v -9.8 0.4 23.5
v -9.8 0.4 23.4
v -9.8 0.8 25
v -9.8 0.8 24.9
v -9.8 0.8 23.5
v -9.8 0.8 23.4
v -9.4 0 24.9
v -9.4 0 23.5
v -9.4 1.6 24.9
v -9.4 1.6 24.8
v -9.4 1.6 23.6
v -9.4 1.6 23.5
v -9.4 1.7 24.8
v -9.4 1.7 23.6
v -10 0.4 25
v -10 0.8 25
v -9.8 0.4 25
v -9.8 0.8 25
v -10.4 0 24.9
v -10.4 1.6 24.9
v -10 0.4 24.9
v -10 0.8 24.9
v -9.8 0.4 24.9
v -9.8 0.8 24.9
v -9.4 0 24.9
v -9.4 1.6 24.9
v -10.4 1.6 24.8
v -10.4 1.7 24.8
v -9.4 1.6 24.8
v -9.4 1.7 24.8
v -10.5 0.4 24.3
v -10.5 0.6 24.3
v -10.4 0.4 24.3
v -10.4 0.6 24.3
v -10.5 0.4 24.1
v -10.5 0.6 24.1
v -10.4 0.4 24.1
v -10.4 0.6 24.1
v -10.4 1.6 23.6
v -10.4 1.7 23.6
v -9.4 1.6 23.6
v -9.4 1.7 23.6
v -10.4 0 23.5
v -10.4 1.6 23.5
v -10 0.4 23.5
v -10 0.8 23.5
v -9.8 0.4 23.5
v -9.8 0.8 23.5
v -9.4 0 23.5
v -9.4 1.6 23.5
v -10 0.4 23.4
v -10 0.8 23.4
v -9.8 0.4 23.4
v -9.8 0.8 23.4
v -10.4 0 24.9
v -9.4 0 24.9
v -10.4 0 23.5
v -9.4 0 23.5
v -10 0.4 25
v -9.8 0.4 25
v -10 0.4 24.9
v -9.8 0.4 24.9
v -10.5 0.4 24.3
v -10.4 0.4 24.3
v -10.5 0.4 24.1
v -10.4 0.4 24.1
v -10 0.4 23.5
v -9.8 0.4 23.5
v -10 0.4 23.4
v -9.8 0.4 23.4
v -10.5 0.6 24.3
v -10.4 0.6 24.3
v -10.5 0.6 24.1
v -10.4 0.6 24.1
v -10 0.8 25
v -9.8 0.8 25
v -10 0.8 24.9
v -9.8 0.8 24.9
v -10 0.8 23.5
v -9.8 0.8 23.5
v -10 0.8 23.4
v -9.8 0.8 23.4
v -10.4 1.6 24.9
v -9.4 1.6 24.9
v -10.4 1.6 24.8
v -9.4 1.6 24.8
v -10.4 1.6 23.6
v -9.4 1.6 23.6
v -10.4 1.6 23.5
v -9.4 1.6 23.5
v -10.4 1.7 24.8
v -9.4 1.7 24.8
v -10.4 1.7 23.6
v -9.4 1.7 23.6

# faces
f 3/3/1 2/3/1 1/3/1
f 4/3/1 2/3/1 3/3/1
f 7/2/1 6/2/1 5/2/1
f 8/2/1 6/2/1 7/2/1
f 9/2/1 7/2/1 5/2/1
f 10/3/1 8/3/1 7/3/1
f 10/2/1 7/2/1 9/2/1
f 11/2/1 6/2/1 8/2/1
f 11/3/1 8/3/1 10/3/1
f 12/2/1 6/2/1 11/2/1
f 13/3/1 10/3/1 9/3/1
f 13/2/1 9/2/1 5/2/1
f 14/2/1 11/2/1 10/2/1
f 14/3/1 10/3/1 13/3/1
f 15/2/1 11/2/1 14/2/1
f 16/2/1 11/2/1 15/2/1
f 17/3/1 12/3/1 11/3/1
f 17/2/1 11/2/1 16/2/1
f 18/2/1 6/2/1 12/2/1
f 18/3/1 12/3/1 17/3/1
f 19/2/1 13/2/1 5/2/1
f 19/2/1 14/2/1 13/2/1
f 19/2/1 15/2/1 14/2/1
f 20/2/1 15/2/1 19/2/1
f 21/2/1 17/2/1 16/2/1
f 21/2/1 6/2/1 18/2/1
f 21/2/1 18/2/1 17/2/1
f 22/2/1 6/2/1 21/2/1
f 23/1/1 20/1/1 19/1/1
f 23/2/1 19/2/1 5/2/1
f 24/1/1 20/1/1 23/1/1
f 25/2/1 15/2/1 20/2/1
f 25/1/1 20/1/1 24/1/1
f 26/2/1 15/2/1 25/2/1
f 27/2/1 21/2/1 16/2/1
f 28/1/1 22/1/1 21/1/1
f 28/2/1 21/2/1 27/2/1
f 29/1/1 22/1/1 28/1/1
f 30/2/1 6/2/1 22/2/1
f 30/1/1 22/1/1 29/1/1
f 31/2/1 24/2/1 23/2/1
f 31/4/1 25/4/1 24/4/1
f 32/2/1 27/2/1 26/2/1
f 32/4/1 25/4/1 31/4/1
f 32/2/1 26/2/1 25/2/1
f 32/2/1 28/2/1 27/2/1
f 33/4/1 29/4/1 28/4/1
f 33/2/1 28/2/1 32/2/1
f 34/2/1 30/2/1 29/2/1
f 34/4/1 29/4/1 33/4/1
f 35/2/1 32/2/1 31/2/1
f 35/2/1 31/2/1 23/2/1
f 35/2/1 34/2/1 33/2/1
f 35/2/1 33/2/1 32/2/1
f 35/2/1 23/2/1 5/2/1
f 36/2/1 34/2/1 35/2/1
f 37/2/1 34/2/1 36/2/1
f 38/2/1 6/2/1 30/2/1
f 38/2/1 34/2/1 37/2/1
f 38/2/1 30/2/1 34/2/1
f 39/4/1 36/4/1 35/4/1
f 39/2/1 35/2/1 5/2/1
f 40/2/1 37/2/1 36/2/1
f 40/4/1 36/4/1 39/4/1
f 41/4/1 38/4/1 37/4/1
f 41/2/1 37/2/1 40/2/1
f 42/2/1 6/2/1 38/2/1
f 42/4/1 38/4/1 41/4/1
f 43/2/1 39/2/1 5/2/1
f 43/2/1 41/2/1 40/2/1
f 43/2/1 42/2/1 41/2/1
f 43/2/1 40/2/1 39/2/1
f 44/2/1 42/2/1 43/2/1
f 45/2/1 6/2/1 42/2/1
f 45/2/1 42/2/1 44/2/1
f 46/2/1 6/2/1 45/2/1
f 47/2/1 45/2/1 44/2/1
f 48/2/1 45/2/1 47/2/1
f 53/3/1 50/3/1 49/3/1
f 54/3/1 50/3/1 53/3/1
f 55/3/1 52/3/1 51/3/1
f 56/3/1 52/3/1 55/3/1
f 57/3/2 58/3/2 61/3/2
f 61/3/2 58/3/2 62/3/2
f 59/3/2 60/3/2 63/3/2
f 63/3/2 60/3/2 64/3/2
f 65/2/2 66/2/2 67/2/2
f 67/2/2 66/2/2 68/2/2
f 68/2/2 66/2/2 69/2/2
f 69/2/2 66/2/2 70/2/2
f 68/2/2 69/2/2 71/2/2
f 71/2/2 69/2/2 72/2/2
f 75/3/3 74/3/3 73/3/3
f 76/3/3 74/3/3 75/3/3
f 79/2/3 78/2/3 77/2/3
f 80/2/3 78/2/3 79/2/3
f 81/2/3 79/2/3 77/2/3
f 82/2/3 78/2/3 80/2/3
f 83/2/3 81/2/3 77/2/3
f 83/2/3 82/2/3 81/2/3
f 84/2/3 78/2/3 82/2/3
f 84/2/3 82/2/3 83/2/3
f 87/2/3 86/2/3 85/2/3
f 88/2/3 86/2/3 87/2/3
f 91/3/3 90/3/3 89/3/3
f 92/3/3 90/3/3 91/3/3
f 93/3/4 94/3/4 95/3/4
f 95/3/4 94/3/4 96/3/4
f 97/2/4 98/2/4 99/2/4
f 99/2/4 98/2/4 100/2/4
f 101/2/4 102/2/4 103/2/4
f 103/2/4 102/2/4 104/2/4
f 101/2/4 103/2/4 105/2/4
f 104/2/4 102/2/4 106/2/4
f 101/2/4 105/2/4 107/2/4
f 105/2/4 106/2/4 107/2/4
f 106/2/4 102/2/4 108/2/4
f 107/2/4 106/2/4 108/2/4
f 109/3/4 110/3/4 111/3/4
f 111/3/4 110/3/4 112/3/4
f 115/2/5 114/2/5 113/2/5
f 116/2/5 114/2/5 115/2/5
f 119/3/5 118/3/5 117/3/5
f 120/3/5 118/3/5 119/3/5
f 123/3/5 122/3/5 121/3/5
f 124/3/5 122/3/5 123/3/5
f 127/3/5 126/3/5 125/3/5
f 128/3/5 126/3/5 127/3/5
f 129/3/6 130/3/6 131/3/6
f 131/3/6 130/3/6 132/3/6
f 133/3/6 134/3/6 135/3/6
f 135/3/6 134/3/6 136/3/6
f 137/3/6 138/3/6 139/3/6
f 139/3/6 138/3/6 140/3/6
f 141/2/6 142/2/6 143/2/6
f 143/2/6 142/2/6 144/2/6
f 145/2/6 146/2/6 147/2/6
f 147/2/6 146/2/6 148/2/6
f 149/2/6 150/2/6 151/2/6
f 151/2/6 150/2/6 152/2/6
