# MagicaVoxel @ Ephtracy

# group
o 

# material
mtllib Voxel Universe-57.mtl
usemtl palette

# normals
vn -1 0 0
vn 1 0 0
vn 0 0 1
vn 0 0 -1
vn 0 -1 0
vn 0 1 0

# texcoords
vt 0.0332031 0.5
vt 0.0566406 0.5
vt 0.537109 0.5
vt 0.779297 0.5

# verts
v 10.6 2 -22.8
v 10.6 2 -25
v 10.6 2.4 -22.8
v 10.6 2.4 -25
v 10.8 2.4 -23
v 10.8 2.4 -24.8
v 10.8 3.7 -23
v 10.8 3.7 -24.8
v 11 1.9 -23.2
v 11 1.9 -24.6
v 11 2 -23.2
v 11 2 -24.6
v 11.2 0.2 -23.5
v 11.2 0.2 -24.3
v 11.2 0.7 -23.5
v 11.2 0.7 -24.3
v 11.3 0.7 -23.6
v 11.3 0.7 -24.2
v 11.3 1.5 -22.7
v 11.3 1.5 -23
v 11.3 1.5 -24.8
v 11.3 1.5 -25.1
v 11.3 1.7 -22.7
v 11.3 1.7 -23
v 11.3 1.7 -23.6
v 11.3 1.7 -24.2
v 11.3 1.7 -24.8
v 11.3 1.7 -25.1
v 11.4 0 -23.6
v 11.4 0 -23.8
v 11.4 0 -24
v 11.4 0 -24.2
v 11.4 0.2 -23.6
v 11.4 0.2 -23.8
v 11.4 0.2 -24
v 11.4 0.2 -24.2
v 11.4 1.5 -23
v 11.4 1.5 -23.6
v 11.4 1.5 -24.2
v 11.4 1.5 -24.8
v 11.4 1.7 -23
v 11.4 1.7 -23.6
v 11.4 1.7 -23.7
v 11.4 1.7 -24.1
v 11.4 1.7 -24.2
v 11.4 1.7 -24.8
v 11.4 1.9 -23.7
v 11.4 1.9 -24.1
v 11.6 2 -22.8
v 11.6 2 -23.2
v 11.6 2 -24.6
v 11.6 2 -25
v 11.6 2.2 -23.1
v 11.6 2.2 -23.2
v 11.6 2.2 -24.6
v 11.6 2.2 -24.7
v 11.6 2.4 -22.8
v 11.6 2.4 -23
v 11.6 2.4 -24.8
v 11.6 2.4 -25
v 11.6 2.7 -23
v 11.6 2.7 -23.1
v 11.6 2.7 -24.7
v 11.6 2.7 -24.8
v 11.4 2 -22.8
v 11.4 2 -23.2
v 11.4 2 -24.6
v 11.4 2 -25
v 11.4 2.2 -23.1
v 11.4 2.2 -23.2
v 11.4 2.2 -24.6
v 11.4 2.2 -24.7
v 11.4 2.4 -22.8
v 11.4 2.4 -23
v 11.4 2.4 -24.8
v 11.4 2.4 -25
v 11.4 2.7 -23
v 11.4 2.7 -23.1
v 11.4 2.7 -24.7
v 11.4 2.7 -24.8
v 11.6 0.1 -23.6
v 11.6 0.1 -23.8
v 11.6 0.1 -24
v 11.6 0.1 -24.2
v 11.6 0.2 -23.6
v 11.6 0.2 -23.8
v 11.6 0.2 -24
v 11.6 0.2 -24.2
v 11.6 1.5 -22.7
v 11.6 1.5 -22.9
v 11.6 1.5 -23
v 11.6 1.5 -23.6
v 11.6 1.5 -24.2
v 11.6 1.5 -24.8
v 11.6 1.5 -24.9
v 11.6 1.5 -25.1
v 11.6 1.7 -22.7
v 11.6 1.7 -22.9
v 11.6 1.7 -23
v 11.6 1.7 -23.6
v 11.6 1.7 -23.7
v 11.6 1.7 -24.1
v 11.6 1.7 -24.2
v 11.6 1.7 -24.8
v 11.6 1.7 -24.9
v 11.6 1.7 -25.1
v 11.6 1.9 -23.7
v 11.6 1.9 -24.1
v 11.7 0 -23.6
v 11.7 0 -23.8
v 11.7 0 -24
v 11.7 0 -24.2
v 11.7 0.1 -23.6
v 11.7 0.1 -23.8
v 11.7 0.1 -24
v 11.7 0.1 -24.2
v 11.7 0.7 -23.6
v 11.7 0.7 -24.2
v 11.7 1.5 -22.9
v 11.7 1.5 -23
v 11.7 1.5 -24.8
v 11.7 1.5 -24.9
v 11.7 1.7 -22.9
v 11.7 1.7 -23
v 11.7 1.7 -23.6
v 11.7 1.7 -24.2
v 11.7 1.7 -24.8
v 11.7 1.7 -24.9
v 11.8 0.2 -23.5
v 11.8 0.2 -24.3
v 11.8 0.7 -23.5
v 11.8 0.7 -24.3
v 11.9 2.4 -23
v 11.9 2.4 -23.2
v 11.9 2.4 -24.6
v 11.9 2.4 -24.8
v 11.9 3.1 -23
v 11.9 3.1 -23.2
v 11.9 3.1 -24.6
v 11.9 3.1 -24.8
v 12 1.9 -23.2
v 12 1.9 -24.6
v 12 2 -23.2
v 12 2 -23.8
v 12 2 -24
v 12 2 -24.6
v 12 2.1 -23.7
v 12 2.1 -23.8
v 12 2.1 -24
v 12 2.1 -24.1
v 12 2.2 -23.7
v 12 2.2 -24.1
v 12 2.3 -23.3
v 12 2.3 -23.5
v 12 2.3 -23.8
v 12 2.3 -24
v 12 2.3 -24.3
v 12 2.3 -24.5
v 12 2.4 -23.2
v 12 2.4 -24.6
v 12 2.5 -23.3
v 12 2.5 -23.4
v 12 2.5 -23.5
v 12 2.5 -23.6
v 12 2.5 -23.8
v 12 2.5 -24
v 12 2.5 -24.2
v 12 2.5 -24.3
v 12 2.5 -24.4
v 12 2.5 -24.5
v 12 2.6 -23.4
v 12 2.6 -23.5
v 12 2.6 -24.3
v 12 2.6 -24.4
v 12 2.7 -23.5
v 12 2.7 -23.6
v 12 2.7 -24.2
v 12 2.7 -24.3
v 12 2.8 -23.4
v 12 2.8 -23.6
v 12 2.8 -24.2
v 12 2.8 -24.4
v 12 2.9 -23.4
v 12 2.9 -23.6
v 12 2.9 -24.2
v 12 2.9 -24.4
v 12 3.1 -23.2
v 12 3.1 -24.6
v 12.1 2 -22.8
v 12.1 2 -23.2
v 12.1 2 -24.6
v 12.1 2 -25
v 12.1 2.3 -23.8
v 12.1 2.3 -24
v 12.1 2.4 -22.8
v 12.1 2.4 -23.2
v 12.1 2.4 -24.6
v 12.1 2.4 -25
v 12.1 2.5 -23.8
v 12.1 2.5 -24
v 12.1 3.1 -23
v 12.1 3.1 -24.8
v 12.1 3.7 -23
v 12.1 3.7 -24.8
v 11.3 1.5 -22.7
v 11.3 1.7 -22.7
v 11.4 1.5 -22.7
v 11.4 1.7 -22.7
v 11.5 1.5 -22.7
v 11.5 1.7 -22.7
v 11.6 1.5 -22.7
v 11.6 1.7 -22.7
v 10.6 2 -22.8
v 10.6 2.4 -22.8
v 11.4 2 -22.8
v 11.4 2.4 -22.8
v 11.6 2 -22.8
v 11.6 2.4 -22.8
v 12.1 2 -22.8
v 12.1 2.4 -22.8
v 11.6 1.5 -22.9
v 11.6 1.7 -22.9
v 11.7 1.5 -22.9
v 11.7 1.7 -22.9
v 10.8 2.4 -23
v 10.8 3.7 -23
v 11.4 2.4 -23
v 11.4 2.7 -23
v 11.6 2.4 -23
v 11.6 2.7 -23
v 11.9 2.4 -23
v 11.9 3.1 -23
v 12.1 3.1 -23
v 12.1 3.7 -23
v 11.4 2.2 -23.1
v 11.4 2.7 -23.1
v 11.6 2.2 -23.1
v 11.6 2.7 -23.1
v 11 1.9 -23.2
v 11 2 -23.2
v 11.4 2 -23.2
v 11.4 2.2 -23.2
v 11.6 2 -23.2
v 11.6 2.2 -23.2
v 11.9 2.4 -23.2
v 11.9 3.1 -23.2
v 12 1.9 -23.2
v 12 2 -23.2
v 12 2.4 -23.2
v 12 3.1 -23.2
v 11.2 0.2 -23.5
v 11.2 0.7 -23.5
v 11.8 0.2 -23.5
v 11.8 0.7 -23.5
v 11.3 0.7 -23.6
v 11.3 1.7 -23.6
v 11.4 0 -23.6
v 11.4 0.2 -23.6
v 11.4 1.5 -23.6
v 11.4 1.7 -23.6
v 11.6 0.1 -23.6
v 11.6 0.2 -23.6
v 11.6 1.5 -23.6
v 11.6 1.7 -23.6
v 11.7 0 -23.6
v 11.7 0.1 -23.6
v 11.7 0.7 -23.6
v 11.7 1.7 -23.6
v 11.4 1.7 -23.7
v 11.4 1.9 -23.7
v 11.6 1.7 -23.7
v 11.6 1.9 -23.7
v 12 2.3 -23.8
v 12 2.5 -23.8
v 12.1 2.3 -23.8
v 12.1 2.5 -23.8
v 11.4 0 -24
v 11.4 0.2 -24
v 11.6 0.1 -24
v 11.6 0.2 -24
v 11.7 0 -24
v 11.7 0.1 -24
v 12 2 -24.6
v 12 2.4 -24.6
v 12.1 2 -24.6
v 12.1 2.4 -24.6
v 11.3 1.5 -24.8
v 11.3 1.7 -24.8
v 11.4 1.5 -24.8
v 11.4 1.7 -24.8
v 11.6 1.5 -24.8
v 11.6 1.7 -24.8
v 11.7 1.5 -24.8
v 11.7 1.7 -24.8
v 11.3 1.5 -23
v 11.3 1.7 -23
v 11.4 1.5 -23
v 11.4 1.7 -23
v 11.6 1.5 -23
v 11.6 1.7 -23
v 11.7 1.5 -23
v 11.7 1.7 -23
v 12 2 -23.2
v 12 2.4 -23.2
v 12.1 2 -23.2
v 12.1 2.4 -23.2
v 11.4 0 -23.8
v 11.4 0.2 -23.8
v 11.6 0.1 -23.8
v 11.6 0.2 -23.8
v 11.7 0 -23.8
v 11.7 0.1 -23.8
v 12 2.3 -24
v 12 2.5 -24
v 12.1 2.3 -24
v 12.1 2.5 -24
v 11.4 1.7 -24.1
v 11.4 1.9 -24.1
v 11.6 1.7 -24.1
v 11.6 1.9 -24.1
v 11.3 0.7 -24.2
v 11.3 1.7 -24.2
v 11.4 0 -24.2
v 11.4 0.2 -24.2
v 11.4 1.5 -24.2
v 11.4 1.7 -24.2
v 11.6 0.1 -24.2
v 11.6 0.2 -24.2
v 11.6 1.5 -24.2
v 11.6 1.7 -24.2
v 11.7 0 -24.2
v 11.7 0.1 -24.2
v 11.7 0.7 -24.2
v 11.7 1.7 -24.2
v 11.2 0.2 -24.3
v 11.2 0.7 -24.3
v 11.8 0.2 -24.3
v 11.8 0.7 -24.3
v 11 1.9 -24.6
v 11 2 -24.6
v 11.4 2 -24.6
v 11.4 2.2 -24.6
v 11.6 2 -24.6
v 11.6 2.2 -24.6
v 11.9 2.4 -24.6
v 11.9 3.1 -24.6
v 12 1.9 -24.6
v 12 2 -24.6
v 12 2.4 -24.6
v 12 3.1 -24.6
v 11.4 2.2 -24.7
v 11.4 2.7 -24.7
v 11.6 2.2 -24.7
v 11.6 2.7 -24.7
v 10.8 2.4 -24.8
v 10.8 3.7 -24.8
v 11.4 2.4 -24.8
v 11.4 2.7 -24.8
v 11.6 2.4 -24.8
v 11.6 2.7 -24.8
v 11.9 2.4 -24.8
v 11.9 3.1 -24.8
v 12.1 3.1 -24.8
v 12.1 3.7 -24.8
v 11.6 1.5 -24.9
v 11.6 1.7 -24.9
v 11.7 1.5 -24.9
v 11.7 1.7 -24.9
v 10.6 2 -25
v 10.6 2.4 -25
v 11.4 2 -25
v 11.4 2.4 -25
v 11.6 2 -25
v 11.6 2.4 -25
v 12.1 2 -25
v 12.1 2.4 -25
v 11.3 1.5 -25.1
v 11.3 1.7 -25.1
v 11.4 1.5 -25.1
v 11.4 1.7 -25.1
v 11.5 1.5 -25.1
v 11.5 1.7 -25.1
v 11.6 1.5 -25.1
v 11.6 1.7 -25.1
v 11.4 0 -23.6
v 11.7 0 -23.6
v 11.4 0 -23.8
v 11.7 0 -23.8
v 11.4 0 -24
v 11.7 0 -24
v 11.4 0 -24.2
v 11.7 0 -24.2
v 11.2 0.2 -23.5
v 11.8 0.2 -23.5
v 11.4 0.2 -23.6
v 11.6 0.2 -23.6
v 11.4 0.2 -23.8
v 11.6 0.2 -23.8
v 11.4 0.2 -24
v 11.6 0.2 -24
v 11.4 0.2 -24.2
v 11.6 0.2 -24.2
v 11.2 0.2 -24.3
v 11.8 0.2 -24.3
v 11.3 1.5 -22.7
v 11.4 1.5 -22.7
v 11.5 1.5 -22.7
v 11.6 1.5 -22.7
v 11.4 1.5 -22.9
v 11.5 1.5 -22.9
v 11.6 1.5 -22.9
v 11.7 1.5 -22.9
v 11.3 1.5 -23
v 11.4 1.5 -23
v 11.6 1.5 -23
v 11.7 1.5 -23
v 11.4 1.5 -23.6
v 11.6 1.5 -23.6
v 11.4 1.5 -24.2
v 11.6 1.5 -24.2
v 11.3 1.5 -24.8
v 11.4 1.5 -24.8
v 11.6 1.5 -24.8
v 11.7 1.5 -24.8
v 11.4 1.5 -24.9
v 11.5 1.5 -24.9
v 11.6 1.5 -24.9
v 11.7 1.5 -24.9
v 11.3 1.5 -25.1
v 11.4 1.5 -25.1
v 11.5 1.5 -25.1
v 11.6 1.5 -25.1
v 11 1.9 -23.2
v 12 1.9 -23.2
v 11.4 1.9 -23.7
v 11.6 1.9 -23.7
v 11.4 1.9 -24.1
v 11.6 1.9 -24.1
v 11 1.9 -24.6
v 12 1.9 -24.6
v 10.6 2 -22.8
v 11.4 2 -22.8
v 11.6 2 -22.8
v 12.1 2 -22.8
v 11 2 -23.2
v 11.4 2 -23.2
v 11.6 2 -23.2
v 12 2 -23.2
v 12.1 2 -23.2
v 11 2 -24.6
v 11.4 2 -24.6
v 11.6 2 -24.6
v 12 2 -24.6
v 12.1 2 -24.6
v 10.6 2 -25
v 11.4 2 -25
v 11.6 2 -25
v 12.1 2 -25
v 11.4 2.2 -23.1
v 11.6 2.2 -23.1
v 11.4 2.2 -23.2
v 11.6 2.2 -23.2
v 11.4 2.2 -24.6
v 11.6 2.2 -24.6
v 11.4 2.2 -24.7
v 11.6 2.2 -24.7
v 12 2.3 -23.8
v 12.1 2.3 -23.8
v 12 2.3 -24
v 12.1 2.3 -24
v 11.4 2.7 -23
v 11.6 2.7 -23
v 11.4 2.7 -23.1
v 11.6 2.7 -23.1
v 11.4 2.7 -24.7
v 11.6 2.7 -24.7
v 11.4 2.7 -24.8
v 11.6 2.7 -24.8
v 11.9 3.1 -23
v 12.1 3.1 -23
v 11.9 3.1 -23.2
v 12 3.1 -23.2
v 11.9 3.1 -24.6
v 12 3.1 -24.6
v 11.9 3.1 -24.8
v 12.1 3.1 -24.8
v 11.6 0.1 -23.6
v 11.7 0.1 -23.6
v 11.6 0.1 -23.8
v 11.7 0.1 -23.8
v 11.6 0.1 -24
v 11.7 0.1 -24
v 11.6 0.1 -24.2
v 11.7 0.1 -24.2
v 11.2 0.7 -23.5
v 11.8 0.7 -23.5
v 11.3 0.7 -23.6
v 11.7 0.7 -23.6
v 11.3 0.7 -24.2
v 11.7 0.7 -24.2
v 11.2 0.7 -24.3
v 11.8 0.7 -24.3
v 11.3 1.7 -22.7
v 11.4 1.7 -22.7
v 11.5 1.7 -22.7
v 11.6 1.7 -22.7
v 11.4 1.7 -22.9
v 11.5 1.7 -22.9
v 11.6 1.7 -22.9
v 11.7 1.7 -22.9
v 11.3 1.7 -23
v 11.4 1.7 -23
v 11.6 1.7 -23
v 11.7 1.7 -23
v 11.3 1.7 -23.6
v 11.4 1.7 -23.6
v 11.6 1.7 -23.6
v 11.7 1.7 -23.6
v 11.4 1.7 -23.7
v 11.6 1.7 -23.7
v 11.4 1.7 -24.1
v 11.6 1.7 -24.1
v 11.3 1.7 -24.2
v 11.4 1.7 -24.2
v 11.6 1.7 -24.2
v 11.7 1.7 -24.2
v 11.3 1.7 -24.8
v 11.4 1.7 -24.8
v 11.6 1.7 -24.8
v 11.7 1.7 -24.8
v 11.4 1.7 -24.9
v 11.5 1.7 -24.9
v 11.6 1.7 -24.9
v 11.7 1.7 -24.9
v 11.3 1.7 -25.1
v 11.4 1.7 -25.1
v 11.5 1.7 -25.1
v 11.6 1.7 -25.1
v 10.6 2.4 -22.8
v 11.4 2.4 -22.8
v 11.6 2.4 -22.8
v 12.1 2.4 -22.8
v 10.8 2.4 -23
v 11.4 2.4 -23
v 11.6 2.4 -23
v 11.9 2.4 -23
v 11.9 2.4 -23.2
v 12 2.4 -23.2
v 12.1 2.4 -23.2
v 11.9 2.4 -24.6
v 12 2.4 -24.6
v 12.1 2.4 -24.6
v 10.8 2.4 -24.8
v 11.4 2.4 -24.8
v 11.6 2.4 -24.8
v 11.9 2.4 -24.8
v 10.6 2.4 -25
v 11.4 2.4 -25
v 11.6 2.4 -25
v 12.1 2.4 -25
v 12 2.5 -23.8
v 12.1 2.5 -23.8
v 12 2.5 -24
v 12.1 2.5 -24
v 10.8 3.7 -23
v 12.1 3.7 -23
v 10.8 3.7 -24.8
v 12.1 3.7 -24.8

# faces
f 3/3/1 2/3/1 1/3/1
f 4/3/1 2/3/1 3/3/1
f 7/3/1 6/3/1 5/3/1
f 8/3/1 6/3/1 7/3/1
f 11/1/1 10/1/1 9/1/1
f 12/1/1 10/1/1 11/1/1
f 15/4/1 14/4/1 13/4/1
f 16/4/1 14/4/1 15/4/1
f 23/1/1 20/1/1 19/1/1
f 24/1/1 20/1/1 23/1/1
f 25/4/1 18/4/1 17/4/1
f 26/4/1 18/4/1 25/4/1
f 27/1/1 22/1/1 21/1/1
f 28/1/1 22/1/1 27/1/1
f 33/3/1 30/3/1 29/3/1
f 34/3/1 30/3/1 33/3/1
f 35/3/1 32/3/1 31/3/1
f 36/3/1 32/3/1 35/3/1
f 41/4/1 38/4/1 37/4/1
f 42/4/1 38/4/1 41/4/1
f 45/4/1 40/4/1 39/4/1
f 46/4/1 40/4/1 45/4/1
f 47/2/1 44/2/1 43/2/1
f 48/2/1 44/2/1 47/2/1
f 53/3/1 50/3/1 49/3/1
f 54/3/1 50/3/1 53/3/1
f 55/3/1 52/3/1 51/3/1
f 56/3/1 52/3/1 55/3/1
f 57/3/1 53/3/1 49/3/1
f 58/3/1 53/3/1 57/3/1
f 59/3/1 52/3/1 56/3/1
f 60/3/1 52/3/1 59/3/1
f 61/3/1 53/3/1 58/3/1
f 62/3/1 53/3/1 61/3/1
f 63/3/1 59/3/1 56/3/1
f 64/3/1 59/3/1 63/3/1
f 65/3/2 66/3/2 69/3/2
f 69/3/2 66/3/2 70/3/2
f 67/3/2 68/3/2 71/3/2
f 71/3/2 68/3/2 72/3/2
f 65/3/2 69/3/2 73/3/2
f 73/3/2 69/3/2 74/3/2
f 72/3/2 68/3/2 75/3/2
f 75/3/2 68/3/2 76/3/2
f 74/3/2 69/3/2 77/3/2
f 77/3/2 69/3/2 78/3/2
f 72/3/2 75/3/2 79/3/2
f 79/3/2 75/3/2 80/3/2
f 81/3/2 82/3/2 85/3/2
f 85/3/2 82/3/2 86/3/2
f 83/3/2 84/3/2 87/3/2
f 87/3/2 84/3/2 88/3/2
f 89/1/2 90/1/2 97/1/2
f 97/1/2 90/1/2 98/1/2
f 91/4/2 92/4/2 99/4/2
f 99/4/2 92/4/2 100/4/2
f 93/4/2 94/4/2 103/4/2
f 103/4/2 94/4/2 104/4/2
f 95/1/2 96/1/2 105/1/2
f 105/1/2 96/1/2 106/1/2
f 101/2/2 102/2/2 107/2/2
f 107/2/2 102/2/2 108/2/2
f 109/3/2 110/3/2 113/3/2
f 113/3/2 110/3/2 114/3/2
f 111/3/2 112/3/2 115/3/2
f 115/3/2 112/3/2 116/3/2
f 119/1/2 120/1/2 123/1/2
f 123/1/2 120/1/2 124/1/2
f 117/4/2 118/4/2 125/4/2
f 125/4/2 118/4/2 126/4/2
f 121/1/2 122/1/2 127/1/2
f 127/1/2 122/1/2 128/1/2
f 129/4/2 130/4/2 131/4/2
f 131/4/2 130/4/2 132/4/2
f 133/3/2 134/3/2 137/3/2
f 137/3/2 134/3/2 138/3/2
f 135/3/2 136/3/2 139/3/2
f 139/3/2 136/3/2 140/3/2
f 141/1/2 142/1/2 143/1/2
f 143/1/2 142/1/2 144/1/2
f 144/1/2 142/1/2 145/1/2
f 145/1/2 142/1/2 146/1/2
f 143/1/2 144/1/2 147/1/2
f 144/2/2 145/2/2 148/2/2
f 147/1/2 144/1/2 148/1/2
f 145/1/2 146/1/2 149/1/2
f 148/2/2 145/2/2 149/2/2
f 149/1/2 146/1/2 150/1/2
f 143/1/2 147/1/2 151/1/2
f 147/2/2 148/2/2 151/2/2
f 149/2/2 150/2/2 151/2/2
f 148/2/2 149/2/2 151/2/2
f 150/1/2 146/1/2 152/1/2
f 151/2/2 150/2/2 152/2/2
f 143/1/2 151/1/2 153/1/2
f 151/1/2 152/1/2 153/1/2
f 153/1/2 152/1/2 154/1/2
f 154/1/2 152/1/2 155/1/2
f 155/1/2 152/1/2 156/1/2
f 152/1/2 146/1/2 157/1/2
f 156/1/2 152/1/2 157/1/2
f 157/1/2 146/1/2 158/1/2
f 143/1/2 153/1/2 159/1/2
f 158/1/2 146/1/2 160/1/2
f 159/1/2 153/1/2 161/1/2
f 153/2/2 154/2/2 161/2/2
f 161/2/2 154/2/2 162/2/2
f 154/1/2 155/1/2 163/1/2
f 162/2/2 154/2/2 163/2/2
f 163/1/2 155/1/2 164/1/2
f 164/1/2 155/1/2 165/1/2
f 156/1/2 157/1/2 166/1/2
f 166/1/2 157/1/2 167/1/2
f 157/2/2 158/2/2 168/2/2
f 167/1/2 157/1/2 168/1/2
f 168/2/2 158/2/2 169/2/2
f 158/1/2 160/1/2 170/1/2
f 169/2/2 158/2/2 170/2/2
f 161/1/2 162/1/2 171/1/2
f 162/2/2 163/2/2 171/2/2
f 163/3/2 164/3/2 172/3/2
f 171/2/2 163/2/2 172/2/2
f 168/2/2 169/2/2 173/2/2
f 167/3/2 168/3/2 173/3/2
f 169/1/2 170/1/2 174/1/2
f 173/2/2 169/2/2 174/2/2
f 172/3/2 164/3/2 175/3/2
f 171/1/2 172/1/2 175/1/2
f 166/1/2 167/1/2 176/1/2
f 175/3/2 164/3/2 176/3/2
f 164/1/2 165/1/2 176/1/2
f 165/1/2 166/1/2 176/1/2
f 167/3/2 173/3/2 177/3/2
f 176/1/2 167/1/2 177/1/2
f 173/1/2 174/1/2 178/1/2
f 177/3/2 173/3/2 178/3/2
f 171/1/2 175/1/2 179/1/2
f 176/1/2 177/1/2 179/1/2
f 177/1/2 178/1/2 179/1/2
f 175/1/2 176/1/2 179/1/2
f 161/1/2 171/1/2 179/1/2
f 179/1/2 178/1/2 180/1/2
f 180/1/2 178/1/2 181/1/2
f 178/1/2 174/1/2 182/1/2
f 181/1/2 178/1/2 182/1/2
f 174/1/2 170/1/2 182/1/2
f 179/3/2 180/3/2 183/3/2
f 161/1/2 179/1/2 183/1/2
f 180/1/2 181/1/2 184/1/2
f 183/3/2 180/3/2 184/3/2
f 181/3/2 182/3/2 185/3/2
f 184/1/2 181/1/2 185/1/2
f 182/1/2 170/1/2 186/1/2
f 185/3/2 182/3/2 186/3/2
f 161/1/2 183/1/2 187/1/2
f 184/1/2 185/1/2 187/1/2
f 185/1/2 186/1/2 187/1/2
f 183/1/2 184/1/2 187/1/2
f 159/1/2 161/1/2 187/1/2
f 186/1/2 170/1/2 188/1/2
f 187/1/2 186/1/2 188/1/2
f 170/1/2 160/1/2 188/1/2
f 189/3/2 190/3/2 195/3/2
f 195/3/2 190/3/2 196/3/2
f 191/3/2 192/3/2 197/3/2
f 197/3/2 192/3/2 198/3/2
f 193/2/2 194/2/2 199/2/2
f 199/2/2 194/2/2 200/2/2
f 201/3/2 202/3/2 203/3/2
f 203/3/2 202/3/2 204/3/2
f 207/1/3 206/1/3 205/1/3
f 208/1/3 206/1/3 207/1/3
f 209/2/3 208/2/3 207/2/3
f 210/2/3 208/2/3 209/2/3
f 211/1/3 210/1/3 209/1/3
f 212/1/3 210/1/3 211/1/3
f 215/3/3 214/3/3 213/3/3
f 216/3/3 214/3/3 215/3/3
f 219/3/3 218/3/3 217/3/3
f 220/3/3 218/3/3 219/3/3
f 223/1/3 222/1/3 221/1/3
f 224/1/3 222/1/3 223/1/3
f 227/3/3 226/3/3 225/3/3
f 228/3/3 226/3/3 227/3/3
f 230/3/3 226/3/3 228/3/3
f 231/3/3 230/3/3 229/3/3
f 232/3/3 226/3/3 230/3/3
f 232/3/3 230/3/3 231/3/3
f 233/3/3 226/3/3 232/3/3
f 234/3/3 226/3/3 233/3/3
f 237/2/3 236/2/3 235/2/3
f 238/2/3 236/2/3 237/2/3
f 241/1/3 240/1/3 239/1/3
f 243/1/3 241/1/3 239/1/3
f 243/1/3 242/1/3 241/1/3
f 244/1/3 242/1/3 243/1/3
f 247/1/3 243/1/3 239/1/3
f 248/1/3 243/1/3 247/1/3
f 249/1/3 246/1/3 245/1/3
f 250/1/3 246/1/3 249/1/3
f 253/4/3 252/4/3 251/4/3
f 254/4/3 252/4/3 253/4/3
f 259/4/3 256/4/3 255/4/3
f 260/4/3 256/4/3 259/4/3
f 261/3/3 258/3/3 257/3/3
f 262/3/3 258/3/3 261/3/3
f 263/4/3 259/4/3 255/4/3
f 265/3/3 261/3/3 257/3/3
f 266/3/3 261/3/3 265/3/3
f 267/4/3 264/4/3 263/4/3
f 267/4/3 263/4/3 255/4/3
f 268/4/3 264/4/3 267/4/3
f 271/2/3 270/2/3 269/2/3
f 272/2/3 270/2/3 271/2/3
f 275/2/3 274/2/3 273/2/3
f 276/2/3 274/2/3 275/2/3
f 279/3/3 278/3/3 277/3/3
f 280/3/3 278/3/3 279/3/3
f 281/3/3 279/3/3 277/3/3
f 282/3/3 279/3/3 281/3/3
f 285/3/3 284/3/3 283/3/3
f 286/3/3 284/3/3 285/3/3
f 289/1/3 288/1/3 287/1/3
f 290/1/3 288/1/3 289/1/3
f 293/1/3 292/1/3 291/1/3
f 294/1/3 292/1/3 293/1/3
f 295/1/4 296/1/4 297/1/4
f 297/1/4 296/1/4 298/1/4
f 299/1/4 300/1/4 301/1/4
f 301/1/4 300/1/4 302/1/4
f 303/3/4 304/3/4 305/3/4
f 305/3/4 304/3/4 306/3/4
f 307/3/4 308/3/4 309/3/4
f 309/3/4 308/3/4 310/3/4
f 307/3/4 309/3/4 311/3/4
f 311/3/4 309/3/4 312/3/4
f 313/2/4 314/2/4 315/2/4
f 315/2/4 314/2/4 316/2/4
f 317/2/4 318/2/4 319/2/4
f 319/2/4 318/2/4 320/2/4
f 321/4/4 322/4/4 325/4/4
f 325/4/4 322/4/4 326/4/4
f 323/3/4 324/3/4 327/3/4
f 327/3/4 324/3/4 328/3/4
f 321/4/4 325/4/4 329/4/4
f 323/3/4 327/3/4 331/3/4
f 331/3/4 327/3/4 332/3/4
f 329/4/4 330/4/4 333/4/4
f 321/4/4 329/4/4 333/4/4
f 333/4/4 330/4/4 334/4/4
f 335/4/4 336/4/4 337/4/4
f 337/4/4 336/4/4 338/4/4
f 339/1/4 340/1/4 341/1/4
f 339/1/4 341/1/4 343/1/4
f 341/1/4 342/1/4 343/1/4
f 343/1/4 342/1/4 344/1/4
f 339/1/4 343/1/4 347/1/4
f 347/1/4 343/1/4 348/1/4
f 345/1/4 346/1/4 349/1/4
f 349/1/4 346/1/4 350/1/4
f 351/2/4 352/2/4 353/2/4
f 353/2/4 352/2/4 354/2/4
f 355/3/4 356/3/4 357/3/4
f 357/3/4 356/3/4 358/3/4
f 358/3/4 356/3/4 360/3/4
f 359/3/4 360/3/4 361/3/4
f 360/3/4 356/3/4 362/3/4
f 361/3/4 360/3/4 362/3/4
f 362/3/4 356/3/4 363/3/4
f 363/3/4 356/3/4 364/3/4
f 365/1/4 366/1/4 367/1/4
f 367/1/4 366/1/4 368/1/4
f 369/3/4 370/3/4 371/3/4
f 371/3/4 370/3/4 372/3/4
f 373/3/4 374/3/4 375/3/4
f 375/3/4 374/3/4 376/3/4
f 377/1/4 378/1/4 379/1/4
f 379/1/4 378/1/4 380/1/4
f 379/2/4 380/2/4 381/2/4
f 381/2/4 380/2/4 382/2/4
f 381/1/4 382/1/4 383/1/4
f 383/1/4 382/1/4 384/1/4
f 387/3/5 386/3/5 385/3/5
f 388/3/5 386/3/5 387/3/5
f 391/3/5 390/3/5 389/3/5
f 392/3/5 390/3/5 391/3/5
f 395/4/5 394/4/5 393/4/5
f 396/4/5 394/4/5 395/4/5
f 397/4/5 395/4/5 393/4/5
f 398/4/5 394/4/5 396/4/5
f 399/4/5 397/4/5 393/4/5
f 399/4/5 398/4/5 397/4/5
f 400/4/5 394/4/5 398/4/5
f 400/4/5 398/4/5 399/4/5
f 401/4/5 399/4/5 393/4/5
f 402/4/5 394/4/5 400/4/5
f 403/4/5 401/4/5 393/4/5
f 403/4/5 402/4/5 401/4/5
f 404/4/5 394/4/5 402/4/5
f 404/4/5 402/4/5 403/4/5
f 409/1/5 406/1/5 405/1/5
f 409/2/5 407/2/5 406/2/5
f 410/1/5 408/1/5 407/1/5
f 410/2/5 407/2/5 409/2/5
f 411/1/5 408/1/5 410/1/5
f 413/1/5 409/1/5 405/1/5
f 413/1/5 412/1/5 411/1/5
f 413/1/5 411/1/5 410/1/5
f 413/1/5 410/1/5 409/1/5
f 414/1/5 412/1/5 413/1/5
f 415/1/5 412/1/5 414/1/5
f 416/1/5 412/1/5 415/1/5
f 417/4/5 415/4/5 414/4/5
f 418/4/5 415/4/5 417/4/5
f 422/4/5 420/4/5 419/4/5
f 423/4/5 420/4/5 422/4/5
f 425/1/5 423/1/5 422/1/5
f 425/1/5 424/1/5 423/1/5
f 425/1/5 422/1/5 421/1/5
f 426/1/5 424/1/5 425/1/5
f 427/1/5 424/1/5 426/1/5
f 428/1/5 424/1/5 427/1/5
f 429/1/5 425/1/5 421/1/5
f 430/2/5 426/2/5 425/2/5
f 430/1/5 425/1/5 429/1/5
f 431/1/5 427/1/5 426/1/5
f 431/2/5 426/2/5 430/2/5
f 432/1/5 427/1/5 431/1/5
f 435/1/5 434/1/5 433/1/5
f 436/1/5 434/1/5 435/1/5
f 437/1/5 435/1/5 433/1/5
f 438/1/5 434/1/5 436/1/5
f 439/1/5 437/1/5 433/1/5
f 439/1/5 438/1/5 437/1/5
f 440/1/5 434/1/5 438/1/5
f 440/1/5 438/1/5 439/1/5
f 445/3/5 442/3/5 441/3/5
f 446/3/5 442/3/5 445/3/5
f 447/3/5 444/3/5 443/3/5
f 448/3/5 444/3/5 447/3/5
f 449/3/5 444/3/5 448/3/5
f 450/3/5 445/3/5 441/3/5
f 455/3/5 450/3/5 441/3/5
f 455/3/5 451/3/5 450/3/5
f 456/3/5 451/3/5 455/3/5
f 457/3/5 454/3/5 453/3/5
f 457/3/5 453/3/5 452/3/5
f 458/3/5 454/3/5 457/3/5
f 461/2/5 460/2/5 459/2/5
f 462/2/5 460/2/5 461/2/5
f 465/2/5 464/2/5 463/2/5
f 466/2/5 464/2/5 465/2/5
f 469/2/5 468/2/5 467/2/5
f 470/2/5 468/2/5 469/2/5
f 473/3/5 472/3/5 471/3/5
f 474/3/5 472/3/5 473/3/5
f 477/3/5 476/3/5 475/3/5
f 478/3/5 476/3/5 477/3/5
f 481/3/5 480/3/5 479/3/5
f 482/3/5 480/3/5 481/3/5
f 484/3/5 480/3/5 482/3/5
f 485/3/5 484/3/5 483/3/5
f 486/3/5 480/3/5 484/3/5
f 486/3/5 484/3/5 485/3/5
f 487/3/6 488/3/6 489/3/6
f 489/3/6 488/3/6 490/3/6
f 491/3/6 492/3/6 493/3/6
f 493/3/6 492/3/6 494/3/6
f 495/4/6 496/4/6 497/4/6
f 497/4/6 496/4/6 498/4/6
f 495/4/6 497/4/6 499/4/6
f 498/4/6 496/4/6 500/4/6
f 495/4/6 499/4/6 501/4/6
f 499/4/6 500/4/6 501/4/6
f 500/4/6 496/4/6 502/4/6
f 501/4/6 500/4/6 502/4/6
f 503/1/6 504/1/6 507/1/6
f 504/2/6 505/2/6 507/2/6
f 505/1/6 506/1/6 508/1/6
f 507/2/6 505/2/6 508/2/6
f 508/1/6 506/1/6 509/1/6
f 503/1/6 507/1/6 511/1/6
f 509/1/6 510/1/6 511/1/6
f 508/1/6 509/1/6 511/1/6
f 507/1/6 508/1/6 511/1/6
f 511/1/6 510/1/6 512/1/6
f 512/1/6 510/1/6 513/1/6
f 513/1/6 510/1/6 514/1/6
f 512/4/6 513/4/6 516/4/6
f 516/4/6 513/4/6 517/4/6
f 515/4/6 516/4/6 519/4/6
f 517/4/6 518/4/6 519/4/6
f 516/4/6 517/4/6 519/4/6
f 519/4/6 518/4/6 520/4/6
f 515/4/6 519/4/6 521/4/6
f 520/4/6 518/4/6 522/4/6
f 515/4/6 521/4/6 523/4/6
f 521/4/6 522/4/6 523/4/6
f 523/4/6 522/4/6 524/4/6
f 522/4/6 518/4/6 525/4/6
f 524/4/6 522/4/6 525/4/6
f 525/4/6 518/4/6 526/4/6
f 524/4/6 525/4/6 528/4/6
f 528/4/6 525/4/6 529/4/6
f 527/1/6 528/1/6 531/1/6
f 529/1/6 530/1/6 531/1/6
f 528/1/6 529/1/6 531/1/6
f 531/1/6 530/1/6 532/1/6
f 532/1/6 530/1/6 533/1/6
f 533/1/6 530/1/6 534/1/6
f 527/1/6 531/1/6 535/1/6
f 531/2/6 532/2/6 536/2/6
f 535/1/6 531/1/6 536/1/6
f 532/1/6 533/1/6 537/1/6
f 536/2/6 532/2/6 537/2/6
f 537/1/6 533/1/6 538/1/6
f 539/3/6 540/3/6 543/3/6
f 543/3/6 540/3/6 544/3/6
f 541/3/6 542/3/6 545/3/6
f 545/3/6 542/3/6 546/3/6
f 546/3/6 542/3/6 547/3/6
f 547/3/6 542/3/6 548/3/6
f 548/3/6 542/3/6 549/3/6
f 539/3/6 543/3/6 553/3/6
f 551/3/6 552/3/6 556/3/6
f 550/3/6 551/3/6 556/3/6
f 553/3/6 554/3/6 557/3/6
f 539/3/6 553/3/6 557/3/6
f 557/3/6 554/3/6 558/3/6
f 555/3/6 556/3/6 559/3/6
f 556/3/6 552/3/6 560/3/6
f 559/3/6 556/3/6 560/3/6
f 561/2/6 562/2/6 563/2/6
f 563/2/6 562/2/6 564/2/6
f 565/3/6 566/3/6 567/3/6
f 567/3/6 566/3/6 568/3/6
