# MagicaVoxel @ Ephtracy

# group
o Face

# material
mtllib Voxel Universe-17-Face.mtl
usemtl palette

# normals
vn -1 0 0
vn 1 0 0
vn 0 0 1
vn 0 0 -1
vn 0 -1 0
vn 0 1 0

# texcoords
vt 0.0332031 0.5
vt 0.0566406 0.5
vt 0.0839844 0.5
vt 0.982422 0.5
vt 0.986328 0.5
vt 0.990234 0.5

# verts
v -10.5 0.5 9.6
v -10.5 0.5 9.4
v -10.5 0.6 10.1
v -10.5 0.6 9.7
v -10.5 0.6 9.3
v -10.5 0.6 8.9
v -10.5 0.7 10.2
v -10.5 0.7 10.1
v -10.5 0.7 9.7
v -10.5 0.7 9.6
v -10.5 0.7 9.4
v -10.5 0.7 9.3
v -10.5 0.7 8.9
v -10.5 0.7 8.8
v -10.5 0.9 10.3
v -10.5 0.9 10.2
v -10.5 0.9 10.1
v -10.5 0.9 9.7
v -10.5 0.9 9.6
v -10.5 0.9 9.4
v -10.5 0.9 9.3
v -10.5 0.9 8.9
v -10.5 0.9 8.8
v -10.5 0.9 8.7
v -10.5 1 10.3
v -10.5 1 8.7
v -10.4 0 10.2
v -10.4 0 9.9
v -10.4 0 9.8
v -10.4 0 9.2
v -10.4 0 9.1
v -10.4 0 8.8
v -10.4 0.1 10.1
v -10.4 0.1 10
v -10.4 0.1 9.6
v -10.4 0.1 9.4
v -10.4 0.1 9
v -10.4 0.1 8.9
v -10.4 0.2 9.9
v -10.4 0.2 9.8
v -10.4 0.2 9.7
v -10.4 0.2 9.6
v -10.4 0.2 9.4
v -10.4 0.2 9.3
v -10.4 0.2 9.2
v -10.4 0.2 9.1
v -10.4 0.3 10.2
v -10.4 0.3 10.1
v -10.4 0.3 10
v -10.4 0.3 9.9
v -10.4 0.3 9.8
v -10.4 0.3 9.7
v -10.4 0.3 9.3
v -10.4 0.3 9.2
v -10.4 0.3 9.1
v -10.4 0.3 9
v -10.4 0.3 8.9
v -10.4 0.3 8.8
v -10.4 0.4 9.9
v -10.4 0.4 9.8
v -10.4 0.4 9.7
v -10.4 0.4 9.3
v -10.4 0.4 9.2
v -10.4 0.4 9.1
v -10.4 0.5 9.8
v -10.4 0.5 9.6
v -10.4 0.5 9.4
v -10.4 0.5 9.2
v -10.4 0.6 10.1
v -10.4 0.6 9.7
v -10.4 0.6 9.3
v -10.4 0.6 8.9
v -10.4 0.7 10.2
v -10.4 0.7 10.1
v -10.4 0.7 10
v -10.4 0.7 9.8
v -10.4 0.7 9.7
v -10.4 0.7 9.6
v -10.4 0.7 9.4
v -10.4 0.7 9.3
v -10.4 0.7 9.2
v -10.4 0.7 9
v -10.4 0.7 8.9
v -10.4 0.7 8.8
v -10.4 0.8 10
v -10.4 0.8 9.9
v -10.4 0.8 9.2
v -10.4 0.8 9.1
v -10.4 0.9 10.1
v -10.4 0.9 10
v -10.4 0.9 9.9
v -10.4 0.9 9.8
v -10.4 0.9 9.7
v -10.4 0.9 9.6
v -10.4 0.9 9.4
v -10.4 0.9 9.3
v -10.4 0.9 9.2
v -10.4 0.9 9.1
v -10.4 0.9 9
v -10.4 0.9 8.9
v -10.4 1 10.2
v -10.4 1 10.1
v -10.4 1 10
v -10.4 1 9.8
v -10.4 1 9.7
v -10.4 1 9.3
v -10.4 1 9.2
v -10.4 1 9
v -10.4 1 8.9
v -10.4 1 8.8
v -10.4 1.1 10.1
v -10.4 1.1 10
v -10.4 1.1 9.8
v -10.4 1.1 9.7
v -10.4 1.1 9.3
v -10.4 1.1 9.2
v -10.4 1.1 9
v -10.4 1.1 8.9
v -10.4 1.2 10
v -10.4 1.2 9.8
v -10.4 1.2 9.2
v -10.4 1.2 9
v -10.4 1.6 10.2
v -10.4 1.6 10.1
v -10.4 1.6 9.9
v -10.4 1.6 9.1
v -10.4 1.6 8.9
v -10.4 1.6 8.8
v -10.4 1.7 10.1
v -10.4 1.7 9.9
v -10.4 1.7 9.1
v -10.4 1.7 8.9
v -10 0.5 10.3
v -10 0.5 10.2
v -10 0.5 8.8
v -10 0.5 8.7
v -10 0.6 10.2
v -10 0.6 8.8
v -10 0.8 10.2
v -10 0.8 8.8
v -10 0.9 10.3
v -10 0.9 10.2
v -10 0.9 8.8
v -10 0.9 8.7
v -10.2 0 10.1
v -10.2 0 8.9
v -10.2 0.1 10.1
v -10.2 0.1 8.9
v -10 0 10.2
v -10 0 10.1
v -10 0 8.9
v -10 0 8.8
v -10 0.1 10.2
v -10 0.1 10.1
v -10 0.1 8.9
v -10 0.1 8.8
v -9.8 0.5 10.3
v -9.8 0.5 10.2
v -9.8 0.5 8.8
v -9.8 0.5 8.7
v -9.8 0.8 10.3
v -9.8 0.8 10.2
v -9.8 0.8 8.8
v -9.8 0.8 8.7
v -9.8 0.9 10.3
v -9.8 0.9 10.2
v -9.8 0.9 8.8
v -9.8 0.9 8.7
v -9.8 1 10.3
v -9.8 1 10.2
v -9.8 1 8.8
v -9.8 1 8.7
v -9.7 0.8 10.3
v -9.7 0.8 10.2
v -9.7 0.8 8.8
v -9.7 0.8 8.7
v -9.7 0.9 10.3
v -9.7 0.9 10.2
v -9.7 0.9 8.8
v -9.7 0.9 8.7
v -9.4 0.1 10.2
v -9.4 0.1 8.8
v -9.4 0.5 10.2
v -9.4 0.5 8.8
v -9.4 1.6 10.2
v -9.4 1.6 10.1
v -9.4 1.6 8.9
v -9.4 1.6 8.8
v -9.4 1.7 10.1
v -9.4 1.7 8.9
v -10.5 0.9 10.3
v -10.5 1 10.3
v -10 0.5 10.3
v -10 0.9 10.3
v -9.8 0.5 10.3
v -9.8 0.8 10.3
v -9.8 0.9 10.3
v -9.8 1 10.3
v -9.7 0.8 10.3
v -9.7 0.9 10.3
v -10.5 0.7 10.2
v -10.5 0.9 10.2
v -10.4 0 10.2
v -10.4 0.3 10.2
v -10.4 0.7 10.2
v -10.4 0.9 10.2
v -10.4 1 10.2
v -10.4 1.6 10.2
v -10.3 0.1 10.2
v -10.3 0.3 10.2
v -10.2 0.1 10.2
v -10.2 0.3 10.2
v -10.2 0.9 10.2
v -10.2 1 10.2
v -10.2 1.1 10.2
v -10.1 0.6 10.2
v -10.1 0.8 10.2
v -10.1 1.1 10.2
v -10.1 1.2 10.2
v -10.1 1.5 10.2
v -10.1 1.6 10.2
v -10 0 10.2
v -10 0.1 10.2
v -10 0.5 10.2
v -10 0.6 10.2
v -10 0.8 10.2
v -10 0.9 10.2
v -10 1.3 10.2
v -10 1.4 10.2
v -10 1.5 10.2
v -10 1.6 10.2
v -9.9 1.1 10.2
v -9.9 1.2 10.2
v -9.8 0.5 10.2
v -9.8 0.8 10.2
v -9.8 0.9 10.2
v -9.8 1 10.2
v -9.8 1.3 10.2
v -9.8 1.4 10.2
v -9.7 0.8 10.2
v -9.7 0.9 10.2
v -9.4 0.1 10.2
v -9.4 0.5 10.2
v -9.4 1.6 10.2
v -10.5 0.6 10.1
v -10.5 0.7 10.1
v -10.4 0.6 10.1
v -10.4 0.7 10.1
v -10.4 1.6 10.1
v -10.4 1.7 10.1
v -10.2 1.6 10.1
v -10.2 1.7 10.1
v -10.1 1.6 10.1
v -10 1.6 10.1
v -9.4 1.6 10.1
v -9.4 1.7 10.1
v -10.5 0.7 9.7
v -10.5 0.9 9.7
v -10.4 0.7 9.7
v -10.4 0.9 9.7
v -10.5 0.5 9.6
v -10.5 0.7 9.6
v -10.4 0.5 9.6
v -10.4 0.7 9.6
v -10.5 0.7 9.4
v -10.5 0.9 9.4
v -10.4 0.7 9.4
v -10.4 0.9 9.4
v -10.5 0.6 9.3
v -10.5 0.7 9.3
v -10.4 0.6 9.3
v -10.4 0.7 9.3
v -10.5 0.7 8.9
v -10.5 0.9 8.9
v -10.4 0.7 8.9
v -10.4 0.9 8.9
v -10.2 0 8.9
v -10.2 0.1 8.9
v -10 0 8.9
v -10 0.1 8.9
v -10.5 0.7 10.1
v -10.5 0.9 10.1
v -10.4 0.7 10.1
v -10.4 0.9 10.1
v -10.2 0 10.1
v -10.2 0.1 10.1
v -10 0 10.1
v -10 0.1 10.1
v -10.5 0.6 9.7
v -10.5 0.7 9.7
v -10.4 0.6 9.7
v -10.4 0.7 9.7
v -10.5 0.7 9.6
v -10.5 0.9 9.6
v -10.4 0.7 9.6
v -10.4 0.9 9.6
v -10.5 0.5 9.4
v -10.5 0.7 9.4
v -10.4 0.5 9.4
v -10.4 0.7 9.4
v -10.5 0.7 9.3
v -10.5 0.9 9.3
v -10.4 0.7 9.3
v -10.4 0.9 9.3
v -10.5 0.6 8.9
v -10.5 0.7 8.9
v -10.4 0.6 8.9
v -10.4 0.7 8.9
v -10.4 1.6 8.9
v -10.4 1.7 8.9
v -10.2 1.6 8.9
v -10.2 1.7 8.9
v -10.1 1.6 8.9
v -10 1.6 8.9
v -9.4 1.6 8.9
v -9.4 1.7 8.9
v -10.5 0.7 8.8
v -10.5 0.9 8.8
v -10.4 0 8.8
v -10.4 0.3 8.8
v -10.4 0.7 8.8
v -10.4 0.9 8.8
v -10.4 1 8.8
v -10.4 1.6 8.8
v -10.3 0.1 8.8
v -10.3 0.3 8.8
v -10.2 0.1 8.8
v -10.2 0.3 8.8
v -10.2 0.9 8.8
v -10.2 1 8.8
v -10.2 1.1 8.8
v -10.1 0.6 8.8
v -10.1 0.8 8.8
v -10.1 1.1 8.8
v -10.1 1.2 8.8
v -10.1 1.5 8.8
v -10.1 1.6 8.8
v -10 0 8.8
v -10 0.1 8.8
v -10 0.5 8.8
v -10 0.6 8.8
v -10 0.8 8.8
v -10 0.9 8.8
v -10 1.3 8.8
v -10 1.4 8.8
v -10 1.5 8.8
v -10 1.6 8.8
v -9.9 1.1 8.8
v -9.9 1.2 8.8
v -9.8 0.5 8.8
v -9.8 0.8 8.8
v -9.8 0.9 8.8
v -9.8 1 8.8
v -9.8 1.3 8.8
v -9.8 1.4 8.8
v -9.7 0.8 8.8
v -9.7 0.9 8.8
v -9.4 0.1 8.8
v -9.4 0.5 8.8
v -9.4 1.6 8.8
v -10.5 0.9 8.7
v -10.5 1 8.7
v -10 0.5 8.7
v -10 0.9 8.7
v -9.8 0.5 8.7
v -9.8 0.8 8.7
v -9.8 0.9 8.7
v -9.8 1 8.7
v -9.7 0.8 8.7
v -9.7 0.9 8.7
v -10.4 0 10.2
v -10 0 10.2
v -10.2 0 10.1
v -10 0 10.1
v -10.4 0 9.9
v -10.3 0 9.9
v -10.4 0 9.8
v -10.3 0 9.8
v -10.4 0 9.2
v -10.3 0 9.2
v -10.4 0 9.1
v -10.3 0 9.1
v -10.2 0 8.9
v -10 0 8.9
v -10.4 0 8.8
v -10 0 8.8
v -10 0.1 10.2
v -9.4 0.1 10.2
v -10.2 0.1 10.1
v -10 0.1 10.1
v -10.2 0.1 8.9
v -10 0.1 8.9
v -10 0.1 8.8
v -9.4 0.1 8.8
v -10 0.5 10.3
v -9.8 0.5 10.3
v -10 0.5 10.2
v -9.8 0.5 10.2
v -10.5 0.5 9.6
v -10.4 0.5 9.6
v -10.5 0.5 9.4
v -10.4 0.5 9.4
v -10 0.5 8.8
v -9.8 0.5 8.8
v -10 0.5 8.7
v -9.8 0.5 8.7
v -10.5 0.6 10.1
v -10.4 0.6 10.1
v -10.5 0.6 9.7
v -10.4 0.6 9.7
v -10.5 0.6 9.3
v -10.4 0.6 9.3
v -10.5 0.6 8.9
v -10.4 0.6 8.9
v -10.5 0.7 10.2
v -10.4 0.7 10.2
v -10.5 0.7 10.1
v -10.4 0.7 10.1
v -10.5 0.7 9.7
v -10.4 0.7 9.7
v -10.5 0.7 9.6
v -10.4 0.7 9.6
v -10.5 0.7 9.4
v -10.4 0.7 9.4
v -10.5 0.7 9.3
v -10.4 0.7 9.3
v -10.5 0.7 8.9
v -10.4 0.7 8.9
v -10.5 0.7 8.8
v -10.4 0.7 8.8
v -9.8 0.8 10.3
v -9.7 0.8 10.3
v -9.8 0.8 10.2
v -9.7 0.8 10.2
v -9.8 0.8 8.8
v -9.7 0.8 8.8
v -9.8 0.8 8.7
v -9.7 0.8 8.7
v -10.5 0.9 10.3
v -10 0.9 10.3
v -10.5 0.9 10.2
v -10.4 0.9 10.2
v -10.2 0.9 10.2
v -10 0.9 10.2
v -10.5 0.9 10.1
v -10.4 0.9 10.1
v -10.4 0.9 10
v -10.4 0.9 9.9
v -10.4 0.9 9.8
v -10.5 0.9 9.7
v -10.4 0.9 9.7
v -10.5 0.9 9.6
v -10.4 0.9 9.6
v -10.5 0.9 9.4
v -10.4 0.9 9.4
v -10.5 0.9 9.3
v -10.4 0.9 9.3
v -10.4 0.9 9.2
v -10.4 0.9 9.1
v -10.4 0.9 9
v -10.5 0.9 8.9
v -10.4 0.9 8.9
v -10.5 0.9 8.8
v -10.4 0.9 8.8
v -10.2 0.9 8.8
v -10 0.9 8.8
v -10.5 0.9 8.7
v -10 0.9 8.7
v -10.5 0.7 10.1
v -10.4 0.7 10.1
v -10.4 0.7 10
v -10.4 0.7 9.8
v -10.5 0.7 9.7
v -10.4 0.7 9.7
v -10.5 0.7 9.6
v -10.4 0.7 9.6
v -10.5 0.7 9.4
v -10.4 0.7 9.4
v -10.5 0.7 9.3
v -10.4 0.7 9.3
v -10.4 0.7 9.2
v -10.4 0.7 9
v -10.5 0.7 8.9
v -10.4 0.7 8.9
v -9.8 0.9 10.3
v -9.7 0.9 10.3
v -9.8 0.9 10.2
v -9.7 0.9 10.2
v -9.8 0.9 8.8
v -9.7 0.9 8.8
v -9.8 0.9 8.7
v -9.7 0.9 8.7
v -10.5 1 10.3
v -9.8 1 10.3
v -10.4 1 10.2
v -10.2 1 10.2
v -9.8 1 10.2
v -10.4 1 10.1
v -10.4 1 10
v -10.4 1 9.8
v -10.4 1 9.7
v -10.4 1 9.3
v -10.4 1 9.2
v -10.4 1 9
v -10.4 1 8.9
v -10.4 1 8.8
v -10.2 1 8.8
v -9.8 1 8.8
v -10.5 1 8.7
v -9.8 1 8.7
v -10.4 1.6 10.2
v -10.1 1.6 10.2
v -10 1.6 10.2
v -9.4 1.6 10.2
v -10.4 1.6 10.1
v -10.2 1.6 10.1
v -10.1 1.6 10.1
v -10 1.6 10.1
v -9.4 1.6 10.1
v -10.4 1.6 8.9
v -10.2 1.6 8.9
v -10.1 1.6 8.9
v -10 1.6 8.9
v -9.4 1.6 8.9
v -10.4 1.6 8.8
v -10.1 1.6 8.8
v -10 1.6 8.8
v -9.4 1.6 8.8
v -10.4 1.7 10.1
v -10.2 1.7 10.1
v -9.4 1.7 10.1
v -10.3 1.7 10
v -10.2 1.7 10
v -10.4 1.7 9.9
v -10.3 1.7 9.9
v -10.4 1.7 9.1
v -10.3 1.7 9.1
v -10.3 1.7 9
v -10.2 1.7 9
v -10.4 1.7 8.9
v -10.2 1.7 8.9
v -9.4 1.7 8.9

# faces
f 8/4/1 4/4/1 3/4/1
f 9/4/1 4/4/1 8/4/1
f 10/3/1 2/3/1 1/3/1
f 11/3/1 2/3/1 10/3/1
f 12/4/1 6/4/1 5/4/1
f 13/4/1 6/4/1 12/4/1
f 16/4/1 8/4/1 7/4/1
f 17/4/1 8/4/1 16/4/1
f 18/4/1 10/4/1 9/4/1
f 19/4/1 10/4/1 18/4/1
f 20/4/1 12/4/1 11/4/1
f 21/4/1 12/4/1 20/4/1
f 22/4/1 14/4/1 13/4/1
f 23/4/1 14/4/1 22/4/1
f 25/4/1 21/4/1 20/4/1
f 25/4/1 24/4/1 23/4/1
f 25/4/1 23/4/1 22/4/1
f 25/4/1 22/4/1 21/4/1
f 25/4/1 19/4/1 18/4/1
f 25/4/1 20/4/1 19/4/1
f 25/4/1 17/4/1 16/4/1
f 25/4/1 18/4/1 17/4/1
f 25/4/1 16/4/1 15/4/1
f 26/4/1 24/4/1 25/4/1
f 33/6/1 28/6/1 27/6/1
f 34/6/1 28/6/1 33/6/1
f 35/6/1 30/6/1 29/6/1
f 36/6/1 30/6/1 35/6/1
f 37/6/1 32/6/1 31/6/1
f 38/6/1 32/6/1 37/6/1
f 39/5/1 29/5/1 28/5/1
f 39/6/1 28/6/1 34/6/1
f 40/6/1 35/6/1 29/6/1
f 40/5/1 29/5/1 39/5/1
f 41/6/1 35/6/1 40/6/1
f 42/5/1 36/5/1 35/5/1
f 42/6/1 35/6/1 41/6/1
f 43/6/1 30/6/1 36/6/1
f 43/5/1 36/5/1 42/5/1
f 44/6/1 30/6/1 43/6/1
f 45/5/1 31/5/1 30/5/1
f 45/6/1 30/6/1 44/6/1
f 46/6/1 37/6/1 31/6/1
f 46/5/1 31/5/1 45/5/1
f 47/6/1 33/6/1 27/6/1
f 48/5/1 34/5/1 33/5/1
f 48/6/1 33/6/1 47/6/1
f 49/6/1 39/6/1 34/6/1
f 49/5/1 34/5/1 48/5/1
f 49/6/1 40/6/1 39/6/1
f 50/6/1 40/6/1 49/6/1
f 51/2/1 41/2/1 40/2/1
f 51/6/1 40/6/1 50/6/1
f 52/3/1 42/3/1 41/3/1
f 52/2/1 41/2/1 51/2/1
f 52/3/1 44/3/1 43/3/1
f 52/3/1 43/3/1 42/3/1
f 53/2/1 45/2/1 44/2/1
f 53/3/1 44/3/1 52/3/1
f 54/6/1 46/6/1 45/6/1
f 54/2/1 45/2/1 53/2/1
f 55/6/1 37/6/1 46/6/1
f 55/6/1 46/6/1 54/6/1
f 56/5/1 38/5/1 37/5/1
f 56/6/1 37/6/1 55/6/1
f 57/6/1 32/6/1 38/6/1
f 57/5/1 38/5/1 56/5/1
f 58/6/1 32/6/1 57/6/1
f 59/6/1 51/6/1 50/6/1
f 59/2/1 49/2/1 48/2/1
f 59/2/1 48/2/1 47/2/1
f 59/2/1 50/2/1 49/2/1
f 59/6/1 52/6/1 51/6/1
f 60/6/1 52/6/1 59/6/1
f 61/1/1 53/1/1 52/1/1
f 61/6/1 52/6/1 60/6/1
f 62/6/1 55/6/1 54/6/1
f 62/1/1 53/1/1 61/1/1
f 62/6/1 54/6/1 53/6/1
f 63/6/1 55/6/1 62/6/1
f 64/2/1 56/2/1 55/2/1
f 64/6/1 55/6/1 63/6/1
f 64/2/1 58/2/1 57/2/1
f 64/2/1 57/2/1 56/2/1
f 65/6/1 63/6/1 62/6/1
f 65/6/1 61/6/1 60/6/1
f 65/6/1 62/6/1 61/6/1
f 65/2/1 60/2/1 59/2/1
f 66/6/1 63/6/1 65/6/1
f 67/6/1 63/6/1 66/6/1
f 68/2/1 64/2/1 63/2/1
f 68/6/1 63/6/1 67/6/1
f 69/2/1 59/2/1 47/2/1
f 69/2/1 65/2/1 59/2/1
f 69/2/1 66/2/1 65/2/1
f 70/2/1 66/2/1 69/2/1
f 71/2/1 68/2/1 67/2/1
f 72/2/1 58/2/1 64/2/1
f 72/2/1 68/2/1 71/2/1
f 72/2/1 64/2/1 68/2/1
f 73/2/1 69/2/1 47/2/1
f 74/2/1 69/2/1 73/2/1
f 77/2/1 66/2/1 70/2/1
f 78/2/1 66/2/1 77/2/1
f 79/2/1 71/2/1 67/2/1
f 80/2/1 71/2/1 79/2/1
f 83/2/1 58/2/1 72/2/1
f 84/2/1 58/2/1 83/2/1
f 85/6/1 76/6/1 75/6/1
f 85/2/1 75/2/1 74/2/1
f 86/6/1 76/6/1 85/6/1
f 87/6/1 82/6/1 81/6/1
f 87/2/1 81/2/1 80/2/1
f 88/6/1 82/6/1 87/6/1
f 89/2/1 85/2/1 74/2/1
f 90/1/1 86/1/1 85/1/1
f 90/2/1 85/2/1 89/2/1
f 91/6/1 76/6/1 86/6/1
f 91/1/1 86/1/1 90/1/1
f 92/2/1 77/2/1 76/2/1
f 92/6/1 76/6/1 91/6/1
f 93/2/1 77/2/1 92/2/1
f 94/2/1 79/2/1 78/2/1
f 95/2/1 79/2/1 94/2/1
f 96/2/1 87/2/1 80/2/1
f 97/1/1 88/1/1 87/1/1
f 97/2/1 87/2/1 96/2/1
f 98/6/1 82/6/1 88/6/1
f 98/1/1 88/1/1 97/1/1
f 99/2/1 83/2/1 82/2/1
f 99/6/1 82/6/1 98/6/1
f 100/2/1 83/2/1 99/2/1
f 111/2/1 102/2/1 101/2/1
f 111/6/1 103/6/1 102/6/1
f 112/2/1 104/2/1 103/2/1
f 112/6/1 103/6/1 111/6/1
f 113/6/1 105/6/1 104/6/1
f 113/2/1 104/2/1 112/2/1
f 114/2/1 106/2/1 105/2/1
f 114/6/1 105/6/1 113/6/1
f 115/6/1 107/6/1 106/6/1
f 115/2/1 106/2/1 114/2/1
f 116/2/1 108/2/1 107/2/1
f 116/6/1 107/6/1 115/6/1
f 117/6/1 109/6/1 108/6/1
f 117/2/1 108/2/1 116/2/1
f 118/2/1 110/2/1 109/2/1
f 118/6/1 109/6/1 117/6/1
f 119/2/1 112/2/1 111/2/1
f 119/6/1 113/6/1 112/6/1
f 120/2/1 116/2/1 115/2/1
f 120/6/1 113/6/1 119/6/1
f 120/2/1 115/2/1 114/2/1
f 120/2/1 114/2/1 113/2/1
f 121/6/1 117/6/1 116/6/1
f 121/2/1 116/2/1 120/2/1
f 122/2/1 118/2/1 117/2/1
f 122/6/1 117/6/1 121/6/1
f 123/2/1 119/2/1 111/2/1
f 123/2/1 120/2/1 119/2/1
f 123/2/1 122/2/1 121/2/1
f 123/2/1 121/2/1 120/2/1
f 123/2/1 111/2/1 101/2/1
f 124/2/1 122/2/1 123/2/1
f 125/2/1 122/2/1 124/2/1
f 126/2/1 122/2/1 125/2/1
f 127/2/1 118/2/1 122/2/1
f 127/2/1 122/2/1 126/2/1
f 127/2/1 110/2/1 118/2/1
f 128/2/1 110/2/1 127/2/1
f 129/2/1 125/2/1 124/2/1
f 130/6/1 126/6/1 125/6/1
f 130/2/1 125/2/1 129/2/1
f 131/2/1 127/2/1 126/2/1
f 131/6/1 126/6/1 130/6/1
f 132/2/1 127/2/1 131/2/1
f 137/3/1 134/3/1 133/3/1
f 138/3/1 136/3/1 135/3/1
f 139/3/1 137/3/1 133/3/1
f 140/3/1 136/3/1 138/3/1
f 141/3/1 139/3/1 133/3/1
f 142/3/1 139/3/1 141/3/1
f 143/3/1 136/3/1 140/3/1
f 144/3/1 136/3/1 143/3/1
f 145/6/2 146/6/2 147/6/2
f 147/6/2 146/6/2 148/6/2
f 149/6/2 150/6/2 153/6/2
f 153/6/2 150/6/2 154/6/2
f 151/6/2 152/6/2 155/6/2
f 155/6/2 152/6/2 156/6/2
f 157/3/2 158/3/2 161/3/2
f 161/3/2 158/3/2 162/3/2
f 159/3/2 160/3/2 163/3/2
f 163/3/2 160/3/2 164/3/2
f 165/4/2 166/4/2 169/4/2
f 169/4/2 166/4/2 170/4/2
f 167/4/2 168/4/2 171/4/2
f 171/4/2 168/4/2 172/4/2
f 173/4/2 174/4/2 177/4/2
f 177/4/2 174/4/2 178/4/2
f 175/4/2 176/4/2 179/4/2
f 179/4/2 176/4/2 180/4/2
f 181/2/2 182/2/2 183/2/2
f 183/2/2 182/2/2 184/2/2
f 183/6/2 184/6/2 185/6/2
f 185/6/2 184/6/2 186/6/2
f 186/6/2 184/6/2 187/6/2
f 187/6/2 184/6/2 188/6/2
f 186/6/2 187/6/2 189/6/2
f 189/6/2 187/6/2 190/6/2
f 194/4/3 192/4/3 191/4/3
f 195/3/3 194/3/3 193/3/3
f 196/3/3 194/3/3 195/3/3
f 197/4/3 192/4/3 194/4/3
f 197/3/3 194/3/3 196/3/3
f 198/4/3 192/4/3 197/4/3
f 199/4/3 197/4/3 196/4/3
f 200/4/3 197/4/3 199/4/3
f 205/4/3 202/4/3 201/4/3
f 206/4/3 202/4/3 205/4/3
f 209/6/3 204/6/3 203/6/3
f 210/2/3 205/2/3 204/2/3
f 210/6/3 204/6/3 209/6/3
f 210/2/3 206/2/3 205/2/3
f 211/6/3 209/6/3 203/6/3
f 211/5/3 210/5/3 209/5/3
f 212/2/3 206/2/3 210/2/3
f 212/5/3 210/5/3 211/5/3
f 213/2/3 206/2/3 212/2/3
f 214/2/3 208/2/3 207/2/3
f 215/2/3 208/2/3 214/2/3
f 216/6/3 213/6/3 212/6/3
f 216/6/3 212/6/3 211/6/3
f 217/6/3 213/6/3 216/6/3
f 218/2/3 208/2/3 215/2/3
f 218/6/3 215/6/3 214/6/3
f 219/2/3 208/2/3 218/2/3
f 220/2/3 208/2/3 219/2/3
f 221/2/3 208/2/3 220/2/3
f 222/6/3 211/6/3 203/6/3
f 222/6/3 216/6/3 211/6/3
f 223/6/3 216/6/3 222/6/3
f 224/6/3 216/6/3 223/6/3
f 225/5/3 217/5/3 216/5/3
f 225/6/3 216/6/3 224/6/3
f 226/6/3 213/6/3 217/6/3
f 226/5/3 217/5/3 225/5/3
f 227/6/3 213/6/3 226/6/3
f 228/6/3 220/6/3 219/6/3
f 229/6/3 220/6/3 228/6/3
f 230/5/3 221/5/3 220/5/3
f 230/6/3 220/6/3 229/6/3
f 231/5/3 221/5/3 230/5/3
f 232/6/3 218/6/3 214/6/3
f 232/5/3 219/5/3 218/5/3
f 233/6/3 228/6/3 219/6/3
f 233/5/3 219/5/3 232/5/3
f 234/2/3 224/2/3 223/2/3
f 237/6/3 232/6/3 214/6/3
f 237/6/3 233/6/3 232/6/3
f 238/6/3 228/6/3 233/6/3
f 238/5/3 229/5/3 228/5/3
f 238/6/3 233/6/3 237/6/3
f 239/6/3 231/6/3 230/6/3
f 239/5/3 229/5/3 238/5/3
f 239/6/3 230/6/3 229/6/3
f 240/6/3 235/6/3 234/6/3
f 241/6/3 237/6/3 236/6/3
f 241/6/3 238/6/3 237/6/3
f 241/6/3 239/6/3 238/6/3
f 242/2/3 234/2/3 223/2/3
f 243/6/3 240/6/3 234/6/3
f 243/2/3 234/2/3 242/2/3
f 243/6/3 241/6/3 240/6/3
f 244/6/3 239/6/3 241/6/3
f 244/6/3 241/6/3 243/6/3
f 244/6/3 231/6/3 239/6/3
f 247/4/3 246/4/3 245/4/3
f 248/4/3 246/4/3 247/4/3
f 251/2/3 250/2/3 249/2/3
f 252/2/3 250/2/3 251/2/3
f 253/6/3 252/6/3 251/6/3
f 254/6/3 252/6/3 253/6/3
f 255/6/3 252/6/3 254/6/3
f 256/6/3 252/6/3 255/6/3
f 259/4/3 258/4/3 257/4/3
f 260/4/3 258/4/3 259/4/3
f 263/3/3 262/3/3 261/3/3
f 264/3/3 262/3/3 263/3/3
f 267/4/3 266/4/3 265/4/3
f 268/4/3 266/4/3 267/4/3
f 271/4/3 270/4/3 269/4/3
f 272/4/3 270/4/3 271/4/3
f 275/4/3 274/4/3 273/4/3
f 276/4/3 274/4/3 275/4/3
f 279/6/3 278/6/3 277/6/3
f 280/6/3 278/6/3 279/6/3
f 281/4/4 282/4/4 283/4/4
f 283/4/4 282/4/4 284/4/4
f 285/6/4 286/6/4 287/6/4
f 287/6/4 286/6/4 288/6/4
f 289/4/4 290/4/4 291/4/4
f 291/4/4 290/4/4 292/4/4
f 293/4/4 294/4/4 295/4/4
f 295/4/4 294/4/4 296/4/4
f 297/3/4 298/3/4 299/3/4
f 299/3/4 298/3/4 300/3/4
f 301/4/4 302/4/4 303/4/4
f 303/4/4 302/4/4 304/4/4
f 305/4/4 306/4/4 307/4/4
f 307/4/4 306/4/4 308/4/4
f 309/2/4 310/2/4 311/2/4
f 311/2/4 310/2/4 312/2/4
f 311/6/4 312/6/4 313/6/4
f 313/6/4 312/6/4 314/6/4
f 314/6/4 312/6/4 315/6/4
f 315/6/4 312/6/4 316/6/4
f 317/4/4 318/4/4 321/4/4
f 321/4/4 318/4/4 322/4/4
f 319/6/4 320/6/4 325/6/4
f 320/2/4 321/2/4 326/2/4
f 325/6/4 320/6/4 326/6/4
f 321/2/4 322/2/4 326/2/4
f 319/6/4 325/6/4 327/6/4
f 325/5/4 326/5/4 327/5/4
f 326/2/4 322/2/4 328/2/4
f 327/5/4 326/5/4 328/5/4
f 328/2/4 322/2/4 329/2/4
f 323/2/4 324/2/4 330/2/4
f 330/2/4 324/2/4 331/2/4
f 328/6/4 329/6/4 332/6/4
f 327/6/4 328/6/4 332/6/4
f 332/6/4 329/6/4 333/6/4
f 331/2/4 324/2/4 334/2/4
f 330/6/4 331/6/4 334/6/4
f 334/2/4 324/2/4 335/2/4
f 335/2/4 324/2/4 336/2/4
f 336/2/4 324/2/4 337/2/4
f 319/6/4 327/6/4 338/6/4
f 327/6/4 332/6/4 338/6/4
f 338/6/4 332/6/4 339/6/4
f 339/6/4 332/6/4 340/6/4
f 332/5/4 333/5/4 341/5/4
f 340/6/4 332/6/4 341/6/4
f 333/6/4 329/6/4 342/6/4
f 341/5/4 333/5/4 342/5/4
f 342/6/4 329/6/4 343/6/4
f 335/6/4 336/6/4 344/6/4
f 344/6/4 336/6/4 345/6/4
f 336/5/4 337/5/4 346/5/4
f 345/6/4 336/6/4 346/6/4
f 346/5/4 337/5/4 347/5/4
f 330/6/4 334/6/4 348/6/4
f 334/5/4 335/5/4 348/5/4
f 335/6/4 344/6/4 349/6/4
f 348/5/4 335/5/4 349/5/4
f 339/2/4 340/2/4 350/2/4
f 330/6/4 348/6/4 353/6/4
f 348/6/4 349/6/4 353/6/4
f 349/6/4 344/6/4 354/6/4
f 344/5/4 345/5/4 354/5/4
f 353/6/4 349/6/4 354/6/4
f 346/6/4 347/6/4 355/6/4
f 354/5/4 345/5/4 355/5/4
f 345/6/4 346/6/4 355/6/4
f 350/6/4 351/6/4 356/6/4
f 352/6/4 353/6/4 357/6/4
f 353/6/4 354/6/4 357/6/4
f 354/6/4 355/6/4 357/6/4
f 339/2/4 350/2/4 358/2/4
f 350/6/4 356/6/4 359/6/4
f 358/2/4 350/2/4 359/2/4
f 356/6/4 357/6/4 359/6/4
f 357/6/4 355/6/4 360/6/4
f 359/6/4 357/6/4 360/6/4
f 355/6/4 347/6/4 360/6/4
f 361/4/4 362/4/4 364/4/4
f 363/3/4 364/3/4 365/3/4
f 365/3/4 364/3/4 366/3/4
f 364/4/4 362/4/4 367/4/4
f 366/3/4 364/3/4 367/3/4
f 367/4/4 362/4/4 368/4/4
f 366/4/4 367/4/4 369/4/4
f 369/4/4 367/4/4 370/4/4
f 373/6/5 372/6/5 371/6/5
f 374/6/5 372/6/5 373/6/5
f 375/6/5 373/6/5 371/6/5
f 376/6/5 373/6/5 375/6/5
f 377/5/5 376/5/5 375/5/5
f 378/6/5 373/6/5 376/6/5
f 378/5/5 376/5/5 377/5/5
f 379/6/5 378/6/5 377/6/5
f 380/6/5 373/6/5 378/6/5
f 380/6/5 378/6/5 379/6/5
f 381/5/5 380/5/5 379/5/5
f 382/6/5 373/6/5 380/6/5
f 382/5/5 380/5/5 381/5/5
f 383/6/5 382/6/5 381/6/5
f 383/6/5 373/6/5 382/6/5
f 385/6/5 383/6/5 381/6/5
f 385/6/5 384/6/5 383/6/5
f 386/6/5 384/6/5 385/6/5
f 390/2/5 388/2/5 387/2/5
f 391/2/5 390/2/5 389/2/5
f 392/2/5 388/2/5 390/2/5
f 392/2/5 390/2/5 391/2/5
f 393/2/5 388/2/5 392/2/5
f 394/2/5 388/2/5 393/2/5
f 397/3/5 396/3/5 395/3/5
f 398/3/5 396/3/5 397/3/5
f 401/3/5 400/3/5 399/3/5
f 402/3/5 400/3/5 401/3/5
f 405/3/5 404/3/5 403/3/5
f 406/3/5 404/3/5 405/3/5
f 409/4/5 408/4/5 407/4/5
f 410/4/5 408/4/5 409/4/5
f 413/4/5 412/4/5 411/4/5
f 414/4/5 412/4/5 413/4/5
f 417/4/5 416/4/5 415/4/5
f 418/4/5 416/4/5 417/4/5
f 421/4/5 420/4/5 419/4/5
f 422/4/5 420/4/5 421/4/5
f 425/4/5 424/4/5 423/4/5
f 426/4/5 424/4/5 425/4/5
f 429/4/5 428/4/5 427/4/5
f 430/4/5 428/4/5 429/4/5
f 433/4/5 432/4/5 431/4/5
f 434/4/5 432/4/5 433/4/5
f 437/4/5 436/4/5 435/4/5
f 438/4/5 436/4/5 437/4/5
f 441/4/5 440/4/5 439/4/5
f 442/4/5 440/4/5 441/4/5
f 443/4/5 440/4/5 442/4/5
f 444/4/5 440/4/5 443/4/5
f 447/4/5 446/4/5 445/4/5
f 448/4/5 447/4/5 445/4/5
f 449/4/5 448/4/5 445/4/5
f 450/4/5 449/4/5 445/4/5
f 451/4/5 449/4/5 450/4/5
f 454/4/5 453/4/5 452/4/5
f 455/4/5 453/4/5 454/4/5
f 458/4/5 457/4/5 456/4/5
f 459/4/5 458/4/5 456/4/5
f 460/4/5 459/4/5 456/4/5
f 461/4/5 460/4/5 456/4/5
f 462/4/5 460/4/5 461/4/5
f 467/4/5 464/4/5 463/4/5
f 467/4/5 466/4/5 465/4/5
f 467/4/5 465/4/5 464/4/5
f 468/4/5 466/4/5 467/4/5
f 469/4/6 470/4/6 471/4/6
f 469/4/6 471/4/6 472/4/6
f 469/4/6 472/4/6 473/4/6
f 473/4/6 472/4/6 474/4/6
f 475/3/6 476/3/6 477/3/6
f 477/3/6 476/3/6 478/3/6
f 479/4/6 480/4/6 481/4/6
f 479/4/6 481/4/6 482/4/6
f 479/4/6 482/4/6 483/4/6
f 483/4/6 482/4/6 484/4/6
f 485/4/6 486/4/6 487/4/6
f 487/4/6 486/4/6 488/4/6
f 489/4/6 490/4/6 491/4/6
f 491/4/6 490/4/6 492/4/6
f 493/4/6 494/4/6 495/4/6
f 495/4/6 494/4/6 496/4/6
f 496/4/6 494/4/6 497/4/6
f 493/4/6 495/4/6 498/4/6
f 493/4/6 498/4/6 499/4/6
f 493/4/6 499/4/6 500/4/6
f 493/4/6 500/4/6 501/4/6
f 493/4/6 501/4/6 502/4/6
f 493/4/6 502/4/6 503/4/6
f 493/4/6 503/4/6 504/4/6
f 493/4/6 504/4/6 505/4/6
f 493/4/6 505/4/6 506/4/6
f 493/4/6 506/4/6 509/4/6
f 507/4/6 508/4/6 509/4/6
f 506/4/6 507/4/6 509/4/6
f 509/4/6 508/4/6 510/4/6
f 511/2/6 512/2/6 515/2/6
f 515/2/6 512/2/6 516/2/6
f 512/5/6 513/5/6 517/5/6
f 516/2/6 512/2/6 517/2/6
f 513/6/6 514/6/6 518/6/6
f 517/5/6 513/5/6 518/5/6
f 518/6/6 514/6/6 519/6/6
f 520/2/6 521/2/6 525/2/6
f 521/2/6 522/2/6 525/2/6
f 522/5/6 523/5/6 526/5/6
f 525/2/6 522/2/6 526/2/6
f 523/6/6 524/6/6 527/6/6
f 526/5/6 523/5/6 527/5/6
f 527/6/6 524/6/6 528/6/6
f 529/2/6 530/2/6 532/2/6
f 530/6/6 531/6/6 533/6/6
f 532/2/6 530/2/6 533/2/6
f 529/2/6 532/2/6 534/2/6
f 532/6/6 533/6/6 535/6/6
f 534/2/6 532/2/6 535/2/6
f 534/6/6 535/6/6 536/6/6
f 535/6/6 533/6/6 537/6/6
f 536/6/6 535/6/6 537/6/6
f 536/2/6 537/2/6 538/2/6
f 537/6/6 533/6/6 538/6/6
f 533/6/6 531/6/6 539/6/6
f 538/6/6 533/6/6 539/6/6
f 536/2/6 538/2/6 540/2/6
f 538/2/6 539/2/6 540/2/6
f 539/6/6 531/6/6 541/6/6
f 540/2/6 539/2/6 541/2/6
f 541/6/6 531/6/6 542/6/6
