# MagicaVoxel @ Ephtracy

# group
o Face

# material
mtllib Voxel Universe-26-Face.mtl
usemtl palette

# normals
vn -1 0 0
vn 1 0 0
vn 0 0 1
vn 0 0 -1
vn 0 -1 0
vn 0 1 0

# texcoords
vt 0.0410156 0.5
vt 0.0683594 0.5
vt 0.134766 0.5
vt 0.248047 0.5
vt 0.251953 0.5
vt 0.419922 0.5
vt 0.958984 0.5
vt 0.994141 0.5

# verts
v -15.7 0.4 18
v -15.7 0.4 17.8
v -15.7 0.6 18
v -15.7 0.6 17.8
v -15.6 0.6 18
v -15.6 0.6 17.8
v -15.6 0.8 18
v -15.6 0.8 17.8
v -15.5 0.6 18.7
v -15.5 0.6 18
v -15.5 0.6 17.8
v -15.5 0.6 17.1
v -15.5 0.7 18.6
v -15.5 0.7 18.1
v -15.5 0.7 17.7
v -15.5 0.7 17.2
v -15.5 0.8 18
v -15.5 0.8 17.8
v -15.5 0.9 18.6
v -15.5 0.9 18.1
v -15.5 0.9 17.7
v -15.5 0.9 17.2
v -15.5 1 18.7
v -15.5 1 17.1
v -15.5 1.2 18.7
v -15.5 1.2 17.1
v -15.5 1.4 18.7
v -15.5 1.4 17.1
v -15.5 1.5 18.7
v -15.5 1.5 17.1
v -15.4 0 18.6
v -15.4 0 17.2
v -15.4 0.2 18.1
v -15.4 0.2 18
v -15.4 0.2 17.8
v -15.4 0.2 17.7
v -15.4 0.3 18.1
v -15.4 0.3 18
v -15.4 0.3 17.8
v -15.4 0.3 17.7
v -15.4 0.4 18
v -15.4 0.4 17.8
v -15.4 0.6 18.6
v -15.4 0.6 18
v -15.4 0.6 17.8
v -15.4 0.6 17.2
v -15.4 0.7 18.6
v -15.4 0.7 18.1
v -15.4 0.7 17.7
v -15.4 0.7 17.2
v -15.4 0.9 18.6
v -15.4 0.9 18.1
v -15.4 0.9 17.7
v -15.4 0.9 17.2
v -15.4 1 18.6
v -15.4 1 18.5
v -15.4 1 18.1
v -15.4 1 17.7
v -15.4 1 17.3
v -15.4 1 17.2
v -15.4 1.1 18.5
v -15.4 1.1 18.1
v -15.4 1.1 17.7
v -15.4 1.1 17.3
v -15.4 1.2 18.6
v -15.4 1.2 17.2
v -15.4 1.5 18.6
v -15.4 1.5 17.2
v -15.4 1.8 18.4
v -15.4 1.8 18.2
v -15.4 1.8 18
v -15.4 1.8 17.8
v -15.4 1.8 17.6
v -15.4 1.8 17.4
v -15.4 1.9 18.6
v -15.4 1.9 18.4
v -15.4 1.9 18.2
v -15.4 1.9 18
v -15.4 1.9 17.8
v -15.4 1.9 17.6
v -15.4 1.9 17.4
v -15.4 1.9 17.2
v -15 0.4 18.7
v -15 0.4 18.6
v -15 0.4 17.2
v -15 0.4 17.1
v -15 0.5 18.6
v -15 0.5 17.2
v -15 0.9 18.7
v -15 0.9 18.6
v -15 0.9 17.2
v -15 0.9 17.1
v -15.4 0.6 18.7
v -15.4 0.6 18.6
v -15.4 0.6 17.2
v -15.4 0.6 17.1
v -15.4 0.7 18.6
v -15.4 0.7 17.2
v -15.4 0.9 18.7
v -15.4 0.9 18.6
v -15.4 0.9 17.2
v -15.4 0.9 17.1
v -14.8 0.4 18.7
v -14.8 0.4 18.6
v -14.8 0.4 17.2
v -14.8 0.4 17.1
v -14.8 0.5 18.6
v -14.8 0.5 17.2
v -14.8 0.8 18.7
v -14.8 0.8 18.6
v -14.8 0.8 17.2
v -14.8 0.8 17.1
v -14.7 0.8 18.7
v -14.7 0.8 18.6
v -14.7 0.8 17.2
v -14.7 0.8 17.1
v -14.7 1 18.7
v -14.7 1 18.6
v -14.7 1 17.2
v -14.7 1 17.1
v -14.4 0 18.6
v -14.4 0 17.2
v -14.4 0.5 18.6
v -14.4 0.5 17.2
v -14.4 1.2 18.6
v -14.4 1.2 17.2
v -14.4 1.5 18.6
v -14.4 1.5 17.2
v -14.4 1.8 18.4
v -14.4 1.8 18.2
v -14.4 1.8 18
v -14.4 1.8 17.8
v -14.4 1.8 17.6
v -14.4 1.8 17.4
v -14.4 1.9 18.6
v -14.4 1.9 18.4
v -14.4 1.9 18.2
v -14.4 1.9 18
v -14.4 1.9 17.8
v -14.4 1.9 17.6
v -14.4 1.9 17.4
v -14.4 1.9 17.2
v -14.3 1.2 18.7
v -14.3 1.2 17.1
v -14.3 1.4 18.7
v -14.3 1.4 17.1
v -14.3 1.5 18.7
v -14.3 1.5 17.1
v -15.5 0.6 18.7
v -15.5 1 18.7
v -15.5 1.2 18.7
v -15.5 1.4 18.7
v -15.5 1.5 18.7
v -15.4 0.6 18.7
v -15.4 0.9 18.7
v -15 0.4 18.7
v -15 0.9 18.7
v -14.8 0.4 18.7
v -14.8 0.8 18.7
v -14.8 0.9 18.7
v -14.7 0.8 18.7
v -14.7 1 18.7
v -14.3 1.2 18.7
v -14.3 1.4 18.7
v -14.3 1.5 18.7
v -15.4 0 18.6
v -15.4 0.6 18.6
v -15.4 0.7 18.6
v -15.4 0.9 18.6
v -15.4 1 18.6
v -15.4 1.2 18.6
v -15.4 1.5 18.6
v -15.4 1.9 18.6
v -15.3 0.7 18.6
v -15.3 0.9 18.6
v -15.3 1 18.6
v -15.3 1.2 18.6
v -15.2 0.5 18.6
v -15.2 0.9 18.6
v -15 0.4 18.6
v -15 0.5 18.6
v -15 0.9 18.6
v -14.8 0.4 18.6
v -14.8 0.5 18.6
v -14.8 0.8 18.6
v -14.7 0.8 18.6
v -14.7 1 18.6
v -14.4 0 18.6
v -14.4 0.5 18.6
v -14.4 1.2 18.6
v -14.4 1.5 18.6
v -14.4 1.9 18.6
v -15.4 1.8 18.2
v -15.4 1.9 18.2
v -14.4 1.8 18.2
v -14.4 1.9 18.2
v -15.5 0.7 18.1
v -15.5 0.9 18.1
v -15.4 0.7 18.1
v -15.4 0.9 18.1
v -15.7 0.4 18
v -15.7 0.6 18
v -15.6 0.6 18
v -15.6 0.8 18
v -15.5 0.6 18
v -15.5 0.8 18
v -15.4 0.4 18
v -15.4 0.6 18
v -15.4 1.8 17.8
v -15.4 1.9 17.8
v -14.4 1.8 17.8
v -14.4 1.9 17.8
v -15.4 1.8 17.4
v -15.4 1.9 17.4
v -14.4 1.8 17.4
v -14.4 1.9 17.4
v -15.5 0.7 17.2
v -15.5 0.9 17.2
v -15.4 0.7 17.2
v -15.4 0.9 17.2
v -15.5 0.7 18.6
v -15.5 0.9 18.6
v -15.4 0.7 18.6
v -15.4 0.9 18.6
v -15.4 1.8 18.4
v -15.4 1.9 18.4
v -14.4 1.8 18.4
v -14.4 1.9 18.4
v -15.4 1.8 18
v -15.4 1.9 18
v -14.4 1.8 18
v -14.4 1.9 18
v -15.7 0.4 17.8
v -15.7 0.6 17.8
v -15.6 0.6 17.8
v -15.6 0.8 17.8
v -15.5 0.6 17.8
v -15.5 0.8 17.8
v -15.4 0.4 17.8
v -15.4 0.6 17.8
v -15.5 0.7 17.7
v -15.5 0.9 17.7
v -15.4 0.7 17.7
v -15.4 0.9 17.7
v -15.4 1.8 17.6
v -15.4 1.9 17.6
v -14.4 1.8 17.6
v -14.4 1.9 17.6
v -15.4 0 17.2
v -15.4 0.6 17.2
v -15.4 0.7 17.2
v -15.4 0.9 17.2
v -15.4 1 17.2
v -15.4 1.2 17.2
v -15.4 1.5 17.2
v -15.4 1.9 17.2
v -15.3 0.7 17.2
v -15.3 0.9 17.2
v -15.3 1 17.2
v -15.3 1.2 17.2
v -15.2 0.5 17.2
v -15.2 0.9 17.2
v -15 0.4 17.2
v -15 0.5 17.2
v -15 0.9 17.2
v -14.8 0.4 17.2
v -14.8 0.5 17.2
v -14.8 0.8 17.2
v -14.7 0.8 17.2
v -14.7 1 17.2
v -14.4 0 17.2
v -14.4 0.5 17.2
v -14.4 1.2 17.2
v -14.4 1.5 17.2
v -14.4 1.9 17.2
v -15.5 0.6 17.1
v -15.5 1 17.1
v -15.5 1.2 17.1
v -15.5 1.4 17.1
v -15.5 1.5 17.1
v -15.4 0.6 17.1
v -15.4 0.9 17.1
v -15 0.4 17.1
v -15 0.9 17.1
v -14.8 0.4 17.1
v -14.8 0.8 17.1
v -14.8 0.9 17.1
v -14.7 0.8 17.1
v -14.7 1 17.1
v -14.3 1.2 17.1
v -14.3 1.4 17.1
v -14.3 1.5 17.1
v -15.4 0 18.6
v -14.4 0 18.6
v -15.4 0 17.2
v -14.4 0 17.2
v -15 0.4 18.7
v -14.8 0.4 18.7
v -15 0.4 18.6
v -14.8 0.4 18.6
v -15.7 0.4 18
v -15.4 0.4 18
v -15.7 0.4 17.8
v -15.4 0.4 17.8
v -15 0.4 17.2
v -14.8 0.4 17.2
v -15 0.4 17.1
v -14.8 0.4 17.1
v -15.5 0.6 18.7
v -15.4 0.6 18.7
v -15.4 0.6 18.6
v -15.5 0.6 18
v -15.4 0.6 18
v -15.5 0.6 17.8
v -15.4 0.6 17.8
v -15.4 0.6 17.2
v -15.5 0.6 17.1
v -15.4 0.6 17.1
v -14.8 0.8 18.7
v -14.7 0.8 18.7
v -14.8 0.8 18.6
v -14.7 0.8 18.6
v -14.8 0.8 17.2
v -14.7 0.8 17.2
v -14.8 0.8 17.1
v -14.7 0.8 17.1
v -15.4 0.9 18.7
v -15 0.9 18.7
v -15.5 0.9 18.6
v -15.4 0.9 18.6
v -15.3 0.9 18.6
v -15.2 0.9 18.6
v -15 0.9 18.6
v -15.5 0.9 18.1
v -15.4 0.9 18.1
v -15.5 0.9 17.7
v -15.4 0.9 17.7
v -15.5 0.9 17.2
v -15.4 0.9 17.2
v -15.3 0.9 17.2
v -15.2 0.9 17.2
v -15 0.9 17.2
v -15.4 0.9 17.1
v -15 0.9 17.1
v -15.5 1.2 18.7
v -14.3 1.2 18.7
v -15.4 1.2 18.6
v -15.3 1.2 18.6
v -14.4 1.2 18.6
v -15.4 1.2 17.2
v -15.3 1.2 17.2
v -14.4 1.2 17.2
v -15.5 1.2 17.1
v -14.3 1.2 17.1
v -15.7 0.6 18
v -15.6 0.6 18
v -15.7 0.6 17.8
v -15.6 0.6 17.8
v -15.5 0.7 18.6
v -15.4 0.7 18.6
v -15.5 0.7 18.1
v -15.4 0.7 18.1
v -15.5 0.7 17.7
v -15.4 0.7 17.7
v -15.5 0.7 17.2
v -15.4 0.7 17.2
v -15.6 0.8 18
v -15.5 0.8 18
v -15.6 0.8 17.8
v -15.5 0.8 17.8
v -15.5 1 18.7
v -14.7 1 18.7
v -15.4 1 18.6
v -15.3 1 18.6
v -14.7 1 18.6
v -15.4 1 18.5
v -15.4 1 18.1
v -15.4 1 17.7
v -15.4 1 17.3
v -15.4 1 17.2
v -15.3 1 17.2
v -14.7 1 17.2
v -15.5 1 17.1
v -14.7 1 17.1
v -15.5 1.5 18.7
v -14.3 1.5 18.7
v -15.4 1.5 18.6
v -14.4 1.5 18.6
v -15.4 1.5 17.2
v -14.4 1.5 17.2
v -15.5 1.5 17.1
v -14.3 1.5 17.1
v -15.4 1.8 18.4
v -14.4 1.8 18.4
v -15.4 1.8 18.2
v -14.4 1.8 18.2
v -15.4 1.8 18
v -14.4 1.8 18
v -15.4 1.8 17.8
v -14.4 1.8 17.8
v -15.4 1.8 17.6
v -14.4 1.8 17.6
v -15.4 1.8 17.4
v -14.4 1.8 17.4
v -15.4 1.9 18.6
v -14.4 1.9 18.6
v -15.4 1.9 18.4
v -14.4 1.9 18.4
v -15.4 1.9 18.2
v -14.4 1.9 18.2
v -15.4 1.9 18
v -14.4 1.9 18
v -15.4 1.9 17.8
v -14.4 1.9 17.8
v -15.4 1.9 17.6
v -14.4 1.9 17.6
v -15.4 1.9 17.4
v -14.4 1.9 17.4
v -15.4 1.9 17.2
v -14.4 1.9 17.2

# faces
f 3/4/1 2/4/1 1/4/1
f 4/4/1 2/4/1 3/4/1
f 7/4/1 6/4/1 5/4/1
f 8/4/1 6/4/1 7/4/1
f 13/7/1 10/7/1 9/7/1
f 14/7/1 10/7/1 13/7/1
f 15/7/1 12/7/1 11/7/1
f 16/7/1 12/7/1 15/7/1
f 17/7/1 10/7/1 14/7/1
f 18/7/1 15/7/1 11/7/1
f 19/7/1 13/7/1 9/7/1
f 20/7/1 18/7/1 17/7/1
f 20/7/1 17/7/1 14/7/1
f 21/7/1 15/7/1 18/7/1
f 21/7/1 18/7/1 20/7/1
f 22/7/1 12/7/1 16/7/1
f 23/7/1 21/7/1 20/7/1
f 23/7/1 22/7/1 21/7/1
f 23/7/1 19/7/1 9/7/1
f 23/7/1 20/7/1 19/7/1
f 24/7/1 12/7/1 22/7/1
f 24/7/1 22/7/1 23/7/1
f 27/1/1 26/1/1 25/1/1
f 28/1/1 26/1/1 27/1/1
f 29/2/1 28/2/1 27/2/1
f 30/2/1 28/2/1 29/2/1
f 33/3/1 32/3/1 31/3/1
f 34/3/1 32/3/1 33/3/1
f 35/3/1 32/3/1 34/3/1
f 36/3/1 32/3/1 35/3/1
f 37/3/1 33/3/1 31/3/1
f 37/6/1 34/6/1 33/6/1
f 38/8/1 35/8/1 34/8/1
f 38/6/1 34/6/1 37/6/1
f 39/6/1 36/6/1 35/6/1
f 39/8/1 35/8/1 38/8/1
f 40/3/1 32/3/1 36/3/1
f 40/6/1 36/6/1 39/6/1
f 41/3/1 39/3/1 38/3/1
f 41/3/1 38/3/1 37/3/1
f 41/3/1 40/3/1 39/3/1
f 42/3/1 40/3/1 41/3/1
f 43/3/1 37/3/1 31/3/1
f 43/3/1 41/3/1 37/3/1
f 44/3/1 41/3/1 43/3/1
f 45/3/1 40/3/1 42/3/1
f 46/3/1 32/3/1 40/3/1
f 46/3/1 40/3/1 45/3/1
f 51/8/1 48/8/1 47/8/1
f 52/8/1 48/8/1 51/8/1
f 53/8/1 50/8/1 49/8/1
f 54/8/1 50/8/1 53/8/1
f 61/3/1 56/3/1 55/3/1
f 61/6/1 57/6/1 56/6/1
f 62/3/1 58/3/1 57/3/1
f 62/6/1 57/6/1 61/6/1
f 63/6/1 59/6/1 58/6/1
f 63/3/1 58/3/1 62/3/1
f 64/3/1 60/3/1 59/3/1
f 64/6/1 59/6/1 63/6/1
f 65/3/1 63/3/1 62/3/1
f 65/3/1 62/3/1 61/3/1
f 65/3/1 64/3/1 63/3/1
f 65/3/1 61/3/1 55/3/1
f 66/3/1 60/3/1 64/3/1
f 66/3/1 64/3/1 65/3/1
f 69/1/1 68/1/1 67/1/1
f 70/1/1 68/1/1 69/1/1
f 71/1/1 68/1/1 70/1/1
f 72/1/1 68/1/1 71/1/1
f 73/1/1 68/1/1 72/1/1
f 74/1/1 68/1/1 73/1/1
f 75/1/1 69/1/1 67/1/1
f 76/1/1 69/1/1 75/1/1
f 77/1/1 71/1/1 70/1/1
f 78/1/1 71/1/1 77/1/1
f 79/1/1 73/1/1 72/1/1
f 80/1/1 73/1/1 79/1/1
f 81/1/1 68/1/1 74/1/1
f 82/1/1 68/1/1 81/1/1
f 87/3/1 84/3/1 83/3/1
f 88/3/1 86/3/1 85/3/1
f 89/3/1 87/3/1 83/3/1
f 90/3/1 87/3/1 89/3/1
f 91/3/1 86/3/1 88/3/1
f 92/3/1 86/3/1 91/3/1
f 93/7/2 94/7/2 97/7/2
f 95/7/2 96/7/2 98/7/2
f 93/7/2 97/7/2 99/7/2
f 99/7/2 97/7/2 100/7/2
f 98/7/2 96/7/2 101/7/2
f 101/7/2 96/7/2 102/7/2
f 103/3/2 104/3/2 107/3/2
f 105/3/2 106/3/2 108/3/2
f 103/3/2 107/3/2 109/3/2
f 109/3/2 107/3/2 110/3/2
f 108/3/2 106/3/2 111/3/2
f 111/3/2 106/3/2 112/3/2
f 113/7/2 114/7/2 117/7/2
f 117/7/2 114/7/2 118/7/2
f 115/7/2 116/7/2 119/7/2
f 119/7/2 116/7/2 120/7/2
f 121/3/2 122/3/2 123/3/2
f 123/3/2 122/3/2 124/3/2
f 123/6/2 124/6/2 125/6/2
f 125/6/2 124/6/2 126/6/2
f 127/1/2 128/1/2 129/1/2
f 129/1/2 128/1/2 130/1/2
f 130/1/2 128/1/2 131/1/2
f 131/1/2 128/1/2 132/1/2
f 132/1/2 128/1/2 133/1/2
f 133/1/2 128/1/2 134/1/2
f 127/1/2 129/1/2 135/1/2
f 135/1/2 129/1/2 136/1/2
f 130/1/2 131/1/2 137/1/2
f 137/1/2 131/1/2 138/1/2
f 132/1/2 133/1/2 139/1/2
f 139/1/2 133/1/2 140/1/2
f 134/1/2 128/1/2 141/1/2
f 141/1/2 128/1/2 142/1/2
f 143/1/2 144/1/2 145/1/2
f 145/1/2 144/1/2 146/1/2
f 145/2/2 146/2/2 147/2/2
f 147/2/2 146/2/2 148/2/2
f 154/7/3 150/7/3 149/7/3
f 155/7/3 150/7/3 154/7/3
f 157/7/3 150/7/3 155/7/3
f 158/3/3 157/3/3 156/3/3
f 159/3/3 157/3/3 158/3/3
f 160/7/3 150/7/3 157/7/3
f 160/3/3 157/3/3 159/3/3
f 161/7/3 160/7/3 159/7/3
f 162/7/3 150/7/3 160/7/3
f 162/7/3 160/7/3 161/7/3
f 163/1/3 152/1/3 151/1/3
f 164/2/3 153/2/3 152/2/3
f 164/1/3 152/1/3 163/1/3
f 165/2/3 153/2/3 164/2/3
f 174/3/3 167/3/3 166/3/3
f 174/3/3 168/3/3 167/3/3
f 174/8/3 169/8/3 168/8/3
f 175/8/3 169/8/3 174/8/3
f 176/3/3 171/3/3 170/3/3
f 177/3/3 171/3/3 176/3/3
f 178/3/3 175/3/3 174/3/3
f 178/3/3 174/3/3 166/3/3
f 179/3/3 175/3/3 178/3/3
f 180/3/3 178/3/3 166/3/3
f 181/6/3 179/6/3 178/6/3
f 181/3/3 178/3/3 180/3/3
f 182/6/3 179/6/3 181/6/3
f 183/3/3 180/3/3 166/3/3
f 186/6/3 185/6/3 184/6/3
f 187/6/3 177/6/3 176/6/3
f 188/3/3 184/3/3 183/3/3
f 188/3/3 183/3/3 166/3/3
f 189/6/3 186/6/3 184/6/3
f 189/3/3 184/3/3 188/3/3
f 189/6/3 187/6/3 186/6/3
f 190/6/3 177/6/3 187/6/3
f 190/6/3 187/6/3 189/6/3
f 191/1/3 173/1/3 172/1/3
f 192/1/3 173/1/3 191/1/3
f 195/1/3 194/1/3 193/1/3
f 196/1/3 194/1/3 195/1/3
f 199/7/3 198/7/3 197/7/3
f 200/7/3 198/7/3 199/7/3
f 203/4/3 202/4/3 201/4/3
f 205/4/3 203/4/3 201/4/3
f 205/4/3 204/4/3 203/4/3
f 206/4/3 204/4/3 205/4/3
f 207/4/3 205/4/3 201/4/3
f 208/4/3 205/4/3 207/4/3
f 211/1/3 210/1/3 209/1/3
f 212/1/3 210/1/3 211/1/3
f 215/1/3 214/1/3 213/1/3
f 216/1/3 214/1/3 215/1/3
f 219/7/3 218/7/3 217/7/3
f 220/7/3 218/7/3 219/7/3
f 221/7/4 222/7/4 223/7/4
f 223/7/4 222/7/4 224/7/4
f 225/1/4 226/1/4 227/1/4
f 227/1/4 226/1/4 228/1/4
f 229/1/4 230/1/4 231/1/4
f 231/1/4 230/1/4 232/1/4
f 233/4/4 234/4/4 235/4/4
f 233/4/4 235/4/4 237/4/4
f 235/4/4 236/4/4 237/4/4
f 237/4/4 236/4/4 238/4/4
f 233/4/4 237/4/4 239/4/4
f 239/4/4 237/4/4 240/4/4
f 241/7/4 242/7/4 243/7/4
f 243/7/4 242/7/4 244/7/4
f 245/1/4 246/1/4 247/1/4
f 247/1/4 246/1/4 248/1/4
f 249/3/4 250/3/4 257/3/4
f 250/3/4 251/3/4 257/3/4
f 251/8/4 252/8/4 257/8/4
f 257/8/4 252/8/4 258/8/4
f 253/3/4 254/3/4 259/3/4
f 259/3/4 254/3/4 260/3/4
f 257/3/4 258/3/4 261/3/4
f 249/3/4 257/3/4 261/3/4
f 261/3/4 258/3/4 262/3/4
f 249/3/4 261/3/4 263/3/4
f 261/6/4 262/6/4 264/6/4
f 263/3/4 261/3/4 264/3/4
f 264/6/4 262/6/4 265/6/4
f 249/3/4 263/3/4 266/3/4
f 267/6/4 268/6/4 269/6/4
f 259/6/4 260/6/4 270/6/4
f 266/3/4 267/3/4 271/3/4
f 249/3/4 266/3/4 271/3/4
f 267/6/4 269/6/4 272/6/4
f 271/3/4 267/3/4 272/3/4
f 269/6/4 270/6/4 272/6/4
f 270/6/4 260/6/4 273/6/4
f 272/6/4 270/6/4 273/6/4
f 255/1/4 256/1/4 274/1/4
f 274/1/4 256/1/4 275/1/4
f 276/7/4 277/7/4 281/7/4
f 281/7/4 277/7/4 282/7/4
f 282/7/4 277/7/4 284/7/4
f 283/3/4 284/3/4 285/3/4
f 285/3/4 284/3/4 286/3/4
f 284/7/4 277/7/4 287/7/4
f 286/3/4 284/3/4 287/3/4
f 286/7/4 287/7/4 288/7/4
f 287/7/4 277/7/4 289/7/4
f 288/7/4 287/7/4 289/7/4
f 278/1/4 279/1/4 290/1/4
f 279/2/4 280/2/4 291/2/4
f 290/1/4 279/1/4 291/1/4
f 291/2/4 280/2/4 292/2/4
f 295/3/5 294/3/5 293/3/5
f 296/3/5 294/3/5 295/3/5
f 299/3/5 298/3/5 297/3/5
f 300/3/5 298/3/5 299/3/5
f 303/4/5 302/4/5 301/4/5
f 304/4/5 302/4/5 303/4/5
f 307/3/5 306/3/5 305/3/5
f 308/3/5 306/3/5 307/3/5
f 311/7/5 310/7/5 309/7/5
f 312/7/5 311/7/5 309/7/5
f 313/7/5 311/7/5 312/7/5
f 316/7/5 315/7/5 314/7/5
f 317/7/5 316/7/5 314/7/5
f 318/7/5 316/7/5 317/7/5
f 321/7/5 320/7/5 319/7/5
f 322/7/5 320/7/5 321/7/5
f 325/7/5 324/7/5 323/7/5
f 326/7/5 324/7/5 325/7/5
f 330/7/5 328/7/5 327/7/5
f 331/7/5 328/7/5 330/7/5
f 332/7/5 328/7/5 331/7/5
f 333/7/5 328/7/5 332/7/5
f 334/7/5 330/7/5 329/7/5
f 335/7/5 330/7/5 334/7/5
f 338/7/5 337/7/5 336/7/5
f 339/7/5 337/7/5 338/7/5
f 343/7/5 342/7/5 341/7/5
f 343/7/5 341/7/5 340/7/5
f 343/7/5 340/7/5 339/7/5
f 344/7/5 342/7/5 343/7/5
f 347/1/5 346/1/5 345/1/5
f 348/1/5 346/1/5 347/1/5
f 349/1/5 346/1/5 348/1/5
f 350/1/5 347/1/5 345/1/5
f 352/1/5 346/1/5 349/1/5
f 353/1/5 351/1/5 350/1/5
f 353/1/5 352/1/5 351/1/5
f 353/1/5 350/1/5 345/1/5
f 354/1/5 346/1/5 352/1/5
f 354/1/5 352/1/5 353/1/5
f 355/4/6 356/4/6 357/4/6
f 357/4/6 356/4/6 358/4/6
f 359/7/6 360/7/6 361/7/6
f 361/7/6 360/7/6 362/7/6
f 363/7/6 364/7/6 365/7/6
f 365/7/6 364/7/6 366/7/6
f 367/4/6 368/4/6 369/4/6
f 369/4/6 368/4/6 370/4/6
f 371/7/6 372/7/6 373/7/6
f 373/7/6 372/7/6 374/7/6
f 374/7/6 372/7/6 375/7/6
f 371/7/6 373/7/6 376/7/6
f 371/7/6 376/7/6 377/7/6
f 371/7/6 377/7/6 378/7/6
f 371/7/6 378/7/6 379/7/6
f 371/7/6 379/7/6 380/7/6
f 371/7/6 380/7/6 383/7/6
f 381/7/6 382/7/6 383/7/6
f 380/7/6 381/7/6 383/7/6
f 383/7/6 382/7/6 384/7/6
f 385/2/6 386/2/6 387/2/6
f 387/2/6 386/2/6 388/2/6
f 385/2/6 387/2/6 389/2/6
f 388/2/6 386/2/6 390/2/6
f 385/2/6 389/2/6 391/2/6
f 389/2/6 390/2/6 391/2/6
f 390/2/6 386/2/6 392/2/6
f 391/2/6 390/2/6 392/2/6
f 393/1/6 394/1/6 395/1/6
f 395/1/6 394/1/6 396/1/6
f 397/1/6 398/1/6 399/1/6
f 399/1/6 398/1/6 400/1/6
f 401/1/6 402/1/6 403/1/6
f 403/1/6 402/1/6 404/1/6
f 405/1/6 406/1/6 407/1/6
f 407/1/6 406/1/6 408/1/6
f 409/1/6 410/1/6 411/1/6
f 411/1/6 410/1/6 412/1/6
f 413/1/6 414/1/6 415/1/6
f 415/1/6 414/1/6 416/1/6
f 417/1/6 418/1/6 419/1/6
f 419/1/6 418/1/6 420/1/6
