# MagicaVoxel @ Ephtracy

# group
o Face

# material
mtllib Voxel Universe-19-Face.mtl
usemtl palette

# normals
vn -1 0 0
vn 1 0 0
vn 0 0 1
vn 0 0 -1
vn 0 -1 0
vn 0 1 0

# texcoords
vt 0.0332031 0.5
vt 0.0527344 0.5
vt 0.0566406 0.5
vt 0.771484 0.5
vt 0.990234 0.5

# verts
v -5.8 1.2 10.2
v -5.8 1.2 8.8
v -5.8 1.8 10.2
v -5.8 1.8 8.8
v -5.7 1.2 10.4
v -5.7 1.2 10.2
v -5.7 1.2 8.8
v -5.7 1.2 8.6
v -5.7 1.8 10.4
v -5.7 1.8 10.2
v -5.7 1.8 8.8
v -5.7 1.8 8.6
v -5.7 1.9 10.2
v -5.7 1.9 8.8
v -5.6 0.4 9.6
v -5.6 0.4 9.4
v -5.6 0.5 9.6
v -5.6 0.5 9.4
v -5.5 0 10.2
v -5.5 0 8.8
v -5.5 0.1 9.6
v -5.5 0.1 9.4
v -5.5 0.2 9.7
v -5.5 0.2 9.6
v -5.5 0.2 9.4
v -5.5 0.2 9.3
v -5.5 0.3 9.7
v -5.5 0.3 9.3
v -5.5 0.4 10.1
v -5.5 0.4 9.9
v -5.5 0.4 9.6
v -5.5 0.4 9.4
v -5.5 0.4 9.1
v -5.5 0.4 8.9
v -5.5 0.5 9.6
v -5.5 0.5 9.4
v -5.5 0.6 10.1
v -5.5 0.6 9.9
v -5.5 0.6 9.1
v -5.5 0.6 8.9
v -5.5 0.7 10.1
v -5.5 0.7 10
v -5.5 0.7 9.8
v -5.5 0.7 9.2
v -5.5 0.7 9
v -5.5 0.7 8.9
v -5.5 0.8 10.1
v -5.5 0.8 10
v -5.5 0.8 9.8
v -5.5 0.8 9.2
v -5.5 0.8 9
v -5.5 0.8 8.9
v -5.5 0.9 10
v -5.5 0.9 9.8
v -5.5 0.9 9.2
v -5.5 0.9 9
v -5.5 1 10
v -5.5 1 9.8
v -5.5 1 9.2
v -5.5 1 9
v -5.5 1.2 10.2
v -5.5 1.2 8.8
v -5.4 0.8 10.4
v -5.4 0.8 10.2
v -5.4 0.8 8.8
v -5.4 0.8 8.6
v -5.4 1.2 10.4
v -5.4 1.2 10.2
v -5.4 1.2 8.8
v -5.4 1.2 8.6
v -5.1 0.4 10.3
v -5.1 0.4 10.2
v -5.1 0.4 8.8
v -5.1 0.4 8.7
v -5.1 0.8 10.3
v -5.1 0.8 10.2
v -5.1 0.8 8.8
v -5.1 0.8 8.7
v -4.9 0.2 10.4
v -4.9 0.2 10.2
v -4.9 0.2 8.8
v -4.9 0.2 8.6
v -4.9 0.4 10.3
v -4.9 0.4 10.2
v -4.9 0.4 8.8
v -4.9 0.4 8.7
v -4.9 0.8 10.4
v -4.9 0.8 10.3
v -4.9 0.8 8.7
v -4.9 0.8 8.6
v -4.7 0 10.4
v -4.7 0 10.2
v -4.7 0 8.8
v -4.7 0 8.6
v -4.7 0.2 10.4
v -4.7 0.2 10.2
v -4.7 0.2 8.8
v -4.7 0.2 8.6
v -4.5 -0.5 9.8
v -4.5 -0.5 9.2
v -4.5 -0.4 10
v -4.5 -0.4 9.8
v -4.5 -0.4 9.2
v -4.5 -0.4 9
v -4.5 -0.3 10.2
v -4.5 -0.3 10
v -4.5 -0.3 9
v -4.5 -0.3 8.8
v -4.5 -0.2 10.4
v -4.5 -0.2 10.2
v -4.5 -0.2 8.8
v -4.5 -0.2 8.6
v -4.5 0 10.4
v -4.5 0 10.2
v -4.5 0 8.8
v -4.5 0 8.6
v -4.3 -0.5 9.8
v -4.3 -0.5 9.2
v -4.3 -0.4 10
v -4.3 -0.4 9.8
v -4.3 -0.4 9.2
v -4.3 -0.4 9
v -4.3 -0.3 10.2
v -4.3 -0.3 10
v -4.3 -0.3 9
v -4.3 -0.3 8.8
v -4.3 -0.2 10.4
v -4.3 -0.2 10.2
v -4.3 -0.2 8.8
v -4.3 -0.2 8.6
v -4.3 1.8 10.4
v -4.3 1.8 10.2
v -4.3 1.8 8.8
v -4.3 1.8 8.6
v -4.3 1.9 10.2
v -4.3 1.9 8.8
v -4.2 -0.2 10.2
v -4.2 -0.2 8.8
v -4.2 1.8 10.2
v -4.2 1.8 8.8
v -5.7 1.2 10.4
v -5.7 1.8 10.4
v -5.4 0.8 10.4
v -5.4 1.2 10.4
v -4.9 0.2 10.4
v -4.9 0.8 10.4
v -4.7 0 10.4
v -4.7 0.2 10.4
v -4.5 -0.2 10.4
v -4.5 0 10.4
v -4.3 -0.2 10.4
v -4.3 1.8 10.4
v -5.1 0.4 10.3
v -5.1 0.8 10.3
v -4.9 0.4 10.3
v -4.9 0.8 10.3
v -5.8 1.2 10.2
v -5.8 1.8 10.2
v -5.7 1.2 10.2
v -5.7 1.8 10.2
v -5.7 1.9 10.2
v -5.5 0 10.2
v -5.5 1.2 10.2
v -5.4 0.8 10.2
v -5.4 1.2 10.2
v -5.1 0.4 10.2
v -5.1 0.8 10.2
v -4.9 0.2 10.2
v -4.9 0.4 10.2
v -4.7 0 10.2
v -4.7 0.2 10.2
v -4.5 -0.3 10.2
v -4.5 -0.2 10.2
v -4.3 -0.3 10.2
v -4.3 -0.2 10.2
v -4.3 1.8 10.2
v -4.3 1.9 10.2
v -4.2 -0.2 10.2
v -4.2 1.8 10.2
v -4.5 -0.4 10
v -4.5 -0.3 10
v -4.3 -0.4 10
v -4.3 -0.3 10
v -4.5 -0.5 9.8
v -4.5 -0.4 9.8
v -4.3 -0.5 9.8
v -4.3 -0.4 9.8
v -5.6 0.4 9.6
v -5.6 0.5 9.6
v -5.5 0.4 9.6
v -5.5 0.5 9.6
v -5.6 0.4 9.4
v -5.6 0.5 9.4
v -5.5 0.4 9.4
v -5.5 0.5 9.4
v -4.5 -0.5 9.2
v -4.5 -0.4 9.2
v -4.3 -0.5 9.2
v -4.3 -0.4 9.2
v -4.5 -0.4 9
v -4.5 -0.3 9
v -4.3 -0.4 9
v -4.3 -0.3 9
v -5.8 1.2 8.8
v -5.8 1.8 8.8
v -5.7 1.2 8.8
v -5.7 1.8 8.8
v -5.7 1.9 8.8
v -5.5 0 8.8
v -5.5 1.2 8.8
v -5.4 0.8 8.8
v -5.4 1.2 8.8
v -5.1 0.4 8.8
v -5.1 0.8 8.8
v -4.9 0.2 8.8
v -4.9 0.4 8.8
v -4.7 0 8.8
v -4.7 0.2 8.8
v -4.5 -0.3 8.8
v -4.5 -0.2 8.8
v -4.3 -0.3 8.8
v -4.3 -0.2 8.8
v -4.3 1.8 8.8
v -4.3 1.9 8.8
v -4.2 -0.2 8.8
v -4.2 1.8 8.8
v -5.1 0.4 8.7
v -5.1 0.8 8.7
v -4.9 0.4 8.7
v -4.9 0.8 8.7
v -5.7 1.2 8.6
v -5.7 1.8 8.6
v -5.4 0.8 8.6
v -5.4 1.2 8.6
v -4.9 0.2 8.6
v -4.9 0.8 8.6
v -4.7 0 8.6
v -4.7 0.2 8.6
v -4.5 -0.2 8.6
v -4.5 0 8.6
v -4.3 -0.2 8.6
v -4.3 1.8 8.6
v -4.5 -0.5 9.8
v -4.3 -0.5 9.8
v -4.5 -0.5 9.2
v -4.3 -0.5 9.2
v -4.5 -0.4 10
v -4.3 -0.4 10
v -4.5 -0.4 9.8
v -4.3 -0.4 9.8
v -4.5 -0.4 9.2
v -4.3 -0.4 9.2
v -4.5 -0.4 9
v -4.3 -0.4 9
v -4.5 -0.3 10.2
v -4.3 -0.3 10.2
v -4.5 -0.3 10
v -4.3 -0.3 10
v -4.5 -0.3 9
v -4.3 -0.3 9
v -4.5 -0.3 8.8
v -4.3 -0.3 8.8
v -4.5 -0.2 10.4
v -4.3 -0.2 10.4
v -4.5 -0.2 10.2
v -4.3 -0.2 10.2
v -4.2 -0.2 10.2
v -4.5 -0.2 8.8
v -4.3 -0.2 8.8
v -4.2 -0.2 8.8
v -4.5 -0.2 8.6
v -4.3 -0.2 8.6
v -4.7 0 10.4
v -4.5 0 10.4
v -5.5 0 10.2
v -4.7 0 10.2
v -4.5 0 10.2
v -5.5 0 8.8
v -4.7 0 8.8
v -4.5 0 8.8
v -4.7 0 8.6
v -4.5 0 8.6
v -4.9 0.2 10.4
v -4.7 0.2 10.4
v -4.9 0.2 10.2
v -4.7 0.2 10.2
v -4.9 0.2 8.8
v -4.7 0.2 8.8
v -4.9 0.2 8.6
v -4.7 0.2 8.6
v -5.1 0.4 10.3
v -4.9 0.4 10.3
v -5.1 0.4 10.2
v -4.9 0.4 10.2
v -5.6 0.4 9.6
v -5.5 0.4 9.6
v -5.6 0.4 9.4
v -5.5 0.4 9.4
v -5.1 0.4 8.8
v -4.9 0.4 8.8
v -5.1 0.4 8.7
v -4.9 0.4 8.7
v -5.4 0.8 10.4
v -4.9 0.8 10.4
v -5.1 0.8 10.3
v -4.9 0.8 10.3
v -5.4 0.8 10.2
v -5.1 0.8 10.2
v -5.4 0.8 8.8
v -5.1 0.8 8.8
v -5.1 0.8 8.7
v -4.9 0.8 8.7
v -5.4 0.8 8.6
v -4.9 0.8 8.6
v -5.7 1.2 10.4
v -5.4 1.2 10.4
v -5.8 1.2 10.2
v -5.7 1.2 10.2
v -5.5 1.2 10.2
v -5.4 1.2 10.2
v -5.8 1.2 8.8
v -5.7 1.2 8.8
v -5.5 1.2 8.8
v -5.4 1.2 8.8
v -5.7 1.2 8.6
v -5.4 1.2 8.6
v -5.6 0.5 9.6
v -5.5 0.5 9.6
v -5.6 0.5 9.4
v -5.5 0.5 9.4
v -5.7 1.8 10.4
v -4.3 1.8 10.4
v -5.8 1.8 10.2
v -5.7 1.8 10.2
v -4.3 1.8 10.2
v -4.2 1.8 10.2
v -5.8 1.8 8.8
v -5.7 1.8 8.8
v -4.3 1.8 8.8
v -4.2 1.8 8.8
v -5.7 1.8 8.6
v -4.3 1.8 8.6
v -5.7 1.9 10.2
v -4.3 1.9 10.2
v -5.7 1.9 8.8
v -4.3 1.9 8.8

# faces
f 3/4/1 2/4/1 1/4/1
f 4/4/1 2/4/1 3/4/1
f 9/4/1 6/4/1 5/4/1
f 10/4/1 6/4/1 9/4/1
f 11/4/1 8/4/1 7/4/1
f 12/4/1 8/4/1 11/4/1
f 13/4/1 11/4/1 10/4/1
f 14/4/1 11/4/1 13/4/1
f 17/3/1 16/3/1 15/3/1
f 18/3/1 16/3/1 17/3/1
f 21/1/1 20/1/1 19/1/1
f 22/1/1 20/1/1 21/1/1
f 23/1/1 21/1/1 19/1/1
f 24/3/1 22/3/1 21/3/1
f 24/1/1 21/1/1 23/1/1
f 25/1/1 20/1/1 22/1/1
f 25/3/1 22/3/1 24/3/1
f 26/1/1 20/1/1 25/1/1
f 27/3/1 24/3/1 23/3/1
f 27/1/1 23/1/1 19/1/1
f 27/3/1 26/3/1 25/3/1
f 27/3/1 25/3/1 24/3/1
f 28/1/1 20/1/1 26/1/1
f 28/3/1 26/3/1 27/3/1
f 29/1/1 27/1/1 19/1/1
f 29/1/1 28/1/1 27/1/1
f 30/1/1 28/1/1 29/1/1
f 31/1/1 28/1/1 30/1/1
f 32/1/1 28/1/1 31/1/1
f 33/1/1 20/1/1 28/1/1
f 33/1/1 28/1/1 32/1/1
f 34/1/1 20/1/1 33/1/1
f 35/1/1 31/1/1 30/1/1
f 36/1/1 33/1/1 32/1/1
f 37/1/1 29/1/1 19/1/1
f 37/2/1 30/2/1 29/2/1
f 38/1/1 36/1/1 35/1/1
f 38/2/1 30/2/1 37/2/1
f 38/1/1 35/1/1 30/1/1
f 39/1/1 33/1/1 36/1/1
f 39/1/1 36/1/1 38/1/1
f 39/2/1 34/2/1 33/2/1
f 40/1/1 20/1/1 34/1/1
f 40/2/1 34/2/1 39/2/1
f 41/1/1 39/1/1 38/1/1
f 41/1/1 37/1/1 19/1/1
f 41/1/1 40/1/1 39/1/1
f 41/1/1 38/1/1 37/1/1
f 42/1/1 40/1/1 41/1/1
f 43/1/1 40/1/1 42/1/1
f 44/1/1 40/1/1 43/1/1
f 45/1/1 40/1/1 44/1/1
f 46/1/1 20/1/1 40/1/1
f 46/1/1 40/1/1 45/1/1
f 47/1/1 41/1/1 19/1/1
f 47/3/1 42/3/1 41/3/1
f 48/5/1 43/5/1 42/5/1
f 48/3/1 42/3/1 47/3/1
f 49/1/1 44/1/1 43/1/1
f 49/5/1 43/5/1 48/5/1
f 50/5/1 45/5/1 44/5/1
f 50/1/1 44/1/1 49/1/1
f 51/3/1 46/3/1 45/3/1
f 51/5/1 45/5/1 50/5/1
f 52/1/1 20/1/1 46/1/1
f 52/3/1 46/3/1 51/3/1
f 53/1/1 49/1/1 48/1/1
f 53/1/1 51/1/1 50/1/1
f 53/1/1 52/1/1 51/1/1
f 53/1/1 48/1/1 47/1/1
f 53/1/1 50/1/1 49/1/1
f 54/1/1 52/1/1 53/1/1
f 55/1/1 52/1/1 54/1/1
f 56/1/1 52/1/1 55/1/1
f 57/1/1 53/1/1 47/1/1
f 57/5/1 54/5/1 53/5/1
f 58/1/1 55/1/1 54/1/1
f 58/5/1 54/5/1 57/5/1
f 59/5/1 56/5/1 55/5/1
f 59/1/1 55/1/1 58/1/1
f 60/1/1 52/1/1 56/1/1
f 60/5/1 56/5/1 59/5/1
f 61/1/1 47/1/1 19/1/1
f 61/1/1 59/1/1 58/1/1
f 61/1/1 60/1/1 59/1/1
f 61/1/1 57/1/1 47/1/1
f 61/1/1 58/1/1 57/1/1
f 62/1/1 20/1/1 52/1/1
f 62/1/1 60/1/1 61/1/1
f 62/1/1 52/1/1 60/1/1
f 67/4/1 64/4/1 63/4/1
f 68/4/1 64/4/1 67/4/1
f 69/4/1 66/4/1 65/4/1
f 70/4/1 66/4/1 69/4/1
f 75/3/1 72/3/1 71/3/1
f 76/3/1 72/3/1 75/3/1
f 77/3/1 74/3/1 73/3/1
f 78/3/1 74/3/1 77/3/1
f 83/4/1 80/4/1 79/4/1
f 84/4/1 80/4/1 83/4/1
f 85/4/1 82/4/1 81/4/1
f 86/4/1 82/4/1 85/4/1
f 87/4/1 83/4/1 79/4/1
f 88/4/1 83/4/1 87/4/1
f 89/4/1 82/4/1 86/4/1
f 90/4/1 82/4/1 89/4/1
f 95/4/1 92/4/1 91/4/1
f 96/4/1 92/4/1 95/4/1
f 97/4/1 94/4/1 93/4/1
f 98/4/1 94/4/1 97/4/1
f 102/4/1 100/4/1 99/4/1
f 103/4/1 100/4/1 102/4/1
f 106/4/1 102/4/1 101/4/1
f 106/4/1 104/4/1 103/4/1
f 106/4/1 103/4/1 102/4/1
f 107/4/1 104/4/1 106/4/1
f 110/4/1 106/4/1 105/4/1
f 110/4/1 108/4/1 107/4/1
f 110/4/1 107/4/1 106/4/1
f 111/4/1 108/4/1 110/4/1
f 113/4/1 110/4/1 109/4/1
f 113/4/1 112/4/1 111/4/1
f 113/4/1 111/4/1 110/4/1
f 114/4/1 112/4/1 113/4/1
f 115/4/1 112/4/1 114/4/1
f 116/4/1 112/4/1 115/4/1
f 117/4/2 118/4/2 120/4/2
f 120/4/2 118/4/2 121/4/2
f 119/4/2 120/4/2 124/4/2
f 121/4/2 122/4/2 124/4/2
f 120/4/2 121/4/2 124/4/2
f 124/4/2 122/4/2 125/4/2
f 123/4/2 124/4/2 128/4/2
f 125/4/2 126/4/2 128/4/2
f 124/4/2 125/4/2 128/4/2
f 128/4/2 126/4/2 129/4/2
f 127/4/2 128/4/2 131/4/2
f 131/4/2 128/4/2 132/4/2
f 129/4/2 130/4/2 133/4/2
f 133/4/2 130/4/2 134/4/2
f 132/4/2 133/4/2 135/4/2
f 135/4/2 133/4/2 136/4/2
f 137/4/2 138/4/2 139/4/2
f 139/4/2 138/4/2 140/4/2
f 144/4/3 142/4/3 141/4/3
f 146/4/3 144/4/3 143/4/3
f 148/4/3 146/4/3 145/4/3
f 150/4/3 148/4/3 147/4/3
f 151/4/3 150/4/3 149/4/3
f 152/4/3 142/4/3 144/4/3
f 152/4/3 150/4/3 151/4/3
f 152/4/3 144/4/3 146/4/3
f 152/4/3 148/4/3 150/4/3
f 152/4/3 146/4/3 148/4/3
f 155/3/3 154/3/3 153/3/3
f 156/3/3 154/3/3 155/3/3
f 159/4/3 158/4/3 157/4/3
f 160/4/3 158/4/3 159/4/3
f 164/1/3 163/1/3 162/1/3
f 165/1/3 163/1/3 164/1/3
f 166/1/3 164/1/3 162/1/3
f 167/1/3 164/1/3 166/1/3
f 168/1/3 166/1/3 162/1/3
f 169/1/3 166/1/3 168/1/3
f 170/1/3 168/1/3 162/1/3
f 171/1/3 168/1/3 170/1/3
f 174/4/3 173/4/3 172/4/3
f 175/4/3 173/4/3 174/4/3
f 176/4/3 161/4/3 160/4/3
f 177/4/3 161/4/3 176/4/3
f 178/4/3 176/4/3 175/4/3
f 179/4/3 176/4/3 178/4/3
f 182/4/3 181/4/3 180/4/3
f 183/4/3 181/4/3 182/4/3
f 186/4/3 185/4/3 184/4/3
f 187/4/3 185/4/3 186/4/3
f 190/3/3 189/3/3 188/3/3
f 191/3/3 189/3/3 190/3/3
f 192/3/4 193/3/4 194/3/4
f 194/3/4 193/3/4 195/3/4
f 196/4/4 197/4/4 198/4/4
f 198/4/4 197/4/4 199/4/4
f 200/4/4 201/4/4 202/4/4
f 202/4/4 201/4/4 203/4/4
f 204/4/4 205/4/4 206/4/4
f 206/4/4 205/4/4 207/4/4
f 209/1/4 210/1/4 211/1/4
f 211/1/4 210/1/4 212/1/4
f 209/1/4 211/1/4 213/1/4
f 213/1/4 211/1/4 214/1/4
f 209/1/4 213/1/4 215/1/4
f 215/1/4 213/1/4 216/1/4
f 209/1/4 215/1/4 217/1/4
f 217/1/4 215/1/4 218/1/4
f 219/4/4 220/4/4 221/4/4
f 221/4/4 220/4/4 222/4/4
f 207/4/4 208/4/4 223/4/4
f 223/4/4 208/4/4 224/4/4
f 222/4/4 223/4/4 225/4/4
f 225/4/4 223/4/4 226/4/4
f 227/3/4 228/3/4 229/3/4
f 229/3/4 228/3/4 230/3/4
f 231/4/4 232/4/4 234/4/4
f 233/4/4 234/4/4 236/4/4
f 235/4/4 236/4/4 238/4/4
f 237/4/4 238/4/4 240/4/4
f 239/4/4 240/4/4 241/4/4
f 234/4/4 232/4/4 242/4/4
f 241/4/4 240/4/4 242/4/4
f 236/4/4 234/4/4 242/4/4
f 240/4/4 238/4/4 242/4/4
f 238/4/4 236/4/4 242/4/4
f 245/4/5 244/4/5 243/4/5
f 246/4/5 244/4/5 245/4/5
f 249/4/5 248/4/5 247/4/5
f 250/4/5 248/4/5 249/4/5
f 253/4/5 252/4/5 251/4/5
f 254/4/5 252/4/5 253/4/5
f 257/4/5 256/4/5 255/4/5
f 258/4/5 256/4/5 257/4/5
f 261/4/5 260/4/5 259/4/5
f 262/4/5 260/4/5 261/4/5
f 265/4/5 264/4/5 263/4/5
f 266/4/5 264/4/5 265/4/5
f 269/4/5 267/4/5 266/4/5
f 270/4/5 267/4/5 269/4/5
f 271/4/5 269/4/5 268/4/5
f 272/4/5 269/4/5 271/4/5
f 276/4/5 274/4/5 273/4/5
f 277/4/5 274/4/5 276/4/5
f 278/1/5 276/1/5 275/1/5
f 278/1/5 277/1/5 276/1/5
f 279/1/5 277/1/5 278/1/5
f 280/1/5 277/1/5 279/1/5
f 281/4/5 280/4/5 279/4/5
f 282/4/5 280/4/5 281/4/5
f 285/4/5 284/4/5 283/4/5
f 286/4/5 284/4/5 285/4/5
f 289/4/5 288/4/5 287/4/5
f 290/4/5 288/4/5 289/4/5
f 293/3/5 292/3/5 291/3/5
f 294/3/5 292/3/5 293/3/5
f 297/3/5 296/3/5 295/3/5
f 298/3/5 296/3/5 297/3/5
f 301/3/5 300/3/5 299/3/5
f 302/3/5 300/3/5 301/3/5
f 305/4/5 304/4/5 303/4/5
f 306/4/5 304/4/5 305/4/5
f 307/4/5 305/4/5 303/4/5
f 308/4/5 305/4/5 307/4/5
f 311/4/5 310/4/5 309/4/5
f 313/4/5 311/4/5 309/4/5
f 313/4/5 312/4/5 311/4/5
f 314/4/5 312/4/5 313/4/5
f 318/4/5 316/4/5 315/4/5
f 319/4/5 316/4/5 318/4/5
f 320/4/5 316/4/5 319/4/5
f 321/4/5 318/4/5 317/4/5
f 321/4/5 319/4/5 318/4/5
f 322/4/5 319/4/5 321/4/5
f 323/4/5 319/4/5 322/4/5
f 325/4/5 324/4/5 323/4/5
f 325/4/5 323/4/5 322/4/5
f 326/4/5 324/4/5 325/4/5
f 327/3/6 328/3/6 329/3/6
f 329/3/6 328/3/6 330/3/6
f 331/4/6 332/4/6 334/4/6
f 334/4/6 332/4/6 335/4/6
f 333/4/6 334/4/6 337/4/6
f 337/4/6 334/4/6 338/4/6
f 335/4/6 336/4/6 339/4/6
f 339/4/6 336/4/6 340/4/6
f 338/4/6 339/4/6 341/4/6
f 341/4/6 339/4/6 342/4/6
f 343/4/6 344/4/6 345/4/6
f 345/4/6 344/4/6 346/4/6
