# MagicaVoxel @ Ephtracy

# group
o Face

# material
mtllib Voxel Universe-23-Face.mtl
usemtl palette

# normals
vn -1 0 0
vn 1 0 0
vn 0 0 1
vn 0 0 -1
vn 0 -1 0
vn 0 1 0

# texcoords
vt 0.0332031 0.5
vt 0.0566406 0.5
vt 0.0839844 0.5
vt 0.537109 0.5

# verts
v -10.5 -0.3 14.3
v -10.5 -0.3 13.1
v -10.5 -0.1 14.5
v -10.5 -0.1 14.3
v -10.5 -0.1 13.1
v -10.5 -0.1 12.9
v -10.5 0.1 13.9
v -10.5 0.1 13.8
v -10.5 0.1 13.6
v -10.5 0.1 13.5
v -10.5 0.2 14.5
v -10.5 0.2 14.1
v -10.5 0.2 13.8
v -10.5 0.2 13.6
v -10.5 0.2 13.3
v -10.5 0.2 12.9
v -10.5 0.3 14.1
v -10.5 0.3 14
v -10.5 0.3 13.9
v -10.5 0.3 13.5
v -10.5 0.3 13.4
v -10.5 0.3 13.3
v -10.5 0.4 14
v -10.5 0.4 13.8
v -10.5 0.4 13.6
v -10.5 0.4 13.4
v -10.5 0.6 13.8
v -10.5 0.6 13.6
v -10.4 0.1 13.9
v -10.4 0.1 13.8
v -10.4 0.1 13.6
v -10.4 0.1 13.5
v -10.4 0.2 14.4
v -10.4 0.2 14.1
v -10.4 0.2 13.9
v -10.4 0.2 13.8
v -10.4 0.2 13.6
v -10.4 0.2 13.5
v -10.4 0.2 13.3
v -10.4 0.2 13
v -10.4 0.3 14.1
v -10.4 0.3 14
v -10.4 0.3 13.9
v -10.4 0.3 13.5
v -10.4 0.3 13.4
v -10.4 0.3 13.3
v -10.4 0.4 14
v -10.4 0.4 13.8
v -10.4 0.4 13.6
v -10.4 0.4 13.4
v -10.4 0.5 14.3
v -10.4 0.5 14
v -10.4 0.5 13.4
v -10.4 0.5 13.1
v -10.4 0.6 14.3
v -10.4 0.6 14.1
v -10.4 0.6 14
v -10.4 0.6 13.8
v -10.4 0.6 13.6
v -10.4 0.6 13.4
v -10.4 0.6 13.3
v -10.4 0.6 13.1
v -10.4 0.8 14.1
v -10.4 0.8 14
v -10.4 0.8 13.4
v -10.4 0.8 13.3
v -10.4 0.9 14.3
v -10.4 0.9 13.9
v -10.4 0.9 13.5
v -10.4 0.9 13.1
v -10.4 1 14.3
v -10.4 1 13.9
v -10.4 1 13.5
v -10.4 1 13.1
v -10.4 1.6 14.4
v -10.4 1.6 14.3
v -10.4 1.6 13.1
v -10.4 1.6 13
v -10.4 1.7 14.3
v -10.4 1.7 13.1
v -10.2 0.2 14.5
v -10.2 0.2 14.4
v -10.2 0.2 13
v -10.2 0.2 12.9
v -10.2 0.5 14.5
v -10.2 0.5 14.4
v -10.2 0.5 13
v -10.2 0.5 12.9
v -10 0.5 14.5
v -10 0.5 14.4
v -10 0.5 13
v -10 0.5 12.9
v -10 0.8 14.5
v -10 0.8 14.4
v -10 0.8 13
v -10 0.8 12.9
v -10 -0.3 14.3
v -10 -0.3 13.1
v -10 -0.1 14.5
v -10 -0.1 14.3
v -10 -0.1 13.1
v -10 -0.1 12.9
v -10 0 14.4
v -10 0 13
v -10 0.4 14.5
v -10 0.4 14.4
v -10 0.4 13
v -10 0.4 12.9
v -9.8 0.4 14.5
v -9.8 0.4 14.4
v -9.8 0.4 13
v -9.8 0.4 12.9
v -9.8 0.8 14.5
v -9.8 0.8 14.4
v -9.8 0.8 13
v -9.8 0.8 12.9
v -9.4 0 14.4
v -9.4 0 13
v -9.4 1.6 14.4
v -9.4 1.6 14.3
v -9.4 1.6 13.1
v -9.4 1.6 13
v -9.4 1.7 14.3
v -9.4 1.7 13.1
v -10.5 -0.1 14.5
v -10.5 0.2 14.5
v -10.2 0.2 14.5
v -10.2 0.5 14.5
v -10 -0.1 14.5
v -10 0.4 14.5
v -10 0.5 14.5
v -10 0.8 14.5
v -9.8 0.4 14.5
v -9.8 0.8 14.5
v -10.4 0.2 14.4
v -10.4 1.6 14.4
v -10.2 0.2 14.4
v -10.2 0.5 14.4
v -10 0 14.4
v -10 0.4 14.4
v -10 0.5 14.4
v -10 0.8 14.4
v -9.8 0.4 14.4
v -9.8 0.8 14.4
v -9.4 0 14.4
v -9.4 1.6 14.4
v -10.5 -0.3 14.3
v -10.5 -0.1 14.3
v -10.4 1.6 14.3
v -10.4 1.7 14.3
v -10 -0.3 14.3
v -10 -0.1 14.3
v -9.4 1.6 14.3
v -9.4 1.7 14.3
v -10.5 0.2 14.1
v -10.5 0.3 14.1
v -10.4 0.2 14.1
v -10.4 0.3 14.1
v -10.5 0.3 14
v -10.5 0.4 14
v -10.4 0.3 14
v -10.4 0.4 14
v -10.5 0.1 13.8
v -10.5 0.2 13.8
v -10.5 0.4 13.8
v -10.5 0.6 13.8
v -10.4 0.1 13.8
v -10.4 0.2 13.8
v -10.4 0.4 13.8
v -10.4 0.6 13.8
v -10.5 0.1 13.5
v -10.5 0.3 13.5
v -10.4 0.1 13.5
v -10.4 0.2 13.5
v -10.4 0.3 13.5
v -10.5 0.1 13.9
v -10.5 0.3 13.9
v -10.4 0.1 13.9
v -10.4 0.2 13.9
v -10.4 0.3 13.9
v -10.5 0.1 13.6
v -10.5 0.2 13.6
v -10.5 0.4 13.6
v -10.5 0.6 13.6
v -10.4 0.1 13.6
v -10.4 0.2 13.6
v -10.4 0.4 13.6
v -10.4 0.6 13.6
v -10.5 0.3 13.4
v -10.5 0.4 13.4
v -10.4 0.3 13.4
v -10.4 0.4 13.4
v -10.5 0.2 13.3
v -10.5 0.3 13.3
v -10.4 0.2 13.3
v -10.4 0.3 13.3
v -10.5 -0.3 13.1
v -10.5 -0.1 13.1
v -10.4 1.6 13.1
v -10.4 1.7 13.1
v -10 -0.3 13.1
v -10 -0.1 13.1
v -9.4 1.6 13.1
v -9.4 1.7 13.1
v -10.4 0.2 13
v -10.4 1.6 13
v -10.2 0.2 13
v -10.2 0.5 13
v -10 0 13
v -10 0.4 13
v -10 0.5 13
v -10 0.8 13
v -9.8 0.4 13
v -9.8 0.8 13
v -9.4 0 13
v -9.4 1.6 13
v -10.5 -0.1 12.9
v -10.5 0.2 12.9
v -10.2 0.2 12.9
v -10.2 0.5 12.9
v -10 -0.1 12.9
v -10 0.4 12.9
v -10 0.5 12.9
v -10 0.8 12.9
v -9.8 0.4 12.9
v -9.8 0.8 12.9
v -10.5 -0.3 14.3
v -10 -0.3 14.3
v -10.5 -0.3 13.1
v -10 -0.3 13.1
v -10.5 -0.1 14.5
v -10 -0.1 14.5
v -10.5 -0.1 14.3
v -10 -0.1 14.3
v -10.5 -0.1 13.1
v -10 -0.1 13.1
v -10.5 -0.1 12.9
v -10 -0.1 12.9
v -10 0 14.4
v -9.4 0 14.4
v -10 0 13
v -9.4 0 13
v -10.5 0.3 13.9
v -10.4 0.3 13.9
v -10.5 0.3 13.5
v -10.4 0.3 13.5
v -10 0.4 14.5
v -9.8 0.4 14.5
v -10 0.4 14.4
v -9.8 0.4 14.4
v -10 0.4 13
v -9.8 0.4 13
v -10 0.4 12.9
v -9.8 0.4 12.9
v -10.5 0.1 13.9
v -10.4 0.1 13.9
v -10.5 0.1 13.8
v -10.4 0.1 13.8
v -10.5 0.1 13.6
v -10.4 0.1 13.6
v -10.5 0.1 13.5
v -10.4 0.1 13.5
v -10.5 0.2 14.5
v -10.2 0.2 14.5
v -10.4 0.2 14.4
v -10.2 0.2 14.4
v -10.5 0.2 14.1
v -10.4 0.2 14.1
v -10.5 0.2 13.8
v -10.4 0.2 13.8
v -10.5 0.2 13.6
v -10.4 0.2 13.6
v -10.5 0.2 13.3
v -10.4 0.2 13.3
v -10.4 0.2 13
v -10.2 0.2 13
v -10.5 0.2 12.9
v -10.2 0.2 12.9
v -10.5 0.3 14.1
v -10.4 0.3 14.1
v -10.5 0.3 14
v -10.4 0.3 14
v -10.5 0.3 13.4
v -10.4 0.3 13.4
v -10.5 0.3 13.3
v -10.4 0.3 13.3
v -10.5 0.4 14
v -10.4 0.4 14
v -10.5 0.4 13.8
v -10.4 0.4 13.8
v -10.5 0.4 13.6
v -10.4 0.4 13.6
v -10.5 0.4 13.4
v -10.4 0.4 13.4
v -10.2 0.5 14.5
v -10 0.5 14.5
v -10.2 0.5 14.4
v -10 0.5 14.4
v -10.2 0.5 13
v -10 0.5 13
v -10.2 0.5 12.9
v -10 0.5 12.9
v -10.5 0.6 13.8
v -10.4 0.6 13.8
v -10.5 0.6 13.6
v -10.4 0.6 13.6
v -10 0.8 14.5
v -9.8 0.8 14.5
v -10 0.8 14.4
v -9.8 0.8 14.4
v -10 0.8 13
v -9.8 0.8 13
v -10 0.8 12.9
v -9.8 0.8 12.9
v -10.4 1.6 14.4
v -9.4 1.6 14.4
v -10.4 1.6 14.3
v -9.4 1.6 14.3
v -10.4 1.6 13.1
v -9.4 1.6 13.1
v -10.4 1.6 13
v -9.4 1.6 13
v -10.4 1.7 14.3
v -9.4 1.7 14.3
v -10.4 1.7 13.1
v -9.4 1.7 13.1

# faces
f 4/4/1 2/4/1 1/4/1
f 5/4/1 2/4/1 4/4/1
f 7/4/1 4/4/1 3/4/1
f 7/4/1 6/4/1 5/4/1
f 7/4/1 5/4/1 4/4/1
f 8/4/1 6/4/1 7/4/1
f 9/4/1 6/4/1 8/4/1
f 10/4/1 6/4/1 9/4/1
f 11/4/1 7/4/1 3/4/1
f 12/4/1 7/4/1 11/4/1
f 13/4/1 9/4/1 8/4/1
f 14/4/1 9/4/1 13/4/1
f 15/4/1 6/4/1 10/4/1
f 16/4/1 6/4/1 15/4/1
f 17/4/1 7/4/1 12/4/1
f 18/4/1 7/4/1 17/4/1
f 19/4/1 7/4/1 18/4/1
f 20/4/1 15/4/1 10/4/1
f 21/4/1 15/4/1 20/4/1
f 22/4/1 15/4/1 21/4/1
f 23/4/1 19/4/1 18/4/1
f 23/4/1 21/4/1 20/4/1
f 23/4/1 20/4/1 19/4/1
f 24/4/1 21/4/1 23/4/1
f 25/4/1 21/4/1 24/4/1
f 26/4/1 21/4/1 25/4/1
f 27/3/1 25/3/1 24/3/1
f 28/3/1 25/3/1 27/3/1
f 35/2/1 30/2/1 29/2/1
f 36/2/1 30/2/1 35/2/1
f 37/2/1 32/2/1 31/2/1
f 38/2/1 32/2/1 37/2/1
f 41/2/1 34/2/1 33/2/1
f 43/3/1 36/3/1 35/3/1
f 43/3/1 37/3/1 36/3/1
f 43/3/1 38/3/1 37/3/1
f 44/3/1 38/3/1 43/3/1
f 46/2/1 40/2/1 39/2/1
f 47/2/1 42/2/1 41/2/1
f 50/2/1 46/2/1 45/2/1
f 51/2/1 48/2/1 47/2/1
f 51/2/1 41/2/1 33/2/1
f 51/2/1 47/2/1 41/2/1
f 52/2/1 48/2/1 51/2/1
f 53/2/1 50/2/1 49/2/1
f 53/2/1 46/2/1 50/2/1
f 54/2/1 40/2/1 46/2/1
f 54/2/1 46/2/1 53/2/1
f 55/1/1 52/1/1 51/1/1
f 55/2/1 51/2/1 33/2/1
f 56/1/1 52/1/1 55/1/1
f 57/2/1 48/2/1 52/2/1
f 57/1/1 52/1/1 56/1/1
f 58/2/1 48/2/1 57/2/1
f 59/2/1 53/2/1 49/2/1
f 60/1/1 54/1/1 53/1/1
f 60/2/1 53/2/1 59/2/1
f 61/1/1 54/1/1 60/1/1
f 62/2/1 40/2/1 54/2/1
f 62/1/1 54/1/1 61/1/1
f 63/2/1 56/2/1 55/2/1
f 63/4/1 57/4/1 56/4/1
f 64/2/1 58/2/1 57/2/1
f 64/4/1 57/4/1 63/4/1
f 64/2/1 59/2/1 58/2/1
f 64/2/1 60/2/1 59/2/1
f 65/4/1 61/4/1 60/4/1
f 65/2/1 60/2/1 64/2/1
f 66/2/1 62/2/1 61/2/1
f 66/4/1 61/4/1 65/4/1
f 67/2/1 63/2/1 55/2/1
f 67/2/1 64/2/1 63/2/1
f 67/2/1 66/2/1 65/2/1
f 67/2/1 65/2/1 64/2/1
f 67/2/1 55/2/1 33/2/1
f 68/2/1 66/2/1 67/2/1
f 69/2/1 66/2/1 68/2/1
f 70/2/1 40/2/1 62/2/1
f 70/2/1 66/2/1 69/2/1
f 70/2/1 62/2/1 66/2/1
f 71/4/1 68/4/1 67/4/1
f 71/2/1 67/2/1 33/2/1
f 72/2/1 69/2/1 68/2/1
f 72/4/1 68/4/1 71/4/1
f 73/4/1 70/4/1 69/4/1
f 73/2/1 69/2/1 72/2/1
f 74/2/1 40/2/1 70/2/1
f 74/4/1 70/4/1 73/4/1
f 75/2/1 71/2/1 33/2/1
f 75/2/1 73/2/1 72/2/1
f 75/2/1 74/2/1 73/2/1
f 75/2/1 72/2/1 71/2/1
f 76/2/1 74/2/1 75/2/1
f 77/2/1 40/2/1 74/2/1
f 77/2/1 74/2/1 76/2/1
f 78/2/1 40/2/1 77/2/1
f 79/2/1 77/2/1 76/2/1
f 80/2/1 77/2/1 79/2/1
f 85/4/1 82/4/1 81/4/1
f 86/4/1 82/4/1 85/4/1
f 87/4/1 84/4/1 83/4/1
f 88/4/1 84/4/1 87/4/1
f 93/3/1 90/3/1 89/3/1
f 94/3/1 90/3/1 93/3/1
f 95/3/1 92/3/1 91/3/1
f 96/3/1 92/3/1 95/3/1
f 97/4/2 98/4/2 100/4/2
f 100/4/2 98/4/2 101/4/2
f 99/4/2 100/4/2 103/4/2
f 101/4/2 102/4/2 103/4/2
f 100/4/2 101/4/2 103/4/2
f 103/4/2 102/4/2 104/4/2
f 99/4/2 103/4/2 105/4/2
f 105/4/2 103/4/2 106/4/2
f 104/4/2 102/4/2 107/4/2
f 107/4/2 102/4/2 108/4/2
f 109/3/2 110/3/2 113/3/2
f 113/3/2 110/3/2 114/3/2
f 111/3/2 112/3/2 115/3/2
f 115/3/2 112/3/2 116/3/2
f 117/2/2 118/2/2 119/2/2
f 119/2/2 118/2/2 120/2/2
f 120/2/2 118/2/2 121/2/2
f 121/2/2 118/2/2 122/2/2
f 120/2/2 121/2/2 123/2/2
f 123/2/2 121/2/2 124/2/2
f 127/4/3 126/4/3 125/4/3
f 129/4/3 127/4/3 125/4/3
f 129/4/3 128/4/3 127/4/3
f 130/4/3 128/4/3 129/4/3
f 131/4/3 128/4/3 130/4/3
f 133/3/3 132/3/3 131/3/3
f 133/3/3 131/3/3 130/3/3
f 134/3/3 132/3/3 133/3/3
f 137/2/3 136/2/3 135/2/3
f 138/2/3 136/2/3 137/2/3
f 141/2/3 136/2/3 138/2/3
f 142/2/3 136/2/3 141/2/3
f 143/2/3 140/2/3 139/2/3
f 144/2/3 136/2/3 142/2/3
f 145/2/3 143/2/3 139/2/3
f 145/2/3 144/2/3 143/2/3
f 146/2/3 136/2/3 144/2/3
f 146/2/3 144/2/3 145/2/3
f 151/4/3 148/4/3 147/4/3
f 152/4/3 148/4/3 151/4/3
f 153/2/3 150/2/3 149/2/3
f 154/2/3 150/2/3 153/2/3
f 157/4/3 156/4/3 155/4/3
f 158/4/3 156/4/3 157/4/3
f 161/4/3 160/4/3 159/4/3
f 162/4/3 160/4/3 161/4/3
f 167/4/3 164/4/3 163/4/3
f 168/4/3 164/4/3 167/4/3
f 169/3/3 166/3/3 165/3/3
f 170/3/3 166/3/3 169/3/3
f 173/4/3 172/4/3 171/4/3
f 174/4/3 172/4/3 173/4/3
f 175/4/3 172/4/3 174/4/3
f 176/4/4 177/4/4 178/4/4
f 178/4/4 177/4/4 179/4/4
f 179/4/4 177/4/4 180/4/4
f 181/4/4 182/4/4 185/4/4
f 185/4/4 182/4/4 186/4/4
f 183/3/4 184/3/4 187/3/4
f 187/3/4 184/3/4 188/3/4
f 189/4/4 190/4/4 191/4/4
f 191/4/4 190/4/4 192/4/4
f 193/4/4 194/4/4 195/4/4
f 195/4/4 194/4/4 196/4/4
f 197/4/4 198/4/4 201/4/4
f 201/4/4 198/4/4 202/4/4
f 199/2/4 200/2/4 203/2/4
f 203/2/4 200/2/4 204/2/4
f 205/2/4 206/2/4 207/2/4
f 207/2/4 206/2/4 208/2/4
f 208/2/4 206/2/4 211/2/4
f 211/2/4 206/2/4 212/2/4
f 209/2/4 210/2/4 213/2/4
f 212/2/4 206/2/4 214/2/4
f 209/2/4 213/2/4 215/2/4
f 213/2/4 214/2/4 215/2/4
f 214/2/4 206/2/4 216/2/4
f 215/2/4 214/2/4 216/2/4
f 217/4/4 218/4/4 219/4/4
f 217/4/4 219/4/4 221/4/4
f 219/4/4 220/4/4 221/4/4
f 221/4/4 220/4/4 222/4/4
f 222/4/4 220/4/4 223/4/4
f 223/3/4 224/3/4 225/3/4
f 222/3/4 223/3/4 225/3/4
f 225/3/4 224/3/4 226/3/4
f 229/4/5 228/4/5 227/4/5
f 230/4/5 228/4/5 229/4/5
f 233/4/5 232/4/5 231/4/5
f 234/4/5 232/4/5 233/4/5
f 237/4/5 236/4/5 235/4/5
f 238/4/5 236/4/5 237/4/5
f 241/2/5 240/2/5 239/2/5
f 242/2/5 240/2/5 241/2/5
f 245/4/5 244/4/5 243/4/5
f 246/4/5 244/4/5 245/4/5
f 249/3/5 248/3/5 247/3/5
f 250/3/5 248/3/5 249/3/5
f 253/3/5 252/3/5 251/3/5
f 254/3/5 252/3/5 253/3/5
f 255/4/6 256/4/6 257/4/6
f 257/4/6 256/4/6 258/4/6
f 259/4/6 260/4/6 261/4/6
f 261/4/6 260/4/6 262/4/6
f 263/4/6 264/4/6 265/4/6
f 265/4/6 264/4/6 266/4/6
f 263/4/6 265/4/6 267/4/6
f 267/4/6 265/4/6 268/4/6
f 269/4/6 270/4/6 271/4/6
f 271/4/6 270/4/6 272/4/6
f 273/4/6 274/4/6 275/4/6
f 273/4/6 275/4/6 277/4/6
f 275/4/6 276/4/6 277/4/6
f 277/4/6 276/4/6 278/4/6
f 279/4/6 280/4/6 281/4/6
f 281/4/6 280/4/6 282/4/6
f 283/4/6 284/4/6 285/4/6
f 285/4/6 284/4/6 286/4/6
f 287/4/6 288/4/6 289/4/6
f 289/4/6 288/4/6 290/4/6
f 291/4/6 292/4/6 293/4/6
f 293/4/6 292/4/6 294/4/6
f 295/4/6 296/4/6 297/4/6
f 297/4/6 296/4/6 298/4/6
f 299/4/6 300/4/6 301/4/6
f 301/4/6 300/4/6 302/4/6
f 303/3/6 304/3/6 305/3/6
f 305/3/6 304/3/6 306/3/6
f 307/3/6 308/3/6 309/3/6
f 309/3/6 308/3/6 310/3/6
f 311/3/6 312/3/6 313/3/6
f 313/3/6 312/3/6 314/3/6
f 315/2/6 316/2/6 317/2/6
f 317/2/6 316/2/6 318/2/6
f 319/2/6 320/2/6 321/2/6
f 321/2/6 320/2/6 322/2/6
f 323/2/6 324/2/6 325/2/6
f 325/2/6 324/2/6 326/2/6
