# MagicaVoxel @ Ephtracy

# group
o Face Base

# material
mtllib Voxel Universe-0-Face Base.mtl
usemtl palette

# normals
vn -1 0 0
vn 1 0 0
vn 0 0 1
vn 0 0 -1
vn 0 -1 0
vn 0 1 0

# texcoords
vt 0.0332031 0.5
vt 0.0566406 0.5
vt 0.0839844 0.5
vt 0.994141 0.5

# verts
v -10.5 0.4 22.2
v -10.5 0.4 22
v -10.5 0.5 22.2
v -10.5 0.5 22
v -10.4 0 22.8
v -10.4 0 21.4
v -10.4 0.2 22.3
v -10.4 0.2 21.9
v -10.4 0.3 22.4
v -10.4 0.3 22.3
v -10.4 0.3 21.9
v -10.4 0.3 21.8
v -10.4 0.4 22.7
v -10.4 0.4 22.5
v -10.4 0.4 22.4
v -10.4 0.4 22.3
v -10.4 0.4 22.2
v -10.4 0.4 22
v -10.4 0.4 21.9
v -10.4 0.4 21.8
v -10.4 0.4 21.7
v -10.4 0.4 21.5
v -10.4 0.5 22.2
v -10.4 0.5 22
v -10.4 0.6 22.7
v -10.4 0.6 22.5
v -10.4 0.6 22.4
v -10.4 0.6 21.8
v -10.4 0.6 21.7
v -10.4 0.6 21.5
v -10.4 0.8 22.7
v -10.4 0.8 22.6
v -10.4 0.8 22.5
v -10.4 0.8 22.4
v -10.4 0.8 21.8
v -10.4 0.8 21.7
v -10.4 0.8 21.6
v -10.4 0.8 21.5
v -10.4 0.9 22.7
v -10.4 0.9 22.6
v -10.4 0.9 22.3
v -10.4 0.9 21.8
v -10.4 0.9 21.6
v -10.4 0.9 21.5
v -10.4 1 22.6
v -10.4 1 22.3
v -10.4 1 21.8
v -10.4 1 21.6
v -10.4 1.6 22.8
v -10.4 1.6 22.7
v -10.4 1.6 21.5
v -10.4 1.6 21.4
v -10.4 1.7 22.7
v -10.4 1.7 21.5
v -10 0.4 22.9
v -10 0.4 22.8
v -10 0.4 21.4
v -10 0.4 21.3
v -10 0.8 22.9
v -10 0.8 22.8
v -10 0.8 21.4
v -10 0.8 21.3
v -9.8 0.4 22.9
v -9.8 0.4 22.8
v -9.8 0.4 21.4
v -9.8 0.4 21.3
v -9.8 0.8 22.9
v -9.8 0.8 22.8
v -9.8 0.8 21.4
v -9.8 0.8 21.3
v -9.4 0 22.8
v -9.4 0 21.4
v -9.4 1.6 22.8
v -9.4 1.6 22.7
v -9.4 1.6 21.5
v -9.4 1.6 21.4
v -9.4 1.7 22.7
v -9.4 1.7 21.5
v -10 0.4 22.9
v -10 0.8 22.9
v -9.8 0.4 22.9
v -9.8 0.8 22.9
v -10.4 0 22.8
v -10.4 1.6 22.8
v -10 0.4 22.8
v -10 0.8 22.8
v -9.8 0.4 22.8
v -9.8 0.8 22.8
v -9.4 0 22.8
v -9.4 1.6 22.8
v -10.4 1.6 22.7
v -10.4 1.7 22.7
v -9.4 1.6 22.7
v -9.4 1.7 22.7
v -10.5 0.4 22.2
v -10.5 0.5 22.2
v -10.4 0.4 22.2
v -10.4 0.5 22.2
v -10.5 0.4 22
v -10.5 0.5 22
v -10.4 0.4 22
v -10.4 0.5 22
v -10.4 1.6 21.5
v -10.4 1.7 21.5
v -9.4 1.6 21.5
v -9.4 1.7 21.5
v -10.4 0 21.4
v -10.4 1.6 21.4
v -10 0.4 21.4
v -10 0.8 21.4
v -9.8 0.4 21.4
v -9.8 0.8 21.4
v -9.4 0 21.4
v -9.4 1.6 21.4
v -10 0.4 21.3
v -10 0.8 21.3
v -9.8 0.4 21.3
v -9.8 0.8 21.3
v -10.4 0 22.8
v -9.4 0 22.8
v -10.4 0 21.4
v -9.4 0 21.4
v -10 0.4 22.9
v -9.8 0.4 22.9
v -10 0.4 22.8
v -9.8 0.4 22.8
v -10.5 0.4 22.2
v -10.4 0.4 22.2
v -10.5 0.4 22
v -10.4 0.4 22
v -10 0.4 21.4
v -9.8 0.4 21.4
v -10 0.4 21.3
v -9.8 0.4 21.3
v -10.5 0.5 22.2
v -10.4 0.5 22.2
v -10.5 0.5 22
v -10.4 0.5 22
v -10 0.8 22.9
v -9.8 0.8 22.9
v -10 0.8 22.8
v -9.8 0.8 22.8
v -10 0.8 21.4
v -9.8 0.8 21.4
v -10 0.8 21.3
v -9.8 0.8 21.3
v -10.4 1.6 22.8
v -9.4 1.6 22.8
v -10.4 1.6 22.7
v -9.4 1.6 22.7
v -10.4 1.6 21.5
v -9.4 1.6 21.5
v -10.4 1.6 21.4
v -9.4 1.6 21.4
v -10.4 1.7 22.7
v -9.4 1.7 22.7
v -10.4 1.7 21.5
v -9.4 1.7 21.5

# faces
f 3/3/1 2/3/1 1/3/1
f 4/3/1 2/3/1 3/3/1
f 7/2/1 6/2/1 5/2/1
f 8/2/1 6/2/1 7/2/1
f 9/2/1 7/2/1 5/2/1
f 10/3/1 8/3/1 7/3/1
f 10/2/1 7/2/1 9/2/1
f 11/2/1 6/2/1 8/2/1
f 11/3/1 8/3/1 10/3/1
f 12/2/1 6/2/1 11/2/1
f 13/2/1 9/2/1 5/2/1
f 14/2/1 9/2/1 13/2/1
f 15/3/1 10/3/1 9/3/1
f 15/2/1 9/2/1 14/2/1
f 16/2/1 11/2/1 10/2/1
f 16/3/1 10/3/1 15/3/1
f 17/2/1 11/2/1 16/2/1
f 18/2/1 11/2/1 17/2/1
f 19/3/1 12/3/1 11/3/1
f 19/2/1 11/2/1 18/2/1
f 20/2/1 6/2/1 12/2/1
f 20/3/1 12/3/1 19/3/1
f 21/2/1 6/2/1 20/2/1
f 22/2/1 6/2/1 21/2/1
f 23/2/1 15/2/1 14/2/1
f 23/2/1 16/2/1 15/2/1
f 23/2/1 17/2/1 16/2/1
f 24/2/1 19/2/1 18/2/1
f 24/2/1 21/2/1 20/2/1
f 24/2/1 20/2/1 19/2/1
f 25/1/1 14/1/1 13/1/1
f 25/2/1 13/2/1 5/2/1
f 26/2/1 24/2/1 23/2/1
f 26/1/1 14/1/1 25/1/1
f 26/2/1 23/2/1 14/2/1
f 27/2/1 24/2/1 26/2/1
f 28/2/1 21/2/1 24/2/1
f 28/2/1 24/2/1 27/2/1
f 29/1/1 22/1/1 21/1/1
f 29/2/1 21/2/1 28/2/1
f 30/2/1 6/2/1 22/2/1
f 30/1/1 22/1/1 29/1/1
f 31/2/1 25/2/1 5/2/1
f 31/2/1 26/2/1 25/2/1
f 32/2/1 26/2/1 31/2/1
f 33/4/1 27/4/1 26/4/1
f 33/2/1 26/2/1 32/2/1
f 34/2/1 28/2/1 27/2/1
f 34/4/1 27/4/1 33/4/1
f 35/4/1 29/4/1 28/4/1
f 35/2/1 28/2/1 34/2/1
f 36/2/1 30/2/1 29/2/1
f 36/4/1 29/4/1 35/4/1
f 37/2/1 30/2/1 36/2/1
f 38/2/1 6/2/1 30/2/1
f 38/2/1 30/2/1 37/2/1
f 39/4/1 32/4/1 31/4/1
f 39/2/1 31/2/1 5/2/1
f 40/2/1 37/2/1 36/2/1
f 40/4/1 32/4/1 39/4/1
f 40/2/1 34/2/1 33/2/1
f 40/2/1 36/2/1 35/2/1
f 40/2/1 33/2/1 32/2/1
f 40/2/1 35/2/1 34/2/1
f 41/2/1 37/2/1 40/2/1
f 42/2/1 37/2/1 41/2/1
f 43/4/1 38/4/1 37/4/1
f 43/2/1 37/2/1 42/2/1
f 44/2/1 6/2/1 38/2/1
f 44/4/1 38/4/1 43/4/1
f 45/2/1 40/2/1 39/2/1
f 45/4/1 41/4/1 40/4/1
f 46/2/1 42/2/1 41/2/1
f 46/4/1 41/4/1 45/4/1
f 47/4/1 43/4/1 42/4/1
f 47/2/1 42/2/1 46/2/1
f 48/2/1 44/2/1 43/2/1
f 48/4/1 43/4/1 47/4/1
f 49/2/1 39/2/1 5/2/1
f 49/2/1 45/2/1 39/2/1
f 49/2/1 48/2/1 47/2/1
f 49/2/1 47/2/1 46/2/1
f 49/2/1 46/2/1 45/2/1
f 50/2/1 48/2/1 49/2/1
f 51/2/1 44/2/1 48/2/1
f 51/2/1 48/2/1 50/2/1
f 51/2/1 6/2/1 44/2/1
f 52/2/1 6/2/1 51/2/1
f 53/2/1 51/2/1 50/2/1
f 54/2/1 51/2/1 53/2/1
f 59/3/1 56/3/1 55/3/1
f 60/3/1 56/3/1 59/3/1
f 61/3/1 58/3/1 57/3/1
f 62/3/1 58/3/1 61/3/1
f 63/3/2 64/3/2 67/3/2
f 67/3/2 64/3/2 68/3/2
f 65/3/2 66/3/2 69/3/2
f 69/3/2 66/3/2 70/3/2
f 71/2/2 72/2/2 73/2/2
f 73/2/2 72/2/2 74/2/2
f 74/2/2 72/2/2 75/2/2
f 75/2/2 72/2/2 76/2/2
f 74/2/2 75/2/2 77/2/2
f 77/2/2 75/2/2 78/2/2
f 81/3/3 80/3/3 79/3/3
f 82/3/3 80/3/3 81/3/3
f 85/2/3 84/2/3 83/2/3
f 86/2/3 84/2/3 85/2/3
f 87/2/3 85/2/3 83/2/3
f 88/2/3 84/2/3 86/2/3
f 89/2/3 87/2/3 83/2/3
f 89/2/3 88/2/3 87/2/3
f 90/2/3 84/2/3 88/2/3
f 90/2/3 88/2/3 89/2/3
f 93/2/3 92/2/3 91/2/3
f 94/2/3 92/2/3 93/2/3
f 97/3/3 96/3/3 95/3/3
f 98/3/3 96/3/3 97/3/3
f 99/3/4 100/3/4 101/3/4
f 101/3/4 100/3/4 102/3/4
f 103/2/4 104/2/4 105/2/4
f 105/2/4 104/2/4 106/2/4
f 107/2/4 108/2/4 109/2/4
f 109/2/4 108/2/4 110/2/4
f 107/2/4 109/2/4 111/2/4
f 110/2/4 108/2/4 112/2/4
f 107/2/4 111/2/4 113/2/4
f 111/2/4 112/2/4 113/2/4
f 112/2/4 108/2/4 114/2/4
f 113/2/4 112/2/4 114/2/4
f 115/3/4 116/3/4 117/3/4
f 117/3/4 116/3/4 118/3/4
f 121/2/5 120/2/5 119/2/5
f 122/2/5 120/2/5 121/2/5
f 125/3/5 124/3/5 123/3/5
f 126/3/5 124/3/5 125/3/5
f 129/3/5 128/3/5 127/3/5
f 130/3/5 128/3/5 129/3/5
f 133/3/5 132/3/5 131/3/5
f 134/3/5 132/3/5 133/3/5
f 135/3/6 136/3/6 137/3/6
f 137/3/6 136/3/6 138/3/6
f 139/3/6 140/3/6 141/3/6
f 141/3/6 140/3/6 142/3/6
f 143/3/6 144/3/6 145/3/6
f 145/3/6 144/3/6 146/3/6
f 147/2/6 148/2/6 149/2/6
f 149/2/6 148/2/6 150/2/6
f 151/2/6 152/2/6 153/2/6
f 153/2/6 152/2/6 154/2/6
f 155/2/6 156/2/6 157/2/6
f 157/2/6 156/2/6 158/2/6
