# MagicaVoxel @ Ephtracy

# group
o Face

# material
mtllib Voxel Universe-12-Face.mtl
usemtl palette

# normals
vn -1 0 0
vn 1 0 0
vn 0 0 1
vn 0 0 -1
vn 0 -1 0
vn 0 1 0

# texcoords
vt 0.0332031 0.5
vt 0.0566406 0.5
vt 0.0605469 0.5
vt 0.0839844 0.5
vt 0.541016 0.5
vt 0.548828 0.5
vt 0.833984 0.5
vt 0.837891 0.5
vt 0.994141 0.5

# verts
v -15.5 0.4 16.5
v -15.5 0.4 16
v -15.5 0.4 15.9
v -15.5 0.4 15.7
v -15.5 0.4 15.6
v -15.5 0.4 15.1
v -15.5 0.5 16.6
v -15.5 0.5 16.5
v -15.5 0.5 16
v -15.5 0.5 15.9
v -15.5 0.5 15.7
v -15.5 0.5 15.6
v -15.5 0.5 15.1
v -15.5 0.5 15
v -15.5 0.6 15.9
v -15.5 0.6 15.7
v -15.5 0.7 15.9
v -15.5 0.7 15.7
v -15.5 0.8 16.5
v -15.5 0.8 16
v -15.5 0.8 15.6
v -15.5 0.8 15.1
v -15.5 0.9 16.6
v -15.5 0.9 15
v -15.5 1.2 15.7
v -15.5 1.2 15.3
v -15.5 1.3 15.8
v -15.5 1.3 15.7
v -15.5 1.3 15.4
v -15.5 1.3 15.3
v -15.5 1.4 15.9
v -15.5 1.4 15.8
v -15.5 1.4 15.5
v -15.5 1.4 15.4
v -15.5 1.5 16
v -15.5 1.5 15.9
v -15.5 1.5 15.6
v -15.5 1.5 15.5
v -15.5 1.6 16.1
v -15.5 1.6 16
v -15.5 1.6 15.7
v -15.5 1.6 15.6
v -15.5 1.7 16.1
v -15.5 1.7 15.7
v -15.4 0 16.5
v -15.4 0 15.1
v -15.4 0.1 16
v -15.4 0.1 15.6
v -15.4 0.2 16.2
v -15.4 0.2 16.1
v -15.4 0.2 16
v -15.4 0.2 15.6
v -15.4 0.2 15.5
v -15.4 0.2 15.4
v -15.4 0.3 16.1
v -15.4 0.3 16
v -15.4 0.3 15.6
v -15.4 0.3 15.5
v -15.4 0.4 16.5
v -15.4 0.4 16.2
v -15.4 0.4 16
v -15.4 0.4 15.9
v -15.4 0.4 15.7
v -15.4 0.4 15.6
v -15.4 0.4 15.4
v -15.4 0.4 15.1
v -15.4 0.5 16
v -15.4 0.5 15.9
v -15.4 0.5 15.7
v -15.4 0.5 15.6
v -15.4 0.6 15.9
v -15.4 0.6 15.7
v -15.4 0.7 15.9
v -15.4 0.7 15.7
v -15.4 0.9 16.5
v -15.4 0.9 16.4
v -15.4 0.9 16.3
v -15.4 0.9 16.1
v -15.4 0.9 16
v -15.4 0.9 15.6
v -15.4 0.9 15.5
v -15.4 0.9 15.3
v -15.4 0.9 15.2
v -15.4 0.9 15.1
v -15.4 1 16.4
v -15.4 1 16.3
v -15.4 1 16.1
v -15.4 1 16
v -15.4 1 15.6
v -15.4 1 15.5
v -15.4 1 15.3
v -15.4 1 15.2
v -15.4 1.2 15.7
v -15.4 1.2 15.3
v -15.4 1.3 16.5
v -15.4 1.3 16.4
v -15.4 1.3 15.8
v -15.4 1.3 15.7
v -15.4 1.3 15.4
v -15.4 1.3 15.3
v -15.4 1.4 16.4
v -15.4 1.4 16.2
v -15.4 1.4 15.9
v -15.4 1.4 15.8
v -15.4 1.4 15.5
v -15.4 1.4 15.4
v -15.4 1.4 15.1
v -15.4 1.5 16.2
v -15.4 1.5 16
v -15.4 1.5 15.9
v -15.4 1.5 15.6
v -15.4 1.5 15.5
v -15.4 1.6 16.5
v -15.4 1.6 16.4
v -15.4 1.6 16.1
v -15.4 1.6 16
v -15.4 1.6 15.7
v -15.4 1.6 15.6
v -15.4 1.6 15.2
v -15.4 1.6 15.1
v -15.4 1.7 16.4
v -15.4 1.7 16.1
v -15.4 1.7 15.7
v -15.4 1.7 15.2
v -15 0.4 16.6
v -15 0.4 16.5
v -15 0.4 15.1
v -15 0.4 15
v -15 0.5 16.5
v -15 0.5 15.1
v -15 0.8 16.6
v -15 0.8 16.5
v -15 0.8 15.1
v -15 0.8 15
v -15.4 0.5 16.6
v -15.4 0.5 16.5
v -15.4 0.5 15.1
v -15.4 0.5 15
v -15.4 0.8 16.6
v -15.4 0.8 16.5
v -15.4 0.8 15.1
v -15.4 0.8 15
v -14.8 0.4 16.6
v -14.8 0.4 16.5
v -14.8 0.4 15.1
v -14.8 0.4 15
v -14.8 0.7 16.6
v -14.8 0.7 16.5
v -14.8 0.7 15.1
v -14.8 0.7 15
v -14.8 0.8 16.6
v -14.8 0.8 16.5
v -14.8 0.8 15.1
v -14.8 0.8 15
v -14.8 0.9 16.6
v -14.8 0.9 16.5
v -14.8 0.9 15.1
v -14.8 0.9 15
v -14.7 0.7 16.6
v -14.7 0.7 16.5
v -14.7 0.7 15.1
v -14.7 0.7 15
v -14.7 0.8 16.6
v -14.7 0.8 16.5
v -14.7 0.8 15.1
v -14.7 0.8 15
v -14.4 0 16.5
v -14.4 0 15.1
v -14.4 0.4 16.4
v -14.4 0.4 15.2
v -14.4 0.5 16.5
v -14.4 0.5 16.4
v -14.4 0.5 15.2
v -14.4 0.5 15.1
v -14.4 1.6 16.5
v -14.4 1.6 16.4
v -14.4 1.6 15.2
v -14.4 1.6 15.1
v -14.4 1.7 16.4
v -14.4 1.7 15.2
v -15.5 0.5 16.6
v -15.5 0.9 16.6
v -15.4 0.5 16.6
v -15.4 0.8 16.6
v -15 0.4 16.6
v -15 0.8 16.6
v -14.8 0.4 16.6
v -14.8 0.7 16.6
v -14.8 0.8 16.6
v -14.8 0.9 16.6
v -14.7 0.7 16.6
v -14.7 0.8 16.6
v -15.5 0.4 16.5
v -15.5 0.5 16.5
v -15.4 0 16.5
v -15.4 0.4 16.5
v -15.4 0.5 16.5
v -15.4 0.8 16.5
v -15.4 0.9 16.5
v -15.4 1.3 16.5
v -15.4 1.6 16.5
v -15.3 1.2 16.5
v -15.3 1.3 16.5
v -15.2 1.1 16.5
v -15.2 1.2 16.5
v -15.1 0.5 16.5
v -15.1 0.8 16.5
v -15.1 0.9 16.5
v -15.1 1.1 16.5
v -15 0.4 16.5
v -15 0.5 16.5
v -15 0.8 16.5
v -14.8 0.4 16.5
v -14.8 0.7 16.5
v -14.8 0.8 16.5
v -14.8 0.9 16.5
v -14.7 0.6 16.5
v -14.7 0.7 16.5
v -14.7 0.8 16.5
v -14.5 0.5 16.5
v -14.5 0.6 16.5
v -14.4 0 16.5
v -14.4 0.5 16.5
v -14.4 1.6 16.5
v -15.4 1.6 16.4
v -15.4 1.7 16.4
v -14.4 1.6 16.4
v -14.4 1.7 16.4
v -15.5 1.6 16.1
v -15.5 1.7 16.1
v -15.4 1.6 16.1
v -15.4 1.7 16.1
v -15.5 1.5 16
v -15.5 1.6 16
v -15.4 1.5 16
v -15.4 1.6 16
v -15.5 0.4 15.9
v -15.5 0.5 15.9
v -15.5 1.4 15.9
v -15.5 1.5 15.9
v -15.4 0.4 15.9
v -15.4 0.5 15.9
v -15.4 1.4 15.9
v -15.4 1.5 15.9
v -15.5 1.3 15.8
v -15.5 1.4 15.8
v -15.4 1.3 15.8
v -15.4 1.4 15.8
v -15.5 0.6 15.7
v -15.5 0.7 15.7
v -15.5 1.2 15.7
v -15.5 1.3 15.7
v -15.4 0.6 15.7
v -15.4 0.7 15.7
v -15.4 1.2 15.7
v -15.4 1.3 15.7
v -15.5 0.4 15.6
v -15.5 0.5 15.6
v -15.4 0.4 15.6
v -15.4 0.5 15.6
v -15.5 0.4 16
v -15.5 0.5 16
v -15.4 0.4 16
v -15.4 0.5 16
v -15.5 0.6 15.9
v -15.5 0.7 15.9
v -15.4 0.6 15.9
v -15.4 0.7 15.9
v -15.5 0.4 15.7
v -15.5 0.5 15.7
v -15.5 1.6 15.7
v -15.5 1.7 15.7
v -15.4 0.4 15.7
v -15.4 0.5 15.7
v -15.4 1.6 15.7
v -15.4 1.7 15.7
v -15.5 1.5 15.6
v -15.5 1.6 15.6
v -15.4 1.5 15.6
v -15.4 1.6 15.6
v -15.5 1.4 15.5
v -15.5 1.5 15.5
v -15.4 1.4 15.5
v -15.4 1.5 15.5
v -15.5 1.3 15.4
v -15.5 1.4 15.4
v -15.4 1.3 15.4
v -15.4 1.4 15.4
v -15.5 1.2 15.3
v -15.5 1.3 15.3
v -15.4 1.2 15.3
v -15.4 1.3 15.3
v -15.4 1.6 15.2
v -15.4 1.7 15.2
v -14.4 1.6 15.2
v -14.4 1.7 15.2
v -15.5 0.4 15.1
v -15.5 0.5 15.1
v -15.4 0 15.1
v -15.4 0.4 15.1
v -15.4 0.5 15.1
v -15.4 0.8 15.1
v -15.4 0.9 15.1
v -15.4 1.4 15.1
v -15.4 1.6 15.1
v -15.3 1.3 15.1
v -15.3 1.4 15.1
v -15.2 1.1 15.1
v -15.2 1.3 15.1
v -15.1 0.5 15.1
v -15.1 0.8 15.1
v -15.1 0.9 15.1
v -15.1 1.1 15.1
v -15 0.4 15.1
v -15 0.5 15.1
v -15 0.8 15.1
v -14.8 0.4 15.1
v -14.8 0.7 15.1
v -14.8 0.8 15.1
v -14.8 0.9 15.1
v -14.7 0.6 15.1
v -14.7 0.7 15.1
v -14.7 0.8 15.1
v -14.5 0.5 15.1
v -14.5 0.6 15.1
v -14.4 0 15.1
v -14.4 0.5 15.1
v -14.4 1.6 15.1
v -15.5 0.5 15
v -15.5 0.9 15
v -15.4 0.5 15
v -15.4 0.8 15
v -15 0.4 15
v -15 0.8 15
v -14.8 0.4 15
v -14.8 0.7 15
v -14.8 0.8 15
v -14.8 0.9 15
v -14.7 0.7 15
v -14.7 0.8 15
v -15.4 0 16.5
v -14.4 0 16.5
v -15.4 0 15.1
v -14.4 0 15.1
v -15 0.4 16.6
v -14.8 0.4 16.6
v -15.5 0.4 16.5
v -15.4 0.4 16.5
v -15 0.4 16.5
v -14.8 0.4 16.5
v -15.4 0.4 16.2
v -15.5 0.4 16
v -15.4 0.4 16
v -15.5 0.4 15.9
v -15.4 0.4 15.9
v -15.5 0.4 15.7
v -15.4 0.4 15.7
v -15.5 0.4 15.6
v -15.4 0.4 15.6
v -15.4 0.4 15.4
v -15.5 0.4 15.1
v -15.4 0.4 15.1
v -15 0.4 15.1
v -14.8 0.4 15.1
v -15 0.4 15
v -14.8 0.4 15
v -15.5 0.5 16.6
v -15.4 0.5 16.6
v -15.5 0.5 16.5
v -15.4 0.5 16.5
v -15.5 0.5 16
v -15.4 0.5 16
v -15.5 0.5 15.9
v -15.4 0.5 15.9
v -15.5 0.5 15.7
v -15.4 0.5 15.7
v -15.5 0.5 15.6
v -15.4 0.5 15.6
v -15.5 0.5 15.1
v -15.4 0.5 15.1
v -15.5 0.5 15
v -15.4 0.5 15
v -14.8 0.7 16.6
v -14.7 0.7 16.6
v -14.8 0.7 16.5
v -14.7 0.7 16.5
v -15.5 0.7 15.9
v -15.4 0.7 15.9
v -15.5 0.7 15.7
v -15.4 0.7 15.7
v -14.8 0.7 15.1
v -14.7 0.7 15.1
v -14.8 0.7 15
v -14.7 0.7 15
v -15.4 0.8 16.6
v -15 0.8 16.6
v -15.4 0.8 16.5
v -15.1 0.8 16.5
v -15 0.8 16.5
v -15.4 0.8 15.1
v -15.1 0.8 15.1
v -15 0.8 15.1
v -15.4 0.8 15
v -15 0.8 15
v -15.5 1.2 15.7
v -15.4 1.2 15.7
v -15.5 1.2 15.3
v -15.4 1.2 15.3
v -15.5 1.3 15.8
v -15.4 1.3 15.8
v -15.5 1.3 15.7
v -15.4 1.3 15.7
v -15.5 1.4 15.9
v -15.4 1.4 15.9
v -15.5 1.4 15.8
v -15.4 1.4 15.8
v -15.5 1.5 16
v -15.4 1.5 16
v -15.5 1.5 15.9
v -15.4 1.5 15.9
v -15.5 1.6 16.1
v -15.4 1.6 16.1
v -15.5 1.6 16
v -15.4 1.6 16
v -15.5 0.6 15.9
v -15.4 0.6 15.9
v -15.5 0.6 15.7
v -15.4 0.6 15.7
v -14.8 0.8 16.6
v -14.7 0.8 16.6
v -14.8 0.8 16.5
v -14.7 0.8 16.5
v -14.8 0.8 15.1
v -14.7 0.8 15.1
v -14.8 0.8 15
v -14.7 0.8 15
v -15.5 0.9 16.6
v -14.8 0.9 16.6
v -15.4 0.9 16.5
v -15.1 0.9 16.5
v -14.8 0.9 16.5
v -15.4 0.9 16.4
v -15.4 0.9 16.3
v -15.4 0.9 16.1
v -15.4 0.9 16
v -15.4 0.9 15.6
v -15.4 0.9 15.5
v -15.4 0.9 15.3
v -15.4 0.9 15.2
v -15.4 0.9 15.1
v -15.1 0.9 15.1
v -14.8 0.9 15.1
v -15.5 0.9 15
v -14.8 0.9 15
v -15.5 1.3 15.4
v -15.4 1.3 15.4
v -15.5 1.3 15.3
v -15.4 1.3 15.3
v -15.5 1.4 15.5
v -15.4 1.4 15.5
v -15.5 1.4 15.4
v -15.4 1.4 15.4
v -15.5 1.5 15.6
v -15.4 1.5 15.6
v -15.5 1.5 15.5
v -15.4 1.5 15.5
v -15.4 1.6 16.5
v -14.4 1.6 16.5
v -15.4 1.6 16.4
v -14.4 1.6 16.4
v -15.5 1.6 15.7
v -15.4 1.6 15.7
v -15.5 1.6 15.6
v -15.4 1.6 15.6
v -15.4 1.6 15.2
v -14.4 1.6 15.2
v -15.4 1.6 15.1
v -14.4 1.6 15.1
v -15.4 1.7 16.4
v -14.4 1.7 16.4
v -15.5 1.7 16.1
v -15.4 1.7 16.1
v -15.5 1.7 15.7
v -15.4 1.7 15.7
v -15.4 1.7 15.2
v -14.4 1.7 15.2

# faces
f 8/8/1 2/8/1 1/8/1
f 9/8/1 2/8/1 8/8/1
f 10/4/1 4/4/1 3/4/1
f 11/4/1 4/4/1 10/4/1
f 12/8/1 6/8/1 5/8/1
f 13/8/1 6/8/1 12/8/1
f 15/4/1 11/4/1 10/4/1
f 15/8/1 10/8/1 9/8/1
f 16/8/1 12/8/1 11/8/1
f 16/4/1 11/4/1 15/4/1
f 17/8/1 15/8/1 9/8/1
f 18/8/1 12/8/1 16/8/1
f 19/7/1 9/7/1 8/7/1
f 19/8/1 8/8/1 7/8/1
f 20/8/1 18/8/1 17/8/1
f 20/7/1 9/7/1 19/7/1
f 20/8/1 17/8/1 9/8/1
f 21/8/1 12/8/1 18/8/1
f 21/8/1 18/8/1 20/8/1
f 21/7/1 13/7/1 12/7/1
f 22/8/1 14/8/1 13/8/1
f 22/7/1 13/7/1 21/7/1
f 23/8/1 21/8/1 20/8/1
f 23/8/1 19/8/1 7/8/1
f 23/8/1 22/8/1 21/8/1
f 23/8/1 20/8/1 19/8/1
f 24/8/1 14/8/1 22/8/1
f 24/8/1 22/8/1 23/8/1
f 28/5/1 26/5/1 25/5/1
f 29/5/1 26/5/1 28/5/1
f 30/5/1 26/5/1 29/5/1
f 32/5/1 28/5/1 27/5/1
f 32/5/1 29/5/1 28/5/1
f 33/5/1 29/5/1 32/5/1
f 34/5/1 29/5/1 33/5/1
f 36/5/1 32/5/1 31/5/1
f 36/5/1 33/5/1 32/5/1
f 37/5/1 33/5/1 36/5/1
f 38/5/1 33/5/1 37/5/1
f 40/5/1 36/5/1 35/5/1
f 40/5/1 37/5/1 36/5/1
f 41/5/1 37/5/1 40/5/1
f 42/5/1 37/5/1 41/5/1
f 43/5/1 40/5/1 39/5/1
f 43/5/1 41/5/1 40/5/1
f 44/5/1 41/5/1 43/5/1
f 47/2/1 46/2/1 45/2/1
f 48/2/1 46/2/1 47/2/1
f 49/2/1 47/2/1 45/2/1
f 50/2/1 47/2/1 49/2/1
f 51/4/1 48/4/1 47/4/1
f 51/2/1 47/2/1 50/2/1
f 52/2/1 46/2/1 48/2/1
f 52/4/1 48/4/1 51/4/1
f 53/2/1 46/2/1 52/2/1
f 54/2/1 46/2/1 53/2/1
f 55/4/1 51/4/1 50/4/1
f 55/6/1 50/6/1 49/6/1
f 56/1/1 52/1/1 51/1/1
f 56/4/1 51/4/1 55/4/1
f 57/4/1 53/4/1 52/4/1
f 57/1/1 52/1/1 56/1/1
f 58/6/1 54/6/1 53/6/1
f 58/4/1 53/4/1 57/4/1
f 59/2/1 49/2/1 45/2/1
f 60/6/1 57/6/1 56/6/1
f 60/2/1 49/2/1 59/2/1
f 60/6/1 55/6/1 49/6/1
f 60/6/1 58/6/1 57/6/1
f 60/6/1 56/6/1 55/6/1
f 61/6/1 58/6/1 60/6/1
f 62/6/1 58/6/1 61/6/1
f 63/6/1 58/6/1 62/6/1
f 64/6/1 58/6/1 63/6/1
f 65/2/1 46/2/1 54/2/1
f 65/6/1 58/6/1 64/6/1
f 65/6/1 54/6/1 58/6/1
f 66/2/1 46/2/1 65/2/1
f 67/2/1 62/2/1 61/2/1
f 68/2/1 62/2/1 67/2/1
f 69/2/1 64/2/1 63/2/1
f 70/2/1 64/2/1 69/2/1
f 73/2/1 72/2/1 71/2/1
f 74/2/1 72/2/1 73/2/1
f 85/2/1 76/2/1 75/2/1
f 85/6/1 77/6/1 76/6/1
f 86/5/1 78/5/1 77/5/1
f 86/6/1 77/6/1 85/6/1
f 87/6/1 79/6/1 78/6/1
f 87/5/1 78/5/1 86/5/1
f 88/2/1 80/2/1 79/2/1
f 88/6/1 79/6/1 87/6/1
f 89/6/1 81/6/1 80/6/1
f 89/2/1 80/2/1 88/2/1
f 90/5/1 82/5/1 81/5/1
f 90/6/1 81/6/1 89/6/1
f 91/6/1 83/6/1 82/6/1
f 91/5/1 82/5/1 90/5/1
f 92/2/1 84/2/1 83/2/1
f 92/6/1 83/6/1 91/6/1
f 93/2/1 87/2/1 86/2/1
f 93/2/1 86/2/1 85/2/1
f 93/2/1 92/2/1 91/2/1
f 93/2/1 89/2/1 88/2/1
f 93/2/1 88/2/1 87/2/1
f 93/2/1 91/2/1 90/2/1
f 93/2/1 90/2/1 89/2/1
f 94/2/1 92/2/1 93/2/1
f 95/2/1 85/2/1 75/2/1
f 95/2/1 93/2/1 85/2/1
f 96/2/1 93/2/1 95/2/1
f 97/2/1 93/2/1 96/2/1
f 98/2/1 93/2/1 97/2/1
f 100/2/1 92/2/1 94/2/1
f 101/5/1 96/5/1 95/5/1
f 101/2/1 97/2/1 96/2/1
f 102/2/1 97/2/1 101/2/1
f 103/2/1 97/2/1 102/2/1
f 104/2/1 97/2/1 103/2/1
f 106/2/1 100/2/1 99/2/1
f 107/2/1 84/2/1 92/2/1
f 107/2/1 92/2/1 100/2/1
f 107/2/1 100/2/1 106/2/1
f 108/5/1 102/5/1 101/5/1
f 108/2/1 103/2/1 102/2/1
f 109/2/1 103/2/1 108/2/1
f 110/2/1 103/2/1 109/2/1
f 112/5/1 106/5/1 105/5/1
f 112/5/1 107/5/1 106/5/1
f 113/5/1 101/5/1 95/5/1
f 113/5/1 109/5/1 108/5/1
f 113/5/1 108/5/1 101/5/1
f 114/5/1 109/5/1 113/5/1
f 115/5/1 109/5/1 114/5/1
f 116/5/1 109/5/1 115/5/1
f 118/5/1 112/5/1 111/5/1
f 119/5/1 107/5/1 112/5/1
f 119/5/1 112/5/1 118/5/1
f 120/5/1 107/5/1 119/5/1
f 121/5/1 115/5/1 114/5/1
f 122/5/1 115/5/1 121/5/1
f 123/5/1 118/5/1 117/5/1
f 123/5/1 119/5/1 118/5/1
f 124/5/1 119/5/1 123/5/1
f 129/4/1 126/4/1 125/4/1
f 130/4/1 128/4/1 127/4/1
f 131/4/1 129/4/1 125/4/1
f 132/4/1 129/4/1 131/4/1
f 133/4/1 128/4/1 130/4/1
f 134/4/1 128/4/1 133/4/1
f 135/8/2 136/8/2 139/8/2
f 139/8/2 136/8/2 140/8/2
f 137/8/2 138/8/2 141/8/2
f 141/8/2 138/8/2 142/8/2
f 143/4/2 144/4/2 147/4/2
f 147/4/2 144/4/2 148/4/2
f 145/4/2 146/4/2 149/4/2
f 149/4/2 146/4/2 150/4/2
f 151/8/2 152/8/2 155/8/2
f 155/8/2 152/8/2 156/8/2
f 153/8/2 154/8/2 157/8/2
f 157/8/2 154/8/2 158/8/2
f 159/8/2 160/8/2 163/8/2
f 163/8/2 160/8/2 164/8/2
f 161/8/2 162/8/2 165/8/2
f 165/8/2 162/8/2 166/8/2
f 167/2/2 168/2/2 169/2/2
f 169/2/2 168/2/2 170/2/2
f 167/2/2 169/2/2 171/2/2
f 169/5/2 170/5/2 172/5/2
f 171/2/2 169/2/2 172/2/2
f 170/2/2 168/2/2 173/2/2
f 172/5/2 170/5/2 173/5/2
f 173/2/2 168/2/2 174/2/2
f 171/5/2 172/5/2 175/5/2
f 172/5/2 173/5/2 175/5/2
f 173/5/2 174/5/2 175/5/2
f 175/5/2 174/5/2 176/5/2
f 176/5/2 174/5/2 177/5/2
f 177/5/2 174/5/2 178/5/2
f 176/5/2 177/5/2 179/5/2
f 179/5/2 177/5/2 180/5/2
f 183/8/3 182/8/3 181/8/3
f 184/8/3 182/8/3 183/8/3
f 186/8/3 182/8/3 184/8/3
f 187/4/3 186/4/3 185/4/3
f 188/4/3 186/4/3 187/4/3
f 189/8/3 182/8/3 186/8/3
f 189/4/3 186/4/3 188/4/3
f 190/8/3 182/8/3 189/8/3
f 191/8/3 189/8/3 188/8/3
f 192/8/3 189/8/3 191/8/3
f 196/8/3 194/8/3 193/8/3
f 197/8/3 194/8/3 196/8/3
f 202/2/3 200/2/3 199/2/3
f 203/5/3 201/5/3 200/5/3
f 203/2/3 200/2/3 202/2/3
f 204/2/3 202/2/3 199/2/3
f 205/5/3 203/5/3 202/5/3
f 205/2/3 202/2/3 204/2/3
f 206/2/3 196/2/3 195/2/3
f 206/2/3 197/2/3 196/2/3
f 206/2/3 198/2/3 197/2/3
f 207/2/3 198/2/3 206/2/3
f 208/2/3 204/2/3 199/2/3
f 209/5/3 205/5/3 204/5/3
f 209/2/3 204/2/3 208/2/3
f 210/2/3 206/2/3 195/2/3
f 211/5/3 207/5/3 206/5/3
f 211/2/3 206/2/3 210/2/3
f 212/5/3 207/5/3 211/5/3
f 213/2/3 210/2/3 195/2/3
f 216/5/3 209/5/3 208/5/3
f 217/2/3 214/2/3 213/2/3
f 218/2/3 214/2/3 217/2/3
f 219/5/3 216/5/3 215/5/3
f 220/2/3 217/2/3 213/2/3
f 221/5/3 218/5/3 217/5/3
f 221/2/3 217/2/3 220/2/3
f 221/5/3 219/5/3 218/5/3
f 222/2/3 220/2/3 213/2/3
f 222/2/3 213/2/3 195/2/3
f 223/5/3 221/5/3 220/5/3
f 223/2/3 220/2/3 222/2/3
f 224/5/3 203/5/3 205/5/3
f 224/5/3 221/5/3 223/5/3
f 224/5/3 219/5/3 221/5/3
f 224/5/3 201/5/3 203/5/3
f 224/5/3 216/5/3 219/5/3
f 224/5/3 209/5/3 216/5/3
f 224/5/3 205/5/3 209/5/3
f 227/5/3 226/5/3 225/5/3
f 228/5/3 226/5/3 227/5/3
f 231/5/3 230/5/3 229/5/3
f 232/5/3 230/5/3 231/5/3
f 235/5/3 234/5/3 233/5/3
f 236/5/3 234/5/3 235/5/3
f 241/4/3 238/4/3 237/4/3
f 242/4/3 238/4/3 241/4/3
f 243/5/3 240/5/3 239/5/3
f 244/5/3 240/5/3 243/5/3
f 247/5/3 246/5/3 245/5/3
f 248/5/3 246/5/3 247/5/3
f 253/8/3 250/8/3 249/8/3
f 254/8/3 250/8/3 253/8/3
f 255/5/3 252/5/3 251/5/3
f 256/5/3 252/5/3 255/5/3
f 259/8/3 258/8/3 257/8/3
f 260/8/3 258/8/3 259/8/3
f 261/8/4 262/8/4 263/8/4
f 263/8/4 262/8/4 264/8/4
f 265/8/4 266/8/4 267/8/4
f 267/8/4 266/8/4 268/8/4
f 269/4/4 270/4/4 273/4/4
f 273/4/4 270/4/4 274/4/4
f 271/5/4 272/5/4 275/5/4
f 275/5/4 272/5/4 276/5/4
f 277/5/4 278/5/4 279/5/4
f 279/5/4 278/5/4 280/5/4
f 281/5/4 282/5/4 283/5/4
f 283/5/4 282/5/4 284/5/4
f 285/5/4 286/5/4 287/5/4
f 287/5/4 286/5/4 288/5/4
f 289/5/4 290/5/4 291/5/4
f 291/5/4 290/5/4 292/5/4
f 293/5/4 294/5/4 295/5/4
f 295/5/4 294/5/4 296/5/4
f 297/8/4 298/8/4 300/8/4
f 300/8/4 298/8/4 301/8/4
f 303/2/4 304/2/4 306/2/4
f 304/5/4 305/5/4 307/5/4
f 306/2/4 304/2/4 307/2/4
f 303/2/4 306/2/4 308/2/4
f 306/5/4 307/5/4 309/5/4
f 308/2/4 306/2/4 309/2/4
f 299/2/4 300/2/4 310/2/4
f 300/2/4 301/2/4 310/2/4
f 301/2/4 302/2/4 310/2/4
f 310/2/4 302/2/4 311/2/4
f 303/2/4 308/2/4 312/2/4
f 308/5/4 309/5/4 313/5/4
f 312/2/4 308/2/4 313/2/4
f 299/2/4 310/2/4 314/2/4
f 310/5/4 311/5/4 315/5/4
f 314/2/4 310/2/4 315/2/4
f 315/5/4 311/5/4 316/5/4
f 299/2/4 314/2/4 317/2/4
f 312/5/4 313/5/4 320/5/4
f 317/2/4 318/2/4 321/2/4
f 321/2/4 318/2/4 322/2/4
f 319/5/4 320/5/4 323/5/4
f 317/2/4 321/2/4 324/2/4
f 321/5/4 322/5/4 325/5/4
f 324/2/4 321/2/4 325/2/4
f 322/5/4 323/5/4 325/5/4
f 317/2/4 324/2/4 326/2/4
f 299/2/4 317/2/4 326/2/4
f 324/5/4 325/5/4 327/5/4
f 326/2/4 324/2/4 327/2/4
f 309/5/4 307/5/4 328/5/4
f 327/5/4 325/5/4 328/5/4
f 325/5/4 323/5/4 328/5/4
f 307/5/4 305/5/4 328/5/4
f 323/5/4 320/5/4 328/5/4
f 320/5/4 313/5/4 328/5/4
f 313/5/4 309/5/4 328/5/4
f 329/8/4 330/8/4 331/8/4
f 331/8/4 330/8/4 332/8/4
f 332/8/4 330/8/4 334/8/4
f 333/4/4 334/4/4 335/4/4
f 335/4/4 334/4/4 336/4/4
f 334/8/4 330/8/4 337/8/4
f 336/4/4 334/4/4 337/4/4
f 337/8/4 330/8/4 338/8/4
f 336/8/4 337/8/4 339/8/4
f 339/8/4 337/8/4 340/8/4
f 343/2/5 342/2/5 341/2/5
f 344/2/5 342/2/5 343/2/5
f 349/4/5 346/4/5 345/4/5
f 350/4/5 346/4/5 349/4/5
f 351/8/5 348/8/5 347/8/5
f 352/8/5 351/8/5 347/8/5
f 353/8/5 351/8/5 352/8/5
f 356/4/5 355/4/5 354/4/5
f 357/4/5 355/4/5 356/4/5
f 360/8/5 359/8/5 358/8/5
f 361/8/5 360/8/5 358/8/5
f 362/8/5 360/8/5 361/8/5
f 365/4/5 364/4/5 363/4/5
f 366/4/5 364/4/5 365/4/5
f 369/8/5 368/8/5 367/8/5
f 370/8/5 368/8/5 369/8/5
f 373/8/5 372/8/5 371/8/5
f 374/8/5 372/8/5 373/8/5
f 377/8/5 376/8/5 375/8/5
f 378/8/5 376/8/5 377/8/5
f 381/8/5 380/8/5 379/8/5
f 382/8/5 380/8/5 381/8/5
f 385/8/5 384/8/5 383/8/5
f 386/8/5 384/8/5 385/8/5
f 389/8/5 388/8/5 387/8/5
f 390/8/5 388/8/5 389/8/5
f 393/8/5 392/8/5 391/8/5
f 394/8/5 392/8/5 393/8/5
f 397/8/5 396/8/5 395/8/5
f 398/8/5 396/8/5 397/8/5
f 399/8/5 396/8/5 398/8/5
f 403/8/5 401/8/5 400/8/5
f 403/8/5 402/8/5 401/8/5
f 404/8/5 402/8/5 403/8/5
f 407/5/5 406/5/5 405/5/5
f 408/5/5 406/5/5 407/5/5
f 411/5/5 410/5/5 409/5/5
f 412/5/5 410/5/5 411/5/5
f 415/5/5 414/5/5 413/5/5
f 416/5/5 414/5/5 415/5/5
f 419/5/5 418/5/5 417/5/5
f 420/5/5 418/5/5 419/5/5
f 423/5/5 422/5/5 421/5/5
f 424/5/5 422/5/5 423/5/5
f 425/4/6 426/4/6 427/4/6
f 427/4/6 426/4/6 428/4/6
f 429/8/6 430/8/6 431/8/6
f 431/8/6 430/8/6 432/8/6
f 433/8/6 434/8/6 435/8/6
f 435/8/6 434/8/6 436/8/6
f 437/8/6 438/8/6 439/8/6
f 439/8/6 438/8/6 440/8/6
f 440/8/6 438/8/6 441/8/6
f 437/8/6 439/8/6 442/8/6
f 437/8/6 442/8/6 443/8/6
f 437/8/6 443/8/6 444/8/6
f 437/8/6 444/8/6 445/8/6
f 437/8/6 445/8/6 446/8/6
f 437/8/6 446/8/6 447/8/6
f 437/8/6 447/8/6 448/8/6
f 437/8/6 448/8/6 449/8/6
f 437/8/6 449/8/6 450/8/6
f 437/8/6 450/8/6 453/8/6
f 451/8/6 452/8/6 453/8/6
f 450/8/6 451/8/6 453/8/6
f 453/8/6 452/8/6 454/8/6
f 455/5/6 456/5/6 457/5/6
f 457/5/6 456/5/6 458/5/6
f 459/5/6 460/5/6 461/5/6
f 461/5/6 460/5/6 462/5/6
f 463/5/6 464/5/6 465/5/6
f 465/5/6 464/5/6 466/5/6
f 467/5/6 468/5/6 469/5/6
f 469/5/6 468/5/6 470/5/6
f 471/5/6 472/5/6 473/5/6
f 473/5/6 472/5/6 474/5/6
f 475/5/6 476/5/6 477/5/6
f 477/5/6 476/5/6 478/5/6
f 479/5/6 480/5/6 482/5/6
f 481/5/6 482/5/6 483/5/6
f 482/5/6 480/5/6 484/5/6
f 483/5/6 482/5/6 484/5/6
f 484/5/6 480/5/6 485/5/6
f 485/5/6 480/5/6 486/5/6
