# MagicaVoxel @ Ephtracy

# group
o 

# material
mtllib road_b_a.mtl
usemtl palette

# normals
vn -1 0 0
vn 1 0 0
vn 0 0 1
vn 0 0 -1
vn 0 -1 0
vn 0 1 0

# texcoords
vt 0.880859 0.5
vt 0.951172 0.5

# verts
v -3.2 0 3.2
v -3.2 0 -3.2
v -3.2 0.1 3.1
v -3.2 0.1 3
v -3.2 0.1 -2.9
v -3.2 0.1 -3
v -3.2 0.2 3.2
v -3.2 0.2 3.1
v -3.2 0.2 3
v -3.2 0.2 -2.9
v -3.2 0.2 -3
v -3.2 0.2 -3.2
v 3.2 0 3.2
v 3.2 0 -3.2
v 3.2 0.1 3.1
v 3.2 0.1 3
v 3.2 0.1 -2.9
v 3.2 0.1 -3
v 3.2 0.2 3.2
v 3.2 0.2 3.1
v 3.2 0.2 3
v 3.2 0.2 -2.9
v 3.2 0.2 -3
v 3.2 0.2 -3.2
v -3.2 0 3.2
v -3.2 0.2 3.2
v 3.2 0 3.2
v 3.2 0.2 3.2
v -3.2 0 -3.2
v -3.2 0.2 -3.2
v 3.2 0 -3.2
v 3.2 0.2 -3.2
v -3.2 0 3.2
v 3.2 0 3.2
v -3.2 0 -3.2
v 3.2 0 -3.2
v -3.2 0.2 3.2
v 3.2 0.2 3.2
v -3.2 0.2 3.1
v 3.2 0.2 3.1
v -3.2 0.2 3
v 3.2 0.2 3
v -3 0.2 0.0999999
v -2.6 0.2 0.0999999
v -2.2 0.2 0.0999999
v -1.8 0.2 0.0999999
v -1.4 0.2 0.0999999
v -1 0.2 0.0999999
v -0.6 0.2 0.0999999
v -0.2 0.2 0.0999999
v 0.2 0.2 0.0999999
v 0.6 0.2 0.0999999
v 1 0.2 0.0999999
v 1.4 0.2 0.0999999
v 1.8 0.2 0.0999999
v 2.2 0.2 0.0999999
v 2.6 0.2 0.0999999
v 3 0.2 0.0999999
v -3 0.2 0
v -2.6 0.2 0
v -2.2 0.2 0
v -1.8 0.2 0
v -1.4 0.2 0
v -1 0.2 0
v -0.6 0.2 0
v -0.2 0.2 0
v 0.2 0.2 0
v 0.6 0.2 0
v 1 0.2 0
v 1.4 0.2 0
v 1.8 0.2 0
v 2.2 0.2 0
v 2.6 0.2 0
v 3 0.2 0
v -3.2 0.2 -2.9
v 3.2 0.2 -2.9
v -3.2 0.2 -3
v 3.2 0.2 -3
v -3.2 0.2 -3.2
v 3.2 0.2 -3.2

# faces
f 3/1/1 2/1/1 1/1/1
f 4/1/1 2/1/1 3/1/1
f 5/1/1 2/1/1 4/1/1
f 6/1/1 2/1/1 5/1/1
f 7/1/1 3/1/1 1/1/1
f 8/2/1 4/2/1 3/2/1
f 8/1/1 3/1/1 7/1/1
f 9/1/1 5/1/1 4/1/1
f 9/2/1 4/2/1 8/2/1
f 10/2/1 6/2/1 5/2/1
f 10/1/1 5/1/1 9/1/1
f 11/1/1 2/1/1 6/1/1
f 11/2/1 6/2/1 10/2/1
f 12/1/1 2/1/1 11/1/1
f 13/1/2 14/1/2 15/1/2
f 15/1/2 14/1/2 16/1/2
f 16/1/2 14/1/2 17/1/2
f 17/1/2 14/1/2 18/1/2
f 13/1/2 15/1/2 19/1/2
f 15/2/2 16/2/2 20/2/2
f 19/1/2 15/1/2 20/1/2
f 16/1/2 17/1/2 21/1/2
f 20/2/2 16/2/2 21/2/2
f 17/2/2 18/2/2 22/2/2
f 21/1/2 17/1/2 22/1/2
f 18/1/2 14/1/2 23/1/2
f 22/2/2 18/2/2 23/2/2
f 23/1/2 14/1/2 24/1/2
f 27/1/3 26/1/3 25/1/3
f 28/1/3 26/1/3 27/1/3
f 29/1/4 30/1/4 31/1/4
f 31/1/4 30/1/4 32/1/4
f 35/1/5 34/1/5 33/1/5
f 36/1/5 34/1/5 35/1/5
f 37/1/6 38/1/6 39/1/6
f 39/1/6 38/1/6 40/1/6
f 39/2/6 40/2/6 41/2/6
f 41/2/6 40/2/6 42/2/6
f 41/1/6 42/1/6 43/1/6
f 43/1/6 42/1/6 44/1/6
f 44/1/6 42/1/6 45/1/6
f 45/1/6 42/1/6 46/1/6
f 46/1/6 42/1/6 47/1/6
f 47/1/6 42/1/6 48/1/6
f 48/1/6 42/1/6 49/1/6
f 49/1/6 42/1/6 50/1/6
f 50/1/6 42/1/6 51/1/6
f 51/1/6 42/1/6 52/1/6
f 52/1/6 42/1/6 53/1/6
f 53/1/6 42/1/6 54/1/6
f 54/1/6 42/1/6 55/1/6
f 55/1/6 42/1/6 56/1/6
f 56/1/6 42/1/6 57/1/6
f 57/1/6 42/1/6 58/1/6
f 41/1/6 43/1/6 59/1/6
f 43/2/6 44/2/6 59/2/6
f 44/1/6 45/1/6 60/1/6
f 59/2/6 44/2/6 60/2/6
f 45/2/6 46/2/6 61/2/6
f 60/1/6 45/1/6 61/1/6
f 46/1/6 47/1/6 62/1/6
f 61/2/6 46/2/6 62/2/6
f 47/2/6 48/2/6 63/2/6
f 62/1/6 47/1/6 63/1/6
f 48/1/6 49/1/6 64/1/6
f 63/2/6 48/2/6 64/2/6
f 49/2/6 50/2/6 65/2/6
f 64/1/6 49/1/6 65/1/6
f 50/1/6 51/1/6 66/1/6
f 65/2/6 50/2/6 66/2/6
f 51/2/6 52/2/6 67/2/6
f 66/1/6 51/1/6 67/1/6
f 52/1/6 53/1/6 68/1/6
f 67/2/6 52/2/6 68/2/6
f 53/2/6 54/2/6 69/2/6
f 68/1/6 53/1/6 69/1/6
f 54/1/6 55/1/6 70/1/6
f 69/2/6 54/2/6 70/2/6
f 55/2/6 56/2/6 71/2/6
f 70/1/6 55/1/6 71/1/6
f 56/1/6 57/1/6 72/1/6
f 71/2/6 56/2/6 72/2/6
f 57/2/6 58/2/6 73/2/6
f 72/1/6 57/1/6 73/1/6
f 58/1/6 42/1/6 74/1/6
f 73/2/6 58/2/6 74/2/6
f 72/1/6 73/1/6 75/1/6
f 71/1/6 72/1/6 75/1/6
f 73/1/6 74/1/6 75/1/6
f 70/1/6 71/1/6 75/1/6
f 69/1/6 70/1/6 75/1/6
f 68/1/6 69/1/6 75/1/6
f 67/1/6 68/1/6 75/1/6
f 66/1/6 67/1/6 75/1/6
f 65/1/6 66/1/6 75/1/6
f 64/1/6 65/1/6 75/1/6
f 63/1/6 64/1/6 75/1/6
f 62/1/6 63/1/6 75/1/6
f 61/1/6 62/1/6 75/1/6
f 60/1/6 61/1/6 75/1/6
f 59/1/6 60/1/6 75/1/6
f 41/1/6 59/1/6 75/1/6
f 74/1/6 42/1/6 76/1/6
f 75/1/6 74/1/6 76/1/6
f 75/2/6 76/2/6 77/2/6
f 77/2/6 76/2/6 78/2/6
f 77/1/6 78/1/6 79/1/6
f 79/1/6 78/1/6 80/1/6
