# MagicaVoxel @ Ephtracy

# group
o 

# material
mtllib sidewalk_tree_b.mtl
usemtl palette

# normals
vn -1 0 0
vn 1 0 0
vn 0 0 1
vn 0 0 -1
vn 0 -1 0
vn 0 1 0

# texcoords
vt 0.939453 0.5
vt 0.947266 0.5
vt 0.982422 0.5

# verts
v -0.3 0.6 0.3
v -0.3 0.6 -0.2
v -0.3 1.2 0.3
v -0.3 1.2 -0.2
v -0.1 0 0.1
v -0.1 0 -0.2
v -0.1 0.1 0.1
v -0.1 0.1 -0.2
v -0.1 0.4 0.2
v -0.1 0.4 -0.1
v -0.1 0.5 0.1
v -0.1 0.5 -0.1
v -0.1 0.6 0.2
v -0.1 0.6 0.1
v -0.1 0.6 -0.2
v -0.1 0.6 -0.4
v -0.1 1 -0.2
v -0.1 1 -0.4
v 0 0.1 0
v 0 0.1 -0.1
v 0 0.4 0
v 0 0.4 -0.1
v 0 0.4 -0.2
v 0 0.5 0
v 0 0.5 -0.1
v 0 0.5 -0.2
v 0 0.6 0
v 0 0.6 -0.1
v 0.2 0.5 -0.1
v 0.2 0.5 -0.2
v 0.2 0.6 -0.1
v 0.2 0.6 -0.2
v 0 0.4 0.2
v 0 0.4 0
v 0 0.5 0.1
v 0 0.5 0
v 0 0.6 0.2
v 0 0.6 0.1
v 0.1 0.1 0
v 0.1 0.1 -0.1
v 0.1 0.4 -0.1
v 0.1 0.5 -0.1
v 0.1 0.6 0
v 0.1 0.6 -0.1
v 0.2 0 0.1
v 0.2 0 -0.2
v 0.2 0.1 0.1
v 0.2 0.1 -0.2
v 0.2 0.6 0.3
v 0.2 0.6 0.1
v 0.2 1 0.1
v 0.2 1 -0.2
v 0.2 1.2 0.3
v 0.2 1.2 -0.2
v 0.3 0.4 -0.1
v 0.3 0.4 -0.2
v 0.3 0.6 -0.1
v 0.3 0.6 -0.2
v 0.4 0.6 0.1
v 0.4 0.6 -0.4
v 0.4 1 0.1
v 0.4 1 -0.4
v -0.3 0.6 0.3
v -0.3 1.2 0.3
v 0.2 0.6 0.3
v 0.2 1.2 0.3
v -0.1 0.4 0.2
v -0.1 0.6 0.2
v 0 0.4 0.2
v 0 0.6 0.2
v -0.1 0 0.1
v -0.1 0.1 0.1
v 0.2 0 0.1
v 0.2 0.1 0.1
v 0.2 0.6 0.1
v 0.2 1 0.1
v 0.4 0.6 0.1
v 0.4 1 0.1
v 0 0.1 0
v 0 0.4 0
v 0 0.5 0
v 0 0.6 0
v 0.1 0.1 0
v 0.1 0.6 0
v 0.1 0.4 -0.1
v 0.1 0.5 -0.1
v 0.2 0.5 -0.1
v 0.2 0.6 -0.1
v 0.3 0.4 -0.1
v 0.3 0.6 -0.1
v -0.1 0.5 0.1
v -0.1 0.6 0.1
v 0 0.5 0.1
v 0 0.6 0.1
v -0.1 0.4 -0.1
v -0.1 0.5 -0.1
v 0 0.1 -0.1
v 0 0.4 -0.1
v 0 0.5 -0.1
v 0 0.6 -0.1
v 0.1 0.1 -0.1
v 0.1 0.4 -0.1
v 0.1 0.5 -0.1
v 0.1 0.6 -0.1
v -0.3 0.6 -0.2
v -0.3 1.2 -0.2
v -0.1 0 -0.2
v -0.1 0.1 -0.2
v -0.1 0.6 -0.2
v -0.1 1 -0.2
v 0 0.4 -0.2
v 0 0.5 -0.2
v 0.2 0 -0.2
v 0.2 0.1 -0.2
v 0.2 0.5 -0.2
v 0.2 0.6 -0.2
v 0.2 1 -0.2
v 0.2 1.2 -0.2
v 0.3 0.4 -0.2
v 0.3 0.6 -0.2
v -0.1 0.6 -0.4
v -0.1 1 -0.4
v 0.4 0.6 -0.4
v 0.4 1 -0.4
v -0.1 0 0.1
v 0.2 0 0.1
v -0.1 0 -0.2
v 0.2 0 -0.2
v -0.1 0.4 0.2
v 0 0.4 0.2
v 0 0.4 0
v -0.1 0.4 -0.1
v 0 0.4 -0.1
v 0.1 0.4 -0.1
v 0.3 0.4 -0.1
v 0 0.4 -0.2
v 0.3 0.4 -0.2
v -0.3 0.6 0.3
v 0.2 0.6 0.3
v -0.1 0.6 0.2
v 0 0.6 0.2
v -0.1 0.6 0.1
v 0 0.6 0.1
v 0.2 0.6 0.1
v 0.4 0.6 0.1
v 0 0.6 0
v 0.1 0.6 0
v 0 0.6 -0.1
v 0.1 0.6 -0.1
v 0.2 0.6 -0.1
v 0.3 0.6 -0.1
v -0.3 0.6 -0.2
v -0.1 0.6 -0.2
v 0.2 0.6 -0.2
v 0.3 0.6 -0.2
v -0.1 0.6 -0.4
v 0.4 0.6 -0.4
v -0.1 0.1 0.1
v 0.2 0.1 0.1
v 0 0.1 0
v 0.1 0.1 0
v 0 0.1 -0.1
v 0.1 0.1 -0.1
v -0.1 0.1 -0.2
v 0.2 0.1 -0.2
v -0.1 0.5 0.1
v 0 0.5 0.1
v 0 0.5 0
v -0.1 0.5 -0.1
v 0 0.5 -0.1
v 0.1 0.5 -0.1
v 0.2 0.5 -0.1
v 0 0.5 -0.2
v 0.2 0.5 -0.2
v 0.2 1 0.1
v 0.4 1 0.1
v -0.1 1 -0.2
v 0.2 1 -0.2
v -0.1 1 -0.4
v 0.4 1 -0.4
v -0.3 1.2 0.3
v 0.2 1.2 0.3
v -0.3 1.2 -0.2
v 0.2 1.2 -0.2

# faces
f 3/3/1 2/3/1 1/3/1
f 4/3/1 2/3/1 3/3/1
f 7/2/1 6/2/1 5/2/1
f 8/2/1 6/2/1 7/2/1
f 11/1/1 10/1/1 9/1/1
f 12/1/1 10/1/1 11/1/1
f 13/1/1 11/1/1 9/1/1
f 14/1/1 11/1/1 13/1/1
f 17/3/1 16/3/1 15/3/1
f 18/3/1 16/3/1 17/3/1
f 21/1/1 20/1/1 19/1/1
f 22/1/1 20/1/1 21/1/1
f 25/1/1 23/1/1 22/1/1
f 26/1/1 23/1/1 25/1/1
f 27/1/1 25/1/1 24/1/1
f 28/1/1 25/1/1 27/1/1
f 31/1/1 30/1/1 29/1/1
f 32/1/1 30/1/1 31/1/1
f 33/1/2 34/1/2 35/1/2
f 35/1/2 34/1/2 36/1/2
f 33/1/2 35/1/2 37/1/2
f 37/1/2 35/1/2 38/1/2
f 39/1/2 40/1/2 41/1/2
f 39/1/2 41/1/2 42/1/2
f 39/1/2 42/1/2 43/1/2
f 43/1/2 42/1/2 44/1/2
f 45/2/2 46/2/2 47/2/2
f 47/2/2 46/2/2 48/2/2
f 49/3/2 50/3/2 51/3/2
f 49/3/2 51/3/2 53/3/2
f 51/3/2 52/3/2 53/3/2
f 53/3/2 52/3/2 54/3/2
f 55/1/2 56/1/2 57/1/2
f 57/1/2 56/1/2 58/1/2
f 59/3/2 60/3/2 61/3/2
f 61/3/2 60/3/2 62/3/2
f 65/3/3 64/3/3 63/3/3
f 66/3/3 64/3/3 65/3/3
f 69/1/3 68/1/3 67/1/3
f 70/1/3 68/1/3 69/1/3
f 73/2/3 72/2/3 71/2/3
f 74/2/3 72/2/3 73/2/3
f 77/3/3 76/3/3 75/3/3
f 78/3/3 76/3/3 77/3/3
f 83/1/3 80/1/3 79/1/3
f 83/1/3 82/1/3 81/1/3
f 83/1/3 81/1/3 80/1/3
f 84/1/3 82/1/3 83/1/3
f 87/1/3 86/1/3 85/1/3
f 89/1/3 87/1/3 85/1/3
f 89/1/3 88/1/3 87/1/3
f 90/1/3 88/1/3 89/1/3
f 91/1/4 92/1/4 93/1/4
f 93/1/4 92/1/4 94/1/4
f 95/1/4 96/1/4 98/1/4
f 98/1/4 96/1/4 99/1/4
f 97/1/4 98/1/4 101/1/4
f 101/1/4 98/1/4 102/1/4
f 99/1/4 100/1/4 103/1/4
f 103/1/4 100/1/4 104/1/4
f 105/3/4 106/3/4 109/3/4
f 109/3/4 106/3/4 110/3/4
f 107/2/4 108/2/4 113/2/4
f 113/2/4 108/2/4 114/2/4
f 111/1/4 112/1/4 115/1/4
f 110/3/4 106/3/4 117/3/4
f 117/3/4 106/3/4 118/3/4
f 115/1/4 116/1/4 119/1/4
f 111/1/4 115/1/4 119/1/4
f 119/1/4 116/1/4 120/1/4
f 121/3/4 122/3/4 123/3/4
f 123/3/4 122/3/4 124/3/4
f 127/2/5 126/2/5 125/2/5
f 128/2/5 126/2/5 127/2/5
f 131/1/5 130/1/5 129/1/5
f 132/1/5 131/1/5 129/1/5
f 133/1/5 131/1/5 132/1/5
f 136/1/5 135/1/5 134/1/5
f 136/1/5 134/1/5 133/1/5
f 137/1/5 135/1/5 136/1/5
f 140/3/5 139/3/5 138/3/5
f 141/3/5 139/3/5 140/3/5
f 142/3/5 140/3/5 138/3/5
f 143/3/5 139/3/5 141/3/5
f 144/3/5 139/3/5 143/3/5
f 146/3/5 143/3/5 142/3/5
f 146/3/5 145/3/5 144/3/5
f 146/3/5 144/3/5 143/3/5
f 147/3/5 145/3/5 146/3/5
f 148/3/5 146/3/5 142/3/5
f 149/3/5 145/3/5 147/3/5
f 150/3/5 145/3/5 149/3/5
f 151/3/5 145/3/5 150/3/5
f 152/3/5 142/3/5 138/3/5
f 152/3/5 148/3/5 142/3/5
f 152/3/5 150/3/5 149/3/5
f 152/3/5 149/3/5 148/3/5
f 153/3/5 150/3/5 152/3/5
f 154/3/5 150/3/5 153/3/5
f 155/3/5 145/3/5 151/3/5
f 156/3/5 154/3/5 153/3/5
f 156/3/5 155/3/5 154/3/5
f 157/3/5 145/3/5 155/3/5
f 157/3/5 155/3/5 156/3/5
f 158/2/6 159/2/6 160/2/6
f 160/2/6 159/2/6 161/2/6
f 158/2/6 160/2/6 162/2/6
f 161/2/6 159/2/6 163/2/6
f 158/2/6 162/2/6 164/2/6
f 162/2/6 163/2/6 164/2/6
f 163/2/6 159/2/6 165/2/6
f 164/2/6 163/2/6 165/2/6
f 166/1/6 167/1/6 168/1/6
f 166/1/6 168/1/6 169/1/6
f 169/1/6 168/1/6 170/1/6
f 171/1/6 172/1/6 173/1/6
f 170/1/6 171/1/6 173/1/6
f 173/1/6 172/1/6 174/1/6
f 175/3/6 176/3/6 178/3/6
f 177/3/6 178/3/6 179/3/6
f 178/3/6 176/3/6 180/3/6
f 179/3/6 178/3/6 180/3/6
f 181/3/6 182/3/6 183/3/6
f 183/3/6 182/3/6 184/3/6
