# MagicaVoxel @ Ephtracy

# group
o 

# material
mtllib motorcycle_a_a.mtl
usemtl palette

# normals
vn -1 0 0
vn 1 0 0
vn 0 0 1
vn 0 0 -1
vn 0 -1 0
vn 0 1 0

# texcoords
vt 0.876953 0.5
vt 0.908203 0.5
vt 0.916016 0.5
vt 0.947266 0.5
vt 0.970703 0.5

# verts
v -0.6 0.5 0.1
v -0.6 0.5 -0.1
v -0.6 0.6 0.1
v -0.6 0.6 -0.1
v -0.5 0 0.1
v -0.5 0 -0.1
v -0.5 0.4 0.1
v -0.5 0.4 -0.1
v -0.4 0.4 0.1
v -0.4 0.4 -0.1
v -0.4 0.5 0.1
v -0.4 0.5 -0.1
v -0.1 0.5 0.2
v -0.1 0.5 0.1
v -0.1 0.5 -0.1
v -0.1 0.5 -0.2
v -0.1 0.6 0.1
v -0.1 0.6 -0.1
v -0.1 0.8 0.2
v -0.1 0.8 -0.2
v -5.96046e-08 0.6 0.3
v -5.96046e-08 0.6 0.2
v -5.96046e-08 0.6 -0.2
v -5.96046e-08 0.6 -0.3
v -5.96046e-08 0.8 0.3
v -5.96046e-08 0.8 0.2
v -5.96046e-08 0.8 0.1
v -5.96046e-08 0.8 -0.1
v -5.96046e-08 0.8 -0.2
v -5.96046e-08 0.8 -0.3
v -5.96046e-08 1 0.1
v -5.96046e-08 1 -0.1
v 0.1 0.3 0.2
v 0.1 0.3 0.1
v 0.1 0.3 -0.1
v 0.1 0.3 -0.2
v 0.1 0.5 0.2
v 0.1 0.5 0.1
v 0.1 0.5 -0.1
v 0.1 0.5 -0.2
v 0.2 0 0.1
v 0.2 0 -0.1
v 0.2 0.2 0.1
v 0.2 0.2 -0.1
v 0.3 0.6 0.2
v 0.3 0.6 0.1
v 0.3 0.6 -0.1
v 0.3 0.6 -0.2
v 0.3 0.7 0.2
v 0.3 0.7 -0.2
v 0.4 0.7 0.2
v 0.4 0.7 -0.2
v 0.4 0.8 0.3
v 0.4 0.8 0.2
v 0.4 0.8 0.1
v 0.4 0.8 -0.1
v 0.4 0.8 -0.2
v 0.4 0.8 -0.3
v 0.4 0.9 0.3
v 0.4 0.9 0.2
v 0.4 0.9 0.1
v 0.4 0.9 -0.1
v 0.4 0.9 -0.2
v 0.4 0.9 -0.3
v -0.1 0 0.1
v -0.1 0 -0.1
v -0.1 0.2 0.1
v -0.1 0.2 -0.1
v 0.1 0.6 0.2
v 0.1 0.6 0.1
v 0.1 0.6 -0.1
v 0.1 0.6 -0.2
v 0.1 0.7 0.3
v 0.1 0.7 0.2
v 0.1 0.7 -0.2
v 0.1 0.7 -0.3
v 0.1 0.8 0.3
v 0.1 0.8 0.1
v 0.1 0.8 -0.1
v 0.1 0.8 -0.3
v 0.2 0.3 0.2
v 0.2 0.3 0.1
v 0.2 0.3 -0.1
v 0.2 0.3 -0.2
v 0.2 0.4 0.1
v 0.2 0.4 -0.1
v 0.2 0.6 0.2
v 0.2 0.6 0.1
v 0.2 0.6 -0.1
v 0.2 0.6 -0.2
v 0.2 0.8 0.1
v 0.2 0.8 -0.1
v 0.2 1 0.1
v 0.2 1 -0.1
v 0.4 0.6 0.3
v 0.4 0.6 0.1
v 0.4 0.6 -0.1
v 0.4 0.6 -0.3
v 0.4 0.7 0.3
v 0.4 0.7 0.2
v 0.4 0.7 0.1
v 0.4 0.7 -0.1
v 0.4 0.7 -0.2
v 0.4 0.7 -0.3
v 0.5 0.7 0.2
v 0.5 0.7 0.1
v 0.5 0.7 -0.1
v 0.5 0.7 -0.2
v 0.5 0.8 0.3
v 0.5 0.8 0.2
v 0.5 0.8 0.1
v 0.5 0.8 -0.1
v 0.5 0.8 -0.2
v 0.5 0.8 -0.3
v 0.5 0.9 0.3
v 0.5 0.9 0.2
v 0.5 0.9 0.1
v 0.5 0.9 -0.1
v 0.5 0.9 -0.2
v 0.5 0.9 -0.3
v 0.6 0 0.1
v 0.6 0 -0.1
v 0.6 0.3 0.1
v 0.6 0.3 -0.1
v 0.6 0.5 0.1
v 0.6 0.5 -0.1
v 0.6 0.7 0.1
v 0.6 0.7 -0.1
v 0.7 0.3 0.1
v 0.7 0.3 -0.1
v 0.7 0.5 0.1
v 0.7 0.5 -0.1
v -5.96046e-08 0.6 0.3
v -5.96046e-08 0.8 0.3
v 0.1 0.7 0.3
v 0.1 0.8 0.3
v 0.3 0.6 0.3
v 0.3 0.7 0.3
v 0.4 0.6 0.3
v 0.4 0.7 0.3
v 0.4 0.8 0.3
v 0.4 0.9 0.3
v 0.5 0.8 0.3
v 0.5 0.9 0.3
v -0.1 0.5 0.2
v -0.1 0.8 0.2
v -5.96046e-08 0.6 0.2
v -5.96046e-08 0.8 0.2
v 0.1 0.3 0.2
v 0.1 0.5 0.2
v 0.2 0.3 0.2
v 0.2 0.6 0.2
v 0.4 0.7 0.2
v 0.4 0.8 0.2
v 0.5 0.7 0.2
v 0.5 0.8 0.2
v -0.6 0.5 0.1
v -0.6 0.6 0.1
v -0.5 0 0.1
v -0.5 0.4 0.1
v -0.4 0.1 0.1
v -0.4 0.3 0.1
v -0.4 0.4 0.1
v -0.4 0.5 0.1
v -0.2 0.1 0.1
v -0.2 0.3 0.1
v -0.1 0 0.1
v -0.1 0.2 0.1
v -0.1 0.4 0.1
v -0.1 0.5 0.1
v -0.1 0.6 0.1
v -5.96046e-08 0.8 0.1
v -5.96046e-08 1 0.1
v 0.1 0.3 0.1
v 0.1 0.5 0.1
v 0.1 0.8 0.1
v 0.2 0 0.1
v 0.2 0.2 0.1
v 0.2 0.3 0.1
v 0.2 0.4 0.1
v 0.2 0.6 0.1
v 0.2 0.8 0.1
v 0.2 1 0.1
v 0.3 0.1 0.1
v 0.3 0.3 0.1
v 0.3 0.6 0.1
v 0.4 0.6 0.1
v 0.4 0.7 0.1
v 0.5 0.1 0.1
v 0.5 0.3 0.1
v 0.5 0.5 0.1
v 0.5 0.7 0.1
v 0.6 0 0.1
v 0.6 0.3 0.1
v 0.6 0.4 0.1
v 0.6 0.5 0.1
v 0.6 0.7 0.1
v 0.7 0.3 0.1
v 0.7 0.5 0.1
v 0.4 0.8 -0.1
v 0.4 0.9 -0.1
v 0.5 0.8 -0.1
v 0.5 0.9 -0.1
v 0.1 0.6 -0.2
v 0.1 0.7 -0.2
v 0.2 0.6 -0.2
v 0.3 0.6 -0.2
v 0.3 0.7 -0.2
v 0.1 0.6 0.2
v 0.1 0.7 0.2
v 0.2 0.6 0.2
v 0.3 0.6 0.2
v 0.3 0.7 0.2
v 0.4 0.8 0.1
v 0.4 0.9 0.1
v 0.5 0.8 0.1
v 0.5 0.9 0.1
v -0.6 0.5 -0.1
v -0.6 0.6 -0.1
v -0.5 0 -0.1
v -0.5 0.4 -0.1
v -0.4 0.1 -0.1
v -0.4 0.3 -0.1
v -0.4 0.4 -0.1
v -0.4 0.5 -0.1
v -0.2 0.1 -0.1
v -0.2 0.3 -0.1
v -0.1 0 -0.1
v -0.1 0.2 -0.1
v -0.1 0.4 -0.1
v -0.1 0.5 -0.1
v -0.1 0.6 -0.1
v -5.96046e-08 0.8 -0.1
v -5.96046e-08 1 -0.1
v 0.1 0.3 -0.1
v 0.1 0.5 -0.1
v 0.1 0.8 -0.1
v 0.2 0 -0.1
v 0.2 0.2 -0.1
v 0.2 0.3 -0.1
v 0.2 0.4 -0.1
v 0.2 0.6 -0.1
v 0.2 0.8 -0.1
v 0.2 1 -0.1
v 0.3 0.1 -0.1
v 0.3 0.3 -0.1
v 0.3 0.6 -0.1
v 0.4 0.6 -0.1
v 0.4 0.7 -0.1
v 0.5 0.1 -0.1
v 0.5 0.3 -0.1
v 0.5 0.5 -0.1
v 0.5 0.7 -0.1
v 0.6 0 -0.1
v 0.6 0.3 -0.1
v 0.6 0.4 -0.1
v 0.6 0.5 -0.1
v 0.6 0.7 -0.1
v 0.7 0.3 -0.1
v 0.7 0.5 -0.1
v -0.1 0.5 -0.2
v -0.1 0.8 -0.2
v -5.96046e-08 0.6 -0.2
v -5.96046e-08 0.8 -0.2
v 0.1 0.3 -0.2
v 0.1 0.5 -0.2
v 0.2 0.3 -0.2
v 0.2 0.6 -0.2
v 0.4 0.7 -0.2
v 0.4 0.8 -0.2
v 0.5 0.7 -0.2
v 0.5 0.8 -0.2
v -5.96046e-08 0.6 -0.3
v -5.96046e-08 0.8 -0.3
v 0.1 0.7 -0.3
v 0.1 0.8 -0.3
v 0.3 0.6 -0.3
v 0.3 0.7 -0.3
v 0.4 0.6 -0.3
v 0.4 0.7 -0.3
v 0.4 0.8 -0.3
v 0.4 0.9 -0.3
v 0.5 0.8 -0.3
v 0.5 0.9 -0.3
v -0.5 0 0.1
v -0.1 0 0.1
v 0.2 0 0.1
v 0.6 0 0.1
v -0.5 0 -0.1
v -0.1 0 -0.1
v 0.2 0 -0.1
v 0.6 0 -0.1
v -0.1 0.2 0.1
v 0.2 0.2 0.1
v -0.1 0.2 -0.1
v 0.2 0.2 -0.1
v 0.1 0.3 0.2
v 0.2 0.3 0.2
v 0.1 0.3 0.1
v 0.2 0.3 0.1
v 0.6 0.3 0.1
v 0.7 0.3 0.1
v 0.1 0.3 -0.1
v 0.2 0.3 -0.1
v 0.6 0.3 -0.1
v 0.7 0.3 -0.1
v 0.1 0.3 -0.2
v 0.2 0.3 -0.2
v -0.1 0.5 0.2
v 0.1 0.5 0.2
v -0.6 0.5 0.1
v -0.4 0.5 0.1
v -0.1 0.5 0.1
v 0.1 0.5 0.1
v -0.6 0.5 -0.1
v -0.4 0.5 -0.1
v -0.1 0.5 -0.1
v 0.1 0.5 -0.1
v -0.1 0.5 -0.2
v 0.1 0.5 -0.2
v -5.96046e-08 0.6 0.3
v 0.3 0.6 0.3
v 0.4 0.6 0.3
v -5.96046e-08 0.6 0.2
v 0.2 0.6 0.2
v 0.3 0.6 0.2
v 0.3 0.6 0.1
v 0.4 0.6 0.1
v 0.3 0.6 -0.1
v 0.4 0.6 -0.1
v -5.96046e-08 0.6 -0.2
v 0.2 0.6 -0.2
v 0.3 0.6 -0.2
v -5.96046e-08 0.6 -0.3
v 0.3 0.6 -0.3
v 0.4 0.6 -0.3
v 0.4 0.7 0.2
v 0.5 0.7 0.2
v 0.4 0.7 0.1
v 0.5 0.7 0.1
v 0.4 0.7 -0.1
v 0.5 0.7 -0.1
v 0.4 0.7 -0.2
v 0.5 0.7 -0.2
v 0.4 0.8 0.3
v 0.5 0.8 0.3
v 0.4 0.8 0.2
v 0.5 0.8 0.2
v 0.1 0.8 0.1
v 0.2 0.8 0.1
v 0.1 0.8 -0.1
v 0.2 0.8 -0.1
v 0.4 0.8 -0.2
v 0.5 0.8 -0.2
v 0.4 0.8 -0.3
v 0.5 0.8 -0.3
v -0.5 0.4 0.1
v -0.4 0.4 0.1
v -0.5 0.4 -0.1
v -0.4 0.4 -0.1
v 0.6 0.5 0.1
v 0.7 0.5 0.1
v 0.6 0.5 -0.1
v 0.7 0.5 -0.1
v 0.1 0.6 0.2
v 0.2 0.6 0.2
v -0.6 0.6 0.1
v -0.1 0.6 0.1
v 0.1 0.6 0.1
v 0.2 0.6 0.1
v 0.3 0.6 0.1
v -0.6 0.6 -0.1
v -0.1 0.6 -0.1
v 0.1 0.6 -0.1
v 0.2 0.6 -0.1
v 0.3 0.6 -0.1
v 0.1 0.6 -0.2
v 0.2 0.6 -0.2
v 0.1 0.7 0.3
v 0.3 0.7 0.3
v 0.4 0.7 0.3
v 0.1 0.7 0.2
v 0.3 0.7 0.2
v 0.4 0.7 0.2
v 0.5 0.7 0.1
v 0.6 0.7 0.1
v 0.5 0.7 -0.1
v 0.6 0.7 -0.1
v 0.1 0.7 -0.2
v 0.3 0.7 -0.2
v 0.4 0.7 -0.2
v 0.1 0.7 -0.3
v 0.3 0.7 -0.3
v 0.4 0.7 -0.3
v -5.96046e-08 0.8 0.3
v 0.1 0.8 0.3
v -0.1 0.8 0.2
v -5.96046e-08 0.8 0.2
v -5.96046e-08 0.8 0.1
v 0.1 0.8 0.1
v 0.4 0.8 0.1
v 0.5 0.8 0.1
v -5.96046e-08 0.8 -0.1
v 0.1 0.8 -0.1
v 0.4 0.8 -0.1
v 0.5 0.8 -0.1
v -0.1 0.8 -0.2
v -5.96046e-08 0.8 -0.2
v -5.96046e-08 0.8 -0.3
v 0.1 0.8 -0.3
v 0.4 0.9 0.3
v 0.5 0.9 0.3
v 0.4 0.9 0.2
v 0.5 0.9 0.2
v 0.4 0.9 0.1
v 0.5 0.9 0.1
v 0.4 0.9 -0.1
v 0.5 0.9 -0.1
v 0.4 0.9 -0.2
v 0.5 0.9 -0.2
v 0.4 0.9 -0.3
v 0.5 0.9 -0.3
v -5.96046e-08 1 0.1
v 0.2 1 0.1
v -5.96046e-08 1 -0.1
v 0.2 1 -0.1

# faces
f 3/2/1 2/2/1 1/2/1
f 4/2/1 2/2/1 3/2/1
f 7/5/1 6/5/1 5/5/1
f 8/5/1 6/5/1 7/5/1
f 11/2/1 10/2/1 9/2/1
f 12/2/1 10/2/1 11/2/1
f 17/5/1 14/5/1 13/5/1
f 18/5/1 16/5/1 15/5/1
f 19/5/1 17/5/1 13/5/1
f 19/5/1 18/5/1 17/5/1
f 20/5/1 16/5/1 18/5/1
f 20/5/1 18/5/1 19/5/1
f 25/5/1 22/5/1 21/5/1
f 26/5/1 22/5/1 25/5/1
f 29/5/1 24/5/1 23/5/1
f 30/5/1 24/5/1 29/5/1
f 31/5/1 28/5/1 27/5/1
f 32/5/1 28/5/1 31/5/1
f 37/5/1 34/5/1 33/5/1
f 38/5/1 34/5/1 37/5/1
f 39/5/1 36/5/1 35/5/1
f 40/5/1 36/5/1 39/5/1
f 43/5/1 42/5/1 41/5/1
f 44/5/1 42/5/1 43/5/1
f 49/2/1 46/2/1 45/2/1
f 49/2/1 48/2/1 47/2/1
f 49/2/1 47/2/1 46/2/1
f 50/2/1 48/2/1 49/2/1
f 54/2/1 52/2/1 51/2/1
f 55/2/1 52/2/1 54/2/1
f 56/2/1 52/2/1 55/2/1
f 57/2/1 52/2/1 56/2/1
f 59/1/1 54/1/1 53/1/1
f 60/2/1 55/2/1 54/2/1
f 60/1/1 54/1/1 59/1/1
f 61/2/1 55/2/1 60/2/1
f 62/2/1 57/2/1 56/2/1
f 63/1/1 58/1/1 57/1/1
f 63/2/1 57/2/1 62/2/1
f 64/1/1 58/1/1 63/1/1
f 65/5/2 66/5/2 67/5/2
f 67/5/2 66/5/2 68/5/2
f 69/5/2 70/5/2 74/5/2
f 71/5/2 72/5/2 74/5/2
f 70/5/2 71/5/2 74/5/2
f 74/5/2 72/5/2 75/5/2
f 73/5/2 74/5/2 77/5/2
f 75/5/2 76/5/2 77/5/2
f 74/5/2 75/5/2 77/5/2
f 77/5/2 76/5/2 78/5/2
f 78/5/2 76/5/2 79/5/2
f 79/5/2 76/5/2 80/5/2
f 81/5/2 82/5/2 85/5/2
f 83/5/2 84/5/2 86/5/2
f 81/5/2 85/5/2 87/5/2
f 87/5/2 85/5/2 88/5/2
f 86/5/2 84/5/2 89/5/2
f 89/5/2 84/5/2 90/5/2
f 91/5/2 92/5/2 93/5/2
f 93/5/2 92/5/2 94/5/2
f 95/2/2 96/2/2 99/2/2
f 99/2/2 96/2/2 100/2/2
f 100/2/2 96/2/2 101/2/2
f 97/2/2 98/2/2 102/2/2
f 102/2/2 98/2/2 103/2/2
f 103/2/2 98/2/2 104/2/2
f 105/2/2 106/2/2 110/2/2
f 107/2/2 108/2/2 110/2/2
f 106/2/2 107/2/2 110/2/2
f 110/2/2 108/2/2 111/2/2
f 111/2/2 108/2/2 112/2/2
f 112/2/2 108/2/2 113/2/2
f 109/1/2 110/1/2 115/1/2
f 110/2/2 111/2/2 116/2/2
f 115/1/2 110/1/2 116/1/2
f 116/2/2 111/2/2 117/2/2
f 112/2/2 113/2/2 118/2/2
f 113/1/2 114/1/2 119/1/2
f 118/2/2 113/2/2 119/2/2
f 119/1/2 114/1/2 120/1/2
f 121/5/2 122/5/2 123/5/2
f 123/5/2 122/5/2 124/5/2
f 125/3/2 126/3/2 127/3/2
f 127/3/2 126/3/2 128/3/2
f 129/2/2 130/2/2 131/2/2
f 131/2/2 130/2/2 132/2/2
f 135/5/3 134/5/3 133/5/3
f 136/5/3 134/5/3 135/5/3
f 137/5/3 135/5/3 133/5/3
f 138/5/3 135/5/3 137/5/3
f 139/2/3 138/2/3 137/2/3
f 140/2/3 138/2/3 139/2/3
f 143/1/3 142/1/3 141/1/3
f 144/1/3 142/1/3 143/1/3
f 147/5/3 146/5/3 145/5/3
f 148/5/3 146/5/3 147/5/3
f 150/5/3 147/5/3 145/5/3
f 151/5/3 150/5/3 149/5/3
f 152/5/3 147/5/3 150/5/3
f 152/5/3 150/5/3 151/5/3
f 155/2/3 154/2/3 153/2/3
f 156/2/3 154/2/3 155/2/3
f 161/5/3 160/5/3 159/5/3
f 162/5/3 160/5/3 161/5/3
f 163/5/3 160/5/3 162/5/3
f 164/2/3 158/2/3 157/2/3
f 165/5/3 161/5/3 159/5/3
f 165/4/3 162/4/3 161/4/3
f 166/5/3 163/5/3 162/5/3
f 166/4/3 162/4/3 165/4/3
f 167/5/3 165/5/3 159/5/3
f 167/5/3 166/5/3 165/5/3
f 168/5/3 166/5/3 167/5/3
f 169/5/3 163/5/3 166/5/3
f 169/5/3 166/5/3 168/5/3
f 169/2/3 164/2/3 163/2/3
f 170/2/3 158/2/3 164/2/3
f 170/2/3 164/2/3 169/2/3
f 171/2/3 158/2/3 170/2/3
f 174/2/3 170/2/3 169/2/3
f 174/2/3 169/2/3 168/2/3
f 175/2/3 170/2/3 174/2/3
f 176/5/3 173/5/3 172/5/3
f 178/2/3 174/2/3 168/2/3
f 179/2/3 174/2/3 178/2/3
f 182/5/3 173/5/3 176/5/3
f 183/5/3 173/5/3 182/5/3
f 184/5/3 178/5/3 177/5/3
f 184/5/3 179/5/3 178/5/3
f 184/5/3 180/5/3 179/5/3
f 185/5/3 180/5/3 184/5/3
f 186/2/3 181/2/3 180/2/3
f 187/2/3 186/2/3 180/2/3
f 189/5/3 184/5/3 177/5/3
f 189/4/3 185/4/3 184/4/3
f 190/5/3 180/5/3 185/5/3
f 190/4/3 185/4/3 189/4/3
f 191/2/3 188/2/3 187/2/3
f 191/2/3 187/2/3 180/2/3
f 192/2/3 188/2/3 191/2/3
f 193/5/3 189/5/3 177/5/3
f 193/5/3 190/5/3 189/5/3
f 194/5/3 180/5/3 190/5/3
f 194/5/3 190/5/3 193/5/3
f 195/2/3 191/2/3 180/2/3
f 195/5/3 180/5/3 194/5/3
f 196/3/3 192/3/3 191/3/3
f 196/2/3 191/2/3 195/2/3
f 197/3/3 192/3/3 196/3/3
f 198/2/3 195/2/3 194/2/3
f 198/2/3 196/2/3 195/2/3
f 199/2/3 196/2/3 198/2/3
f 202/2/3 201/2/3 200/2/3
f 203/2/3 201/2/3 202/2/3
f 206/5/3 205/5/3 204/5/3
f 207/5/3 205/5/3 206/5/3
f 208/5/3 205/5/3 207/5/3
f 209/5/4 210/5/4 211/5/4
f 211/5/4 210/5/4 212/5/4
f 212/5/4 210/5/4 213/5/4
f 214/2/4 215/2/4 216/2/4
f 216/2/4 215/2/4 217/2/4
f 220/5/4 221/5/4 222/5/4
f 222/5/4 221/5/4 223/5/4
f 223/5/4 221/5/4 224/5/4
f 218/2/4 219/2/4 225/2/4
f 220/5/4 222/5/4 226/5/4
f 222/4/4 223/4/4 226/4/4
f 223/5/4 224/5/4 227/5/4
f 226/4/4 223/4/4 227/4/4
f 220/5/4 226/5/4 228/5/4
f 226/5/4 227/5/4 228/5/4
f 228/5/4 227/5/4 229/5/4
f 227/5/4 224/5/4 230/5/4
f 229/5/4 227/5/4 230/5/4
f 224/2/4 225/2/4 230/2/4
f 225/2/4 219/2/4 231/2/4
f 230/2/4 225/2/4 231/2/4
f 231/2/4 219/2/4 232/2/4
f 230/2/4 231/2/4 235/2/4
f 229/2/4 230/2/4 235/2/4
f 235/2/4 231/2/4 236/2/4
f 233/5/4 234/5/4 237/5/4
f 229/2/4 235/2/4 239/2/4
f 239/2/4 235/2/4 240/2/4
f 237/5/4 234/5/4 243/5/4
f 243/5/4 234/5/4 244/5/4
f 238/5/4 239/5/4 245/5/4
f 239/5/4 240/5/4 245/5/4
f 240/5/4 241/5/4 245/5/4
f 245/5/4 241/5/4 246/5/4
f 241/2/4 242/2/4 247/2/4
f 241/2/4 247/2/4 248/2/4
f 238/5/4 245/5/4 250/5/4
f 245/4/4 246/4/4 250/4/4
f 246/5/4 241/5/4 251/5/4
f 250/4/4 246/4/4 251/4/4
f 248/2/4 249/2/4 252/2/4
f 241/2/4 248/2/4 252/2/4
f 252/2/4 249/2/4 253/2/4
f 238/5/4 250/5/4 254/5/4
f 250/5/4 251/5/4 254/5/4
f 251/5/4 241/5/4 255/5/4
f 254/5/4 251/5/4 255/5/4
f 241/2/4 252/2/4 256/2/4
f 255/5/4 241/5/4 256/5/4
f 252/3/4 253/3/4 257/3/4
f 256/2/4 252/2/4 257/2/4
f 257/3/4 253/3/4 258/3/4
f 255/2/4 256/2/4 259/2/4
f 256/2/4 257/2/4 259/2/4
f 259/2/4 257/2/4 260/2/4
f 261/5/4 262/5/4 263/5/4
f 263/5/4 262/5/4 264/5/4
f 261/5/4 263/5/4 266/5/4
f 265/5/4 266/5/4 267/5/4
f 266/5/4 263/5/4 268/5/4
f 267/5/4 266/5/4 268/5/4
f 269/2/4 270/2/4 271/2/4
f 271/2/4 270/2/4 272/2/4
f 273/5/4 274/5/4 275/5/4
f 275/5/4 274/5/4 276/5/4
f 273/5/4 275/5/4 277/5/4
f 277/5/4 275/5/4 278/5/4
f 277/2/4 278/2/4 279/2/4
f 279/2/4 278/2/4 280/2/4
f 281/1/4 282/1/4 283/1/4
f 283/1/4 282/1/4 284/1/4
f 289/5/5 286/5/5 285/5/5
f 290/5/5 286/5/5 289/5/5
f 291/5/5 288/5/5 287/5/5
f 292/5/5 288/5/5 291/5/5
f 295/2/5 294/2/5 293/2/5
f 296/2/5 294/2/5 295/2/5
f 299/5/5 298/5/5 297/5/5
f 300/5/5 298/5/5 299/5/5
f 305/2/5 302/2/5 301/2/5
f 306/2/5 302/2/5 305/2/5
f 307/5/5 304/5/5 303/5/5
f 308/5/5 304/5/5 307/5/5
f 313/5/5 310/5/5 309/5/5
f 314/5/5 310/5/5 313/5/5
f 315/2/5 312/2/5 311/2/5
f 316/2/5 312/2/5 315/2/5
f 319/5/5 318/5/5 317/5/5
f 320/5/5 318/5/5 319/5/5
f 324/5/5 322/5/5 321/5/5
f 325/5/5 322/5/5 324/5/5
f 326/2/5 323/2/5 322/2/5
f 326/5/5 322/5/5 325/5/5
f 327/2/5 323/2/5 326/2/5
f 328/2/5 323/2/5 327/2/5
f 333/2/5 330/2/5 329/2/5
f 334/5/5 332/5/5 331/5/5
f 334/5/5 333/5/5 332/5/5
f 335/2/5 330/2/5 333/2/5
f 335/5/5 333/5/5 334/5/5
f 336/2/5 330/2/5 335/2/5
f 339/2/5 338/2/5 337/2/5
f 340/2/5 338/2/5 339/2/5
f 343/2/5 342/2/5 341/2/5
f 344/2/5 342/2/5 343/2/5
f 347/1/5 346/1/5 345/1/5
f 348/1/5 346/1/5 347/1/5
f 351/5/5 350/5/5 349/5/5
f 352/5/5 350/5/5 351/5/5
f 355/1/5 354/1/5 353/1/5
f 356/1/5 354/1/5 355/1/5
f 357/5/6 358/5/6 359/5/6
f 359/5/6 358/5/6 360/5/6
f 361/2/6 362/2/6 363/2/6
f 363/2/6 362/2/6 364/2/6
f 365/5/6 366/5/6 369/5/6
f 369/5/6 366/5/6 370/5/6
f 367/2/6 368/2/6 372/2/6
f 372/2/6 368/2/6 373/2/6
f 370/2/6 371/2/6 374/2/6
f 369/2/6 370/2/6 374/2/6
f 374/2/6 371/2/6 375/2/6
f 375/2/6 371/2/6 376/2/6
f 374/5/6 375/5/6 377/5/6
f 377/5/6 375/5/6 378/5/6
f 379/5/6 380/5/6 382/5/6
f 380/2/6 381/2/6 383/2/6
f 382/5/6 380/5/6 383/5/6
f 383/2/6 381/2/6 384/2/6
f 385/3/6 386/3/6 387/3/6
f 387/3/6 386/3/6 388/3/6
f 383/2/6 384/2/6 390/2/6
f 390/2/6 384/2/6 391/2/6
f 389/5/6 390/5/6 392/5/6
f 390/2/6 391/2/6 393/2/6
f 392/5/6 390/5/6 393/5/6
f 393/2/6 391/2/6 394/2/6
f 395/5/6 396/5/6 398/5/6
f 398/5/6 396/5/6 399/5/6
f 397/5/6 398/5/6 399/5/6
f 399/5/6 396/5/6 400/5/6
f 397/5/6 399/5/6 403/5/6
f 401/2/6 402/2/6 405/2/6
f 405/2/6 402/2/6 406/2/6
f 403/5/6 404/5/6 407/5/6
f 397/5/6 403/5/6 407/5/6
f 407/5/6 404/5/6 408/5/6
f 408/5/6 404/5/6 409/5/6
f 409/5/6 404/5/6 410/5/6
f 411/1/6 412/1/6 413/1/6
f 413/1/6 412/1/6 414/1/6
f 413/2/6 414/2/6 415/2/6
f 415/2/6 414/2/6 416/2/6
f 417/2/6 418/2/6 419/2/6
f 419/2/6 418/2/6 420/2/6
f 419/1/6 420/1/6 421/1/6
f 421/1/6 420/1/6 422/1/6
f 423/5/6 424/5/6 425/5/6
f 425/5/6 424/5/6 426/5/6
