# MagicaVoxel @ Ephtracy

# group
o 

# material
mtllib traffic_light.mtl
usemtl palette

# normals
vn -1 0 0
vn 1 0 0
vn 0 0 1
vn 0 0 -1
vn 0 -1 0
vn 0 1 0

# texcoords
vt 0.908203 0.5
vt 0.916016 0.5
vt 0.943359 0.5
vt 0.974609 0.5
vt 0.982422 0.5

# verts
v -1.2 0 0
v -1.2 0 -0.3
v -1.2 0.1 0
v -1.2 0.1 -0.3
v -1.1 0.1 -0.1
v -1.1 0.1 -0.2
v -1.1 2.8 -0.1
v -1.1 2.8 -0.2
v -1 1 0
v -1 1 -0.1
v -1 1 -0.2
v -1 1 -0.3
v -1 1.5 0
v -1 1.5 -0.1
v -1 1.5 -0.2
v -1 1.5 -0.3
v 0.8 2.4 0.1
v 0.8 2.4 -0.1
v 0.8 2.6 0.2
v 0.8 2.6 0.1
v 0.8 2.7 0.2
v 0.8 2.7 0.1
v 0.8 2.7 -0.1
v 0.8 2.8 0.2
v 0.8 2.8 0.1
v 0.8 2.8 -0.1
v 0.8 2.9 0.2
v 0.8 2.9 0.1
v 0.8 3 0.2
v 0.8 3 0.1
v 0.8 3.1 0.2
v 0.8 3.1 -0.1
v -1 0.1 -0.1
v -1 0.1 -0.2
v -1 1 -0.1
v -1 1 -0.2
v -1 1.5 -0.1
v -1 1.5 -0.2
v -1 2.7 -0.1
v -1 2.7 -0.2
v -0.9 0 0
v -0.9 0 -0.3
v -0.9 0.1 0
v -0.9 0.1 -0.3
v -0.8 1 0
v -0.8 1 -0.3
v -0.8 1.1 -0.1
v -0.8 1.1 -0.2
v -0.8 1.2 0
v -0.8 1.2 -0.1
v -0.8 1.2 -0.2
v -0.8 1.2 -0.3
v -0.8 1.3 0
v -0.8 1.3 -0.1
v -0.8 1.3 -0.2
v -0.8 1.3 -0.3
v -0.8 1.4 0
v -0.8 1.4 -0.1
v -0.8 1.4 -0.2
v -0.8 1.4 -0.3
v -0.7 1.2 0
v -0.7 1.2 -0.3
v -0.7 1.3 0
v -0.7 1.3 -0.3
v -0.7 1.4 0
v -0.7 1.4 -0.3
v -0.7 1.5 0
v -0.7 1.5 -0.3
v 1.1 2.4 0.1
v 1.1 2.4 -0.1
v 1.1 2.6 0.2
v 1.1 2.6 0.1
v 1.1 2.7 0.2
v 1.1 2.7 0.1
v 1.1 2.7 -0.1
v 1.1 2.8 0.2
v 1.1 2.8 0.1
v 1.1 2.8 -0.1
v 1.1 2.9 0.2
v 1.1 2.9 0.1
v 1.1 3 0.2
v 1.1 3 0.1
v 1.1 3.1 0.2
v 1.1 3.1 -0.1
v 1.3 2.7 -0.1
v 1.3 2.7 -0.2
v 1.3 2.8 -0.1
v 1.3 2.8 -0.2
v 0.8 2.6 0.2
v 0.8 2.7 0.2
v 0.8 2.8 0.2
v 0.8 2.9 0.2
v 0.8 3 0.2
v 0.8 3.1 0.2
v 1.1 2.6 0.2
v 1.1 2.7 0.2
v 1.1 2.8 0.2
v 1.1 2.9 0.2
v 1.1 3 0.2
v 1.1 3.1 0.2
v 0.8 2.4 0.1
v 0.8 2.6 0.1
v 0.8 2.7 0.1
v 0.8 2.8 0.1
v 0.8 2.9 0.1
v 0.8 3 0.1
v 0.9 2.5 0.1
v 0.9 2.6 0.1
v 0.9 2.7 0.1
v 0.9 2.8 0.1
v 0.9 2.9 0.1
v 0.9 3 0.1
v 1 2.5 0.1
v 1 2.6 0.1
v 1 2.7 0.1
v 1 2.8 0.1
v 1 2.9 0.1
v 1 3 0.1
v 1.1 2.4 0.1
v 1.1 2.6 0.1
v 1.1 2.7 0.1
v 1.1 2.8 0.1
v 1.1 2.9 0.1
v 1.1 3 0.1
v -1.2 0 0
v -1.2 0.1 0
v -1 1 0
v -1 1.5 0
v -0.9 0 0
v -0.9 0.1 0
v -0.8 1 0
v -0.8 1.2 0
v -0.8 1.3 0
v -0.8 1.4 0
v -0.7 1.2 0
v -0.7 1.3 0
v -0.7 1.4 0
v -0.7 1.5 0
v -1.1 0.1 -0.1
v -1.1 2.8 -0.1
v -1 0.1 -0.1
v -1 1 -0.1
v -1 1.5 -0.1
v -1 2.7 -0.1
v 0.8 2.7 -0.1
v 0.8 2.8 -0.1
v 1.1 2.7 -0.1
v 1.1 2.8 -0.1
v 1.3 2.7 -0.1
v 1.3 2.8 -0.1
v 0.8 2.4 -0.1
v 0.8 2.7 -0.1
v 0.8 2.8 -0.1
v 0.8 3.1 -0.1
v 1.1 2.4 -0.1
v 1.1 2.7 -0.1
v 1.1 2.8 -0.1
v 1.1 3.1 -0.1
v -1.1 0.1 -0.2
v -1.1 2.8 -0.2
v -1 0.1 -0.2
v -1 1 -0.2
v -1 1.5 -0.2
v -1 2.7 -0.2
v 1.3 2.7 -0.2
v 1.3 2.8 -0.2
v -1.2 0 -0.3
v -1.2 0.1 -0.3
v -1 1 -0.3
v -1 1.5 -0.3
v -0.9 0 -0.3
v -0.9 0.1 -0.3
v -0.8 1 -0.3
v -0.8 1.2 -0.3
v -0.8 1.3 -0.3
v -0.8 1.4 -0.3
v -0.7 1.2 -0.3
v -0.7 1.3 -0.3
v -0.7 1.4 -0.3
v -0.7 1.5 -0.3
v -1.2 0 0
v -0.9 0 0
v -1.2 0 -0.3
v -0.9 0 -0.3
v -1 1 0
v -0.8 1 0
v -1 1 -0.1
v -1 1 -0.2
v -1 1 -0.3
v -0.8 1 -0.3
v -0.8 1.2 0
v -0.7 1.2 0
v -0.8 1.2 -0.1
v -0.8 1.2 -0.2
v -0.8 1.2 -0.3
v -0.7 1.2 -0.3
v -0.8 1.4 0
v -0.7 1.4 0
v -0.8 1.4 -0.1
v -0.8 1.4 -0.2
v -0.8 1.4 -0.3
v -0.7 1.4 -0.3
v 0.8 2.4 0.1
v 1.1 2.4 0.1
v 0.8 2.4 -0.1
v 1.1 2.4 -0.1
v 0.8 2.6 0.2
v 1.1 2.6 0.2
v 0.8 2.6 0.1
v 0.9 2.6 0.1
v 1 2.6 0.1
v 1.1 2.6 0.1
v -1 2.7 -0.1
v 0.8 2.7 -0.1
v 1.1 2.7 -0.1
v 1.3 2.7 -0.1
v -1 2.7 -0.2
v 1.3 2.7 -0.2
v 0.8 2.8 0.2
v 1.1 2.8 0.2
v 0.8 2.8 0.1
v 0.9 2.8 0.1
v 1 2.8 0.1
v 1.1 2.8 0.1
v 0.8 3 0.2
v 1.1 3 0.2
v 0.8 3 0.1
v 0.9 3 0.1
v 1 3 0.1
v 1.1 3 0.1
v -1.2 0.1 0
v -0.9 0.1 0
v -1.1 0.1 -0.1
v -1 0.1 -0.1
v -1.1 0.1 -0.2
v -1 0.1 -0.2
v -1.2 0.1 -0.3
v -0.9 0.1 -0.3
v -0.8 1.3 0
v -0.7 1.3 0
v -0.8 1.3 -0.1
v -0.8 1.3 -0.2
v -0.8 1.3 -0.3
v -0.7 1.3 -0.3
v -1 1.5 0
v -0.7 1.5 0
v -1 1.5 -0.1
v -1 1.5 -0.2
v -1 1.5 -0.3
v -0.7 1.5 -0.3
v 0.8 2.7 0.2
v 1.1 2.7 0.2
v 0.8 2.7 0.1
v 0.9 2.7 0.1
v 1 2.7 0.1
v 1.1 2.7 0.1
v -1.1 2.8 -0.1
v 0.8 2.8 -0.1
v 1.1 2.8 -0.1
v 1.3 2.8 -0.1
v -1.1 2.8 -0.2
v 1.3 2.8 -0.2
v 0.8 2.9 0.2
v 1.1 2.9 0.2
v 0.8 2.9 0.1
v 0.9 2.9 0.1
v 1 2.9 0.1
v 1.1 2.9 0.1
v 0.8 3.1 0.2
v 1.1 3.1 0.2
v 0.8 3.1 -0.1
v 1.1 3.1 -0.1

# faces
f 3/3/1 2/3/1 1/3/1
f 4/3/1 2/3/1 3/3/1
f 7/3/1 6/3/1 5/3/1
f 8/3/1 6/3/1 7/3/1
f 13/4/1 10/4/1 9/4/1
f 14/4/1 10/4/1 13/4/1
f 15/4/1 12/4/1 11/4/1
f 16/4/1 12/4/1 15/4/1
f 20/4/1 18/4/1 17/4/1
f 21/4/1 20/4/1 19/4/1
f 22/4/1 18/4/1 20/4/1
f 22/4/1 20/4/1 21/4/1
f 23/4/1 18/4/1 22/4/1
f 25/4/1 23/4/1 22/4/1
f 26/4/1 23/4/1 25/4/1
f 27/4/1 25/4/1 24/4/1
f 27/4/1 26/4/1 25/4/1
f 28/4/1 26/4/1 27/4/1
f 30/4/1 26/4/1 28/4/1
f 31/4/1 30/4/1 29/4/1
f 32/4/1 26/4/1 30/4/1
f 32/4/1 30/4/1 31/4/1
f 33/3/2 34/3/2 35/3/2
f 35/3/2 34/3/2 36/3/2
f 37/3/2 38/3/2 39/3/2
f 39/3/2 38/3/2 40/3/2
f 41/3/2 42/3/2 43/3/2
f 43/3/2 42/3/2 44/3/2
f 45/4/2 46/4/2 47/4/2
f 47/4/2 46/4/2 48/4/2
f 45/4/2 47/4/2 49/4/2
f 47/5/2 48/5/2 50/5/2
f 49/4/2 47/4/2 50/4/2
f 48/4/2 46/4/2 51/4/2
f 50/5/2 48/5/2 51/5/2
f 51/4/2 46/4/2 52/4/2
f 53/4/2 54/4/2 57/4/2
f 54/1/2 55/1/2 58/1/2
f 57/4/2 54/4/2 58/4/2
f 55/4/2 56/4/2 59/4/2
f 58/1/2 55/1/2 59/1/2
f 59/4/2 56/4/2 60/4/2
f 61/4/2 62/4/2 63/4/2
f 63/4/2 62/4/2 64/4/2
f 65/4/2 66/4/2 67/4/2
f 67/4/2 66/4/2 68/4/2
f 69/4/2 70/4/2 72/4/2
f 71/4/2 72/4/2 73/4/2
f 72/4/2 70/4/2 74/4/2
f 73/4/2 72/4/2 74/4/2
f 74/4/2 70/4/2 75/4/2
f 74/4/2 75/4/2 77/4/2
f 77/4/2 75/4/2 78/4/2
f 76/4/2 77/4/2 79/4/2
f 77/4/2 78/4/2 79/4/2
f 79/4/2 78/4/2 80/4/2
f 80/4/2 78/4/2 82/4/2
f 81/4/2 82/4/2 83/4/2
f 82/4/2 78/4/2 84/4/2
f 83/4/2 82/4/2 84/4/2
f 85/3/2 86/3/2 87/3/2
f 87/3/2 86/3/2 88/3/2
f 95/4/3 90/4/3 89/4/3
f 96/4/3 90/4/3 95/4/3
f 97/4/3 92/4/3 91/4/3
f 98/4/3 92/4/3 97/4/3
f 99/4/3 94/4/3 93/4/3
f 100/4/3 94/4/3 99/4/3
f 107/4/3 102/4/3 101/4/3
f 108/4/3 102/4/3 107/4/3
f 109/4/3 104/4/3 103/4/3
f 110/4/3 104/4/3 109/4/3
f 111/4/3 106/4/3 105/4/3
f 112/4/3 106/4/3 111/4/3
f 113/5/3 108/5/3 107/5/3
f 113/4/3 107/4/3 101/4/3
f 114/5/3 108/5/3 113/5/3
f 115/2/3 110/2/3 109/2/3
f 116/2/3 110/2/3 115/2/3
f 117/1/3 112/1/3 111/1/3
f 118/1/3 112/1/3 117/1/3
f 119/4/3 114/4/3 113/4/3
f 119/4/3 113/4/3 101/4/3
f 120/4/3 114/4/3 119/4/3
f 121/4/3 116/4/3 115/4/3
f 122/4/3 116/4/3 121/4/3
f 123/4/3 118/4/3 117/4/3
f 124/4/3 118/4/3 123/4/3
f 129/3/3 126/3/3 125/3/3
f 130/3/3 126/3/3 129/3/3
f 131/4/3 128/4/3 127/4/3
f 132/4/3 128/4/3 131/4/3
f 133/4/3 128/4/3 132/4/3
f 134/4/3 128/4/3 133/4/3
f 135/4/3 133/4/3 132/4/3
f 136/4/3 133/4/3 135/4/3
f 137/4/3 128/4/3 134/4/3
f 138/4/3 128/4/3 137/4/3
f 141/3/3 140/3/3 139/3/3
f 142/3/3 140/3/3 141/3/3
f 143/3/3 140/3/3 142/3/3
f 144/3/3 140/3/3 143/3/3
f 145/3/3 140/3/3 144/3/3
f 146/3/3 140/3/3 145/3/3
f 149/3/3 148/3/3 147/3/3
f 150/3/3 148/3/3 149/3/3
f 151/4/4 152/4/4 155/4/4
f 155/4/4 152/4/4 156/4/4
f 153/4/4 154/4/4 157/4/4
f 157/4/4 154/4/4 158/4/4
f 159/3/4 160/3/4 161/3/4
f 161/3/4 160/3/4 162/3/4
f 162/3/4 160/3/4 163/3/4
f 163/3/4 160/3/4 164/3/4
f 164/3/4 160/3/4 165/3/4
f 165/3/4 160/3/4 166/3/4
f 167/3/4 168/3/4 171/3/4
f 171/3/4 168/3/4 172/3/4
f 169/4/4 170/4/4 173/4/4
f 173/4/4 170/4/4 174/4/4
f 174/4/4 170/4/4 175/4/4
f 175/4/4 170/4/4 176/4/4
f 174/4/4 175/4/4 177/4/4
f 177/4/4 175/4/4 178/4/4
f 176/4/4 170/4/4 179/4/4
f 179/4/4 170/4/4 180/4/4
f 183/3/5 182/3/5 181/3/5
f 184/3/5 182/3/5 183/3/5
f 187/4/5 186/4/5 185/4/5
f 188/4/5 186/4/5 187/4/5
f 189/4/5 186/4/5 188/4/5
f 190/4/5 186/4/5 189/4/5
f 193/4/5 192/4/5 191/4/5
f 194/4/5 192/4/5 193/4/5
f 195/4/5 192/4/5 194/4/5
f 196/4/5 192/4/5 195/4/5
f 199/4/5 198/4/5 197/4/5
f 200/4/5 198/4/5 199/4/5
f 201/4/5 198/4/5 200/4/5
f 202/4/5 198/4/5 201/4/5
f 205/4/5 204/4/5 203/4/5
f 206/4/5 204/4/5 205/4/5
f 209/4/5 208/4/5 207/4/5
f 210/4/5 208/4/5 209/4/5
f 211/4/5 208/4/5 210/4/5
f 212/4/5 208/4/5 211/4/5
f 217/3/5 214/3/5 213/3/5
f 217/3/5 216/3/5 215/3/5
f 217/3/5 215/3/5 214/3/5
f 218/3/5 216/3/5 217/3/5
f 221/4/5 220/4/5 219/4/5
f 222/4/5 220/4/5 221/4/5
f 223/4/5 220/4/5 222/4/5
f 224/4/5 220/4/5 223/4/5
f 227/4/5 226/4/5 225/4/5
f 228/4/5 226/4/5 227/4/5
f 229/4/5 226/4/5 228/4/5
f 230/4/5 226/4/5 229/4/5
f 231/3/6 232/3/6 233/3/6
f 233/3/6 232/3/6 234/3/6
f 231/3/6 233/3/6 235/3/6
f 234/3/6 232/3/6 236/3/6
f 231/3/6 235/3/6 237/3/6
f 235/3/6 236/3/6 237/3/6
f 236/3/6 232/3/6 238/3/6
f 237/3/6 236/3/6 238/3/6
f 239/4/6 240/4/6 241/4/6
f 241/4/6 240/4/6 242/4/6
f 242/4/6 240/4/6 243/4/6
f 243/4/6 240/4/6 244/4/6
f 245/4/6 246/4/6 247/4/6
f 247/4/6 246/4/6 248/4/6
f 248/4/6 246/4/6 249/4/6
f 249/4/6 246/4/6 250/4/6
f 251/4/6 252/4/6 253/4/6
f 253/4/6 252/4/6 254/4/6
f 254/4/6 252/4/6 255/4/6
f 255/4/6 252/4/6 256/4/6
f 257/3/6 258/3/6 261/3/6
f 259/3/6 260/3/6 261/3/6
f 258/3/6 259/3/6 261/3/6
f 261/3/6 260/3/6 262/3/6
f 263/4/6 264/4/6 265/4/6
f 265/4/6 264/4/6 266/4/6
f 266/4/6 264/4/6 267/4/6
f 267/4/6 264/4/6 268/4/6
f 269/4/6 270/4/6 271/4/6
f 271/4/6 270/4/6 272/4/6
