# MagicaVoxel @ Ephtracy

# group
o 

# material
mtllib motorcycle_a_d.mtl
usemtl palette

# normals
vn -1 0 0
vn 1 0 0
vn 0 0 1
vn 0 0 -1
vn 0 -1 0
vn 0 1 0

# texcoords
vt 0.876953 0.5
vt 0.916016 0.5
vt 0.947266 0.5
vt 0.970703 0.5

# verts
v -0.6 0.5 0.1
v -0.6 0.5 -0.1
v -0.6 0.6 0.1
v -0.6 0.6 -0.1
v -0.5 0 0.1
v -0.5 0 -0.1
v -0.5 0.4 0.1
v -0.5 0.4 -0.1
v -0.4 0.4 0.1
v -0.4 0.4 -0.1
v -0.4 0.5 0.1
v -0.4 0.5 -0.1
v -0.1 0.5 0.2
v -0.1 0.5 0.1
v -0.1 0.5 -0.1
v -0.1 0.5 -0.2
v -0.1 0.6 0.1
v -0.1 0.6 -0.1
v -0.1 0.8 0.2
v -0.1 0.8 -0.2
v -5.96046e-08 0.6 0.3
v -5.96046e-08 0.6 0.2
v -5.96046e-08 0.6 -0.2
v -5.96046e-08 0.6 -0.3
v -5.96046e-08 0.8 0.3
v -5.96046e-08 0.8 0.2
v -5.96046e-08 0.8 0.1
v -5.96046e-08 0.8 -0.1
v -5.96046e-08 0.8 -0.2
v -5.96046e-08 0.8 -0.3
v -5.96046e-08 1 0.1
v -5.96046e-08 1 -0.1
v 0.1 0.3 0.2
v 0.1 0.3 0.1
v 0.1 0.3 -0.1
v 0.1 0.3 -0.2
v 0.1 0.5 0.2
v 0.1 0.5 0.1
v 0.1 0.5 -0.1
v 0.1 0.5 -0.2
v 0.2 0 0.1
v 0.2 0 -0.1
v 0.2 0.2 0.1
v 0.2 0.2 -0.1
v 0.3 0.6 0.2
v 0.3 0.6 0.1
v 0.3 0.6 -0.1
v 0.3 0.6 -0.2
v 0.3 0.7 0.2
v 0.3 0.7 -0.2
v 0.4 0.7 0.2
v 0.4 0.7 -0.2
v 0.4 0.8 0.3
v 0.4 0.8 0.2
v 0.4 0.8 0.1
v 0.4 0.8 -0.1
v 0.4 0.8 -0.2
v 0.4 0.8 -0.3
v 0.4 0.9 0.3
v 0.4 0.9 0.2
v 0.4 0.9 0.1
v 0.4 0.9 -0.1
v 0.4 0.9 -0.2
v 0.4 0.9 -0.3
v -0.1 0 0.1
v -0.1 0 -0.1
v -0.1 0.2 0.1
v -0.1 0.2 -0.1
v 0.1 0.6 0.2
v 0.1 0.6 0.1
v 0.1 0.6 -0.1
v 0.1 0.6 -0.2
v 0.1 0.7 0.3
v 0.1 0.7 0.2
v 0.1 0.7 -0.2
v 0.1 0.7 -0.3
v 0.1 0.8 0.3
v 0.1 0.8 0.1
v 0.1 0.8 -0.1
v 0.1 0.8 -0.3
v 0.2 0.3 0.2
v 0.2 0.3 0.1
v 0.2 0.3 -0.1
v 0.2 0.3 -0.2
v 0.2 0.4 0.1
v 0.2 0.4 -0.1
v 0.2 0.6 0.2
v 0.2 0.6 0.1
v 0.2 0.6 -0.1
v 0.2 0.6 -0.2
v 0.2 0.8 0.1
v 0.2 0.8 -0.1
v 0.2 1 0.1
v 0.2 1 -0.1
v 0.4 0.6 0.3
v 0.4 0.6 0.1
v 0.4 0.6 -0.1
v 0.4 0.6 -0.3
v 0.4 0.7 0.3
v 0.4 0.7 0.2
v 0.4 0.7 0.1
v 0.4 0.7 -0.1
v 0.4 0.7 -0.2
v 0.4 0.7 -0.3
v 0.5 0.7 0.2
v 0.5 0.7 0.1
v 0.5 0.7 -0.1
v 0.5 0.7 -0.2
v 0.5 0.8 0.3
v 0.5 0.8 0.2
v 0.5 0.8 0.1
v 0.5 0.8 -0.1
v 0.5 0.8 -0.2
v 0.5 0.8 -0.3
v 0.5 0.9 0.3
v 0.5 0.9 0.2
v 0.5 0.9 0.1
v 0.5 0.9 -0.1
v 0.5 0.9 -0.2
v 0.5 0.9 -0.3
v 0.6 0 0.1
v 0.6 0 -0.1
v 0.6 0.3 0.1
v 0.6 0.3 -0.1
v 0.6 0.5 0.1
v 0.6 0.5 -0.1
v 0.6 0.7 0.1
v 0.6 0.7 -0.1
v 0.7 0.3 0.1
v 0.7 0.3 -0.1
v 0.7 0.5 0.1
v 0.7 0.5 -0.1
v -5.96046e-08 0.6 0.3
v -5.96046e-08 0.8 0.3
v 0.1 0.7 0.3
v 0.1 0.8 0.3
v 0.3 0.6 0.3
v 0.3 0.7 0.3
v 0.4 0.6 0.3
v 0.4 0.7 0.3
v 0.4 0.8 0.3
v 0.4 0.9 0.3
v 0.5 0.8 0.3
v 0.5 0.9 0.3
v -0.1 0.5 0.2
v -0.1 0.8 0.2
v -5.96046e-08 0.6 0.2
v -5.96046e-08 0.8 0.2
v 0.1 0.3 0.2
v 0.1 0.5 0.2
v 0.2 0.3 0.2
v 0.2 0.6 0.2
v 0.4 0.7 0.2
v 0.4 0.8 0.2
v 0.5 0.7 0.2
v 0.5 0.8 0.2
v -0.6 0.5 0.1
v -0.6 0.6 0.1
v -0.5 0 0.1
v -0.5 0.4 0.1
v -0.4 0.1 0.1
v -0.4 0.3 0.1
v -0.4 0.4 0.1
v -0.4 0.5 0.1
v -0.2 0.1 0.1
v -0.2 0.3 0.1
v -0.1 0 0.1
v -0.1 0.2 0.1
v -0.1 0.4 0.1
v -0.1 0.5 0.1
v -0.1 0.6 0.1
v -5.96046e-08 0.8 0.1
v -5.96046e-08 1 0.1
v 0.1 0.3 0.1
v 0.1 0.5 0.1
v 0.1 0.8 0.1
v 0.2 0 0.1
v 0.2 0.2 0.1
v 0.2 0.3 0.1
v 0.2 0.4 0.1
v 0.2 0.6 0.1
v 0.2 0.8 0.1
v 0.2 1 0.1
v 0.3 0.1 0.1
v 0.3 0.3 0.1
v 0.3 0.6 0.1
v 0.4 0.6 0.1
v 0.4 0.7 0.1
v 0.5 0.1 0.1
v 0.5 0.3 0.1
v 0.5 0.5 0.1
v 0.5 0.7 0.1
v 0.6 0 0.1
v 0.6 0.3 0.1
v 0.6 0.4 0.1
v 0.6 0.5 0.1
v 0.6 0.7 0.1
v 0.7 0.3 0.1
v 0.7 0.5 0.1
v 0.4 0.8 -0.1
v 0.4 0.9 -0.1
v 0.5 0.8 -0.1
v 0.5 0.9 -0.1
v 0.1 0.6 -0.2
v 0.1 0.7 -0.2
v 0.2 0.6 -0.2
v 0.3 0.6 -0.2
v 0.3 0.7 -0.2
v 0.1 0.6 0.2
v 0.1 0.7 0.2
v 0.2 0.6 0.2
v 0.3 0.6 0.2
v 0.3 0.7 0.2
v 0.4 0.8 0.1
v 0.4 0.9 0.1
v 0.5 0.8 0.1
v 0.5 0.9 0.1
v -0.6 0.5 -0.1
v -0.6 0.6 -0.1
v -0.5 0 -0.1
v -0.5 0.4 -0.1
v -0.4 0.1 -0.1
v -0.4 0.3 -0.1
v -0.4 0.4 -0.1
v -0.4 0.5 -0.1
v -0.2 0.1 -0.1
v -0.2 0.3 -0.1
v -0.1 0 -0.1
v -0.1 0.2 -0.1
v -0.1 0.4 -0.1
v -0.1 0.5 -0.1
v -0.1 0.6 -0.1
v -5.96046e-08 0.8 -0.1
v -5.96046e-08 1 -0.1
v 0.1 0.3 -0.1
v 0.1 0.5 -0.1
v 0.1 0.8 -0.1
v 0.2 0 -0.1
v 0.2 0.2 -0.1
v 0.2 0.3 -0.1
v 0.2 0.4 -0.1
v 0.2 0.6 -0.1
v 0.2 0.8 -0.1
v 0.2 1 -0.1
v 0.3 0.1 -0.1
v 0.3 0.3 -0.1
v 0.3 0.6 -0.1
v 0.4 0.6 -0.1
v 0.4 0.7 -0.1
v 0.5 0.1 -0.1
v 0.5 0.3 -0.1
v 0.5 0.5 -0.1
v 0.5 0.7 -0.1
v 0.6 0 -0.1
v 0.6 0.3 -0.1
v 0.6 0.4 -0.1
v 0.6 0.5 -0.1
v 0.6 0.7 -0.1
v 0.7 0.3 -0.1
v 0.7 0.5 -0.1
v -0.1 0.5 -0.2
v -0.1 0.8 -0.2
v -5.96046e-08 0.6 -0.2
v -5.96046e-08 0.8 -0.2
v 0.1 0.3 -0.2
v 0.1 0.5 -0.2
v 0.2 0.3 -0.2
v 0.2 0.6 -0.2
v 0.4 0.7 -0.2
v 0.4 0.8 -0.2
v 0.5 0.7 -0.2
v 0.5 0.8 -0.2
v -5.96046e-08 0.6 -0.3
v -5.96046e-08 0.8 -0.3
v 0.1 0.7 -0.3
v 0.1 0.8 -0.3
v 0.3 0.6 -0.3
v 0.3 0.7 -0.3
v 0.4 0.6 -0.3
v 0.4 0.7 -0.3
v 0.4 0.8 -0.3
v 0.4 0.9 -0.3
v 0.5 0.8 -0.3
v 0.5 0.9 -0.3
v -0.5 0 0.1
v -0.1 0 0.1
v 0.2 0 0.1
v 0.6 0 0.1
v -0.5 0 -0.1
v -0.1 0 -0.1
v 0.2 0 -0.1
v 0.6 0 -0.1
v -0.1 0.2 0.1
v 0.2 0.2 0.1
v -0.1 0.2 -0.1
v 0.2 0.2 -0.1
v 0.1 0.3 0.2
v 0.2 0.3 0.2
v 0.1 0.3 0.1
v 0.2 0.3 0.1
v 0.6 0.3 0.1
v 0.7 0.3 0.1
v 0.1 0.3 -0.1
v 0.2 0.3 -0.1
v 0.6 0.3 -0.1
v 0.7 0.3 -0.1
v 0.1 0.3 -0.2
v 0.2 0.3 -0.2
v -0.1 0.5 0.2
v 0.1 0.5 0.2
v -0.6 0.5 0.1
v -0.4 0.5 0.1
v -0.1 0.5 0.1
v 0.1 0.5 0.1
v -0.6 0.5 -0.1
v -0.4 0.5 -0.1
v -0.1 0.5 -0.1
v 0.1 0.5 -0.1
v -0.1 0.5 -0.2
v 0.1 0.5 -0.2
v -5.96046e-08 0.6 0.3
v 0.3 0.6 0.3
v 0.4 0.6 0.3
v -5.96046e-08 0.6 0.2
v 0.2 0.6 0.2
v 0.3 0.6 0.2
v 0.3 0.6 0.1
v 0.4 0.6 0.1
v 0.3 0.6 -0.1
v 0.4 0.6 -0.1
v -5.96046e-08 0.6 -0.2
v 0.2 0.6 -0.2
v 0.3 0.6 -0.2
v -5.96046e-08 0.6 -0.3
v 0.3 0.6 -0.3
v 0.4 0.6 -0.3
v 0.4 0.7 0.2
v 0.5 0.7 0.2
v 0.4 0.7 0.1
v 0.5 0.7 0.1
v 0.4 0.7 -0.1
v 0.5 0.7 -0.1
v 0.4 0.7 -0.2
v 0.5 0.7 -0.2
v 0.4 0.8 0.3
v 0.5 0.8 0.3
v 0.4 0.8 0.2
v 0.5 0.8 0.2
v 0.1 0.8 0.1
v 0.2 0.8 0.1
v 0.1 0.8 -0.1
v 0.2 0.8 -0.1
v 0.4 0.8 -0.2
v 0.5 0.8 -0.2
v 0.4 0.8 -0.3
v 0.5 0.8 -0.3
v -0.5 0.4 0.1
v -0.4 0.4 0.1
v -0.5 0.4 -0.1
v -0.4 0.4 -0.1
v 0.6 0.5 0.1
v 0.7 0.5 0.1
v 0.6 0.5 -0.1
v 0.7 0.5 -0.1
v 0.1 0.6 0.2
v 0.2 0.6 0.2
v -0.6 0.6 0.1
v -0.1 0.6 0.1
v 0.1 0.6 0.1
v 0.2 0.6 0.1
v 0.3 0.6 0.1
v -0.6 0.6 -0.1
v -0.1 0.6 -0.1
v 0.1 0.6 -0.1
v 0.2 0.6 -0.1
v 0.3 0.6 -0.1
v 0.1 0.6 -0.2
v 0.2 0.6 -0.2
v 0.1 0.7 0.3
v 0.3 0.7 0.3
v 0.4 0.7 0.3
v 0.1 0.7 0.2
v 0.3 0.7 0.2
v 0.4 0.7 0.2
v 0.5 0.7 0.1
v 0.6 0.7 0.1
v 0.5 0.7 -0.1
v 0.6 0.7 -0.1
v 0.1 0.7 -0.2
v 0.3 0.7 -0.2
v 0.4 0.7 -0.2
v 0.1 0.7 -0.3
v 0.3 0.7 -0.3
v 0.4 0.7 -0.3
v -5.96046e-08 0.8 0.3
v 0.1 0.8 0.3
v -0.1 0.8 0.2
v -5.96046e-08 0.8 0.2
v -5.96046e-08 0.8 0.1
v 0.1 0.8 0.1
v 0.4 0.8 0.1
v 0.5 0.8 0.1
v -5.96046e-08 0.8 -0.1
v 0.1 0.8 -0.1
v 0.4 0.8 -0.1
v 0.5 0.8 -0.1
v -0.1 0.8 -0.2
v -5.96046e-08 0.8 -0.2
v -5.96046e-08 0.8 -0.3
v 0.1 0.8 -0.3
v 0.4 0.9 0.3
v 0.5 0.9 0.3
v 0.4 0.9 0.2
v 0.5 0.9 0.2
v 0.4 0.9 0.1
v 0.5 0.9 0.1
v 0.4 0.9 -0.1
v 0.5 0.9 -0.1
v 0.4 0.9 -0.2
v 0.5 0.9 -0.2
v 0.4 0.9 -0.3
v 0.5 0.9 -0.3
v -5.96046e-08 1 0.1
v 0.2 1 0.1
v -5.96046e-08 1 -0.1
v 0.2 1 -0.1

# faces
f 3/3/1 2/3/1 1/3/1
f 4/3/1 2/3/1 3/3/1
f 7/4/1 6/4/1 5/4/1
f 8/4/1 6/4/1 7/4/1
f 11/3/1 10/3/1 9/3/1
f 12/3/1 10/3/1 11/3/1
f 17/4/1 14/4/1 13/4/1
f 18/4/1 16/4/1 15/4/1
f 19/4/1 17/4/1 13/4/1
f 19/4/1 18/4/1 17/4/1
f 20/4/1 16/4/1 18/4/1
f 20/4/1 18/4/1 19/4/1
f 25/4/1 22/4/1 21/4/1
f 26/4/1 22/4/1 25/4/1
f 29/4/1 24/4/1 23/4/1
f 30/4/1 24/4/1 29/4/1
f 31/4/1 28/4/1 27/4/1
f 32/4/1 28/4/1 31/4/1
f 37/4/1 34/4/1 33/4/1
f 38/4/1 34/4/1 37/4/1
f 39/4/1 36/4/1 35/4/1
f 40/4/1 36/4/1 39/4/1
f 43/4/1 42/4/1 41/4/1
f 44/4/1 42/4/1 43/4/1
f 49/3/1 46/3/1 45/3/1
f 49/3/1 48/3/1 47/3/1
f 49/3/1 47/3/1 46/3/1
f 50/3/1 48/3/1 49/3/1
f 54/3/1 52/3/1 51/3/1
f 55/3/1 52/3/1 54/3/1
f 56/3/1 52/3/1 55/3/1
f 57/3/1 52/3/1 56/3/1
f 59/1/1 54/1/1 53/1/1
f 60/3/1 55/3/1 54/3/1
f 60/1/1 54/1/1 59/1/1
f 61/3/1 55/3/1 60/3/1
f 62/3/1 57/3/1 56/3/1
f 63/1/1 58/1/1 57/1/1
f 63/3/1 57/3/1 62/3/1
f 64/1/1 58/1/1 63/1/1
f 65/4/2 66/4/2 67/4/2
f 67/4/2 66/4/2 68/4/2
f 69/4/2 70/4/2 74/4/2
f 71/4/2 72/4/2 74/4/2
f 70/4/2 71/4/2 74/4/2
f 74/4/2 72/4/2 75/4/2
f 73/4/2 74/4/2 77/4/2
f 75/4/2 76/4/2 77/4/2
f 74/4/2 75/4/2 77/4/2
f 77/4/2 76/4/2 78/4/2
f 78/4/2 76/4/2 79/4/2
f 79/4/2 76/4/2 80/4/2
f 81/4/2 82/4/2 85/4/2
f 83/4/2 84/4/2 86/4/2
f 81/4/2 85/4/2 87/4/2
f 87/4/2 85/4/2 88/4/2
f 86/4/2 84/4/2 89/4/2
f 89/4/2 84/4/2 90/4/2
f 91/4/2 92/4/2 93/4/2
f 93/4/2 92/4/2 94/4/2
f 95/3/2 96/3/2 99/3/2
f 99/3/2 96/3/2 100/3/2
f 100/3/2 96/3/2 101/3/2
f 97/3/2 98/3/2 102/3/2
f 102/3/2 98/3/2 103/3/2
f 103/3/2 98/3/2 104/3/2
f 105/3/2 106/3/2 110/3/2
f 107/3/2 108/3/2 110/3/2
f 106/3/2 107/3/2 110/3/2
f 110/3/2 108/3/2 111/3/2
f 111/3/2 108/3/2 112/3/2
f 112/3/2 108/3/2 113/3/2
f 109/1/2 110/1/2 115/1/2
f 110/3/2 111/3/2 116/3/2
f 115/1/2 110/1/2 116/1/2
f 116/3/2 111/3/2 117/3/2
f 112/3/2 113/3/2 118/3/2
f 113/1/2 114/1/2 119/1/2
f 118/3/2 113/3/2 119/3/2
f 119/1/2 114/1/2 120/1/2
f 121/4/2 122/4/2 123/4/2
f 123/4/2 122/4/2 124/4/2
f 125/2/2 126/2/2 127/2/2
f 127/2/2 126/2/2 128/2/2
f 129/3/2 130/3/2 131/3/2
f 131/3/2 130/3/2 132/3/2
f 135/4/3 134/4/3 133/4/3
f 136/4/3 134/4/3 135/4/3
f 137/4/3 135/4/3 133/4/3
f 138/4/3 135/4/3 137/4/3
f 139/3/3 138/3/3 137/3/3
f 140/3/3 138/3/3 139/3/3
f 143/1/3 142/1/3 141/1/3
f 144/1/3 142/1/3 143/1/3
f 147/4/3 146/4/3 145/4/3
f 148/4/3 146/4/3 147/4/3
f 150/4/3 147/4/3 145/4/3
f 151/4/3 150/4/3 149/4/3
f 152/4/3 147/4/3 150/4/3
f 152/4/3 150/4/3 151/4/3
f 155/3/3 154/3/3 153/3/3
f 156/3/3 154/3/3 155/3/3
f 161/4/3 160/4/3 159/4/3
f 162/4/3 160/4/3 161/4/3
f 163/4/3 160/4/3 162/4/3
f 164/3/3 158/3/3 157/3/3
f 165/4/3 161/4/3 159/4/3
f 165/3/3 162/3/3 161/3/3
f 166/4/3 163/4/3 162/4/3
f 166/3/3 162/3/3 165/3/3
f 167/4/3 165/4/3 159/4/3
f 167/4/3 166/4/3 165/4/3
f 168/4/3 166/4/3 167/4/3
f 169/4/3 163/4/3 166/4/3
f 169/4/3 166/4/3 168/4/3
f 169/3/3 164/3/3 163/3/3
f 170/3/3 158/3/3 164/3/3
f 170/3/3 164/3/3 169/3/3
f 171/3/3 158/3/3 170/3/3
f 174/3/3 170/3/3 169/3/3
f 174/3/3 169/3/3 168/3/3
f 175/3/3 170/3/3 174/3/3
f 176/4/3 173/4/3 172/4/3
f 178/3/3 174/3/3 168/3/3
f 179/3/3 174/3/3 178/3/3
f 182/4/3 173/4/3 176/4/3
f 183/4/3 173/4/3 182/4/3
f 184/4/3 178/4/3 177/4/3
f 184/4/3 179/4/3 178/4/3
f 184/4/3 180/4/3 179/4/3
f 185/4/3 180/4/3 184/4/3
f 186/3/3 181/3/3 180/3/3
f 187/3/3 186/3/3 180/3/3
f 189/4/3 184/4/3 177/4/3
f 189/3/3 185/3/3 184/3/3
f 190/4/3 180/4/3 185/4/3
f 190/3/3 185/3/3 189/3/3
f 191/3/3 188/3/3 187/3/3
f 191/3/3 187/3/3 180/3/3
f 192/3/3 188/3/3 191/3/3
f 193/4/3 189/4/3 177/4/3
f 193/4/3 190/4/3 189/4/3
f 194/4/3 180/4/3 190/4/3
f 194/4/3 190/4/3 193/4/3
f 195/3/3 191/3/3 180/3/3
f 195/4/3 180/4/3 194/4/3
f 196/2/3 192/2/3 191/2/3
f 196/3/3 191/3/3 195/3/3
f 197/2/3 192/2/3 196/2/3
f 198/3/3 195/3/3 194/3/3
f 198/3/3 196/3/3 195/3/3
f 199/3/3 196/3/3 198/3/3
f 202/3/3 201/3/3 200/3/3
f 203/3/3 201/3/3 202/3/3
f 206/4/3 205/4/3 204/4/3
f 207/4/3 205/4/3 206/4/3
f 208/4/3 205/4/3 207/4/3
f 209/4/4 210/4/4 211/4/4
f 211/4/4 210/4/4 212/4/4
f 212/4/4 210/4/4 213/4/4
f 214/3/4 215/3/4 216/3/4
f 216/3/4 215/3/4 217/3/4
f 220/4/4 221/4/4 222/4/4
f 222/4/4 221/4/4 223/4/4
f 223/4/4 221/4/4 224/4/4
f 218/3/4 219/3/4 225/3/4
f 220/4/4 222/4/4 226/4/4
f 222/3/4 223/3/4 226/3/4
f 223/4/4 224/4/4 227/4/4
f 226/3/4 223/3/4 227/3/4
f 220/4/4 226/4/4 228/4/4
f 226/4/4 227/4/4 228/4/4
f 228/4/4 227/4/4 229/4/4
f 227/4/4 224/4/4 230/4/4
f 229/4/4 227/4/4 230/4/4
f 224/3/4 225/3/4 230/3/4
f 225/3/4 219/3/4 231/3/4
f 230/3/4 225/3/4 231/3/4
f 231/3/4 219/3/4 232/3/4
f 230/3/4 231/3/4 235/3/4
f 229/3/4 230/3/4 235/3/4
f 235/3/4 231/3/4 236/3/4
f 233/4/4 234/4/4 237/4/4
f 229/3/4 235/3/4 239/3/4
f 239/3/4 235/3/4 240/3/4
f 237/4/4 234/4/4 243/4/4
f 243/4/4 234/4/4 244/4/4
f 238/4/4 239/4/4 245/4/4
f 239/4/4 240/4/4 245/4/4
f 240/4/4 241/4/4 245/4/4
f 245/4/4 241/4/4 246/4/4
f 241/3/4 242/3/4 247/3/4
f 241/3/4 247/3/4 248/3/4
f 238/4/4 245/4/4 250/4/4
f 245/3/4 246/3/4 250/3/4
f 246/4/4 241/4/4 251/4/4
f 250/3/4 246/3/4 251/3/4
f 248/3/4 249/3/4 252/3/4
f 241/3/4 248/3/4 252/3/4
f 252/3/4 249/3/4 253/3/4
f 238/4/4 250/4/4 254/4/4
f 250/4/4 251/4/4 254/4/4
f 251/4/4 241/4/4 255/4/4
f 254/4/4 251/4/4 255/4/4
f 241/3/4 252/3/4 256/3/4
f 255/4/4 241/4/4 256/4/4
f 252/2/4 253/2/4 257/2/4
f 256/3/4 252/3/4 257/3/4
f 257/2/4 253/2/4 258/2/4
f 255/3/4 256/3/4 259/3/4
f 256/3/4 257/3/4 259/3/4
f 259/3/4 257/3/4 260/3/4
f 261/4/4 262/4/4 263/4/4
f 263/4/4 262/4/4 264/4/4
f 261/4/4 263/4/4 266/4/4
f 265/4/4 266/4/4 267/4/4
f 266/4/4 263/4/4 268/4/4
f 267/4/4 266/4/4 268/4/4
f 269/3/4 270/3/4 271/3/4
f 271/3/4 270/3/4 272/3/4
f 273/4/4 274/4/4 275/4/4
f 275/4/4 274/4/4 276/4/4
f 273/4/4 275/4/4 277/4/4
f 277/4/4 275/4/4 278/4/4
f 277/3/4 278/3/4 279/3/4
f 279/3/4 278/3/4 280/3/4
f 281/1/4 282/1/4 283/1/4
f 283/1/4 282/1/4 284/1/4
f 289/4/5 286/4/5 285/4/5
f 290/4/5 286/4/5 289/4/5
f 291/4/5 288/4/5 287/4/5
f 292/4/5 288/4/5 291/4/5
f 295/3/5 294/3/5 293/3/5
f 296/3/5 294/3/5 295/3/5
f 299/4/5 298/4/5 297/4/5
f 300/4/5 298/4/5 299/4/5
f 305/3/5 302/3/5 301/3/5
f 306/3/5 302/3/5 305/3/5
f 307/4/5 304/4/5 303/4/5
f 308/4/5 304/4/5 307/4/5
f 313/4/5 310/4/5 309/4/5
f 314/4/5 310/4/5 313/4/5
f 315/3/5 312/3/5 311/3/5
f 316/3/5 312/3/5 315/3/5
f 319/4/5 318/4/5 317/4/5
f 320/4/5 318/4/5 319/4/5
f 324/4/5 322/4/5 321/4/5
f 325/4/5 322/4/5 324/4/5
f 326/3/5 323/3/5 322/3/5
f 326/4/5 322/4/5 325/4/5
f 327/3/5 323/3/5 326/3/5
f 328/3/5 323/3/5 327/3/5
f 333/3/5 330/3/5 329/3/5
f 334/4/5 332/4/5 331/4/5
f 334/4/5 333/4/5 332/4/5
f 335/3/5 330/3/5 333/3/5
f 335/4/5 333/4/5 334/4/5
f 336/3/5 330/3/5 335/3/5
f 339/3/5 338/3/5 337/3/5
f 340/3/5 338/3/5 339/3/5
f 343/3/5 342/3/5 341/3/5
f 344/3/5 342/3/5 343/3/5
f 347/1/5 346/1/5 345/1/5
f 348/1/5 346/1/5 347/1/5
f 351/4/5 350/4/5 349/4/5
f 352/4/5 350/4/5 351/4/5
f 355/1/5 354/1/5 353/1/5
f 356/1/5 354/1/5 355/1/5
f 357/4/6 358/4/6 359/4/6
f 359/4/6 358/4/6 360/4/6
f 361/3/6 362/3/6 363/3/6
f 363/3/6 362/3/6 364/3/6
f 365/4/6 366/4/6 369/4/6
f 369/4/6 366/4/6 370/4/6
f 367/3/6 368/3/6 372/3/6
f 372/3/6 368/3/6 373/3/6
f 370/3/6 371/3/6 374/3/6
f 369/3/6 370/3/6 374/3/6
f 374/3/6 371/3/6 375/3/6
f 375/3/6 371/3/6 376/3/6
f 374/4/6 375/4/6 377/4/6
f 377/4/6 375/4/6 378/4/6
f 379/4/6 380/4/6 382/4/6
f 380/3/6 381/3/6 383/3/6
f 382/4/6 380/4/6 383/4/6
f 383/3/6 381/3/6 384/3/6
f 385/2/6 386/2/6 387/2/6
f 387/2/6 386/2/6 388/2/6
f 383/3/6 384/3/6 390/3/6
f 390/3/6 384/3/6 391/3/6
f 389/4/6 390/4/6 392/4/6
f 390/3/6 391/3/6 393/3/6
f 392/4/6 390/4/6 393/4/6
f 393/3/6 391/3/6 394/3/6
f 395/4/6 396/4/6 398/4/6
f 398/4/6 396/4/6 399/4/6
f 397/4/6 398/4/6 399/4/6
f 399/4/6 396/4/6 400/4/6
f 397/4/6 399/4/6 403/4/6
f 401/3/6 402/3/6 405/3/6
f 405/3/6 402/3/6 406/3/6
f 403/4/6 404/4/6 407/4/6
f 397/4/6 403/4/6 407/4/6
f 407/4/6 404/4/6 408/4/6
f 408/4/6 404/4/6 409/4/6
f 409/4/6 404/4/6 410/4/6
f 411/1/6 412/1/6 413/1/6
f 413/1/6 412/1/6 414/1/6
f 413/3/6 414/3/6 415/3/6
f 415/3/6 414/3/6 416/3/6
f 417/3/6 418/3/6 419/3/6
f 419/3/6 418/3/6 420/3/6
f 419/1/6 420/1/6 421/1/6
f 421/1/6 420/1/6 422/1/6
f 423/4/6 424/4/6 425/4/6
f 425/4/6 424/4/6 426/4/6
