# MagicaVoxel @ Ephtracy

# group
o 

# material
mtllib pickup_b.mtl
usemtl palette

# normals
vn -1 0 0
vn 1 0 0
vn 0 0 1
vn 0 0 -1
vn 0 -1 0
vn 0 1 0

# texcoords
vt 0.876953 0.5
vt 0.880859 0.5
vt 0.916016 0.5
vt 0.947266 0.5
vt 0.970703 0.5
vt 0.982422 0.5

# verts
v -1 0.2 0.6
v -1 0.2 0.1
v -1 0.2 -0.2
v -1 0.2 -0.7
v -1 0.4 0.6
v -1 0.4 0.4
v -1 0.4 0.3
v -1 0.4 0.1
v -1 0.4 -0.2
v -1 0.4 -0.4
v -1 0.4 -0.5
v -1 0.4 -0.7
v -1 0.5 0.6
v -1 0.5 0.4
v -1 0.5 0.3
v -1 0.5 -0.4
v -1 0.5 -0.5
v -1 0.5 -0.7
v -1 0.7 0.6
v -1 0.7 -0.7
v -0.8 0 0.7
v -0.8 0 0.5
v -0.8 0 -0.6
v -0.8 0 -0.8
v -0.8 0.2 0.6
v -0.8 0.2 0.5
v -0.8 0.2 -0.6
v -0.8 0.2 -0.7
v -0.8 0.4 0.7
v -0.8 0.4 0.6
v -0.8 0.4 -0.7
v -0.8 0.4 -0.8
v -0.3 0.4 0.4
v -0.3 0.4 0.3
v -0.3 0.4 0.2
v -0.3 0.4 0.1
v -0.3 0.4 0
v -0.3 0.4 -0.1
v -0.3 0.4 -0.2
v -0.3 0.4 -0.3
v -0.3 0.4 -0.4
v -0.3 0.4 -0.5
v -0.3 0.5 0.5
v -0.3 0.5 0.4
v -0.3 0.5 0.3
v -0.3 0.5 0.2
v -0.3 0.5 0.1
v -0.3 0.5 0
v -0.3 0.5 -0.1
v -0.3 0.5 -0.2
v -0.3 0.5 -0.3
v -0.3 0.5 -0.4
v -0.3 0.5 -0.5
v -0.3 0.5 -0.6
v -0.3 0.7 0.6
v -0.3 0.7 0.5
v -0.3 0.7 -0.6
v -0.3 0.7 -0.7
v -0.3 0.9 0.5
v -0.3 0.9 -0.6
v -0.3 1 0.6
v -0.3 1 -0.7
v 0.2 0 0.7
v 0.2 0 0.5
v 0.2 0 -0.6
v 0.2 0 -0.8
v 0.2 0.2 0.6
v 0.2 0.2 0.5
v 0.2 0.2 -0.6
v 0.2 0.2 -0.7
v 0.2 0.3 0.6
v 0.2 0.3 -0.7
v 0.2 0.4 0.7
v 0.2 0.4 0.6
v 0.2 0.4 -0.7
v 0.2 0.4 -0.8
v 0.3 0.5 0.8
v 0.3 0.5 0.6
v 0.3 0.5 -0.7
v 0.3 0.5 -0.9
v 0.3 0.7 0.8
v 0.3 0.7 0.6
v 0.3 0.7 -0.7
v 0.3 0.7 -0.9
v 0.6 0.2 -0.6
v 0.6 0.2 -0.7
v 0.6 0.3 -0.6
v 0.6 0.3 -0.7
v -0.9 0.5 0.5
v -0.9 0.5 -0.6
v -0.9 0.7 0.5
v -0.9 0.7 -0.6
v -0.7 0.4 0.4
v -0.7 0.4 0.3
v -0.7 0.4 0.2
v -0.7 0.4 0.1
v -0.7 0.4 0
v -0.7 0.4 -0.1
v -0.7 0.4 -0.2
v -0.7 0.4 -0.3
v -0.7 0.4 -0.4
v -0.7 0.4 -0.5
v -0.7 0.5 0.4
v -0.7 0.5 0.3
v -0.7 0.5 0.2
v -0.7 0.5 0.1
v -0.7 0.5 0
v -0.7 0.5 -0.1
v -0.7 0.5 -0.2
v -0.7 0.5 -0.3
v -0.7 0.5 -0.4
v -0.7 0.5 -0.5
v -0.4 0 0.7
v -0.4 0 0.5
v -0.4 0 -0.6
v -0.4 0 -0.8
v -0.4 0.2 0.6
v -0.4 0.2 0.5
v -0.4 0.2 -0.6
v -0.4 0.2 -0.7
v -0.4 0.3 0.6
v -0.4 0.3 -0.7
v -0.4 0.4 0.7
v -0.4 0.4 0.6
v -0.4 0.4 -0.7
v -0.4 0.4 -0.8
v 0.2 0.2 -0.6
v 0.2 0.2 -0.7
v 0.2 0.3 -0.6
v 0.2 0.3 -0.7
v 0.4 0.5 0.8
v 0.4 0.5 0.6
v 0.4 0.5 -0.7
v 0.4 0.5 -0.9
v 0.4 0.7 0.8
v 0.4 0.7 0.6
v 0.4 0.7 0.5
v 0.4 0.7 -0.6
v 0.4 0.7 -0.7
v 0.4 0.7 -0.9
v 0.4 0.9 0.5
v 0.4 0.9 -0.6
v 0.4 1 0.6
v 0.4 1 -0.7
v 0.6 0 0.7
v 0.6 0 0.5
v 0.6 0 -0.6
v 0.6 0 -0.8
v 0.6 0.2 0.6
v 0.6 0.2 0.5
v 0.6 0.2 -0.6
v 0.6 0.2 -0.7
v 0.6 0.4 0.7
v 0.6 0.4 0.6
v 0.6 0.4 -0.7
v 0.6 0.4 -0.8
v 1 0.2 0.6
v 1 0.2 -0.7
v 1 0.3 0.3
v 1 0.3 0.2
v 1 0.3 0.1
v 1 0.3 0
v 1 0.3 -0.1
v 1 0.3 -0.2
v 1 0.3 -0.3
v 1 0.3 -0.4
v 1 0.4 0.6
v 1 0.4 0.4
v 1 0.4 -0.5
v 1 0.4 -0.7
v 1 0.5 0.3
v 1 0.5 0.2
v 1 0.5 0.1
v 1 0.5 0
v 1 0.5 -0.1
v 1 0.5 -0.2
v 1 0.5 -0.3
v 1 0.5 -0.4
v 1 0.6 0.6
v 1 0.6 0.4
v 1 0.6 -0.5
v 1 0.6 -0.7
v 1 0.7 0.6
v 1 0.7 -0.7
v 0.3 0.5 0.8
v 0.3 0.7 0.8
v 0.4 0.5 0.8
v 0.4 0.7 0.8
v -0.8 0 0.7
v -0.8 0.4 0.7
v -0.7 0.1 0.7
v -0.7 0.3 0.7
v -0.5 0.1 0.7
v -0.5 0.3 0.7
v -0.4 0 0.7
v -0.4 0.4 0.7
v 0.2 0 0.7
v 0.2 0.4 0.7
v 0.3 0.1 0.7
v 0.3 0.3 0.7
v 0.5 0.1 0.7
v 0.5 0.3 0.7
v 0.6 0 0.7
v 0.6 0.4 0.7
v -1 0.2 0.6
v -1 0.4 0.6
v -1 0.5 0.6
v -1 0.7 0.6
v -0.9 0.4 0.6
v -0.9 0.5 0.6
v -0.8 0.2 0.6
v -0.8 0.4 0.6
v -0.4 0.2 0.6
v -0.4 0.3 0.6
v -0.4 0.4 0.6
v -0.3 0.7 0.6
v -0.3 1 0.6
v -0.2 0.7 0.6
v -0.2 0.9 0.6
v 0.2 0.2 0.6
v 0.2 0.3 0.6
v 0.2 0.4 0.6
v 0.3 0.5 0.6
v 0.3 0.7 0.6
v 0.3 0.9 0.6
v 0.4 0.5 0.6
v 0.4 0.7 0.6
v 0.4 1 0.6
v 0.6 0.2 0.6
v 0.6 0.4 0.6
v 0.9 0.4 0.6
v 0.9 0.6 0.6
v 1 0.2 0.6
v 1 0.4 0.6
v 1 0.6 0.6
v 1 0.7 0.6
v -0.7 0.4 0.3
v -0.7 0.5 0.3
v -0.3 0.4 0.3
v -0.3 0.5 0.3
v -0.7 0.4 0.1
v -0.7 0.5 0.1
v -0.3 0.4 0.1
v -0.3 0.5 0.1
v -0.7 0.4 -0.1
v -0.7 0.5 -0.1
v -0.3 0.4 -0.1
v -0.3 0.5 -0.1
v -0.7 0.4 -0.3
v -0.7 0.5 -0.3
v -0.3 0.4 -0.3
v -0.3 0.5 -0.3
v -0.7 0.4 -0.5
v -0.7 0.5 -0.5
v -0.3 0.4 -0.5
v -0.3 0.5 -0.5
v -0.9 0.5 -0.6
v -0.9 0.7 -0.6
v -0.8 0 -0.6
v -0.8 0.2 -0.6
v -0.4 0 -0.6
v -0.4 0.2 -0.6
v -0.3 0.5 -0.6
v -0.3 0.7 -0.6
v 0.2 0 -0.6
v 0.2 0.2 -0.6
v 0.6 0 -0.6
v 0.6 0.2 -0.6
v 0.2 0.2 -0.7
v 0.2 0.3 -0.7
v 0.3 0.2 -0.7
v 0.3 0.3 -0.7
v 0.5 0.2 -0.7
v 0.5 0.3 -0.7
v 0.6 0.2 -0.7
v 0.6 0.3 -0.7
v -0.9 0.5 0.5
v -0.9 0.7 0.5
v -0.8 0 0.5
v -0.8 0.2 0.5
v -0.4 0 0.5
v -0.4 0.2 0.5
v -0.3 0.5 0.5
v -0.3 0.7 0.5
v 0.2 0 0.5
v 0.2 0.2 0.5
v 0.6 0 0.5
v 0.6 0.2 0.5
v -0.7 0.4 0.4
v -0.7 0.5 0.4
v -0.3 0.4 0.4
v -0.3 0.5 0.4
v -0.7 0.4 0.2
v -0.7 0.5 0.2
v -0.3 0.4 0.2
v -0.3 0.5 0.2
v -0.7 0.4 0
v -0.7 0.5 0
v -0.3 0.4 0
v -0.3 0.5 0
v -0.7 0.4 -0.2
v -0.7 0.5 -0.2
v -0.3 0.4 -0.2
v -0.3 0.5 -0.2
v -0.7 0.4 -0.4
v -0.7 0.5 -0.4
v -0.3 0.4 -0.4
v -0.3 0.5 -0.4
v 0.2 0.2 -0.6
v 0.2 0.3 -0.6
v 0.6 0.2 -0.6
v 0.6 0.3 -0.6
v -1 0.2 -0.7
v -1 0.4 -0.7
v -1 0.5 -0.7
v -1 0.7 -0.7
v -0.9 0.4 -0.7
v -0.9 0.5 -0.7
v -0.8 0.2 -0.7
v -0.8 0.4 -0.7
v -0.4 0.2 -0.7
v -0.4 0.3 -0.7
v -0.4 0.4 -0.7
v -0.3 0.7 -0.7
v -0.3 1 -0.7
v -0.2 0.7 -0.7
v -0.2 0.9 -0.7
v 0.2 0.2 -0.7
v 0.2 0.3 -0.7
v 0.2 0.4 -0.7
v 0.3 0.5 -0.7
v 0.3 0.7 -0.7
v 0.3 0.9 -0.7
v 0.4 0.5 -0.7
v 0.4 0.7 -0.7
v 0.4 1 -0.7
v 0.6 0.2 -0.7
v 0.6 0.4 -0.7
v 0.9 0.4 -0.7
v 0.9 0.6 -0.7
v 1 0.2 -0.7
v 1 0.4 -0.7
v 1 0.6 -0.7
v 1 0.7 -0.7
v -0.8 0 -0.8
v -0.8 0.4 -0.8
v -0.7 0.1 -0.8
v -0.7 0.3 -0.8
v -0.5 0.1 -0.8
v -0.5 0.3 -0.8
v -0.4 0 -0.8
v -0.4 0.4 -0.8
v 0.2 0 -0.8
v 0.2 0.4 -0.8
v 0.3 0.1 -0.8
v 0.3 0.3 -0.8
v 0.5 0.1 -0.8
v 0.5 0.3 -0.8
v 0.6 0 -0.8
v 0.6 0.4 -0.8
v 0.3 0.5 -0.9
v 0.3 0.7 -0.9
v 0.4 0.5 -0.9
v 0.4 0.7 -0.9
v -0.8 0 0.7
v -0.4 0 0.7
v 0.2 0 0.7
v 0.6 0 0.7
v -0.8 0 0.5
v -0.4 0 0.5
v 0.2 0 0.5
v 0.6 0 0.5
v -0.8 0 -0.6
v -0.4 0 -0.6
v 0.2 0 -0.6
v 0.6 0 -0.6
v -0.8 0 -0.8
v -0.4 0 -0.8
v 0.2 0 -0.8
v 0.6 0 -0.8
v -1 0.2 0.6
v -0.8 0.2 0.6
v -0.4 0.2 0.6
v 0.2 0.2 0.6
v 0.6 0.2 0.6
v 1 0.2 0.6
v -0.8 0.2 0.5
v -0.4 0.2 0.5
v 0.2 0.2 0.5
v 0.6 0.2 0.5
v -1 0.2 0.1
v -0.9 0.2 0.1
v -1 0.2 -0.2
v -0.9 0.2 -0.2
v -0.8 0.2 -0.6
v -0.4 0.2 -0.6
v 0.2 0.2 -0.6
v 0.6 0.2 -0.6
v -1 0.2 -0.7
v -0.8 0.2 -0.7
v -0.4 0.2 -0.7
v 0.2 0.2 -0.7
v 0.6 0.2 -0.7
v 1 0.2 -0.7
v 0.2 0.3 -0.6
v 0.6 0.3 -0.6
v 0.2 0.3 -0.7
v 0.3 0.3 -0.7
v 0.5 0.3 -0.7
v 0.6 0.3 -0.7
v 0.3 0.5 0.8
v 0.4 0.5 0.8
v 0.3 0.5 0.6
v 0.4 0.5 0.6
v 0.3 0.5 -0.7
v 0.4 0.5 -0.7
v 0.3 0.5 -0.9
v 0.4 0.5 -0.9
v 0.2 0.2 -0.6
v 0.6 0.2 -0.6
v 0.2 0.2 -0.7
v 0.3 0.2 -0.7
v 0.5 0.2 -0.7
v 0.6 0.2 -0.7
v -0.8 0.4 0.7
v -0.4 0.4 0.7
v 0.2 0.4 0.7
v 0.6 0.4 0.7
v -0.8 0.4 0.6
v -0.4 0.4 0.6
v 0.2 0.4 0.6
v 0.6 0.4 0.6
v -0.7 0.4 0.4
v -0.3 0.4 0.4
v -0.7 0.4 0.3
v -0.3 0.4 0.3
v -0.7 0.4 0.2
v -0.3 0.4 0.2
v -0.7 0.4 0.1
v -0.3 0.4 0.1
v -0.7 0.4 0
v -0.3 0.4 0
v -0.7 0.4 -0.1
v -0.3 0.4 -0.1
v -0.7 0.4 -0.2
v -0.3 0.4 -0.2
v -0.7 0.4 -0.3
v -0.3 0.4 -0.3
v -0.7 0.4 -0.4
v -0.3 0.4 -0.4
v -0.7 0.4 -0.5
v -0.3 0.4 -0.5
v -0.8 0.4 -0.7
v -0.4 0.4 -0.7
v 0.2 0.4 -0.7
v 0.6 0.4 -0.7
v -0.8 0.4 -0.8
v -0.4 0.4 -0.8
v 0.2 0.4 -0.8
v 0.6 0.4 -0.8
v -0.9 0.5 0.5
v -0.3 0.5 0.5
v -0.7 0.5 0.4
v -0.3 0.5 0.4
v -0.7 0.5 0.3
v -0.3 0.5 0.3
v -0.7 0.5 0.2
v -0.3 0.5 0.2
v -0.7 0.5 0.1
v -0.3 0.5 0.1
v -0.7 0.5 0
v -0.3 0.5 0
v -0.7 0.5 -0.1
v -0.3 0.5 -0.1
v -0.7 0.5 -0.2
v -0.3 0.5 -0.2
v -0.7 0.5 -0.3
v -0.3 0.5 -0.3
v -0.7 0.5 -0.4
v -0.3 0.5 -0.4
v -0.7 0.5 -0.5
v -0.3 0.5 -0.5
v -0.9 0.5 -0.6
v -0.3 0.5 -0.6
v 0.3 0.7 0.8
v 0.4 0.7 0.8
v -1 0.7 0.6
v -0.3 0.7 0.6
v 0.3 0.7 0.6
v 0.4 0.7 0.6
v 1 0.7 0.6
v -0.9 0.7 0.5
v -0.3 0.7 0.5
v 0.4 0.7 0.5
v -0.9 0.7 -0.6
v -0.3 0.7 -0.6
v 0.4 0.7 -0.6
v -1 0.7 -0.7
v -0.3 0.7 -0.7
v 0.3 0.7 -0.7
v 0.4 0.7 -0.7
v 1 0.7 -0.7
v 0.3 0.7 -0.9
v 0.4 0.7 -0.9
v -0.3 1 0.6
v 0.4 1 0.6
v -0.3 1 -0.7
v 0.4 1 -0.7

# faces
f 5/2/1 2/2/1 1/2/1
f 6/2/1 2/2/1 5/2/1
f 7/2/1 2/2/1 6/2/1
f 8/4/1 3/4/1 2/4/1
f 8/2/1 2/2/1 7/2/1
f 9/2/1 4/2/1 3/2/1
f 9/4/1 3/4/1 8/4/1
f 10/2/1 4/2/1 9/2/1
f 11/2/1 4/2/1 10/2/1
f 12/2/1 4/2/1 11/2/1
f 13/3/1 6/3/1 5/3/1
f 14/6/1 7/6/1 6/6/1
f 14/3/1 6/3/1 13/3/1
f 15/5/1 8/5/1 7/5/1
f 15/6/1 7/6/1 14/6/1
f 15/5/1 9/5/1 8/5/1
f 15/5/1 10/5/1 9/5/1
f 16/6/1 11/6/1 10/6/1
f 16/5/1 10/5/1 15/5/1
f 17/3/1 12/3/1 11/3/1
f 17/6/1 11/6/1 16/6/1
f 18/3/1 12/3/1 17/3/1
f 19/6/1 14/6/1 13/6/1
f 19/6/1 16/6/1 15/6/1
f 19/6/1 18/6/1 17/6/1
f 19/6/1 17/6/1 16/6/1
f 19/6/1 15/6/1 14/6/1
f 20/6/1 18/6/1 19/6/1
f 25/5/1 22/5/1 21/5/1
f 26/5/1 22/5/1 25/5/1
f 27/5/1 24/5/1 23/5/1
f 28/5/1 24/5/1 27/5/1
f 29/5/1 25/5/1 21/5/1
f 30/5/1 25/5/1 29/5/1
f 31/5/1 24/5/1 28/5/1
f 32/5/1 24/5/1 31/5/1
f 44/6/1 34/6/1 33/6/1
f 45/6/1 34/6/1 44/6/1
f 46/6/1 36/6/1 35/6/1
f 47/6/1 36/6/1 46/6/1
f 48/6/1 38/6/1 37/6/1
f 49/6/1 38/6/1 48/6/1
f 50/6/1 40/6/1 39/6/1
f 51/6/1 40/6/1 50/6/1
f 52/6/1 42/6/1 41/6/1
f 53/6/1 42/6/1 52/6/1
f 56/6/1 51/6/1 50/6/1
f 56/6/1 54/6/1 53/6/1
f 56/6/1 53/6/1 52/6/1
f 56/6/1 52/6/1 51/6/1
f 56/6/1 45/6/1 44/6/1
f 56/6/1 50/6/1 49/6/1
f 56/6/1 47/6/1 46/6/1
f 56/6/1 48/6/1 47/6/1
f 56/6/1 49/6/1 48/6/1
f 56/6/1 46/6/1 45/6/1
f 56/6/1 44/6/1 43/6/1
f 57/6/1 54/6/1 56/6/1
f 59/6/1 56/6/1 55/6/1
f 59/1/1 57/1/1 56/1/1
f 60/6/1 58/6/1 57/6/1
f 60/1/1 57/1/1 59/1/1
f 61/6/1 59/6/1 55/6/1
f 61/6/1 60/6/1 59/6/1
f 62/6/1 58/6/1 60/6/1
f 62/6/1 60/6/1 61/6/1
f 67/5/1 64/5/1 63/5/1
f 68/5/1 64/5/1 67/5/1
f 69/5/1 66/5/1 65/5/1
f 70/5/1 66/5/1 69/5/1
f 71/5/1 67/5/1 63/5/1
f 72/5/1 66/5/1 70/5/1
f 73/5/1 71/5/1 63/5/1
f 74/5/1 71/5/1 73/5/1
f 75/5/1 66/5/1 72/5/1
f 76/5/1 66/5/1 75/5/1
f 81/6/1 78/6/1 77/6/1
f 82/6/1 78/6/1 81/6/1
f 83/6/1 80/6/1 79/6/1
f 84/6/1 80/6/1 83/6/1
f 87/2/1 86/2/1 85/2/1
f 88/2/1 86/2/1 87/2/1
f 89/6/2 90/6/2 91/6/2
f 91/6/2 90/6/2 92/6/2
f 93/6/2 94/6/2 103/6/2
f 103/6/2 94/6/2 104/6/2
f 95/6/2 96/6/2 105/6/2
f 105/6/2 96/6/2 106/6/2
f 97/6/2 98/6/2 107/6/2
f 107/6/2 98/6/2 108/6/2
f 99/6/2 100/6/2 109/6/2
f 109/6/2 100/6/2 110/6/2
f 101/6/2 102/6/2 111/6/2
f 111/6/2 102/6/2 112/6/2
f 113/5/2 114/5/2 117/5/2
f 117/5/2 114/5/2 118/5/2
f 115/5/2 116/5/2 119/5/2
f 119/5/2 116/5/2 120/5/2
f 113/5/2 117/5/2 121/5/2
f 120/5/2 116/5/2 122/5/2
f 113/5/2 121/5/2 123/5/2
f 123/5/2 121/5/2 124/5/2
f 122/5/2 116/5/2 125/5/2
f 125/5/2 116/5/2 126/5/2
f 127/2/2 128/2/2 129/2/2
f 129/2/2 128/2/2 130/2/2
f 131/6/2 132/6/2 135/6/2
f 135/6/2 132/6/2 136/6/2
f 133/6/2 134/6/2 139/6/2
f 139/6/2 134/6/2 140/6/2
f 137/1/2 138/1/2 141/1/2
f 136/6/2 137/6/2 141/6/2
f 138/6/2 139/6/2 142/6/2
f 141/1/2 138/1/2 142/1/2
f 136/6/2 141/6/2 143/6/2
f 141/6/2 142/6/2 143/6/2
f 142/6/2 139/6/2 144/6/2
f 143/6/2 142/6/2 144/6/2
f 145/5/2 146/5/2 149/5/2
f 149/5/2 146/5/2 150/5/2
f 147/5/2 148/5/2 151/5/2
f 151/5/2 148/5/2 152/5/2
f 145/5/2 149/5/2 153/5/2
f 153/5/2 149/5/2 154/5/2
f 152/5/2 148/5/2 155/5/2
f 155/5/2 148/5/2 156/5/2
f 157/2/2 158/2/2 159/2/2
f 159/2/2 158/2/2 160/2/2
f 160/2/2 158/2/2 161/2/2
f 161/2/2 158/2/2 162/2/2
f 162/2/2 158/2/2 163/2/2
f 163/2/2 158/2/2 164/2/2
f 164/2/2 158/2/2 165/2/2
f 165/2/2 158/2/2 166/2/2
f 157/2/2 159/2/2 167/2/2
f 167/2/2 159/2/2 168/2/2
f 166/2/2 158/2/2 169/2/2
f 169/2/2 158/2/2 170/2/2
f 168/2/2 159/2/2 171/2/2
f 159/5/2 160/5/2 171/5/2
f 160/2/2 161/2/2 172/2/2
f 171/5/2 160/5/2 172/5/2
f 161/5/2 162/5/2 173/5/2
f 172/2/2 161/2/2 173/2/2
f 162/2/2 163/2/2 174/2/2
f 173/5/2 162/5/2 174/5/2
f 163/5/2 164/5/2 175/5/2
f 174/2/2 163/2/2 175/2/2
f 164/2/2 165/2/2 176/2/2
f 175/5/2 164/5/2 176/5/2
f 165/5/2 166/5/2 177/5/2
f 176/2/2 165/2/2 177/2/2
f 166/2/2 169/2/2 178/2/2
f 177/5/2 166/5/2 178/5/2
f 167/3/2 168/3/2 179/3/2
f 168/2/2 171/2/2 180/2/2
f 179/3/2 168/3/2 180/3/2
f 171/2/2 172/2/2 180/2/2
f 177/2/2 178/2/2 180/2/2
f 176/2/2 177/2/2 180/2/2
f 172/2/2 173/2/2 180/2/2
f 173/2/2 174/2/2 180/2/2
f 175/2/2 176/2/2 180/2/2
f 174/2/2 175/2/2 180/2/2
f 169/3/2 170/3/2 181/3/2
f 180/2/2 178/2/2 181/2/2
f 178/2/2 169/2/2 181/2/2
f 181/3/2 170/3/2 182/3/2
f 179/6/2 180/6/2 183/6/2
f 180/6/2 181/6/2 183/6/2
f 181/6/2 182/6/2 183/6/2
f 183/6/2 182/6/2 184/6/2
f 187/6/3 186/6/3 185/6/3
f 188/6/3 186/6/3 187/6/3
f 191/5/3 190/5/3 189/5/3
f 192/5/3 190/5/3 191/5/3
f 193/5/3 191/5/3 189/5/3
f 193/4/3 192/4/3 191/4/3
f 194/5/3 190/5/3 192/5/3
f 194/4/3 192/4/3 193/4/3
f 195/5/3 193/5/3 189/5/3
f 195/5/3 194/5/3 193/5/3
f 196/5/3 190/5/3 194/5/3
f 196/5/3 194/5/3 195/5/3
f 199/5/3 198/5/3 197/5/3
f 200/5/3 198/5/3 199/5/3
f 201/5/3 199/5/3 197/5/3
f 201/4/3 200/4/3 199/4/3
f 202/5/3 198/5/3 200/5/3
f 202/4/3 200/4/3 201/4/3
f 203/5/3 201/5/3 197/5/3
f 203/5/3 202/5/3 201/5/3
f 204/5/3 198/5/3 202/5/3
f 204/5/3 202/5/3 203/5/3
f 209/2/3 206/2/3 205/2/3
f 209/3/3 207/3/3 206/3/3
f 210/6/3 208/6/3 207/6/3
f 210/3/3 207/3/3 209/3/3
f 211/2/3 209/2/3 205/2/3
f 212/6/3 210/6/3 209/6/3
f 212/2/3 209/2/3 211/2/3
f 215/6/3 210/6/3 212/6/3
f 216/6/3 208/6/3 210/6/3
f 216/6/3 215/6/3 214/6/3
f 216/6/3 210/6/3 215/6/3
f 218/6/3 216/6/3 214/6/3
f 218/6/3 217/6/3 216/6/3
f 219/6/3 217/6/3 218/6/3
f 220/2/3 214/2/3 213/2/3
f 221/6/3 218/6/3 214/6/3
f 221/2/3 214/2/3 220/2/3
f 222/6/3 218/6/3 221/6/3
f 223/6/3 218/6/3 222/6/3
f 224/1/3 219/1/3 218/1/3
f 224/6/3 218/6/3 223/6/3
f 225/6/3 217/6/3 219/6/3
f 225/1/3 219/1/3 224/1/3
f 226/6/3 223/6/3 222/6/3
f 227/6/3 225/6/3 224/6/3
f 228/6/3 217/6/3 225/6/3
f 228/6/3 225/6/3 227/6/3
f 230/6/3 227/6/3 226/6/3
f 230/6/3 226/6/3 222/6/3
f 231/6/3 227/6/3 230/6/3
f 231/2/3 230/2/3 229/2/3
f 232/6/3 227/6/3 231/6/3
f 233/2/3 231/2/3 229/2/3
f 234/3/3 232/3/3 231/3/3
f 234/2/3 231/2/3 233/2/3
f 235/6/3 227/6/3 232/6/3
f 235/3/3 232/3/3 234/3/3
f 236/6/3 227/6/3 235/6/3
f 239/6/3 238/6/3 237/6/3
f 240/6/3 238/6/3 239/6/3
f 243/6/3 242/6/3 241/6/3
f 244/6/3 242/6/3 243/6/3
f 247/6/3 246/6/3 245/6/3
f 248/6/3 246/6/3 247/6/3
f 251/6/3 250/6/3 249/6/3
f 252/6/3 250/6/3 251/6/3
f 255/6/3 254/6/3 253/6/3
f 256/6/3 254/6/3 255/6/3
f 261/5/3 260/5/3 259/5/3
f 262/5/3 260/5/3 261/5/3
f 263/6/3 258/6/3 257/6/3
f 264/6/3 258/6/3 263/6/3
f 267/5/3 266/5/3 265/5/3
f 268/5/3 266/5/3 267/5/3
f 271/5/3 270/5/3 269/5/3
f 272/5/3 270/5/3 271/5/3
f 273/4/3 272/4/3 271/4/3
f 274/4/3 272/4/3 273/4/3
f 275/5/3 274/5/3 273/5/3
f 276/5/3 274/5/3 275/5/3
f 279/5/4 280/5/4 281/5/4
f 281/5/4 280/5/4 282/5/4
f 277/6/4 278/6/4 283/6/4
f 283/6/4 278/6/4 284/6/4
f 285/5/4 286/5/4 287/5/4
f 287/5/4 286/5/4 288/5/4
f 289/6/4 290/6/4 291/6/4
f 291/6/4 290/6/4 292/6/4
f 293/6/4 294/6/4 295/6/4
f 295/6/4 294/6/4 296/6/4
f 297/6/4 298/6/4 299/6/4
f 299/6/4 298/6/4 300/6/4
f 301/6/4 302/6/4 303/6/4
f 303/6/4 302/6/4 304/6/4
f 305/6/4 306/6/4 307/6/4
f 307/6/4 306/6/4 308/6/4
f 309/2/4 310/2/4 311/2/4
f 311/2/4 310/2/4 312/2/4
f 313/2/4 314/2/4 317/2/4
f 314/3/4 315/3/4 317/3/4
f 315/6/4 316/6/4 318/6/4
f 317/3/4 315/3/4 318/3/4
f 313/2/4 317/2/4 319/2/4
f 317/6/4 318/6/4 320/6/4
f 319/2/4 317/2/4 320/2/4
f 320/6/4 318/6/4 323/6/4
f 318/6/4 316/6/4 324/6/4
f 322/6/4 323/6/4 324/6/4
f 323/6/4 318/6/4 324/6/4
f 322/6/4 324/6/4 326/6/4
f 324/6/4 325/6/4 326/6/4
f 326/6/4 325/6/4 327/6/4
f 321/2/4 322/2/4 328/2/4
f 322/6/4 326/6/4 329/6/4
f 328/2/4 322/2/4 329/2/4
f 329/6/4 326/6/4 330/6/4
f 330/6/4 326/6/4 331/6/4
f 326/1/4 327/1/4 332/1/4
f 331/6/4 326/6/4 332/6/4
f 327/6/4 325/6/4 333/6/4
f 332/1/4 327/1/4 333/1/4
f 330/6/4 331/6/4 334/6/4
f 332/6/4 333/6/4 335/6/4
f 333/6/4 325/6/4 336/6/4
f 335/6/4 333/6/4 336/6/4
f 334/6/4 335/6/4 338/6/4
f 330/6/4 334/6/4 338/6/4
f 338/6/4 335/6/4 339/6/4
f 337/2/4 338/2/4 339/2/4
f 339/6/4 335/6/4 340/6/4
f 337/2/4 339/2/4 341/2/4
f 339/3/4 340/3/4 342/3/4
f 341/2/4 339/2/4 342/2/4
f 340/6/4 335/6/4 343/6/4
f 342/3/4 340/3/4 343/3/4
f 343/6/4 335/6/4 344/6/4
f 345/5/4 346/5/4 347/5/4
f 347/5/4 346/5/4 348/5/4
f 345/5/4 347/5/4 349/5/4
f 347/4/4 348/4/4 349/4/4
f 348/5/4 346/5/4 350/5/4
f 349/4/4 348/4/4 350/4/4
f 345/5/4 349/5/4 351/5/4
f 349/5/4 350/5/4 351/5/4
f 350/5/4 346/5/4 352/5/4
f 351/5/4 350/5/4 352/5/4
f 353/5/4 354/5/4 355/5/4
f 355/5/4 354/5/4 356/5/4
f 353/5/4 355/5/4 357/5/4
f 355/4/4 356/4/4 357/4/4
f 356/5/4 354/5/4 358/5/4
f 357/4/4 356/4/4 358/4/4
f 353/5/4 357/5/4 359/5/4
f 357/5/4 358/5/4 359/5/4
f 358/5/4 354/5/4 360/5/4
f 359/5/4 358/5/4 360/5/4
f 361/6/4 362/6/4 363/6/4
f 363/6/4 362/6/4 364/6/4
f 369/5/5 366/5/5 365/5/5
f 370/5/5 366/5/5 369/5/5
f 371/5/5 368/5/5 367/5/5
f 372/5/5 368/5/5 371/5/5
f 377/5/5 374/5/5 373/5/5
f 378/5/5 374/5/5 377/5/5
f 379/5/5 376/5/5 375/5/5
f 380/5/5 376/5/5 379/5/5
f 387/2/5 382/2/5 381/2/5
f 388/2/5 384/2/5 383/2/5
f 389/2/5 384/2/5 388/2/5
f 390/2/5 386/2/5 385/2/5
f 391/2/5 389/2/5 388/2/5
f 391/2/5 390/2/5 389/2/5
f 391/2/5 387/2/5 381/2/5
f 391/2/5 388/2/5 387/2/5
f 392/2/5 390/2/5 391/2/5
f 393/4/5 392/4/5 391/4/5
f 394/2/5 390/2/5 392/2/5
f 394/4/5 392/4/5 393/4/5
f 395/2/5 394/2/5 393/2/5
f 395/2/5 390/2/5 394/2/5
f 396/2/5 390/2/5 395/2/5
f 397/2/5 390/2/5 396/2/5
f 398/2/5 386/2/5 390/2/5
f 398/2/5 390/2/5 397/2/5
f 399/2/5 395/2/5 393/2/5
f 400/2/5 395/2/5 399/2/5
f 401/2/5 397/2/5 396/2/5
f 402/2/5 397/2/5 401/2/5
f 403/2/5 386/2/5 398/2/5
f 404/2/5 386/2/5 403/2/5
f 407/6/5 406/6/5 405/6/5
f 408/6/5 406/6/5 407/6/5
f 409/6/5 406/6/5 408/6/5
f 410/6/5 406/6/5 409/6/5
f 413/6/5 412/6/5 411/6/5
f 414/6/5 412/6/5 413/6/5
f 417/6/5 416/6/5 415/6/5
f 418/6/5 416/6/5 417/6/5
f 419/5/6 420/5/6 421/5/6
f 421/5/6 420/5/6 422/5/6
f 422/5/6 420/5/6 423/5/6
f 423/5/6 420/5/6 424/5/6
f 425/5/6 426/5/6 429/5/6
f 429/5/6 426/5/6 430/5/6
f 427/5/6 428/5/6 431/5/6
f 431/5/6 428/5/6 432/5/6
f 433/6/6 434/6/6 435/6/6
f 435/6/6 434/6/6 436/6/6
f 437/6/6 438/6/6 439/6/6
f 439/6/6 438/6/6 440/6/6
f 441/6/6 442/6/6 443/6/6
f 443/6/6 442/6/6 444/6/6
f 445/6/6 446/6/6 447/6/6
f 447/6/6 446/6/6 448/6/6
f 449/6/6 450/6/6 451/6/6
f 451/6/6 450/6/6 452/6/6
f 453/5/6 454/5/6 457/5/6
f 457/5/6 454/5/6 458/5/6
f 455/5/6 456/5/6 459/5/6
f 459/5/6 456/5/6 460/5/6
f 461/6/6 462/6/6 463/6/6
f 463/6/6 462/6/6 464/6/6
f 461/6/6 463/6/6 465/6/6
f 461/6/6 465/6/6 467/6/6
f 465/6/6 466/6/6 467/6/6
f 467/6/6 466/6/6 468/6/6
f 461/6/6 467/6/6 469/6/6
f 461/6/6 469/6/6 471/6/6
f 469/6/6 470/6/6 471/6/6
f 471/6/6 470/6/6 472/6/6
f 461/6/6 471/6/6 473/6/6
f 461/6/6 473/6/6 475/6/6
f 473/6/6 474/6/6 475/6/6
f 475/6/6 474/6/6 476/6/6
f 461/6/6 475/6/6 477/6/6
f 461/6/6 477/6/6 479/6/6
f 477/6/6 478/6/6 479/6/6
f 479/6/6 478/6/6 480/6/6
f 461/6/6 479/6/6 481/6/6
f 461/6/6 481/6/6 483/6/6
f 481/6/6 482/6/6 483/6/6
f 483/6/6 482/6/6 484/6/6
f 485/6/6 486/6/6 489/6/6
f 489/6/6 486/6/6 490/6/6
f 487/6/6 488/6/6 492/6/6
f 492/6/6 488/6/6 493/6/6
f 490/6/6 491/6/6 494/6/6
f 487/6/6 492/6/6 495/6/6
f 494/6/6 491/6/6 497/6/6
f 495/6/6 496/6/6 498/6/6
f 487/6/6 495/6/6 498/6/6
f 498/6/6 496/6/6 499/6/6
f 497/6/6 491/6/6 501/6/6
f 501/6/6 491/6/6 502/6/6
f 500/6/6 501/6/6 503/6/6
f 503/6/6 501/6/6 504/6/6
f 505/6/6 506/6/6 507/6/6
f 507/6/6 506/6/6 508/6/6
