# MagicaVoxel @ Ephtracy

# group
o 

# material
mtllib pickup_d.mtl
usemtl palette

# normals
vn -1 0 0
vn 1 0 0
vn 0 0 1
vn 0 0 -1
vn 0 -1 0
vn 0 1 0

# texcoords
vt 0.876953 0.5
vt 0.880859 0.5
vt 0.916016 0.5
vt 0.947266 0.5
vt 0.970703 0.5

# verts
v -1 0.2 0.6
v -1 0.2 0.1
v -1 0.2 -0.2
v -1 0.2 -0.7
v -1 0.4 0.6
v -1 0.4 0.4
v -1 0.4 0.3
v -1 0.4 0.1
v -1 0.4 -0.2
v -1 0.4 -0.4
v -1 0.4 -0.5
v -1 0.4 -0.7
v -1 0.5 0.6
v -1 0.5 0.4
v -1 0.5 0.3
v -1 0.5 -0.4
v -1 0.5 -0.5
v -1 0.5 -0.7
v -1 0.7 0.6
v -1 0.7 -0.7
v -0.8 0 0.7
v -0.8 0 0.5
v -0.8 0 -0.6
v -0.8 0 -0.8
v -0.8 0.2 0.6
v -0.8 0.2 0.5
v -0.8 0.2 -0.6
v -0.8 0.2 -0.7
v -0.8 0.4 0.7
v -0.8 0.4 0.6
v -0.8 0.4 -0.7
v -0.8 0.4 -0.8
v -0.3 0.4 0.4
v -0.3 0.4 0.3
v -0.3 0.4 0.2
v -0.3 0.4 0.1
v -0.3 0.4 0
v -0.3 0.4 -0.1
v -0.3 0.4 -0.2
v -0.3 0.4 -0.3
v -0.3 0.4 -0.4
v -0.3 0.4 -0.5
v -0.3 0.5 0.5
v -0.3 0.5 0.4
v -0.3 0.5 0.3
v -0.3 0.5 0.2
v -0.3 0.5 0.1
v -0.3 0.5 0
v -0.3 0.5 -0.1
v -0.3 0.5 -0.2
v -0.3 0.5 -0.3
v -0.3 0.5 -0.4
v -0.3 0.5 -0.5
v -0.3 0.5 -0.6
v -0.3 0.7 0.6
v -0.3 0.7 0.5
v -0.3 0.7 -0.6
v -0.3 0.7 -0.7
v -0.3 0.9 0.5
v -0.3 0.9 -0.6
v -0.3 1 0.6
v -0.3 1 -0.7
v 0.2 0 0.7
v 0.2 0 0.5
v 0.2 0 -0.6
v 0.2 0 -0.8
v 0.2 0.2 0.6
v 0.2 0.2 0.5
v 0.2 0.2 -0.6
v 0.2 0.2 -0.7
v 0.2 0.3 0.6
v 0.2 0.3 -0.7
v 0.2 0.4 0.7
v 0.2 0.4 0.6
v 0.2 0.4 -0.7
v 0.2 0.4 -0.8
v 0.3 0.5 0.8
v 0.3 0.5 0.6
v 0.3 0.5 -0.7
v 0.3 0.5 -0.9
v 0.3 0.7 0.8
v 0.3 0.7 0.6
v 0.3 0.7 -0.7
v 0.3 0.7 -0.9
v 0.6 0.2 -0.6
v 0.6 0.2 -0.7
v 0.6 0.3 -0.6
v 0.6 0.3 -0.7
v -0.9 0.5 0.5
v -0.9 0.5 -0.6
v -0.9 0.7 0.5
v -0.9 0.7 -0.6
v -0.7 0.4 0.4
v -0.7 0.4 0.3
v -0.7 0.4 0.2
v -0.7 0.4 0.1
v -0.7 0.4 0
v -0.7 0.4 -0.1
v -0.7 0.4 -0.2
v -0.7 0.4 -0.3
v -0.7 0.4 -0.4
v -0.7 0.4 -0.5
v -0.7 0.5 0.4
v -0.7 0.5 0.3
v -0.7 0.5 0.2
v -0.7 0.5 0.1
v -0.7 0.5 0
v -0.7 0.5 -0.1
v -0.7 0.5 -0.2
v -0.7 0.5 -0.3
v -0.7 0.5 -0.4
v -0.7 0.5 -0.5
v -0.4 0 0.7
v -0.4 0 0.5
v -0.4 0 -0.6
v -0.4 0 -0.8
v -0.4 0.2 0.6
v -0.4 0.2 0.5
v -0.4 0.2 -0.6
v -0.4 0.2 -0.7
v -0.4 0.3 0.6
v -0.4 0.3 -0.7
v -0.4 0.4 0.7
v -0.4 0.4 0.6
v -0.4 0.4 -0.7
v -0.4 0.4 -0.8
v 0.2 0.2 -0.6
v 0.2 0.2 -0.7
v 0.2 0.3 -0.6
v 0.2 0.3 -0.7
v 0.4 0.5 0.8
v 0.4 0.5 0.6
v 0.4 0.5 -0.7
v 0.4 0.5 -0.9
v 0.4 0.7 0.8
v 0.4 0.7 0.6
v 0.4 0.7 0.5
v 0.4 0.7 -0.6
v 0.4 0.7 -0.7
v 0.4 0.7 -0.9
v 0.4 0.9 0.5
v 0.4 0.9 -0.6
v 0.4 1 0.6
v 0.4 1 -0.7
v 0.6 0 0.7
v 0.6 0 0.5
v 0.6 0 -0.6
v 0.6 0 -0.8
v 0.6 0.2 0.6
v 0.6 0.2 0.5
v 0.6 0.2 -0.6
v 0.6 0.2 -0.7
v 0.6 0.4 0.7
v 0.6 0.4 0.6
v 0.6 0.4 -0.7
v 0.6 0.4 -0.8
v 1 0.2 0.6
v 1 0.2 -0.7
v 1 0.3 0.3
v 1 0.3 0.2
v 1 0.3 0.1
v 1 0.3 0
v 1 0.3 -0.1
v 1 0.3 -0.2
v 1 0.3 -0.3
v 1 0.3 -0.4
v 1 0.4 0.6
v 1 0.4 0.4
v 1 0.4 -0.5
v 1 0.4 -0.7
v 1 0.5 0.3
v 1 0.5 0.2
v 1 0.5 0.1
v 1 0.5 0
v 1 0.5 -0.1
v 1 0.5 -0.2
v 1 0.5 -0.3
v 1 0.5 -0.4
v 1 0.6 0.6
v 1 0.6 0.4
v 1 0.6 -0.5
v 1 0.6 -0.7
v 1 0.7 0.6
v 1 0.7 -0.7
v 0.3 0.5 0.8
v 0.3 0.7 0.8
v 0.4 0.5 0.8
v 0.4 0.7 0.8
v -0.8 0 0.7
v -0.8 0.4 0.7
v -0.7 0.1 0.7
v -0.7 0.3 0.7
v -0.5 0.1 0.7
v -0.5 0.3 0.7
v -0.4 0 0.7
v -0.4 0.4 0.7
v 0.2 0 0.7
v 0.2 0.4 0.7
v 0.3 0.1 0.7
v 0.3 0.3 0.7
v 0.5 0.1 0.7
v 0.5 0.3 0.7
v 0.6 0 0.7
v 0.6 0.4 0.7
v -1 0.2 0.6
v -1 0.4 0.6
v -1 0.5 0.6
v -1 0.7 0.6
v -0.9 0.4 0.6
v -0.9 0.5 0.6
v -0.8 0.2 0.6
v -0.8 0.4 0.6
v -0.4 0.2 0.6
v -0.4 0.3 0.6
v -0.4 0.4 0.6
v -0.3 0.7 0.6
v -0.3 1 0.6
v -0.2 0.7 0.6
v -0.2 0.9 0.6
v 0.2 0.2 0.6
v 0.2 0.3 0.6
v 0.2 0.4 0.6
v 0.3 0.5 0.6
v 0.3 0.7 0.6
v 0.3 0.9 0.6
v 0.4 0.5 0.6
v 0.4 0.7 0.6
v 0.4 1 0.6
v 0.6 0.2 0.6
v 0.6 0.4 0.6
v 0.9 0.4 0.6
v 0.9 0.6 0.6
v 1 0.2 0.6
v 1 0.4 0.6
v 1 0.6 0.6
v 1 0.7 0.6
v -0.7 0.4 0.3
v -0.7 0.5 0.3
v -0.3 0.4 0.3
v -0.3 0.5 0.3
v -0.7 0.4 0.1
v -0.7 0.5 0.1
v -0.3 0.4 0.1
v -0.3 0.5 0.1
v -0.7 0.4 -0.1
v -0.7 0.5 -0.1
v -0.3 0.4 -0.1
v -0.3 0.5 -0.1
v -0.7 0.4 -0.3
v -0.7 0.5 -0.3
v -0.3 0.4 -0.3
v -0.3 0.5 -0.3
v -0.7 0.4 -0.5
v -0.7 0.5 -0.5
v -0.3 0.4 -0.5
v -0.3 0.5 -0.5
v -0.9 0.5 -0.6
v -0.9 0.7 -0.6
v -0.8 0 -0.6
v -0.8 0.2 -0.6
v -0.4 0 -0.6
v -0.4 0.2 -0.6
v -0.3 0.5 -0.6
v -0.3 0.7 -0.6
v 0.2 0 -0.6
v 0.2 0.2 -0.6
v 0.6 0 -0.6
v 0.6 0.2 -0.6
v 0.2 0.2 -0.7
v 0.2 0.3 -0.7
v 0.3 0.2 -0.7
v 0.3 0.3 -0.7
v 0.5 0.2 -0.7
v 0.5 0.3 -0.7
v 0.6 0.2 -0.7
v 0.6 0.3 -0.7
v -0.9 0.5 0.5
v -0.9 0.7 0.5
v -0.8 0 0.5
v -0.8 0.2 0.5
v -0.4 0 0.5
v -0.4 0.2 0.5
v -0.3 0.5 0.5
v -0.3 0.7 0.5
v 0.2 0 0.5
v 0.2 0.2 0.5
v 0.6 0 0.5
v 0.6 0.2 0.5
v -0.7 0.4 0.4
v -0.7 0.5 0.4
v -0.3 0.4 0.4
v -0.3 0.5 0.4
v -0.7 0.4 0.2
v -0.7 0.5 0.2
v -0.3 0.4 0.2
v -0.3 0.5 0.2
v -0.7 0.4 0
v -0.7 0.5 0
v -0.3 0.4 0
v -0.3 0.5 0
v -0.7 0.4 -0.2
v -0.7 0.5 -0.2
v -0.3 0.4 -0.2
v -0.3 0.5 -0.2
v -0.7 0.4 -0.4
v -0.7 0.5 -0.4
v -0.3 0.4 -0.4
v -0.3 0.5 -0.4
v 0.2 0.2 -0.6
v 0.2 0.3 -0.6
v 0.6 0.2 -0.6
v 0.6 0.3 -0.6
v -1 0.2 -0.7
v -1 0.4 -0.7
v -1 0.5 -0.7
v -1 0.7 -0.7
v -0.9 0.4 -0.7
v -0.9 0.5 -0.7
v -0.8 0.2 -0.7
v -0.8 0.4 -0.7
v -0.4 0.2 -0.7
v -0.4 0.3 -0.7
v -0.4 0.4 -0.7
v -0.3 0.7 -0.7
v -0.3 1 -0.7
v -0.2 0.7 -0.7
v -0.2 0.9 -0.7
v 0.2 0.2 -0.7
v 0.2 0.3 -0.7
v 0.2 0.4 -0.7
v 0.3 0.5 -0.7
v 0.3 0.7 -0.7
v 0.3 0.9 -0.7
v 0.4 0.5 -0.7
v 0.4 0.7 -0.7
v 0.4 1 -0.7
v 0.6 0.2 -0.7
v 0.6 0.4 -0.7
v 0.9 0.4 -0.7
v 0.9 0.6 -0.7
v 1 0.2 -0.7
v 1 0.4 -0.7
v 1 0.6 -0.7
v 1 0.7 -0.7
v -0.8 0 -0.8
v -0.8 0.4 -0.8
v -0.7 0.1 -0.8
v -0.7 0.3 -0.8
v -0.5 0.1 -0.8
v -0.5 0.3 -0.8
v -0.4 0 -0.8
v -0.4 0.4 -0.8
v 0.2 0 -0.8
v 0.2 0.4 -0.8
v 0.3 0.1 -0.8
v 0.3 0.3 -0.8
v 0.5 0.1 -0.8
v 0.5 0.3 -0.8
v 0.6 0 -0.8
v 0.6 0.4 -0.8
v 0.3 0.5 -0.9
v 0.3 0.7 -0.9
v 0.4 0.5 -0.9
v 0.4 0.7 -0.9
v -0.8 0 0.7
v -0.4 0 0.7
v 0.2 0 0.7
v 0.6 0 0.7
v -0.8 0 0.5
v -0.4 0 0.5
v 0.2 0 0.5
v 0.6 0 0.5
v -0.8 0 -0.6
v -0.4 0 -0.6
v 0.2 0 -0.6
v 0.6 0 -0.6
v -0.8 0 -0.8
v -0.4 0 -0.8
v 0.2 0 -0.8
v 0.6 0 -0.8
v -1 0.2 0.6
v -0.8 0.2 0.6
v -0.4 0.2 0.6
v 0.2 0.2 0.6
v 0.6 0.2 0.6
v 1 0.2 0.6
v -0.8 0.2 0.5
v -0.4 0.2 0.5
v 0.2 0.2 0.5
v 0.6 0.2 0.5
v -1 0.2 0.1
v -0.9 0.2 0.1
v -1 0.2 -0.2
v -0.9 0.2 -0.2
v -0.8 0.2 -0.6
v -0.4 0.2 -0.6
v 0.2 0.2 -0.6
v 0.6 0.2 -0.6
v -1 0.2 -0.7
v -0.8 0.2 -0.7
v -0.4 0.2 -0.7
v 0.2 0.2 -0.7
v 0.6 0.2 -0.7
v 1 0.2 -0.7
v 0.2 0.3 -0.6
v 0.6 0.3 -0.6
v 0.2 0.3 -0.7
v 0.3 0.3 -0.7
v 0.5 0.3 -0.7
v 0.6 0.3 -0.7
v 0.3 0.5 0.8
v 0.4 0.5 0.8
v 0.3 0.5 0.6
v 0.4 0.5 0.6
v 0.3 0.5 -0.7
v 0.4 0.5 -0.7
v 0.3 0.5 -0.9
v 0.4 0.5 -0.9
v 0.2 0.2 -0.6
v 0.6 0.2 -0.6
v 0.2 0.2 -0.7
v 0.3 0.2 -0.7
v 0.5 0.2 -0.7
v 0.6 0.2 -0.7
v -0.8 0.4 0.7
v -0.4 0.4 0.7
v 0.2 0.4 0.7
v 0.6 0.4 0.7
v -0.8 0.4 0.6
v -0.4 0.4 0.6
v 0.2 0.4 0.6
v 0.6 0.4 0.6
v -0.7 0.4 0.4
v -0.3 0.4 0.4
v -0.7 0.4 0.3
v -0.3 0.4 0.3
v -0.7 0.4 0.2
v -0.3 0.4 0.2
v -0.7 0.4 0.1
v -0.3 0.4 0.1
v -0.7 0.4 0
v -0.3 0.4 0
v -0.7 0.4 -0.1
v -0.3 0.4 -0.1
v -0.7 0.4 -0.2
v -0.3 0.4 -0.2
v -0.7 0.4 -0.3
v -0.3 0.4 -0.3
v -0.7 0.4 -0.4
v -0.3 0.4 -0.4
v -0.7 0.4 -0.5
v -0.3 0.4 -0.5
v -0.8 0.4 -0.7
v -0.4 0.4 -0.7
v 0.2 0.4 -0.7
v 0.6 0.4 -0.7
v -0.8 0.4 -0.8
v -0.4 0.4 -0.8
v 0.2 0.4 -0.8
v 0.6 0.4 -0.8
v -0.9 0.5 0.5
v -0.3 0.5 0.5
v -0.7 0.5 0.4
v -0.3 0.5 0.4
v -0.7 0.5 0.3
v -0.3 0.5 0.3
v -0.7 0.5 0.2
v -0.3 0.5 0.2
v -0.7 0.5 0.1
v -0.3 0.5 0.1
v -0.7 0.5 0
v -0.3 0.5 0
v -0.7 0.5 -0.1
v -0.3 0.5 -0.1
v -0.7 0.5 -0.2
v -0.3 0.5 -0.2
v -0.7 0.5 -0.3
v -0.3 0.5 -0.3
v -0.7 0.5 -0.4
v -0.3 0.5 -0.4
v -0.7 0.5 -0.5
v -0.3 0.5 -0.5
v -0.9 0.5 -0.6
v -0.3 0.5 -0.6
v 0.3 0.7 0.8
v 0.4 0.7 0.8
v -1 0.7 0.6
v -0.3 0.7 0.6
v 0.3 0.7 0.6
v 0.4 0.7 0.6
v 1 0.7 0.6
v -0.9 0.7 0.5
v -0.3 0.7 0.5
v 0.4 0.7 0.5
v -0.9 0.7 -0.6
v -0.3 0.7 -0.6
v 0.4 0.7 -0.6
v -1 0.7 -0.7
v -0.3 0.7 -0.7
v 0.3 0.7 -0.7
v 0.4 0.7 -0.7
v 1 0.7 -0.7
v 0.3 0.7 -0.9
v 0.4 0.7 -0.9
v -0.3 1 0.6
v 0.4 1 0.6
v -0.3 1 -0.7
v 0.4 1 -0.7

# faces
f 5/2/1 2/2/1 1/2/1
f 6/2/1 2/2/1 5/2/1
f 7/2/1 2/2/1 6/2/1
f 8/4/1 3/4/1 2/4/1
f 8/2/1 2/2/1 7/2/1
f 9/2/1 4/2/1 3/2/1
f 9/4/1 3/4/1 8/4/1
f 10/2/1 4/2/1 9/2/1
f 11/2/1 4/2/1 10/2/1
f 12/2/1 4/2/1 11/2/1
f 13/3/1 6/3/1 5/3/1
f 14/4/1 7/4/1 6/4/1
f 14/3/1 6/3/1 13/3/1
f 15/5/1 8/5/1 7/5/1
f 15/4/1 7/4/1 14/4/1
f 15/5/1 9/5/1 8/5/1
f 15/5/1 10/5/1 9/5/1
f 16/4/1 11/4/1 10/4/1
f 16/5/1 10/5/1 15/5/1
f 17/3/1 12/3/1 11/3/1
f 17/4/1 11/4/1 16/4/1
f 18/3/1 12/3/1 17/3/1
f 19/4/1 14/4/1 13/4/1
f 19/4/1 16/4/1 15/4/1
f 19/4/1 18/4/1 17/4/1
f 19/4/1 17/4/1 16/4/1
f 19/4/1 15/4/1 14/4/1
f 20/4/1 18/4/1 19/4/1
f 25/5/1 22/5/1 21/5/1
f 26/5/1 22/5/1 25/5/1
f 27/5/1 24/5/1 23/5/1
f 28/5/1 24/5/1 27/5/1
f 29/5/1 25/5/1 21/5/1
f 30/5/1 25/5/1 29/5/1
f 31/5/1 24/5/1 28/5/1
f 32/5/1 24/5/1 31/5/1
f 44/4/1 34/4/1 33/4/1
f 45/4/1 34/4/1 44/4/1
f 46/4/1 36/4/1 35/4/1
f 47/4/1 36/4/1 46/4/1
f 48/4/1 38/4/1 37/4/1
f 49/4/1 38/4/1 48/4/1
f 50/4/1 40/4/1 39/4/1
f 51/4/1 40/4/1 50/4/1
f 52/4/1 42/4/1 41/4/1
f 53/4/1 42/4/1 52/4/1
f 56/4/1 51/4/1 50/4/1
f 56/4/1 54/4/1 53/4/1
f 56/4/1 53/4/1 52/4/1
f 56/4/1 52/4/1 51/4/1
f 56/4/1 45/4/1 44/4/1
f 56/4/1 50/4/1 49/4/1
f 56/4/1 47/4/1 46/4/1
f 56/4/1 48/4/1 47/4/1
f 56/4/1 49/4/1 48/4/1
f 56/4/1 46/4/1 45/4/1
f 56/4/1 44/4/1 43/4/1
f 57/4/1 54/4/1 56/4/1
f 59/4/1 56/4/1 55/4/1
f 59/1/1 57/1/1 56/1/1
f 60/4/1 58/4/1 57/4/1
f 60/1/1 57/1/1 59/1/1
f 61/4/1 59/4/1 55/4/1
f 61/4/1 60/4/1 59/4/1
f 62/4/1 58/4/1 60/4/1
f 62/4/1 60/4/1 61/4/1
f 67/5/1 64/5/1 63/5/1
f 68/5/1 64/5/1 67/5/1
f 69/5/1 66/5/1 65/5/1
f 70/5/1 66/5/1 69/5/1
f 71/5/1 67/5/1 63/5/1
f 72/5/1 66/5/1 70/5/1
f 73/5/1 71/5/1 63/5/1
f 74/5/1 71/5/1 73/5/1
f 75/5/1 66/5/1 72/5/1
f 76/5/1 66/5/1 75/5/1
f 81/4/1 78/4/1 77/4/1
f 82/4/1 78/4/1 81/4/1
f 83/4/1 80/4/1 79/4/1
f 84/4/1 80/4/1 83/4/1
f 87/2/1 86/2/1 85/2/1
f 88/2/1 86/2/1 87/2/1
f 89/4/2 90/4/2 91/4/2
f 91/4/2 90/4/2 92/4/2
f 93/4/2 94/4/2 103/4/2
f 103/4/2 94/4/2 104/4/2
f 95/4/2 96/4/2 105/4/2
f 105/4/2 96/4/2 106/4/2
f 97/4/2 98/4/2 107/4/2
f 107/4/2 98/4/2 108/4/2
f 99/4/2 100/4/2 109/4/2
f 109/4/2 100/4/2 110/4/2
f 101/4/2 102/4/2 111/4/2
f 111/4/2 102/4/2 112/4/2
f 113/5/2 114/5/2 117/5/2
f 117/5/2 114/5/2 118/5/2
f 115/5/2 116/5/2 119/5/2
f 119/5/2 116/5/2 120/5/2
f 113/5/2 117/5/2 121/5/2
f 120/5/2 116/5/2 122/5/2
f 113/5/2 121/5/2 123/5/2
f 123/5/2 121/5/2 124/5/2
f 122/5/2 116/5/2 125/5/2
f 125/5/2 116/5/2 126/5/2
f 127/2/2 128/2/2 129/2/2
f 129/2/2 128/2/2 130/2/2
f 131/4/2 132/4/2 135/4/2
f 135/4/2 132/4/2 136/4/2
f 133/4/2 134/4/2 139/4/2
f 139/4/2 134/4/2 140/4/2
f 137/1/2 138/1/2 141/1/2
f 136/4/2 137/4/2 141/4/2
f 138/4/2 139/4/2 142/4/2
f 141/1/2 138/1/2 142/1/2
f 136/4/2 141/4/2 143/4/2
f 141/4/2 142/4/2 143/4/2
f 142/4/2 139/4/2 144/4/2
f 143/4/2 142/4/2 144/4/2
f 145/5/2 146/5/2 149/5/2
f 149/5/2 146/5/2 150/5/2
f 147/5/2 148/5/2 151/5/2
f 151/5/2 148/5/2 152/5/2
f 145/5/2 149/5/2 153/5/2
f 153/5/2 149/5/2 154/5/2
f 152/5/2 148/5/2 155/5/2
f 155/5/2 148/5/2 156/5/2
f 157/2/2 158/2/2 159/2/2
f 159/2/2 158/2/2 160/2/2
f 160/2/2 158/2/2 161/2/2
f 161/2/2 158/2/2 162/2/2
f 162/2/2 158/2/2 163/2/2
f 163/2/2 158/2/2 164/2/2
f 164/2/2 158/2/2 165/2/2
f 165/2/2 158/2/2 166/2/2
f 157/2/2 159/2/2 167/2/2
f 167/2/2 159/2/2 168/2/2
f 166/2/2 158/2/2 169/2/2
f 169/2/2 158/2/2 170/2/2
f 168/2/2 159/2/2 171/2/2
f 159/5/2 160/5/2 171/5/2
f 160/2/2 161/2/2 172/2/2
f 171/5/2 160/5/2 172/5/2
f 161/5/2 162/5/2 173/5/2
f 172/2/2 161/2/2 173/2/2
f 162/2/2 163/2/2 174/2/2
f 173/5/2 162/5/2 174/5/2
f 163/5/2 164/5/2 175/5/2
f 174/2/2 163/2/2 175/2/2
f 164/2/2 165/2/2 176/2/2
f 175/5/2 164/5/2 176/5/2
f 165/5/2 166/5/2 177/5/2
f 176/2/2 165/2/2 177/2/2
f 166/2/2 169/2/2 178/2/2
f 177/5/2 166/5/2 178/5/2
f 167/3/2 168/3/2 179/3/2
f 168/2/2 171/2/2 180/2/2
f 179/3/2 168/3/2 180/3/2
f 171/2/2 172/2/2 180/2/2
f 177/2/2 178/2/2 180/2/2
f 176/2/2 177/2/2 180/2/2
f 172/2/2 173/2/2 180/2/2
f 173/2/2 174/2/2 180/2/2
f 175/2/2 176/2/2 180/2/2
f 174/2/2 175/2/2 180/2/2
f 169/3/2 170/3/2 181/3/2
f 180/2/2 178/2/2 181/2/2
f 178/2/2 169/2/2 181/2/2
f 181/3/2 170/3/2 182/3/2
f 179/4/2 180/4/2 183/4/2
f 180/4/2 181/4/2 183/4/2
f 181/4/2 182/4/2 183/4/2
f 183/4/2 182/4/2 184/4/2
f 187/4/3 186/4/3 185/4/3
f 188/4/3 186/4/3 187/4/3
f 191/5/3 190/5/3 189/5/3
f 192/5/3 190/5/3 191/5/3
f 193/5/3 191/5/3 189/5/3
f 193/4/3 192/4/3 191/4/3
f 194/5/3 190/5/3 192/5/3
f 194/4/3 192/4/3 193/4/3
f 195/5/3 193/5/3 189/5/3
f 195/5/3 194/5/3 193/5/3
f 196/5/3 190/5/3 194/5/3
f 196/5/3 194/5/3 195/5/3
f 199/5/3 198/5/3 197/5/3
f 200/5/3 198/5/3 199/5/3
f 201/5/3 199/5/3 197/5/3
f 201/4/3 200/4/3 199/4/3
f 202/5/3 198/5/3 200/5/3
f 202/4/3 200/4/3 201/4/3
f 203/5/3 201/5/3 197/5/3
f 203/5/3 202/5/3 201/5/3
f 204/5/3 198/5/3 202/5/3
f 204/5/3 202/5/3 203/5/3
f 209/2/3 206/2/3 205/2/3
f 209/3/3 207/3/3 206/3/3
f 210/4/3 208/4/3 207/4/3
f 210/3/3 207/3/3 209/3/3
f 211/2/3 209/2/3 205/2/3
f 212/4/3 210/4/3 209/4/3
f 212/2/3 209/2/3 211/2/3
f 215/4/3 210/4/3 212/4/3
f 216/4/3 208/4/3 210/4/3
f 216/4/3 215/4/3 214/4/3
f 216/4/3 210/4/3 215/4/3
f 218/4/3 216/4/3 214/4/3
f 218/4/3 217/4/3 216/4/3
f 219/4/3 217/4/3 218/4/3
f 220/2/3 214/2/3 213/2/3
f 221/4/3 218/4/3 214/4/3
f 221/2/3 214/2/3 220/2/3
f 222/4/3 218/4/3 221/4/3
f 223/4/3 218/4/3 222/4/3
f 224/1/3 219/1/3 218/1/3
f 224/4/3 218/4/3 223/4/3
f 225/4/3 217/4/3 219/4/3
f 225/1/3 219/1/3 224/1/3
f 226/4/3 223/4/3 222/4/3
f 227/4/3 225/4/3 224/4/3
f 228/4/3 217/4/3 225/4/3
f 228/4/3 225/4/3 227/4/3
f 230/4/3 227/4/3 226/4/3
f 230/4/3 226/4/3 222/4/3
f 231/4/3 227/4/3 230/4/3
f 231/2/3 230/2/3 229/2/3
f 232/4/3 227/4/3 231/4/3
f 233/2/3 231/2/3 229/2/3
f 234/3/3 232/3/3 231/3/3
f 234/2/3 231/2/3 233/2/3
f 235/4/3 227/4/3 232/4/3
f 235/3/3 232/3/3 234/3/3
f 236/4/3 227/4/3 235/4/3
f 239/4/3 238/4/3 237/4/3
f 240/4/3 238/4/3 239/4/3
f 243/4/3 242/4/3 241/4/3
f 244/4/3 242/4/3 243/4/3
f 247/4/3 246/4/3 245/4/3
f 248/4/3 246/4/3 247/4/3
f 251/4/3 250/4/3 249/4/3
f 252/4/3 250/4/3 251/4/3
f 255/4/3 254/4/3 253/4/3
f 256/4/3 254/4/3 255/4/3
f 261/5/3 260/5/3 259/5/3
f 262/5/3 260/5/3 261/5/3
f 263/4/3 258/4/3 257/4/3
f 264/4/3 258/4/3 263/4/3
f 267/5/3 266/5/3 265/5/3
f 268/5/3 266/5/3 267/5/3
f 271/5/3 270/5/3 269/5/3
f 272/5/3 270/5/3 271/5/3
f 273/4/3 272/4/3 271/4/3
f 274/4/3 272/4/3 273/4/3
f 275/5/3 274/5/3 273/5/3
f 276/5/3 274/5/3 275/5/3
f 279/5/4 280/5/4 281/5/4
f 281/5/4 280/5/4 282/5/4
f 277/4/4 278/4/4 283/4/4
f 283/4/4 278/4/4 284/4/4
f 285/5/4 286/5/4 287/5/4
f 287/5/4 286/5/4 288/5/4
f 289/4/4 290/4/4 291/4/4
f 291/4/4 290/4/4 292/4/4
f 293/4/4 294/4/4 295/4/4
f 295/4/4 294/4/4 296/4/4
f 297/4/4 298/4/4 299/4/4
f 299/4/4 298/4/4 300/4/4
f 301/4/4 302/4/4 303/4/4
f 303/4/4 302/4/4 304/4/4
f 305/4/4 306/4/4 307/4/4
f 307/4/4 306/4/4 308/4/4
f 309/2/4 310/2/4 311/2/4
f 311/2/4 310/2/4 312/2/4
f 313/2/4 314/2/4 317/2/4
f 314/3/4 315/3/4 317/3/4
f 315/4/4 316/4/4 318/4/4
f 317/3/4 315/3/4 318/3/4
f 313/2/4 317/2/4 319/2/4
f 317/4/4 318/4/4 320/4/4
f 319/2/4 317/2/4 320/2/4
f 320/4/4 318/4/4 323/4/4
f 318/4/4 316/4/4 324/4/4
f 322/4/4 323/4/4 324/4/4
f 323/4/4 318/4/4 324/4/4
f 322/4/4 324/4/4 326/4/4
f 324/4/4 325/4/4 326/4/4
f 326/4/4 325/4/4 327/4/4
f 321/2/4 322/2/4 328/2/4
f 322/4/4 326/4/4 329/4/4
f 328/2/4 322/2/4 329/2/4
f 329/4/4 326/4/4 330/4/4
f 330/4/4 326/4/4 331/4/4
f 326/1/4 327/1/4 332/1/4
f 331/4/4 326/4/4 332/4/4
f 327/4/4 325/4/4 333/4/4
f 332/1/4 327/1/4 333/1/4
f 330/4/4 331/4/4 334/4/4
f 332/4/4 333/4/4 335/4/4
f 333/4/4 325/4/4 336/4/4
f 335/4/4 333/4/4 336/4/4
f 334/4/4 335/4/4 338/4/4
f 330/4/4 334/4/4 338/4/4
f 338/4/4 335/4/4 339/4/4
f 337/2/4 338/2/4 339/2/4
f 339/4/4 335/4/4 340/4/4
f 337/2/4 339/2/4 341/2/4
f 339/3/4 340/3/4 342/3/4
f 341/2/4 339/2/4 342/2/4
f 340/4/4 335/4/4 343/4/4
f 342/3/4 340/3/4 343/3/4
f 343/4/4 335/4/4 344/4/4
f 345/5/4 346/5/4 347/5/4
f 347/5/4 346/5/4 348/5/4
f 345/5/4 347/5/4 349/5/4
f 347/4/4 348/4/4 349/4/4
f 348/5/4 346/5/4 350/5/4
f 349/4/4 348/4/4 350/4/4
f 345/5/4 349/5/4 351/5/4
f 349/5/4 350/5/4 351/5/4
f 350/5/4 346/5/4 352/5/4
f 351/5/4 350/5/4 352/5/4
f 353/5/4 354/5/4 355/5/4
f 355/5/4 354/5/4 356/5/4
f 353/5/4 355/5/4 357/5/4
f 355/4/4 356/4/4 357/4/4
f 356/5/4 354/5/4 358/5/4
f 357/4/4 356/4/4 358/4/4
f 353/5/4 357/5/4 359/5/4
f 357/5/4 358/5/4 359/5/4
f 358/5/4 354/5/4 360/5/4
f 359/5/4 358/5/4 360/5/4
f 361/4/4 362/4/4 363/4/4
f 363/4/4 362/4/4 364/4/4
f 369/5/5 366/5/5 365/5/5
f 370/5/5 366/5/5 369/5/5
f 371/5/5 368/5/5 367/5/5
f 372/5/5 368/5/5 371/5/5
f 377/5/5 374/5/5 373/5/5
f 378/5/5 374/5/5 377/5/5
f 379/5/5 376/5/5 375/5/5
f 380/5/5 376/5/5 379/5/5
f 387/2/5 382/2/5 381/2/5
f 388/2/5 384/2/5 383/2/5
f 389/2/5 384/2/5 388/2/5
f 390/2/5 386/2/5 385/2/5
f 391/2/5 389/2/5 388/2/5
f 391/2/5 390/2/5 389/2/5
f 391/2/5 387/2/5 381/2/5
f 391/2/5 388/2/5 387/2/5
f 392/2/5 390/2/5 391/2/5
f 393/4/5 392/4/5 391/4/5
f 394/2/5 390/2/5 392/2/5
f 394/4/5 392/4/5 393/4/5
f 395/2/5 394/2/5 393/2/5
f 395/2/5 390/2/5 394/2/5
f 396/2/5 390/2/5 395/2/5
f 397/2/5 390/2/5 396/2/5
f 398/2/5 386/2/5 390/2/5
f 398/2/5 390/2/5 397/2/5
f 399/2/5 395/2/5 393/2/5
f 400/2/5 395/2/5 399/2/5
f 401/2/5 397/2/5 396/2/5
f 402/2/5 397/2/5 401/2/5
f 403/2/5 386/2/5 398/2/5
f 404/2/5 386/2/5 403/2/5
f 407/4/5 406/4/5 405/4/5
f 408/4/5 406/4/5 407/4/5
f 409/4/5 406/4/5 408/4/5
f 410/4/5 406/4/5 409/4/5
f 413/4/5 412/4/5 411/4/5
f 414/4/5 412/4/5 413/4/5
f 417/4/5 416/4/5 415/4/5
f 418/4/5 416/4/5 417/4/5
f 419/5/6 420/5/6 421/5/6
f 421/5/6 420/5/6 422/5/6
f 422/5/6 420/5/6 423/5/6
f 423/5/6 420/5/6 424/5/6
f 425/5/6 426/5/6 429/5/6
f 429/5/6 426/5/6 430/5/6
f 427/5/6 428/5/6 431/5/6
f 431/5/6 428/5/6 432/5/6
f 433/4/6 434/4/6 435/4/6
f 435/4/6 434/4/6 436/4/6
f 437/4/6 438/4/6 439/4/6
f 439/4/6 438/4/6 440/4/6
f 441/4/6 442/4/6 443/4/6
f 443/4/6 442/4/6 444/4/6
f 445/4/6 446/4/6 447/4/6
f 447/4/6 446/4/6 448/4/6
f 449/4/6 450/4/6 451/4/6
f 451/4/6 450/4/6 452/4/6
f 453/5/6 454/5/6 457/5/6
f 457/5/6 454/5/6 458/5/6
f 455/5/6 456/5/6 459/5/6
f 459/5/6 456/5/6 460/5/6
f 461/4/6 462/4/6 463/4/6
f 463/4/6 462/4/6 464/4/6
f 461/4/6 463/4/6 465/4/6
f 461/4/6 465/4/6 467/4/6
f 465/4/6 466/4/6 467/4/6
f 467/4/6 466/4/6 468/4/6
f 461/4/6 467/4/6 469/4/6
f 461/4/6 469/4/6 471/4/6
f 469/4/6 470/4/6 471/4/6
f 471/4/6 470/4/6 472/4/6
f 461/4/6 471/4/6 473/4/6
f 461/4/6 473/4/6 475/4/6
f 473/4/6 474/4/6 475/4/6
f 475/4/6 474/4/6 476/4/6
f 461/4/6 475/4/6 477/4/6
f 461/4/6 477/4/6 479/4/6
f 477/4/6 478/4/6 479/4/6
f 479/4/6 478/4/6 480/4/6
f 461/4/6 479/4/6 481/4/6
f 461/4/6 481/4/6 483/4/6
f 481/4/6 482/4/6 483/4/6
f 483/4/6 482/4/6 484/4/6
f 485/4/6 486/4/6 489/4/6
f 489/4/6 486/4/6 490/4/6
f 487/4/6 488/4/6 492/4/6
f 492/4/6 488/4/6 493/4/6
f 490/4/6 491/4/6 494/4/6
f 487/4/6 492/4/6 495/4/6
f 494/4/6 491/4/6 497/4/6
f 495/4/6 496/4/6 498/4/6
f 487/4/6 495/4/6 498/4/6
f 498/4/6 496/4/6 499/4/6
f 497/4/6 491/4/6 501/4/6
f 501/4/6 491/4/6 502/4/6
f 500/4/6 501/4/6 503/4/6
f 503/4/6 501/4/6 504/4/6
f 505/4/6 506/4/6 507/4/6
f 507/4/6 506/4/6 508/4/6
