# MagicaVoxel @ Ephtracy

# group
o 

# material
mtllib sidewalk_tree_a.mtl
usemtl palette

# normals
vn -1 0 0
vn 1 0 0
vn 0 0 1
vn 0 0 -1
vn 0 -1 0
vn 0 1 0

# texcoords
vt 0.939453 0.5
vt 0.947266 0.5
vt 0.982422 0.5

# verts
v -0.4 0.8 0.1
v -0.4 0.8 -0.2
v -0.4 1.5 0.1
v -0.4 1.5 -0.2
v -0.3 0.5 0
v -0.3 0.5 -0.1
v -0.3 0.8 0
v -0.3 0.8 -0.1
v -0.2 0.8 0.2
v -0.2 0.8 0.1
v -0.2 0.8 -0.2
v -0.2 0.8 -0.3
v -0.2 1.5 0.1
v -0.2 1.5 -0.2
v -0.2 1.6 0.2
v -0.2 1.6 -0.3
v -0.1 0 0.1
v -0.1 0 -0.2
v -0.1 0.1 0.1
v -0.1 0.1 -0.2
v 0 0.1 0
v 0 0.1 -0.1
v 0 0.5 0
v 0 0.5 -0.1
v 0 0.6 0
v 0 0.6 -0.1
v 0 0.8 0
v 0 0.8 -0.1
v 0.3 0.7 0
v 0.3 0.7 -0.1
v 0.3 0.8 0
v 0.3 0.8 -0.1
v -0.2 0.6 0
v -0.2 0.6 -0.1
v -0.2 0.8 0
v -0.2 0.8 -0.1
v 0.1 0.1 0
v 0.1 0.1 -0.1
v 0.1 0.6 0
v 0.1 0.6 -0.1
v 0.1 0.7 0
v 0.1 0.7 -0.1
v 0.1 0.8 0
v 0.1 0.8 -0.1
v 0.2 0 0.1
v 0.2 0 -0.2
v 0.2 0.1 0.1
v 0.2 0.1 -0.2
v 0.3 0.8 0.2
v 0.3 0.8 0.1
v 0.3 0.8 -0.2
v 0.3 0.8 -0.3
v 0.3 1.2 0.1
v 0.3 1.2 -0.2
v 0.3 1.6 0.2
v 0.3 1.6 -0.3
v 0.4 0.6 0
v 0.4 0.6 -0.1
v 0.4 0.8 0
v 0.4 0.8 -0.1
v 0.5 0.8 0.1
v 0.5 0.8 -0.2
v 0.5 1.2 0.1
v 0.5 1.2 -0.2
v -0.2 0.8 0.2
v -0.2 1.6 0.2
v 0.3 0.8 0.2
v 0.3 1.6 0.2
v -0.4 0.8 0.1
v -0.4 1.5 0.1
v -0.2 0.8 0.1
v -0.2 1.5 0.1
v -0.1 0 0.1
v -0.1 0.1 0.1
v 0.2 0 0.1
v 0.2 0.1 0.1
v 0.3 0.8 0.1
v 0.3 1.2 0.1
v 0.5 0.8 0.1
v 0.5 1.2 0.1
v -0.3 0.5 0
v -0.3 0.8 0
v -0.2 0.6 0
v -0.2 0.8 0
v 0 0.1 0
v 0 0.5 0
v 0 0.6 0
v 0 0.8 0
v 0.1 0.1 0
v 0.1 0.6 0
v 0.1 0.7 0
v 0.1 0.8 0
v 0.3 0.7 0
v 0.3 0.8 0
v 0.4 0.6 0
v 0.4 0.8 0
v -0.3 0.5 -0.1
v -0.3 0.8 -0.1
v -0.2 0.6 -0.1
v -0.2 0.8 -0.1
v 0 0.1 -0.1
v 0 0.5 -0.1
v 0 0.6 -0.1
v 0 0.8 -0.1
v 0.1 0.1 -0.1
v 0.1 0.6 -0.1
v 0.1 0.7 -0.1
v 0.1 0.8 -0.1
v 0.3 0.7 -0.1
v 0.3 0.8 -0.1
v 0.4 0.6 -0.1
v 0.4 0.8 -0.1
v -0.4 0.8 -0.2
v -0.4 1.5 -0.2
v -0.2 0.8 -0.2
v -0.2 1.5 -0.2
v -0.1 0 -0.2
v -0.1 0.1 -0.2
v 0.2 0 -0.2
v 0.2 0.1 -0.2
v 0.3 0.8 -0.2
v 0.3 1.2 -0.2
v 0.5 0.8 -0.2
v 0.5 1.2 -0.2
v -0.2 0.8 -0.3
v -0.2 1.6 -0.3
v 0.3 0.8 -0.3
v 0.3 1.6 -0.3
v -0.1 0 0.1
v 0.2 0 0.1
v -0.1 0 -0.2
v 0.2 0 -0.2
v -0.3 0.5 0
v 0 0.5 0
v -0.3 0.5 -0.1
v 0 0.5 -0.1
v 0.1 0.6 0
v 0.4 0.6 0
v 0.1 0.6 -0.1
v 0.4 0.6 -0.1
v -0.2 0.8 0.2
v 0.3 0.8 0.2
v -0.4 0.8 0.1
v -0.2 0.8 0.1
v 0.3 0.8 0.1
v 0.5 0.8 0.1
v -0.3 0.8 0
v -0.2 0.8 0
v 0 0.8 0
v 0.1 0.8 0
v 0.3 0.8 0
v 0.4 0.8 0
v -0.3 0.8 -0.1
v -0.2 0.8 -0.1
v 0 0.8 -0.1
v 0.1 0.8 -0.1
v 0.3 0.8 -0.1
v 0.4 0.8 -0.1
v -0.4 0.8 -0.2
v -0.2 0.8 -0.2
v 0.3 0.8 -0.2
v 0.5 0.8 -0.2
v -0.2 0.8 -0.3
v 0.3 0.8 -0.3
v -0.1 0.1 0.1
v 0.2 0.1 0.1
v 0 0.1 0
v 0.1 0.1 0
v 0 0.1 -0.1
v 0.1 0.1 -0.1
v -0.1 0.1 -0.2
v 0.2 0.1 -0.2
v -0.2 0.6 0
v 0 0.6 0
v -0.2 0.6 -0.1
v 0 0.6 -0.1
v 0.1 0.7 0
v 0.3 0.7 0
v 0.1 0.7 -0.1
v 0.3 0.7 -0.1
v 0.3 1.2 0.1
v 0.5 1.2 0.1
v 0.3 1.2 -0.2
v 0.5 1.2 -0.2
v -0.4 1.5 0.1
v -0.2 1.5 0.1
v -0.4 1.5 -0.2
v -0.2 1.5 -0.2
v -0.2 1.6 0.2
v 0.3 1.6 0.2
v -0.2 1.6 -0.3
v 0.3 1.6 -0.3

# faces
f 3/3/1 2/3/1 1/3/1
f 4/3/1 2/3/1 3/3/1
f 7/1/1 6/1/1 5/1/1
f 8/1/1 6/1/1 7/1/1
f 13/3/1 10/3/1 9/3/1
f 14/3/1 12/3/1 11/3/1
f 15/3/1 13/3/1 9/3/1
f 15/3/1 14/3/1 13/3/1
f 16/3/1 12/3/1 14/3/1
f 16/3/1 14/3/1 15/3/1
f 19/2/1 18/2/1 17/2/1
f 20/2/1 18/2/1 19/2/1
f 23/1/1 22/1/1 21/1/1
f 24/1/1 22/1/1 23/1/1
f 27/1/1 26/1/1 25/1/1
f 28/1/1 26/1/1 27/1/1
f 31/1/1 30/1/1 29/1/1
f 32/1/1 30/1/1 31/1/1
f 33/1/2 34/1/2 35/1/2
f 35/1/2 34/1/2 36/1/2
f 37/1/2 38/1/2 39/1/2
f 39/1/2 38/1/2 40/1/2
f 41/1/2 42/1/2 43/1/2
f 43/1/2 42/1/2 44/1/2
f 45/2/2 46/2/2 47/2/2
f 47/2/2 46/2/2 48/2/2
f 49/3/2 50/3/2 53/3/2
f 51/3/2 52/3/2 54/3/2
f 49/3/2 53/3/2 55/3/2
f 53/3/2 54/3/2 55/3/2
f 54/3/2 52/3/2 56/3/2
f 55/3/2 54/3/2 56/3/2
f 57/1/2 58/1/2 59/1/2
f 59/1/2 58/1/2 60/1/2
f 61/3/2 62/3/2 63/3/2
f 63/3/2 62/3/2 64/3/2
f 67/3/3 66/3/3 65/3/3
f 68/3/3 66/3/3 67/3/3
f 71/3/3 70/3/3 69/3/3
f 72/3/3 70/3/3 71/3/3
f 75/2/3 74/2/3 73/2/3
f 76/2/3 74/2/3 75/2/3
f 79/3/3 78/3/3 77/3/3
f 80/3/3 78/3/3 79/3/3
f 83/1/3 82/1/3 81/1/3
f 84/1/3 82/1/3 83/1/3
f 86/1/3 83/1/3 81/1/3
f 87/1/3 83/1/3 86/1/3
f 89/1/3 86/1/3 85/1/3
f 89/1/3 88/1/3 87/1/3
f 89/1/3 87/1/3 86/1/3
f 90/1/3 88/1/3 89/1/3
f 91/1/3 88/1/3 90/1/3
f 92/1/3 88/1/3 91/1/3
f 93/1/3 91/1/3 90/1/3
f 95/1/3 93/1/3 90/1/3
f 95/1/3 94/1/3 93/1/3
f 96/1/3 94/1/3 95/1/3
f 97/1/4 98/1/4 99/1/4
f 99/1/4 98/1/4 100/1/4
f 97/1/4 99/1/4 102/1/4
f 102/1/4 99/1/4 103/1/4
f 101/1/4 102/1/4 105/1/4
f 103/1/4 104/1/4 105/1/4
f 102/1/4 103/1/4 105/1/4
f 105/1/4 104/1/4 106/1/4
f 106/1/4 104/1/4 107/1/4
f 107/1/4 104/1/4 108/1/4
f 106/1/4 107/1/4 109/1/4
f 106/1/4 109/1/4 111/1/4
f 109/1/4 110/1/4 111/1/4
f 111/1/4 110/1/4 112/1/4
f 113/3/4 114/3/4 115/3/4
f 115/3/4 114/3/4 116/3/4
f 117/2/4 118/2/4 119/2/4
f 119/2/4 118/2/4 120/2/4
f 121/3/4 122/3/4 123/3/4
f 123/3/4 122/3/4 124/3/4
f 125/3/4 126/3/4 127/3/4
f 127/3/4 126/3/4 128/3/4
f 131/2/5 130/2/5 129/2/5
f 132/2/5 130/2/5 131/2/5
f 135/1/5 134/1/5 133/1/5
f 136/1/5 134/1/5 135/1/5
f 139/1/5 138/1/5 137/1/5
f 140/1/5 138/1/5 139/1/5
f 144/3/5 142/3/5 141/3/5
f 145/3/5 142/3/5 144/3/5
f 147/3/5 144/3/5 143/3/5
f 147/3/5 146/3/5 145/3/5
f 147/3/5 145/3/5 144/3/5
f 148/3/5 146/3/5 147/3/5
f 149/3/5 146/3/5 148/3/5
f 150/3/5 146/3/5 149/3/5
f 151/3/5 146/3/5 150/3/5
f 152/3/5 146/3/5 151/3/5
f 153/3/5 147/3/5 143/3/5
f 154/3/5 149/3/5 148/3/5
f 155/3/5 149/3/5 154/3/5
f 156/3/5 151/3/5 150/3/5
f 157/3/5 151/3/5 156/3/5
f 158/3/5 146/3/5 152/3/5
f 159/3/5 157/3/5 156/3/5
f 159/3/5 158/3/5 157/3/5
f 159/3/5 155/3/5 154/3/5
f 159/3/5 153/3/5 143/3/5
f 159/3/5 156/3/5 155/3/5
f 159/3/5 154/3/5 153/3/5
f 160/3/5 158/3/5 159/3/5
f 161/3/5 158/3/5 160/3/5
f 162/3/5 146/3/5 158/3/5
f 162/3/5 158/3/5 161/3/5
f 163/3/5 161/3/5 160/3/5
f 164/3/5 161/3/5 163/3/5
f 165/2/6 166/2/6 167/2/6
f 167/2/6 166/2/6 168/2/6
f 165/2/6 167/2/6 169/2/6
f 168/2/6 166/2/6 170/2/6
f 165/2/6 169/2/6 171/2/6
f 169/2/6 170/2/6 171/2/6
f 170/2/6 166/2/6 172/2/6
f 171/2/6 170/2/6 172/2/6
f 173/1/6 174/1/6 175/1/6
f 175/1/6 174/1/6 176/1/6
f 177/1/6 178/1/6 179/1/6
f 179/1/6 178/1/6 180/1/6
f 181/3/6 182/3/6 183/3/6
f 183/3/6 182/3/6 184/3/6
f 185/3/6 186/3/6 187/3/6
f 187/3/6 186/3/6 188/3/6
f 189/3/6 190/3/6 191/3/6
f 191/3/6 190/3/6 192/3/6
