# MagicaVoxel @ Ephtracy

# group
o 

# material
mtllib motorcycle_b_d.mtl
usemtl palette

# normals
vn -1 0 0
vn 1 0 0
vn 0 0 1
vn 0 0 -1
vn 0 -1 0
vn 0 1 0

# texcoords
vt 0.876953 0.5
vt 0.916016 0.5
vt 0.947266 0.5
vt 0.970703 0.5
vt 0.982422 0.5

# verts
v -0.6 0.5 0.1
v -0.6 0.5 -0.1
v -0.6 0.6 0.1
v -0.6 0.6 -0.1
v -0.5 0 0.1
v -0.5 0 -0.1
v -0.5 0.4 0.1
v -0.5 0.4 -0.1
v -0.5 0.6 0.2
v -0.5 0.6 0.1
v -0.5 0.6 -0.1
v -0.5 0.6 -0.2
v -0.5 1 0.2
v -0.5 1 -0.2
v -0.4 0.4 0.1
v -0.4 0.4 -0.1
v -0.4 0.5 0.1
v -0.4 0.5 -0.1
v -0.1 0.5 0.2
v -0.1 0.5 0.1
v -0.1 0.5 -0.1
v -0.1 0.5 -0.2
v -0.1 0.6 0.2
v -0.1 0.6 0.1
v -0.1 0.6 -0.1
v -0.1 0.6 -0.2
v -5.96046e-08 0.6 0.3
v -5.96046e-08 0.6 0.2
v -5.96046e-08 0.6 -0.2
v -5.96046e-08 0.6 -0.3
v -5.96046e-08 0.8 0.3
v -5.96046e-08 0.8 0.2
v -5.96046e-08 0.8 0.1
v -5.96046e-08 0.8 -0.1
v -5.96046e-08 0.8 -0.2
v -5.96046e-08 0.8 -0.3
v -5.96046e-08 1 0.1
v -5.96046e-08 1 -0.1
v 0.1 0.3 0.2
v 0.1 0.3 0.1
v 0.1 0.3 -0.1
v 0.1 0.3 -0.2
v 0.1 0.5 0.2
v 0.1 0.5 0.1
v 0.1 0.5 -0.1
v 0.1 0.5 -0.2
v 0.2 0 0.1
v 0.2 0 -0.1
v 0.2 0.2 0.1
v 0.2 0.2 -0.1
v 0.3 0.6 0.2
v 0.3 0.6 0.1
v 0.3 0.6 -0.1
v 0.3 0.6 -0.2
v 0.3 0.7 0.2
v 0.3 0.7 -0.2
v 0.4 0.7 0.2
v 0.4 0.7 -0.2
v 0.4 0.8 0.3
v 0.4 0.8 0.2
v 0.4 0.8 0.1
v 0.4 0.8 -0.1
v 0.4 0.8 -0.2
v 0.4 0.8 -0.3
v 0.4 0.9 0.3
v 0.4 0.9 0.2
v 0.4 0.9 0.1
v 0.4 0.9 -0.1
v 0.4 0.9 -0.2
v 0.4 0.9 -0.3
v -0.1 0 0.1
v -0.1 0 -0.1
v -0.1 0.2 0.1
v -0.1 0.2 -0.1
v -0.1 0.8 0.2
v -0.1 0.8 -0.2
v -0.1 1 0.2
v -0.1 1 -0.2
v 0.1 0.6 0.2
v 0.1 0.6 0.1
v 0.1 0.6 -0.1
v 0.1 0.6 -0.2
v 0.1 0.7 0.3
v 0.1 0.7 0.2
v 0.1 0.7 -0.2
v 0.1 0.7 -0.3
v 0.1 0.8 0.3
v 0.1 0.8 0.1
v 0.1 0.8 -0.1
v 0.1 0.8 -0.3
v 0.2 0.3 0.2
v 0.2 0.3 0.1
v 0.2 0.3 -0.1
v 0.2 0.3 -0.2
v 0.2 0.4 0.1
v 0.2 0.4 -0.1
v 0.2 0.6 0.2
v 0.2 0.6 0.1
v 0.2 0.6 -0.1
v 0.2 0.6 -0.2
v 0.2 0.8 0.1
v 0.2 0.8 -0.1
v 0.2 1 0.1
v 0.2 1 -0.1
v 0.4 0.6 0.3
v 0.4 0.6 0.1
v 0.4 0.6 -0.1
v 0.4 0.6 -0.3
v 0.4 0.7 0.3
v 0.4 0.7 0.2
v 0.4 0.7 0.1
v 0.4 0.7 -0.1
v 0.4 0.7 -0.2
v 0.4 0.7 -0.3
v 0.5 0.7 0.2
v 0.5 0.7 0.1
v 0.5 0.7 -0.1
v 0.5 0.7 -0.2
v 0.5 0.8 0.3
v 0.5 0.8 0.2
v 0.5 0.8 0.1
v 0.5 0.8 -0.1
v 0.5 0.8 -0.2
v 0.5 0.8 -0.3
v 0.5 0.9 0.3
v 0.5 0.9 0.2
v 0.5 0.9 0.1
v 0.5 0.9 -0.1
v 0.5 0.9 -0.2
v 0.5 0.9 -0.3
v 0.6 0 0.1
v 0.6 0 -0.1
v 0.6 0.3 0.1
v 0.6 0.3 -0.1
v 0.6 0.5 0.1
v 0.6 0.5 -0.1
v 0.6 0.7 0.1
v 0.6 0.7 -0.1
v 0.7 0.3 0.1
v 0.7 0.3 -0.1
v 0.7 0.5 0.1
v 0.7 0.5 -0.1
v -5.96046e-08 0.6 0.3
v -5.96046e-08 0.8 0.3
v 0.1 0.7 0.3
v 0.1 0.8 0.3
v 0.3 0.6 0.3
v 0.3 0.7 0.3
v 0.4 0.6 0.3
v 0.4 0.7 0.3
v 0.4 0.8 0.3
v 0.4 0.9 0.3
v 0.5 0.8 0.3
v 0.5 0.9 0.3
v -0.5 0.6 0.2
v -0.5 1 0.2
v -0.1 0.5 0.2
v -0.1 0.6 0.2
v -0.1 0.8 0.2
v -0.1 1 0.2
v -5.96046e-08 0.6 0.2
v -5.96046e-08 0.8 0.2
v 0.1 0.3 0.2
v 0.1 0.5 0.2
v 0.2 0.3 0.2
v 0.2 0.6 0.2
v 0.4 0.7 0.2
v 0.4 0.8 0.2
v 0.5 0.7 0.2
v 0.5 0.8 0.2
v -0.6 0.5 0.1
v -0.6 0.6 0.1
v -0.5 0 0.1
v -0.5 0.4 0.1
v -0.5 0.6 0.1
v -0.4 0.1 0.1
v -0.4 0.3 0.1
v -0.4 0.4 0.1
v -0.4 0.5 0.1
v -0.2 0.1 0.1
v -0.2 0.3 0.1
v -0.1 0 0.1
v -0.1 0.2 0.1
v -0.1 0.4 0.1
v -0.1 0.5 0.1
v -0.1 0.6 0.1
v -5.96046e-08 0.8 0.1
v -5.96046e-08 1 0.1
v 0.1 0.3 0.1
v 0.1 0.5 0.1
v 0.1 0.8 0.1
v 0.2 0 0.1
v 0.2 0.2 0.1
v 0.2 0.3 0.1
v 0.2 0.4 0.1
v 0.2 0.6 0.1
v 0.2 0.8 0.1
v 0.2 1 0.1
v 0.3 0.1 0.1
v 0.3 0.3 0.1
v 0.3 0.6 0.1
v 0.4 0.6 0.1
v 0.4 0.7 0.1
v 0.5 0.1 0.1
v 0.5 0.3 0.1
v 0.5 0.5 0.1
v 0.5 0.7 0.1
v 0.6 0 0.1
v 0.6 0.3 0.1
v 0.6 0.4 0.1
v 0.6 0.5 0.1
v 0.6 0.7 0.1
v 0.7 0.3 0.1
v 0.7 0.5 0.1
v 0.4 0.8 -0.1
v 0.4 0.9 -0.1
v 0.5 0.8 -0.1
v 0.5 0.9 -0.1
v 0.1 0.6 -0.2
v 0.1 0.7 -0.2
v 0.2 0.6 -0.2
v 0.3 0.6 -0.2
v 0.3 0.7 -0.2
v 0.1 0.6 0.2
v 0.1 0.7 0.2
v 0.2 0.6 0.2
v 0.3 0.6 0.2
v 0.3 0.7 0.2
v 0.4 0.8 0.1
v 0.4 0.9 0.1
v 0.5 0.8 0.1
v 0.5 0.9 0.1
v -0.6 0.5 -0.1
v -0.6 0.6 -0.1
v -0.5 0 -0.1
v -0.5 0.4 -0.1
v -0.5 0.6 -0.1
v -0.4 0.1 -0.1
v -0.4 0.3 -0.1
v -0.4 0.4 -0.1
v -0.4 0.5 -0.1
v -0.2 0.1 -0.1
v -0.2 0.3 -0.1
v -0.1 0 -0.1
v -0.1 0.2 -0.1
v -0.1 0.4 -0.1
v -0.1 0.5 -0.1
v -0.1 0.6 -0.1
v -5.96046e-08 0.8 -0.1
v -5.96046e-08 1 -0.1
v 0.1 0.3 -0.1
v 0.1 0.5 -0.1
v 0.1 0.8 -0.1
v 0.2 0 -0.1
v 0.2 0.2 -0.1
v 0.2 0.3 -0.1
v 0.2 0.4 -0.1
v 0.2 0.6 -0.1
v 0.2 0.8 -0.1
v 0.2 1 -0.1
v 0.3 0.1 -0.1
v 0.3 0.3 -0.1
v 0.3 0.6 -0.1
v 0.4 0.6 -0.1
v 0.4 0.7 -0.1
v 0.5 0.1 -0.1
v 0.5 0.3 -0.1
v 0.5 0.5 -0.1
v 0.5 0.7 -0.1
v 0.6 0 -0.1
v 0.6 0.3 -0.1
v 0.6 0.4 -0.1
v 0.6 0.5 -0.1
v 0.6 0.7 -0.1
v 0.7 0.3 -0.1
v 0.7 0.5 -0.1
v -0.5 0.6 -0.2
v -0.5 1 -0.2
v -0.1 0.5 -0.2
v -0.1 0.6 -0.2
v -0.1 0.8 -0.2
v -0.1 1 -0.2
v -5.96046e-08 0.6 -0.2
v -5.96046e-08 0.8 -0.2
v 0.1 0.3 -0.2
v 0.1 0.5 -0.2
v 0.2 0.3 -0.2
v 0.2 0.6 -0.2
v 0.4 0.7 -0.2
v 0.4 0.8 -0.2
v 0.5 0.7 -0.2
v 0.5 0.8 -0.2
v -5.96046e-08 0.6 -0.3
v -5.96046e-08 0.8 -0.3
v 0.1 0.7 -0.3
v 0.1 0.8 -0.3
v 0.3 0.6 -0.3
v 0.3 0.7 -0.3
v 0.4 0.6 -0.3
v 0.4 0.7 -0.3
v 0.4 0.8 -0.3
v 0.4 0.9 -0.3
v 0.5 0.8 -0.3
v 0.5 0.9 -0.3
v -0.5 0 0.1
v -0.1 0 0.1
v 0.2 0 0.1
v 0.6 0 0.1
v -0.5 0 -0.1
v -0.1 0 -0.1
v 0.2 0 -0.1
v 0.6 0 -0.1
v -0.1 0.2 0.1
v 0.2 0.2 0.1
v -0.1 0.2 -0.1
v 0.2 0.2 -0.1
v 0.1 0.3 0.2
v 0.2 0.3 0.2
v 0.1 0.3 0.1
v 0.2 0.3 0.1
v 0.6 0.3 0.1
v 0.7 0.3 0.1
v 0.1 0.3 -0.1
v 0.2 0.3 -0.1
v 0.6 0.3 -0.1
v 0.7 0.3 -0.1
v 0.1 0.3 -0.2
v 0.2 0.3 -0.2
v -0.1 0.5 0.2
v 0.1 0.5 0.2
v -0.6 0.5 0.1
v -0.4 0.5 0.1
v -0.1 0.5 0.1
v 0.1 0.5 0.1
v -0.6 0.5 -0.1
v -0.4 0.5 -0.1
v -0.1 0.5 -0.1
v 0.1 0.5 -0.1
v -0.1 0.5 -0.2
v 0.1 0.5 -0.2
v -5.96046e-08 0.6 0.3
v 0.3 0.6 0.3
v 0.4 0.6 0.3
v -0.5 0.6 0.2
v -0.1 0.6 0.2
v -5.96046e-08 0.6 0.2
v 0.2 0.6 0.2
v 0.3 0.6 0.2
v -0.5 0.6 0.1
v -0.1 0.6 0.1
v 0.3 0.6 0.1
v 0.4 0.6 0.1
v -0.5 0.6 -0.1
v -0.1 0.6 -0.1
v 0.3 0.6 -0.1
v 0.4 0.6 -0.1
v -0.5 0.6 -0.2
v -0.1 0.6 -0.2
v -5.96046e-08 0.6 -0.2
v 0.2 0.6 -0.2
v 0.3 0.6 -0.2
v -5.96046e-08 0.6 -0.3
v 0.3 0.6 -0.3
v 0.4 0.6 -0.3
v 0.4 0.7 0.2
v 0.5 0.7 0.2
v 0.4 0.7 0.1
v 0.5 0.7 0.1
v 0.4 0.7 -0.1
v 0.5 0.7 -0.1
v 0.4 0.7 -0.2
v 0.5 0.7 -0.2
v 0.4 0.8 0.3
v 0.5 0.8 0.3
v 0.4 0.8 0.2
v 0.5 0.8 0.2
v 0.1 0.8 0.1
v 0.2 0.8 0.1
v 0.1 0.8 -0.1
v 0.2 0.8 -0.1
v 0.4 0.8 -0.2
v 0.5 0.8 -0.2
v 0.4 0.8 -0.3
v 0.5 0.8 -0.3
v -0.5 0.4 0.1
v -0.4 0.4 0.1
v -0.5 0.4 -0.1
v -0.4 0.4 -0.1
v 0.6 0.5 0.1
v 0.7 0.5 0.1
v 0.6 0.5 -0.1
v 0.7 0.5 -0.1
v 0.1 0.6 0.2
v 0.2 0.6 0.2
v -0.6 0.6 0.1
v -0.5 0.6 0.1
v 0.1 0.6 0.1
v 0.2 0.6 0.1
v 0.3 0.6 0.1
v -0.6 0.6 -0.1
v -0.5 0.6 -0.1
v 0.1 0.6 -0.1
v 0.2 0.6 -0.1
v 0.3 0.6 -0.1
v 0.1 0.6 -0.2
v 0.2 0.6 -0.2
v 0.1 0.7 0.3
v 0.3 0.7 0.3
v 0.4 0.7 0.3
v 0.1 0.7 0.2
v 0.3 0.7 0.2
v 0.4 0.7 0.2
v 0.5 0.7 0.1
v 0.6 0.7 0.1
v 0.5 0.7 -0.1
v 0.6 0.7 -0.1
v 0.1 0.7 -0.2
v 0.3 0.7 -0.2
v 0.4 0.7 -0.2
v 0.1 0.7 -0.3
v 0.3 0.7 -0.3
v 0.4 0.7 -0.3
v -5.96046e-08 0.8 0.3
v 0.1 0.8 0.3
v -0.1 0.8 0.2
v -5.96046e-08 0.8 0.2
v -5.96046e-08 0.8 0.1
v 0.1 0.8 0.1
v 0.4 0.8 0.1
v 0.5 0.8 0.1
v -5.96046e-08 0.8 -0.1
v 0.1 0.8 -0.1
v 0.4 0.8 -0.1
v 0.5 0.8 -0.1
v -0.1 0.8 -0.2
v -5.96046e-08 0.8 -0.2
v -5.96046e-08 0.8 -0.3
v 0.1 0.8 -0.3
v 0.4 0.9 0.3
v 0.5 0.9 0.3
v 0.4 0.9 0.2
v 0.5 0.9 0.2
v 0.4 0.9 0.1
v 0.5 0.9 0.1
v 0.4 0.9 -0.1
v 0.5 0.9 -0.1
v 0.4 0.9 -0.2
v 0.5 0.9 -0.2
v 0.4 0.9 -0.3
v 0.5 0.9 -0.3
v -0.5 1 0.2
v -0.1 1 0.2
v -5.96046e-08 1 0.1
v 0.2 1 0.1
v -5.96046e-08 1 -0.1
v 0.2 1 -0.1
v -0.5 1 -0.2
v -0.1 1 -0.2

# faces
f 3/3/1 2/3/1 1/3/1
f 4/3/1 2/3/1 3/3/1
f 7/4/1 6/4/1 5/4/1
f 8/4/1 6/4/1 7/4/1
f 13/5/1 11/5/1 10/5/1
f 13/5/1 12/5/1 11/5/1
f 13/5/1 10/5/1 9/5/1
f 14/5/1 12/5/1 13/5/1
f 17/3/1 16/3/1 15/3/1
f 18/3/1 16/3/1 17/3/1
f 23/4/1 20/4/1 19/4/1
f 24/4/1 20/4/1 23/4/1
f 25/4/1 22/4/1 21/4/1
f 26/4/1 22/4/1 25/4/1
f 31/4/1 28/4/1 27/4/1
f 32/4/1 28/4/1 31/4/1
f 35/4/1 30/4/1 29/4/1
f 36/4/1 30/4/1 35/4/1
f 37/4/1 34/4/1 33/4/1
f 38/4/1 34/4/1 37/4/1
f 43/4/1 40/4/1 39/4/1
f 44/4/1 40/4/1 43/4/1
f 45/4/1 42/4/1 41/4/1
f 46/4/1 42/4/1 45/4/1
f 49/4/1 48/4/1 47/4/1
f 50/4/1 48/4/1 49/4/1
f 55/3/1 52/3/1 51/3/1
f 55/3/1 54/3/1 53/3/1
f 55/3/1 53/3/1 52/3/1
f 56/3/1 54/3/1 55/3/1
f 60/3/1 58/3/1 57/3/1
f 61/3/1 58/3/1 60/3/1
f 62/3/1 58/3/1 61/3/1
f 63/3/1 58/3/1 62/3/1
f 65/1/1 60/1/1 59/1/1
f 66/3/1 61/3/1 60/3/1
f 66/1/1 60/1/1 65/1/1
f 67/3/1 61/3/1 66/3/1
f 68/3/1 63/3/1 62/3/1
f 69/1/1 64/1/1 63/1/1
f 69/3/1 63/3/1 68/3/1
f 70/1/1 64/1/1 69/1/1
f 71/4/2 72/4/2 73/4/2
f 73/4/2 72/4/2 74/4/2
f 75/5/2 76/5/2 77/5/2
f 77/5/2 76/5/2 78/5/2
f 79/4/2 80/4/2 84/4/2
f 81/4/2 82/4/2 84/4/2
f 80/4/2 81/4/2 84/4/2
f 84/4/2 82/4/2 85/4/2
f 83/4/2 84/4/2 87/4/2
f 85/4/2 86/4/2 87/4/2
f 84/4/2 85/4/2 87/4/2
f 87/4/2 86/4/2 88/4/2
f 88/4/2 86/4/2 89/4/2
f 89/4/2 86/4/2 90/4/2
f 91/4/2 92/4/2 95/4/2
f 93/4/2 94/4/2 96/4/2
f 91/4/2 95/4/2 97/4/2
f 97/4/2 95/4/2 98/4/2
f 96/4/2 94/4/2 99/4/2
f 99/4/2 94/4/2 100/4/2
f 101/4/2 102/4/2 103/4/2
f 103/4/2 102/4/2 104/4/2
f 105/3/2 106/3/2 109/3/2
f 109/3/2 106/3/2 110/3/2
f 110/3/2 106/3/2 111/3/2
f 107/3/2 108/3/2 112/3/2
f 112/3/2 108/3/2 113/3/2
f 113/3/2 108/3/2 114/3/2
f 115/3/2 116/3/2 120/3/2
f 117/3/2 118/3/2 120/3/2
f 116/3/2 117/3/2 120/3/2
f 120/3/2 118/3/2 121/3/2
f 121/3/2 118/3/2 122/3/2
f 122/3/2 118/3/2 123/3/2
f 119/1/2 120/1/2 125/1/2
f 120/3/2 121/3/2 126/3/2
f 125/1/2 120/1/2 126/1/2
f 126/3/2 121/3/2 127/3/2
f 122/3/2 123/3/2 128/3/2
f 123/1/2 124/1/2 129/1/2
f 128/3/2 123/3/2 129/3/2
f 129/1/2 124/1/2 130/1/2
f 131/4/2 132/4/2 133/4/2
f 133/4/2 132/4/2 134/4/2
f 135/2/2 136/2/2 137/2/2
f 137/2/2 136/2/2 138/2/2
f 139/3/2 140/3/2 141/3/2
f 141/3/2 140/3/2 142/3/2
f 145/4/3 144/4/3 143/4/3
f 146/4/3 144/4/3 145/4/3
f 147/4/3 145/4/3 143/4/3
f 148/4/3 145/4/3 147/4/3
f 149/3/3 148/3/3 147/3/3
f 150/3/3 148/3/3 149/3/3
f 153/1/3 152/1/3 151/1/3
f 154/1/3 152/1/3 153/1/3
f 158/5/3 156/5/3 155/5/3
f 159/5/3 156/5/3 158/5/3
f 160/5/3 156/5/3 159/5/3
f 161/4/3 158/4/3 157/4/3
f 161/4/3 159/4/3 158/4/3
f 162/4/3 159/4/3 161/4/3
f 164/4/3 161/4/3 157/4/3
f 165/4/3 164/4/3 163/4/3
f 166/4/3 161/4/3 164/4/3
f 166/4/3 164/4/3 165/4/3
f 169/3/3 168/3/3 167/3/3
f 170/3/3 168/3/3 169/3/3
f 175/3/3 172/3/3 171/3/3
f 176/4/3 174/4/3 173/4/3
f 177/4/3 174/4/3 176/4/3
f 178/4/3 174/4/3 177/4/3
f 179/3/3 175/3/3 171/3/3
f 180/4/3 176/4/3 173/4/3
f 180/3/3 177/3/3 176/3/3
f 181/4/3 178/4/3 177/4/3
f 181/3/3 177/3/3 180/3/3
f 182/4/3 180/4/3 173/4/3
f 182/4/3 181/4/3 180/4/3
f 183/4/3 181/4/3 182/4/3
f 184/4/3 178/4/3 181/4/3
f 184/4/3 181/4/3 183/4/3
f 184/3/3 179/3/3 178/3/3
f 185/3/3 175/3/3 179/3/3
f 185/3/3 179/3/3 184/3/3
f 186/3/3 175/3/3 185/3/3
f 189/3/3 185/3/3 184/3/3
f 189/3/3 184/3/3 183/3/3
f 190/3/3 185/3/3 189/3/3
f 191/4/3 188/4/3 187/4/3
f 193/3/3 189/3/3 183/3/3
f 194/3/3 189/3/3 193/3/3
f 197/4/3 188/4/3 191/4/3
f 198/4/3 188/4/3 197/4/3
f 199/4/3 193/4/3 192/4/3
f 199/4/3 194/4/3 193/4/3
f 199/4/3 195/4/3 194/4/3
f 200/4/3 195/4/3 199/4/3
f 201/3/3 196/3/3 195/3/3
f 202/3/3 201/3/3 195/3/3
f 204/4/3 199/4/3 192/4/3
f 204/3/3 200/3/3 199/3/3
f 205/4/3 195/4/3 200/4/3
f 205/3/3 200/3/3 204/3/3
f 206/3/3 203/3/3 202/3/3
f 206/3/3 202/3/3 195/3/3
f 207/3/3 203/3/3 206/3/3
f 208/4/3 204/4/3 192/4/3
f 208/4/3 205/4/3 204/4/3
f 209/4/3 195/4/3 205/4/3
f 209/4/3 205/4/3 208/4/3
f 210/3/3 206/3/3 195/3/3
f 210/4/3 195/4/3 209/4/3
f 211/2/3 207/2/3 206/2/3
f 211/3/3 206/3/3 210/3/3
f 212/2/3 207/2/3 211/2/3
f 213/3/3 210/3/3 209/3/3
f 213/3/3 211/3/3 210/3/3
f 214/3/3 211/3/3 213/3/3
f 217/3/3 216/3/3 215/3/3
f 218/3/3 216/3/3 217/3/3
f 221/4/3 220/4/3 219/4/3
f 222/4/3 220/4/3 221/4/3
f 223/4/3 220/4/3 222/4/3
f 224/4/4 225/4/4 226/4/4
f 226/4/4 225/4/4 227/4/4
f 227/4/4 225/4/4 228/4/4
f 229/3/4 230/3/4 231/3/4
f 231/3/4 230/3/4 232/3/4
f 233/3/4 234/3/4 237/3/4
f 235/4/4 236/4/4 238/4/4
f 238/4/4 236/4/4 239/4/4
f 239/4/4 236/4/4 240/4/4
f 233/3/4 237/3/4 241/3/4
f 235/4/4 238/4/4 242/4/4
f 238/3/4 239/3/4 242/3/4
f 239/4/4 240/4/4 243/4/4
f 242/3/4 239/3/4 243/3/4
f 235/4/4 242/4/4 244/4/4
f 242/4/4 243/4/4 244/4/4
f 244/4/4 243/4/4 245/4/4
f 243/4/4 240/4/4 246/4/4
f 245/4/4 243/4/4 246/4/4
f 240/3/4 241/3/4 246/3/4
f 241/3/4 237/3/4 247/3/4
f 246/3/4 241/3/4 247/3/4
f 247/3/4 237/3/4 248/3/4
f 246/3/4 247/3/4 251/3/4
f 245/3/4 246/3/4 251/3/4
f 251/3/4 247/3/4 252/3/4
f 249/4/4 250/4/4 253/4/4
f 245/3/4 251/3/4 255/3/4
f 255/3/4 251/3/4 256/3/4
f 253/4/4 250/4/4 259/4/4
f 259/4/4 250/4/4 260/4/4
f 254/4/4 255/4/4 261/4/4
f 255/4/4 256/4/4 261/4/4
f 256/4/4 257/4/4 261/4/4
f 261/4/4 257/4/4 262/4/4
f 257/3/4 258/3/4 263/3/4
f 257/3/4 263/3/4 264/3/4
f 254/4/4 261/4/4 266/4/4
f 261/3/4 262/3/4 266/3/4
f 262/4/4 257/4/4 267/4/4
f 266/3/4 262/3/4 267/3/4
f 264/3/4 265/3/4 268/3/4
f 257/3/4 264/3/4 268/3/4
f 268/3/4 265/3/4 269/3/4
f 254/4/4 266/4/4 270/4/4
f 266/4/4 267/4/4 270/4/4
f 267/4/4 257/4/4 271/4/4
f 270/4/4 267/4/4 271/4/4
f 257/3/4 268/3/4 272/3/4
f 271/4/4 257/4/4 272/4/4
f 268/2/4 269/2/4 273/2/4
f 272/3/4 268/3/4 273/3/4
f 273/2/4 269/2/4 274/2/4
f 271/3/4 272/3/4 275/3/4
f 272/3/4 273/3/4 275/3/4
f 275/3/4 273/3/4 276/3/4
f 277/5/4 278/5/4 280/5/4
f 280/5/4 278/5/4 281/5/4
f 281/5/4 278/5/4 282/5/4
f 279/4/4 280/4/4 283/4/4
f 280/4/4 281/4/4 283/4/4
f 283/4/4 281/4/4 284/4/4
f 279/4/4 283/4/4 286/4/4
f 285/4/4 286/4/4 287/4/4
f 286/4/4 283/4/4 288/4/4
f 287/4/4 286/4/4 288/4/4
f 289/3/4 290/3/4 291/3/4
f 291/3/4 290/3/4 292/3/4
f 293/4/4 294/4/4 295/4/4
f 295/4/4 294/4/4 296/4/4
f 293/4/4 295/4/4 297/4/4
f 297/4/4 295/4/4 298/4/4
f 297/3/4 298/3/4 299/3/4
f 299/3/4 298/3/4 300/3/4
f 301/1/4 302/1/4 303/1/4
f 303/1/4 302/1/4 304/1/4
f 309/4/5 306/4/5 305/4/5
f 310/4/5 306/4/5 309/4/5
f 311/4/5 308/4/5 307/4/5
f 312/4/5 308/4/5 311/4/5
f 315/3/5 314/3/5 313/3/5
f 316/3/5 314/3/5 315/3/5
f 319/4/5 318/4/5 317/4/5
f 320/4/5 318/4/5 319/4/5
f 325/3/5 322/3/5 321/3/5
f 326/3/5 322/3/5 325/3/5
f 327/4/5 324/4/5 323/4/5
f 328/4/5 324/4/5 327/4/5
f 333/4/5 330/4/5 329/4/5
f 334/4/5 330/4/5 333/4/5
f 335/3/5 332/3/5 331/3/5
f 336/3/5 332/3/5 335/3/5
f 339/4/5 338/4/5 337/4/5
f 340/4/5 338/4/5 339/4/5
f 346/4/5 342/4/5 341/4/5
f 347/4/5 342/4/5 346/4/5
f 348/3/5 343/3/5 342/3/5
f 348/4/5 342/4/5 347/4/5
f 349/5/5 345/5/5 344/5/5
f 350/5/5 345/5/5 349/5/5
f 351/3/5 343/3/5 348/3/5
f 352/3/5 343/3/5 351/3/5
f 357/5/5 354/5/5 353/5/5
f 358/5/5 354/5/5 357/5/5
f 361/3/5 356/3/5 355/3/5
f 362/4/5 360/4/5 359/4/5
f 362/4/5 361/4/5 360/4/5
f 363/3/5 356/3/5 361/3/5
f 363/4/5 361/4/5 362/4/5
f 364/3/5 356/3/5 363/3/5
f 367/3/5 366/3/5 365/3/5
f 368/3/5 366/3/5 367/3/5
f 371/3/5 370/3/5 369/3/5
f 372/3/5 370/3/5 371/3/5
f 375/1/5 374/1/5 373/1/5
f 376/1/5 374/1/5 375/1/5
f 379/4/5 378/4/5 377/4/5
f 380/4/5 378/4/5 379/4/5
f 383/1/5 382/1/5 381/1/5
f 384/1/5 382/1/5 383/1/5
f 385/4/6 386/4/6 387/4/6
f 387/4/6 386/4/6 388/4/6
f 389/3/6 390/3/6 391/3/6
f 391/3/6 390/3/6 392/3/6
f 393/4/6 394/4/6 397/4/6
f 397/4/6 394/4/6 398/4/6
f 395/3/6 396/3/6 400/3/6
f 400/3/6 396/3/6 401/3/6
f 398/3/6 399/3/6 402/3/6
f 397/3/6 398/3/6 402/3/6
f 402/3/6 399/3/6 403/3/6
f 403/3/6 399/3/6 404/3/6
f 402/4/6 403/4/6 405/4/6
f 405/4/6 403/4/6 406/4/6
f 407/4/6 408/4/6 410/4/6
f 408/3/6 409/3/6 411/3/6
f 410/4/6 408/4/6 411/4/6
f 411/3/6 409/3/6 412/3/6
f 413/2/6 414/2/6 415/2/6
f 415/2/6 414/2/6 416/2/6
f 411/3/6 412/3/6 418/3/6
f 418/3/6 412/3/6 419/3/6
f 417/4/6 418/4/6 420/4/6
f 418/3/6 419/3/6 421/3/6
f 420/4/6 418/4/6 421/4/6
f 421/3/6 419/3/6 422/3/6
f 423/4/6 424/4/6 426/4/6
f 426/4/6 424/4/6 427/4/6
f 425/4/6 426/4/6 427/4/6
f 427/4/6 424/4/6 428/4/6
f 425/4/6 427/4/6 431/4/6
f 429/3/6 430/3/6 433/3/6
f 433/3/6 430/3/6 434/3/6
f 431/4/6 432/4/6 435/4/6
f 425/4/6 431/4/6 435/4/6
f 435/4/6 432/4/6 436/4/6
f 436/4/6 432/4/6 437/4/6
f 437/4/6 432/4/6 438/4/6
f 439/1/6 440/1/6 441/1/6
f 441/1/6 440/1/6 442/1/6
f 441/3/6 442/3/6 443/3/6
f 443/3/6 442/3/6 444/3/6
f 445/3/6 446/3/6 447/3/6
f 447/3/6 446/3/6 448/3/6
f 447/1/6 448/1/6 449/1/6
f 449/1/6 448/1/6 450/1/6
f 453/4/6 454/4/6 455/4/6
f 455/4/6 454/4/6 456/4/6
f 451/5/6 452/5/6 457/5/6
f 457/5/6 452/5/6 458/5/6
