# MagicaVoxel @ Ephtracy

# group
o 

# material
mtllib motorcycle_b_e.mtl
usemtl palette

# normals
vn -1 0 0
vn 1 0 0
vn 0 0 1
vn 0 0 -1
vn 0 -1 0
vn 0 1 0

# texcoords
vt 0.876953 0.5
vt 0.884766 0.5
vt 0.916016 0.5
vt 0.947266 0.5
vt 0.970703 0.5

# verts
v -0.6 0.5 0.1
v -0.6 0.5 -0.1
v -0.6 0.6 0.1
v -0.6 0.6 -0.1
v -0.5 0 0.1
v -0.5 0 -0.1
v -0.5 0.4 0.1
v -0.5 0.4 -0.1
v -0.5 0.6 0.2
v -0.5 0.6 0.1
v -0.5 0.6 -0.1
v -0.5 0.6 -0.2
v -0.5 1 0.2
v -0.5 1 -0.2
v -0.4 0.4 0.1
v -0.4 0.4 -0.1
v -0.4 0.5 0.1
v -0.4 0.5 -0.1
v -0.1 0.5 0.2
v -0.1 0.5 0.1
v -0.1 0.5 -0.1
v -0.1 0.5 -0.2
v -0.1 0.6 0.2
v -0.1 0.6 0.1
v -0.1 0.6 -0.1
v -0.1 0.6 -0.2
v -5.96046e-08 0.6 0.3
v -5.96046e-08 0.6 0.2
v -5.96046e-08 0.6 -0.2
v -5.96046e-08 0.6 -0.3
v -5.96046e-08 0.8 0.3
v -5.96046e-08 0.8 0.2
v -5.96046e-08 0.8 0.1
v -5.96046e-08 0.8 -0.1
v -5.96046e-08 0.8 -0.2
v -5.96046e-08 0.8 -0.3
v -5.96046e-08 1 0.1
v -5.96046e-08 1 -0.1
v 0.1 0.3 0.2
v 0.1 0.3 0.1
v 0.1 0.3 -0.1
v 0.1 0.3 -0.2
v 0.1 0.5 0.2
v 0.1 0.5 0.1
v 0.1 0.5 -0.1
v 0.1 0.5 -0.2
v 0.2 0 0.1
v 0.2 0 -0.1
v 0.2 0.2 0.1
v 0.2 0.2 -0.1
v 0.3 0.6 0.2
v 0.3 0.6 0.1
v 0.3 0.6 -0.1
v 0.3 0.6 -0.2
v 0.3 0.7 0.2
v 0.3 0.7 -0.2
v 0.4 0.7 0.2
v 0.4 0.7 -0.2
v 0.4 0.8 0.3
v 0.4 0.8 0.2
v 0.4 0.8 0.1
v 0.4 0.8 -0.1
v 0.4 0.8 -0.2
v 0.4 0.8 -0.3
v 0.4 0.9 0.3
v 0.4 0.9 0.2
v 0.4 0.9 0.1
v 0.4 0.9 -0.1
v 0.4 0.9 -0.2
v 0.4 0.9 -0.3
v -0.1 0 0.1
v -0.1 0 -0.1
v -0.1 0.2 0.1
v -0.1 0.2 -0.1
v -0.1 0.8 0.2
v -0.1 0.8 -0.2
v -0.1 1 0.2
v -0.1 1 -0.2
v 0.1 0.6 0.2
v 0.1 0.6 0.1
v 0.1 0.6 -0.1
v 0.1 0.6 -0.2
v 0.1 0.7 0.3
v 0.1 0.7 0.2
v 0.1 0.7 -0.2
v 0.1 0.7 -0.3
v 0.1 0.8 0.3
v 0.1 0.8 0.1
v 0.1 0.8 -0.1
v 0.1 0.8 -0.3
v 0.2 0.3 0.2
v 0.2 0.3 0.1
v 0.2 0.3 -0.1
v 0.2 0.3 -0.2
v 0.2 0.4 0.1
v 0.2 0.4 -0.1
v 0.2 0.6 0.2
v 0.2 0.6 0.1
v 0.2 0.6 -0.1
v 0.2 0.6 -0.2
v 0.2 0.8 0.1
v 0.2 0.8 -0.1
v 0.2 1 0.1
v 0.2 1 -0.1
v 0.4 0.6 0.3
v 0.4 0.6 0.1
v 0.4 0.6 -0.1
v 0.4 0.6 -0.3
v 0.4 0.7 0.3
v 0.4 0.7 0.2
v 0.4 0.7 0.1
v 0.4 0.7 -0.1
v 0.4 0.7 -0.2
v 0.4 0.7 -0.3
v 0.5 0.7 0.2
v 0.5 0.7 0.1
v 0.5 0.7 -0.1
v 0.5 0.7 -0.2
v 0.5 0.8 0.3
v 0.5 0.8 0.2
v 0.5 0.8 0.1
v 0.5 0.8 -0.1
v 0.5 0.8 -0.2
v 0.5 0.8 -0.3
v 0.5 0.9 0.3
v 0.5 0.9 0.2
v 0.5 0.9 0.1
v 0.5 0.9 -0.1
v 0.5 0.9 -0.2
v 0.5 0.9 -0.3
v 0.6 0 0.1
v 0.6 0 -0.1
v 0.6 0.3 0.1
v 0.6 0.3 -0.1
v 0.6 0.5 0.1
v 0.6 0.5 -0.1
v 0.6 0.7 0.1
v 0.6 0.7 -0.1
v 0.7 0.3 0.1
v 0.7 0.3 -0.1
v 0.7 0.5 0.1
v 0.7 0.5 -0.1
v -5.96046e-08 0.6 0.3
v -5.96046e-08 0.8 0.3
v 0.1 0.7 0.3
v 0.1 0.8 0.3
v 0.3 0.6 0.3
v 0.3 0.7 0.3
v 0.4 0.6 0.3
v 0.4 0.7 0.3
v 0.4 0.8 0.3
v 0.4 0.9 0.3
v 0.5 0.8 0.3
v 0.5 0.9 0.3
v -0.5 0.6 0.2
v -0.5 1 0.2
v -0.1 0.5 0.2
v -0.1 0.6 0.2
v -0.1 0.8 0.2
v -0.1 1 0.2
v -5.96046e-08 0.6 0.2
v -5.96046e-08 0.8 0.2
v 0.1 0.3 0.2
v 0.1 0.5 0.2
v 0.2 0.3 0.2
v 0.2 0.6 0.2
v 0.4 0.7 0.2
v 0.4 0.8 0.2
v 0.5 0.7 0.2
v 0.5 0.8 0.2
v -0.6 0.5 0.1
v -0.6 0.6 0.1
v -0.5 0 0.1
v -0.5 0.4 0.1
v -0.5 0.6 0.1
v -0.4 0.1 0.1
v -0.4 0.3 0.1
v -0.4 0.4 0.1
v -0.4 0.5 0.1
v -0.2 0.1 0.1
v -0.2 0.3 0.1
v -0.1 0 0.1
v -0.1 0.2 0.1
v -0.1 0.4 0.1
v -0.1 0.5 0.1
v -0.1 0.6 0.1
v -5.96046e-08 0.8 0.1
v -5.96046e-08 1 0.1
v 0.1 0.3 0.1
v 0.1 0.5 0.1
v 0.1 0.8 0.1
v 0.2 0 0.1
v 0.2 0.2 0.1
v 0.2 0.3 0.1
v 0.2 0.4 0.1
v 0.2 0.6 0.1
v 0.2 0.8 0.1
v 0.2 1 0.1
v 0.3 0.1 0.1
v 0.3 0.3 0.1
v 0.3 0.6 0.1
v 0.4 0.6 0.1
v 0.4 0.7 0.1
v 0.5 0.1 0.1
v 0.5 0.3 0.1
v 0.5 0.5 0.1
v 0.5 0.7 0.1
v 0.6 0 0.1
v 0.6 0.3 0.1
v 0.6 0.4 0.1
v 0.6 0.5 0.1
v 0.6 0.7 0.1
v 0.7 0.3 0.1
v 0.7 0.5 0.1
v 0.4 0.8 -0.1
v 0.4 0.9 -0.1
v 0.5 0.8 -0.1
v 0.5 0.9 -0.1
v 0.1 0.6 -0.2
v 0.1 0.7 -0.2
v 0.2 0.6 -0.2
v 0.3 0.6 -0.2
v 0.3 0.7 -0.2
v 0.1 0.6 0.2
v 0.1 0.7 0.2
v 0.2 0.6 0.2
v 0.3 0.6 0.2
v 0.3 0.7 0.2
v 0.4 0.8 0.1
v 0.4 0.9 0.1
v 0.5 0.8 0.1
v 0.5 0.9 0.1
v -0.6 0.5 -0.1
v -0.6 0.6 -0.1
v -0.5 0 -0.1
v -0.5 0.4 -0.1
v -0.5 0.6 -0.1
v -0.4 0.1 -0.1
v -0.4 0.3 -0.1
v -0.4 0.4 -0.1
v -0.4 0.5 -0.1
v -0.2 0.1 -0.1
v -0.2 0.3 -0.1
v -0.1 0 -0.1
v -0.1 0.2 -0.1
v -0.1 0.4 -0.1
v -0.1 0.5 -0.1
v -0.1 0.6 -0.1
v -5.96046e-08 0.8 -0.1
v -5.96046e-08 1 -0.1
v 0.1 0.3 -0.1
v 0.1 0.5 -0.1
v 0.1 0.8 -0.1
v 0.2 0 -0.1
v 0.2 0.2 -0.1
v 0.2 0.3 -0.1
v 0.2 0.4 -0.1
v 0.2 0.6 -0.1
v 0.2 0.8 -0.1
v 0.2 1 -0.1
v 0.3 0.1 -0.1
v 0.3 0.3 -0.1
v 0.3 0.6 -0.1
v 0.4 0.6 -0.1
v 0.4 0.7 -0.1
v 0.5 0.1 -0.1
v 0.5 0.3 -0.1
v 0.5 0.5 -0.1
v 0.5 0.7 -0.1
v 0.6 0 -0.1
v 0.6 0.3 -0.1
v 0.6 0.4 -0.1
v 0.6 0.5 -0.1
v 0.6 0.7 -0.1
v 0.7 0.3 -0.1
v 0.7 0.5 -0.1
v -0.5 0.6 -0.2
v -0.5 1 -0.2
v -0.1 0.5 -0.2
v -0.1 0.6 -0.2
v -0.1 0.8 -0.2
v -0.1 1 -0.2
v -5.96046e-08 0.6 -0.2
v -5.96046e-08 0.8 -0.2
v 0.1 0.3 -0.2
v 0.1 0.5 -0.2
v 0.2 0.3 -0.2
v 0.2 0.6 -0.2
v 0.4 0.7 -0.2
v 0.4 0.8 -0.2
v 0.5 0.7 -0.2
v 0.5 0.8 -0.2
v -5.96046e-08 0.6 -0.3
v -5.96046e-08 0.8 -0.3
v 0.1 0.7 -0.3
v 0.1 0.8 -0.3
v 0.3 0.6 -0.3
v 0.3 0.7 -0.3
v 0.4 0.6 -0.3
v 0.4 0.7 -0.3
v 0.4 0.8 -0.3
v 0.4 0.9 -0.3
v 0.5 0.8 -0.3
v 0.5 0.9 -0.3
v -0.5 0 0.1
v -0.1 0 0.1
v 0.2 0 0.1
v 0.6 0 0.1
v -0.5 0 -0.1
v -0.1 0 -0.1
v 0.2 0 -0.1
v 0.6 0 -0.1
v -0.1 0.2 0.1
v 0.2 0.2 0.1
v -0.1 0.2 -0.1
v 0.2 0.2 -0.1
v 0.1 0.3 0.2
v 0.2 0.3 0.2
v 0.1 0.3 0.1
v 0.2 0.3 0.1
v 0.6 0.3 0.1
v 0.7 0.3 0.1
v 0.1 0.3 -0.1
v 0.2 0.3 -0.1
v 0.6 0.3 -0.1
v 0.7 0.3 -0.1
v 0.1 0.3 -0.2
v 0.2 0.3 -0.2
v -0.1 0.5 0.2
v 0.1 0.5 0.2
v -0.6 0.5 0.1
v -0.4 0.5 0.1
v -0.1 0.5 0.1
v 0.1 0.5 0.1
v -0.6 0.5 -0.1
v -0.4 0.5 -0.1
v -0.1 0.5 -0.1
v 0.1 0.5 -0.1
v -0.1 0.5 -0.2
v 0.1 0.5 -0.2
v -5.96046e-08 0.6 0.3
v 0.3 0.6 0.3
v 0.4 0.6 0.3
v -0.5 0.6 0.2
v -0.1 0.6 0.2
v -5.96046e-08 0.6 0.2
v 0.2 0.6 0.2
v 0.3 0.6 0.2
v -0.5 0.6 0.1
v -0.1 0.6 0.1
v 0.3 0.6 0.1
v 0.4 0.6 0.1
v -0.5 0.6 -0.1
v -0.1 0.6 -0.1
v 0.3 0.6 -0.1
v 0.4 0.6 -0.1
v -0.5 0.6 -0.2
v -0.1 0.6 -0.2
v -5.96046e-08 0.6 -0.2
v 0.2 0.6 -0.2
v 0.3 0.6 -0.2
v -5.96046e-08 0.6 -0.3
v 0.3 0.6 -0.3
v 0.4 0.6 -0.3
v 0.4 0.7 0.2
v 0.5 0.7 0.2
v 0.4 0.7 0.1
v 0.5 0.7 0.1
v 0.4 0.7 -0.1
v 0.5 0.7 -0.1
v 0.4 0.7 -0.2
v 0.5 0.7 -0.2
v 0.4 0.8 0.3
v 0.5 0.8 0.3
v 0.4 0.8 0.2
v 0.5 0.8 0.2
v 0.1 0.8 0.1
v 0.2 0.8 0.1
v 0.1 0.8 -0.1
v 0.2 0.8 -0.1
v 0.4 0.8 -0.2
v 0.5 0.8 -0.2
v 0.4 0.8 -0.3
v 0.5 0.8 -0.3
v -0.5 0.4 0.1
v -0.4 0.4 0.1
v -0.5 0.4 -0.1
v -0.4 0.4 -0.1
v 0.6 0.5 0.1
v 0.7 0.5 0.1
v 0.6 0.5 -0.1
v 0.7 0.5 -0.1
v 0.1 0.6 0.2
v 0.2 0.6 0.2
v -0.6 0.6 0.1
v -0.5 0.6 0.1
v 0.1 0.6 0.1
v 0.2 0.6 0.1
v 0.3 0.6 0.1
v -0.6 0.6 -0.1
v -0.5 0.6 -0.1
v 0.1 0.6 -0.1
v 0.2 0.6 -0.1
v 0.3 0.6 -0.1
v 0.1 0.6 -0.2
v 0.2 0.6 -0.2
v 0.1 0.7 0.3
v 0.3 0.7 0.3
v 0.4 0.7 0.3
v 0.1 0.7 0.2
v 0.3 0.7 0.2
v 0.4 0.7 0.2
v 0.5 0.7 0.1
v 0.6 0.7 0.1
v 0.5 0.7 -0.1
v 0.6 0.7 -0.1
v 0.1 0.7 -0.2
v 0.3 0.7 -0.2
v 0.4 0.7 -0.2
v 0.1 0.7 -0.3
v 0.3 0.7 -0.3
v 0.4 0.7 -0.3
v -5.96046e-08 0.8 0.3
v 0.1 0.8 0.3
v -0.1 0.8 0.2
v -5.96046e-08 0.8 0.2
v -5.96046e-08 0.8 0.1
v 0.1 0.8 0.1
v 0.4 0.8 0.1
v 0.5 0.8 0.1
v -5.96046e-08 0.8 -0.1
v 0.1 0.8 -0.1
v 0.4 0.8 -0.1
v 0.5 0.8 -0.1
v -0.1 0.8 -0.2
v -5.96046e-08 0.8 -0.2
v -5.96046e-08 0.8 -0.3
v 0.1 0.8 -0.3
v 0.4 0.9 0.3
v 0.5 0.9 0.3
v 0.4 0.9 0.2
v 0.5 0.9 0.2
v 0.4 0.9 0.1
v 0.5 0.9 0.1
v 0.4 0.9 -0.1
v 0.5 0.9 -0.1
v 0.4 0.9 -0.2
v 0.5 0.9 -0.2
v 0.4 0.9 -0.3
v 0.5 0.9 -0.3
v -0.5 1 0.2
v -0.1 1 0.2
v -5.96046e-08 1 0.1
v 0.2 1 0.1
v -5.96046e-08 1 -0.1
v 0.2 1 -0.1
v -0.5 1 -0.2
v -0.1 1 -0.2

# faces
f 3/2/1 2/2/1 1/2/1
f 4/2/1 2/2/1 3/2/1
f 7/5/1 6/5/1 5/5/1
f 8/5/1 6/5/1 7/5/1
f 13/4/1 11/4/1 10/4/1
f 13/4/1 12/4/1 11/4/1
f 13/4/1 10/4/1 9/4/1
f 14/4/1 12/4/1 13/4/1
f 17/2/1 16/2/1 15/2/1
f 18/2/1 16/2/1 17/2/1
f 23/5/1 20/5/1 19/5/1
f 24/5/1 20/5/1 23/5/1
f 25/5/1 22/5/1 21/5/1
f 26/5/1 22/5/1 25/5/1
f 31/5/1 28/5/1 27/5/1
f 32/5/1 28/5/1 31/5/1
f 35/5/1 30/5/1 29/5/1
f 36/5/1 30/5/1 35/5/1
f 37/5/1 34/5/1 33/5/1
f 38/5/1 34/5/1 37/5/1
f 43/5/1 40/5/1 39/5/1
f 44/5/1 40/5/1 43/5/1
f 45/5/1 42/5/1 41/5/1
f 46/5/1 42/5/1 45/5/1
f 49/5/1 48/5/1 47/5/1
f 50/5/1 48/5/1 49/5/1
f 55/2/1 52/2/1 51/2/1
f 55/2/1 54/2/1 53/2/1
f 55/2/1 53/2/1 52/2/1
f 56/2/1 54/2/1 55/2/1
f 60/2/1 58/2/1 57/2/1
f 61/2/1 58/2/1 60/2/1
f 62/2/1 58/2/1 61/2/1
f 63/2/1 58/2/1 62/2/1
f 65/1/1 60/1/1 59/1/1
f 66/2/1 61/2/1 60/2/1
f 66/1/1 60/1/1 65/1/1
f 67/2/1 61/2/1 66/2/1
f 68/2/1 63/2/1 62/2/1
f 69/1/1 64/1/1 63/1/1
f 69/2/1 63/2/1 68/2/1
f 70/1/1 64/1/1 69/1/1
f 71/5/2 72/5/2 73/5/2
f 73/5/2 72/5/2 74/5/2
f 75/4/2 76/4/2 77/4/2
f 77/4/2 76/4/2 78/4/2
f 79/5/2 80/5/2 84/5/2
f 81/5/2 82/5/2 84/5/2
f 80/5/2 81/5/2 84/5/2
f 84/5/2 82/5/2 85/5/2
f 83/5/2 84/5/2 87/5/2
f 85/5/2 86/5/2 87/5/2
f 84/5/2 85/5/2 87/5/2
f 87/5/2 86/5/2 88/5/2
f 88/5/2 86/5/2 89/5/2
f 89/5/2 86/5/2 90/5/2
f 91/5/2 92/5/2 95/5/2
f 93/5/2 94/5/2 96/5/2
f 91/5/2 95/5/2 97/5/2
f 97/5/2 95/5/2 98/5/2
f 96/5/2 94/5/2 99/5/2
f 99/5/2 94/5/2 100/5/2
f 101/5/2 102/5/2 103/5/2
f 103/5/2 102/5/2 104/5/2
f 105/2/2 106/2/2 109/2/2
f 109/2/2 106/2/2 110/2/2
f 110/2/2 106/2/2 111/2/2
f 107/2/2 108/2/2 112/2/2
f 112/2/2 108/2/2 113/2/2
f 113/2/2 108/2/2 114/2/2
f 115/2/2 116/2/2 120/2/2
f 117/2/2 118/2/2 120/2/2
f 116/2/2 117/2/2 120/2/2
f 120/2/2 118/2/2 121/2/2
f 121/2/2 118/2/2 122/2/2
f 122/2/2 118/2/2 123/2/2
f 119/1/2 120/1/2 125/1/2
f 120/2/2 121/2/2 126/2/2
f 125/1/2 120/1/2 126/1/2
f 126/2/2 121/2/2 127/2/2
f 122/2/2 123/2/2 128/2/2
f 123/1/2 124/1/2 129/1/2
f 128/2/2 123/2/2 129/2/2
f 129/1/2 124/1/2 130/1/2
f 131/5/2 132/5/2 133/5/2
f 133/5/2 132/5/2 134/5/2
f 135/3/2 136/3/2 137/3/2
f 137/3/2 136/3/2 138/3/2
f 139/2/2 140/2/2 141/2/2
f 141/2/2 140/2/2 142/2/2
f 145/5/3 144/5/3 143/5/3
f 146/5/3 144/5/3 145/5/3
f 147/5/3 145/5/3 143/5/3
f 148/5/3 145/5/3 147/5/3
f 149/2/3 148/2/3 147/2/3
f 150/2/3 148/2/3 149/2/3
f 153/1/3 152/1/3 151/1/3
f 154/1/3 152/1/3 153/1/3
f 158/4/3 156/4/3 155/4/3
f 159/4/3 156/4/3 158/4/3
f 160/4/3 156/4/3 159/4/3
f 161/5/3 158/5/3 157/5/3
f 161/5/3 159/5/3 158/5/3
f 162/5/3 159/5/3 161/5/3
f 164/5/3 161/5/3 157/5/3
f 165/5/3 164/5/3 163/5/3
f 166/5/3 161/5/3 164/5/3
f 166/5/3 164/5/3 165/5/3
f 169/2/3 168/2/3 167/2/3
f 170/2/3 168/2/3 169/2/3
f 175/2/3 172/2/3 171/2/3
f 176/5/3 174/5/3 173/5/3
f 177/5/3 174/5/3 176/5/3
f 178/5/3 174/5/3 177/5/3
f 179/2/3 175/2/3 171/2/3
f 180/5/3 176/5/3 173/5/3
f 180/4/3 177/4/3 176/4/3
f 181/5/3 178/5/3 177/5/3
f 181/4/3 177/4/3 180/4/3
f 182/5/3 180/5/3 173/5/3
f 182/5/3 181/5/3 180/5/3
f 183/5/3 181/5/3 182/5/3
f 184/5/3 178/5/3 181/5/3
f 184/5/3 181/5/3 183/5/3
f 184/2/3 179/2/3 178/2/3
f 185/2/3 175/2/3 179/2/3
f 185/2/3 179/2/3 184/2/3
f 186/2/3 175/2/3 185/2/3
f 189/2/3 185/2/3 184/2/3
f 189/2/3 184/2/3 183/2/3
f 190/2/3 185/2/3 189/2/3
f 191/5/3 188/5/3 187/5/3
f 193/2/3 189/2/3 183/2/3
f 194/2/3 189/2/3 193/2/3
f 197/5/3 188/5/3 191/5/3
f 198/5/3 188/5/3 197/5/3
f 199/5/3 193/5/3 192/5/3
f 199/5/3 194/5/3 193/5/3
f 199/5/3 195/5/3 194/5/3
f 200/5/3 195/5/3 199/5/3
f 201/2/3 196/2/3 195/2/3
f 202/2/3 201/2/3 195/2/3
f 204/5/3 199/5/3 192/5/3
f 204/4/3 200/4/3 199/4/3
f 205/5/3 195/5/3 200/5/3
f 205/4/3 200/4/3 204/4/3
f 206/2/3 203/2/3 202/2/3
f 206/2/3 202/2/3 195/2/3
f 207/2/3 203/2/3 206/2/3
f 208/5/3 204/5/3 192/5/3
f 208/5/3 205/5/3 204/5/3
f 209/5/3 195/5/3 205/5/3
f 209/5/3 205/5/3 208/5/3
f 210/2/3 206/2/3 195/2/3
f 210/5/3 195/5/3 209/5/3
f 211/3/3 207/3/3 206/3/3
f 211/2/3 206/2/3 210/2/3
f 212/3/3 207/3/3 211/3/3
f 213/2/3 210/2/3 209/2/3
f 213/2/3 211/2/3 210/2/3
f 214/2/3 211/2/3 213/2/3
f 217/2/3 216/2/3 215/2/3
f 218/2/3 216/2/3 217/2/3
f 221/5/3 220/5/3 219/5/3
f 222/5/3 220/5/3 221/5/3
f 223/5/3 220/5/3 222/5/3
f 224/5/4 225/5/4 226/5/4
f 226/5/4 225/5/4 227/5/4
f 227/5/4 225/5/4 228/5/4
f 229/2/4 230/2/4 231/2/4
f 231/2/4 230/2/4 232/2/4
f 233/2/4 234/2/4 237/2/4
f 235/5/4 236/5/4 238/5/4
f 238/5/4 236/5/4 239/5/4
f 239/5/4 236/5/4 240/5/4
f 233/2/4 237/2/4 241/2/4
f 235/5/4 238/5/4 242/5/4
f 238/4/4 239/4/4 242/4/4
f 239/5/4 240/5/4 243/5/4
f 242/4/4 239/4/4 243/4/4
f 235/5/4 242/5/4 244/5/4
f 242/5/4 243/5/4 244/5/4
f 244/5/4 243/5/4 245/5/4
f 243/5/4 240/5/4 246/5/4
f 245/5/4 243/5/4 246/5/4
f 240/2/4 241/2/4 246/2/4
f 241/2/4 237/2/4 247/2/4
f 246/2/4 241/2/4 247/2/4
f 247/2/4 237/2/4 248/2/4
f 246/2/4 247/2/4 251/2/4
f 245/2/4 246/2/4 251/2/4
f 251/2/4 247/2/4 252/2/4
f 249/5/4 250/5/4 253/5/4
f 245/2/4 251/2/4 255/2/4
f 255/2/4 251/2/4 256/2/4
f 253/5/4 250/5/4 259/5/4
f 259/5/4 250/5/4 260/5/4
f 254/5/4 255/5/4 261/5/4
f 255/5/4 256/5/4 261/5/4
f 256/5/4 257/5/4 261/5/4
f 261/5/4 257/5/4 262/5/4
f 257/2/4 258/2/4 263/2/4
f 257/2/4 263/2/4 264/2/4
f 254/5/4 261/5/4 266/5/4
f 261/4/4 262/4/4 266/4/4
f 262/5/4 257/5/4 267/5/4
f 266/4/4 262/4/4 267/4/4
f 264/2/4 265/2/4 268/2/4
f 257/2/4 264/2/4 268/2/4
f 268/2/4 265/2/4 269/2/4
f 254/5/4 266/5/4 270/5/4
f 266/5/4 267/5/4 270/5/4
f 267/5/4 257/5/4 271/5/4
f 270/5/4 267/5/4 271/5/4
f 257/2/4 268/2/4 272/2/4
f 271/5/4 257/5/4 272/5/4
f 268/3/4 269/3/4 273/3/4
f 272/2/4 268/2/4 273/2/4
f 273/3/4 269/3/4 274/3/4
f 271/2/4 272/2/4 275/2/4
f 272/2/4 273/2/4 275/2/4
f 275/2/4 273/2/4 276/2/4
f 277/4/4 278/4/4 280/4/4
f 280/4/4 278/4/4 281/4/4
f 281/4/4 278/4/4 282/4/4
f 279/5/4 280/5/4 283/5/4
f 280/5/4 281/5/4 283/5/4
f 283/5/4 281/5/4 284/5/4
f 279/5/4 283/5/4 286/5/4
f 285/5/4 286/5/4 287/5/4
f 286/5/4 283/5/4 288/5/4
f 287/5/4 286/5/4 288/5/4
f 289/2/4 290/2/4 291/2/4
f 291/2/4 290/2/4 292/2/4
f 293/5/4 294/5/4 295/5/4
f 295/5/4 294/5/4 296/5/4
f 293/5/4 295/5/4 297/5/4
f 297/5/4 295/5/4 298/5/4
f 297/2/4 298/2/4 299/2/4
f 299/2/4 298/2/4 300/2/4
f 301/1/4 302/1/4 303/1/4
f 303/1/4 302/1/4 304/1/4
f 309/5/5 306/5/5 305/5/5
f 310/5/5 306/5/5 309/5/5
f 311/5/5 308/5/5 307/5/5
f 312/5/5 308/5/5 311/5/5
f 315/2/5 314/2/5 313/2/5
f 316/2/5 314/2/5 315/2/5
f 319/5/5 318/5/5 317/5/5
f 320/5/5 318/5/5 319/5/5
f 325/2/5 322/2/5 321/2/5
f 326/2/5 322/2/5 325/2/5
f 327/5/5 324/5/5 323/5/5
f 328/5/5 324/5/5 327/5/5
f 333/5/5 330/5/5 329/5/5
f 334/5/5 330/5/5 333/5/5
f 335/2/5 332/2/5 331/2/5
f 336/2/5 332/2/5 335/2/5
f 339/5/5 338/5/5 337/5/5
f 340/5/5 338/5/5 339/5/5
f 346/5/5 342/5/5 341/5/5
f 347/5/5 342/5/5 346/5/5
f 348/2/5 343/2/5 342/2/5
f 348/5/5 342/5/5 347/5/5
f 349/4/5 345/4/5 344/4/5
f 350/4/5 345/4/5 349/4/5
f 351/2/5 343/2/5 348/2/5
f 352/2/5 343/2/5 351/2/5
f 357/4/5 354/4/5 353/4/5
f 358/4/5 354/4/5 357/4/5
f 361/2/5 356/2/5 355/2/5
f 362/5/5 360/5/5 359/5/5
f 362/5/5 361/5/5 360/5/5
f 363/2/5 356/2/5 361/2/5
f 363/5/5 361/5/5 362/5/5
f 364/2/5 356/2/5 363/2/5
f 367/2/5 366/2/5 365/2/5
f 368/2/5 366/2/5 367/2/5
f 371/2/5 370/2/5 369/2/5
f 372/2/5 370/2/5 371/2/5
f 375/1/5 374/1/5 373/1/5
f 376/1/5 374/1/5 375/1/5
f 379/5/5 378/5/5 377/5/5
f 380/5/5 378/5/5 379/5/5
f 383/1/5 382/1/5 381/1/5
f 384/1/5 382/1/5 383/1/5
f 385/5/6 386/5/6 387/5/6
f 387/5/6 386/5/6 388/5/6
f 389/2/6 390/2/6 391/2/6
f 391/2/6 390/2/6 392/2/6
f 393/5/6 394/5/6 397/5/6
f 397/5/6 394/5/6 398/5/6
f 395/2/6 396/2/6 400/2/6
f 400/2/6 396/2/6 401/2/6
f 398/2/6 399/2/6 402/2/6
f 397/2/6 398/2/6 402/2/6
f 402/2/6 399/2/6 403/2/6
f 403/2/6 399/2/6 404/2/6
f 402/5/6 403/5/6 405/5/6
f 405/5/6 403/5/6 406/5/6
f 407/5/6 408/5/6 410/5/6
f 408/2/6 409/2/6 411/2/6
f 410/5/6 408/5/6 411/5/6
f 411/2/6 409/2/6 412/2/6
f 413/3/6 414/3/6 415/3/6
f 415/3/6 414/3/6 416/3/6
f 411/2/6 412/2/6 418/2/6
f 418/2/6 412/2/6 419/2/6
f 417/5/6 418/5/6 420/5/6
f 418/2/6 419/2/6 421/2/6
f 420/5/6 418/5/6 421/5/6
f 421/2/6 419/2/6 422/2/6
f 423/5/6 424/5/6 426/5/6
f 426/5/6 424/5/6 427/5/6
f 425/5/6 426/5/6 427/5/6
f 427/5/6 424/5/6 428/5/6
f 425/5/6 427/5/6 431/5/6
f 429/2/6 430/2/6 433/2/6
f 433/2/6 430/2/6 434/2/6
f 431/5/6 432/5/6 435/5/6
f 425/5/6 431/5/6 435/5/6
f 435/5/6 432/5/6 436/5/6
f 436/5/6 432/5/6 437/5/6
f 437/5/6 432/5/6 438/5/6
f 439/1/6 440/1/6 441/1/6
f 441/1/6 440/1/6 442/1/6
f 441/2/6 442/2/6 443/2/6
f 443/2/6 442/2/6 444/2/6
f 445/2/6 446/2/6 447/2/6
f 447/2/6 446/2/6 448/2/6
f 447/1/6 448/1/6 449/1/6
f 449/1/6 448/1/6 450/1/6
f 453/5/6 454/5/6 455/5/6
f 455/5/6 454/5/6 456/5/6
f 451/4/6 452/4/6 457/4/6
f 457/4/6 452/4/6 458/4/6
