# MagicaVoxel @ Ephtracy

# group
o 

# material
mtllib van_c.mtl
usemtl palette

# normals
vn -1 0 0
vn 1 0 0
vn 0 0 1
vn 0 0 -1
vn 0 -1 0
vn 0 1 0

# texcoords
vt 0.876953 0.5
vt 0.880859 0.5
vt 0.916016 0.5
vt 0.947266 0.5
vt 0.970703 0.5
vt 0.974609 0.5

# verts
v -1.5 0.2 0.7
v -1.5 0.2 0.1
v -1.5 0.2 -0.2
v -1.5 0.2 -0.8
v -1.5 0.4 0.7
v -1.5 0.4 0.5
v -1.5 0.4 0.2
v -1.5 0.4 0.1
v -1.5 0.4 -0.2
v -1.5 0.4 -0.3
v -1.5 0.4 -0.6
v -1.5 0.4 -0.8
v -1.5 0.5 0.7
v -1.5 0.5 0.5
v -1.5 0.5 0.2
v -1.5 0.5 -0.3
v -1.5 0.5 -0.6
v -1.5 0.5 -0.8
v -1.5 0.8 0.5
v -1.5 0.8 -0.6
v -1.5 1.2 0.5
v -1.5 1.2 -0.6
v -1.5 1.4 0.7
v -1.5 1.4 -0.8
v -1.3 0 0.7
v -1.3 0 0.5
v -1.3 0 -0.6
v -1.3 0 -0.8
v -1.3 0.2 0.7
v -1.3 0.2 0.5
v -1.3 0.2 -0.6
v -1.3 0.2 -0.8
v 0.8 0 0.7
v 0.8 0 0.5
v 0.8 0 -0.6
v 0.8 0 -0.8
v 0.8 0.2 0.7
v 0.8 0.2 0.5
v 0.8 0.2 -0.6
v 0.8 0.2 -0.8
v 1.2 0.2 -0.6
v 1.2 0.2 -0.7
v 1.2 0.3 -0.6
v 1.2 0.3 -0.7
v 1.3 0.7 0.8
v 1.3 0.7 0.7
v 1.3 0.7 -0.8
v 1.3 0.7 -0.9
v 1.3 0.8 0.7
v 1.3 0.8 -0.8
v 1.3 0.9 0.8
v 1.3 0.9 0.7
v 1.3 0.9 -0.8
v 1.3 0.9 -0.9
v -0.9 0 0.7
v -0.9 0 0.5
v -0.9 0 -0.6
v -0.9 0 -0.8
v -0.9 0.2 0.7
v -0.9 0.2 0.5
v -0.9 0.2 -0.6
v -0.9 0.2 -0.8
v 0.8 0.2 -0.6
v 0.8 0.2 -0.7
v 0.8 0.3 -0.6
v 0.8 0.3 -0.7
v 1 1.3 0.7
v 1 1.3 -0.8
v 1 1.4 0.7
v 1 1.4 -0.8
v 1.1 1.2 0.7
v 1.1 1.2 0.6
v 1.1 1.2 -0.7
v 1.1 1.2 -0.8
v 1.1 1.3 0.7
v 1.1 1.3 -0.8
v 1.2 0 0.7
v 1.2 0 0.5
v 1.2 0 -0.6
v 1.2 0 -0.8
v 1.2 0.2 0.7
v 1.2 0.2 0.5
v 1.2 0.2 -0.6
v 1.2 0.2 -0.8
v 1.2 1.1 0.7
v 1.2 1.1 0.6
v 1.2 1.1 -0.7
v 1.2 1.1 -0.8
v 1.2 1.2 0.7
v 1.2 1.2 0.6
v 1.2 1.2 -0.7
v 1.2 1.2 -0.8
v 1.3 1 0.7
v 1.3 1 0.6
v 1.3 1 -0.7
v 1.3 1 -0.8
v 1.3 1.1 0.7
v 1.3 1.1 0.6
v 1.3 1.1 -0.7
v 1.3 1.1 -0.8
v 1.4 0.7 0.8
v 1.4 0.7 0.7
v 1.4 0.7 -0.8
v 1.4 0.7 -0.9
v 1.4 0.9 0.8
v 1.4 0.9 0.7
v 1.4 0.9 0.6
v 1.4 0.9 -0.7
v 1.4 0.9 -0.8
v 1.4 0.9 -0.9
v 1.4 1 0.7
v 1.4 1 0.6
v 1.4 1 -0.7
v 1.4 1 -0.8
v 1.5 0.8 0.7
v 1.5 0.8 0.6
v 1.5 0.8 -0.7
v 1.5 0.8 -0.8
v 1.5 0.9 0.7
v 1.5 0.9 0.6
v 1.5 0.9 -0.7
v 1.5 0.9 -0.8
v 1.6 0.2 0.7
v 1.6 0.2 -0.8
v 1.6 0.3 0.3
v 1.6 0.3 0.2
v 1.6 0.3 0.1
v 1.6 0.3 0
v 1.6 0.3 -0.1
v 1.6 0.3 -0.2
v 1.6 0.3 -0.3
v 1.6 0.3 -0.4
v 1.6 0.4 0.7
v 1.6 0.4 0.4
v 1.6 0.4 -0.5
v 1.6 0.4 -0.8
v 1.6 0.5 0.3
v 1.6 0.5 0.2
v 1.6 0.5 0.1
v 1.6 0.5 0
v 1.6 0.5 -0.1
v 1.6 0.5 -0.2
v 1.6 0.5 -0.3
v 1.6 0.5 -0.4
v 1.6 0.6 0.7
v 1.6 0.6 0.4
v 1.6 0.6 -0.5
v 1.6 0.6 -0.8
v 1.6 0.8 0.7
v 1.6 0.8 -0.8
v 1.3 0.7 0.8
v 1.3 0.9 0.8
v 1.4 0.7 0.8
v 1.4 0.9 0.8
v -1.5 0.2 0.7
v -1.5 0.4 0.7
v -1.5 0.5 0.7
v -1.5 1.4 0.7
v -1.4 0.4 0.7
v -1.4 0.5 0.7
v -1.3 0 0.7
v -1.3 0.2 0.7
v -1.3 0.4 0.7
v -1.3 0.8 0.7
v -1.3 1.2 0.7
v -1.2 0.1 0.7
v -1.2 0.3 0.7
v -1 0.1 0.7
v -1 0.3 0.7
v -0.9 0 0.7
v -0.9 0.2 0.7
v -0.9 0.4 0.7
v -0.8 0.3 0.7
v -0.8 0.4 0.7
v -0.7 0.8 0.7
v -0.7 1.2 0.7
v -0.6 0.8 0.7
v -0.6 1.2 0.7
v 0 0.8 0.7
v 0 1.2 0.7
v 0.1 0.8 0.7
v 0.1 1.2 0.7
v 0.7 0.8 0.7
v 0.7 1.2 0.7
v 0.8 0 0.7
v 0.8 0.2 0.7
v 0.8 0.3 0.7
v 0.8 0.4 0.7
v 0.8 0.8 0.7
v 0.8 1.2 0.7
v 0.9 0.1 0.7
v 0.9 0.3 0.7
v 1 1.1 0.7
v 1 1.2 0.7
v 1 1.3 0.7
v 1 1.4 0.7
v 1.1 0.1 0.7
v 1.1 0.3 0.7
v 1.1 1 0.7
v 1.1 1.1 0.7
v 1.1 1.2 0.7
v 1.1 1.3 0.7
v 1.2 0 0.7
v 1.2 0.2 0.7
v 1.2 0.4 0.7
v 1.2 0.9 0.7
v 1.2 1 0.7
v 1.2 1.1 0.7
v 1.2 1.2 0.7
v 1.3 0.7 0.7
v 1.3 0.8 0.7
v 1.3 0.9 0.7
v 1.3 1 0.7
v 1.3 1.1 0.7
v 1.4 0.7 0.7
v 1.4 0.9 0.7
v 1.4 1 0.7
v 1.5 0.4 0.7
v 1.5 0.6 0.7
v 1.5 0.8 0.7
v 1.5 0.9 0.7
v 1.6 0.2 0.7
v 1.6 0.4 0.7
v 1.6 0.6 0.7
v 1.6 0.8 0.7
v -1.3 0 -0.6
v -1.3 0.2 -0.6
v -0.9 0 -0.6
v -0.9 0.2 -0.6
v 0.8 0 -0.6
v 0.8 0.2 -0.6
v 1.2 0 -0.6
v 1.2 0.2 -0.6
v 0.8 0.2 -0.7
v 0.8 0.3 -0.7
v 0.9 0.2 -0.7
v 0.9 0.3 -0.7
v 1.1 0.2 -0.7
v 1.1 0.3 -0.7
v 1.2 0.2 -0.7
v 1.2 0.3 -0.7
v -1.3 0 0.5
v -1.3 0.2 0.5
v -0.9 0 0.5
v -0.9 0.2 0.5
v 0.8 0 0.5
v 0.8 0.2 0.5
v 1.2 0 0.5
v 1.2 0.2 0.5
v 0.8 0.2 -0.6
v 0.8 0.3 -0.6
v 1.2 0.2 -0.6
v 1.2 0.3 -0.6
v -1.5 0.2 -0.8
v -1.5 0.4 -0.8
v -1.5 0.5 -0.8
v -1.5 1.4 -0.8
v -1.4 0.4 -0.8
v -1.4 0.5 -0.8
v -1.3 0 -0.8
v -1.3 0.2 -0.8
v -1.3 0.4 -0.8
v -1.3 0.8 -0.8
v -1.3 1.2 -0.8
v -1.2 0.1 -0.8
v -1.2 0.3 -0.8
v -1 0.1 -0.8
v -1 0.3 -0.8
v -0.9 0 -0.8
v -0.9 0.2 -0.8
v -0.9 0.4 -0.8
v -0.8 0.3 -0.8
v -0.8 0.4 -0.8
v -0.7 0.8 -0.8
v -0.7 1.2 -0.8
v -0.6 0.8 -0.8
v -0.6 1.2 -0.8
v 0 0.8 -0.8
v 0 1.2 -0.8
v 0.1 0.8 -0.8
v 0.1 1.2 -0.8
v 0.7 0.8 -0.8
v 0.7 1.2 -0.8
v 0.8 0 -0.8
v 0.8 0.2 -0.8
v 0.8 0.3 -0.8
v 0.8 0.4 -0.8
v 0.8 0.8 -0.8
v 0.8 1.2 -0.8
v 0.9 0.1 -0.8
v 0.9 0.3 -0.8
v 1 1.1 -0.8
v 1 1.2 -0.8
v 1 1.3 -0.8
v 1 1.4 -0.8
v 1.1 0.1 -0.8
v 1.1 0.3 -0.8
v 1.1 1 -0.8
v 1.1 1.1 -0.8
v 1.1 1.2 -0.8
v 1.1 1.3 -0.8
v 1.2 0 -0.8
v 1.2 0.2 -0.8
v 1.2 0.4 -0.8
v 1.2 0.9 -0.8
v 1.2 1 -0.8
v 1.2 1.1 -0.8
v 1.2 1.2 -0.8
v 1.3 0.7 -0.8
v 1.3 0.8 -0.8
v 1.3 0.9 -0.8
v 1.3 1 -0.8
v 1.3 1.1 -0.8
v 1.4 0.7 -0.8
v 1.4 0.9 -0.8
v 1.4 1 -0.8
v 1.5 0.4 -0.8
v 1.5 0.6 -0.8
v 1.5 0.8 -0.8
v 1.5 0.9 -0.8
v 1.6 0.2 -0.8
v 1.6 0.4 -0.8
v 1.6 0.6 -0.8
v 1.6 0.8 -0.8
v 1.3 0.7 -0.9
v 1.3 0.9 -0.9
v 1.4 0.7 -0.9
v 1.4 0.9 -0.9
v -1.3 0 0.7
v -0.9 0 0.7
v 0.8 0 0.7
v 1.2 0 0.7
v -1.3 0 0.5
v -0.9 0 0.5
v 0.8 0 0.5
v 1.2 0 0.5
v -1.3 0 -0.6
v -0.9 0 -0.6
v 0.8 0 -0.6
v 1.2 0 -0.6
v -1.3 0 -0.8
v -0.9 0 -0.8
v 0.8 0 -0.8
v 1.2 0 -0.8
v -1.5 0.2 0.7
v -1.3 0.2 0.7
v -0.9 0.2 0.7
v 0.8 0.2 0.7
v 1.2 0.2 0.7
v 1.6 0.2 0.7
v -1.3 0.2 0.5
v -0.9 0.2 0.5
v 0.8 0.2 0.5
v 1.2 0.2 0.5
v -1.5 0.2 0.1
v -1.4 0.2 0.1
v -1.5 0.2 -0.2
v -1.4 0.2 -0.2
v -1.3 0.2 -0.6
v -0.9 0.2 -0.6
v 0.8 0.2 -0.6
v 1.2 0.2 -0.6
v -1.5 0.2 -0.8
v -1.3 0.2 -0.8
v -0.9 0.2 -0.8
v 0.8 0.2 -0.8
v 1.2 0.2 -0.8
v 1.6 0.2 -0.8
v 0.8 0.3 -0.6
v 1.2 0.3 -0.6
v 0.8 0.3 -0.7
v 0.9 0.3 -0.7
v 1.1 0.3 -0.7
v 1.2 0.3 -0.7
v 1.3 0.7 0.8
v 1.4 0.7 0.8
v 1.3 0.7 0.7
v 1.4 0.7 0.7
v 1.3 0.7 -0.8
v 1.4 0.7 -0.8
v 1.3 0.7 -0.9
v 1.4 0.7 -0.9
v 0.8 0.2 -0.6
v 1.2 0.2 -0.6
v 0.8 0.2 -0.7
v 0.9 0.2 -0.7
v 1.1 0.2 -0.7
v 1.2 0.2 -0.7
v 1.5 0.8 0.7
v 1.6 0.8 0.7
v 1.5 0.8 0.6
v 1.5 0.8 -0.7
v 1.5 0.8 -0.8
v 1.6 0.8 -0.8
v 1.3 0.9 0.8
v 1.4 0.9 0.8
v 1.3 0.9 0.7
v 1.4 0.9 0.7
v 1.5 0.9 0.7
v 1.4 0.9 0.6
v 1.5 0.9 0.6
v 1.4 0.9 -0.7
v 1.5 0.9 -0.7
v 1.3 0.9 -0.8
v 1.4 0.9 -0.8
v 1.5 0.9 -0.8
v 1.3 0.9 -0.9
v 1.4 0.9 -0.9
v 1.3 1 0.7
v 1.4 1 0.7
v 1.3 1 0.6
v 1.4 1 0.6
v 1.3 1 -0.7
v 1.4 1 -0.7
v 1.3 1 -0.8
v 1.4 1 -0.8
v 1.2 1.1 0.7
v 1.3 1.1 0.7
v 1.2 1.1 0.6
v 1.3 1.1 0.6
v 1.2 1.1 -0.7
v 1.3 1.1 -0.7
v 1.2 1.1 -0.8
v 1.3 1.1 -0.8
v 1.1 1.2 0.7
v 1.2 1.2 0.7
v 1.1 1.2 0.6
v 1.2 1.2 0.6
v 1.1 1.2 -0.7
v 1.2 1.2 -0.7
v 1.1 1.2 -0.8
v 1.2 1.2 -0.8
v 1 1.3 0.7
v 1.1 1.3 0.7
v 1 1.3 -0.8
v 1.1 1.3 -0.8
v -1.5 1.4 0.7
v 1 1.4 0.7
v -1.5 1.4 -0.8
v 1 1.4 -0.8

# faces
f 5/2/1 2/2/1 1/2/1
f 6/2/1 2/2/1 5/2/1
f 7/2/1 2/2/1 6/2/1
f 8/4/1 3/4/1 2/4/1
f 8/2/1 2/2/1 7/2/1
f 9/2/1 4/2/1 3/2/1
f 9/4/1 3/4/1 8/4/1
f 10/2/1 4/2/1 9/2/1
f 11/2/1 4/2/1 10/2/1
f 12/2/1 4/2/1 11/2/1
f 13/3/1 6/3/1 5/3/1
f 14/6/1 7/6/1 6/6/1
f 14/3/1 6/3/1 13/3/1
f 15/5/1 8/5/1 7/5/1
f 15/6/1 7/6/1 14/6/1
f 15/5/1 9/5/1 8/5/1
f 15/5/1 10/5/1 9/5/1
f 16/6/1 11/6/1 10/6/1
f 16/5/1 10/5/1 15/5/1
f 17/3/1 12/3/1 11/3/1
f 17/6/1 11/6/1 16/6/1
f 18/3/1 12/3/1 17/3/1
f 19/6/1 14/6/1 13/6/1
f 19/6/1 16/6/1 15/6/1
f 19/6/1 18/6/1 17/6/1
f 19/6/1 17/6/1 16/6/1
f 19/6/1 15/6/1 14/6/1
f 20/6/1 18/6/1 19/6/1
f 21/6/1 19/6/1 13/6/1
f 21/1/1 20/1/1 19/1/1
f 22/6/1 18/6/1 20/6/1
f 22/1/1 20/1/1 21/1/1
f 23/6/1 21/6/1 13/6/1
f 23/6/1 22/6/1 21/6/1
f 24/6/1 18/6/1 22/6/1
f 24/6/1 22/6/1 23/6/1
f 29/5/1 26/5/1 25/5/1
f 30/5/1 26/5/1 29/5/1
f 31/5/1 28/5/1 27/5/1
f 32/5/1 28/5/1 31/5/1
f 37/5/1 34/5/1 33/5/1
f 38/5/1 34/5/1 37/5/1
f 39/5/1 36/5/1 35/5/1
f 40/5/1 36/5/1 39/5/1
f 43/2/1 42/2/1 41/2/1
f 44/2/1 42/2/1 43/2/1
f 49/6/1 46/6/1 45/6/1
f 50/6/1 48/6/1 47/6/1
f 51/6/1 49/6/1 45/6/1
f 52/6/1 49/6/1 51/6/1
f 53/6/1 48/6/1 50/6/1
f 54/6/1 48/6/1 53/6/1
f 55/5/2 56/5/2 59/5/2
f 59/5/2 56/5/2 60/5/2
f 57/5/2 58/5/2 61/5/2
f 61/5/2 58/5/2 62/5/2
f 63/2/2 64/2/2 65/2/2
f 65/2/2 64/2/2 66/2/2
f 67/6/2 68/6/2 69/6/2
f 69/6/2 68/6/2 70/6/2
f 71/6/2 72/6/2 75/6/2
f 73/6/2 74/6/2 75/6/2
f 72/6/2 73/6/2 75/6/2
f 75/6/2 74/6/2 76/6/2
f 77/5/2 78/5/2 81/5/2
f 81/5/2 78/5/2 82/5/2
f 79/5/2 80/5/2 83/5/2
f 83/5/2 80/5/2 84/5/2
f 85/6/2 86/6/2 89/6/2
f 86/1/2 87/1/2 90/1/2
f 89/6/2 86/6/2 90/6/2
f 87/6/2 88/6/2 91/6/2
f 90/1/2 87/1/2 91/1/2
f 91/6/2 88/6/2 92/6/2
f 93/6/2 94/6/2 97/6/2
f 94/1/2 95/1/2 98/1/2
f 97/6/2 94/6/2 98/6/2
f 95/6/2 96/6/2 99/6/2
f 98/1/2 95/1/2 99/1/2
f 99/6/2 96/6/2 100/6/2
f 101/6/2 102/6/2 105/6/2
f 105/6/2 102/6/2 106/6/2
f 103/6/2 104/6/2 109/6/2
f 109/6/2 104/6/2 110/6/2
f 106/6/2 107/6/2 111/6/2
f 107/1/2 108/1/2 112/1/2
f 111/6/2 107/6/2 112/6/2
f 108/6/2 109/6/2 113/6/2
f 112/1/2 108/1/2 113/1/2
f 113/6/2 109/6/2 114/6/2
f 115/6/2 116/6/2 119/6/2
f 116/1/2 117/1/2 120/1/2
f 119/6/2 116/6/2 120/6/2
f 117/6/2 118/6/2 121/6/2
f 120/1/2 117/1/2 121/1/2
f 121/6/2 118/6/2 122/6/2
f 123/2/2 124/2/2 125/2/2
f 125/2/2 124/2/2 126/2/2
f 126/2/2 124/2/2 127/2/2
f 127/2/2 124/2/2 128/2/2
f 128/2/2 124/2/2 129/2/2
f 129/2/2 124/2/2 130/2/2
f 130/2/2 124/2/2 131/2/2
f 131/2/2 124/2/2 132/2/2
f 123/2/2 125/2/2 133/2/2
f 133/2/2 125/2/2 134/2/2
f 132/2/2 124/2/2 135/2/2
f 135/2/2 124/2/2 136/2/2
f 134/2/2 125/2/2 137/2/2
f 125/5/2 126/5/2 137/5/2
f 126/2/2 127/2/2 138/2/2
f 137/5/2 126/5/2 138/5/2
f 127/5/2 128/5/2 139/5/2
f 138/2/2 127/2/2 139/2/2
f 128/2/2 129/2/2 140/2/2
f 139/5/2 128/5/2 140/5/2
f 129/5/2 130/5/2 141/5/2
f 140/2/2 129/2/2 141/2/2
f 130/2/2 131/2/2 142/2/2
f 141/5/2 130/5/2 142/5/2
f 131/5/2 132/5/2 143/5/2
f 142/2/2 131/2/2 143/2/2
f 132/2/2 135/2/2 144/2/2
f 143/5/2 132/5/2 144/5/2
f 133/3/2 134/3/2 145/3/2
f 134/2/2 137/2/2 146/2/2
f 145/3/2 134/3/2 146/3/2
f 137/2/2 138/2/2 146/2/2
f 143/2/2 144/2/2 146/2/2
f 142/2/2 143/2/2 146/2/2
f 138/2/2 139/2/2 146/2/2
f 139/2/2 140/2/2 146/2/2
f 141/2/2 142/2/2 146/2/2
f 140/2/2 141/2/2 146/2/2
f 135/3/2 136/3/2 147/3/2
f 146/2/2 144/2/2 147/2/2
f 144/2/2 135/2/2 147/2/2
f 147/3/2 136/3/2 148/3/2
f 145/6/2 146/6/2 149/6/2
f 146/6/2 147/6/2 149/6/2
f 147/6/2 148/6/2 149/6/2
f 149/6/2 148/6/2 150/6/2
f 153/6/3 152/6/3 151/6/3
f 154/6/3 152/6/3 153/6/3
f 159/2/3 156/2/3 155/2/3
f 159/3/3 157/3/3 156/3/3
f 160/6/3 158/6/3 157/6/3
f 160/3/3 157/3/3 159/3/3
f 162/2/3 159/2/3 155/2/3
f 163/6/3 160/6/3 159/6/3
f 163/2/3 159/2/3 162/2/3
f 164/6/3 158/6/3 160/6/3
f 164/6/3 160/6/3 163/6/3
f 165/6/3 158/6/3 164/6/3
f 166/5/3 163/5/3 162/5/3
f 166/5/3 162/5/3 161/5/3
f 167/5/3 163/5/3 166/5/3
f 168/5/3 166/5/3 161/5/3
f 168/4/3 167/4/3 166/4/3
f 169/5/3 163/5/3 167/5/3
f 169/4/3 167/4/3 168/4/3
f 170/5/3 168/5/3 161/5/3
f 170/5/3 169/5/3 168/5/3
f 171/5/3 169/5/3 170/5/3
f 172/6/3 164/6/3 163/6/3
f 172/5/3 169/5/3 171/5/3
f 172/5/3 163/5/3 169/5/3
f 173/2/3 172/2/3 171/2/3
f 174/6/3 164/6/3 172/6/3
f 174/2/3 172/2/3 173/2/3
f 175/1/3 165/1/3 164/1/3
f 175/6/3 164/6/3 174/6/3
f 175/6/3 174/6/3 173/6/3
f 176/6/3 158/6/3 165/6/3
f 176/1/3 165/1/3 175/1/3
f 177/6/3 175/6/3 173/6/3
f 177/6/3 176/6/3 175/6/3
f 178/6/3 158/6/3 176/6/3
f 178/6/3 176/6/3 177/6/3
f 179/6/3 177/6/3 173/6/3
f 179/1/3 178/1/3 177/1/3
f 180/6/3 158/6/3 178/6/3
f 180/1/3 178/1/3 179/1/3
f 181/6/3 179/6/3 173/6/3
f 181/6/3 180/6/3 179/6/3
f 182/6/3 158/6/3 180/6/3
f 182/6/3 180/6/3 181/6/3
f 183/6/3 181/6/3 173/6/3
f 183/1/3 182/1/3 181/1/3
f 184/6/3 158/6/3 182/6/3
f 184/1/3 182/1/3 183/1/3
f 186/2/3 173/2/3 171/2/3
f 187/6/3 183/6/3 173/6/3
f 187/6/3 184/6/3 183/6/3
f 187/2/3 173/2/3 186/2/3
f 188/6/3 184/6/3 187/6/3
f 189/6/3 184/6/3 188/6/3
f 190/6/3 158/6/3 184/6/3
f 190/6/3 184/6/3 189/6/3
f 191/5/3 186/5/3 185/5/3
f 191/5/3 187/5/3 186/5/3
f 191/5/3 188/5/3 187/5/3
f 192/5/3 188/5/3 191/5/3
f 193/1/3 190/1/3 189/1/3
f 194/6/3 158/6/3 190/6/3
f 194/1/3 190/1/3 193/1/3
f 195/6/3 158/6/3 194/6/3
f 196/6/3 158/6/3 195/6/3
f 197/5/3 191/5/3 185/5/3
f 197/4/3 192/4/3 191/4/3
f 198/5/3 188/5/3 192/5/3
f 198/4/3 192/4/3 197/4/3
f 199/1/3 193/1/3 189/1/3
f 200/6/3 195/6/3 194/6/3
f 200/1/3 193/1/3 199/1/3
f 200/6/3 194/6/3 193/6/3
f 201/6/3 195/6/3 200/6/3
f 202/6/3 195/6/3 201/6/3
f 203/5/3 197/5/3 185/5/3
f 203/5/3 198/5/3 197/5/3
f 204/5/3 198/5/3 203/5/3
f 205/5/3 188/5/3 198/5/3
f 205/5/3 198/5/3 204/5/3
f 205/6/3 189/6/3 188/6/3
f 206/1/3 199/1/3 189/1/3
f 207/6/3 201/6/3 200/6/3
f 207/1/3 199/1/3 206/1/3
f 207/6/3 200/6/3 199/6/3
f 208/6/3 201/6/3 207/6/3
f 209/6/3 201/6/3 208/6/3
f 210/6/3 189/6/3 205/6/3
f 211/1/3 206/1/3 189/1/3
f 211/6/3 189/6/3 210/6/3
f 212/6/3 208/6/3 207/6/3
f 212/1/3 206/1/3 211/1/3
f 212/6/3 207/6/3 206/6/3
f 213/6/3 208/6/3 212/6/3
f 214/6/3 208/6/3 213/6/3
f 215/6/3 210/6/3 205/6/3
f 216/6/3 213/6/3 212/6/3
f 217/6/3 213/6/3 216/6/3
f 218/6/3 215/6/3 205/6/3
f 218/2/3 205/2/3 204/2/3
f 218/6/3 216/6/3 215/6/3
f 219/6/3 216/6/3 218/6/3
f 220/6/3 216/6/3 219/6/3
f 221/6/3 216/6/3 220/6/3
f 222/2/3 218/2/3 204/2/3
f 223/3/3 219/3/3 218/3/3
f 223/2/3 218/2/3 222/2/3
f 224/6/3 220/6/3 219/6/3
f 224/3/3 219/3/3 223/3/3
f 225/6/3 220/6/3 224/6/3
f 228/5/3 227/5/3 226/5/3
f 229/5/3 227/5/3 228/5/3
f 232/5/3 231/5/3 230/5/3
f 233/5/3 231/5/3 232/5/3
f 236/5/3 235/5/3 234/5/3
f 237/5/3 235/5/3 236/5/3
f 238/4/3 237/4/3 236/4/3
f 239/4/3 237/4/3 238/4/3
f 240/5/3 239/5/3 238/5/3
f 241/5/3 239/5/3 240/5/3
f 242/5/4 243/5/4 244/5/4
f 244/5/4 243/5/4 245/5/4
f 246/5/4 247/5/4 248/5/4
f 248/5/4 247/5/4 249/5/4
f 250/2/4 251/2/4 252/2/4
f 252/2/4 251/2/4 253/2/4
f 254/2/4 255/2/4 258/2/4
f 255/3/4 256/3/4 258/3/4
f 256/6/4 257/6/4 259/6/4
f 258/3/4 256/3/4 259/3/4
f 254/2/4 258/2/4 261/2/4
f 258/6/4 259/6/4 262/6/4
f 261/2/4 258/2/4 262/2/4
f 259/6/4 257/6/4 263/6/4
f 262/6/4 259/6/4 263/6/4
f 263/6/4 257/6/4 264/6/4
f 261/5/4 262/5/4 265/5/4
f 260/5/4 261/5/4 265/5/4
f 265/5/4 262/5/4 266/5/4
f 260/5/4 265/5/4 267/5/4
f 265/4/4 266/4/4 267/4/4
f 266/5/4 262/5/4 268/5/4
f 267/4/4 266/4/4 268/4/4
f 260/5/4 267/5/4 269/5/4
f 267/5/4 268/5/4 269/5/4
f 269/5/4 268/5/4 270/5/4
f 262/6/4 263/6/4 271/6/4
f 270/5/4 268/5/4 271/5/4
f 268/5/4 262/5/4 271/5/4
f 270/2/4 271/2/4 272/2/4
f 271/6/4 263/6/4 273/6/4
f 272/2/4 271/2/4 273/2/4
f 263/1/4 264/1/4 274/1/4
f 273/6/4 263/6/4 274/6/4
f 272/6/4 273/6/4 274/6/4
f 264/6/4 257/6/4 275/6/4
f 274/1/4 264/1/4 275/1/4
f 272/6/4 274/6/4 276/6/4
f 274/6/4 275/6/4 276/6/4
f 275/6/4 257/6/4 277/6/4
f 276/6/4 275/6/4 277/6/4
f 272/6/4 276/6/4 278/6/4
f 276/1/4 277/1/4 278/1/4
f 277/6/4 257/6/4 279/6/4
f 278/1/4 277/1/4 279/1/4
f 272/6/4 278/6/4 280/6/4
f 278/6/4 279/6/4 280/6/4
f 279/6/4 257/6/4 281/6/4
f 280/6/4 279/6/4 281/6/4
f 272/6/4 280/6/4 282/6/4
f 280/1/4 281/1/4 282/1/4
f 281/6/4 257/6/4 283/6/4
f 282/1/4 281/1/4 283/1/4
f 270/2/4 272/2/4 285/2/4
f 272/6/4 282/6/4 286/6/4
f 282/6/4 283/6/4 286/6/4
f 285/2/4 272/2/4 286/2/4
f 286/6/4 283/6/4 287/6/4
f 287/6/4 283/6/4 288/6/4
f 283/6/4 257/6/4 289/6/4
f 288/6/4 283/6/4 289/6/4
f 284/5/4 285/5/4 290/5/4
f 285/5/4 286/5/4 290/5/4
f 286/5/4 287/5/4 290/5/4
f 290/5/4 287/5/4 291/5/4
f 288/1/4 289/1/4 292/1/4
f 289/6/4 257/6/4 293/6/4
f 292/1/4 289/1/4 293/1/4
f 293/6/4 257/6/4 294/6/4
f 294/6/4 257/6/4 295/6/4
f 284/5/4 290/5/4 296/5/4
f 290/4/4 291/4/4 296/4/4
f 291/5/4 287/5/4 297/5/4
f 296/4/4 291/4/4 297/4/4
f 288/1/4 292/1/4 298/1/4
f 293/6/4 294/6/4 299/6/4
f 298/1/4 292/1/4 299/1/4
f 292/6/4 293/6/4 299/6/4
f 299/6/4 294/6/4 300/6/4
f 300/6/4 294/6/4 301/6/4
f 284/5/4 296/5/4 302/5/4
f 296/5/4 297/5/4 302/5/4
f 302/5/4 297/5/4 303/5/4
f 297/5/4 287/5/4 304/5/4
f 303/5/4 297/5/4 304/5/4
f 287/6/4 288/6/4 304/6/4
f 288/1/4 298/1/4 305/1/4
f 299/6/4 300/6/4 306/6/4
f 305/1/4 298/1/4 306/1/4
f 298/6/4 299/6/4 306/6/4
f 306/6/4 300/6/4 307/6/4
f 307/6/4 300/6/4 308/6/4
f 304/6/4 288/6/4 309/6/4
f 288/1/4 305/1/4 310/1/4
f 309/6/4 288/6/4 310/6/4
f 306/6/4 307/6/4 311/6/4
f 310/1/4 305/1/4 311/1/4
f 305/6/4 306/6/4 311/6/4
f 311/6/4 307/6/4 312/6/4
f 312/6/4 307/6/4 313/6/4
f 304/6/4 309/6/4 314/6/4
f 311/6/4 312/6/4 315/6/4
f 315/6/4 312/6/4 316/6/4
f 304/6/4 314/6/4 317/6/4
f 303/2/4 304/2/4 317/2/4
f 314/6/4 315/6/4 317/6/4
f 317/6/4 315/6/4 318/6/4
f 318/6/4 315/6/4 319/6/4
f 319/6/4 315/6/4 320/6/4
f 303/2/4 317/2/4 321/2/4
f 317/3/4 318/3/4 322/3/4
f 321/2/4 317/2/4 322/2/4
f 318/6/4 319/6/4 323/6/4
f 322/3/4 318/3/4 323/3/4
f 323/6/4 319/6/4 324/6/4
f 325/6/4 326/6/4 327/6/4
f 327/6/4 326/6/4 328/6/4
f 333/5/5 330/5/5 329/5/5
f 334/5/5 330/5/5 333/5/5
f 335/5/5 332/5/5 331/5/5
f 336/5/5 332/5/5 335/5/5
f 341/5/5 338/5/5 337/5/5
f 342/5/5 338/5/5 341/5/5
f 343/5/5 340/5/5 339/5/5
f 344/5/5 340/5/5 343/5/5
f 351/2/5 346/2/5 345/2/5
f 352/2/5 348/2/5 347/2/5
f 353/2/5 348/2/5 352/2/5
f 354/2/5 350/2/5 349/2/5
f 355/2/5 353/2/5 352/2/5
f 355/2/5 354/2/5 353/2/5
f 355/2/5 351/2/5 345/2/5
f 355/2/5 352/2/5 351/2/5
f 356/2/5 354/2/5 355/2/5
f 357/4/5 356/4/5 355/4/5
f 358/2/5 354/2/5 356/2/5
f 358/4/5 356/4/5 357/4/5
f 359/2/5 358/2/5 357/2/5
f 359/2/5 354/2/5 358/2/5
f 360/2/5 354/2/5 359/2/5
f 361/2/5 354/2/5 360/2/5
f 362/2/5 350/2/5 354/2/5
f 362/2/5 354/2/5 361/2/5
f 363/2/5 359/2/5 357/2/5
f 364/2/5 359/2/5 363/2/5
f 365/2/5 361/2/5 360/2/5
f 366/2/5 361/2/5 365/2/5
f 367/2/5 350/2/5 362/2/5
f 368/2/5 350/2/5 367/2/5
f 371/6/5 370/6/5 369/6/5
f 372/6/5 370/6/5 371/6/5
f 373/6/5 370/6/5 372/6/5
f 374/6/5 370/6/5 373/6/5
f 377/6/5 376/6/5 375/6/5
f 378/6/5 376/6/5 377/6/5
f 381/6/5 380/6/5 379/6/5
f 382/6/5 380/6/5 381/6/5
f 383/5/6 384/5/6 385/5/6
f 385/5/6 384/5/6 386/5/6
f 386/5/6 384/5/6 387/5/6
f 387/5/6 384/5/6 388/5/6
f 389/6/6 390/6/6 391/6/6
f 391/6/6 390/6/6 392/6/6
f 392/6/6 390/6/6 393/6/6
f 393/6/6 390/6/6 394/6/6
f 395/6/6 396/6/6 397/6/6
f 397/6/6 396/6/6 398/6/6
f 398/6/6 399/6/6 400/6/6
f 400/6/6 399/6/6 401/6/6
f 400/1/6 401/1/6 402/1/6
f 402/1/6 401/1/6 403/1/6
f 402/6/6 403/6/6 405/6/6
f 405/6/6 403/6/6 406/6/6
f 404/6/6 405/6/6 407/6/6
f 407/6/6 405/6/6 408/6/6
f 409/6/6 410/6/6 411/6/6
f 411/6/6 410/6/6 412/6/6
f 411/1/6 412/1/6 413/1/6
f 413/1/6 412/1/6 414/1/6
f 413/6/6 414/6/6 415/6/6
f 415/6/6 414/6/6 416/6/6
f 417/6/6 418/6/6 419/6/6
f 419/6/6 418/6/6 420/6/6
f 419/1/6 420/1/6 421/1/6
f 421/1/6 420/1/6 422/1/6
f 421/6/6 422/6/6 423/6/6
f 423/6/6 422/6/6 424/6/6
f 425/6/6 426/6/6 427/6/6
f 427/6/6 426/6/6 428/6/6
f 427/1/6 428/1/6 429/1/6
f 429/1/6 428/1/6 430/1/6
f 429/6/6 430/6/6 431/6/6
f 431/6/6 430/6/6 432/6/6
f 433/6/6 434/6/6 435/6/6
f 435/6/6 434/6/6 436/6/6
f 437/6/6 438/6/6 439/6/6
f 439/6/6 438/6/6 440/6/6
